<svg width="113" height="39" viewBox="0 0 113 39" fill="none" xmlns="http://www.w3.org/2000/svg">
<path d="M65.0994 1.51461C65.0994 1.35465 65.0692 1.21469 65.0036 1.09472C64.9381 0.97475 64.8523 0.874776 64.7465 0.794796C64.6406 0.714817 64.5145 0.654832 64.3733 0.614842C64.2322 0.574853 64.0859 0.549859 63.9296 0.549859C63.7935 0.549859 63.6624 0.564855 63.5414 0.599846C63.4204 0.634837 63.3094 0.684824 63.2136 0.749808C63.1178 0.814791 63.0422 0.894771 62.9817 0.989746C62.9262 1.08472 62.896 1.19469 62.896 1.32466V1.36465C62.896 1.49962 62.9262 1.61459 62.9817 1.70956C63.0372 1.80454 63.1229 1.88452 63.2338 1.9545C63.3447 2.02448 63.4809 2.07947 63.6473 2.12445C63.8137 2.16944 64.0053 2.20943 64.2271 2.23943C64.7465 2.31941 65.1246 2.46937 65.3717 2.68931C65.6188 2.90925 65.7398 3.20918 65.7398 3.57908V3.66406C65.7398 3.87401 65.7045 4.06896 65.6288 4.24391C65.5532 4.41887 65.4473 4.56883 65.3061 4.6938C65.1599 4.81876 64.9834 4.91874 64.7717 4.98872C64.5599 5.0587 64.3128 5.09369 64.0355 5.09369C63.7179 5.09369 63.4405 5.04871 63.1985 4.95873C62.9565 4.86875 62.7548 4.74378 62.5935 4.57883C62.4321 4.41387 62.3061 4.22892 62.2203 4.01397C62.1346 3.79903 62.0943 3.55909 62.0943 3.30415V3.09921H62.6893V3.26916C62.6893 3.69905 62.8103 4.01897 63.0473 4.23391C63.2842 4.44886 63.617 4.55383 64.0406 4.55383C64.4086 4.55383 64.686 4.47385 64.8675 4.31389C65.054 4.15393 65.1448 3.93899 65.1448 3.67406V3.62907C65.1448 3.37413 65.049 3.17419 64.8574 3.03922C64.6658 2.90426 64.3582 2.80428 63.9296 2.7443C63.6826 2.70931 63.4557 2.65932 63.254 2.59433C63.0523 2.52435 62.8859 2.43937 62.7447 2.3294C62.6035 2.21943 62.4926 2.08946 62.422 1.9345C62.3464 1.77954 62.3111 1.59959 62.3111 1.38964V1.30467C62.3111 1.11471 62.3514 0.939759 62.4321 0.7798C62.5128 0.619841 62.6237 0.484876 62.7699 0.364906C62.9111 0.249936 63.0876 0.159959 63.2842 0.0949757C63.4859 0.0299923 63.7027 0 63.9448 0C64.2221 0 64.4691 0.0399898 64.691 0.119969C64.9078 0.199949 65.0944 0.304922 65.2456 0.439887C65.3969 0.574853 65.5078 0.729813 65.5885 0.909767C65.6641 1.08972 65.7045 1.27467 65.7045 1.47462V1.76955H65.1095V1.51461H65.0994ZM69.2088 1.52961H69.7584V5.00372H69.2088V4.37388H69.1231C69.0121 4.59882 68.8609 4.77378 68.6794 4.90374C68.4978 5.03371 68.2609 5.09869 67.9785 5.09869C67.7869 5.09869 67.6054 5.0687 67.444 5.00372C67.2827 4.93873 67.1415 4.84876 67.0255 4.71879C66.9096 4.59382 66.8188 4.43886 66.7583 4.24891C66.6927 4.06396 66.6625 3.84401 66.6625 3.59908V1.52961H67.2121V3.5291C67.2121 3.894 67.2877 4.15893 67.439 4.32889C67.5902 4.49885 67.8222 4.57883 68.1298 4.57883C68.4625 4.57883 68.7247 4.46386 68.9163 4.23891C69.1079 4.01397 69.2037 3.70905 69.2037 3.33414V1.52961H69.2088ZM71.4525 6.40336H70.9029V1.52961H71.4525V2.07447H71.5383C71.6593 1.86452 71.8307 1.70456 72.0475 1.59459C72.2643 1.48462 72.5013 1.42963 72.7534 1.42963C72.9702 1.42963 73.1719 1.46962 73.3686 1.5496C73.5652 1.62958 73.7316 1.74455 73.8829 1.89451C74.0341 2.04448 74.1501 2.22943 74.2358 2.44937C74.3215 2.66932 74.3669 2.91925 74.3669 3.19918V3.33914C74.3669 3.62407 74.3266 3.87401 74.2409 4.09395C74.1551 4.31389 74.0392 4.49885 73.893 4.64881C73.7467 4.79877 73.5703 4.90874 73.3736 4.98872C73.177 5.0637 72.9652 5.10369 72.7433 5.10369C72.6324 5.10369 72.5164 5.0887 72.3954 5.0637C72.2795 5.03871 72.1635 4.99872 72.0576 4.94373C71.9517 4.88875 71.8559 4.82376 71.7652 4.74878C71.6744 4.6738 71.5988 4.57883 71.5383 4.47385H71.4525V6.40336ZM72.6274 4.58382C72.7988 4.58382 72.9501 4.55383 73.0912 4.49385C73.2324 4.43386 73.3585 4.35388 73.4644 4.24391C73.5703 4.13894 73.6509 4.00397 73.7114 3.85401C73.7719 3.69905 73.7972 3.52909 73.7972 3.33414V3.19418C73.7972 3.00923 73.7669 2.83927 73.7114 2.68431C73.6509 2.53435 73.5703 2.40438 73.4644 2.29441C73.3585 2.18444 73.2324 2.09946 73.0912 2.03948C72.9501 1.97949 72.7938 1.9495 72.6274 1.9495C72.461 1.9495 72.3097 1.97949 72.1685 2.04448C72.0274 2.10946 71.9063 2.19444 71.8005 2.30441C71.6946 2.41438 71.6088 2.54935 71.5483 2.70931C71.4878 2.86427 71.4576 3.03922 71.4576 3.22417V3.30915C71.4576 3.4991 71.4878 3.67406 71.5483 3.82902C71.6088 3.98398 71.6946 4.11894 71.8005 4.23391C71.9063 4.34888 72.0324 4.43386 72.1685 4.49385C72.3097 4.55383 72.461 4.58382 72.6274 4.58382ZM75.7737 6.40336H75.2241V1.52961H75.7737V2.07447H75.8594C75.9804 1.86452 76.1518 1.70456 76.3687 1.59459C76.5855 1.48462 76.8225 1.42963 77.0746 1.42963C77.2914 1.42963 77.4931 1.46962 77.6897 1.5496C77.8864 1.62958 78.0527 1.74455 78.204 1.89451C78.3553 2.04448 78.4712 2.22943 78.557 2.44937C78.6427 2.66932 78.6881 2.91925 78.6881 3.19918V3.33914C78.6881 3.62407 78.6477 3.87401 78.562 4.09395C78.4763 4.31389 78.3603 4.49885 78.2141 4.64881C78.0679 4.79877 77.8914 4.90874 77.6947 4.98872C77.4981 5.0637 77.2863 5.10369 77.0645 5.10369C76.9536 5.10369 76.8376 5.0887 76.7166 5.0637C76.6006 5.03871 76.4846 4.99872 76.3787 4.94373C76.2729 4.88875 76.1771 4.82376 76.0863 4.74878C75.9955 4.6738 75.9199 4.57883 75.8594 4.47385H75.7737V6.40336ZM76.9485 4.58382C77.1199 4.58382 77.2712 4.55383 77.4124 4.49385C77.5536 4.43386 77.6796 4.35388 77.7855 4.24391C77.8914 4.13894 77.9721 4.00397 78.0326 3.85401C78.0931 3.69905 78.1183 3.52909 78.1183 3.33414V3.19418C78.1183 3.00923 78.088 2.83927 78.0326 2.68431C77.9721 2.53435 77.8914 2.40438 77.7855 2.29441C77.6796 2.18444 77.5536 2.09946 77.4124 2.03948C77.2712 1.97949 77.1149 1.9495 76.9485 1.9495C76.7821 1.9495 76.6309 1.97949 76.4897 2.04448C76.3485 2.10946 76.2275 2.19444 76.1216 2.30441C76.0157 2.41438 75.93 2.54935 75.8695 2.70931C75.809 2.86427 75.7787 3.03922 75.7787 3.22417V3.30915C75.7787 3.4991 75.809 3.67406 75.8695 3.82902C75.93 3.98398 76.0157 4.11894 76.1216 4.23391C76.2275 4.34888 76.3535 4.43386 76.4897 4.49385C76.6309 4.55383 76.7821 4.58382 76.9485 4.58382ZM82.9739 3.30915C82.9739 3.59908 82.9235 3.85401 82.8277 4.07396C82.7319 4.2939 82.6008 4.48385 82.4445 4.63381C82.2882 4.78377 82.0966 4.89874 81.8848 4.97872C81.673 5.0587 81.4461 5.09869 81.2192 5.09869C80.9822 5.09869 80.7604 5.0587 80.5486 4.97872C80.3368 4.89874 80.1503 4.78377 79.9889 4.63381C79.8276 4.48385 79.7015 4.2939 79.6057 4.07396C79.5099 3.85401 79.4595 3.59908 79.4595 3.30915V3.22417C79.4595 2.93925 79.5099 2.68431 79.6057 2.46437C79.7015 2.24442 79.8326 2.05447 79.994 1.89951C80.1553 1.74455 80.3419 1.62958 80.5537 1.5496C80.7654 1.46962 80.9873 1.42963 81.2192 1.42963C81.4512 1.42963 81.673 1.46962 81.8848 1.5496C82.0966 1.62958 82.2831 1.74455 82.4445 1.89951C82.6058 2.05447 82.7369 2.23943 82.8327 2.46437C82.9285 2.68431 82.9789 2.93925 82.9789 3.22417V3.30915H82.9739ZM81.2192 4.58382C81.3907 4.58382 81.547 4.55383 81.6881 4.49385C81.8344 4.43386 81.9554 4.34888 82.0663 4.23891C82.1772 4.12894 82.2579 3.99398 82.3184 3.83402C82.3789 3.67906 82.4092 3.4991 82.4092 3.30415V3.22417C82.4092 3.03922 82.3789 2.86427 82.3184 2.70931C82.2579 2.55434 82.1722 2.41938 82.0663 2.30441C81.9604 2.19444 81.8293 2.10446 81.6831 2.04448C81.5369 1.98449 81.3806 1.9495 81.2192 1.9495C81.0528 1.9495 80.9016 1.97949 80.7553 2.04448C80.6091 2.10946 80.4831 2.19444 80.3721 2.30441C80.2663 2.41438 80.1805 2.54935 80.12 2.70931C80.0595 2.86427 80.0293 3.03922 80.0293 3.22417V3.30915C80.0293 3.5041 80.0595 3.67906 80.12 3.83902C80.1805 3.99398 80.2663 4.12894 80.3721 4.24391C80.478 4.35388 80.6041 4.43886 80.7503 4.49885C80.8915 4.55383 81.0478 4.58382 81.2192 4.58382ZM83.7958 1.52961H85.0664V1.98949H85.1521C85.2429 1.79954 85.3689 1.65458 85.5353 1.5646C85.7017 1.47462 85.8883 1.42963 86.1 1.42963C86.453 1.42963 86.7354 1.5446 86.9522 1.77454C87.169 2.00449 87.285 2.3394 87.3001 2.77429L86.7202 2.85927C86.7202 2.53935 86.6446 2.30441 86.4883 2.16444C86.332 2.02448 86.1404 1.9495 85.9185 1.9495C85.7723 1.9495 85.6462 1.97949 85.5404 2.03448C85.4345 2.08946 85.3437 2.16944 85.2731 2.26442C85.2025 2.36439 85.1521 2.47437 85.1168 2.60933C85.0815 2.7393 85.0664 2.87926 85.0664 3.02922V4.49885H85.9538V5.00372H83.71V4.49885H84.5168V2.03448H83.7958V1.52961ZM88.1925 1.52961H89.2917V0.104973H89.8413V1.53461H91.1977V2.03948H89.8413V4.2939C89.8413 4.43386 89.9069 4.50384 90.0329 4.50384H91.0262V5.00372H89.8312C89.6699 5.00372 89.5388 4.95373 89.438 4.84876C89.3371 4.74378 89.2867 4.61382 89.2867 4.45886V2.03448H88.1875V1.52961H88.1925ZM93.033 3.43412C93.0481 3.77903 93.154 4.05896 93.3557 4.26891C93.5574 4.47885 93.8398 4.58382 94.2028 4.58382C94.3692 4.58382 94.5104 4.56383 94.6314 4.52884C94.7524 4.49385 94.8583 4.43886 94.944 4.37388C95.0297 4.3089 95.1003 4.23391 95.1558 4.14394C95.2112 4.05896 95.2516 3.96398 95.2869 3.86901L95.8112 4.00897C95.7104 4.32889 95.5289 4.59382 95.2667 4.79377C94.9995 4.99872 94.6415 5.09869 94.1877 5.09869C93.9406 5.09869 93.7087 5.0537 93.5019 4.96873C93.2902 4.88375 93.1137 4.75878 92.9624 4.60382C92.8112 4.44886 92.6952 4.25391 92.6095 4.03896C92.5238 3.81902 92.4834 3.57908 92.4834 3.30915V3.13919C92.4834 2.89926 92.5288 2.66932 92.6145 2.45937C92.7002 2.24942 92.8213 2.06947 92.9776 1.91951C93.1339 1.76955 93.3154 1.64958 93.5221 1.5646C93.7339 1.47962 93.9608 1.43463 94.2028 1.43463C94.4902 1.43463 94.7373 1.48462 94.9491 1.58959C95.1608 1.69457 95.3323 1.82453 95.4633 1.97949C95.5995 2.13445 95.6953 2.29941 95.7608 2.48436C95.8264 2.66432 95.8566 2.83427 95.8566 2.98923V3.43912H93.033V3.43412ZM94.2028 1.9495C94.0465 1.9495 93.9053 1.97449 93.7692 2.02448C93.633 2.07447 93.5171 2.14445 93.4162 2.22943C93.3154 2.31941 93.2347 2.41938 93.1692 2.53935C93.1036 2.65932 93.0633 2.78928 93.0431 2.92925H95.302C95.2919 2.77929 95.2566 2.64432 95.1911 2.52435C95.1255 2.40438 95.0448 2.29941 94.944 2.21443C94.8432 2.12945 94.7272 2.06447 94.5961 2.01948C94.465 1.97449 94.344 1.9495 94.2028 1.9495ZM99.6635 4.46885H99.5778C99.5223 4.57383 99.4517 4.6688 99.3609 4.74878C99.2702 4.82876 99.1794 4.89374 99.0786 4.94373C98.9777 4.99372 98.8718 5.03371 98.7559 5.0587C98.645 5.0837 98.534 5.09869 98.4332 5.09869C98.1962 5.09869 97.9794 5.0587 97.7777 4.97872C97.576 4.89874 97.3995 4.78377 97.2432 4.63381C97.092 4.48385 96.9709 4.2989 96.8852 4.07895C96.7995 3.85901 96.7541 3.60408 96.7541 3.31915V3.20918C96.7541 2.92925 96.7995 2.67931 96.8903 2.45937C96.981 2.23943 97.102 2.04947 97.2483 1.89951C97.3945 1.74955 97.576 1.63458 97.7777 1.5546C97.9794 1.47462 98.1962 1.43463 98.418 1.43463C98.6601 1.43463 98.8819 1.48462 99.0937 1.58959C99.3055 1.69457 99.4668 1.85452 99.5778 2.07447H99.6635V0.104973H100.213V5.00372H99.6635V4.46885ZM98.4886 4.58382C98.655 4.58382 98.8063 4.55383 98.9475 4.49385C99.0887 4.43386 99.2147 4.34888 99.3206 4.23391C99.4265 4.11894 99.5122 3.98898 99.5727 3.82902C99.6332 3.67406 99.6635 3.4991 99.6635 3.30915V3.22417C99.6635 3.03922 99.6332 2.86427 99.5727 2.70931C99.5122 2.55434 99.4265 2.41938 99.3206 2.30441C99.2147 2.19444 99.0887 2.10446 98.9475 2.04448C98.8063 1.97949 98.65 1.9495 98.4937 1.9495C98.3273 1.9495 98.176 1.97949 98.0298 2.03948C97.8886 2.09946 97.7626 2.18444 97.6567 2.29941C97.5508 2.40938 97.4701 2.54435 97.4096 2.69931C97.3491 2.85427 97.3239 3.02422 97.3239 3.20918V3.31915C97.3239 3.5141 97.3541 3.68905 97.4096 3.84401C97.4701 3.99897 97.5508 4.12894 97.6567 4.23891C97.7626 4.34888 97.8886 4.43386 98.0248 4.48885C98.1659 4.55383 98.3223 4.58382 98.4886 4.58382ZM106.017 5.00372H105.467V0.104973H106.017V2.07947H106.102C106.223 1.86952 106.395 1.70956 106.612 1.59959C106.828 1.48962 107.065 1.43463 107.317 1.43463C107.534 1.43463 107.736 1.47462 107.933 1.5546C108.129 1.63458 108.296 1.74955 108.447 1.89951C108.598 2.04947 108.714 2.23443 108.8 2.45437C108.886 2.67431 108.931 2.92425 108.931 3.20418V3.34414C108.931 3.62907 108.891 3.87901 108.805 4.09895C108.719 4.31889 108.603 4.50385 108.457 4.65381C108.311 4.80377 108.134 4.91374 107.938 4.99372C107.741 5.0687 107.529 5.10869 107.307 5.10869C107.196 5.10869 107.08 5.09369 106.959 5.0687C106.844 5.04371 106.728 5.00372 106.622 4.94873C106.516 4.89374 106.42 4.82876 106.329 4.75378C106.238 4.6788 106.163 4.58382 106.102 4.47885H106.017V5.00372ZM107.186 4.58382C107.358 4.58382 107.509 4.55383 107.65 4.49385C107.791 4.43386 107.917 4.35388 108.023 4.24391C108.129 4.13894 108.21 4.00397 108.27 3.85401C108.331 3.69905 108.356 3.52909 108.356 3.33414V3.19418C108.356 3.00923 108.326 2.83927 108.27 2.68431C108.21 2.53435 108.129 2.40438 108.023 2.29441C107.917 2.18444 107.791 2.09946 107.65 2.03948C107.509 1.97949 107.353 1.9495 107.186 1.9495C107.02 1.9495 106.869 1.97949 106.728 2.04448C106.586 2.10946 106.465 2.19444 106.359 2.30441C106.254 2.41438 106.168 2.54935 106.107 2.70931C106.047 2.86427 106.017 3.03922 106.017 3.22417V3.30915C106.017 3.4991 106.047 3.67406 106.107 3.82902C106.168 3.98398 106.254 4.11894 106.359 4.23391C106.465 4.34888 106.591 4.43386 106.728 4.49385C106.869 4.55383 107.02 4.58382 107.186 4.58382ZM112.455 4.37388H112.37C112.259 4.59882 112.108 4.77378 111.926 4.90374C111.744 5.03371 111.508 5.09869 111.225 5.09869C111.034 5.09869 110.852 5.0687 110.691 5.00372C110.529 4.93873 110.388 4.84876 110.272 4.71879C110.156 4.59382 110.065 4.43886 110.005 4.24891C109.939 4.06396 109.909 3.84401 109.909 3.59908V1.52961H110.459V3.5291C110.459 3.894 110.534 4.15893 110.686 4.32889C110.837 4.49885 111.069 4.57883 111.376 4.57883C111.709 4.57883 111.971 4.46386 112.163 4.23891C112.355 4.01397 112.45 3.70905 112.45 3.33414V1.52961H113V5.8535C113 6.01346 112.95 6.14342 112.849 6.2434C112.748 6.34837 112.617 6.39836 112.455 6.39836H110.459V5.89349H112.259C112.385 5.89349 112.45 5.82351 112.45 5.68354V4.37388H112.455ZM61.9783 8.40284H63.8288V11.787H63.8893L66.6978 8.40284H68.8256L65.533 12.3268L68.9567 16.8007H66.6675L63.8843 13.0467H63.8237V16.8007H61.9733V8.40284H61.9783ZM70.1819 16.3308C69.8038 15.9409 69.6122 15.416 69.6122 14.7612V10.8022H71.3063V14.4113C71.3063 14.7562 71.3971 15.0211 71.5736 15.2011C71.75 15.3811 72.0021 15.476 72.3248 15.476C72.6173 15.476 72.8795 15.3961 73.1215 15.2311C73.3635 15.0661 73.5602 14.8512 73.7165 14.5763V10.8022H75.4106V16.8007H73.7165V16.0559C73.177 16.6307 72.5164 16.9207 71.745 16.9207C71.0794 16.9207 70.5601 16.7257 70.1819 16.3308ZM77.4073 16.4608C76.9535 16.1509 76.651 15.721 76.4998 15.1611L76.5502 15.0062L77.846 14.6212C77.9922 15.2911 78.4259 15.631 79.1519 15.631C79.404 15.631 79.6057 15.581 79.7671 15.476C79.9284 15.3711 80.0091 15.2261 80.0091 15.0461C80.0091 14.8562 79.9183 14.7062 79.7368 14.5963C79.5553 14.4863 79.2024 14.3663 78.678 14.2313C78.0427 14.0814 77.5586 13.8564 77.2359 13.5665C76.9132 13.2766 76.7519 12.8867 76.7519 12.4068C76.7519 12.0869 76.8426 11.797 77.0241 11.537C77.2057 11.2771 77.4628 11.0722 77.7906 10.9172C78.1233 10.7672 78.5015 10.6873 78.9301 10.6873C79.5654 10.6873 80.0898 10.8272 80.4982 11.1022C80.9066 11.3771 81.1688 11.767 81.2898 12.2719L81.2192 12.4018L79.9385 12.7117C79.883 12.4318 79.762 12.2169 79.5755 12.0719C79.3889 11.9219 79.162 11.852 78.8998 11.852C78.6981 11.852 78.5267 11.892 78.3906 11.9769C78.2544 12.0619 78.1838 12.1769 78.1838 12.3168C78.1838 12.4918 78.2948 12.6368 78.5217 12.7467C78.7486 12.8567 79.157 12.9967 79.757 13.1566C80.3772 13.3266 80.836 13.5465 81.1285 13.8165C81.4209 14.0864 81.5722 14.4663 81.5722 14.9462C81.5722 15.3161 81.4713 15.651 81.2747 15.9559C81.078 16.2608 80.7957 16.4958 80.4276 16.6707C80.0595 16.8407 79.636 16.9307 79.1519 16.9307C78.441 16.9207 77.8561 16.7657 77.4073 16.4608ZM83.4025 16.7007C83.11 16.5508 82.873 16.3408 82.7016 16.0659C82.5302 15.7909 82.4394 15.466 82.4394 15.1011C82.4394 14.5563 82.631 14.1214 83.0092 13.7865C83.3874 13.4565 83.9067 13.2566 84.5723 13.1916L86.2059 13.0217V12.7567C86.2059 12.4868 86.1202 12.2719 85.9437 12.1219C85.7723 11.9719 85.5252 11.892 85.2126 11.892C84.9303 11.892 84.7034 11.9669 84.537 12.1119C84.3655 12.2619 84.2647 12.4618 84.2243 12.7167L82.7974 12.5968L82.7369 12.5268C82.8579 11.9269 83.1453 11.4671 83.5941 11.1521C84.0479 10.8372 84.5924 10.6773 85.2378 10.6773C86.0042 10.6773 86.6244 10.8672 87.1034 11.2471C87.5774 11.627 87.8194 12.1619 87.8194 12.8467V15.0012C87.8194 15.1861 87.8598 15.3261 87.9354 15.421C88.011 15.516 88.1169 15.566 88.2581 15.566C88.3488 15.566 88.4245 15.556 88.49 15.531L88.5505 15.601V16.7507C88.3085 16.8307 88.0312 16.8707 87.7135 16.8707C87.0581 16.8707 86.6093 16.6007 86.3572 16.0559H86.2715C85.9891 16.3458 85.6967 16.5608 85.3992 16.7057C85.1017 16.8507 84.7588 16.9207 84.3706 16.9207C84.0176 16.9207 83.7 16.8457 83.4025 16.7007ZM85.5202 15.431C85.7421 15.2861 85.9689 15.0661 86.2059 14.7712V14.0764L84.8748 14.2463C84.5924 14.2763 84.3756 14.3613 84.2294 14.4963C84.0781 14.6312 84.0075 14.8012 84.0075 15.0012C84.0075 15.2011 84.0781 15.3611 84.2193 15.476C84.3605 15.591 84.542 15.651 84.7588 15.651C85.0412 15.651 85.2983 15.576 85.5202 15.431ZM89.6296 10.8022H91.3237V11.512C91.7977 10.9622 92.3977 10.6823 93.1137 10.6823C93.8297 10.6823 94.3339 10.9622 94.6264 11.522C95.1659 10.9622 95.8112 10.6823 96.5625 10.6823C97.1827 10.6823 97.6617 10.8522 98.0046 11.1971C98.3424 11.542 98.5138 12.0119 98.5138 12.6118V16.8007H96.8197V12.9867C96.8197 12.4118 96.5625 12.1219 96.0432 12.1219C95.5743 12.1219 95.1961 12.3718 94.9037 12.8767V16.8007H93.2095V12.9967C93.2095 12.4118 92.9574 12.1219 92.4582 12.1219C92.2263 12.1219 92.0044 12.1969 91.8027 12.3518C91.601 12.5018 91.4397 12.7017 91.3187 12.9417V16.8057H89.6296V10.8022ZM100.637 16.7007C100.344 16.5508 100.107 16.3408 99.9357 16.0659C99.7643 15.7909 99.6735 15.466 99.6735 15.1011C99.6735 14.5563 99.8652 14.1214 100.243 13.7865C100.621 13.4565 101.141 13.2566 101.806 13.1916L103.44 13.0217V12.7567C103.44 12.4868 103.354 12.2719 103.178 12.1219C103.006 11.9719 102.759 11.892 102.447 11.892C102.164 11.892 101.937 11.9669 101.771 12.1119C101.6 12.2619 101.499 12.4618 101.458 12.7167L100.032 12.5968L99.971 12.5268C100.092 11.9269 100.379 11.4671 100.828 11.1521C101.282 10.8372 101.827 10.6773 102.472 10.6773C103.238 10.6773 103.859 10.8672 104.338 11.2471C104.812 11.627 105.054 12.1619 105.054 12.8467V15.0012C105.054 15.1861 105.094 15.3261 105.17 15.421C105.245 15.516 105.351 15.566 105.492 15.566C105.583 15.566 105.659 15.556 105.724 15.531L105.785 15.601V16.7507C105.543 16.8307 105.265 16.8707 104.948 16.8707C104.292 16.8707 103.843 16.6007 103.591 16.0559H103.506C103.223 16.3458 102.931 16.5608 102.633 16.7057C102.336 16.8507 101.993 16.9207 101.605 16.9207C101.252 16.9207 100.929 16.8457 100.637 16.7007ZM102.754 15.431C102.976 15.2861 103.203 15.0661 103.44 14.7712V14.0764L102.109 14.2463C101.827 14.2763 101.61 14.3613 101.464 14.4963C101.312 14.6312 101.242 14.8012 101.242 15.0012C101.242 15.2011 101.312 15.3611 101.453 15.476C101.595 15.591 101.776 15.651 101.993 15.651C102.275 15.651 102.532 15.576 102.754 15.431ZM64.1061 20.9396H61.9783V19.38H68.0894V20.9396H65.9616V27.7779H64.1112V20.9396H64.1061ZM68.3768 21.7794H70.071V22.4992C70.2878 22.2443 70.5399 22.0393 70.8223 21.8894C71.1046 21.7394 71.4173 21.6594 71.7551 21.6594C71.9971 21.6594 72.1887 21.6894 72.3349 21.7544L72.1181 23.0741L72.0324 23.1591C71.871 23.1191 71.7349 23.0991 71.6189 23.0991C71.2862 23.0991 70.9887 23.1891 70.7214 23.374C70.4542 23.559 70.2374 23.8239 70.0659 24.1788V27.7779H68.3718V21.7794H68.3768ZM74.3266 27.5079C73.8526 27.248 73.4845 26.8831 73.2173 26.4082C72.9501 25.9383 72.819 25.3935 72.819 24.7786C72.819 24.1688 72.9601 23.6289 73.2476 23.1591C73.535 22.6892 73.9131 22.3193 74.3921 22.0543C74.8661 21.7894 75.3804 21.6594 75.93 21.6594C76.525 21.6594 77.0544 21.7844 77.5132 22.0294C77.9721 22.2793 78.3301 22.6342 78.5822 23.0991C78.8343 23.564 78.9654 24.1088 78.9654 24.7437V25.1885H74.4173C74.4577 25.6034 74.619 25.9333 74.8963 26.1783C75.1737 26.4232 75.5317 26.5432 75.9653 26.5432C76.6611 26.5432 77.1199 26.2333 77.3468 25.6184L78.7637 25.7634L78.8494 25.9084C78.6225 26.5732 78.2645 27.0681 77.7653 27.403C77.2662 27.7379 76.6561 27.9028 75.93 27.9028C75.335 27.8978 74.8005 27.7679 74.3266 27.5079ZM77.372 24.1088C77.3317 23.7489 77.1805 23.459 76.9132 23.244C76.646 23.0291 76.3182 22.9191 75.9199 22.9191C75.5669 22.9191 75.2543 23.0291 74.9821 23.244C74.7098 23.459 74.5383 23.7489 74.4678 24.1088H77.372ZM80.7755 27.6779C80.4831 27.5279 80.2461 27.318 80.0747 27.0431C79.9032 26.7681 79.8125 26.4432 79.8125 26.0783C79.8125 25.5334 80.0041 25.0986 80.3822 24.7636C80.7604 24.4337 81.2797 24.2338 81.9453 24.1688L83.579 23.9988V23.7339C83.579 23.464 83.4932 23.249 83.3168 23.0991C83.1453 22.9491 82.8983 22.8691 82.5856 22.8691C82.3033 22.8691 82.0764 22.9441 81.91 23.0891C81.7386 23.239 81.6377 23.439 81.5974 23.6939L80.1705 23.574L80.1099 23.504C80.231 22.9041 80.5184 22.4442 80.9671 22.1293C81.4159 21.8144 81.9655 21.6544 82.6109 21.6544C83.3773 21.6544 83.9975 21.8444 84.4765 22.2243C84.9504 22.6042 85.1924 23.1391 85.1924 23.8239V25.9733C85.1924 26.1583 85.2328 26.2983 85.3084 26.3932C85.384 26.4882 85.4899 26.5382 85.6311 26.5382C85.7219 26.5382 85.7975 26.5282 85.8631 26.5032L85.9236 26.5732V27.7229C85.6815 27.8029 85.4042 27.8429 85.0866 27.8429C84.4311 27.8429 83.9823 27.5729 83.7302 27.0281H83.6445C83.3621 27.318 83.0697 27.5329 82.7722 27.6779C82.4747 27.8229 82.1319 27.8928 81.7436 27.8928C81.3907 27.8978 81.073 27.8229 80.7755 27.6779ZM82.8932 26.4082C83.1151 26.2633 83.342 26.0433 83.579 25.7484V25.0536L82.2478 25.2235C81.9655 25.2535 81.7486 25.3385 81.6024 25.4735C81.4512 25.6084 81.3806 25.7784 81.3806 25.9783C81.3806 26.1783 81.4512 26.3382 81.5923 26.4532C81.7335 26.5682 81.915 26.6282 82.1319 26.6282C82.4142 26.6282 82.6714 26.5532 82.8932 26.4082ZM87.4614 27.438C87.0076 27.128 86.7051 26.6982 86.5538 26.1383L86.6043 25.9833L87.9001 25.5984C88.0463 26.2683 88.4799 26.6082 89.206 26.6082C89.4581 26.6082 89.6598 26.5582 89.8212 26.4532C89.9825 26.3482 90.0632 26.2033 90.0632 26.0233C90.0632 25.8334 89.9724 25.6834 89.7909 25.5734C89.6094 25.4635 89.2564 25.3435 88.732 25.2085C88.0967 25.0586 87.6127 24.8336 87.29 24.5437C86.9673 24.2538 86.8059 23.8639 86.8059 23.384C86.8059 23.0641 86.8967 22.7742 87.0782 22.5142C87.2597 22.2543 87.5169 22.0493 87.8446 21.8944C88.1774 21.7444 88.5556 21.6644 88.9842 21.6644C89.6195 21.6644 90.1439 21.8044 90.5523 22.0793C90.9607 22.3543 91.2229 22.7442 91.3439 23.249L91.2733 23.379L89.9926 23.6889C89.9371 23.409 89.8161 23.194 89.6296 23.0491C89.443 22.9041 89.2161 22.8291 88.9539 22.8291C88.7522 22.8291 88.5808 22.8691 88.4446 22.9541C88.3085 23.0391 88.2379 23.1541 88.2379 23.294C88.2379 23.469 88.3488 23.6139 88.5757 23.7239C88.8026 23.8339 89.2111 23.9739 89.8111 24.1338C90.4313 24.3038 90.8901 24.5237 91.1825 24.7936C91.475 25.0636 91.6263 25.4435 91.6263 25.9233C91.6263 26.2933 91.5254 26.6282 91.3288 26.9331C91.1321 27.238 90.8498 27.473 90.4817 27.6479C90.1136 27.8179 89.6901 27.9078 89.206 27.9078C88.4951 27.8978 87.9152 27.7429 87.4614 27.438ZM93.3053 27.308C92.9271 26.9181 92.7355 26.3932 92.7355 25.7384V21.7794H94.4297V25.3885C94.4297 25.7334 94.5205 25.9983 94.6969 26.1783C94.8734 26.3632 95.1255 26.4532 95.4482 26.4532C95.7407 26.4532 96.0029 26.3732 96.2449 26.2083C96.4869 26.0433 96.6835 25.8284 96.8399 25.5534V21.7744H98.534V27.7729H96.8399V27.0281C96.3003 27.6029 95.6398 27.8928 94.8684 27.8928C94.2078 27.8978 93.6885 27.7029 93.3053 27.308ZM100.037 21.7794H101.731V22.4992C101.948 22.2443 102.2 22.0393 102.482 21.8894C102.764 21.7394 103.077 21.6594 103.415 21.6594C103.657 21.6594 103.848 21.6894 103.995 21.7544L103.778 23.0741L103.692 23.1591C103.531 23.1191 103.395 23.0991 103.279 23.0991C102.946 23.0991 102.648 23.1891 102.381 23.374C102.114 23.559 101.897 23.8239 101.726 24.1788V27.7779H100.032V21.7794H100.037ZM107.04 27.6229L104.549 21.7794H106.486L107.721 24.7686L107.781 25.6434H107.877L109.415 21.7794H111.205L107.766 30.1773H106.001L107.04 27.6229ZM64.1263 38.4351C63.4607 38.0652 62.9363 37.5504 62.5531 36.8955C62.1699 36.2407 61.9783 35.5009 61.9783 34.6761C61.9783 33.8463 62.1649 33.1015 62.543 32.4467C62.9162 31.7918 63.4355 31.277 64.091 30.9121C64.7465 30.5422 65.4927 30.3622 66.3247 30.3622C67.2928 30.3622 68.1247 30.5972 68.8155 31.072C69.5113 31.5419 69.9702 32.2067 70.1971 33.0615L70.1012 33.2165L68.4424 33.4464C68.2961 32.9566 68.0491 32.5866 67.6911 32.3317C67.3381 32.0768 66.8793 31.9468 66.3247 31.9468C65.8406 31.9468 65.412 32.0618 65.0339 32.2967C64.6557 32.5317 64.3683 32.8516 64.1565 33.2665C63.9448 33.6814 63.8439 34.1562 63.8439 34.6811C63.8439 35.216 63.9448 35.6908 64.1515 36.0957C64.3582 36.5056 64.6507 36.8206 65.0339 37.0505C65.4171 37.2804 65.8658 37.3904 66.3852 37.3904C66.9801 37.3904 67.4592 37.2405 67.8171 36.9455C68.1751 36.6506 68.4121 36.2257 68.523 35.6759H65.5683V34.2612H70.2777V34.946C70.2777 35.7358 70.1164 36.4407 69.7987 37.0505C69.4811 37.6603 69.0222 38.1402 68.4323 38.4851C67.8373 38.83 67.1465 39 66.3549 39C65.5381 38.995 64.7918 38.81 64.1263 38.4351ZM71.5836 32.8766H73.2778V33.5964C73.4946 33.3414 73.7467 33.1365 74.0291 32.9865C74.3114 32.8366 74.6241 32.7566 74.9619 32.7566C75.2039 32.7566 75.3955 32.7866 75.5417 32.8516L75.3249 34.1712L75.2392 34.2562C75.0779 34.2162 74.9417 34.1962 74.8258 34.1962C74.493 34.1962 74.1955 34.2862 73.9283 34.4712C73.661 34.6561 73.4442 34.921 73.2728 35.276V38.875H71.5786V32.8766H71.5836ZM76.893 38.7751C76.6006 38.6251 76.3636 38.4151 76.1922 38.1402C76.0208 37.8653 75.93 37.5404 75.93 37.1755C75.93 36.6306 76.1216 36.1957 76.4998 35.8608C76.8779 35.5309 77.3973 35.3309 78.0628 35.266L79.6965 35.096V34.8311C79.6965 34.5611 79.6108 34.3462 79.4343 34.1962C79.2629 34.0463 79.0158 33.9663 78.7032 33.9663C78.4208 33.9663 78.1939 34.0413 78.0275 34.1862C77.8611 34.3312 77.7552 34.5361 77.7149 34.7911L76.288 34.6711L76.2275 34.6011C76.3485 34.0013 76.6359 33.5414 77.0846 33.2265C77.5334 32.9116 78.083 32.7516 78.7284 32.7516C79.4948 32.7516 80.115 32.9416 80.594 33.3215C81.068 33.7014 81.31 34.2362 81.31 34.921V37.0705C81.31 37.2554 81.3503 37.3954 81.4259 37.4904C81.5016 37.5854 81.6075 37.6353 81.7436 37.6353C81.8344 37.6353 81.91 37.6254 81.9755 37.6004L82.0361 37.6703V38.82C81.794 38.9 81.5167 38.94 81.1991 38.94C80.5486 38.94 80.0948 38.6701 79.8427 38.1252H79.757C79.4746 38.4151 79.1822 38.6301 78.8847 38.7751C78.5872 38.92 78.2443 38.99 77.8561 38.99C77.5082 38.995 77.1855 38.92 76.893 38.7751ZM79.0108 37.5054C79.2326 37.3604 79.4595 37.1405 79.6965 36.8455V36.1507L78.3654 36.3207C78.083 36.3507 77.8662 36.4357 77.72 36.5706C77.5687 36.7056 77.4981 36.8755 77.4981 37.0755C77.4981 37.2754 77.5687 37.4354 77.7099 37.5504C77.8511 37.6653 78.0326 37.7253 78.2494 37.7253C78.5317 37.7253 78.7889 37.6503 79.0108 37.5054ZM83.1201 32.8766H84.8143V33.6564C85.3891 33.0565 86.0547 32.7566 86.8211 32.7566C87.4765 32.7566 87.9858 32.9466 88.3589 33.3215C88.732 33.6964 88.9136 34.1812 88.9136 34.7711V38.875H87.2194V35.266C87.2194 34.916 87.1387 34.6461 86.9723 34.4662C86.8059 34.2862 86.5639 34.1962 86.2412 34.1962C85.9589 34.1962 85.6866 34.2812 85.4294 34.4562C85.1723 34.6261 84.9656 34.8411 84.8143 35.096V38.875H83.1201V32.8766ZM91.2279 38.5401C90.8951 38.2352 90.7338 37.7803 90.7338 37.1705V34.2662H89.6548V32.8766H90.7338V31.162H90.9506L92.4128 31.6669V32.8766H93.6935V34.2662H92.4128V37.0255C92.4128 37.2155 92.4683 37.3654 92.5843 37.4704C92.6952 37.5754 92.8565 37.6254 93.0683 37.6254C93.1944 37.6254 93.3608 37.5954 93.5524 37.5404L93.6381 37.5904V38.875C93.2902 38.955 92.9372 38.995 92.5742 38.995C92.0044 38.995 91.5557 38.845 91.2279 38.5401ZM47.467 10.0424C48.1981 10.6123 50.4318 12.5068 50.4318 12.5068C50.4318 12.5068 47.5023 13.6015 46.8619 14.0914C45.914 14.8462 45.198 15.8409 44.7795 16.9706C44.2803 18.1803 43.3626 20.7547 42.7576 22.0343C42.1525 23.314 41.1643 24.9836 36.833 27.208C33.1775 29.0925 31.3774 29.8274 30.8681 31.132C30.3438 32.4667 30.5656 33.9763 31.448 35.101C32.1741 35.9758 33.606 37.5354 35.0935 37.9803C36.5809 38.4201 36.6918 38.995 36.6918 38.995C35.7691 38.7301 34.8111 38.5751 33.843 38.5401C32.7741 38.5451 31.7102 38.7001 30.6866 38.995C30.6866 38.4251 31.7909 37.9803 31.7909 37.9803C31.7909 37.9803 31.7505 37.2205 29.6227 35.8208C28.3773 35.021 27.5504 33.7014 27.384 32.2317C27.384 32.2317 23.8444 32.0018 23.6578 32.0018L25.8361 31.362C22.2208 29.4724 3.65053 36.7806 3.65053 36.7806V36.2707C2.54629 36.9055 1.24542 37.1055 0 36.8206L2.24376 35.091H0.67565L16.2509 27.0581L12.7819 27.0231C12.7819 27.0231 26.2646 18.4803 29.653 16.4158C33.0464 14.3513 35.1792 13.7765 36.0162 13.2016C36.8482 12.6218 38.9054 10.6223 39.9693 9.93745C41.0332 9.25263 42.6114 8.23289 44.1593 8.42784C45.4047 8.62279 46.5493 9.18264 47.467 10.0424Z" fill="#F5F5F5"/>
</svg>
