<svg width="169" height="46" fill="none" xmlns="http://www.w3.org/2000/svg"><path d="M69.868 22.58a11.738 11.738 0 0 0-2.945-1.686 21.247 21.247 0 0 0-3.805-1.111 14.742 14.742 0 0 1-1.76-.403 7.24 7.24 0 0 1-1.49-.614 3.601 3.601 0 0 1-1.032-.824 1.68 1.68 0 0 1-.383-1.111 1.816 1.816 0 0 1 .454-1.246 2.992 2.992 0 0 1 1.282-.806 5.982 5.982 0 0 1 1.969-.287 6.877 6.877 0 0 1 2.162.342 7.646 7.646 0 0 1 1.989.996 8.454 8.454 0 0 1 1.74 1.649l3.947-3.981a9.597 9.597 0 0 0-5.49-3.97c-1.261-.37-2.772-.555-4.53-.555a12.341 12.341 0 0 0-3.824.593 10.406 10.406 0 0 0-3.236 1.683 8.353 8.353 0 0 0-2.217 2.607 6.833 6.833 0 0 0-.822 3.316 8.254 8.254 0 0 0 .535 3.047c.36.914.915 1.738 1.625 2.416a9.285 9.285 0 0 0 2.732 1.782 20.84 20.84 0 0 0 3.861 1.227c.535.102 1.058.224 1.569.364.494.135.979.302 1.452.498.416.17.813.381 1.186.633.313.211.58.486.783.805.192.31.292.67.287 1.035.016.47-.147.929-.455 1.284-.304.345-.737.607-1.3.786a6.141 6.141 0 0 1-1.874.268 9.505 9.505 0 0 1-3.996-.882c-1.214-.552-2.419-1.603-3.615-3.15L50.5 31.47a15.166 15.166 0 0 0 2.944 2.852c1.14.827 2.414 1.45 3.766 1.84 1.414.43 3 .644 4.76.644 2.04 0 3.843-.338 5.41-1.015 1.569-.677 2.805-1.661 3.71-2.952.904-1.293 1.356-2.871 1.357-4.734 0-1.201-.223-2.255-.67-3.163a6.937 6.937 0 0 0-1.91-2.363Zm19.06 5.635a3.57 3.57 0 0 1-.268 1.404 3.379 3.379 0 0 1-1.893 1.86 3.962 3.962 0 0 1-1.472.268 3.382 3.382 0 0 1-1.835-.48 2.923 2.923 0 0 1-1.147-1.36c-.256-.588-.383-1.291-.382-2.11V16.065h-6.157v12.573c0 1.712.287 3.181.86 4.408.575 1.227 1.39 2.166 2.448 2.817 1.057.652 2.338.977 3.842.978a7.65 7.65 0 0 0 3.174-.67 8.024 8.024 0 0 0 2.562-1.802 7.26 7.26 0 0 0 .482-.57l.168 2.617h5.774V16.064h-6.156v12.151Zm26.496-11.212c-1.366-.907-2.927-1.361-4.684-1.361a7.935 7.935 0 0 0-2.448.383 8.669 8.669 0 0 0-2.179 1.054 7.02 7.02 0 0 0-1.261 1.079v-8.63h-6.156V36.38h5.697l.154-2.173c.418.47.898.878 1.428 1.215a9.172 9.172 0 0 0 4.913 1.418 8.034 8.034 0 0 0 4.588-1.36c1.352-.908 2.416-2.16 3.194-3.757.778-1.598 1.166-3.431 1.165-5.5 0-2.045-.395-3.866-1.184-5.464-.79-1.597-1.866-2.85-3.227-3.756Zm-2.141 12.075a4.467 4.467 0 0 1-1.593 1.898 4.231 4.231 0 0 1-2.409.684c-.943 0-1.758-.228-2.447-.684a4.601 4.601 0 0 1-1.604-1.898c-.38-.805-.569-1.756-.569-2.852 0-1.074.189-2.02.569-2.837a4.316 4.316 0 0 1 1.606-1.88c.687-.433 1.503-.65 2.447-.65a4.422 4.422 0 0 1 2.408.65 4.207 4.207 0 0 1 1.593 1.88c.369.818.554 1.763.555 2.837-.001 1.097-.186 2.047-.556 2.852Zm33.426-19.604h-6.652l-4.971 13.685a203.517 203.517 0 0 0-.956 2.624 42.03 42.03 0 0 0-.688 2.108l-.029.098a34.25 34.25 0 0 0-.334-1.113 52.356 52.356 0 0 0-.569-1.649 93.041 93.041 0 0 0-.785-2.07l-5.167-13.683h-6.768l10.706 26.832h5.43l8.473-21.083h7.747v21.083h6.5V15.223h8.144v-5.75h-20.081ZM35.707 2.83H8.87v6.678H2.21v26.906h6.66v6.677h26.838v-6.677h6.66V9.508h-6.66V2.83Zm-.05 6.733v9.445h-9.421v-9.45l9.421.005Zm-17.315 9.445H8.919v-9.45h9.423v9.45ZM8.919 36.365v-9.447h9.423v9.447H8.919Zm17.317-9.447h9.421v9.447h-9.421v-9.447Z" fill="#fff"/></svg>