<svg width="18" height="19" fill="none" xmlns="http://www.w3.org/2000/svg"><circle cx="9" cy="9.5" r="9" fill="#6E1FA8"/><path fill-rule="evenodd" clip-rule="evenodd" d="M11.677 6.823H6.323v5.354h5.354V6.823Zm-5.354-.59a.59.59 0 0 0-.59.59v5.354c0 .326.264.59.59.59h5.354a.59.59 0 0 0 .59-.59V6.823a.59.59 0 0 0-.59-.59H6.323Z" fill="#F5F5F5"/><path d="M10.404 5.811a.59.59 0 0 1 .59-.59h1.695a.59.59 0 0 1 .59.59v1.695a.59.59 0 0 1-.59.59h-1.695a.59.59 0 0 1-.59-.59V5.811Z" fill="#6E1FA8"/><path fill-rule="evenodd" clip-rule="evenodd" d="M12.689 5.811h-1.695v1.695h1.695V5.811Zm-1.695-.59a.59.59 0 0 0-.59.59v1.695c0 .326.264.59.59.59h1.695a.59.59 0 0 0 .59-.59V5.811a.59.59 0 0 0-.59-.59h-1.695Z" fill="#F5F5F5"/><path d="M10.404 11.494a.59.59 0 0 1 .59-.59h1.695a.59.59 0 0 1 .59.59v1.695a.59.59 0 0 1-.59.59h-1.695a.59.59 0 0 1-.59-.59v-1.695Z" fill="#6E1FA8"/><path fill-rule="evenodd" clip-rule="evenodd" d="M12.689 11.494h-1.695v1.695h1.695v-1.695Zm-1.695-.59a.59.59 0 0 0-.59.59v1.695c0 .325.264.59.59.59h1.695a.59.59 0 0 0 .59-.59v-1.695a.59.59 0 0 0-.59-.59h-1.695Z" fill="#F5F5F5"/><path d="M4.721 5.811a.59.59 0 0 1 .59-.59h1.695a.59.59 0 0 1 .59.59v1.695a.59.59 0 0 1-.59.59H5.311a.59.59 0 0 1-.59-.59V5.811Z" fill="#6E1FA8"/><path fill-rule="evenodd" clip-rule="evenodd" d="M7.006 5.811H5.311v1.695h1.695V5.811Zm-1.695-.59a.59.59 0 0 0-.59.59v1.695c0 .326.264.59.59.59h1.695a.59.59 0 0 0 .59-.59V5.811a.59.59 0 0 0-.59-.59H5.311Z" fill="#F5F5F5"/><path d="M4.721 11.494a.59.59 0 0 1 .59-.59h1.695a.59.59 0 0 1 .59.59v1.695a.59.59 0 0 1-.59.59H5.311a.59.59 0 0 1-.59-.59v-1.695Z" fill="#6E1FA8"/><path fill-rule="evenodd" clip-rule="evenodd" d="M7.006 11.494H5.311v1.695h1.695v-1.695Zm-1.695-.59a.59.59 0 0 0-.59.59v1.695c0 .325.264.59.59.59h1.695a.59.59 0 0 0 .59-.59v-1.695a.59.59 0 0 0-.59-.59H5.311Z" fill="#F5F5F5"/></svg>