<svg width="26" height="27" viewBox="0 0 26 27" fill="none" xmlns="http://www.w3.org/2000/svg">
<path fill-rule="evenodd" clip-rule="evenodd" d="M13.0002 1.58337C6.41891 1.58337 1.0835 6.91879 1.0835 13.5C1.0835 20.0813 6.41891 25.4167 13.0002 25.4167C19.5814 25.4167 24.9168 20.0813 24.9168 13.5C24.9168 6.91879 19.5814 1.58337 13.0002 1.58337ZM18.1655 11.485C18.2606 11.3763 18.333 11.2497 18.3785 11.1126C18.4239 10.9754 18.4415 10.8306 18.4301 10.6866C18.4188 10.5426 18.3787 10.4023 18.3124 10.274C18.246 10.1457 18.1546 10.032 18.0437 9.93949C17.9327 9.84702 17.8044 9.77767 17.6662 9.73552C17.528 9.69338 17.3828 9.6793 17.2391 9.6941C17.0954 9.70891 16.9561 9.7523 16.8295 9.82173C16.7028 9.89115 16.5913 9.98521 16.5015 10.0984L11.8432 15.6873L9.43275 13.2758C9.22843 13.0785 8.95477 12.9693 8.67073 12.9717C8.38668 12.9742 8.11497 13.0881 7.91411 13.289C7.71325 13.4898 7.59932 13.7616 7.59685 14.0456C7.59438 14.3297 7.70357 14.6033 7.90091 14.8076L11.1509 18.0576C11.2574 18.164 11.3848 18.247 11.5251 18.3014C11.6654 18.3558 11.8155 18.3804 11.9659 18.3736C12.1162 18.3667 12.2635 18.3287 12.3983 18.2618C12.5331 18.1949 12.6525 18.1006 12.7488 17.985L18.1655 11.485Z" fill="#36CF38"/>
</svg>
