<svg width="18" height="19" fill="none" xmlns="http://www.w3.org/2000/svg"><circle cx="9" cy="9.5" r="9" fill="#D10026"/><path fill-rule="evenodd" clip-rule="evenodd" d="M6.11 4.951a.708.708 0 0 0-.363.222c-.128.13-.247.347-.322.584l-.04.127-.126.04c-.452.141-.746.4-.813.713a.589.589 0 0 0 .01.324c.085.35.335.59.669.643.207.033.254.034.578.015l.32-.02.108.115c.06.064.126.13.148.149.05.042.153.065.233.052.084-.014.192-.119.217-.211.035-.13.003-.191-.209-.407-.267-.27-.254-.267-.85-.26-.44.005-.47.004-.526-.03a.294.294 0 0 1-.128-.228c0-.122.203-.249.536-.334a1.27 1.27 0 0 0 .241-.08c.065-.043.112-.127.135-.243.067-.343.22-.608.352-.608.083 0 .185.057.228.128.033.056.035.086.03.525-.007.598-.011.585.26.852.208.206.27.238.39.21a.283.283 0 0 0 .227-.288c-.001-.104-.025-.144-.19-.314l-.125-.13.02-.3c.03-.456-.007-.693-.14-.9a.866.866 0 0 0-.519-.346.634.634 0 0 0-.35 0Zm5.408.005a.854.854 0 0 0-.498.34c-.134.21-.17.443-.14.914l.02.312-.115.108c-.156.147-.178.176-.196.255-.047.205.15.398.35.343.053-.015.119-.066.263-.209.271-.267.267-.254.26-.852-.005-.432-.003-.47.029-.522a.307.307 0 0 1 .222-.131c.128 0 .255.2.341.538.027.106.063.214.08.24.043.065.127.112.242.134.343.068.608.222.608.353a.294.294 0 0 1-.128.228c-.056.034-.086.035-.525.03-.597-.007-.584-.01-.851.26-.145.148-.194.21-.209.265-.027.101.003.198.087.278a.26.26 0 0 0 .259.07c.079-.018.11-.041.253-.194l.11-.117.31.02c.56.036.813-.022 1.025-.234a.973.973 0 0 0 .242-.476c.063-.35-.133-.674-.52-.863a2.63 2.63 0 0 0-.296-.122l-.127-.04-.04-.127c-.195-.62-.602-.928-1.056-.8ZM8.571 6.873c-.477.066-.897.228-1.219.47a2.68 2.68 0 0 0-.514.54c-.288.428-.43.967-.43 1.628 0 .416.054.7.19.983.137.29.33.495.597.634.135.07.363.144.445.144h.044l-.011.589c-.01.58-.01.59.029.666.073.145.278.2.402.109.143-.106.15-.161.142-1.06-.005-.644-.006-.654-.046-.718-.056-.09-.164-.14-.302-.14-.136 0-.363-.058-.467-.119-.364-.214-.517-.755-.421-1.493a2.16 2.16 0 0 1 .185-.673c.09-.19.158-.288.303-.44.15-.158.295-.26.508-.361.314-.15.727-.22 1.146-.197.543.03.96.19 1.281.491.32.3.49.66.557 1.18.096.738-.057 1.28-.42 1.493a1.166 1.166 0 0 1-.468.119c-.138 0-.246.05-.302.14l-.04.065v.77c0 .681.003.774.029.822.119.216.42.219.515.005.031-.07.033-.114.023-.661l-.01-.587h.043c.082 0 .31-.074.445-.144.421-.22.68-.629.768-1.215.042-.282.02-.79-.047-1.127-.2-1.003-.877-1.674-1.894-1.879a2.843 2.843 0 0 0-.57-.044 5.156 5.156 0 0 0-.49.01Zm-.679 1.848a.461.461 0 0 0-.259.148.72.72 0 0 0-.185.352 1.39 1.39 0 0 0-.002.477c.054.204.19.37.374.461.087.043.12.049.269.049.145 0 .182-.006.257-.044.348-.178.46-.773.216-1.156-.144-.226-.444-.354-.67-.287Zm1.984-.012c-.387.081-.618.457-.556.903.03.212.081.33.197.445.127.128.231.166.427.157a.667.667 0 0 0 .61-.513c.027-.1.025-.369-.002-.48-.055-.225-.174-.385-.343-.463a.668.668 0 0 0-.333-.049Zm-1.002 1.334a.845.845 0 0 0-.273.322c-.027.078-.029.104-.012.173.025.099.09.188.166.227.086.044.375.049.47.007a.341.341 0 0 0 .187-.237c.032-.129-.012-.232-.164-.383-.118-.117-.124-.12-.225-.127a.306.306 0 0 0-.149.018Zm-2.375.91c-.044.013-.125.082-.274.234l-.211.216-.307-.02c-.675-.042-.975.07-1.17.44-.056.108-.11.3-.11.393 0 .371.302.693.805.854l.153.05.05.153c.144.45.398.726.726.79a.85.85 0 0 0 .563-.12.671.671 0 0 0 .259-.241c.13-.203.166-.443.137-.897l-.02-.3.188-.192c.104-.105.202-.217.218-.249.12-.234-.127-.496-.37-.392a2.261 2.261 0 0 0-.3.273c-.318.325-.305.286-.298.895.005.435.003.465-.03.522a.294.294 0 0 1-.228.128c-.122 0-.248-.203-.334-.537a1.298 1.298 0 0 0-.08-.241c-.043-.066-.127-.112-.242-.135-.341-.066-.608-.221-.608-.354 0-.08.06-.186.131-.228.052-.032.09-.034.522-.029.613.008.572.022.922-.332.282-.284.312-.333.282-.463a.297.297 0 0 0-.374-.218Zm4.815.006a.287.287 0 0 0-.186.34c.015.056.075.128.28.335.35.354.31.34.923.332.525-.006.542-.003.616.13.093.166.012.279-.287.398-.066.026-.176.06-.246.074-.206.044-.286.103-.322.24-.103.386-.16.524-.256.623-.067.07-.145.077-.245.021-.131-.074-.135-.09-.129-.611.008-.61.02-.571-.298-.896a2.263 2.263 0 0 0-.3-.273.286.286 0 0 0-.399.262c0 .11.047.179.265.385l.17.162-.02.312c-.037.589.04.88.288 1.076.466.368 1.013.23 1.284-.326.046-.093.1-.227.123-.296l.04-.127.153-.05c.325-.104.615-.31.714-.505a.982.982 0 0 0 .092-.343c0-.099-.053-.288-.111-.4-.195-.37-.495-.481-1.173-.438l-.31.02-.21-.216c-.163-.168-.226-.221-.28-.236-.085-.024-.088-.024-.176.007Zm-2.732.618a.337.337 0 0 0-.188.195 3.599 3.599 0 0 0-.028.378c-.01.256-.007.327.014.378a.289.289 0 0 0 .519.035c.027-.046.035-.116.046-.392a2.64 2.64 0 0 0-.002-.394.297.297 0 0 0-.201-.199c-.09-.022-.09-.022-.16-.001Zm.663.007a.28.28 0 0 0-.17.144c-.022.043-.027.107-.024.313.004.358.017.473.063.54.12.178.39.166.49-.023.04-.077.042-.085.03-.4a3.661 3.661 0 0 0-.028-.386.327.327 0 0 0-.196-.196c-.076-.022-.082-.022-.165.008Z" fill="#F5F5F5"/></svg>