<svg width="26" height="26" viewBox="0 0 26 26" fill="none" xmlns="http://www.w3.org/2000/svg">
<path d="M12.9998 23.8333C15.873 23.8333 18.6285 22.6919 20.6602 20.6603C22.6918 18.6286 23.8332 15.8731 23.8332 13C23.8332 10.1268 22.6918 7.37128 20.6602 5.33964C18.6285 3.30799 15.873 2.16663 12.9998 2.16663C10.1267 2.16663 7.37116 3.30799 5.33951 5.33964C3.30787 7.37128 2.1665 10.1268 2.1665 13C2.1665 15.8731 3.30787 18.6286 5.33951 20.6603C7.37116 22.6919 10.1267 23.8333 12.9998 23.8333V23.8333ZM11.3748 17.875C11.3748 17.444 11.546 17.0307 11.8508 16.7259C12.1555 16.4212 12.5689 16.25 12.9998 16.25C13.4308 16.25 13.8441 16.4212 14.1489 16.7259C14.4536 17.0307 14.6248 17.444 14.6248 17.875C14.6248 18.3059 14.4536 18.7193 14.1489 19.024C13.8441 19.3288 13.4308 19.5 12.9998 19.5C12.5689 19.5 12.1555 19.3288 11.8508 19.024C11.546 18.7193 11.3748 18.3059 11.3748 17.875ZM11.9338 7.38829C11.9791 7.13851 12.1106 6.91255 12.3054 6.74983C12.5002 6.58711 12.746 6.49798 12.9998 6.49798C13.2537 6.49798 13.4995 6.58711 13.6943 6.74983C13.8891 6.91255 14.0206 7.13851 14.0658 7.38829L14.0832 7.58329V13L14.0658 13.195C14.0206 13.4447 13.8891 13.6707 13.6943 13.8334C13.4995 13.9961 13.2537 14.0853 12.9998 14.0853C12.746 14.0853 12.5002 13.9961 12.3054 13.8334C12.1106 13.6707 11.9791 13.4447 11.9338 13.195L11.9165 13V7.58329L11.9338 7.38829Z" fill="#FF0000"/>
</svg>
