<svg width="18" height="19" fill="none" xmlns="http://www.w3.org/2000/svg"><circle cx="9" cy="9.5" r="9" fill="#EAEAEA"/><g clip-path="url(#a)" fill-rule="evenodd" clip-rule="evenodd" fill="#A2A9AC"><path d="M6.794 8.498c.414-.422.977-.66 1.566-.66.589 0 1.152.238 1.566.66a.443.443 0 0 1-.632.62 1.309 1.309 0 0 0-.934-.395c-.349 0-.685.141-.935.395m0 0-1.25 1.274c-.25.255-.391.601-.391.965 0 .363.141.71.39.964.25.254.587.396.935.396.35 0 .685-.142.935-.396l.625-.637a.443.443 0 0 1 .632.62l-.625.637a2.193 2.193 0 0 1-3.133 0 2.263 2.263 0 0 1-.645-1.584c0-.593.231-1.163.645-1.585l1.25-1.274"/><path d="M9.325 6.059a2.191 2.191 0 0 1 3.132 0c.414.422.645.992.645 1.584 0 .593-.231 1.163-.645 1.585l-1.25 1.274c-.414.422-.978.66-1.566.66a2.194 2.194 0 0 1-1.567-.66.443.443 0 1 1 .632-.62c.25.254.586.395.935.395.348 0 .685-.141.934-.395l1.25-1.274c.25-.255.392-.601.392-.965 0-.363-.142-.71-.392-.964a1.309 1.309 0 0 0-.934-.395c-.349 0-.685.14-.934.395l-.626.637a.443.443 0 0 1-.631-.62l.625-.637Z"/></g><defs><clipPath id="a"><path fill="#fff" transform="translate(4.426 4.926)" d="M0 0h9.148v9.148H0z"/></clipPath></defs></svg>