<svg width="20" height="20" fill="none" xmlns="http://www.w3.org/2000/svg"><path d="m11.075 7.742-3.333 3.333a.833.833 0 0 0 0 1.183.833.833 0 0 0 1.183 0l3.333-3.333a.837.837 0 1 0-1.183-1.183Z" fill="#111212"/><path d="m10.233 14.5-1.067 1.058a3.5 3.5 0 0 1-4.65.334 3.333 3.333 0 0 1-.225-4.942l1.184-1.192a.833.833 0 0 0 0-1.183.833.833 0 0 0-1.184 0L3.233 9.642a5.125 5.125 0 0 0-.558 6.725 5.05 5.05 0 0 0 7.558.5l1.183-1.184a.837.837 0 1 0-1.183-1.183Zm6.15-11.817a5.15 5.15 0 0 0-6.775.567l-.9.917a.908.908 0 0 0-.142 1.341.833.833 0 0 0 1.184 0l1.083-1.091a3.475 3.475 0 0 1 4.642-.334 3.333 3.333 0 0 1 .225 4.959l-1.184 1.191a.833.833 0 0 0 0 1.184.834.834 0 0 0 1.184 0l1.183-1.184a5.05 5.05 0 0 0-.5-7.55Z" fill="#111212"/></svg>