<svg width="20" height="20" viewBox="0 0 20 20" fill="none" xmlns="http://www.w3.org/2000/svg">
<path d="M11.0749 7.74166L7.74162 11.075C7.66351 11.1525 7.60151 11.2446 7.55921 11.3462C7.5169 11.4477 7.49512 11.5566 7.49512 11.6667C7.49512 11.7767 7.5169 11.8856 7.55921 11.9871C7.60151 12.0887 7.66351 12.1809 7.74162 12.2583C7.81908 12.3364 7.91125 12.3984 8.0128 12.4407C8.11435 12.483 8.22327 12.5048 8.33328 12.5048C8.44329 12.5048 8.55221 12.483 8.65376 12.4407C8.75531 12.3984 8.84748 12.3364 8.92495 12.2583L12.2583 8.92499C12.4152 8.76807 12.5034 8.55524 12.5034 8.33332C12.5034 8.11141 12.4152 7.89858 12.2583 7.74166C12.1014 7.58474 11.8885 7.49658 11.6666 7.49658C11.4447 7.49658 11.2319 7.58474 11.0749 7.74166Z" fill="#111212"/>
<path d="M10.2331 14.4999L9.16645 15.5583C8.56764 16.1753 7.76265 16.5503 6.90502 16.6118C6.0474 16.6733 5.19715 16.4169 4.51645 15.8916C4.15667 15.5952 3.86309 15.2265 3.65465 14.8095C3.44621 14.3925 3.32756 13.9365 3.30635 13.4708C3.28515 13.0051 3.36187 12.5401 3.53155 12.1059C3.70123 11.6717 3.9601 11.2779 4.29145 10.9499L5.47478 9.75828C5.55289 9.68081 5.61488 9.58865 5.65719 9.4871C5.6995 9.38555 5.72128 9.27663 5.72128 9.16662C5.72128 9.05661 5.6995 8.94768 5.65719 8.84614C5.61488 8.74459 5.55289 8.65242 5.47478 8.57495C5.39731 8.49684 5.30515 8.43485 5.2036 8.39254C5.10205 8.35023 4.99313 8.32845 4.88312 8.32845C4.77311 8.32845 4.66418 8.35023 4.56263 8.39254C4.46109 8.43485 4.36892 8.49684 4.29145 8.57495L3.23312 9.64162C2.34158 10.505 1.7936 11.6625 1.69092 12.8993C1.58824 14.136 1.93783 15.3681 2.67478 16.3666C3.11218 16.9341 3.66531 17.4019 4.29744 17.7392C4.92956 18.0764 5.62621 18.2752 6.3411 18.3225C7.05599 18.3698 7.77276 18.2645 8.4438 18.0134C9.11484 17.7624 9.72478 17.3715 10.2331 16.8666L11.4164 15.6833C11.5734 15.5264 11.6615 15.3135 11.6615 15.0916C11.6615 14.8697 11.5734 14.6569 11.4164 14.4999C11.2595 14.343 11.0467 14.2549 10.8248 14.2549C10.6029 14.2549 10.39 14.343 10.2331 14.4999ZM16.3831 2.68328C15.3777 1.93867 14.1356 1.58552 12.8888 1.6898C11.642 1.79409 10.4759 2.34866 9.60811 3.24995L8.70811 4.16662C8.60525 4.2414 8.51923 4.33695 8.45563 4.44708C8.39203 4.55721 8.35227 4.67947 8.33891 4.80594C8.32556 4.93242 8.33891 5.06029 8.37811 5.18127C8.4173 5.30226 8.48147 5.41367 8.56645 5.50828C8.64392 5.58639 8.73608 5.64839 8.83763 5.69069C8.93918 5.733 9.0481 5.75478 9.15811 5.75478C9.26812 5.75478 9.37705 5.733 9.4786 5.69069C9.58014 5.64839 9.67231 5.58639 9.74978 5.50828L10.8331 4.41662C11.4286 3.79688 12.2326 3.41981 13.0899 3.35825C13.9472 3.29669 14.7968 3.555 15.4748 4.08328C15.8372 4.37978 16.1332 4.74933 16.3432 5.16784C16.5533 5.58634 16.6729 6.04442 16.6941 6.51222C16.7154 6.98002 16.6378 7.44705 16.4665 7.88286C16.2951 8.31868 16.0339 8.71351 15.6998 9.04162L14.5164 10.2333C14.4383 10.3108 14.3763 10.4029 14.334 10.5045C14.2917 10.606 14.2699 10.7149 14.2699 10.8249C14.2699 10.935 14.2917 11.0439 14.334 11.1454C14.3763 11.247 14.4383 11.3391 14.5164 11.4166C14.5939 11.4947 14.6861 11.5567 14.7876 11.599C14.8892 11.6413 14.9981 11.6631 15.1081 11.6631C15.2181 11.6631 15.327 11.6413 15.4286 11.599C15.5301 11.5567 15.6223 11.4947 15.6998 11.4166L16.8831 10.2333C17.3866 9.72504 17.7763 9.11562 18.0265 8.4454C18.2767 7.77518 18.3816 7.05945 18.3343 6.34562C18.2871 5.63179 18.0887 4.93615 17.7523 4.30477C17.4159 3.6734 16.9492 3.1207 16.3831 2.68328Z" fill="#111212"/>
</svg>
