<svg width="18" height="19" fill="none" xmlns="http://www.w3.org/2000/svg"><circle cx="9" cy="9.5" r="9" fill="#D10026"/><g clip-path="url(#a)" fill="#fff"><path d="M11.479 10.013a2.674 2.674 0 0 0-.319-.12 3.652 3.652 0 0 1-.758-.337c-.31-.18-.322-.186-.402-.177a.266.266 0 0 0-.206.153.238.238 0 0 0 .026.242c.113.157.818.496 1.23.62.116.035.199.07.237.11.094.088.147.212.171.415.018.15.009.573 0 .614-.05.059-.51.254-.941.366-.47.124-.897.177-1.428.177h-.01a5.268 5.268 0 0 1-2.351-.525 3.9 3.9 0 0 1-.006-.629c.027-.21.094-.36.198-.434.017-.011.08-.044.289-.115a4.94 4.94 0 0 0 .43-.165c.255-.115.647-.324.724-.428a.236.236 0 0 0 .023-.245.265.265 0 0 0-.212-.153c-.08-.006-.112.012-.278.11-.306.185-.634.33-.917.412-.251.071-.422.177-.537.334-.177.236-.245.504-.245.962 0 .395.041.605.136.699.1.1.607.322.935.428.566.18 1.2.271 1.83.271.63 0 1.262-.091 1.82-.271.325-.106.859-.328.947-.437.083-.097.118-.304.118-.688.003-.63-.144-.973-.504-1.189Z"/><path d="M7.929 8.94c.076.111.233.274.336.345.227.162.525.244.826.244.186 0 .372-.032.546-.097.266-.1.505-.31.673-.587.112-.189.218-.517.26-.815a5.37 5.37 0 0 0-.006-.95c-.115-.678-.525-1.118-1.16-1.24a2.144 2.144 0 0 0-.445-.026l-.145.021a1.398 1.398 0 0 0-.811.413c-.201.216-.322.47-.381.809-.03.162-.041.655-.02.864.038.396.159.767.327 1.018Zm.18-1.379c0-.366.017-.493.091-.678a.857.857 0 0 1 .64-.535c.06-.011.145-.017.234-.017.097 0 .194.009.262.023.413.092.64.349.717.809.027.153.03.643.006.802-.059.387-.162.632-.348.815a.692.692 0 0 1-.33.198c-.074.023-.1.026-.29.026-.188 0-.215-.003-.289-.026-.369-.115-.578-.413-.673-.965a2.293 2.293 0 0 1-.02-.452Z"/></g><path fill-rule="evenodd" clip-rule="evenodd" d="M13.864 9.173c-.093-1.035-.45-1.952-1.055-2.712-.77-.968-1.867-1.595-3.133-1.79a5.748 5.748 0 0 0-1.35 0c-1.437.222-2.64.99-3.414 2.18a6.023 6.023 0 0 0-.504 1.026 4.88 4.88 0 0 0 .24 3.807c.722 1.437 2.056 2.397 3.678 2.645a5.824 5.824 0 0 0 1.35 0 4.85 4.85 0 0 0 2.764-1.386 4.857 4.857 0 0 0 1.382-2.745c.034-.227.059-.836.042-1.025Zm-.716.855a4.085 4.085 0 0 1-.41 1.337 5.16 5.16 0 0 1-.488.767l-.06.07-2.947-2.95-2.947-2.95.176-.133a4.188 4.188 0 0 1 3.586-.721 4.094 4.094 0 0 1 1.947 1.146c.253.262.377.42.553.704.32.519.53 1.119.6 1.716.029.252.024.755-.01 1.014Zm-1.621 2.806a4.194 4.194 0 0 1-3.58.72 4.217 4.217 0 0 1-2.472-1.799 4.652 4.652 0 0 1-.414-.85 4.204 4.204 0 0 1 .649-3.983l.1-.126 2.945 2.948c1.62 1.622 2.945 2.95 2.945 2.953a4.1 4.1 0 0 1-.173.137Z" fill="#F5F5F5"/><defs><clipPath id="a"><path fill="#fff" transform="translate(6.197 5.811)" d="M0 0h5.79v6.784H0z"/></clipPath></defs></svg>