<svg width="200" height="200" fill="none" xmlns="http://www.w3.org/2000/svg"><g filter="url(#a)"><path transform="matrix(.99244 .1227 -.55946 .82886 49.537 108.932)" stroke="#fff" stroke-width="3" stroke-linejoin="round" d="M0 0h144.456v74.028H0z"/></g><g filter="url(#b)"><path transform="matrix(.99244 .1227 -.55946 .82886 49.537 9.852)" stroke="#fff" stroke-width="3" stroke-linejoin="round" d="M0 0h144.456v74.028H0z"/></g><g filter="url(#c)"><path d="m151.562 89.056-.603 98.188m41.917-159.718v98.842M8.121 71.383v98.841M49.706 9.852v99.131" stroke="#fff" stroke-width="3" stroke-linecap="round" stroke-linejoin="round"/></g><ellipse cx="100.833" cy="99.804" rx="48.856" ry="48.375" fill="url(#d)"/><g filter="url(#e)"><ellipse rx="20.388" ry="16.005" transform="matrix(.78324 -.62172 .62926 .7772 83.591 77.969)" fill="#fff"/></g><defs><filter id="a" x="2.411" y="103.675" width="196.199" height="89.599" filterUnits="userSpaceOnUse" color-interpolation-filters="sRGB"><feFlood flood-opacity="0" result="BackgroundImageFix"/><feBlend in="SourceGraphic" in2="BackgroundImageFix" result="shape"/><feGaussianBlur stdDeviation="2" result="effect1_foregroundBlur_307_2645"/></filter><filter id="b" x="2.411" y="4.595" width="196.199" height="89.599" filterUnits="userSpaceOnUse" color-interpolation-filters="sRGB"><feFlood flood-opacity="0" result="BackgroundImageFix"/><feBlend in="SourceGraphic" in2="BackgroundImageFix" result="shape"/><feGaussianBlur stdDeviation="2" result="effect1_foregroundBlur_307_2645"/></filter><filter id="c" x="2.621" y="4.352" width="195.755" height="188.391" filterUnits="userSpaceOnUse" color-interpolation-filters="sRGB"><feFlood flood-opacity="0" result="BackgroundImageFix"/><feBlend in="SourceGraphic" in2="BackgroundImageFix" result="shape"/><feGaussianBlur stdDeviation="2" result="effect1_foregroundBlur_307_2645"/></filter><filter id="e" x="49.709" y="45.21" width="67.764" height="65.519" filterUnits="userSpaceOnUse" color-interpolation-filters="sRGB"><feFlood flood-opacity="0" result="BackgroundImageFix"/><feBlend in="SourceGraphic" in2="BackgroundImageFix" result="shape"/><feGaussianBlur stdDeviation="7.5" result="effect1_foregroundBlur_307_2645"/></filter><radialGradient id="d" cx="0" cy="0" r="1" gradientUnits="userSpaceOnUse" gradientTransform="scale(48.8564 48.3751) rotate(90 0 2.063)"><stop offset=".145" stop-color="#FAFF00"/><stop offset=".958" stop-color="#42FF00"/><stop offset="1" stop-color="#40F400"/></radialGradient></defs></svg>