<svg width="200" height="200" viewBox="0 0 200 200" fill="none" xmlns="http://www.w3.org/2000/svg">
<path d="M99.5027 13.7932C51.6926 13.7932 12.9355 52.1684 12.9355 99.5075C12.9355 146.847 51.6926 185.222 99.5027 185.222C147.313 185.222 186.07 146.847 186.07 99.5075C186.07 52.1684 147.313 13.7932 99.5027 13.7932Z" fill="#40B3E0"/>
<path d="M141.625 63.0991L126.163 140.288C126.163 140.288 124.001 145.641 118.054 143.072L82.3733 115.986L69.3991 109.777L47.5584 102.497C47.5584 102.497 44.2067 101.32 43.882 98.7503C43.5574 96.1808 47.6666 94.7893 47.6666 94.7893L134.488 61.0661C134.488 61.0661 141.624 57.9616 141.624 63.1005" fill="white"/>
<path d="M79.6314 139.42C79.6314 139.42 78.5899 139.324 77.2914 135.255C75.9949 131.187 69.3989 109.776 69.3989 109.776L121.838 76.8026C121.838 76.8026 124.866 74.9825 124.758 76.8026C124.758 76.8026 125.298 77.124 123.676 78.6227C122.055 80.122 82.4821 115.343 82.4821 115.343" fill="#D2E5F1"/>
<path d="M96.0541 126.37L81.9416 139.111C81.9416 139.111 80.8379 139.94 79.6313 139.42L82.3339 115.755" fill="#B5CFE4"/>
</svg>
