<svg width="200" height="200" fill="none" xmlns="http://www.w3.org/2000/svg"><path d="M99.503 13.793c-47.81 0-86.567 38.375-86.567 85.715 0 47.339 38.757 85.714 86.567 85.714 47.81 0 86.567-38.375 86.567-85.715 0-47.339-38.757-85.714-86.567-85.714Z" fill="#40B3E0"/><path d="m141.625 63.1-15.462 77.188s-2.162 5.353-8.109 2.784l-35.68-27.086-12.975-6.209-21.84-7.28s-3.352-1.177-3.677-3.747c-.325-2.57 3.785-3.96 3.785-3.96l86.821-33.724s7.136-3.104 7.136 2.034" fill="#fff"/><path d="M79.631 139.42s-1.041-.096-2.34-4.165c-1.296-4.068-7.892-25.479-7.892-25.479l52.439-32.973s3.028-1.82 2.92 0c0 0 .54.321-1.082 1.82-1.621 1.499-41.194 36.72-41.194 36.72" fill="#D2E5F1"/><path d="m96.054 126.37-14.112 12.741s-1.104.829-2.31.309l2.702-23.665" fill="#B5CFE4"/></svg>