<svg width="91" height="35" viewBox="0 0 91 35" fill="none" xmlns="http://www.w3.org/2000/svg">
<path d="M18 11.3418V8.75443C18 7.81519 17.4158 6.98228 16.5213 6.61013L0 0V1.43544L14.7323 7.33671C15.2434 7.53165 15.2434 8.24051 14.7323 8.43544L0 14.3367V20.0962L8.87221 16.5342L14.714 18.8734C15.2252 19.0684 15.2252 19.7772 14.714 19.9722L0 25.8734V35L16.5213 28.3899C17.4158 28.0354 18 27.1848 18 26.2456V20.3089C18 19.3696 17.4158 18.5367 16.5213 18.1646L10.6613 15.8253L16.5213 13.4861C17.4158 13.1316 18 12.281 18 11.3418Z" fill="white"/>
<path d="M31.4006 3.18182C31.3707 2.92992 31.2498 2.73438 31.0376 2.59517C30.8255 2.45597 30.5653 2.38636 30.2571 2.38636C30.0317 2.38636 29.8345 2.42282 29.6655 2.49574C29.4981 2.56866 29.3672 2.66892 29.2727 2.79652C29.1799 2.92412 29.1335 3.06913 29.1335 3.23153C29.1335 3.36742 29.1658 3.48426 29.2305 3.58203C29.2968 3.67815 29.3813 3.75852 29.484 3.82315C29.5868 3.88613 29.6945 3.93833 29.8072 3.97976C29.9199 4.01953 30.0234 4.05185 30.1179 4.0767L30.6349 4.21591C30.7675 4.25071 30.915 4.29877 31.0774 4.36009C31.2415 4.4214 31.3981 4.50509 31.5472 4.61115C31.698 4.71555 31.8223 4.84979 31.9201 5.01385C32.0179 5.17791 32.0668 5.37926 32.0668 5.6179C32.0668 5.89299 31.9947 6.14157 31.8505 6.36364C31.708 6.5857 31.4992 6.76219 31.2241 6.89311C30.9506 7.02403 30.6184 7.08949 30.2273 7.08949C29.8627 7.08949 29.547 7.03066 29.2802 6.913C29.015 6.79534 28.8062 6.63127 28.6538 6.42081C28.503 6.21035 28.4176 5.96591 28.3977 5.6875H29.0341C29.0507 5.87973 29.1153 6.03883 29.228 6.16477C29.3423 6.28906 29.4865 6.38187 29.6605 6.44318C29.8362 6.50284 30.0251 6.53267 30.2273 6.53267C30.4626 6.53267 30.6739 6.49455 30.8612 6.41832C31.0484 6.34044 31.1967 6.23272 31.3061 6.09517C31.4155 5.95597 31.4702 5.79356 31.4702 5.60795C31.4702 5.43892 31.4229 5.30137 31.3285 5.19531C31.234 5.08925 31.1097 5.00308 30.9556 4.93679C30.8015 4.8705 30.6349 4.8125 30.456 4.76278L29.8295 4.58381C29.4318 4.46946 29.117 4.30623 28.8849 4.09411C28.6529 3.88198 28.5369 3.6044 28.5369 3.26136C28.5369 2.97633 28.614 2.72775 28.7681 2.51562C28.9239 2.30185 29.1327 2.13613 29.3945 2.01847C29.658 1.89915 29.9522 1.83949 30.277 1.83949C30.6051 1.83949 30.8968 1.89832 31.152 2.01598C31.4072 2.13198 31.6094 2.29107 31.7585 2.49325C31.9093 2.69543 31.9889 2.92495 31.9972 3.18182H31.4006ZM35.253 5.43892V3.18182H35.8397V7H35.253V6.35369H35.2133C35.1238 6.54759 34.9846 6.71248 34.7957 6.84837C34.6067 6.9826 34.3681 7.04972 34.0798 7.04972C33.8411 7.04972 33.629 6.99751 33.4434 6.89311C33.2578 6.78705 33.112 6.62796 33.0059 6.41584C32.8998 6.20206 32.8468 5.93277 32.8468 5.60795V3.18182H33.4334V5.56818C33.4334 5.84659 33.5113 6.06866 33.6671 6.23438C33.8245 6.40009 34.0251 6.48295 34.2687 6.48295C34.4145 6.48295 34.5628 6.44567 34.7136 6.37109C34.8661 6.29652 34.9937 6.18217 35.0964 6.02805C35.2008 5.87393 35.253 5.67756 35.253 5.43892ZM36.7602 8.43182V3.18182H37.3269V3.78835H37.3965C37.4396 3.72206 37.4993 3.63755 37.5755 3.5348C37.6534 3.4304 37.7644 3.33759 37.9086 3.25639C38.0545 3.17353 38.2517 3.1321 38.5002 3.1321C38.8217 3.1321 39.1051 3.21248 39.3504 3.37322C39.5956 3.53397 39.7871 3.76184 39.9246 4.05682C40.0621 4.3518 40.1309 4.69981 40.1309 5.10085C40.1309 5.50521 40.0621 5.85571 39.9246 6.15234C39.7871 6.44732 39.5965 6.67602 39.3529 6.83842C39.1093 6.99917 38.8284 7.07955 38.5102 7.07955C38.2649 7.07955 38.0685 7.03894 37.921 6.95774C37.7736 6.87488 37.66 6.78125 37.5805 6.67685C37.5009 6.57079 37.4396 6.48295 37.3965 6.41335H37.3468V8.43182H36.7602ZM37.3369 5.09091C37.3369 5.37926 37.3791 5.63364 37.4637 5.85405C37.5482 6.0728 37.6716 6.24432 37.834 6.36861C37.9965 6.49124 38.1953 6.55256 38.4306 6.55256C38.6759 6.55256 38.8806 6.48793 39.0446 6.35866C39.2103 6.22775 39.3346 6.05208 39.4175 5.83168C39.502 5.60961 39.5443 5.36269 39.5443 5.09091C39.5443 4.82244 39.5028 4.58049 39.42 4.36506C39.3388 4.14796 39.2153 3.97644 39.0496 3.8505C38.8855 3.72289 38.6792 3.65909 38.4306 3.65909C38.192 3.65909 37.9915 3.71958 37.8291 3.84055C37.6667 3.95987 37.544 4.12725 37.4612 4.34268C37.3783 4.55646 37.3369 4.80587 37.3369 5.09091ZM40.8718 8.43182V3.18182H41.4386V3.78835H41.5082C41.5513 3.72206 41.6109 3.63755 41.6871 3.5348C41.765 3.4304 41.8761 3.33759 42.0202 3.25639C42.1661 3.17353 42.3633 3.1321 42.6119 3.1321C42.9334 3.1321 43.2167 3.21248 43.462 3.37322C43.7073 3.53397 43.8987 3.76184 44.0362 4.05682C44.1738 4.3518 44.2425 4.69981 44.2425 5.10085C44.2425 5.50521 44.1738 5.85571 44.0362 6.15234C43.8987 6.44732 43.7081 6.67602 43.4645 6.83842C43.2209 6.99917 42.94 7.07955 42.6218 7.07955C42.3765 7.07955 42.1802 7.03894 42.0327 6.95774C41.8852 6.87488 41.7717 6.78125 41.6921 6.67685C41.6126 6.57079 41.5513 6.48295 41.5082 6.41335H41.4585V8.43182H40.8718ZM41.4485 5.09091C41.4485 5.37926 41.4908 5.63364 41.5753 5.85405C41.6598 6.0728 41.7833 6.24432 41.9457 6.36861C42.1081 6.49124 42.3069 6.55256 42.5423 6.55256C42.7875 6.55256 42.9922 6.48793 43.1563 6.35866C43.322 6.22775 43.4463 6.05208 43.5291 5.83168C43.6136 5.60961 43.6559 5.36269 43.6559 5.09091C43.6559 4.82244 43.6145 4.58049 43.5316 4.36506C43.4504 4.14796 43.3269 3.97644 43.1612 3.8505C42.9972 3.72289 42.7908 3.65909 42.5423 3.65909C42.3036 3.65909 42.1031 3.71958 41.9407 3.84055C41.7783 3.95987 41.6557 4.12725 41.5728 4.34268C41.4899 4.55646 41.4485 4.80587 41.4485 5.09091ZM46.5346 7.07955C46.1899 7.07955 45.8874 6.99751 45.6273 6.83345C45.3687 6.66939 45.1666 6.43987 45.0207 6.14489C44.8765 5.84991 44.8045 5.50521 44.8045 5.1108C44.8045 4.71307 44.8765 4.36589 45.0207 4.06925C45.1666 3.77261 45.3687 3.54226 45.6273 3.3782C45.8874 3.21413 46.1899 3.1321 46.5346 3.1321C46.8793 3.1321 47.1809 3.21413 47.4394 3.3782C47.6996 3.54226 47.9018 3.77261 48.0459 4.06925C48.1918 4.36589 48.2647 4.71307 48.2647 5.1108C48.2647 5.50521 48.1918 5.84991 48.0459 6.14489C47.9018 6.43987 47.6996 6.66939 47.4394 6.83345C47.1809 6.99751 46.8793 7.07955 46.5346 7.07955ZM46.5346 6.55256C46.7964 6.55256 47.0118 6.48544 47.1809 6.35121C47.3499 6.21697 47.475 6.04048 47.5562 5.82173C47.6374 5.60298 47.678 5.366 47.678 5.1108C47.678 4.85559 47.6374 4.61778 47.5562 4.39737C47.475 4.17696 47.3499 3.99882 47.1809 3.86293C47.0118 3.72704 46.7964 3.65909 46.5346 3.65909C46.2727 3.65909 46.0573 3.72704 45.8883 3.86293C45.7192 3.99882 45.5941 4.17696 45.5129 4.39737C45.4317 4.61778 45.3911 4.85559 45.3911 5.1108C45.3911 5.366 45.4317 5.60298 45.5129 5.82173C45.5941 6.04048 45.7192 6.21697 45.8883 6.35121C46.0573 6.48544 46.2727 6.55256 46.5346 6.55256ZM49.0062 7V3.18182H49.573V3.75852H49.6127C49.6823 3.5696 49.8083 3.41631 49.9906 3.29865C50.1729 3.18099 50.3783 3.12216 50.607 3.12216C50.6501 3.12216 50.704 3.12299 50.7686 3.12464C50.8332 3.1263 50.8821 3.12879 50.9153 3.1321V3.72869C50.8954 3.72372 50.8498 3.71626 50.7786 3.70632C50.709 3.69472 50.6352 3.68892 50.5573 3.68892C50.3717 3.68892 50.206 3.72786 50.0602 3.80575C49.916 3.88198 49.8016 3.98804 49.7171 4.12393C49.6343 4.25817 49.5928 4.41146 49.5928 4.58381V7H49.0062ZM53.3565 3.18182V3.67898H51.3778V3.18182H53.3565ZM51.9545 2.26705H52.5411V5.90625C52.5411 6.07197 52.5651 6.19626 52.6132 6.27912C52.6629 6.36032 52.7259 6.41501 52.8021 6.44318C52.88 6.4697 52.962 6.48295 53.0482 6.48295C53.1128 6.48295 53.1659 6.47964 53.2073 6.47301C53.2487 6.46473 53.2819 6.4581 53.3067 6.45312L53.4261 6.98011C53.3863 6.99503 53.3308 7.00994 53.2595 7.02486C53.1882 7.04143 53.0979 7.04972 52.9886 7.04972C52.8228 7.04972 52.6604 7.01409 52.5013 6.94283C52.3439 6.87157 52.213 6.76302 52.1086 6.61719C52.0058 6.47135 51.9545 6.28741 51.9545 6.06534V2.26705ZM55.6447 7.07955C55.2768 7.07955 54.9595 6.99834 54.6927 6.83594C54.4275 6.67188 54.2229 6.44318 54.0787 6.14986C53.9362 5.85488 53.8649 5.51184 53.8649 5.12074C53.8649 4.72964 53.9362 4.38494 54.0787 4.08665C54.2229 3.7867 54.4234 3.55303 54.6803 3.38565C54.9388 3.21662 55.2404 3.1321 55.5851 3.1321C55.784 3.1321 55.9803 3.16525 56.1742 3.23153C56.3681 3.29782 56.5446 3.40554 56.7037 3.55469C56.8628 3.70218 56.9896 3.89773 57.084 4.14134C57.1785 4.38494 57.2257 4.6849 57.2257 5.04119V5.28977H54.2825V4.78267H56.6291C56.6291 4.56723 56.586 4.375 56.4999 4.20597C56.4153 4.03693 56.2944 3.90353 56.1369 3.80575C55.9812 3.70798 55.7972 3.65909 55.5851 3.65909C55.3514 3.65909 55.1492 3.71709 54.9786 3.8331C54.8095 3.94744 54.6794 4.09659 54.5883 4.28054C54.4971 4.46449 54.4516 4.66169 54.4516 4.87216V5.21023C54.4516 5.49858 54.5013 5.74302 54.6007 5.94354C54.7018 6.1424 54.8418 6.29403 55.0208 6.39844C55.1998 6.50118 55.4078 6.55256 55.6447 6.55256C55.7989 6.55256 55.9381 6.53101 56.0624 6.48793C56.1883 6.44318 56.2969 6.37689 56.388 6.28906C56.4791 6.19957 56.5496 6.08854 56.5993 5.95597L57.1661 6.11506C57.1064 6.30729 57.0061 6.47633 56.8653 6.62216C56.7244 6.76634 56.5504 6.87902 56.3433 6.96023C56.1361 7.03977 55.9033 7.07955 55.6447 7.07955ZM59.4059 7.07955C59.0877 7.07955 58.8068 6.99917 58.5632 6.83842C58.3196 6.67602 58.129 6.44732 57.9915 6.15234C57.8539 5.85571 57.7851 5.50521 57.7851 5.10085C57.7851 4.69981 57.8539 4.3518 57.9915 4.05682C58.129 3.76184 58.3204 3.53397 58.5657 3.37322C58.8109 3.21248 59.0943 3.1321 59.4158 3.1321C59.6644 3.1321 59.8608 3.17353 60.0049 3.25639C60.1508 3.33759 60.2618 3.4304 60.338 3.5348C60.4159 3.63755 60.4764 3.72206 60.5195 3.78835H60.5692V1.90909H61.1559V7H60.5891V6.41335H60.5195C60.4764 6.48295 60.4151 6.57079 60.3356 6.67685C60.256 6.78125 60.1425 6.87488 59.995 6.95774C59.8475 7.03894 59.6511 7.07955 59.4059 7.07955ZM59.4854 6.55256C59.7207 6.55256 59.9196 6.49124 60.082 6.36861C60.2444 6.24432 60.3679 6.0728 60.4524 5.85405C60.5369 5.63364 60.5792 5.37926 60.5792 5.09091C60.5792 4.80587 60.5377 4.55646 60.4549 4.34268C60.372 4.12725 60.2494 3.95987 60.087 3.84055C59.9246 3.71958 59.7241 3.65909 59.4854 3.65909C59.2368 3.65909 59.0297 3.72289 58.864 3.8505C58.6999 3.97644 58.5764 4.14796 58.4936 4.36506C58.4124 4.58049 58.3718 4.82244 58.3718 5.09091C58.3718 5.36269 58.4132 5.60961 58.4961 5.83168C58.5806 6.05208 58.7049 6.22775 58.8689 6.35866C59.0347 6.48793 59.2402 6.55256 59.4854 6.55256ZM64.0521 7V1.90909H64.6387V3.78835H64.6884C64.7315 3.72206 64.7912 3.63755 64.8674 3.5348C64.9453 3.4304 65.0563 3.33759 65.2005 3.25639C65.3463 3.17353 65.5435 3.1321 65.7921 3.1321C66.1136 3.1321 66.397 3.21248 66.6423 3.37322C66.8875 3.53397 67.0789 3.76184 67.2165 4.05682C67.354 4.3518 67.4228 4.69981 67.4228 5.10085C67.4228 5.50521 67.354 5.85571 67.2165 6.15234C67.0789 6.44732 66.8884 6.67602 66.6447 6.83842C66.4011 6.99917 66.1202 7.07955 65.8021 7.07955C65.5568 7.07955 65.3604 7.03894 65.2129 6.95774C65.0654 6.87488 64.9519 6.78125 64.8724 6.67685C64.7928 6.57079 64.7315 6.48295 64.6884 6.41335H64.6188V7H64.0521ZM64.6288 5.09091C64.6288 5.37926 64.671 5.63364 64.7555 5.85405C64.8401 6.0728 64.9635 6.24432 65.1259 6.36861C65.2883 6.49124 65.4872 6.55256 65.7225 6.55256C65.9678 6.55256 66.1724 6.48793 66.3365 6.35866C66.5022 6.22775 66.6265 6.05208 66.7094 5.83168C66.7939 5.60961 66.8362 5.36269 66.8362 5.09091C66.8362 4.82244 66.7947 4.58049 66.7119 4.36506C66.6307 4.14796 66.5072 3.97644 66.3415 3.8505C66.1774 3.72289 65.9711 3.65909 65.7225 3.65909C65.4839 3.65909 65.2834 3.71958 65.121 3.84055C64.9585 3.95987 64.8359 4.12725 64.7531 4.34268C64.6702 4.55646 64.6288 4.80587 64.6288 5.09091ZM68.4073 8.43182C68.3079 8.43182 68.2192 8.42353 68.1413 8.40696C68.0634 8.39205 68.0096 8.37713 67.9797 8.36222L68.1289 7.84517C68.2714 7.88163 68.3974 7.89489 68.5067 7.88494C68.6161 7.875 68.713 7.82611 68.7976 7.73828C68.8837 7.65211 68.9625 7.51207 69.0337 7.31818L69.1431 7.01989L67.7312 3.18182H68.3675L69.4215 6.22443H69.4613L70.5153 3.18182H71.1516L69.5309 7.55682C69.458 7.75402 69.3676 7.91726 69.2599 8.04652C69.1522 8.17744 69.0271 8.27438 68.8846 8.33736C68.7437 8.40033 68.5846 8.43182 68.4073 8.43182Z" fill="white"/>
<path d="M29.517 19L28.233 14.6364H29.1108L29.9659 17.8409H30.0085L30.8665 14.6364H31.7443L32.5966 17.8267H32.6392L33.4886 14.6364H34.3665L33.0852 19H32.2188L31.3324 15.8494H31.267L30.3807 19H29.517ZM36.7445 19.0881C36.3145 19.0881 35.9443 18.9962 35.6337 18.8125C35.3249 18.6269 35.0863 18.3665 34.9177 18.0312C34.7511 17.6941 34.6677 17.2992 34.6677 16.8466C34.6677 16.3996 34.7511 16.0057 34.9177 15.6648C35.0863 15.3239 35.3212 15.0578 35.6223 14.8665C35.9253 14.6752 36.2795 14.5795 36.6848 14.5795C36.931 14.5795 37.1696 14.6203 37.4007 14.7017C37.6318 14.7831 37.8392 14.911 38.0229 15.0852C38.2066 15.2595 38.3515 15.4858 38.4575 15.7642C38.5636 16.0407 38.6166 16.3769 38.6166 16.7727V17.0739H35.1479V16.4375H37.7842C37.7842 16.214 37.7388 16.0161 37.6479 15.8438C37.557 15.6695 37.4291 15.5322 37.2643 15.4318C37.1015 15.3314 36.9102 15.2812 36.6905 15.2812C36.4518 15.2812 36.2435 15.34 36.0655 15.4574C35.8893 15.5729 35.753 15.7244 35.6564 15.9119C35.5617 16.0975 35.5143 16.2992 35.5143 16.517V17.0142C35.5143 17.3059 35.5655 17.554 35.6677 17.7585C35.7719 17.9631 35.9168 18.1193 36.1024 18.2273C36.288 18.3333 36.5049 18.3864 36.753 18.3864C36.914 18.3864 37.0607 18.3636 37.1933 18.3182C37.3259 18.2708 37.4405 18.2008 37.5371 18.108C37.6337 18.0152 37.7075 17.9006 37.7587 17.7642L38.5626 17.9091C38.4982 18.1458 38.3827 18.3532 38.216 18.5312C38.0513 18.7074 37.8439 18.8447 37.5939 18.9432C37.3458 19.0398 37.0626 19.0881 36.7445 19.0881ZM39.4513 19V13.1818H40.3007V15.3438H40.3518C40.4011 15.2528 40.4721 15.1477 40.5649 15.0284C40.6577 14.9091 40.7865 14.8049 40.9513 14.7159C41.116 14.625 41.3338 14.5795 41.6047 14.5795C41.9569 14.5795 42.2713 14.6686 42.5479 14.8466C42.8244 15.0246 43.0412 15.2812 43.1984 15.6165C43.3575 15.9517 43.4371 16.3551 43.4371 16.8267C43.4371 17.2983 43.3585 17.7027 43.2013 18.0398C43.0441 18.375 42.8282 18.6335 42.5535 18.8153C42.2789 18.9953 41.9655 19.0852 41.6132 19.0852C41.348 19.0852 41.1312 19.0407 40.9626 18.9517C40.796 18.8627 40.6653 18.7585 40.5706 18.6392C40.4759 18.5199 40.403 18.4138 40.3518 18.321H40.2808V19H39.4513ZM40.2837 16.8182C40.2837 17.125 40.3282 17.3939 40.4172 17.625C40.5062 17.8561 40.635 18.0369 40.8035 18.1676C40.9721 18.2964 41.1785 18.3608 41.4229 18.3608C41.6766 18.3608 41.8888 18.2936 42.0592 18.1591C42.2297 18.0227 42.3585 17.8381 42.4456 17.6051C42.5346 17.3722 42.5791 17.1098 42.5791 16.8182C42.5791 16.5303 42.5355 16.2718 42.4484 16.0426C42.3632 15.8134 42.2344 15.6326 42.0621 15.5C41.8916 15.3674 41.6785 15.3011 41.4229 15.3011C41.1766 15.3011 40.9683 15.3646 40.7979 15.4915C40.6293 15.6184 40.5015 15.7955 40.4143 16.0227C40.3272 16.25 40.2837 16.5152 40.2837 16.8182ZM46.2291 19.0795C45.839 19.0795 45.4905 19.0123 45.1836 18.8778C44.8787 18.7434 44.6372 18.5568 44.4592 18.3182C44.2831 18.0777 44.1884 17.7992 44.1751 17.483H45.0672C45.0785 17.6553 45.1363 17.8049 45.2405 17.9318C45.3465 18.0568 45.4848 18.1534 45.6552 18.2216C45.8257 18.2898 46.0151 18.3239 46.2234 18.3239C46.4526 18.3239 46.6552 18.2841 46.8314 18.2045C47.0094 18.125 47.1486 18.0142 47.249 17.8722C47.3494 17.7282 47.3996 17.5625 47.3996 17.375C47.3996 17.1799 47.3494 17.0085 47.249 16.8608C47.1505 16.7112 47.0056 16.5937 46.8143 16.5085C46.6249 16.4233 46.3958 16.3807 46.1268 16.3807H45.6354V15.6648H46.1268C46.3427 15.6648 46.5321 15.6259 46.695 15.5483C46.8598 15.4706 46.9886 15.3627 47.0814 15.2244C47.1742 15.0843 47.2206 14.9205 47.2206 14.733C47.2206 14.553 47.1799 14.3968 47.0984 14.2642C47.0189 14.1297 46.9052 14.0246 46.7575 13.9489C46.6117 13.8731 46.4393 13.8352 46.2405 13.8352C46.0511 13.8352 45.874 13.8703 45.7092 13.9403C45.5463 14.0085 45.4138 14.107 45.3115 14.2358C45.2092 14.3627 45.1543 14.5152 45.1467 14.6932H44.2973C44.3068 14.3788 44.3996 14.1023 44.5757 13.8636C44.7537 13.625 44.9886 13.4384 45.2802 13.304C45.5719 13.1695 45.8958 13.1023 46.2518 13.1023C46.6249 13.1023 46.9469 13.1752 47.2177 13.321C47.4905 13.465 47.7007 13.6572 47.8484 13.8977C47.998 14.1383 48.0719 14.4015 48.07 14.6875C48.0719 15.0133 47.981 15.2898 47.7973 15.517C47.6155 15.7443 47.373 15.8968 47.07 15.9744V16.0199C47.4564 16.0786 47.7556 16.232 47.9677 16.4801C48.1818 16.7282 48.2878 17.036 48.2859 17.4034C48.2878 17.7235 48.1988 18.0104 48.0189 18.2642C47.8408 18.518 47.5975 18.7178 47.2888 18.8636C46.98 19.0076 46.6268 19.0795 46.2291 19.0795ZM53.213 14.6364V15.3182H50.7471V14.6364H53.213ZM51.4233 19V14.1307C51.4233 13.858 51.4829 13.6316 51.6022 13.4517C51.7216 13.2699 51.8797 13.1345 52.0767 13.0455C52.2736 12.9545 52.4877 12.9091 52.7187 12.9091C52.8892 12.9091 53.035 12.9233 53.1562 12.9517C53.2774 12.9782 53.3674 13.0028 53.4261 13.0256L53.2272 13.7131C53.1875 13.7017 53.1363 13.6884 53.0738 13.6733C53.0113 13.6562 52.9356 13.6477 52.8466 13.6477C52.6401 13.6477 52.4924 13.6989 52.4034 13.8011C52.3163 13.9034 52.2727 14.0511 52.2727 14.2443V19H51.4233ZM55.5797 19.0881C55.1706 19.0881 54.8136 18.9943 54.5086 18.8068C54.2037 18.6193 53.967 18.357 53.7984 18.0199C53.6298 17.6828 53.5456 17.2888 53.5456 16.8381C53.5456 16.3854 53.6298 15.9896 53.7984 15.6506C53.967 15.3116 54.2037 15.0483 54.5086 14.8608C54.8136 14.6733 55.1706 14.5795 55.5797 14.5795C55.9887 14.5795 56.3458 14.6733 56.6507 14.8608C56.9556 15.0483 57.1923 15.3116 57.3609 15.6506C57.5295 15.9896 57.6137 16.3854 57.6137 16.8381C57.6137 17.2888 57.5295 17.6828 57.3609 18.0199C57.1923 18.357 56.9556 18.6193 56.6507 18.8068C56.3458 18.9943 55.9887 19.0881 55.5797 19.0881ZM55.5825 18.375C55.8476 18.375 56.0673 18.3049 56.2416 18.1648C56.4158 18.0246 56.5446 17.8381 56.6279 17.6051C56.7132 17.3722 56.7558 17.1155 56.7558 16.8352C56.7558 16.5568 56.7132 16.3011 56.6279 16.0682C56.5446 15.8333 56.4158 15.6449 56.2416 15.5028C56.0673 15.3608 55.8476 15.2898 55.5825 15.2898C55.3154 15.2898 55.0939 15.3608 54.9177 15.5028C54.7435 15.6449 54.6137 15.8333 54.5285 16.0682C54.4452 16.3011 54.4035 16.5568 54.4035 16.8352C54.4035 17.1155 54.4452 17.3722 54.5285 17.6051C54.6137 17.8381 54.7435 18.0246 54.9177 18.1648C55.0939 18.3049 55.3154 18.375 55.5825 18.375ZM61.1501 17.1903V14.6364H62.0024V19H61.1671V18.2443H61.1217C61.0213 18.4773 60.8603 18.6714 60.6387 18.8267C60.419 18.9801 60.1454 19.0568 59.8177 19.0568C59.5374 19.0568 59.2893 18.9953 59.0734 18.8722C58.8594 18.7472 58.6908 18.5625 58.5677 18.3182C58.4465 18.0739 58.3859 17.7718 58.3859 17.4119V14.6364H59.2353V17.3097C59.2353 17.607 59.3177 17.8437 59.4825 18.0199C59.6473 18.196 59.8613 18.2841 60.1245 18.2841C60.2836 18.2841 60.4418 18.2443 60.599 18.1648C60.7581 18.0852 60.8897 17.965 60.9939 17.804C61.0999 17.643 61.152 17.4384 61.1501 17.1903ZM63.8171 16.4091V19H62.9677V14.6364H63.7831V15.3466H63.837C63.9374 15.1155 64.0946 14.9299 64.3086 14.7898C64.5245 14.6496 64.7963 14.5795 65.124 14.5795C65.4213 14.5795 65.6817 14.642 65.9052 14.767C66.1287 14.8902 66.302 15.0739 66.4251 15.3182C66.5482 15.5625 66.6098 15.8646 66.6098 16.2244V19H65.7603V16.3267C65.7603 16.0104 65.6779 15.7633 65.5132 15.5852C65.3484 15.4053 65.1221 15.3153 64.8342 15.3153C64.6372 15.3153 64.462 15.358 64.3086 15.4432C64.1571 15.5284 64.0368 15.6534 63.9478 15.8182C63.8607 15.9811 63.8171 16.178 63.8171 16.4091ZM69.2065 19.0852C68.8542 19.0852 68.5398 18.9953 68.2633 18.8153C67.9887 18.6335 67.7728 18.375 67.6156 18.0398C67.4603 17.7027 67.3826 17.2983 67.3826 16.8267C67.3826 16.3551 67.4612 15.9517 67.6184 15.6165C67.7775 15.2812 67.9953 15.0246 68.2718 14.8466C68.5483 14.6686 68.8618 14.5795 69.2122 14.5795C69.483 14.5795 69.7008 14.625 69.8656 14.7159C70.0322 14.8049 70.161 14.9091 70.2519 15.0284C70.3447 15.1477 70.4167 15.2528 70.4678 15.3438H70.519V13.1818H71.3684V19H70.5389V18.321H70.4678C70.4167 18.4138 70.3428 18.5199 70.2463 18.6392C70.1516 18.7585 70.0209 18.8627 69.8542 18.9517C69.6875 19.0407 69.4716 19.0852 69.2065 19.0852ZM69.394 18.3608C69.6383 18.3608 69.8447 18.2964 70.0133 18.1676C70.1838 18.0369 70.3125 17.8561 70.3997 17.625C70.4887 17.3939 70.5332 17.125 70.5332 16.8182C70.5332 16.5152 70.4896 16.25 70.4025 16.0227C70.3154 15.7955 70.1875 15.6184 70.019 15.4915C69.8504 15.3646 69.6421 15.3011 69.394 15.3011C69.1383 15.3011 68.9252 15.3674 68.7548 15.5C68.5843 15.6326 68.4555 15.8134 68.3684 16.0426C68.2832 16.2718 68.2406 16.5303 68.2406 16.8182C68.2406 17.1098 68.2841 17.3722 68.3713 17.6051C68.4584 17.8381 68.5872 18.0227 68.7576 18.1591C68.93 18.2936 69.1421 18.3608 69.394 18.3608ZM73.6747 19.0966C73.3981 19.0966 73.1481 19.0455 72.9247 18.9432C72.7012 18.839 72.5241 18.6884 72.3934 18.4915C72.2646 18.2945 72.2002 18.053 72.2002 17.767C72.2002 17.5208 72.2476 17.3182 72.3423 17.1591C72.437 17 72.5648 16.8741 72.7258 16.7812C72.8868 16.6884 73.0667 16.6184 73.2656 16.571C73.4644 16.5237 73.6671 16.4877 73.8735 16.4631C74.1349 16.4328 74.347 16.4081 74.5099 16.3892C74.6728 16.3684 74.7911 16.3352 74.865 16.2898C74.9389 16.2443 74.9758 16.1705 74.9758 16.0682V16.0483C74.9758 15.8002 74.9057 15.608 74.7656 15.4716C74.6273 15.3352 74.4209 15.267 74.1463 15.267C73.8603 15.267 73.6349 15.3305 73.4701 15.4574C73.3072 15.5824 73.1945 15.7216 73.132 15.875L72.3338 15.6932C72.4284 15.428 72.5667 15.214 72.7485 15.0511C72.9322 14.8864 73.1434 14.767 73.382 14.6932C73.6207 14.6174 73.8716 14.5795 74.1349 14.5795C74.3091 14.5795 74.4938 14.6004 74.6889 14.642C74.8858 14.6818 75.0695 14.7557 75.24 14.8636C75.4124 14.9716 75.5534 15.1259 75.6633 15.3267C75.7731 15.5256 75.8281 15.7841 75.8281 16.1023V19H74.9985V18.4034H74.9644C74.9095 18.5133 74.8271 18.6212 74.7173 18.7273C74.6074 18.8333 74.4663 18.9214 74.294 18.9915C74.1216 19.0616 73.9152 19.0966 73.6747 19.0966ZM73.8593 18.4148C74.0942 18.4148 74.2949 18.3684 74.4616 18.2756C74.6302 18.1828 74.758 18.0616 74.8451 17.9119C74.9341 17.7604 74.9786 17.5985 74.9786 17.4261V16.8636C74.9483 16.8939 74.8896 16.9223 74.8025 16.9489C74.7173 16.9735 74.6197 16.9953 74.5099 17.0142C74.4 17.0312 74.293 17.0473 74.1889 17.0625C74.0847 17.0758 73.9976 17.0871 73.9275 17.0966C73.7627 17.1174 73.6122 17.1525 73.4758 17.2017C73.3413 17.2509 73.2334 17.322 73.1519 17.4148C73.0724 17.5057 73.0326 17.6269 73.0326 17.7784C73.0326 17.9886 73.1103 18.1477 73.2656 18.2557C73.4209 18.3617 73.6188 18.4148 73.8593 18.4148ZM78.8204 14.6364V15.3182H76.4369V14.6364H78.8204ZM77.0761 13.5909H77.9255V17.7188C77.9255 17.8835 77.9501 18.0076 77.9994 18.0909C78.0486 18.1723 78.1121 18.2282 78.1897 18.2585C78.2693 18.2869 78.3554 18.3011 78.4482 18.3011C78.5164 18.3011 78.5761 18.2964 78.6272 18.2869C78.6783 18.2775 78.7181 18.2699 78.7465 18.2642L78.8999 18.9659C78.8507 18.9848 78.7806 19.0038 78.6897 19.0227C78.5988 19.0436 78.4852 19.0549 78.3488 19.0568C78.1253 19.0606 77.917 19.0208 77.7238 18.9375C77.5306 18.8542 77.3744 18.7254 77.2551 18.5511C77.1357 18.3769 77.0761 18.1581 77.0761 17.8949V13.5909ZM79.584 19V14.6364H80.4335V19H79.584ZM80.013 13.9631C79.8653 13.9631 79.7384 13.9138 79.6323 13.8153C79.5282 13.715 79.4761 13.5956 79.4761 13.4574C79.4761 13.3172 79.5282 13.1979 79.6323 13.0994C79.7384 12.9991 79.8653 12.9489 80.013 12.9489C80.1607 12.9489 80.2867 12.9991 80.3908 13.0994C80.4969 13.1979 80.5499 13.3172 80.5499 13.4574C80.5499 13.5956 80.4969 13.715 80.3908 13.8153C80.2867 13.9138 80.1607 13.9631 80.013 13.9631ZM83.2383 19.0881C82.8292 19.0881 82.4722 18.9943 82.1673 18.8068C81.8623 18.6193 81.6256 18.357 81.457 18.0199C81.2885 17.6828 81.2042 17.2888 81.2042 16.8381C81.2042 16.3854 81.2885 15.9896 81.457 15.6506C81.6256 15.3116 81.8623 15.0483 82.1673 14.8608C82.4722 14.6733 82.8292 14.5795 83.2383 14.5795C83.6474 14.5795 84.0044 14.6733 84.3093 14.8608C84.6142 15.0483 84.851 15.3116 85.0195 15.6506C85.1881 15.9896 85.2724 16.3854 85.2724 16.8381C85.2724 17.2888 85.1881 17.6828 85.0195 18.0199C84.851 18.357 84.6142 18.6193 84.3093 18.8068C84.0044 18.9943 83.6474 19.0881 83.2383 19.0881ZM83.2411 18.375C83.5063 18.375 83.726 18.3049 83.9002 18.1648C84.0745 18.0246 84.2032 17.8381 84.2866 17.6051C84.3718 17.3722 84.4144 17.1155 84.4144 16.8352C84.4144 16.5568 84.3718 16.3011 84.2866 16.0682C84.2032 15.8333 84.0745 15.6449 83.9002 15.5028C83.726 15.3608 83.5063 15.2898 83.2411 15.2898C82.9741 15.2898 82.7525 15.3608 82.5763 15.5028C82.4021 15.6449 82.2724 15.8333 82.1871 16.0682C82.1038 16.3011 82.0621 16.5568 82.0621 16.8352C82.0621 17.1155 82.1038 17.3722 82.1871 17.6051C82.2724 17.8381 82.4021 18.0246 82.5763 18.1648C82.7525 18.3049 82.9741 18.375 83.2411 18.375ZM86.894 16.4091V19H86.0445V14.6364H86.8599V15.3466H86.9138C87.0142 15.1155 87.1714 14.9299 87.3854 14.7898C87.6013 14.6496 87.8731 14.5795 88.2008 14.5795C88.4981 14.5795 88.7585 14.642 88.982 14.767C89.2055 14.8902 89.3788 15.0739 89.5019 15.3182C89.625 15.5625 89.6866 15.8646 89.6866 16.2244V19H88.8371V16.3267C88.8371 16.0104 88.7547 15.7633 88.59 15.5852C88.4252 15.4053 88.1989 15.3153 87.911 15.3153C87.714 15.3153 87.5388 15.358 87.3854 15.4432C87.2339 15.5284 87.1137 15.6534 87.0246 15.8182C86.9375 15.9811 86.894 16.178 86.894 16.4091ZM30.4006 29.7273C30.054 29.7273 29.7557 29.6818 29.5057 29.5909C29.2576 29.5 29.0549 29.3797 28.8977 29.2301C28.7405 29.0805 28.6231 28.9167 28.5455 28.7386L29.2756 28.4375C29.3267 28.5208 29.3949 28.6089 29.4801 28.7017C29.5672 28.7964 29.6847 28.8769 29.8324 28.9432C29.982 29.0095 30.1742 29.0426 30.4091 29.0426C30.7311 29.0426 30.9972 28.964 31.2074 28.8068C31.4176 28.6515 31.5227 28.4034 31.5227 28.0625V27.2045H31.4688C31.4176 27.2973 31.3438 27.4006 31.2472 27.5142C31.1525 27.6278 31.0218 27.7263 30.8551 27.8097C30.6884 27.893 30.4716 27.9347 30.2045 27.9347C29.8598 27.9347 29.5492 27.8542 29.2727 27.6932C28.9981 27.5303 28.7803 27.2907 28.6193 26.9744C28.4602 26.6562 28.3807 26.2652 28.3807 25.8011C28.3807 25.3371 28.4593 24.9394 28.6165 24.608C28.7756 24.2765 28.9934 24.0227 29.2699 23.8466C29.5464 23.6686 29.8598 23.5795 30.2102 23.5795C30.4811 23.5795 30.6998 23.625 30.8665 23.7159C31.0331 23.8049 31.1629 23.9091 31.2557 24.0284C31.3504 24.1477 31.4233 24.2528 31.4744 24.3438H31.5369V23.6364H32.3693V28.0966C32.3693 28.4716 32.2822 28.7794 32.108 29.0199C31.9337 29.2604 31.6979 29.4384 31.4006 29.554C31.1051 29.6695 30.7718 29.7273 30.4006 29.7273ZM30.392 27.2301C30.6364 27.2301 30.8428 27.1733 31.0114 27.0597C31.1818 26.9441 31.3106 26.7794 31.3977 26.5653C31.4867 26.3494 31.5312 26.0909 31.5312 25.7898C31.5312 25.4962 31.4877 25.2377 31.4006 25.0142C31.3134 24.7907 31.1856 24.6165 31.017 24.4915C30.8485 24.3646 30.6402 24.3011 30.392 24.3011C30.1364 24.3011 29.9233 24.3674 29.7528 24.5C29.5824 24.6307 29.4536 24.8087 29.3665 25.0341C29.2813 25.2595 29.2386 25.5114 29.2386 25.7898C29.2386 26.0758 29.2822 26.3267 29.3693 26.5426C29.4564 26.7585 29.5852 26.9271 29.7557 27.0483C29.928 27.1695 30.1402 27.2301 30.392 27.2301ZM33.3325 28V23.6364H34.1535V24.3295H34.199C34.2785 24.0947 34.4187 23.91 34.6195 23.7756C34.8221 23.6392 35.0513 23.571 35.307 23.571C35.36 23.571 35.4225 23.5729 35.4945 23.5767C35.5683 23.5805 35.6261 23.5852 35.6677 23.5909V24.4034C35.6337 24.3939 35.5731 24.3835 35.4859 24.3722C35.3988 24.3589 35.3117 24.3523 35.2246 24.3523C35.0238 24.3523 34.8448 24.3949 34.6876 24.4801C34.5323 24.5634 34.4092 24.6799 34.3183 24.8295C34.2274 24.9773 34.182 25.1458 34.182 25.3352V28H33.3325ZM37.4577 28.0966C37.1811 28.0966 36.9311 28.0455 36.7077 27.9432C36.4842 27.839 36.3071 27.6884 36.1764 27.4915C36.0476 27.2945 35.9832 27.053 35.9832 26.767C35.9832 26.5208 36.0306 26.3182 36.1253 26.1591C36.22 26 36.3478 25.8741 36.5088 25.7812C36.6698 25.6884 36.8497 25.6184 37.0486 25.571C37.2474 25.5237 37.4501 25.4877 37.6565 25.4631C37.9179 25.4328 38.13 25.4081 38.2929 25.3892C38.4558 25.3684 38.5741 25.3352 38.648 25.2898C38.7219 25.2443 38.7588 25.1705 38.7588 25.0682V25.0483C38.7588 24.8002 38.6887 24.608 38.5486 24.4716C38.4103 24.3352 38.2039 24.267 37.9292 24.267C37.6433 24.267 37.4179 24.3305 37.2531 24.4574C37.0902 24.5824 36.9775 24.7216 36.915 24.875L36.1167 24.6932C36.2114 24.428 36.3497 24.214 36.5315 24.0511C36.7152 23.8864 36.9264 23.767 37.165 23.6932C37.4037 23.6174 37.6546 23.5795 37.9179 23.5795C38.0921 23.5795 38.2768 23.6004 38.4719 23.642C38.6688 23.6818 38.8525 23.7557 39.023 23.8636C39.1953 23.9716 39.3364 24.1259 39.4463 24.3267C39.5561 24.5256 39.6111 24.7841 39.6111 25.1023V28H38.7815V27.4034H38.7474C38.6925 27.5133 38.6101 27.6212 38.5003 27.7273C38.3904 27.8333 38.2493 27.9214 38.077 27.9915C37.9046 28.0616 37.6982 28.0966 37.4577 28.0966ZM37.6423 27.4148C37.8772 27.4148 38.0779 27.3684 38.2446 27.2756C38.4132 27.1828 38.541 27.0616 38.6281 26.9119C38.7171 26.7604 38.7616 26.5985 38.7616 26.4261V25.8636C38.7313 25.8939 38.6726 25.9223 38.5855 25.9489C38.5003 25.9735 38.4027 25.9953 38.2929 26.0142C38.183 26.0312 38.076 26.0473 37.9719 26.0625C37.8677 26.0758 37.7806 26.0871 37.7105 26.0966C37.5457 26.1174 37.3952 26.1525 37.2588 26.2017C37.1243 26.2509 37.0164 26.322 36.9349 26.4148C36.8554 26.5057 36.8156 26.6269 36.8156 26.7784C36.8156 26.9886 36.8933 27.1477 37.0486 27.2557C37.2039 27.3617 37.4018 27.4148 37.6423 27.4148ZM41.4159 25.4091V28H40.5665V23.6364H41.3818V24.3466H41.4358C41.5362 24.1155 41.6934 23.9299 41.9074 23.7898C42.1233 23.6496 42.3951 23.5795 42.7227 23.5795C43.0201 23.5795 43.2805 23.642 43.504 23.767C43.7274 23.8902 43.9007 24.0739 44.0238 24.3182C44.147 24.5625 44.2085 24.8646 44.2085 25.2244V28H43.3591V25.3267C43.3591 25.0104 43.2767 24.7633 43.1119 24.5852C42.9471 24.4053 42.7208 24.3153 42.4329 24.3153C42.236 24.3153 42.0608 24.358 41.9074 24.4432C41.7559 24.5284 41.6356 24.6534 41.5466 24.8182C41.4595 24.9811 41.4159 25.178 41.4159 25.4091ZM47.2086 23.6364V24.3182H44.8251V23.6364H47.2086ZM45.4643 22.5909H46.3138V26.7188C46.3138 26.8835 46.3384 27.0076 46.3876 27.0909C46.4369 27.1723 46.5003 27.2282 46.578 27.2585C46.6575 27.2869 46.7437 27.3011 46.8365 27.3011C46.9047 27.3011 46.9643 27.2964 47.0155 27.2869C47.0666 27.2775 47.1064 27.2699 47.1348 27.2642L47.2882 27.9659C47.2389 27.9848 47.1689 28.0038 47.078 28.0227C46.9871 28.0436 46.8734 28.0549 46.7371 28.0568C46.5136 28.0606 46.3052 28.0208 46.1121 27.9375C45.9189 27.8542 45.7626 27.7254 45.6433 27.5511C45.524 27.3769 45.4643 27.1581 45.4643 26.8949V22.5909ZM51.1718 24.7017L50.402 24.8381C50.3698 24.7396 50.3186 24.6458 50.2486 24.5568C50.1804 24.4678 50.0876 24.3949 49.9701 24.3381C49.8527 24.2812 49.7059 24.2528 49.5298 24.2528C49.2893 24.2528 49.0885 24.3068 48.9275 24.4148C48.7665 24.5208 48.6861 24.6581 48.6861 24.8267C48.6861 24.9725 48.74 25.09 48.848 25.179C48.9559 25.268 49.1302 25.3409 49.3707 25.3977L50.0639 25.5568C50.4654 25.6496 50.7647 25.7926 50.9616 25.9858C51.1586 26.179 51.2571 26.4299 51.2571 26.7386C51.2571 27 51.1813 27.233 51.0298 27.4375C50.8802 27.6402 50.6709 27.7992 50.402 27.9148C50.1349 28.0303 49.8253 28.0881 49.473 28.0881C48.9843 28.0881 48.5857 27.9839 48.277 27.7756C47.9682 27.5653 47.7789 27.267 47.7088 26.8807L48.5298 26.7557C48.5809 26.9697 48.6861 27.1316 48.8451 27.2415C49.0042 27.3494 49.2116 27.4034 49.4673 27.4034C49.7457 27.4034 49.9682 27.3456 50.1349 27.2301C50.3016 27.1127 50.3849 26.9697 50.3849 26.8011C50.3849 26.6648 50.3338 26.5502 50.2315 26.4574C50.1311 26.3646 49.9768 26.2945 49.7684 26.2472L49.0298 26.0852C48.6226 25.9924 48.3215 25.8447 48.1264 25.642C47.9332 25.4394 47.8366 25.1828 47.8366 24.8722C47.8366 24.6146 47.9086 24.3892 48.0525 24.196C48.1965 24.0028 48.3953 23.8523 48.6491 23.7443C48.9029 23.6345 49.1936 23.5795 49.5213 23.5795C49.9929 23.5795 50.3641 23.6818 50.6349 23.8864C50.9057 24.089 51.0847 24.3608 51.1718 24.7017ZM53.9562 29.6364V23.6364H54.7858V24.3438H54.8568C54.906 24.2528 54.977 24.1477 55.0698 24.0284C55.1626 23.9091 55.2914 23.8049 55.4562 23.7159C55.621 23.625 55.8388 23.5795 56.1096 23.5795C56.4619 23.5795 56.7763 23.6686 57.0528 23.8466C57.3293 24.0246 57.5462 24.2812 57.7034 24.6165C57.8625 24.9517 57.942 25.3551 57.942 25.8267C57.942 26.2983 57.8634 26.7027 57.7062 27.0398C57.549 27.375 57.3331 27.6335 57.0585 27.8153C56.7839 27.9953 56.4704 28.0852 56.1181 28.0852C55.853 28.0852 55.6361 28.0407 55.4676 27.9517C55.3009 27.8627 55.1702 27.7585 55.0755 27.6392C54.9808 27.5199 54.9079 27.4138 54.8568 27.321H54.8056V29.6364H53.9562ZM54.7886 25.8182C54.7886 26.125 54.8331 26.3939 54.9221 26.625C55.0111 26.8561 55.1399 27.0369 55.3085 27.1676C55.477 27.2964 55.6835 27.3608 55.9278 27.3608C56.1816 27.3608 56.3937 27.2936 56.5642 27.1591C56.7346 27.0227 56.8634 26.8381 56.9505 26.6051C57.0395 26.3722 57.0841 26.1098 57.0841 25.8182C57.0841 25.5303 57.0405 25.2718 56.9534 25.0426C56.8681 24.8134 56.7394 24.6326 56.567 24.5C56.3966 24.3674 56.1835 24.3011 55.9278 24.3011C55.6816 24.3011 55.4733 24.3646 55.3028 24.4915C55.1342 24.6184 55.0064 24.7955 54.9193 25.0227C54.8322 25.25 54.7886 25.5152 54.7886 25.8182ZM58.7177 28V23.6364H59.5387V24.3295H59.5842C59.6637 24.0947 59.8039 23.91 60.0046 23.7756C60.2073 23.6392 60.4365 23.571 60.6921 23.571C60.7452 23.571 60.8077 23.5729 60.8796 23.5767C60.9535 23.5805 61.0113 23.5852 61.0529 23.5909V24.4034C61.0188 24.3939 60.9582 24.3835 60.8711 24.3722C60.784 24.3589 60.6969 24.3523 60.6098 24.3523C60.409 24.3523 60.23 24.3949 60.0728 24.4801C59.9175 24.5634 59.7944 24.6799 59.7035 24.8295C59.6126 24.9773 59.5671 25.1458 59.5671 25.3352V28H58.7177ZM63.2938 28.0881C62.8848 28.0881 62.5277 27.9943 62.2228 27.8068C61.9179 27.6193 61.6812 27.357 61.5126 27.0199C61.344 26.6828 61.2598 26.2888 61.2598 25.8381C61.2598 25.3854 61.344 24.9896 61.5126 24.6506C61.6812 24.3116 61.9179 24.0483 62.2228 23.8608C62.5277 23.6733 62.8848 23.5795 63.2938 23.5795C63.7029 23.5795 64.0599 23.6733 64.3649 23.8608C64.6698 24.0483 64.9065 24.3116 65.0751 24.6506C65.2437 24.9896 65.3279 25.3854 65.3279 25.8381C65.3279 26.2888 65.2437 26.6828 65.0751 27.0199C64.9065 27.357 64.6698 27.6193 64.3649 27.8068C64.0599 27.9943 63.7029 28.0881 63.2938 28.0881ZM63.2967 27.375C63.5618 27.375 63.7815 27.3049 63.9558 27.1648C64.13 27.0246 64.2588 26.8381 64.3421 26.6051C64.4274 26.3722 64.47 26.1155 64.47 25.8352C64.47 25.5568 64.4274 25.3011 64.3421 25.0682C64.2588 24.8333 64.13 24.6449 63.9558 24.5028C63.7815 24.3608 63.5618 24.2898 63.2967 24.2898C63.0296 24.2898 62.808 24.3608 62.6319 24.5028C62.4577 24.6449 62.3279 24.8333 62.2427 25.0682C62.1594 25.3011 62.1177 25.5568 62.1177 25.8352C62.1177 26.1155 62.1594 26.3722 62.2427 26.6051C62.3279 26.8381 62.4577 27.0246 62.6319 27.1648C62.808 27.3049 63.0296 27.375 63.2967 27.375ZM67.9296 29.7273C67.583 29.7273 67.2847 29.6818 67.0347 29.5909C66.7866 29.5 66.584 29.3797 66.4268 29.2301C66.2696 29.0805 66.1522 28.9167 66.0745 28.7386L66.8046 28.4375C66.8558 28.5208 66.924 28.6089 67.0092 28.7017C67.0963 28.7964 67.2137 28.8769 67.3615 28.9432C67.5111 29.0095 67.7033 29.0426 67.9382 29.0426C68.2601 29.0426 68.5262 28.964 68.7365 28.8068C68.9467 28.6515 69.0518 28.4034 69.0518 28.0625V27.2045H68.9978C68.9467 27.2973 68.8728 27.4006 68.7762 27.5142C68.6815 27.6278 68.5508 27.7263 68.3842 27.8097C68.2175 27.893 68.0007 27.9347 67.7336 27.9347C67.3889 27.9347 67.0783 27.8542 66.8018 27.6932C66.5272 27.5303 66.3094 27.2907 66.1484 26.9744C65.9893 26.6562 65.9097 26.2652 65.9097 25.8011C65.9097 25.3371 65.9883 24.9394 66.1455 24.608C66.3046 24.2765 66.5224 24.0227 66.799 23.8466C67.0755 23.6686 67.3889 23.5795 67.7393 23.5795C68.0101 23.5795 68.2289 23.625 68.3955 23.7159C68.5622 23.8049 68.6919 23.9091 68.7847 24.0284C68.8794 24.1477 68.9524 24.2528 69.0035 24.3438H69.066V23.6364H69.8984V28.0966C69.8984 28.4716 69.8113 28.7794 69.637 29.0199C69.4628 29.2604 69.227 29.4384 68.9296 29.554C68.6342 29.6695 68.3008 29.7273 67.9296 29.7273ZM67.9211 27.2301C68.1654 27.2301 68.3719 27.1733 68.5404 27.0597C68.7109 26.9441 68.8397 26.7794 68.9268 26.5653C69.0158 26.3494 69.0603 26.0909 69.0603 25.7898C69.0603 25.4962 69.0168 25.2377 68.9296 25.0142C68.8425 24.7907 68.7147 24.6165 68.5461 24.4915C68.3775 24.3646 68.1692 24.3011 67.9211 24.3011C67.6654 24.3011 67.4524 24.3674 67.2819 24.5C67.1115 24.6307 66.9827 24.8087 66.8955 25.0341C66.8103 25.2595 66.7677 25.5114 66.7677 25.7898C66.7677 26.0758 66.8113 26.3267 66.8984 26.5426C66.9855 26.7585 67.1143 26.9271 67.2847 27.0483C67.4571 27.1695 67.6692 27.2301 67.9211 27.2301ZM70.8616 28V23.6364H71.6826V24.3295H71.7281C71.8076 24.0947 71.9478 23.91 72.1485 23.7756C72.3512 23.6392 72.5803 23.571 72.836 23.571C72.889 23.571 72.9515 23.5729 73.0235 23.5767C73.0974 23.5805 73.1551 23.5852 73.1968 23.5909V24.4034C73.1627 24.3939 73.1021 24.3835 73.015 24.3722C72.9279 24.3589 72.8408 24.3523 72.7536 24.3523C72.5529 24.3523 72.3739 24.3949 72.2167 24.4801C72.0614 24.5634 71.9383 24.6799 71.8474 24.8295C71.7565 24.9773 71.711 25.1458 71.711 25.3352V28H70.8616ZM74.9867 28.0966C74.7102 28.0966 74.4602 28.0455 74.2367 27.9432C74.0132 27.839 73.8362 27.6884 73.7055 27.4915C73.5767 27.2945 73.5123 27.053 73.5123 26.767C73.5123 26.5208 73.5596 26.3182 73.6543 26.1591C73.749 26 73.8769 25.8741 74.0379 25.7812C74.1988 25.6884 74.3788 25.6184 74.5776 25.571C74.7765 25.5237 74.9791 25.4877 75.1856 25.4631C75.4469 25.4328 75.6591 25.4081 75.8219 25.3892C75.9848 25.3684 76.1032 25.3352 76.1771 25.2898C76.2509 25.2443 76.2879 25.1705 76.2879 25.0682V25.0483C76.2879 24.8002 76.2178 24.608 76.0776 24.4716C75.9394 24.3352 75.7329 24.267 75.4583 24.267C75.1723 24.267 74.9469 24.3305 74.7822 24.4574C74.6193 24.5824 74.5066 24.7216 74.4441 24.875L73.6458 24.6932C73.7405 24.428 73.8788 24.214 74.0606 24.0511C74.2443 23.8864 74.4555 23.767 74.6941 23.6932C74.9327 23.6174 75.1837 23.5795 75.4469 23.5795C75.6212 23.5795 75.8059 23.6004 76.0009 23.642C76.1979 23.6818 76.3816 23.7557 76.5521 23.8636C76.7244 23.9716 76.8655 24.1259 76.9754 24.3267C77.0852 24.5256 77.1401 24.7841 77.1401 25.1023V28H76.3106V27.4034H76.2765C76.2216 27.5133 76.1392 27.6212 76.0293 27.7273C75.9195 27.8333 75.7784 27.9214 75.606 27.9915C75.4337 28.0616 75.2273 28.0966 74.9867 28.0966ZM75.1714 27.4148C75.4062 27.4148 75.607 27.3684 75.7737 27.2756C75.9422 27.1828 76.0701 27.0616 76.1572 26.9119C76.2462 26.7604 76.2907 26.5985 76.2907 26.4261V25.8636C76.2604 25.8939 76.2017 25.9223 76.1146 25.9489C76.0293 25.9735 75.9318 25.9953 75.8219 26.0142C75.7121 26.0312 75.6051 26.0473 75.5009 26.0625C75.3968 26.0758 75.3096 26.0871 75.2396 26.0966C75.0748 26.1174 74.9242 26.1525 74.7879 26.2017C74.6534 26.2509 74.5454 26.322 74.464 26.4148C74.3844 26.5057 74.3447 26.6269 74.3447 26.7784C74.3447 26.9886 74.4223 27.1477 74.5776 27.2557C74.7329 27.3617 74.9309 27.4148 75.1714 27.4148ZM78.0955 28V23.6364H78.9109V24.3466H78.9648C79.0558 24.1061 79.2044 23.9186 79.4109 23.7841C79.6173 23.6477 79.8645 23.5795 80.1523 23.5795C80.444 23.5795 80.6883 23.6477 80.8853 23.7841C81.0842 23.9205 81.2309 24.108 81.3256 24.3466H81.3711C81.4753 24.1136 81.641 23.928 81.8683 23.7898C82.0955 23.6496 82.3664 23.5795 82.6808 23.5795C83.0766 23.5795 83.3995 23.7036 83.6495 23.9517C83.9014 24.1998 84.0273 24.5739 84.0273 25.0739V28H83.1779V25.1534C83.1779 24.858 83.0974 24.6439 82.9364 24.5114C82.7754 24.3788 82.5832 24.3125 82.3597 24.3125C82.0832 24.3125 81.8683 24.3977 81.7148 24.5682C81.5614 24.7367 81.4847 24.9536 81.4847 25.2188V28H80.6381V25.0994C80.6381 24.8627 80.5643 24.6723 80.4165 24.5284C80.2688 24.3845 80.0766 24.3125 79.8398 24.3125C79.6789 24.3125 79.5302 24.3551 79.3938 24.4403C79.2594 24.5237 79.1504 24.6402 79.0671 24.7898C78.9857 24.9394 78.945 25.1127 78.945 25.3097V28H78.0955Z" fill="white"/>
</svg>
