<svg width="91" height="35" fill="none" xmlns="http://www.w3.org/2000/svg"><path d="M18 11.342V8.754c0-.939-.584-1.772-1.479-2.144L0 0v1.435l14.732 5.902a.585.585 0 0 1 0 1.098L0 14.337v5.76l8.872-3.563 5.842 2.34a.585.585 0 0 1 0 1.098L0 25.873V35l16.521-6.61A2.317 2.317 0 0 0 18 26.246v-5.937c0-.94-.584-1.772-1.479-2.144l-5.86-2.34 5.86-2.339A2.317 2.317 0 0 0 18 11.342Zm13.4-8.16a.78.78 0 0 0-.362-.587c-.212-.139-.473-.209-.78-.209-.226 0-.424.037-.592.11a.945.945 0 0 0-.393.3.721.721 0 0 0-.14.436.62.62 0 0 0 .098.35.86.86 0 0 0 .253.241c.103.063.21.115.323.157.113.04.216.072.31.097l.518.139c.132.035.28.083.442.144.164.061.321.145.47.251.151.105.275.239.373.403.098.164.147.365.147.604 0 .275-.072.524-.216.746a1.472 1.472 0 0 1-.627.53c-.273.13-.606.195-.997.195a2.33 2.33 0 0 1-.947-.176 1.508 1.508 0 0 1-.626-.492 1.404 1.404 0 0 1-.256-.734h.636a.796.796 0 0 0 .194.478c.114.124.258.217.432.278.176.06.365.09.567.09.236 0 .447-.038.634-.115.187-.078.336-.185.445-.323a.766.766 0 0 0 .164-.487.597.597 0 0 0-.142-.413 1.04 1.04 0 0 0-.372-.258 3.921 3.921 0 0 0-.5-.174l-.627-.18c-.397-.114-.712-.277-.944-.489-.232-.212-.348-.49-.348-.833 0-.285.077-.533.231-.745a1.54 1.54 0 0 1 .627-.498c.263-.119.557-.179.882-.179.328 0 .62.06.875.177.255.116.457.275.607.477.15.202.23.432.238.689h-.596Zm3.853 2.257V3.182h.587V7h-.587v-.646h-.04c-.09.194-.228.358-.417.494-.19.135-.428.202-.716.202-.239 0-.451-.052-.637-.157a1.096 1.096 0 0 1-.437-.477c-.106-.214-.16-.483-.16-.808V3.182h.587v2.386c0 .279.078.5.234.666a.794.794 0 0 0 .602.249.998.998 0 0 0 .445-.112.97.97 0 0 0 .382-.343c.105-.154.157-.35.157-.59Zm1.507 2.993v-5.25h.567v.606h.07c.043-.066.102-.15.178-.253a1.06 1.06 0 0 1 .334-.279c.145-.082.343-.124.591-.124.322 0 .605.08.85.241.246.161.437.389.575.684.137.295.206.643.206 1.044 0 .404-.069.755-.206 1.051a1.628 1.628 0 0 1-.572.686 1.496 1.496 0 0 1-.843.242c-.245 0-.441-.041-.589-.122a1.092 1.092 0 0 1-.34-.281 3.752 3.752 0 0 1-.184-.264h-.05v2.019h-.587Zm.577-3.341c0 .288.042.543.127.763.084.219.208.39.37.515a.962.962 0 0 0 .597.184c.245 0 .45-.065.614-.194.165-.131.29-.307.372-.527.085-.222.127-.47.127-.741 0-.269-.041-.51-.124-.726a1.122 1.122 0 0 0-.37-.515.978.978 0 0 0-.62-.19.98.98 0 0 0-.6.18 1.09 1.09 0 0 0-.369.503 2.063 2.063 0 0 0-.124.748Zm3.535 3.34v-5.25h.567v.607h.07c.042-.066.102-.15.178-.253a1.05 1.05 0 0 1 .333-.279c.146-.082.343-.124.592-.124.321 0 .605.08.85.241.245.161.437.389.574.684.138.295.206.643.206 1.044 0 .404-.068.755-.206 1.051a1.628 1.628 0 0 1-.572.686 1.49 1.49 0 0 1-.842.242c-.245 0-.442-.041-.59-.122a1.093 1.093 0 0 1-.34-.281 3.78 3.78 0 0 1-.184-.264h-.05v2.019h-.586Zm.577-3.34c0 .288.042.543.126.763.085.219.208.39.37.515a.961.961 0 0 0 .597.184c.245 0 .45-.065.614-.194.166-.131.29-.307.373-.527.085-.222.127-.47.127-.741 0-.269-.041-.51-.124-.726a1.122 1.122 0 0 0-.37-.515.978.978 0 0 0-.62-.19.983.983 0 0 0-.601.18 1.09 1.09 0 0 0-.368.503 2.063 2.063 0 0 0-.124.748Zm5.086 1.989c-.345 0-.648-.082-.908-.247a1.672 1.672 0 0 1-.606-.688 2.329 2.329 0 0 1-.217-1.034c0-.398.072-.745.217-1.042.146-.296.348-.527.606-.69.26-.165.563-.247.908-.247.344 0 .646.082.904.246.26.164.463.395.607.691.146.297.219.644.219 1.042 0 .394-.073.739-.22 1.034a1.648 1.648 0 0 1-.606.688c-.258.165-.56.247-.904.247Zm0-.527c.261 0 .477-.068.646-.202.169-.134.294-.31.375-.53.081-.218.122-.455.122-.71 0-.255-.04-.493-.122-.714a1.203 1.203 0 0 0-.375-.534c-.17-.136-.385-.204-.646-.204-.262 0-.478.068-.647.204a1.202 1.202 0 0 0-.375.534c-.081.22-.122.459-.122.714 0 .255.04.492.122.71.081.22.206.396.375.53.17.134.385.202.647.202ZM49.006 7V3.182h.567v.577h.04a.917.917 0 0 1 .378-.46c.182-.118.387-.177.616-.177a6.531 6.531 0 0 1 .308.01v.597a1.746 1.746 0 0 0-.136-.023 1.346 1.346 0 0 0-.222-.017 1.04 1.04 0 0 0-.497.117.858.858 0 0 0-.467.778V7h-.587Zm4.35-3.818v.497h-1.978v-.497h1.978Zm-1.401-.915h.586v3.64c0 .165.024.29.072.372.05.081.113.136.19.164.077.027.159.04.245.04.065 0 .118-.003.16-.01l.099-.02.12.527a1.226 1.226 0 0 1-.438.07 1.18 1.18 0 0 1-.488-.107.968.968 0 0 1-.392-.326.935.935 0 0 1-.154-.552V2.267Zm3.69 4.813c-.368 0-.686-.082-.952-.244a1.635 1.635 0 0 1-.614-.686 2.34 2.34 0 0 1-.214-1.03c0-.39.071-.735.214-1.033.144-.3.344-.534.601-.701.259-.17.56-.254.905-.254.199 0 .395.033.59.1.193.066.37.174.529.323.159.147.286.343.38.586.094.244.142.544.142.9v.249h-2.944v-.507h2.347c0-.216-.043-.408-.13-.577a.974.974 0 0 0-.914-.547c-.234 0-.436.058-.606.174-.17.114-.3.264-.39.448a1.314 1.314 0 0 0-.137.591v.338c0 .289.05.533.149.734.1.198.24.35.42.454.179.103.387.155.624.155.154 0 .293-.022.417-.065a.894.894 0 0 0 .326-.199c.091-.09.162-.2.211-.333l.567.16c-.06.191-.16.36-.3.506a1.481 1.481 0 0 1-.523.338c-.207.08-.44.12-.698.12Zm3.76 0c-.317 0-.598-.08-.842-.242a1.628 1.628 0 0 1-.572-.686c-.137-.296-.206-.647-.206-1.051 0-.401.069-.75.207-1.044.137-.295.328-.523.574-.684.245-.16.528-.24.85-.24.248 0 .445.04.589.123.146.082.257.174.333.279.078.103.138.187.181.253h.05V1.91h.587V7h-.567v-.587h-.07a3.78 3.78 0 0 1-.183.264c-.08.104-.194.198-.341.28-.148.082-.344.123-.59.123Zm.08-.527a.962.962 0 0 0 .597-.184c.162-.125.286-.296.37-.515.085-.22.127-.475.127-.763 0-.285-.041-.535-.124-.748a1.09 1.09 0 0 0-.368-.502.979.979 0 0 0-.602-.182.988.988 0 0 0-.621.192 1.145 1.145 0 0 0-.37.514 2.046 2.046 0 0 0-.122.726c0 .272.041.519.124.74.085.221.209.397.373.528a.973.973 0 0 0 .616.194ZM64.052 7V1.91h.587v1.878h.05c.043-.066.102-.15.178-.253a1.06 1.06 0 0 1 .334-.279c.145-.082.343-.124.591-.124.322 0 .605.08.85.241.246.161.437.389.575.684.137.295.206.643.206 1.044 0 .404-.069.755-.207 1.051a1.628 1.628 0 0 1-.571.686 1.496 1.496 0 0 1-.843.242c-.245 0-.442-.041-.59-.122a1.091 1.091 0 0 1-.34-.281 3.752 3.752 0 0 1-.184-.264h-.07V7h-.566Zm.577-1.91c0 .29.042.544.126.764.085.219.209.39.37.515a.962.962 0 0 0 .597.184c.246 0 .45-.065.615-.194.165-.131.29-.307.372-.527.085-.222.127-.47.127-.741 0-.269-.041-.51-.124-.726a1.122 1.122 0 0 0-.37-.515.978.978 0 0 0-.62-.19.983.983 0 0 0-.601.18c-.162.12-.285.287-.368.503a2.063 2.063 0 0 0-.124.748Zm3.778 3.342a1.286 1.286 0 0 1-.427-.07l.149-.517c.142.037.268.05.378.04a.453.453 0 0 0 .29-.147c.087-.086.166-.226.237-.42l.11-.298-1.413-3.838h.637l1.053 3.042h.04l1.054-3.042h.637L69.53 7.557c-.073.197-.163.36-.271.49-.108.13-.233.227-.375.29-.141.063-.3.095-.478.095ZM29.517 19l-1.284-4.364h.878l.855 3.205h.043l.857-3.205h.878l.853 3.19h.042l.85-3.19h.878L33.085 19h-.866l-.887-3.15h-.065L30.381 19h-.864Zm7.228.088c-.43 0-.8-.092-1.111-.276a1.869 1.869 0 0 1-.716-.78c-.167-.338-.25-.733-.25-1.185 0-.447.083-.841.25-1.182.168-.341.403-.607.704-.798a1.948 1.948 0 0 1 1.063-.288c.246 0 .485.041.716.123.23.081.438.209.622.383.184.174.328.4.434.68.107.276.16.612.16 1.008v.3h-3.47v-.636h2.637c0-.223-.045-.42-.136-.593a1.03 1.03 0 0 0-.958-.563c-.238 0-.447.059-.624.176a1.181 1.181 0 0 0-.41.455 1.312 1.312 0 0 0-.142.605v.497c0 .292.051.54.154.745.104.204.249.36.434.468.186.106.403.16.651.16.161 0 .308-.023.44-.069a.914.914 0 0 0 .565-.554l.805.145c-.065.237-.18.444-.347.622a1.678 1.678 0 0 1-.622.412 2.328 2.328 0 0 1-.85.145ZM39.45 19v-5.818h.85v2.162h.05c.05-.091.121-.196.214-.316.093-.119.221-.223.386-.312.165-.091.383-.136.654-.136.352 0 .666.089.943.267.276.178.493.434.65.77.16.335.24.738.24 1.21 0 .471-.08.876-.237 1.213a1.839 1.839 0 0 1-.648.775c-.274.18-.587.27-.94.27-.265 0-.482-.044-.65-.133a1.232 1.232 0 0 1-.392-.313 2.371 2.371 0 0 1-.22-.318h-.07V19h-.83Zm.833-2.182c0 .307.044.576.133.807.09.231.218.412.386.543a.99.99 0 0 0 .62.193.995.995 0 0 0 .636-.202c.17-.136.3-.32.387-.554a2.19 2.19 0 0 0 .133-.787 2.17 2.17 0 0 0-.13-.775 1.187 1.187 0 0 0-.387-.543 1.01 1.01 0 0 0-.64-.199c-.245 0-.454.064-.624.19a1.17 1.17 0 0 0-.384.532c-.087.227-.13.492-.13.795Zm5.945 2.261a2.58 2.58 0 0 1-1.045-.201 1.774 1.774 0 0 1-.725-.56 1.486 1.486 0 0 1-.284-.835h.892c.011.172.07.322.173.449.106.125.245.221.415.29.17.068.36.102.568.102.23 0 .432-.04.608-.12a.994.994 0 0 0 .418-.332.85.85 0 0 0 .15-.497.893.893 0 0 0-.15-.514.98.98 0 0 0-.435-.352 1.669 1.669 0 0 0-.687-.128h-.492v-.716h.492c.216 0 .405-.04.568-.117a.931.931 0 0 0 .386-.324.87.87 0 0 0 .14-.491.875.875 0 0 0-.123-.469.82.82 0 0 0-.34-.315 1.107 1.107 0 0 0-.518-.114c-.189 0-.366.035-.53.105a.98.98 0 0 0-.398.296.76.76 0 0 0-.165.457h-.85c.01-.314.103-.59.279-.83a1.8 1.8 0 0 1 .704-.559c.292-.135.616-.202.972-.202.373 0 .695.073.966.219.272.144.483.336.63.577.15.24.224.504.222.79.002.325-.089.602-.273.829-.181.227-.424.38-.727.457v.046c.386.059.686.212.898.46.214.248.32.556.318.923.002.32-.087.607-.267.861a1.818 1.818 0 0 1-.73.6 2.48 2.48 0 0 1-1.06.215Zm6.984-4.443v.682h-2.466v-.682h2.466ZM51.423 19v-4.87c0-.272.06-.498.18-.678.119-.182.277-.318.474-.406a1.51 1.51 0 0 1 .642-.137c.17 0 .316.014.437.043.121.026.211.05.27.074l-.199.687a3.858 3.858 0 0 0-.153-.04.871.871 0 0 0-.227-.025c-.207 0-.355.05-.444.153-.087.102-.13.25-.13.443V19h-.85Zm4.157.088c-.41 0-.766-.094-1.071-.281a1.897 1.897 0 0 1-.71-.787c-.17-.337-.253-.731-.253-1.182 0-.453.084-.848.252-1.187.169-.34.406-.603.71-.79a2.004 2.004 0 0 1 1.072-.282c.409 0 .766.094 1.07.282.306.187.542.45.71.79.17.339.254.734.254 1.187 0 .45-.084.845-.253 1.182-.169.337-.405.6-.71.787a2.003 2.003 0 0 1-1.071.281Zm.003-.713c.265 0 .484-.07.659-.21a1.23 1.23 0 0 0 .386-.56c.085-.233.128-.49.128-.77 0-.278-.043-.534-.128-.767a1.25 1.25 0 0 0-.386-.565 1.01 1.01 0 0 0-.66-.213c-.267 0-.488.07-.664.213a1.27 1.27 0 0 0-.39.565 2.263 2.263 0 0 0-.124.767c0 .28.041.537.124.77.086.233.215.42.39.56.176.14.397.21.665.21Zm5.567-1.185v-2.554h.852V19h-.835v-.756h-.045c-.1.233-.262.427-.483.583-.22.153-.494.23-.821.23-.28 0-.529-.062-.745-.185a1.298 1.298 0 0 1-.505-.554c-.121-.244-.182-.546-.182-.906v-2.776h.85v2.674c0 .297.082.534.247.71a.84.84 0 0 0 .642.264 1.043 1.043 0 0 0 .869-.48c.106-.161.158-.366.156-.614Zm2.667-.78V19h-.85v-4.364h.816v.71h.054c.1-.23.258-.416.472-.556.216-.14.487-.21.815-.21.297 0 .558.062.781.187.224.123.397.307.52.551.123.245.185.547.185.906V19h-.85v-2.673c0-.317-.082-.564-.247-.742-.165-.18-.39-.27-.679-.27-.197 0-.372.043-.525.128a.92.92 0 0 0-.361.375 1.24 1.24 0 0 0-.13.591Zm5.39 2.675a1.69 1.69 0 0 1-.944-.27 1.84 1.84 0 0 1-.647-.775c-.156-.337-.233-.742-.233-1.213 0-.472.078-.875.235-1.21a1.81 1.81 0 0 1 .654-.77 1.7 1.7 0 0 1 .94-.268c.271 0 .489.046.654.137.166.089.295.193.386.312.093.12.165.225.216.316h.051v-2.162h.85V19h-.83v-.679h-.071a2.25 2.25 0 0 1-.222.318c-.094.12-.225.224-.392.313-.166.089-.382.133-.647.133Zm.187-.724a.99.99 0 0 0 .62-.193 1.2 1.2 0 0 0 .386-.543c.089-.231.133-.5.133-.807 0-.303-.043-.568-.13-.795a1.17 1.17 0 0 0-.384-.531 1.01 1.01 0 0 0-.625-.19 1.01 1.01 0 0 0-.64.198c-.17.133-.299.313-.386.543a2.214 2.214 0 0 0-.127.775c0 .292.043.554.13.787.087.233.216.418.387.554a.998.998 0 0 0 .636.202Zm4.28.736a1.78 1.78 0 0 1-.75-.154 1.264 1.264 0 0 1-.53-.452 1.296 1.296 0 0 1-.194-.724c0-.246.048-.449.142-.608.095-.159.223-.285.384-.378.16-.093.34-.163.54-.21a5.37 5.37 0 0 1 .608-.108l.636-.074a.935.935 0 0 0 .355-.1c.074-.045.11-.119.11-.22v-.02c0-.249-.07-.441-.21-.577-.138-.137-.344-.205-.619-.205-.286 0-.511.064-.676.19a1.018 1.018 0 0 0-.338.418l-.798-.182c.094-.265.233-.479.415-.642a1.67 1.67 0 0 1 .633-.358 2.47 2.47 0 0 1 1.307-.051c.197.04.38.114.551.222.172.108.313.262.423.463.11.199.165.457.165.775V19h-.83v-.597h-.034c-.055.11-.137.218-.247.324-.11.106-.25.194-.423.264-.172.07-.379.106-.62.106Zm.185-.682c.235 0 .436-.047.603-.14a.974.974 0 0 0 .383-.363.943.943 0 0 0 .134-.486v-.562a.444.444 0 0 1-.177.085 2.736 2.736 0 0 1-.292.065l-.321.049-.261.034a2.01 2.01 0 0 0-.452.105.776.776 0 0 0-.324.213.533.533 0 0 0-.12.363c0 .21.078.37.234.478.155.106.353.159.593.159Zm4.961-3.779v.682h-2.383v-.682h2.383Zm-1.744-1.045h.85v4.128c0 .165.024.289.073.372.05.081.113.137.19.168.08.028.166.042.26.042a.99.99 0 0 0 .178-.014l.12-.023.153.702a1.659 1.659 0 0 1-.551.09 1.496 1.496 0 0 1-.625-.119 1.071 1.071 0 0 1-.469-.386c-.12-.174-.179-.393-.179-.656V13.59ZM79.584 19v-4.364h.85V19h-.85Zm.429-5.037a.54.54 0 0 1-.38-.148.48.48 0 0 1-.157-.358c0-.14.052-.26.156-.358.106-.1.233-.15.381-.15s.274.05.378.15a.47.47 0 0 1 .159.358.476.476 0 0 1-.16.358.53.53 0 0 1-.377.148Zm3.225 5.125c-.409 0-.766-.094-1.07-.281a1.896 1.896 0 0 1-.711-.787c-.168-.337-.253-.731-.253-1.182 0-.453.085-.848.253-1.187.169-.34.405-.603.71-.79a2.003 2.003 0 0 1 1.071-.282c.41 0 .766.094 1.071.282.305.187.542.45.71.79.17.339.253.734.253 1.187 0 .45-.084.845-.253 1.182a1.89 1.89 0 0 1-.71.787 2.003 2.003 0 0 1-1.07.281Zm.003-.713c.265 0 .485-.07.66-.21.174-.14.302-.327.386-.56.085-.233.127-.49.127-.77 0-.278-.042-.534-.127-.767a1.25 1.25 0 0 0-.387-.565 1.01 1.01 0 0 0-.659-.213c-.267 0-.489.07-.665.213a1.27 1.27 0 0 0-.389.565 2.263 2.263 0 0 0-.125.767c0 .28.042.537.125.77.085.233.215.42.39.56.175.14.397.21.664.21Zm3.653-1.966V19h-.85v-4.364h.816v.71h.054c.1-.23.257-.416.471-.556.216-.14.488-.21.816-.21.297 0 .558.062.781.187.224.123.397.307.52.551.123.245.185.547.185.906V19h-.85v-2.673c0-.317-.082-.564-.247-.742-.165-.18-.391-.27-.679-.27a1.07 1.07 0 0 0-.526.128.92.92 0 0 0-.36.375c-.088.163-.131.36-.131.591ZM30.401 29.727a2.62 2.62 0 0 1-.895-.136 1.734 1.734 0 0 1-.608-.36 1.513 1.513 0 0 1-.352-.492l.73-.302c.05.084.119.172.204.265.087.094.205.175.352.241.15.066.342.1.577.1.322 0 .588-.079.798-.236.21-.155.316-.404.316-.744v-.858h-.054a1.938 1.938 0 0 1-.222.31 1.2 1.2 0 0 1-.392.295c-.167.083-.383.125-.65.125-.345 0-.656-.08-.932-.242a1.714 1.714 0 0 1-.654-.719c-.159-.318-.238-.709-.238-1.173 0-.464.078-.862.235-1.193.16-.332.377-.585.654-.761a1.7 1.7 0 0 1 .94-.268c.271 0 .49.046.656.137.167.089.297.193.39.312.094.12.167.225.218.316h.063v-.708h.832v4.46c0 .376-.087.683-.261.924-.174.24-.41.418-.707.534a2.729 2.729 0 0 1-1 .173Zm-.009-2.497c.244 0 .45-.057.62-.17.17-.116.299-.28.386-.495a2.03 2.03 0 0 0 .133-.775c0-.294-.043-.552-.13-.776a1.153 1.153 0 0 0-.384-.523 1.01 1.01 0 0 0-.625-.19 1.01 1.01 0 0 0-.64.199 1.2 1.2 0 0 0-.386.534 2.123 2.123 0 0 0-.127.756c0 .286.043.537.13.753.087.216.216.384.387.505.172.122.384.182.636.182Zm2.94.77v-4.364h.822v.694h.045c.08-.235.22-.42.42-.554a1.2 1.2 0 0 1 .688-.205 3.621 3.621 0 0 1 .36.02v.812a1.5 1.5 0 0 0-.181-.03 1.729 1.729 0 0 0-.261-.02c-.201 0-.38.042-.537.127a.95.95 0 0 0-.506.855V28h-.85Zm4.126.097a1.78 1.78 0 0 1-.75-.154 1.264 1.264 0 0 1-.532-.452 1.296 1.296 0 0 1-.193-.724c0-.246.048-.449.142-.608.095-.159.223-.285.384-.378.16-.093.34-.163.54-.21a5.37 5.37 0 0 1 .608-.108l.636-.074a.935.935 0 0 0 .355-.1c.074-.045.11-.119.11-.22v-.02c0-.249-.07-.441-.21-.577-.138-.137-.344-.205-.619-.205-.286 0-.511.064-.676.19a1.018 1.018 0 0 0-.338.418l-.798-.182c.094-.265.233-.479.415-.642a1.67 1.67 0 0 1 .633-.358 2.47 2.47 0 0 1 1.307-.051c.197.04.38.114.551.222.172.108.313.262.423.463.11.199.165.457.165.775V28h-.83v-.597h-.034c-.054.11-.137.218-.247.324-.11.106-.25.194-.423.264-.172.07-.379.106-.62.106Zm.184-.682c.235 0 .436-.047.603-.14a.974.974 0 0 0 .383-.363.943.943 0 0 0 .134-.486v-.562a.444.444 0 0 1-.176.085 2.736 2.736 0 0 1-.293.065l-.321.049-.261.034a2.01 2.01 0 0 0-.452.105.776.776 0 0 0-.324.213.533.533 0 0 0-.12.363c0 .21.078.37.234.478.155.106.353.159.593.159Zm3.774-2.006V28h-.85v-4.364h.816v.71h.054c.1-.23.257-.416.471-.556.216-.14.488-.21.816-.21.297 0 .558.062.781.187.223.123.397.307.52.551.123.244.184.547.184.906V28h-.849v-2.673c0-.317-.082-.564-.247-.742-.165-.18-.391-.27-.68-.27-.196 0-.371.043-.525.128a.92.92 0 0 0-.36.375 1.24 1.24 0 0 0-.131.591Zm5.793-1.773v.682h-2.384v-.682h2.384Zm-1.745-1.045h.85v4.128c0 .165.024.289.074.372a.389.389 0 0 0 .19.168c.08.028.166.042.258.042a.991.991 0 0 0 .18-.014l.119-.023.153.702a1.66 1.66 0 0 1-.551.09 1.496 1.496 0 0 1-.625-.119 1.071 1.071 0 0 1-.469-.386c-.119-.174-.179-.393-.179-.656V22.59Zm5.708 2.11-.77.137a.913.913 0 0 0-.153-.281.759.759 0 0 0-.279-.219 1.007 1.007 0 0 0-.44-.085c-.24 0-.441.054-.602.162-.161.106-.242.243-.242.412 0 .145.054.263.162.352.108.089.282.162.523.219l.693.159c.401.093.7.236.898.429.197.193.295.444.295.753 0 .261-.076.494-.227.698a1.5 1.5 0 0 1-.628.478 2.323 2.323 0 0 1-.929.173c-.489 0-.887-.104-1.196-.312a1.321 1.321 0 0 1-.568-.895l.82-.125a.786.786 0 0 0 .316.485c.16.108.367.162.622.162.279 0 .501-.057.668-.173.167-.117.25-.26.25-.429a.446.446 0 0 0-.154-.344c-.1-.092-.254-.163-.463-.21l-.738-.162c-.407-.093-.709-.24-.904-.443a1.07 1.07 0 0 1-.29-.77c0-.257.073-.483.217-.676.144-.193.342-.344.596-.452.254-.11.545-.165.872-.165.472 0 .843.103 1.114.307.27.203.45.475.537.816Zm2.784 4.935v-6h.83v.708h.07c.05-.091.121-.196.214-.316.093-.119.221-.223.386-.312.165-.091.383-.137.654-.137.352 0 .666.09.943.268.276.178.493.434.65.77.16.335.239.738.239 1.21 0 .471-.079.876-.236 1.213a1.84 1.84 0 0 1-.648.775c-.274.18-.588.27-.94.27-.265 0-.482-.044-.65-.133a1.231 1.231 0 0 1-.393-.313 2.36 2.36 0 0 1-.218-.318h-.051v2.315h-.85Zm.833-3.818c0 .307.044.576.133.807.09.231.218.412.387.543a.99.99 0 0 0 .619.193.996.996 0 0 0 .636-.202c.17-.136.3-.32.386-.554.09-.233.134-.495.134-.787a2.17 2.17 0 0 0-.13-.775 1.187 1.187 0 0 0-.387-.543 1.01 1.01 0 0 0-.64-.199c-.245 0-.454.064-.624.19a1.168 1.168 0 0 0-.384.532c-.087.227-.13.492-.13.795ZM58.718 28v-4.364h.82v.694h.046c.08-.235.22-.42.42-.554.203-.137.433-.205.688-.205a3.615 3.615 0 0 1 .36.02v.812a1.507 1.507 0 0 0-.18-.03 1.729 1.729 0 0 0-.262-.02c-.201 0-.38.042-.537.127a.95.95 0 0 0-.506.855V28h-.85Zm4.576.088c-.41 0-.766-.094-1.071-.281a1.897 1.897 0 0 1-.71-.787c-.169-.337-.253-.731-.253-1.182 0-.453.084-.848.253-1.187a1.88 1.88 0 0 1 .71-.79 2.003 2.003 0 0 1 1.07-.282 2 2 0 0 1 1.072.282c.305.187.541.45.71.79.169.339.253.734.253 1.187 0 .45-.084.845-.253 1.182-.169.337-.405.6-.71.787a2.004 2.004 0 0 1-1.071.281Zm.003-.713c.265 0 .485-.07.659-.21a1.23 1.23 0 0 0 .386-.56c.085-.233.128-.49.128-.77 0-.278-.043-.534-.128-.767a1.25 1.25 0 0 0-.386-.565 1.01 1.01 0 0 0-.66-.213c-.266 0-.488.07-.664.213a1.27 1.27 0 0 0-.39.565 2.263 2.263 0 0 0-.124.767c0 .28.041.537.125.77.085.233.215.42.389.56.176.14.398.21.665.21Zm4.633 2.352a2.62 2.62 0 0 1-.895-.136 1.733 1.733 0 0 1-.608-.36 1.515 1.515 0 0 1-.353-.492l.73-.302c.052.084.12.172.205.265.087.094.205.175.353.241.15.066.341.1.576.1.322 0 .588-.079.799-.236.21-.155.315-.404.315-.744v-.858h-.054a1.932 1.932 0 0 1-.222.31 1.2 1.2 0 0 1-.392.295c-.166.083-.383.125-.65.125-.345 0-.656-.08-.932-.242a1.714 1.714 0 0 1-.654-.719c-.159-.318-.238-.709-.238-1.173 0-.464.078-.862.236-1.193.159-.332.376-.585.653-.761a1.7 1.7 0 0 1 .94-.268c.271 0 .49.046.656.137.167.089.297.193.39.312.094.12.167.225.219.316h.062v-.708h.832v4.46c0 .376-.087.683-.261.924-.174.24-.41.418-.707.534a2.728 2.728 0 0 1-1 .173Zm-.009-2.497c.244 0 .45-.057.62-.17.17-.116.299-.28.386-.495a2.03 2.03 0 0 0 .133-.775c0-.294-.043-.552-.13-.776a1.152 1.152 0 0 0-.384-.523 1.01 1.01 0 0 0-.625-.19 1.01 1.01 0 0 0-.64.199 1.2 1.2 0 0 0-.386.534 2.123 2.123 0 0 0-.127.756c0 .286.043.537.13.753.088.216.216.384.387.505.172.122.384.182.636.182Zm2.94.77v-4.364h.822v.694h.045c.08-.235.22-.42.42-.554a1.2 1.2 0 0 1 .688-.205 3.621 3.621 0 0 1 .36.02v.812a1.507 1.507 0 0 0-.181-.03 1.729 1.729 0 0 0-.261-.02c-.201 0-.38.042-.537.127a.95.95 0 0 0-.506.855V28h-.85Zm4.126.097c-.277 0-.527-.052-.75-.154a1.264 1.264 0 0 1-.531-.452 1.296 1.296 0 0 1-.194-.724c0-.246.048-.449.142-.608a1.05 1.05 0 0 1 .384-.378c.16-.093.34-.163.54-.21.198-.047.401-.083.608-.108l.636-.074a.936.936 0 0 0 .355-.1c.074-.045.11-.119.11-.22v-.02c0-.249-.07-.441-.21-.577-.138-.137-.344-.205-.619-.205-.286 0-.511.064-.676.19a1.018 1.018 0 0 0-.338.418l-.798-.182c.094-.265.233-.479.415-.642a1.67 1.67 0 0 1 .633-.358 2.47 2.47 0 0 1 1.307-.051c.197.04.38.114.551.222.172.108.313.262.423.463.11.199.165.457.165.775V28h-.83v-.597h-.034c-.054.11-.137.218-.247.324-.11.106-.25.194-.423.264-.172.07-.379.106-.62.106Zm.184-.682c.235 0 .436-.047.603-.14a.975.975 0 0 0 .383-.363.943.943 0 0 0 .134-.486v-.562a.444.444 0 0 1-.176.085 2.739 2.739 0 0 1-.293.065l-.321.049-.261.034a2.01 2.01 0 0 0-.452.105.775.775 0 0 0-.324.213.532.532 0 0 0-.12.363c0 .21.078.37.234.478.155.106.353.159.593.159Zm2.924.585v-4.364h.816v.71h.054c.09-.24.24-.427.446-.562.206-.136.454-.204.741-.204.292 0 .536.068.733.204a1.2 1.2 0 0 1 .44.563h.046c.104-.233.27-.419.497-.557.228-.14.498-.21.813-.21.396 0 .719.124.969.372.251.248.377.622.377 1.122V28h-.85v-2.847c0-.295-.08-.51-.24-.642a.878.878 0 0 0-.577-.198c-.277 0-.492.085-.645.255-.154.169-.23.386-.23.65V28h-.847v-2.9a.76.76 0 0 0-.222-.572.791.791 0 0 0-.576-.215.826.826 0 0 0-.446.127.94.94 0 0 0-.327.35 1.07 1.07 0 0 0-.122.52V28h-.85Z" fill="#fff"/></svg>