<svg width="205" height="205" viewBox="0 0 205 205" fill="none" xmlns="http://www.w3.org/2000/svg">
<path d="M106.028 100.89C106.075 101.204 105.926 101.273 105.874 101.654C105.8 102.201 106.073 102.342 105.908 102.734C105.709 103.117 105.752 103.132 105.911 103.508C106.004 104.172 104.815 105.669 104.238 105.494C103.971 105.373 103.865 105.375 103.548 105.505C103.364 105.555 103.279 105.522 103.114 105.531C102.863 105.544 102.845 105.637 102.455 105.767C102.099 105.884 102.108 105.81 101.791 105.92C101.407 106.054 101.296 106.199 101.151 106.135C101.012 106.074 101.073 105.927 100.906 105.743C100.676 105.49 100.429 105.626 100.242 105.384C100.131 105.239 100.196 105.157 100.034 104.91C99.9361 104.759 99.8298 104.666 99.8103 104.648C99.524 104.399 99.3352 104.497 99.1682 104.309C99.064 104.19 99.1356 104.146 99.0163 103.688C98.9079 103.268 98.8276 103.229 98.8558 103.043C98.8905 102.796 99.0424 102.781 99.0706 102.548C99.1053 102.264 98.8948 102.191 98.8775 101.929C98.8514 101.526 99.3331 101.487 99.5348 100.921C99.7084 100.43 99.5044 100.016 99.7756 99.8346C99.8103 99.8129 99.8125 99.8173 100.064 99.6831C100.342 99.536 100.372 99.5101 100.4 99.4733C100.524 99.3153 100.452 99.1704 100.554 99.112C100.661 99.0492 100.769 99.1942 100.932 99.192C101.223 99.1855 101.281 98.7053 101.594 98.4867C102.837 98.0108 103.661 99.0601 104.605 100.103C105.195 100.914 105.872 99.88 106.028 100.89Z" stroke="url(#paint0_linear_178_518)" stroke-miterlimit="10"/>
<path d="M106.405 101.037C106.433 101.377 106.266 101.442 106.182 101.844C106.06 102.426 106.342 102.599 106.138 103.004C105.895 103.4 105.941 103.419 106.082 103.835C106.132 104.553 104.743 106.072 104.138 105.84C103.86 105.691 103.748 105.685 103.398 105.801C103.197 105.842 103.108 105.799 102.93 105.797C102.659 105.793 102.633 105.89 102.205 106C101.815 106.1 101.83 106.02 101.483 106.115C101.06 106.23 100.932 106.377 100.78 106.297C100.635 106.221 100.711 106.067 100.546 105.858C100.318 105.568 100.042 105.698 99.8623 105.423C99.7538 105.258 99.8297 105.176 99.6757 104.897C99.5803 104.728 99.4761 104.62 99.4545 104.601C99.1659 104.313 98.9555 104.404 98.7928 104.19C98.6887 104.055 98.7689 104.012 98.6756 103.512C98.591 103.054 98.5086 103.006 98.552 102.809C98.6084 102.548 98.7711 102.541 98.8188 102.294C98.8774 101.994 98.6561 101.899 98.6583 101.617C98.6605 101.185 99.1811 101.178 99.4393 100.585C99.6627 100.07 99.474 99.6117 99.7777 99.4387C99.8167 99.417 99.8189 99.4235 100.099 99.298C100.409 99.1596 100.442 99.1336 100.476 99.099C100.622 98.9389 100.556 98.7788 100.669 98.7226C100.789 98.6642 100.895 98.8264 101.068 98.8351C101.381 98.8502 101.481 98.3396 101.832 98.1276C103.201 97.7101 104.008 98.8978 104.941 100.086C105.509 101.001 106.312 99.9428 106.405 101.037Z" stroke="url(#paint1_linear_178_518)" stroke-miterlimit="10"/>
<path d="M106.8 101.221C106.804 101.587 106.62 101.645 106.5 102.072C106.327 102.688 106.617 102.892 106.366 103.313C106.077 103.72 106.123 103.744 106.244 104.2C106.244 104.975 104.641 106.5 104.008 106.206C103.721 106.024 103.6 106.009 103.216 106.109C102.997 106.137 102.903 106.085 102.715 106.067C102.424 106.044 102.389 106.145 101.921 106.23C101.493 106.308 101.517 106.223 101.138 106.299C100.676 106.392 100.528 106.537 100.37 106.442C100.22 106.349 100.313 106.191 100.153 105.955C99.9293 105.628 99.6234 105.745 99.452 105.438C99.3479 105.254 99.4368 105.17 99.2915 104.86C99.2025 104.672 99.0984 104.549 99.0767 104.525C98.7904 104.194 98.5561 104.276 98.3977 104.034C98.2957 103.882 98.3847 103.843 98.3239 103.298C98.2675 102.801 98.1829 102.744 98.2437 102.535C98.3239 102.258 98.4997 102.264 98.5691 102.002C98.6537 101.684 98.4259 101.565 98.4476 101.262C98.4823 100.799 99.042 100.832 99.3631 100.213C99.6408 99.6788 99.4737 99.1725 99.8121 99.0081C99.8555 98.9887 99.8577 98.9951 100.168 98.8826C100.511 98.7572 100.55 98.7334 100.587 98.6966C100.754 98.5365 100.695 98.3569 100.821 98.3072C100.953 98.2531 101.055 98.437 101.24 98.4586C101.574 98.4997 101.719 97.9588 102.112 97.7576C103.613 97.4115 104.387 98.7463 105.298 100.092C105.841 101.115 106.782 100.042 106.8 101.221Z" stroke="url(#paint2_linear_178_518)" stroke-miterlimit="10"/>
<path d="M107.208 101.451C107.184 101.844 106.984 101.892 106.821 102.34C106.589 102.987 106.884 103.229 106.585 103.662C106.244 104.075 106.292 104.105 106.388 104.603C106.329 105.434 104.496 106.95 103.838 106.587C103.546 106.37 103.415 106.344 102.997 106.422C102.76 106.437 102.665 106.373 102.463 106.342C102.155 106.295 102.107 106.401 101.6 106.457C101.135 106.509 101.168 106.42 100.754 106.472C100.25 106.537 100.081 106.682 99.9206 106.567C99.7666 106.457 99.8794 106.295 99.7232 106.029C99.5084 105.661 99.1722 105.762 99.0095 105.421C98.9118 105.215 99.0116 105.133 98.8793 104.789C98.799 104.579 98.6949 104.441 98.6754 104.412C98.3934 104.036 98.1352 104.105 97.9833 103.835C97.8857 103.664 97.9855 103.629 97.9595 103.041C97.9356 102.504 97.8488 102.435 97.9313 102.217C98.0376 101.927 98.2263 101.946 98.3196 101.669C98.4346 101.334 98.1981 101.189 98.2458 100.867C98.3174 100.371 98.9162 100.449 99.3067 99.8086C99.6451 99.2569 99.5041 98.7009 99.8794 98.5495C99.9271 98.53 99.9293 98.5386 100.27 98.4413C100.647 98.3331 100.691 98.3093 100.734 98.2725C100.925 98.1124 100.877 97.9177 101.016 97.8723C101.161 97.8247 101.257 98.0281 101.454 98.0648C101.81 98.1319 102.005 97.5651 102.441 97.3769C104.077 97.1194 104.808 98.6079 105.685 100.118C106.188 101.265 107.277 100.183 107.208 101.451Z" stroke="url(#paint3_linear_178_518)" stroke-miterlimit="10"/>
<path d="M107.629 101.728C107.574 102.147 107.355 102.184 107.149 102.651C106.85 103.329 107.149 103.61 106.796 104.051C106.399 104.469 106.448 104.505 106.514 105.046C106.388 105.933 104.307 107.422 103.628 106.985C103.331 106.732 103.192 106.695 102.739 106.745C102.485 106.742 102.385 106.667 102.173 106.617C101.845 106.543 101.787 106.654 101.238 106.678C100.737 106.697 100.778 106.604 100.329 106.63C99.7842 106.66 99.5911 106.805 99.4262 106.669C99.27 106.539 99.4024 106.373 99.2549 106.076C99.0531 105.665 98.6843 105.749 98.5346 105.371C98.4457 105.142 98.5585 105.061 98.4435 104.685C98.3719 104.456 98.2721 104.298 98.2526 104.268C97.9771 103.843 97.6972 103.898 97.5541 103.597C97.463 103.406 97.5714 103.376 97.5888 102.744C97.604 102.167 97.5172 102.087 97.6192 101.857C97.7558 101.552 97.9554 101.589 98.0769 101.299C98.2266 100.949 97.9836 100.776 98.0574 100.434C98.1723 99.9081 98.808 100.036 99.2744 99.3803C99.6801 98.8134 99.5694 98.2055 99.9838 98.0735C100.036 98.0562 100.038 98.067 100.411 97.987C100.823 97.8983 100.871 97.8767 100.921 97.8399C101.138 97.6841 101.101 97.4699 101.253 97.431C101.413 97.3899 101.5 97.6171 101.708 97.6711C102.086 97.7707 102.338 97.1757 102.819 97.007C104.594 96.8534 105.264 98.5041 106.093 100.192C106.548 101.451 107.8 100.373 107.629 101.728Z" stroke="url(#paint4_linear_178_518)" stroke-miterlimit="10"/>
<path d="M108.06 102.054C107.969 102.502 107.733 102.522 107.475 103.01C107.104 103.714 107.403 104.038 106.989 104.486C106.531 104.906 106.581 104.947 106.611 105.533C106.41 106.474 104.067 107.917 103.372 107.396C103.071 107.102 102.928 107.052 102.435 107.073C102.162 107.052 102.062 106.963 101.837 106.894C101.489 106.79 101.42 106.905 100.83 106.887C100.29 106.872 100.342 106.775 99.8581 106.768C99.2723 106.762 99.0532 106.903 98.8883 106.742C98.73 106.591 98.884 106.422 98.7495 106.093C98.5629 105.637 98.1616 105.702 98.0314 105.284C97.9533 105.033 98.0813 104.955 97.9859 104.54C97.9273 104.287 97.8319 104.112 97.8123 104.077C97.5498 103.601 97.244 103.64 97.1138 103.305C97.0314 103.093 97.1485 103.069 97.2136 102.392C97.2743 101.773 97.1854 101.682 97.3134 101.442C97.4826 101.126 97.693 101.178 97.847 100.877C98.0336 100.512 97.7863 100.308 97.8904 99.9471C98.0531 99.391 98.7256 99.5749 99.2767 98.9064C99.7539 98.3288 99.6823 97.6689 100.136 97.5564C100.192 97.5435 100.194 97.5521 100.602 97.4959C101.051 97.4331 101.103 97.4115 101.16 97.3769C101.405 97.2254 101.381 96.9939 101.546 96.9637C101.719 96.9312 101.795 97.18 102.017 97.2557C102.414 97.3899 102.728 96.7711 103.257 96.6262C105.171 96.5937 105.767 98.4153 106.529 100.287C106.922 101.678 108.345 100.616 108.06 102.054Z" stroke="url(#paint5_linear_178_518)" stroke-miterlimit="10"/>
<path d="M108.496 102.437C108.366 102.909 108.11 102.915 107.798 103.419C107.346 104.146 107.644 104.516 107.166 104.966C106.644 105.382 106.696 105.429 106.683 106.061C106.396 107.056 103.773 108.428 103.066 107.818C102.767 107.48 102.615 107.415 102.086 107.4C101.795 107.357 101.695 107.255 101.457 107.164C101.092 107.026 101.01 107.145 100.376 107.082C99.7992 107.026 99.8599 106.924 99.3436 106.883C98.7167 106.831 98.4716 106.965 98.3045 106.784C98.1461 106.611 98.324 106.44 98.2047 106.076C98.0398 105.574 97.6038 105.611 97.4953 105.155C97.4303 104.878 97.5734 104.804 97.5018 104.354C97.4585 104.079 97.3673 103.882 97.35 103.846C97.1027 103.316 96.7729 103.333 96.6579 102.965C96.5842 102.731 96.7122 102.714 96.8337 101.994C96.9443 101.334 96.8575 101.23 97.0116 100.983C97.2176 100.657 97.4389 100.73 97.6255 100.419C97.8533 100.04 97.6038 99.8043 97.7426 99.4235C97.9574 98.8394 98.6646 99.0882 99.3068 98.411C99.8621 97.8269 99.8339 97.113 100.331 97.0286C100.394 97.0178 100.394 97.0286 100.834 96.9983C101.32 96.9637 101.379 96.9464 101.441 96.9139C101.715 96.769 101.706 96.518 101.886 96.4985C102.075 96.4769 102.138 96.7495 102.368 96.8469C102.782 97.0221 103.168 96.3796 103.747 96.2649C105.804 96.3731 106.305 98.3721 106.982 100.436C107.305 101.948 108.911 100.914 108.496 102.437Z" stroke="url(#paint6_linear_178_518)" stroke-miterlimit="10"/>
<path d="M108.937 102.883C108.761 103.38 108.485 103.368 108.112 103.882C107.574 104.629 107.865 105.049 107.318 105.494C106.728 105.901 106.778 105.955 106.715 106.632C106.333 107.677 103.416 108.954 102.706 108.244C102.409 107.859 102.253 107.779 101.687 107.725C101.379 107.655 101.279 107.539 101.029 107.424C100.65 107.249 100.552 107.37 99.8773 107.255C99.2634 107.151 99.335 107.048 98.7839 106.963C98.1158 106.861 97.8424 106.987 97.6776 106.779C97.5214 106.582 97.7253 106.411 97.6233 106.013C97.4823 105.462 97.0137 105.47 96.9313 104.971C96.8814 104.67 97.0419 104.601 96.9986 104.112C96.9725 103.813 96.8901 103.597 96.8749 103.554C96.6515 102.967 96.2957 102.961 96.1981 102.556C96.1373 102.301 96.2762 102.292 96.4606 101.529C96.6298 100.83 96.543 100.711 96.7274 100.458C96.9725 100.122 97.2046 100.218 97.4303 99.8973C97.7014 99.5079 97.452 99.2353 97.632 98.8394C97.9075 98.2293 98.6473 98.5473 99.387 97.8702C100.027 97.2839 100.051 96.518 100.589 96.4639C100.656 96.4575 100.658 96.4683 101.131 96.4683C101.654 96.4683 101.719 96.4531 101.789 96.4228C102.092 96.2887 102.103 96.0183 102.298 96.0118C102.504 96.0031 102.55 96.2995 102.789 96.4207C103.22 96.6392 103.682 95.9793 104.312 95.8993C106.509 96.1676 106.897 98.3505 107.468 100.613C107.696 102.268 109.496 101.28 108.937 102.883Z" stroke="url(#paint7_linear_178_518)" stroke-miterlimit="10"/>
<path d="M109.377 103.391C109.152 103.911 108.857 103.876 108.418 104.402C107.785 105.161 108.065 105.635 107.446 106.07C106.783 106.461 106.833 106.524 106.715 107.244C106.227 108.337 103.001 109.486 102.292 108.674C102.004 108.24 101.841 108.14 101.238 108.041C100.912 107.943 100.813 107.811 100.557 107.668C100.162 107.452 100.047 107.575 99.333 107.402C98.6822 107.244 98.769 107.141 98.1833 107.009C97.4739 106.848 97.1702 106.963 97.0096 106.727C96.8578 106.504 97.0877 106.338 97.0096 105.903C96.9012 105.302 96.3957 105.276 96.3458 104.733C96.3154 104.406 96.4911 104.345 96.4825 103.817C96.476 103.495 96.4044 103.257 96.3914 103.21C96.1939 102.563 95.8143 102.53 95.7405 102.091C95.695 101.812 95.8447 101.814 96.0985 101.007C96.3328 100.269 96.2482 100.135 96.4673 99.8778C96.7558 99.5382 96.9988 99.655 97.2634 99.3283C97.5845 98.9324 97.3372 98.6209 97.5585 98.2077C97.8991 97.5738 98.6692 97.9718 99.5131 97.3012C100.242 96.7214 100.327 95.8993 100.908 95.8819C100.982 95.8798 100.982 95.8928 101.489 95.9274C102.051 95.9663 102.121 95.9555 102.199 95.9274C102.535 95.8062 102.568 95.5185 102.776 95.5228C102.997 95.5293 103.023 95.8517 103.273 95.9988C103.72 96.2649 104.264 95.592 104.945 95.5531C107.282 96.0053 107.535 98.3742 107.976 100.847C108.091 102.641 110.095 101.715 109.377 103.391Z" stroke="url(#paint8_linear_178_518)" stroke-miterlimit="10"/>
<path d="M109.809 103.971C109.527 104.512 109.215 104.454 108.705 104.984C107.967 105.752 108.234 106.279 107.536 106.701C106.794 107.071 106.841 107.143 106.663 107.906C106.058 109.042 102.511 110.033 101.813 109.109C101.535 108.62 101.368 108.504 100.728 108.35C100.385 108.222 100.29 108.071 100.025 107.9C99.6195 107.638 99.4871 107.761 98.7344 107.521C98.0467 107.303 98.1486 107.197 97.5304 107.013C96.7798 106.788 96.4479 106.89 96.2938 106.623C96.1463 106.373 96.4066 106.21 96.3546 105.739C96.283 105.085 95.745 105.018 95.7298 104.434C95.7211 104.081 95.9164 104.029 95.9446 103.463C95.9619 103.117 95.9033 102.855 95.8925 102.805C95.7298 102.098 95.3241 102.035 95.2786 101.555C95.2504 101.252 95.4109 101.265 95.745 100.419C96.0509 99.6442 95.9706 99.4949 96.2244 99.2353C96.5585 98.8913 96.8101 99.0363 97.1182 98.7052C97.4935 98.3028 97.2505 97.9502 97.5195 97.5262C97.9339 96.8728 98.7279 97.3552 99.6846 96.6997C100.511 96.1329 100.663 95.2589 101.288 95.2805C101.366 95.2827 101.366 95.2978 101.908 95.3714C102.509 95.4536 102.585 95.4471 102.67 95.4233C103.041 95.3173 103.095 95.0122 103.318 95.0339C103.555 95.0577 103.559 95.4038 103.815 95.5812C104.275 95.8992 104.908 95.2199 105.644 95.2286C108.117 95.8884 108.208 98.45 108.497 101.133C108.486 103.069 110.707 102.225 109.809 103.971Z" stroke="url(#paint9_linear_178_518)" stroke-miterlimit="10"/>
<path d="M110.229 104.624C109.887 105.183 109.557 105.096 108.969 105.628C108.121 106.396 108.366 106.983 107.587 107.383C106.763 107.725 106.811 107.805 106.561 108.61C105.826 109.782 101.947 110.58 101.266 109.538C101.005 108.992 100.834 108.854 100.159 108.642C99.8013 108.48 99.7102 108.311 99.439 108.108C99.0225 107.796 98.8706 107.919 98.081 107.606C97.3608 107.32 97.4757 107.214 96.8271 106.97C96.0396 106.673 95.6751 106.755 95.5298 106.461C95.391 106.18 95.6817 106.026 95.6621 105.516C95.6339 104.808 95.0612 104.698 95.0894 104.071C95.1068 103.692 95.3194 103.649 95.3931 103.043C95.4387 102.673 95.3953 102.387 95.3866 102.333C95.2651 101.561 94.8356 101.464 94.8226 100.947C94.8139 100.62 94.9853 100.646 95.4083 99.7632C95.7945 98.9562 95.7207 98.7896 96.0114 98.53C96.3954 98.186 96.6557 98.3613 97.0115 98.0281C97.4432 97.6257 97.2089 97.2298 97.53 96.7927C98.0224 96.1221 98.8403 96.6997 99.9141 96.068C100.843 95.5206 101.07 94.5947 101.741 94.6661C101.825 94.6747 101.823 94.6899 102.4 94.811C103.038 94.9452 103.12 94.943 103.212 94.9235C103.617 94.8392 103.7 94.5146 103.938 94.5536C104.19 94.5969 104.17 94.969 104.429 95.1788C104.897 95.5553 105.63 94.8738 106.416 94.9387C109.019 95.8322 108.926 98.5862 109.03 101.485C108.878 103.558 111.323 102.818 110.229 104.624Z" stroke="url(#paint10_linear_178_518)" stroke-miterlimit="10"/>
<path d="M110.631 105.356C110.221 105.929 109.874 105.812 109.204 106.338C108.236 107.099 108.455 107.746 107.59 108.116C106.681 108.421 106.724 108.51 106.396 109.356C105.52 110.559 101.301 111.126 100.648 109.955C100.409 109.352 100.235 109.189 99.5282 108.912C99.1573 108.711 99.0727 108.523 98.795 108.285C98.372 107.919 98.2006 108.041 97.3762 107.645C96.6256 107.286 96.7579 107.18 96.0789 106.87C95.2567 106.494 94.8597 106.554 94.7252 106.228C94.5972 105.916 94.9226 105.773 94.9378 105.224C94.9617 104.464 94.3543 104.302 94.4324 103.631C94.4801 103.227 94.71 103.197 94.8359 102.552C94.9118 102.158 94.8879 101.849 94.8814 101.79C94.8098 100.953 94.3564 100.817 94.3803 100.261C94.3955 99.9103 94.5777 99.9493 95.0984 99.0363C95.5735 98.199 95.5062 98.0151 95.8381 97.7577C96.2763 97.418 96.541 97.6236 96.9467 97.2947C97.4391 96.8945 97.22 96.4531 97.5953 96.0096C98.1745 95.3281 99.0076 96.0075 100.207 95.4104C101.244 94.8933 101.559 93.9154 102.272 94.0431C102.361 94.0582 102.359 94.0755 102.969 94.2486C103.641 94.439 103.73 94.4455 103.832 94.4303C104.273 94.3697 104.385 94.0279 104.639 94.0885C104.906 94.1534 104.856 94.5515 105.119 94.7959C105.594 95.2351 106.429 94.558 107.269 94.6856C109.993 95.8387 109.685 98.7853 109.581 101.905C109.262 104.112 111.941 103.502 110.631 105.356Z" stroke="url(#paint11_linear_178_518)" stroke-miterlimit="10"/>
<path d="M111.007 106.171C110.525 106.758 110.158 106.604 109.401 107.119C108.306 107.863 108.492 108.573 107.536 108.906C106.538 109.166 106.577 109.265 106.162 110.146C105.13 111.37 100.563 111.662 99.9514 110.358C99.7409 109.691 99.5674 109.505 98.8298 109.155C98.4458 108.91 98.3699 108.703 98.09 108.426C97.6648 108.004 97.4718 108.118 96.617 107.634C95.8382 107.19 95.9879 107.089 95.285 106.706C94.4325 106.241 94.0008 106.275 93.8815 105.914C93.7687 105.57 94.1266 105.442 94.1852 104.854C94.2676 104.04 93.6298 103.822 93.7643 103.108C93.8446 102.677 94.0962 102.662 94.2785 101.981C94.3891 101.565 94.3869 101.23 94.3848 101.167C94.3717 100.265 93.8945 100.083 93.9617 99.4906C94.0051 99.1163 94.1982 99.1726 94.823 98.2293C95.3957 97.3683 95.3371 97.1649 95.7124 96.914C96.207 96.583 96.476 96.8231 96.9381 96.5007C97.4978 96.1092 97.2939 95.618 97.7299 95.1702C98.4024 94.4822 99.2442 95.2741 100.576 94.7224C101.728 94.2443 102.138 93.2209 102.893 93.4113C102.988 93.4351 102.984 93.4524 103.624 93.6839C104.331 93.9392 104.427 93.9522 104.535 93.9435C105.013 93.9111 105.16 93.5519 105.427 93.6363C105.709 93.725 105.624 94.1491 105.889 94.4303C106.364 94.9366 107.314 94.2724 108.204 94.4736C111.039 95.9144 110.488 99.0515 110.141 102.39C109.631 104.735 112.551 104.281 111.007 106.171Z" stroke="url(#paint12_linear_178_518)" stroke-miterlimit="10"/>
<path d="M111.349 107.076C110.787 107.668 110.407 107.476 109.555 107.971C108.325 108.687 108.47 109.462 107.418 109.75C106.327 109.953 106.364 110.063 105.852 110.979C104.652 112.216 99.7297 112.186 99.1722 110.743C98.9965 110.011 98.8251 109.799 98.0593 109.369C97.6667 109.079 97.5994 108.85 97.3217 108.532C96.8965 108.047 96.6796 108.155 95.801 107.571C94.9983 107.039 95.1675 106.939 94.4408 106.474C93.56 105.91 93.0958 105.916 92.9938 105.52C92.8984 105.144 93.291 105.031 93.3995 104.406C93.5492 103.541 92.881 103.257 93.0784 102.5C93.1977 102.043 93.4668 102.048 93.7141 101.33C93.8637 100.892 93.8876 100.533 93.8898 100.464C93.944 99.4949 93.4451 99.2656 93.5622 98.6338C93.636 98.2358 93.8377 98.3093 94.5818 97.3466C95.2608 96.4639 95.2153 96.2432 95.6361 96.0009C96.1915 95.6829 96.4627 95.962 96.9811 95.6504C97.6103 95.2718 97.4302 94.731 97.9313 94.2831C98.7036 93.5952 99.5475 94.5081 101.018 94.0149C102.29 93.5887 102.808 92.5221 103.602 92.7817C103.702 92.8142 103.695 92.8315 104.366 93.1279C105.105 93.4545 105.205 93.474 105.325 93.4762C105.839 93.4783 106.023 93.1041 106.303 93.2144C106.598 93.3312 106.476 93.7791 106.739 94.0993C107.212 94.6791 108.279 94.0365 109.219 94.3178C112.152 96.0745 111.325 99.3997 110.702 102.954C109.982 105.429 113.147 105.161 111.349 107.076Z" stroke="url(#paint13_linear_178_518)" stroke-miterlimit="10"/>
<path d="M111.648 108.069C111.002 108.661 110.609 108.428 109.657 108.895C108.284 109.57 108.381 110.414 107.231 110.641C106.047 110.777 106.077 110.898 105.459 111.842C104.079 113.079 98.8034 112.679 98.3131 111.089C98.1786 110.293 98.0116 110.053 97.2241 109.531C96.8249 109.189 96.7707 108.941 96.4952 108.579C96.0765 108.028 95.8357 108.127 94.9376 107.435C94.1175 106.803 94.3041 106.71 93.5622 106.158C92.6597 105.488 92.1608 105.46 92.0827 105.027C92.0089 104.616 92.4384 104.525 92.6033 103.861C92.8289 102.943 92.1347 102.589 92.4016 101.793C92.5643 101.312 92.8528 101.336 93.1717 100.585C93.3648 100.127 93.4168 99.7437 93.4255 99.6702C93.5557 98.6339 93.0394 98.3505 93.2129 97.682C93.3235 97.2601 93.534 97.3553 94.4017 96.3774C95.1957 95.4817 95.1632 95.2416 95.6318 95.0144C96.2522 94.7137 96.5212 95.0339 97.1004 94.7375C97.8033 94.3784 97.6493 93.7834 98.222 93.3421C99.1028 92.6606 99.9401 93.7034 101.554 93.2858C102.951 92.9245 103.585 91.8168 104.418 92.1565C104.522 92.1998 104.515 92.2171 105.212 92.5849C105.982 92.9916 106.088 93.0197 106.214 93.0284C106.767 93.0673 106.993 92.6801 107.283 92.8207C107.592 92.9678 107.427 93.4394 107.683 93.8029C108.147 94.4584 109.338 93.8526 110.325 94.2226C113.338 96.3276 112.201 99.8303 111.266 103.597C110.305 106.202 113.72 106.152 111.648 108.069Z" stroke="url(#paint14_linear_178_518)" stroke-miterlimit="10"/>
<path d="M111.894 109.159C111.156 109.748 110.75 109.466 109.696 109.897C108.171 110.52 108.214 111.431 106.965 111.589C105.683 111.647 105.707 111.777 104.973 112.744C103.401 113.968 97.7711 113.144 97.3654 111.4C97.283 110.535 97.1203 110.267 96.3133 109.648C95.9098 109.252 95.8707 108.979 95.6039 108.573C95.1961 107.95 94.9314 108.038 94.0181 107.229C93.1851 106.489 93.3933 106.405 92.6384 105.756C91.7207 104.968 91.1871 104.901 91.1372 104.432C91.0895 103.984 91.558 103.921 91.7815 103.22C92.0917 102.253 91.3736 101.821 91.7207 100.988C91.9312 100.484 92.2392 100.531 92.6362 99.7502C92.8792 99.2721 92.9616 98.8654 92.9768 98.7875C93.1937 97.6863 92.6601 97.3423 92.8987 96.6392C93.0484 96.1935 93.2675 96.3125 94.2719 95.3281C95.1917 94.4281 95.1744 94.1663 95.695 93.9565C96.3827 93.6796 96.6474 94.043 97.2917 93.7704C98.0727 93.4373 97.9533 92.7882 98.5998 92.3555C99.5956 91.6914 100.416 92.8726 102.177 92.5438C103.702 92.2603 104.466 91.1202 105.336 91.5464C105.444 91.6005 105.436 91.6178 106.154 92.0656C106.948 92.5589 107.06 92.5978 107.195 92.6173C107.785 92.7017 108.056 92.3036 108.358 92.4745C108.677 92.6563 108.464 93.1495 108.713 93.5584C109.16 94.2962 110.486 93.7337 111.516 94.2074C114.59 96.6911 113.109 100.362 111.82 104.332C110.594 107.054 114.261 107.257 111.894 109.159Z" stroke="url(#paint15_linear_178_518)" stroke-miterlimit="10"/>
<path d="M112.076 110.345C111.241 110.92 110.826 110.589 109.661 110.972C107.978 111.526 107.956 112.506 106.603 112.584C105.223 112.549 105.238 112.692 104.379 113.674C102.6 114.871 96.6235 113.566 96.3176 111.664C96.2937 110.73 96.1397 110.429 95.3219 109.706C94.9184 109.252 94.8967 108.958 94.6407 108.499C94.2502 107.798 93.9595 107.876 93.0397 106.939C92.2023 106.085 92.4323 106.007 91.6708 105.256C90.7466 104.343 90.1783 104.231 90.1587 103.722C90.1392 103.24 90.649 103.205 90.9419 102.472C91.3476 101.457 90.61 100.94 91.046 100.073C91.3085 99.549 91.6361 99.6226 92.122 98.8135C92.4192 98.3202 92.5386 97.8897 92.5602 97.8075C92.877 96.6414 92.3303 96.2346 92.6383 95.4969C92.8314 95.0317 93.0592 95.1745 94.2111 94.1923C95.2655 93.2945 95.2655 93.0132 95.8403 92.8294C96.5996 92.5849 96.8556 92.9938 97.5672 92.7493C98.4306 92.4508 98.3503 91.7455 99.077 91.3301C100.196 90.6919 100.986 92.0202 102.902 91.7995C104.559 91.6092 105.464 90.4452 106.364 90.9666C106.477 91.0315 106.466 91.051 107.204 91.5854C108.019 92.1738 108.136 92.2236 108.28 92.2539C108.906 92.388 109.225 91.9813 109.538 92.1868C109.865 92.4053 109.603 92.9181 109.837 93.3767C110.262 94.2031 111.724 93.6991 112.794 94.281C115.905 97.1736 114.037 101.003 112.358 105.165C110.839 107.991 114.757 108.482 112.076 110.345Z" stroke="url(#paint16_linear_178_518)" stroke-miterlimit="10"/>
<path d="M112.18 111.632C111.241 112.186 110.822 111.801 109.544 112.125C107.698 112.592 107.601 113.644 106.143 113.624C104.665 113.486 104.672 113.64 103.676 114.626C101.678 115.775 95.3653 113.929 95.1809 111.868C95.2243 110.864 95.0833 110.529 94.2589 109.693C93.8619 109.176 93.8598 108.858 93.619 108.348C93.2523 107.567 92.9334 107.63 92.0201 106.554C91.1871 105.574 91.4387 105.509 90.6773 104.646C89.7531 103.599 89.1544 103.435 89.1718 102.889C89.1891 102.37 89.7358 102.37 90.1068 101.606C90.6187 100.549 89.866 99.9384 90.3996 99.0406C90.7207 98.4976 91.0656 98.6014 91.6492 97.7707C92.005 97.2623 92.1655 96.8101 92.1959 96.7236C92.6232 95.4969 92.0679 95.0187 92.4518 94.2507C92.6948 93.7661 92.9269 93.937 94.2372 92.97C95.4347 92.0873 95.4586 91.7844 96.0877 91.6286C96.9208 91.4231 97.1637 91.8817 97.9447 91.6719C98.8927 91.4166 98.8602 90.6529 99.6715 90.2635C100.919 89.662 101.667 91.1462 103.737 91.0531C105.529 90.9731 106.587 89.7918 107.514 90.4171C107.629 90.495 107.616 90.5166 108.366 91.1418C109.197 91.8341 109.319 91.8969 109.468 91.9402C110.13 92.1305 110.505 91.7173 110.822 91.9618C111.158 92.2192 110.835 92.7515 111.054 93.2599C111.447 94.1772 113.057 93.7466 114.159 94.4519C117.278 97.788 114.987 101.756 112.874 106.093C111.033 109.014 115.198 109.834 112.18 111.632Z" stroke="url(#paint17_linear_178_518)" stroke-miterlimit="10"/>
<path d="M112.197 113.019C111.147 113.542 110.728 113.099 109.334 113.35C107.318 113.713 107.134 114.832 105.572 114.704C103.999 114.444 103.993 114.609 102.849 115.595C100.619 116.679 93.9852 114.226 93.944 112.002C94.0677 110.929 93.9397 110.559 93.1196 109.6C92.7313 109.016 92.753 108.674 92.5339 108.11C92.1977 107.247 91.8527 107.288 90.9546 106.067C90.1346 104.953 90.4101 104.904 89.6595 103.921C88.7484 102.729 88.1171 102.509 88.1756 101.924C88.232 101.368 88.8199 101.412 89.2733 100.618C89.9025 99.5209 89.1388 98.8113 89.7788 97.8875C90.165 97.3293 90.5272 97.4678 91.2128 96.6175C91.6315 96.1005 91.8375 95.6267 91.8766 95.5358C92.4276 94.2529 91.8679 93.6969 92.3387 92.9029C92.6359 92.4009 92.8723 92.6 94.3497 91.6632C95.7012 90.8043 95.7489 90.482 96.4344 90.363C97.3434 90.205 97.569 90.7156 98.4238 90.5469C99.4607 90.3435 99.4824 89.5236 100.383 89.1644C101.767 88.6127 102.457 90.2613 104.685 90.3175C106.613 90.3651 107.837 89.1774 108.783 89.9173C108.902 90.0103 108.884 90.0298 109.644 90.7589C110.483 91.5637 110.607 91.6394 110.768 91.6978C111.462 91.9531 111.896 91.5377 112.219 91.8233C112.559 92.1262 112.175 92.6714 112.371 93.2339C112.724 94.2464 114.481 93.9045 115.612 94.7461C118.707 98.5581 115.952 102.643 113.358 107.138C111.162 110.126 115.568 111.316 112.197 113.019Z" stroke="url(#paint18_linear_178_518)" stroke-miterlimit="10"/>
<path d="M112.111 114.507C110.946 114.992 110.529 114.481 109.013 114.648C106.824 114.888 106.542 116.073 104.876 115.818C103.208 115.422 103.188 115.6 101.889 116.569C99.4156 117.564 92.4844 114.438 92.6081 112.047C92.8207 110.905 92.7101 110.498 91.9031 109.41C91.5299 108.754 91.5798 108.389 91.3889 107.766C91.0939 106.814 90.7207 106.833 89.8465 105.457C89.0503 104.203 89.3497 104.168 88.6186 103.058C87.7313 101.71 87.0697 101.427 87.1782 100.804C87.2801 100.211 87.9071 100.302 88.4537 99.4841C89.2109 98.3548 88.4472 97.5348 89.2022 96.5937C89.6578 96.0247 90.0374 96.1978 90.8379 95.3389C91.326 94.8154 91.5842 94.3221 91.6319 94.2269C92.3174 92.8921 91.7599 92.2538 92.3239 91.4361C92.6797 90.919 92.9183 91.1526 94.5736 90.257C96.0878 89.437 96.1615 89.0952 96.9078 89.0195C97.8949 88.9178 98.0988 89.4825 99.0273 89.3656C100.155 89.225 100.24 88.3466 101.231 88.0308C102.756 87.544 103.373 89.3613 105.759 89.5885C107.824 89.7853 109.226 88.6019 110.184 89.4673C110.304 89.5755 110.284 89.5971 111.046 90.4344C111.885 91.3603 112.013 91.4512 112.18 91.5248C112.907 91.8493 113.402 91.4361 113.727 91.7671C114.07 92.1154 113.616 92.6736 113.783 93.2901C114.085 94.4043 115.996 94.1685 117.146 95.1529C120.179 99.4733 116.916 103.649 113.796 108.276C111.217 111.327 115.855 112.934 112.111 114.507Z" stroke="url(#paint19_linear_178_518)" stroke-miterlimit="10"/>
<path d="M111.907 116.099C110.62 116.532 110.213 115.954 108.575 116.019C106.208 116.112 105.817 117.365 104.049 116.965C102.29 116.415 102.257 116.603 100.789 117.547C98.0618 118.429 90.8617 114.557 91.1741 112.002C91.4865 110.792 91.4019 110.349 90.6166 109.12C90.2673 108.389 90.3476 108.002 90.187 107.318C89.9419 106.275 89.5405 106.267 88.7075 104.726C87.9482 103.32 88.2715 103.307 87.5708 102.061C86.7204 100.548 86.0327 100.196 86.1954 99.536C86.3494 98.9086 87.0154 99.0514 87.664 98.2163C88.5622 97.061 87.8029 96.1264 88.6836 95.1702C89.2151 94.5947 89.6078 94.8089 90.5319 93.9478C91.096 93.4221 91.4084 92.9137 91.4669 92.8163C92.3043 91.4339 91.7533 90.7091 92.4193 89.874C92.8402 89.3461 93.0788 89.6144 94.9228 88.7771C96.6084 88.0113 96.7147 87.65 97.5195 87.624C98.5847 87.5894 98.7626 88.2082 99.767 88.1541C100.986 88.0892 101.145 87.1524 102.231 86.8863C103.904 86.4774 104.429 88.4743 106.971 88.8961C109.171 89.2618 110.766 88.0957 111.729 89.0973C111.85 89.2228 111.827 89.2445 112.579 90.2007C113.41 91.2565 113.54 91.3646 113.714 91.4555C114.469 91.8579 115.031 91.4533 115.356 91.8319C115.697 92.2322 115.167 92.7968 115.302 93.4697C115.543 94.6877 117.61 94.5774 118.769 95.7197C121.697 100.581 117.883 104.815 114.189 109.546C111.187 112.621 116.042 114.691 111.907 116.099Z" stroke="url(#paint20_linear_178_518)" stroke-miterlimit="10"/>
<path d="M111.566 117.791C110.154 118.159 109.759 117.508 107.997 117.456C105.453 117.378 104.938 118.691 103.073 118.133C101.227 117.41 101.177 117.612 99.5323 118.514C96.5407 119.258 89.1085 114.563 89.6356 111.848C90.063 110.576 90.0044 110.092 89.2538 108.716C88.9327 107.904 89.0499 107.495 88.9284 106.751C88.744 105.613 88.3145 105.576 87.5357 103.861C86.8263 102.294 87.1755 102.305 86.5161 100.916C85.7177 99.231 85.0062 98.8005 85.2296 98.1038C85.4422 97.4418 86.1451 97.6452 86.9044 96.7993C87.9544 95.6267 87.2103 94.5666 88.2277 93.6082C88.8416 93.0305 89.2473 93.2902 90.3016 92.4334C90.9459 91.912 91.3191 91.3906 91.3906 91.289C92.3929 89.8697 91.8549 89.0498 92.6337 88.2061C93.1261 87.6717 93.3604 87.9767 95.3996 87.2152C97.2653 86.5207 97.4063 86.14 98.2719 86.1724C99.4173 86.2135 99.5627 86.8928 100.643 86.9101C101.955 86.9318 102.196 85.9388 103.383 85.7354C105.207 85.4217 105.62 87.6024 108.316 88.245C110.648 88.801 112.444 87.6717 113.403 88.8161C113.523 88.9589 113.499 88.9806 114.232 90.0623C115.043 91.2565 115.176 91.382 115.354 91.4923C116.132 91.9813 116.766 91.5875 117.087 92.018C117.423 92.4724 116.814 93.0392 116.905 93.7704C117.072 95.0945 119.297 95.1313 120.454 96.4423C123.228 101.877 118.82 106.132 114.501 110.931C111.056 114.005 116.108 116.591 111.566 117.791Z" stroke="url(#paint21_linear_178_518)" stroke-miterlimit="10"/>
<path d="M111.076 119.58C109.533 119.868 109.158 119.143 107.273 118.953C104.548 118.68 103.899 120.05 101.94 119.31C100.014 118.397 99.9466 118.609 98.1135 119.455C94.8486 120.028 87.2297 114.438 87.9999 111.565C88.5531 110.232 88.527 109.709 87.8263 108.177C87.5443 107.283 87.6983 106.853 87.6267 106.046C87.5161 104.813 87.0562 104.739 86.3512 102.84C85.7068 101.107 86.08 101.143 85.4791 99.6052C84.748 97.7381 84.0191 97.2233 84.3119 96.4942C84.5896 95.7997 85.3294 96.0701 86.2058 95.2199C87.4207 94.0408 86.7026 92.8488 87.8654 91.8968C88.5683 91.3214 88.9826 91.6307 90.1779 90.7935C90.9068 90.2829 91.3472 89.7507 91.4318 89.6468C92.612 88.1995 92.0978 87.28 92.9981 86.4319C93.5665 85.8954 93.7943 86.2394 96.0396 85.5774C98.094 84.9716 98.2719 84.5735 99.2004 84.6731C100.426 84.8029 100.53 85.5428 101.689 85.6423C103.097 85.7634 103.428 84.7163 104.715 84.5865C106.696 84.3875 106.973 86.7565 109.817 87.6478C112.277 88.418 114.291 87.3406 115.232 88.6408C115.349 88.8031 115.321 88.8247 116.028 90.0384C116.809 91.3819 116.941 91.5247 117.124 91.6567C117.922 92.2387 118.634 91.8644 118.942 92.3512C119.269 92.8639 118.571 93.4242 118.614 94.2182C118.692 95.6504 121.078 95.8559 122.22 97.3509C124.788 103.387 119.738 107.623 114.744 112.447C110.813 115.483 116.037 118.631 111.076 119.58Z" stroke="url(#paint22_linear_178_518)" stroke-miterlimit="10"/>
<path d="M110.414 121.463C108.737 121.655 108.39 120.85 106.381 120.504C103.478 120.007 102.68 121.428 100.634 120.489C98.6364 119.366 98.5474 119.587 96.5191 120.357C92.9743 120.727 85.221 114.163 86.2623 111.136C86.9565 109.747 86.9673 109.185 86.3317 107.489C86.0952 106.509 86.2948 106.059 86.2774 105.187C86.2514 103.856 85.7633 103.742 85.1494 101.654C84.5897 99.748 84.9867 99.8151 84.4573 98.1189C83.8152 96.0615 83.0711 95.4536 83.4399 94.6942C83.7913 93.9716 84.5615 94.3156 85.5681 93.4675C86.9586 92.2949 86.2774 90.9622 87.5986 90.0276C88.3948 89.463 88.8156 89.8264 90.1628 89.0173C90.9828 88.524 91.497 87.9853 91.5946 87.8815C92.97 86.4168 92.4884 85.3935 93.5166 84.5498C94.1653 84.0175 94.3866 84.4026 96.8445 83.8596C99.0941 83.3642 99.3154 82.951 100.302 83.1262C101.608 83.3577 101.663 84.1582 102.899 84.3507C104.4 84.5844 104.834 83.4875 106.225 83.4442C108.366 83.3793 108.485 85.9409 111.468 87.1091C114.048 88.1195 116.289 87.1134 117.202 88.5803C117.317 88.7642 117.284 88.7836 117.95 90.1401C118.686 91.6394 118.818 91.8016 119.005 91.9596C119.818 92.6432 120.608 92.2949 120.903 92.8401C121.215 93.4156 120.426 93.9651 120.413 94.8175C120.389 96.36 122.931 96.7581 124.044 98.4478C126.346 105.113 120.61 109.28 114.889 114.081C110.44 117.047 115.807 120.816 110.414 121.463Z" stroke="url(#paint23_linear_178_518)" stroke-miterlimit="10"/>
<path d="M109.562 123.431C107.748 123.514 107.438 122.622 105.307 122.103C102.231 121.352 101.268 122.817 99.1442 121.657C97.0855 120.303 96.9748 120.534 94.7404 121.207C90.9092 121.339 83.0887 113.717 84.4337 110.55C85.2841 109.111 85.3361 108.51 84.7829 106.643C84.605 105.574 84.8502 105.107 84.8979 104.17C84.9695 102.74 84.4554 102.582 83.9542 100.295C83.4965 98.2076 83.9174 98.3093 83.477 96.4509C82.9411 94.1944 82.1884 93.4892 82.6418 92.6995C83.0735 91.9509 83.874 92.3771 85.0151 91.5442C86.5944 90.3889 85.9652 88.9091 87.4513 88.0048C88.3472 87.4596 88.7724 87.8793 90.278 87.1113C91.1956 86.6418 91.7857 86.1053 91.8985 85.9993C93.4843 84.5325 93.0439 83.3967 94.2089 82.5702C94.9464 82.0467 95.1525 82.4772 97.8295 82.0791C100.279 81.7157 100.548 81.2895 101.593 81.5512C102.977 81.8974 102.975 82.7606 104.286 83.0592C105.878 83.4226 106.427 82.2782 107.921 82.3366C110.223 82.4253 110.158 85.1837 113.269 86.6613C115.961 87.9377 118.439 87.0269 119.309 88.6668C119.417 88.8724 119.38 88.8918 119.994 90.3954C120.671 92.057 120.801 92.243 120.988 92.4247C121.808 93.2187 122.682 92.905 122.957 93.5108C123.248 94.1512 122.361 94.6812 122.283 95.5964C122.142 97.2492 124.838 97.868 125.906 99.761C127.873 107.084 121.408 111.123 114.911 115.846C109.924 118.698 115.397 123.141 109.562 123.431Z" stroke="url(#paint24_linear_178_518)" stroke-miterlimit="10"/>
<path d="M108.501 125.48C106.55 125.433 106.284 124.453 104.038 123.736C100.795 122.702 99.6517 124.202 97.4607 122.797C95.3542 121.192 95.2175 121.43 92.7705 121.986C88.6508 121.841 80.8346 113.081 82.5159 109.782C83.5355 108.302 83.6374 107.66 83.184 105.615C83.0734 104.456 83.3728 103.971 83.4921 102.972C83.6765 101.442 83.1363 101.234 82.7718 98.7442C82.4378 96.4726 82.8825 96.6132 82.5506 94.5861C82.1471 92.1262 81.3921 91.3128 81.9366 90.5015C82.4551 89.7291 83.2838 90.2483 84.5703 89.4392C86.3513 88.3185 85.7873 86.683 87.449 85.8262C88.4513 85.3092 88.8765 85.7916 90.5469 85.0798C91.5665 84.645 92.239 84.1128 92.3692 84.0089C94.1806 82.5529 93.7923 81.3046 95.1069 80.5041C95.9356 79.9979 96.1265 80.476 99.027 80.2489C101.682 80.0412 102.003 79.6041 103.105 79.9633C104.563 80.4392 104.496 81.363 105.88 81.7827C107.561 82.2912 108.236 81.1056 109.835 81.2787C112.297 81.5469 112.019 84.5 115.247 86.3173C118.039 87.888 120.766 87.0962 121.573 88.92C121.675 89.1493 121.634 89.1666 122.179 90.826C122.779 92.6606 122.905 92.8683 123.092 93.0781C123.912 93.9911 124.873 93.7207 125.122 94.3913C125.387 95.0988 124.393 95.6007 124.242 96.5764C123.966 98.3375 126.812 99.2029 127.815 101.314C129.374 109.317 122.135 113.166 114.811 117.746C109.245 120.431 114.781 125.606 108.501 125.48Z" stroke="url(#paint25_linear_178_518)" stroke-miterlimit="10"/>
<path d="M107.208 127.598C105.119 127.401 104.906 126.33 102.552 125.394C99.1529 124.041 97.8101 125.564 95.567 123.892C93.4301 122.012 93.2631 122.259 90.5969 122.672C86.1888 122.209 78.4636 112.227 80.5158 108.815C81.7199 107.305 81.8782 106.623 81.5463 104.397C81.5138 103.145 81.8717 102.649 82.0756 101.585C82.388 99.9579 81.8261 99.6961 81.6201 96.9961C81.4335 94.5341 81.8999 94.718 81.6938 92.5177C81.4465 89.848 80.6981 88.9199 81.3424 88.0892C81.9563 87.2995 82.8045 87.9182 84.2472 87.1459C86.243 86.0771 85.7614 84.2815 87.6075 83.4853C88.7226 83.0051 89.1413 83.5546 90.9874 82.9163C92.1133 82.5269 92.8769 82.0055 93.0223 81.9039C95.0745 80.4781 94.7535 79.1087 96.2221 78.3471C97.1506 77.8669 97.3177 78.3926 100.448 78.3666C103.312 78.3428 103.687 77.8993 104.843 78.3666C106.37 78.9854 106.229 79.9719 107.683 80.5257C109.447 81.1986 110.26 79.9741 111.963 80.2813C114.584 80.7529 114.065 83.9007 117.389 86.0901C120.265 87.9832 123.25 87.3384 123.979 89.3548C124.07 89.6079 124.025 89.623 124.485 91.4447C124.992 93.4567 125.11 93.6903 125.294 93.9283C126.105 94.9711 127.155 94.7504 127.374 95.4882C127.604 96.267 126.502 96.7321 126.264 97.7663C125.836 99.6355 128.823 100.776 129.739 103.116C130.808 111.816 122.756 115.405 114.556 119.769C108.386 122.237 113.935 128.204 107.208 127.598Z" stroke="url(#paint26_linear_178_518)" stroke-miterlimit="10"/>
<path d="M105.663 129.775C103.438 129.407 103.29 128.243 100.836 127.062C97.2917 125.357 95.7384 126.889 93.4563 124.931C91.3042 122.754 91.109 123.005 88.2172 123.25C83.5249 122.423 75.9885 111.139 78.4442 107.632C79.8499 106.102 80.0712 105.382 79.8803 102.969C79.9389 101.624 80.3619 101.117 80.6613 99.9925C81.119 98.2726 80.5355 97.948 80.5181 95.0382C80.5029 92.3836 80.9889 92.6151 80.9346 90.2397C80.8696 87.3579 80.1363 86.3065 80.8912 85.4628C81.6093 84.6623 82.4727 85.3892 84.0781 84.6688C86.2995 83.6714 85.9177 81.7092 87.9569 80.9931C89.1891 80.5604 89.5969 81.1813 91.6253 80.6361C92.8619 80.3029 93.7188 79.801 93.8836 79.7015C96.1918 78.3255 95.951 76.8327 97.5824 76.1275C98.6129 75.6818 98.7539 76.2594 102.112 76.465C105.186 76.6532 105.622 76.2053 106.826 76.7938C108.418 77.5726 108.193 78.6198 109.711 79.3229C111.553 80.1753 112.516 78.9248 114.321 79.3813C117.096 80.0823 116.302 83.4205 119.704 86.0188C122.645 88.2644 125.897 87.7971 126.526 90.0147C126.604 90.2916 126.557 90.3067 126.91 92.2928C127.303 94.4887 127.411 94.7483 127.594 95.0166C128.385 96.1956 129.529 96.0377 129.707 96.8468C129.895 97.6992 128.676 98.1168 128.344 99.2093C127.745 101.182 130.865 102.63 131.67 105.209C132.164 114.622 123.255 117.867 114.13 121.934C107.329 124.111 112.833 130.926 105.663 129.775Z" stroke="url(#paint27_linear_178_518)" stroke-miterlimit="10"/>
<path d="M103.841 131.992C101.48 131.432 101.411 130.173 98.8664 128.721C95.1915 126.627 93.4104 128.154 91.1109 125.883C88.9675 123.386 88.7376 123.641 85.618 123.687C80.6458 122.449 73.4131 109.78 76.3114 106.204C77.9341 104.668 78.2248 103.913 78.2031 101.31C78.368 99.8714 78.8582 99.3608 79.2639 98.1752C79.8844 96.3644 79.2813 95.9728 79.483 92.8488C79.6652 89.9995 80.1707 90.2851 80.29 87.7344C80.4354 84.6385 79.7303 83.4551 80.6024 82.6092C81.4333 81.8044 82.3054 82.6481 84.0799 81.9969C86.5357 81.0948 86.2753 78.9595 88.5185 78.345C89.8722 77.9729 90.2626 78.6695 92.4797 78.2369C93.8313 77.9729 94.7901 77.497 94.9724 77.4039C97.5517 76.0994 97.4042 74.4811 99.2091 73.8472C100.348 73.447 100.454 74.0744 104.045 74.5482C107.327 74.9809 107.83 74.5309 109.078 75.2535C110.726 76.2075 110.407 77.3152 111.98 78.1806C113.891 79.232 115.02 77.9621 116.92 78.5873C119.844 79.5479 118.742 83.0678 122.196 86.1097C125.183 88.7404 128.704 88.4808 129.214 90.906C129.277 91.2089 129.225 91.2197 129.455 93.3789C129.711 95.763 129.808 96.0507 129.982 96.3514C130.743 97.6755 131.982 97.5911 132.112 98.4716C132.249 99.4019 130.912 99.7567 130.474 100.903C129.682 102.974 132.921 104.761 133.589 107.586C133.411 117.72 123.61 120.535 113.518 124.215C106.056 126.043 111.447 133.764 103.841 131.992Z" stroke="url(#paint28_linear_178_518)" stroke-miterlimit="10"/>
<path d="M101.719 134.236C99.2312 133.457 99.2486 132.1 96.6301 130.357C92.8467 127.836 90.8205 129.342 88.5253 126.731C86.4124 123.892 86.1477 124.15 82.7982 123.964C77.5592 122.265 70.7517 108.134 74.1294 104.514C75.9864 102.989 76.3551 102.199 76.5265 99.4062C76.8129 97.8745 77.3748 97.3639 77.8997 96.1221C78.7024 94.2248 78.0841 93.7596 78.5354 90.4257C78.9454 87.3839 79.466 87.7279 79.7871 84.9998C80.1776 81.6897 79.5072 80.3678 80.5095 79.5241C81.4619 78.7236 82.3339 79.6928 84.2864 79.126C86.9894 78.3407 86.8701 76.0323 89.3215 75.5412C90.801 75.2448 91.1676 76.0215 93.58 75.7207C95.0508 75.5369 96.1138 75.0998 96.3177 75.0133C99.1835 73.8083 99.1466 72.0602 101.132 71.515C102.383 71.171 102.451 71.8525 106.264 72.627C109.753 73.3366 110.325 72.8931 111.61 73.7585C113.306 74.9051 112.881 76.0691 114.504 77.1162C116.476 78.3883 117.779 77.1097 119.773 77.921C122.836 79.1693 121.389 82.8645 124.865 86.3844C127.871 89.4284 131.668 89.4132 132.032 92.0548C132.078 92.3858 132.019 92.3923 132.106 94.7267C132.201 97.3034 132.284 97.6192 132.449 97.9546C133.167 99.43 134.501 99.4344 134.575 100.388C134.653 101.397 133.191 101.676 132.635 102.874C131.631 105.038 134.969 107.195 135.475 110.275C134.523 121.132 123.797 123.418 112.694 126.612C104.542 128.018 109.744 136.704 101.719 134.236Z" stroke="url(#paint29_linear_178_518)" stroke-miterlimit="10"/>
<path d="M99.2763 136.483C96.6644 135.462 96.788 134.008 94.1088 131.94C90.2387 128.952 87.9543 130.417 85.6873 127.445C83.6351 124.243 83.3314 124.498 79.7519 124.048C74.2591 121.835 68.0221 106.167 71.9161 102.537C74.0226 101.04 74.476 100.22 74.873 97.2363C75.2939 95.6137 75.9382 95.1074 76.5933 93.818C77.5956 91.8428 76.9686 91.2976 77.704 87.756C78.3744 84.5238 78.9059 84.9306 79.4547 82.0294C80.1207 78.5094 79.5046 77.0405 80.6414 76.2097C81.7217 75.4222 82.5851 76.5277 84.722 76.0647C87.681 75.4244 87.7244 72.9407 90.3927 72.5946C92.0024 72.3869 92.3365 73.2479 94.9462 73.1051C96.5364 73.0186 97.71 72.6292 97.9356 72.5513C101.101 71.4739 101.192 69.596 103.361 69.159C104.73 68.8821 104.752 69.6198 108.783 70.7362C112.47 71.7573 113.119 71.3246 114.432 72.3501C116.165 73.7066 115.62 74.9224 117.284 76.1686C119.304 77.6808 120.799 76.4066 122.875 77.4277C126.068 78.9962 124.237 82.8515 127.702 86.8863C130.698 90.376 134.772 90.6442 134.965 93.5043C134.989 93.8635 134.926 93.8656 134.841 96.3752C134.748 99.1466 134.815 99.4906 134.965 99.8649C135.622 101.503 137.054 101.604 137.06 102.634C137.067 103.72 135.479 103.913 134.791 105.155C133.55 107.4 136.969 109.964 137.282 113.306C135.442 124.879 123.769 126.529 111.618 129.123C102.771 130.026 107.698 139.731 99.2763 136.483Z" stroke="url(#paint30_linear_178_518)" stroke-miterlimit="10"/>
<path d="M96.4866 138.71C93.7619 137.42 94.0027 135.869 91.2845 133.45C87.3579 129.956 84.7959 131.356 82.5896 127.998C80.6285 124.411 80.2836 124.662 76.4785 123.912C70.7535 121.125 65.2411 103.854 69.6905 100.252C72.0616 98.8026 72.6126 97.9589 73.2591 94.7894C73.834 93.0825 74.5607 92.587 75.3612 91.25C76.5848 89.2077 75.9535 88.576 77.0078 84.831C77.9688 81.4128 78.509 81.8909 79.316 78.8188C80.2966 75.0912 79.7434 73.4708 81.0255 72.666C82.2447 71.9023 83.0864 73.1527 85.4141 72.8174C88.6356 72.3522 88.8699 69.6912 91.7574 69.5203C93.4994 69.4186 93.7944 70.3662 96.6038 70.4095C98.3176 70.4354 99.604 70.1044 99.8513 70.0395C103.327 69.1201 103.567 67.1124 105.926 66.8052C107.416 66.6104 107.381 67.4044 111.622 68.9037C115.501 70.2753 116.23 69.86 117.56 71.0585C119.317 72.6422 118.642 73.9078 120.332 75.3681C122.385 77.14 124.085 75.8873 126.235 77.1356C129.541 79.0568 127.29 83.0548 130.7 87.6414C133.65 91.6091 138 92.2019 137.991 95.2827C137.991 95.6678 137.922 95.6678 137.644 98.3526C137.336 101.319 137.381 101.693 137.514 102.104C138.097 103.908 139.625 104.127 139.555 105.232C139.481 106.399 137.763 106.485 136.932 107.766C135.433 110.081 138.907 113.088 138.989 116.697C136.145 128.972 123.5 129.87 110.271 131.743C100.721 132.044 105.275 142.825 96.4866 138.71Z" stroke="url(#paint31_linear_178_518)" stroke-miterlimit="10"/>
<path d="M93.3258 140.893C90.5013 139.305 90.8744 137.66 88.141 134.863C84.1927 130.822 81.34 132.131 79.2227 128.364C77.3896 124.368 76.9991 124.613 72.9749 123.524C67.0438 120.108 62.4296 101.169 67.4734 97.6387C70.1265 96.2627 70.7795 95.3974 71.7123 92.0462C72.4564 90.257 73.2743 89.781 74.2331 88.4072C75.6996 86.3065 75.0705 85.5839 76.4828 81.6443C77.7714 78.0508 78.3137 78.6025 79.4114 75.3681C80.7434 71.4436 80.2727 69.6631 81.7088 68.8951C83.0733 68.166 83.8825 69.5722 86.4055 69.3862C89.896 69.1287 90.3472 66.2903 93.456 66.3249C95.3325 66.3443 95.5776 67.385 98.5865 67.6402C100.422 67.796 101.828 67.5386 102.099 67.4866C105.895 66.7597 106.305 64.6244 108.859 64.473C110.47 64.3756 110.375 65.2237 114.811 67.1491C118.87 68.9102 119.682 68.5186 121.018 69.9032C122.784 71.7335 121.964 73.0402 123.667 74.732C125.734 76.7873 127.654 75.5693 129.865 77.0707C133.266 79.3791 130.55 83.4984 133.865 88.6755C136.731 93.1517 141.354 94.1144 141.113 97.418C141.082 97.8312 141.009 97.8269 140.51 100.685C139.957 103.843 139.976 104.248 140.089 104.7C140.579 106.68 142.2 107.028 142.041 108.207C141.874 109.451 140.024 109.417 139.037 110.73C137.253 113.101 140.755 116.586 140.57 120.463C136.598 133.418 122.964 133.435 108.635 134.456C98.3696 134.058 102.444 145.962 93.3258 140.893Z" stroke="url(#paint32_linear_178_518)" stroke-miterlimit="10"/>
<path d="M89.7724 142.995C86.8611 141.081 87.3861 139.346 84.6657 136.139C80.7348 131.51 77.5761 132.7 75.589 128.502C73.9229 124.08 73.4869 124.312 69.2501 122.843C63.1455 118.734 59.6202 98.0757 65.2975 94.6639C68.2457 93.3853 69.0115 92.507 70.2654 88.9805C71.1982 87.1178 72.1115 86.6678 73.2439 85.2659C74.9751 83.1219 74.3546 82.2998 76.1639 78.1806C77.8169 74.4205 78.3571 75.0544 79.7759 71.6686C81.5005 67.558 81.1296 65.6131 82.7262 64.8991C84.2448 64.2198 85.0063 65.7861 87.7267 65.7753C91.4905 65.7602 92.1891 62.7487 95.5212 63.0191C97.5322 63.1814 97.7166 64.3128 100.927 64.8148C102.884 65.1198 104.411 64.9489 104.706 64.9121C108.835 64.4167 109.433 62.158 112.184 62.184C113.922 62.2013 113.755 63.1035 118.369 65.5006C122.589 67.6943 123.489 67.3352 124.819 68.921C126.576 71.0174 125.597 72.3566 127.298 74.2993C129.361 76.6575 131.511 75.4957 133.769 77.2698C137.245 80 134.021 84.2166 137.186 90.0147C139.924 95.0317 144.809 96.4077 144.302 99.9341C144.239 100.375 144.161 100.365 143.408 103.393C142.577 106.74 142.568 107.175 142.653 107.668C143.028 109.83 144.742 110.323 144.484 111.578C144.211 112.9 142.23 112.724 141.072 114.059C138.982 116.469 142.473 120.47 141.985 124.615C136.748 138.214 122.124 137.213 106.676 137.234C95.6969 136.042 99.1723 149.116 89.7724 142.995Z" stroke="url(#paint33_linear_178_518)" stroke-miterlimit="10"/>
<path d="M85.8023 144.984C82.8238 142.712 83.518 140.89 80.8388 137.247C76.9708 131.986 73.4911 133.026 71.6775 128.377C70.224 123.509 69.7381 123.726 65.3039 121.833C59.0648 116.969 56.8368 94.5449 63.1822 91.3106C66.4406 90.1596 67.3279 89.2748 68.9376 85.5861C70.0787 83.6563 71.0918 83.2431 72.4108 81.8238C74.4283 79.6539 73.8252 78.7236 76.077 74.4421C78.1314 70.5328 78.6629 71.2532 80.4418 67.7268C82.6003 63.4475 82.3487 61.3338 84.1145 60.6847C85.7936 60.0681 86.4943 61.8076 89.4122 62.0001C93.4494 62.2662 94.4256 59.0881 97.979 59.6268C100.125 59.9513 100.237 61.1802 103.641 61.9568C105.717 62.4306 107.368 62.3592 107.687 62.3441C112.152 62.1213 112.965 59.7436 115.913 59.9773C117.775 60.1266 117.529 61.0806 122.298 63.997C126.66 66.6645 127.652 66.3465 128.96 68.1465C130.687 70.5263 129.537 71.8893 131.214 74.1003C133.249 76.7851 135.644 75.6991 137.932 77.7717C141.455 80.9606 137.681 85.2421 140.64 91.7C143.2 97.286 148.337 99.1271 147.528 102.874C147.426 103.344 147.343 103.324 146.308 106.517C145.165 110.044 145.124 110.511 145.178 111.046C145.419 113.391 147.219 114.048 146.849 115.375C146.456 116.772 144.345 116.435 143.002 117.78C140.579 120.21 144.024 124.76 143.189 129.171C136.55 143.368 120.937 141.198 104.366 140.066C92.6792 137.97 95.4235 152.253 85.8023 144.984Z" stroke="url(#paint34_linear_178_518)" stroke-miterlimit="10"/>
<path d="M81.3942 146.823C78.3701 144.164 79.2509 142.26 76.652 138.154C72.899 132.221 69.0895 133.078 67.4929 127.953C66.2997 122.622 65.7617 122.817 61.1496 120.457C54.8216 114.773 54.1187 90.5534 61.1691 87.5592C64.7508 86.5683 65.7704 85.6856 67.7749 81.8498C69.1438 79.8659 70.261 79.4981 71.7839 78.0746C74.1116 75.8981 73.5346 74.8554 76.2723 70.4289C78.7714 66.3898 79.2878 67.2011 81.4593 63.5513C84.0951 59.1227 83.9866 56.836 85.9304 56.2735C87.7787 55.7391 88.3991 57.6559 91.5144 58.08C95.8249 58.6663 97.1113 55.3324 100.884 56.174C103.162 56.6824 103.19 58.0086 106.782 59.0968C108.973 59.761 110.75 59.8086 111.093 59.815C115.898 59.9102 116.95 57.4201 120.094 57.8917C122.081 58.1903 121.745 59.1963 126.641 62.6816C131.118 65.8705 132.207 65.6023 133.474 67.6316C135.149 70.3143 133.813 71.6902 135.444 74.1869C137.425 77.2179 140.076 76.2335 142.375 78.6284C145.914 82.3128 141.542 86.6224 144.23 93.7704C146.556 99.9536 151.927 102.314 150.777 106.271C150.634 106.766 150.545 106.74 149.196 110.087C147.705 113.785 147.625 114.282 147.643 114.86C147.725 117.393 149.608 118.235 149.109 119.628C148.584 121.099 146.343 120.578 144.803 121.921C142.022 124.344 145.373 129.485 144.146 134.153C135.956 148.884 119.373 145.39 101.682 142.937C89.2973 139.813 91.1673 155.338 81.3942 146.823Z" stroke="url(#paint35_linear_178_518)" stroke-miterlimit="10"/>
<path d="M76.5262 148.462C73.4825 145.384 74.5715 143.409 72.092 138.809C68.5125 132.165 64.3603 132.799 63.0326 127.183C62.154 121.376 61.5618 121.545 56.7914 118.667C50.4329 112.097 51.5002 86.0642 59.2883 83.3815C63.2062 82.5875 64.3646 81.7157 66.803 77.7522C68.4192 75.7272 69.6471 75.4157 71.3869 74.003C74.0466 71.8438 73.5064 70.6821 76.7756 66.1388C79.7585 61.9936 80.2531 62.9023 82.8564 59.1509C86.0172 54.5968 86.0714 52.1369 88.1996 51.6783C90.2214 51.2434 90.7421 53.3463 94.0525 54.0343C98.6321 54.9862 100.263 51.5052 104.244 52.6908C106.648 53.4069 106.579 54.8304 110.351 56.267C112.653 57.1432 114.553 57.3271 114.92 57.3595C120.068 57.8203 121.382 55.2285 124.719 55.9706C126.827 56.44 126.391 57.4936 131.381 61.5977C135.945 65.3513 137.132 65.1479 138.338 67.4196C139.933 70.4224 138.395 71.7984 139.959 74.5979C141.857 77.9967 144.773 77.1378 147.059 79.8789C150.578 84.0955 145.564 88.3899 147.912 96.2605C149.942 103.067 155.524 106 153.995 110.159C153.804 110.68 153.71 110.645 152.012 114.135C150.135 117.99 150.012 118.516 149.988 119.139C149.886 121.863 151.84 122.906 151.203 124.364C150.528 125.902 148.165 125.177 146.41 126.501C143.243 128.894 146.454 134.657 144.786 139.573C134.893 154.76 117.369 149.771 98.5778 145.819C85.5334 141.535 86.3708 158.33 76.5262 148.462Z" stroke="url(#paint36_linear_178_518)" stroke-miterlimit="10"/>
<path d="M71.1834 149.86C68.1506 146.329 69.4674 144.294 67.1527 139.173C63.8118 131.778 59.3126 132.148 58.3103 126.023C57.8048 119.728 57.1584 119.866 52.2578 116.422C45.9297 108.899 49.0341 81.0558 57.5901 78.7582C61.8529 78.1979 63.161 77.352 66.0745 73.2825C67.9619 71.2316 69.3004 70.9893 71.2745 69.6025C74.2899 67.4845 73.7975 66.1972 77.6459 61.5696C81.1582 57.3466 81.6181 58.359 84.6942 54.5276C88.4277 49.8805 88.6707 47.2432 90.9876 46.9122C93.1895 46.5964 93.5908 48.8918 97.0901 49.8761C101.932 51.2391 103.941 47.6283 108.123 49.1968C110.649 50.1444 110.466 51.6675 114.406 53.4913C116.807 54.6033 118.834 54.943 119.224 55.0057C124.713 55.8862 126.316 53.2035 129.841 54.2485C132.067 54.9083 131.52 56.0074 136.564 60.7821C141.176 65.1501 142.467 65.0203 143.588 67.5472C145.072 70.8876 143.322 72.2484 144.786 75.3681C146.565 79.1563 149.758 78.4532 152.006 81.5642C155.464 86.3498 149.762 90.5815 151.687 99.1986C153.351 106.652 159.121 110.215 157.167 114.561C156.921 115.106 156.826 115.061 154.741 118.678C152.437 122.674 152.266 123.228 152.192 123.894C151.878 126.809 153.897 128.072 153.101 129.591C152.262 131.19 149.782 130.235 147.801 131.525C144.224 133.853 147.235 140.276 145.077 145.425C133.323 160.976 114.901 154.315 95.0422 148.668C81.3643 143.102 80.9998 161.179 71.1834 149.86Z" stroke="url(#paint37_linear_178_518)" stroke-miterlimit="10"/>
<path d="M65.3452 150.957C62.358 146.944 63.9221 144.856 61.8265 139.192C58.8002 131.01 53.9451 131.07 53.3312 124.427C53.2618 117.635 52.5589 117.735 47.5607 113.674C41.3389 105.131 46.7623 75.4979 56.1123 73.6741C60.7266 73.3929 62.1931 72.5816 65.625 68.4342C67.8031 66.3746 69.2587 66.2145 71.478 64.8775C74.8731 62.8309 74.4392 61.4138 78.9168 56.7386C83.0017 52.4701 83.4204 53.5908 87.0086 49.7117C91.3625 45.0062 91.8224 42.1959 94.3302 42.012C96.7165 41.8389 96.9725 44.329 100.652 45.6488C105.743 47.4747 108.171 43.7492 112.538 45.7461C115.176 46.9512 114.865 48.5716 118.953 50.8216C121.445 52.1932 123.593 52.7103 124.007 52.8055C129.828 54.1598 131.75 51.4014 135.453 52.786C137.791 53.66 137.121 54.798 142.171 60.2975C146.79 65.3297 148.185 65.2842 149.198 68.0794C150.539 71.7724 148.558 73.1008 149.894 76.5602C151.519 80.7573 154.995 80.2424 157.173 83.7471C160.522 89.1406 154.088 93.2534 155.504 102.638C156.73 110.758 162.65 115.011 160.227 119.526C159.923 120.091 159.824 120.037 157.316 123.76C154.543 127.873 154.318 128.455 154.19 129.164C153.632 132.267 155.704 133.775 154.736 135.341C153.717 136.994 151.127 135.785 148.905 137.02C144.894 139.251 147.64 146.366 144.937 151.725C131.16 167.527 111.9 159.003 91.0241 151.461C76.7735 144.471 75.0228 163.834 65.3452 150.957Z" stroke="url(#paint38_linear_178_518)" stroke-miterlimit="10"/>
<path d="M59.0021 151.699C56.0995 147.171 57.9348 145.049 56.1125 138.816C53.481 129.814 48.2702 129.513 48.1097 122.341C48.5457 115.052 47.7843 115.106 42.7274 110.377C36.6966 100.748 44.7428 69.3667 54.9085 68.1119C59.8785 68.1551 61.5121 67.3958 65.5059 63.203C67.9985 61.1564 69.5713 61.0936 72.053 59.8259C75.8473 57.8852 75.4915 56.3319 80.6438 51.6523C85.347 47.3795 85.7092 48.6127 89.8506 44.7206C94.8749 39.9978 95.5777 37.0187 98.2851 37.0101C100.858 37.0014 100.945 39.6928 104.793 41.3846C110.117 43.7233 113 39.9091 117.536 42.3776C120.274 43.8682 119.82 45.5817 124.036 48.3011C126.606 49.9584 128.871 50.6745 129.309 50.8086C135.451 52.6973 137.72 49.8826 141.588 51.6458C144.031 52.76 143.226 53.9283 148.231 60.2066C152.808 65.9484 154.305 66.0068 155.181 69.0789C156.342 73.1419 154.116 74.4183 155.292 78.226C156.717 82.8493 160.488 82.5572 162.557 86.4796C165.744 92.5135 158.533 96.4444 159.346 106.619C160.049 115.42 166.08 120.426 163.141 125.089C162.772 125.673 162.67 125.608 159.698 129.413C156.416 133.617 156.129 134.225 155.938 134.976C155.108 138.262 157.216 140.034 156.06 141.643C154.841 143.339 152.155 141.849 149.68 143.006C145.209 145.098 147.619 152.937 144.317 158.484C128.35 174.404 108.334 163.819 86.5054 154.168C71.7493 145.596 68.415 166.233 59.0021 151.699Z" stroke="url(#paint39_linear_178_518)" stroke-miterlimit="10"/>
<path d="M52.1425 152.019C49.3701 146.944 51.4982 144.806 50.0122 137.985C47.8667 128.133 42.3001 127.421 42.6689 119.715C43.6842 111.928 42.8641 111.93 37.7965 106.479C32.052 95.7002 43.042 62.6383 54.0407 62.052C59.3687 62.4696 61.178 61.7773 65.7771 57.578C68.6038 55.5682 70.2959 55.6201 73.0531 54.4432C77.2704 52.6454 77.0036 50.9535 82.8826 46.3173C88.2474 42.0877 88.5468 43.4355 93.2804 39.5716C99.0249 34.8812 100.003 31.7399 102.906 31.9325C105.665 32.1163 105.559 35.011 109.557 37.1096C115.091 40.0151 118.471 36.1404 123.151 39.1281C125.975 40.9324 125.359 42.7367 129.678 45.9689C132.312 47.9398 134.687 48.8745 135.147 49.0519C141.592 51.5355 144.239 48.6862 148.255 50.867C150.791 52.243 149.84 53.4372 154.737 60.5463C159.214 67.0475 160.815 67.2227 161.527 70.5825C162.466 75.0263 159.982 76.2292 160.956 80.4025C162.139 85.4693 166.202 85.4368 168.128 89.7983C171.092 96.5094 163.063 100.187 163.171 111.16C163.264 120.651 169.356 126.473 165.852 131.254C165.414 131.854 165.308 131.776 161.835 135.635C157.997 139.9 157.644 140.531 157.385 141.321C156.246 144.785 158.375 146.842 157.014 148.482C155.581 150.211 152.81 148.411 150.068 149.466C145.115 151.377 147.111 159.963 143.152 165.666C124.83 181.548 104.151 168.697 81.466 156.712C66.2739 146.427 61.1455 168.314 52.1425 152.019Z" stroke="url(#paint40_linear_178_518)" stroke-miterlimit="10"/>
<defs>
<linearGradient id="paint0_linear_178_518" x1="106.053" y1="100.842" x2="98.8598" y2="103.569" gradientUnits="userSpaceOnUse">
<stop stop-color="#66C5F3"/>
<stop offset="0.1336" stop-color="#67C7EE"/>
<stop offset="0.2917" stop-color="#69CBE0"/>
<stop offset="0.4621" stop-color="#6DD3C8"/>
<stop offset="0.6413" stop-color="#73DDA7"/>
<stop offset="0.8253" stop-color="#7AEB7C"/>
<stop offset="1" stop-color="#82FA4D"/>
</linearGradient>
<linearGradient id="paint1_linear_178_518" x1="106.445" y1="100.989" x2="98.5209" y2="103.38" gradientUnits="userSpaceOnUse">
<stop stop-color="#66C5F3"/>
<stop offset="0.1336" stop-color="#67C7EE"/>
<stop offset="0.2917" stop-color="#69CBE0"/>
<stop offset="0.4621" stop-color="#6DD3C8"/>
<stop offset="0.6413" stop-color="#73DDA7"/>
<stop offset="0.8253" stop-color="#7AEB7C"/>
<stop offset="1" stop-color="#82FA4D"/>
</linearGradient>
<linearGradient id="paint2_linear_178_518" x1="106.846" y1="101.179" x2="98.1635" y2="103.148" gradientUnits="userSpaceOnUse">
<stop stop-color="#66C5F3"/>
<stop offset="0.1336" stop-color="#67C7EE"/>
<stop offset="0.2917" stop-color="#69CBE0"/>
<stop offset="0.4621" stop-color="#6DD3C8"/>
<stop offset="0.6413" stop-color="#73DDA7"/>
<stop offset="0.8253" stop-color="#7AEB7C"/>
<stop offset="1" stop-color="#82FA4D"/>
</linearGradient>
<linearGradient id="paint3_linear_178_518" x1="107.243" y1="101.401" x2="97.7872" y2="102.85" gradientUnits="userSpaceOnUse">
<stop stop-color="#66C5F3"/>
<stop offset="0.1336" stop-color="#67C7EE"/>
<stop offset="0.2917" stop-color="#69CBE0"/>
<stop offset="0.4621" stop-color="#6DD3C8"/>
<stop offset="0.6413" stop-color="#73DDA7"/>
<stop offset="0.8253" stop-color="#7AEB7C"/>
<stop offset="1" stop-color="#82FA4D"/>
</linearGradient>
<linearGradient id="paint4_linear_178_518" x1="107.68" y1="101.681" x2="97.4235" y2="102.529" gradientUnits="userSpaceOnUse">
<stop stop-color="#66C5F3"/>
<stop offset="0.1336" stop-color="#67C7EE"/>
<stop offset="0.2917" stop-color="#69CBE0"/>
<stop offset="0.4621" stop-color="#6DD3C8"/>
<stop offset="0.6413" stop-color="#73DDA7"/>
<stop offset="0.8253" stop-color="#7AEB7C"/>
<stop offset="1" stop-color="#82FA4D"/>
</linearGradient>
<linearGradient id="paint5_linear_178_518" x1="108.12" y1="102.017" x2="97.049" y2="102.156" gradientUnits="userSpaceOnUse">
<stop stop-color="#66C5F3"/>
<stop offset="0.1336" stop-color="#67C7EE"/>
<stop offset="0.2917" stop-color="#69CBE0"/>
<stop offset="0.4621" stop-color="#6DD3C8"/>
<stop offset="0.6413" stop-color="#73DDA7"/>
<stop offset="0.8253" stop-color="#7AEB7C"/>
<stop offset="1" stop-color="#82FA4D"/>
</linearGradient>
<linearGradient id="paint6_linear_178_518" x1="108.564" y1="102.401" x2="96.6801" y2="101.718" gradientUnits="userSpaceOnUse">
<stop stop-color="#66C5F3"/>
<stop offset="0.1336" stop-color="#67C7EE"/>
<stop offset="0.2917" stop-color="#69CBE0"/>
<stop offset="0.4621" stop-color="#6DD3C8"/>
<stop offset="0.6413" stop-color="#73DDA7"/>
<stop offset="0.8253" stop-color="#7AEB7C"/>
<stop offset="1" stop-color="#82FA4D"/>
</linearGradient>
<linearGradient id="paint7_linear_178_518" x1="109.005" y1="102.852" x2="96.3082" y2="101.22" gradientUnits="userSpaceOnUse">
<stop stop-color="#66C5F3"/>
<stop offset="0.1336" stop-color="#67C7EE"/>
<stop offset="0.2917" stop-color="#69CBE0"/>
<stop offset="0.4621" stop-color="#6DD3C8"/>
<stop offset="0.6413" stop-color="#73DDA7"/>
<stop offset="0.8253" stop-color="#7AEB7C"/>
<stop offset="1" stop-color="#82FA4D"/>
</linearGradient>
<linearGradient id="paint8_linear_178_518" x1="109.458" y1="103.361" x2="95.9632" y2="100.661" gradientUnits="userSpaceOnUse">
<stop stop-color="#66C5F3"/>
<stop offset="0.1336" stop-color="#67C7EE"/>
<stop offset="0.2917" stop-color="#69CBE0"/>
<stop offset="0.4621" stop-color="#6DD3C8"/>
<stop offset="0.6413" stop-color="#73DDA7"/>
<stop offset="0.8253" stop-color="#7AEB7C"/>
<stop offset="1" stop-color="#82FA4D"/>
</linearGradient>
<linearGradient id="paint9_linear_178_518" x1="109.899" y1="103.933" x2="95.6351" y2="100.023" gradientUnits="userSpaceOnUse">
<stop stop-color="#66C5F3"/>
<stop offset="0.1336" stop-color="#67C7EE"/>
<stop offset="0.2917" stop-color="#69CBE0"/>
<stop offset="0.4621" stop-color="#6DD3C8"/>
<stop offset="0.6413" stop-color="#73DDA7"/>
<stop offset="0.8253" stop-color="#7AEB7C"/>
<stop offset="1" stop-color="#82FA4D"/>
</linearGradient>
<linearGradient id="paint10_linear_178_518" x1="110.339" y1="104.588" x2="95.3348" y2="99.3291" gradientUnits="userSpaceOnUse">
<stop stop-color="#66C5F3"/>
<stop offset="0.1336" stop-color="#67C7EE"/>
<stop offset="0.2917" stop-color="#69CBE0"/>
<stop offset="0.4621" stop-color="#6DD3C8"/>
<stop offset="0.6413" stop-color="#73DDA7"/>
<stop offset="0.8253" stop-color="#7AEB7C"/>
<stop offset="1" stop-color="#82FA4D"/>
</linearGradient>
<linearGradient id="paint11_linear_178_518" x1="110.741" y1="105.336" x2="95.0393" y2="98.56" gradientUnits="userSpaceOnUse">
<stop stop-color="#66C5F3"/>
<stop offset="0.1336" stop-color="#67C7EE"/>
<stop offset="0.2917" stop-color="#69CBE0"/>
<stop offset="0.4621" stop-color="#6DD3C8"/>
<stop offset="0.6413" stop-color="#73DDA7"/>
<stop offset="0.8253" stop-color="#7AEB7C"/>
<stop offset="1" stop-color="#82FA4D"/>
</linearGradient>
<linearGradient id="paint12_linear_178_518" x1="111.126" y1="106.153" x2="94.7983" y2="97.7072" gradientUnits="userSpaceOnUse">
<stop stop-color="#66C5F3"/>
<stop offset="0.1336" stop-color="#67C7EE"/>
<stop offset="0.2917" stop-color="#69CBE0"/>
<stop offset="0.4621" stop-color="#6DD3C8"/>
<stop offset="0.6413" stop-color="#73DDA7"/>
<stop offset="0.8253" stop-color="#7AEB7C"/>
<stop offset="1" stop-color="#82FA4D"/>
</linearGradient>
<linearGradient id="paint13_linear_178_518" x1="111.476" y1="107.051" x2="94.6073" y2="96.7676" gradientUnits="userSpaceOnUse">
<stop stop-color="#66C5F3"/>
<stop offset="0.1336" stop-color="#67C7EE"/>
<stop offset="0.2917" stop-color="#69CBE0"/>
<stop offset="0.4621" stop-color="#6DD3C8"/>
<stop offset="0.6413" stop-color="#73DDA7"/>
<stop offset="0.8253" stop-color="#7AEB7C"/>
<stop offset="1" stop-color="#82FA4D"/>
</linearGradient>
<linearGradient id="paint14_linear_178_518" x1="111.798" y1="108.061" x2="94.4735" y2="95.7725" gradientUnits="userSpaceOnUse">
<stop stop-color="#66C5F3"/>
<stop offset="0.1336" stop-color="#67C7EE"/>
<stop offset="0.2917" stop-color="#69CBE0"/>
<stop offset="0.4621" stop-color="#6DD3C8"/>
<stop offset="0.6413" stop-color="#73DDA7"/>
<stop offset="0.8253" stop-color="#7AEB7C"/>
<stop offset="1" stop-color="#82FA4D"/>
</linearGradient>
<linearGradient id="paint15_linear_178_518" x1="112.041" y1="109.158" x2="94.3862" y2="94.6701" gradientUnits="userSpaceOnUse">
<stop stop-color="#66C5F3"/>
<stop offset="0.1336" stop-color="#67C7EE"/>
<stop offset="0.2917" stop-color="#69CBE0"/>
<stop offset="0.4621" stop-color="#6DD3C8"/>
<stop offset="0.6413" stop-color="#73DDA7"/>
<stop offset="0.8253" stop-color="#7AEB7C"/>
<stop offset="1" stop-color="#82FA4D"/>
</linearGradient>
<linearGradient id="paint16_linear_178_518" x1="112.249" y1="110.37" x2="94.3912" y2="93.5164" gradientUnits="userSpaceOnUse">
<stop stop-color="#66C5F3"/>
<stop offset="0.1336" stop-color="#67C7EE"/>
<stop offset="0.2917" stop-color="#69CBE0"/>
<stop offset="0.4621" stop-color="#6DD3C8"/>
<stop offset="0.6413" stop-color="#73DDA7"/>
<stop offset="0.8253" stop-color="#7AEB7C"/>
<stop offset="1" stop-color="#82FA4D"/>
</linearGradient>
<linearGradient id="paint17_linear_178_518" x1="112.362" y1="111.658" x2="94.4828" y2="92.2433" gradientUnits="userSpaceOnUse">
<stop stop-color="#66C5F3"/>
<stop offset="0.1336" stop-color="#67C7EE"/>
<stop offset="0.2917" stop-color="#69CBE0"/>
<stop offset="0.4621" stop-color="#6DD3C8"/>
<stop offset="0.6413" stop-color="#73DDA7"/>
<stop offset="0.8253" stop-color="#7AEB7C"/>
<stop offset="1" stop-color="#82FA4D"/>
</linearGradient>
<linearGradient id="paint18_linear_178_518" x1="112.376" y1="113.063" x2="94.6573" y2="90.8929" gradientUnits="userSpaceOnUse">
<stop stop-color="#66C5F3"/>
<stop offset="0.1336" stop-color="#67C7EE"/>
<stop offset="0.2917" stop-color="#69CBE0"/>
<stop offset="0.4621" stop-color="#6DD3C8"/>
<stop offset="0.6413" stop-color="#73DDA7"/>
<stop offset="0.8253" stop-color="#7AEB7C"/>
<stop offset="1" stop-color="#82FA4D"/>
</linearGradient>
<linearGradient id="paint19_linear_178_518" x1="112.299" y1="114.581" x2="94.9508" y2="89.4758" gradientUnits="userSpaceOnUse">
<stop stop-color="#66C5F3"/>
<stop offset="0.1336" stop-color="#67C7EE"/>
<stop offset="0.2917" stop-color="#69CBE0"/>
<stop offset="0.4621" stop-color="#6DD3C8"/>
<stop offset="0.6413" stop-color="#73DDA7"/>
<stop offset="0.8253" stop-color="#7AEB7C"/>
<stop offset="1" stop-color="#82FA4D"/>
</linearGradient>
<linearGradient id="paint20_linear_178_518" x1="112.103" y1="116.173" x2="95.3895" y2="87.9513" gradientUnits="userSpaceOnUse">
<stop stop-color="#66C5F3"/>
<stop offset="0.1336" stop-color="#67C7EE"/>
<stop offset="0.2917" stop-color="#69CBE0"/>
<stop offset="0.4621" stop-color="#6DD3C8"/>
<stop offset="0.6413" stop-color="#73DDA7"/>
<stop offset="0.8253" stop-color="#7AEB7C"/>
<stop offset="1" stop-color="#82FA4D"/>
</linearGradient>
<linearGradient id="paint21_linear_178_518" x1="111.773" y1="117.888" x2="95.9593" y2="86.3699" gradientUnits="userSpaceOnUse">
<stop stop-color="#66C5F3"/>
<stop offset="0.1336" stop-color="#67C7EE"/>
<stop offset="0.2917" stop-color="#69CBE0"/>
<stop offset="0.4621" stop-color="#6DD3C8"/>
<stop offset="0.6413" stop-color="#73DDA7"/>
<stop offset="0.8253" stop-color="#7AEB7C"/>
<stop offset="1" stop-color="#82FA4D"/>
</linearGradient>
<linearGradient id="paint22_linear_178_518" x1="111.3" y1="119.71" x2="96.6917" y2="84.7275" gradientUnits="userSpaceOnUse">
<stop stop-color="#66C5F3"/>
<stop offset="0.1336" stop-color="#67C7EE"/>
<stop offset="0.2917" stop-color="#69CBE0"/>
<stop offset="0.4621" stop-color="#6DD3C8"/>
<stop offset="0.6413" stop-color="#73DDA7"/>
<stop offset="0.8253" stop-color="#7AEB7C"/>
<stop offset="1" stop-color="#82FA4D"/>
</linearGradient>
<linearGradient id="paint23_linear_178_518" x1="110.641" y1="121.605" x2="97.6" y2="82.9912" gradientUnits="userSpaceOnUse">
<stop stop-color="#66C5F3"/>
<stop offset="0.1336" stop-color="#67C7EE"/>
<stop offset="0.2917" stop-color="#69CBE0"/>
<stop offset="0.4621" stop-color="#6DD3C8"/>
<stop offset="0.6413" stop-color="#73DDA7"/>
<stop offset="0.8253" stop-color="#7AEB7C"/>
<stop offset="1" stop-color="#82FA4D"/>
</linearGradient>
<linearGradient id="paint24_linear_178_518" x1="109.783" y1="123.605" x2="98.6851" y2="81.2058" gradientUnits="userSpaceOnUse">
<stop stop-color="#66C5F3"/>
<stop offset="0.1336" stop-color="#67C7EE"/>
<stop offset="0.2917" stop-color="#69CBE0"/>
<stop offset="0.4621" stop-color="#6DD3C8"/>
<stop offset="0.6413" stop-color="#73DDA7"/>
<stop offset="0.8253" stop-color="#7AEB7C"/>
<stop offset="1" stop-color="#82FA4D"/>
</linearGradient>
<linearGradient id="paint25_linear_178_518" x1="108.742" y1="125.689" x2="100.005" y2="79.3927" gradientUnits="userSpaceOnUse">
<stop stop-color="#66C5F3"/>
<stop offset="0.1336" stop-color="#67C7EE"/>
<stop offset="0.2917" stop-color="#69CBE0"/>
<stop offset="0.4621" stop-color="#6DD3C8"/>
<stop offset="0.6413" stop-color="#73DDA7"/>
<stop offset="0.8253" stop-color="#7AEB7C"/>
<stop offset="1" stop-color="#82FA4D"/>
</linearGradient>
<linearGradient id="paint26_linear_178_518" x1="107.434" y1="127.836" x2="101.531" y2="77.5146" gradientUnits="userSpaceOnUse">
<stop stop-color="#66C5F3"/>
<stop offset="0.1336" stop-color="#67C7EE"/>
<stop offset="0.2917" stop-color="#69CBE0"/>
<stop offset="0.4621" stop-color="#6DD3C8"/>
<stop offset="0.6413" stop-color="#73DDA7"/>
<stop offset="0.8253" stop-color="#7AEB7C"/>
<stop offset="1" stop-color="#82FA4D"/>
</linearGradient>
<linearGradient id="paint27_linear_178_518" x1="105.886" y1="130.046" x2="103.318" y2="75.6276" gradientUnits="userSpaceOnUse">
<stop stop-color="#66C5F3"/>
<stop offset="0.1336" stop-color="#67C7EE"/>
<stop offset="0.2917" stop-color="#69CBE0"/>
<stop offset="0.4621" stop-color="#6DD3C8"/>
<stop offset="0.6413" stop-color="#73DDA7"/>
<stop offset="0.8253" stop-color="#7AEB7C"/>
<stop offset="1" stop-color="#82FA4D"/>
</linearGradient>
<linearGradient id="paint28_linear_178_518" x1="104.069" y1="132.309" x2="105.38" y2="73.749" gradientUnits="userSpaceOnUse">
<stop stop-color="#66C5F3"/>
<stop offset="0.1336" stop-color="#67C7EE"/>
<stop offset="0.2917" stop-color="#69CBE0"/>
<stop offset="0.4621" stop-color="#6DD3C8"/>
<stop offset="0.6413" stop-color="#73DDA7"/>
<stop offset="0.8253" stop-color="#7AEB7C"/>
<stop offset="1" stop-color="#82FA4D"/>
</linearGradient>
<linearGradient id="paint29_linear_178_518" x1="101.94" y1="134.583" x2="107.731" y2="71.865" gradientUnits="userSpaceOnUse">
<stop stop-color="#66C5F3"/>
<stop offset="0.1336" stop-color="#67C7EE"/>
<stop offset="0.2917" stop-color="#69CBE0"/>
<stop offset="0.4621" stop-color="#6DD3C8"/>
<stop offset="0.6413" stop-color="#73DDA7"/>
<stop offset="0.8253" stop-color="#7AEB7C"/>
<stop offset="1" stop-color="#82FA4D"/>
</linearGradient>
<linearGradient id="paint30_linear_178_518" x1="99.4981" y1="136.877" x2="110.398" y2="70.0386" gradientUnits="userSpaceOnUse">
<stop stop-color="#66C5F3"/>
<stop offset="0.1336" stop-color="#67C7EE"/>
<stop offset="0.2917" stop-color="#69CBE0"/>
<stop offset="0.4621" stop-color="#6DD3C8"/>
<stop offset="0.6413" stop-color="#73DDA7"/>
<stop offset="0.8253" stop-color="#7AEB7C"/>
<stop offset="1" stop-color="#82FA4D"/>
</linearGradient>
<linearGradient id="paint31_linear_178_518" x1="96.681" y1="139.153" x2="113.376" y2="68.2588" gradientUnits="userSpaceOnUse">
<stop stop-color="#66C5F3"/>
<stop offset="0.1336" stop-color="#67C7EE"/>
<stop offset="0.2917" stop-color="#69CBE0"/>
<stop offset="0.4621" stop-color="#6DD3C8"/>
<stop offset="0.6413" stop-color="#73DDA7"/>
<stop offset="0.8253" stop-color="#7AEB7C"/>
<stop offset="1" stop-color="#82FA4D"/>
</linearGradient>
<linearGradient id="paint32_linear_178_518" x1="93.5065" y1="141.374" x2="116.724" y2="66.5751" gradientUnits="userSpaceOnUse">
<stop stop-color="#66C5F3"/>
<stop offset="0.1336" stop-color="#67C7EE"/>
<stop offset="0.2917" stop-color="#69CBE0"/>
<stop offset="0.4621" stop-color="#6DD3C8"/>
<stop offset="0.6413" stop-color="#73DDA7"/>
<stop offset="0.8253" stop-color="#7AEB7C"/>
<stop offset="1" stop-color="#82FA4D"/>
</linearGradient>
<linearGradient id="paint33_linear_178_518" x1="89.9192" y1="143.541" x2="120.418" y2="65.0274" gradientUnits="userSpaceOnUse">
<stop stop-color="#66C5F3"/>
<stop offset="0.1336" stop-color="#67C7EE"/>
<stop offset="0.2917" stop-color="#69CBE0"/>
<stop offset="0.4621" stop-color="#6DD3C8"/>
<stop offset="0.6413" stop-color="#73DDA7"/>
<stop offset="0.8253" stop-color="#7AEB7C"/>
<stop offset="1" stop-color="#82FA4D"/>
</linearGradient>
<linearGradient id="paint34_linear_178_518" x1="85.9312" y1="145.585" x2="124.526" y2="63.6454" gradientUnits="userSpaceOnUse">
<stop stop-color="#66C5F3"/>
<stop offset="0.1336" stop-color="#67C7EE"/>
<stop offset="0.2917" stop-color="#69CBE0"/>
<stop offset="0.4621" stop-color="#6DD3C8"/>
<stop offset="0.6413" stop-color="#73DDA7"/>
<stop offset="0.8253" stop-color="#7AEB7C"/>
<stop offset="1" stop-color="#82FA4D"/>
</linearGradient>
<linearGradient id="paint35_linear_178_518" x1="81.4795" y1="147.466" x2="129.029" y2="62.4468" gradientUnits="userSpaceOnUse">
<stop stop-color="#66C5F3"/>
<stop offset="0.1336" stop-color="#67C7EE"/>
<stop offset="0.2917" stop-color="#69CBE0"/>
<stop offset="0.4621" stop-color="#6DD3C8"/>
<stop offset="0.6413" stop-color="#73DDA7"/>
<stop offset="0.8253" stop-color="#7AEB7C"/>
<stop offset="1" stop-color="#82FA4D"/>
</linearGradient>
<linearGradient id="paint36_linear_178_518" x1="76.5851" y1="149.166" x2="133.963" y2="61.525" gradientUnits="userSpaceOnUse">
<stop stop-color="#66C5F3"/>
<stop offset="0.1336" stop-color="#67C7EE"/>
<stop offset="0.2917" stop-color="#69CBE0"/>
<stop offset="0.4621" stop-color="#6DD3C8"/>
<stop offset="0.6413" stop-color="#73DDA7"/>
<stop offset="0.8253" stop-color="#7AEB7C"/>
<stop offset="1" stop-color="#82FA4D"/>
</linearGradient>
<linearGradient id="paint37_linear_178_518" x1="71.1758" y1="150.604" x2="139.313" y2="60.8703" gradientUnits="userSpaceOnUse">
<stop stop-color="#66C5F3"/>
<stop offset="0.1336" stop-color="#67C7EE"/>
<stop offset="0.2917" stop-color="#69CBE0"/>
<stop offset="0.4621" stop-color="#6DD3C8"/>
<stop offset="0.6413" stop-color="#73DDA7"/>
<stop offset="0.8253" stop-color="#7AEB7C"/>
<stop offset="1" stop-color="#82FA4D"/>
</linearGradient>
<linearGradient id="paint38_linear_178_518" x1="65.292" y1="151.754" x2="145.12" y2="60.5992" gradientUnits="userSpaceOnUse">
<stop stop-color="#66C5F3"/>
<stop offset="0.1336" stop-color="#67C7EE"/>
<stop offset="0.2917" stop-color="#69CBE0"/>
<stop offset="0.4621" stop-color="#6DD3C8"/>
<stop offset="0.6413" stop-color="#73DDA7"/>
<stop offset="0.8253" stop-color="#7AEB7C"/>
<stop offset="1" stop-color="#82FA4D"/>
</linearGradient>
<linearGradient id="paint39_linear_178_518" x1="58.8867" y1="152.551" x2="151.367" y2="60.7435" gradientUnits="userSpaceOnUse">
<stop stop-color="#66C5F3"/>
<stop offset="0.1336" stop-color="#67C7EE"/>
<stop offset="0.2917" stop-color="#69CBE0"/>
<stop offset="0.4621" stop-color="#6DD3C8"/>
<stop offset="0.6413" stop-color="#73DDA7"/>
<stop offset="0.8253" stop-color="#7AEB7C"/>
<stop offset="1" stop-color="#82FA4D"/>
</linearGradient>
<linearGradient id="paint40_linear_178_518" x1="51.9451" y1="152.924" x2="158.053" y2="61.3629" gradientUnits="userSpaceOnUse">
<stop stop-color="#66C5F3"/>
<stop offset="0.1336" stop-color="#67C7EE"/>
<stop offset="0.2917" stop-color="#69CBE0"/>
<stop offset="0.4621" stop-color="#6DD3C8"/>
<stop offset="0.6413" stop-color="#73DDA7"/>
<stop offset="0.8253" stop-color="#7AEB7C"/>
<stop offset="1" stop-color="#82FA4D"/>
</linearGradient>
</defs>
</svg>
