<svg width="205" height="205" fill="none" xmlns="http://www.w3.org/2000/svg"><path d="M106.028 100.89c.047.314-.102.383-.154.764-.074.547.199.688.034 1.08-.199.383-.156.398.003.774.093.664-1.096 2.161-1.673 1.986-.267-.121-.373-.119-.69.011-.184.05-.269.017-.434.026-.251.013-.269.106-.659.236-.356.117-.347.043-.664.153-.384.134-.495.279-.64.215-.139-.061-.078-.208-.245-.392-.23-.253-.477-.117-.664-.359-.111-.145-.046-.227-.208-.474-.098-.151-.204-.244-.224-.262-.286-.249-.475-.151-.642-.339-.104-.119-.032-.163-.152-.621-.108-.42-.188-.459-.16-.645.035-.247.186-.262.215-.495.034-.284-.176-.357-.194-.619-.026-.403.456-.442.658-1.008.173-.491-.03-.905.24-1.086.035-.022.037-.018.289-.152.278-.147.308-.173.336-.21.124-.158.052-.303.154-.361.107-.063.215.082.378.08.291-.006.349-.487.662-.705 1.243-.476 2.067.573 3.011 1.616.59.811 1.267-.223 1.423.787Z" stroke="url(#a)" stroke-miterlimit="10"/><path d="M106.405 101.037c.028.34-.139.405-.223.807-.122.582.16.755-.044 1.16-.243.396-.197.415-.056.831.05.718-1.339 2.237-1.944 2.005-.278-.149-.39-.155-.74-.039-.201.041-.29-.002-.468-.004-.271-.004-.297.093-.725.203-.39.1-.375.02-.722.115-.423.115-.551.262-.703.182-.145-.076-.069-.23-.234-.439-.228-.29-.504-.16-.684-.435-.108-.165-.032-.247-.186-.526a1.326 1.326 0 0 0-.222-.296c-.288-.288-.498-.197-.661-.411-.104-.135-.024-.178-.117-.678-.085-.458-.167-.506-.124-.703.056-.261.22-.268.267-.515.058-.3-.163-.395-.16-.677.001-.432.522-.439.78-1.032.224-.515.035-.973.339-1.146.039-.022.04-.015.321-.141.31-.138.343-.164.377-.199.146-.16.08-.32.193-.376.12-.059.226.103.399.112.313.015.413-.495.764-.707 1.369-.418 2.176.77 3.109 1.958.568.915 1.371-.143 1.464.951Z" stroke="url(#b)" stroke-miterlimit="10"/><path d="M106.8 101.221c.004.366-.18.424-.3.851-.173.616.117.82-.134 1.241-.289.407-.243.431-.122.887 0 .775-1.603 2.3-2.236 2.006-.287-.182-.408-.197-.792-.097-.219.028-.313-.024-.501-.042-.291-.023-.326.078-.794.163-.428.078-.404-.007-.783.069-.462.093-.61.238-.768.143-.15-.093-.057-.251-.217-.487-.224-.327-.53-.21-.701-.517-.104-.184-.015-.268-.16-.578a1.485 1.485 0 0 0-.215-.335c-.287-.331-.52-.249-.68-.491-.101-.152-.012-.191-.073-.736-.056-.497-.141-.554-.08-.763.08-.277.256-.271.325-.533.085-.318-.143-.437-.121-.74.034-.463.594-.43.915-1.049.278-.534.11-1.04.45-1.205.043-.02.045-.013.355-.125.343-.126.382-.15.419-.186.167-.16.108-.34.234-.39.132-.054.234.13.419.152.334.04.479-.5.872-.701 1.501-.346 2.275.988 3.186 2.334.543 1.023 1.484-.05 1.502 1.129Z" stroke="url(#c)" stroke-miterlimit="10"/><path d="M107.208 101.451c-.024.393-.224.441-.387.889-.232.647.063.889-.236 1.322-.341.413-.293.443-.197.941-.059.831-1.892 2.347-2.55 1.984-.292-.217-.423-.243-.841-.165-.237.015-.332-.049-.534-.08-.308-.047-.356.059-.863.115-.465.052-.432-.037-.846.015-.504.065-.673.21-.833.095-.154-.11-.042-.272-.198-.538-.215-.368-.55-.267-.713-.608-.098-.206.002-.288-.13-.632-.081-.21-.185-.348-.205-.377-.282-.376-.54-.307-.692-.577-.097-.171.002-.206-.023-.794-.024-.537-.111-.606-.029-.824.107-.29.295-.271.389-.548.115-.335-.122-.48-.074-.802.071-.496.67-.418 1.06-1.058.34-.552.198-1.108.573-1.26.048-.019.05-.01.391-.108.377-.108.421-.132.464-.169.191-.16.143-.354.282-.4.145-.047.241.156.438.193.356.067.551-.5.987-.688 1.636-.258 2.367 1.23 3.244 2.741.503 1.147 1.592.065 1.523 1.333Z" stroke="url(#d)" stroke-miterlimit="10"/><path d="M107.629 101.728c-.055.419-.274.456-.48.923-.299.678 0 .959-.353 1.4-.397.418-.348.454-.282.995-.126.887-2.207 2.376-2.886 1.939-.297-.253-.436-.29-.889-.24-.254-.003-.354-.078-.566-.128-.328-.074-.386.037-.935.061-.501.019-.46-.074-.909-.048-.545.03-.738.175-.903.039-.156-.13-.024-.296-.171-.593-.202-.411-.57-.327-.72-.705-.09-.229.023-.31-.091-.686a1.768 1.768 0 0 0-.191-.417c-.276-.425-.556-.37-.699-.671-.091-.191.017-.221.035-.853.015-.577-.072-.657.03-.887.137-.305.336-.268.458-.558.15-.35-.093-.523-.02-.865.115-.526.751-.398 1.217-1.054.406-.567.295-1.174.71-1.306.052-.018.054-.007.427-.087.412-.089.46-.11.51-.147.217-.156.18-.37.332-.409.16-.041.247.186.455.24.378.1.63-.495 1.111-.664 1.775-.154 2.445 1.497 3.274 3.185.455 1.259 1.707.181 1.536 1.536Z" stroke="url(#e)" stroke-miterlimit="10"/><path d="M108.06 102.054c-.091.448-.327.468-.585.956-.371.704-.072 1.028-.486 1.476-.458.42-.408.461-.378 1.047-.201.941-2.544 2.384-3.239 1.863-.301-.294-.444-.344-.937-.323-.273-.021-.373-.11-.598-.179-.348-.104-.417.011-1.007-.007-.54-.015-.488-.112-.972-.119-.586-.006-.805.135-.97-.026-.158-.151-.004-.32-.139-.649-.186-.456-.587-.391-.718-.809-.078-.251.05-.329-.045-.744a1.824 1.824 0 0 0-.174-.463c-.262-.476-.568-.437-.698-.772-.083-.212.034-.236.1-.913.06-.619-.029-.71.1-.95.169-.316.379-.264.533-.565.187-.365-.06-.569.043-.93.163-.556.836-.372 1.387-1.04.477-.578.405-1.238.859-1.35.056-.014.058-.005.466-.061.449-.063.501-.084.558-.12.245-.15.221-.382.386-.412.173-.033.249.216.471.292.397.134.711-.485 1.24-.63 1.914-.032 2.51 1.79 3.272 3.661.393 1.391 1.816.329 1.531 1.767Z" stroke="url(#f)" stroke-miterlimit="10"/><path d="M108.496 102.437c-.13.472-.386.478-.698.982-.452.727-.154 1.097-.632 1.547-.522.416-.47.463-.483 1.095-.287.995-2.91 2.367-3.617 1.757-.299-.338-.451-.403-.98-.418-.291-.043-.391-.145-.629-.236-.365-.138-.447-.019-1.081-.082-.577-.056-.516-.158-1.032-.199-.627-.052-.872.082-1.04-.099-.158-.173.02-.344-.1-.708-.164-.502-.6-.465-.709-.921-.065-.277.078-.351.007-.801a1.923 1.923 0 0 0-.152-.508c-.247-.53-.577-.513-.692-.881-.074-.234.054-.251.176-.971.11-.66.023-.764.178-1.011.206-.326.427-.253.614-.564.227-.379-.022-.615.117-.995.214-.585.922-.336 1.564-1.013.555-.584.527-1.298 1.024-1.382.063-.011.063 0 .503-.03.486-.035.545-.053.607-.085.274-.145.265-.396.445-.415.189-.022.252.25.482.348.414.175.8-.467 1.379-.582 2.057.108 2.558 2.107 3.235 4.171.323 1.512 1.929.478 1.514 2.001Z" stroke="url(#g)" stroke-miterlimit="10"/><path d="M108.937 102.883c-.176.497-.452.485-.825.999-.538.747-.247 1.167-.794 1.612-.59.407-.54.461-.603 1.138-.382 1.045-3.299 2.322-4.009 1.612-.297-.385-.453-.465-1.019-.519-.308-.07-.408-.186-.658-.301-.379-.175-.477-.054-1.152-.169-.614-.104-.542-.207-1.093-.292-.668-.102-.942.024-1.106-.184-.157-.197.047-.368-.055-.766-.14-.551-.61-.543-.692-1.042-.05-.301.11-.37.068-.859-.026-.299-.109-.515-.124-.558-.224-.587-.58-.593-.677-.998-.06-.255.078-.264.263-1.027.169-.699.082-.818.266-1.071.245-.336.478-.24.703-.56.271-.39.022-.663.202-1.059.275-.61 1.015-.292 1.755-.969.64-.586.664-1.352 1.202-1.406.067-.007.069.004.542.004.523 0 .588-.015.658-.045.303-.134.314-.405.509-.411.206-.009.252.287.491.409.431.218.893-.442 1.523-.522 2.197.269 2.585 2.451 3.156 4.714.228 1.655 2.028.667 1.469 2.27Z" stroke="url(#h)" stroke-miterlimit="10"/><path d="M109.377 103.391c-.225.52-.52.485-.959 1.011-.633.759-.353 1.233-.972 1.668-.663.391-.613.454-.731 1.174-.488 1.093-3.714 2.242-4.423 1.43-.288-.434-.451-.534-1.054-.633-.326-.098-.425-.23-.681-.373-.395-.216-.51-.093-1.224-.266-.65-.158-.564-.261-1.15-.393-.71-.161-1.013-.046-1.173-.282-.152-.223.078-.389 0-.824-.109-.601-.614-.627-.664-1.17-.03-.327.145-.388.136-.916-.006-.322-.078-.56-.09-.607-.198-.647-.578-.68-.651-1.119-.046-.279.104-.277.358-1.084.234-.738.15-.872.368-1.13.289-.339.532-.222.796-.549.322-.396.074-.707.295-1.12.341-.634 1.111-.236 1.955-.907.729-.58.814-1.402 1.395-1.42.074-.001.074.012.581.046.562.04.632.028.71 0 .336-.12.369-.409.577-.404.221.006.247.329.497.476.447.266.991-.407 1.672-.446 2.337.452 2.59 2.821 3.031 5.294.115 1.794 2.119.868 1.401 2.544Z" stroke="url(#i)" stroke-miterlimit="10"/><path d="M109.809 103.971c-.282.541-.594.483-1.104 1.013-.738.768-.471 1.295-1.169 1.717-.742.37-.695.442-.873 1.205-.605 1.136-4.152 2.127-4.85 1.203-.278-.489-.445-.605-1.085-.759-.343-.128-.438-.279-.703-.45-.406-.262-.538-.139-1.29-.379-.688-.218-.586-.324-1.205-.508-.75-.225-1.082-.123-1.236-.39-.148-.25.113-.413.06-.884-.071-.654-.609-.721-.624-1.305-.009-.353.186-.405.215-.971.017-.346-.042-.608-.052-.658-.163-.707-.569-.77-.614-1.25-.029-.303.132-.29.466-1.136.306-.775.226-.924.48-1.184.334-.344.585-.199.893-.53.376-.402.133-.755.401-1.179.415-.653 1.209-.17 2.166-.826.826-.567.978-1.441 1.603-1.42.078.003.078.018.62.091.601.083.677.076.762.052.371-.106.425-.41.648-.39.237.025.241.37.497.548.46.318 1.093-.361 1.829-.352 2.473.66 2.564 3.221 2.853 5.904-.011 1.936 2.21 1.092 1.312 2.838Z" stroke="url(#j)" stroke-miterlimit="10"/><path d="M110.229 104.624c-.342.559-.672.472-1.26 1.004-.848.768-.603 1.355-1.382 1.755-.824.342-.776.422-1.026 1.227-.735 1.172-4.614 1.97-5.295.928-.261-.546-.432-.684-1.107-.896-.358-.162-.449-.331-.72-.534-.416-.312-.568-.189-1.358-.502-.72-.286-.605-.392-1.254-.636-.787-.297-1.152-.215-1.297-.509-.139-.281.152-.435.132-.945-.028-.708-.6-.818-.573-1.445.018-.379.23-.422.304-1.028.046-.37.002-.656-.006-.71-.122-.772-.551-.869-.564-1.386-.01-.327.162-.301.585-1.184.386-.807.313-.973.603-1.233.384-.344.645-.169 1-.502.432-.402.198-.798.519-1.235.492-.67 1.31-.093 2.384-.725.929-.547 1.156-1.473 1.827-1.402.084.009.082.024.659.145.638.134.72.132.812.112.405-.084.488-.408.726-.37.252.044.232.416.491.626.468.376 1.201-.305 1.987-.24 2.603.893 2.51 3.647 2.614 6.546-.152 2.073 2.293 1.333 1.199 3.139Z" stroke="url(#k)" stroke-miterlimit="10"/><path d="M110.631 105.356c-.41.573-.757.456-1.427.982-.968.761-.749 1.408-1.614 1.778-.909.305-.866.394-1.194 1.24-.876 1.203-5.095 1.77-5.748.599-.239-.603-.413-.766-1.12-1.043-.37-.201-.455-.389-.733-.627-.423-.366-.594-.244-1.419-.64-.75-.359-.618-.465-1.297-.775-.822-.376-1.22-.316-1.354-.642-.128-.312.198-.455.213-1.004.024-.76-.584-.922-.506-1.593.048-.404.278-.434.404-1.079a2.75 2.75 0 0 0 .045-.762c-.071-.837-.525-.973-.5-1.529.014-.35.197-.312.717-1.225.475-.837.408-1.02.74-1.278.438-.34.703-.134 1.109-.463.492-.4.273-.842.648-1.285.58-.682 1.413-.003 2.612-.6 1.037-.517 1.352-1.495 2.065-1.367.089.015.087.032.697.206.672.19.761.197.863.181.441-.06.553-.402.807-.342.267.065.217.464.48.708.475.44 1.31-.238 2.15-.11 2.724 1.153 2.416 4.1 2.312 7.219-.319 2.207 2.36 1.597 1.05 3.451Z" stroke="url(#l)" stroke-miterlimit="10"/><path d="M111.007 106.171c-.482.587-.849.433-1.606.948-1.095.744-.909 1.454-1.865 1.787-.998.26-.959.359-1.374 1.24-1.032 1.224-5.599 1.516-6.21.212-.211-.667-.385-.853-1.122-1.203-.384-.245-.46-.452-.74-.729-.425-.422-.618-.308-1.473-.792-.779-.444-.63-.545-1.332-.928-.852-.465-1.284-.431-1.403-.792-.113-.344.245-.472.303-1.06.083-.814-.555-1.032-.42-1.746.08-.431.331-.446.513-1.127a3.04 3.04 0 0 0 .107-.814c-.013-.902-.49-1.084-.423-1.676.043-.375.236-.318.861-1.262.573-.86.514-1.064.89-1.315.494-.331.763-.09 1.225-.413.56-.392.356-.883.792-1.33.672-.689 1.514.103 2.846-.449 1.152-.478 1.562-1.501 2.317-1.31.095.023.091.04.731.272.707.255.803.268.911.26.478-.033.625-.392.892-.308.282.089.197.513.462.794.475.507 1.425-.158 2.315.044 2.835 1.44 2.284 4.578 1.937 7.916-.51 2.345 2.41 1.891.866 3.781Z" stroke="url(#m)" stroke-miterlimit="10"/><path d="M111.349 107.076c-.562.592-.942.4-1.794.895-1.23.716-1.085 1.491-2.137 1.779-1.091.203-1.054.313-1.566 1.229-1.2 1.237-6.122 1.207-6.68-.236-.175-.732-.347-.944-1.113-1.374-.392-.29-.46-.519-.737-.837-.425-.485-.642-.377-1.521-.961-.803-.532-.633-.632-1.36-1.097-.881-.564-1.345-.558-1.447-.954-.096-.376.297-.489.406-1.114.15-.865-.519-1.149-.322-1.906.12-.457.389-.452.636-1.17.15-.438.174-.797.176-.866.054-.97-.445-1.198-.328-1.83.074-.398.276-.325 1.02-1.287.679-.883.633-1.104 1.054-1.346.556-.318.827-.039 1.345-.35.63-.38.45-.92.95-1.368.773-.688 1.617.225 3.087-.268 1.272-.426 1.79-1.493 2.584-1.233.1.032.093.05.764.346.739.326.839.346.959.348.514.002.698-.372.978-.262.295.117.173.565.436.885.473.58 1.54-.063 2.48.219 2.933 1.757 2.106 5.082 1.483 8.636-.72 2.475 2.445 2.207.647 4.122Z" stroke="url(#n)" stroke-miterlimit="10"/><path d="M111.648 108.069c-.646.592-1.039.359-1.991.826-1.373.675-1.276 1.519-2.426 1.746-1.184.136-1.154.257-1.772 1.201-1.38 1.237-6.656.837-7.146-.753-.134-.796-.301-1.036-1.089-1.558-.4-.342-.453-.59-.729-.952-.419-.551-.66-.452-1.557-1.144-.82-.632-.634-.725-1.376-1.277-.902-.67-1.401-.698-1.48-1.131-.073-.411.356-.502.521-1.166.226-.918-.468-1.272-.201-2.068.162-.481.45-.457.77-1.208.193-.458.245-.841.254-.915.13-1.036-.387-1.32-.213-1.988.11-.422.321-.327 1.189-1.305.794-.895.761-1.135 1.23-1.363.62-.3.89.02 1.468-.276.703-.36.55-.955 1.122-1.396.88-.681 1.718.361 3.332-.056 1.397-.362 2.031-1.47 2.864-1.13.104.044.097.061.794.429.77.407.876.435 1.002.443.553.04.779-.348 1.069-.207.309.147.144.618.4.982.464.655 1.655.05 2.642.42 3.013 2.105 1.876 5.607.941 9.374-.961 2.605 2.454 2.555.382 4.472Z" stroke="url(#o)" stroke-miterlimit="10"/><path d="M111.894 109.159c-.738.589-1.144.307-2.198.738-1.525.623-1.482 1.534-2.731 1.692-1.282.058-1.258.188-1.992 1.155-1.572 1.224-7.202.4-7.608-1.344-.082-.865-.245-1.133-1.052-1.752-.403-.396-.442-.669-.71-1.075-.407-.623-.672-.535-1.585-1.344-.833-.74-.625-.824-1.38-1.473-.917-.788-1.45-.855-1.5-1.324-.049-.448.42-.511.643-1.212.31-.967-.407-1.399-.06-2.232.21-.504.518-.457.915-1.238.243-.478.326-.885.34-.963.218-1.1-.316-1.445-.077-2.148.15-.445.368-.326 1.373-1.31.92-.9.902-1.163 1.423-1.372.688-.277.952.086 1.597-.187.78-.333.661-.982 1.308-1.414.996-.665 1.816.517 3.577.188 1.525-.284 2.289-1.424 3.159-.998.108.054.1.072.818.52.794.493.906.532 1.041.551.59.085.861-.313 1.163-.142.319.181.106.675.355 1.083.447.738 1.773.176 2.803.65 3.074 2.483 1.593 6.154.304 10.124-1.226 2.722 2.441 2.925.074 4.827Z" stroke="url(#p)" stroke-miterlimit="10"/><path d="M112.076 110.345c-.835.575-1.25.244-2.415.627-1.683.554-1.705 1.534-3.058 1.612-1.38-.035-1.365.108-2.224 1.09-1.779 1.197-7.755-.108-8.061-2.01-.024-.934-.178-1.235-.996-1.958-.404-.454-.425-.748-.681-1.207-.39-.701-.681-.623-1.601-1.56-.838-.854-.608-.932-1.37-1.683-.923-.913-1.492-1.025-1.511-1.534-.02-.482.49-.517.783-1.25.406-1.015-.332-1.532.104-2.399.262-.524.59-.45 1.076-1.26.297-.493.417-.923.438-1.005.317-1.167-.23-1.573.078-2.311.193-.465.421-.323 1.573-1.305 1.055-.897 1.055-1.179 1.63-1.363.759-.244 1.015.165 1.726-.08.864-.298.783-1.003 1.51-1.419 1.119-.638 1.909.69 3.825.47 1.657-.19 2.562-1.355 3.462-.833.113.064.102.084.84.618.815.589.932.639 1.076.669.626.134.945-.273 1.258-.067.327.218.065.731.299 1.19.425.826 1.887.322 2.957.904 3.111 2.893 1.243 6.722-.436 10.884-1.519 2.826 2.399 3.317-.282 5.18Z" stroke="url(#q)" stroke-miterlimit="10"/><path d="M112.18 111.632c-.939.554-1.358.169-2.636.493-1.846.467-1.943 1.519-3.401 1.499-1.478-.138-1.471.016-2.467 1.002-1.998 1.149-8.31-.697-8.495-2.758.043-1.004-.098-1.339-.922-2.175-.397-.517-.4-.835-.64-1.345-.367-.781-.686-.718-1.599-1.794-.833-.98-.581-1.045-1.343-1.908-.924-1.047-1.523-1.211-1.505-1.757.017-.519.564-.519.935-1.283.512-1.057-.241-1.668.293-2.565.32-.543.666-.44 1.25-1.27a4.46 4.46 0 0 0 .546-1.047c.427-1.227-.128-1.705.256-2.473.243-.485.475-.314 1.785-1.281 1.198-.883 1.222-1.186 1.85-1.341.834-.206 1.077.253 1.858.043.948-.255.915-1.02 1.727-1.409 1.247-.601 1.995.883 4.065.79 1.792-.08 2.85-1.261 3.777-.636.115.078.102.1.852.725.831.692.953.755 1.102.798.662.19 1.037-.223 1.354.022.336.257.013.79.232 1.298.393.917 2.003.487 3.105 1.192 3.119 3.336.828 7.304-1.285 11.641-1.841 2.921 2.324 3.741-.694 5.539Z" stroke="url(#r)" stroke-miterlimit="10"/><path d="M112.197 113.019c-1.05.523-1.469.08-2.863.331-2.016.363-2.2 1.482-3.762 1.354-1.573-.26-1.579-.095-2.723.891-2.23 1.084-8.864-1.369-8.905-3.593.124-1.073-.004-1.443-.824-2.402-.389-.584-.367-.926-.586-1.49-.336-.863-.681-.822-1.58-2.043-.82-1.114-.544-1.163-1.294-2.146-.912-1.192-1.543-1.412-1.484-1.997.056-.556.644-.512 1.097-1.306.63-1.097-.134-1.807.506-2.73.386-.559.748-.42 1.434-1.27.419-.517.625-.991.664-1.082.55-1.283-.01-1.84.462-2.633.297-.502.533-.303 2.01-1.24 1.352-.859 1.4-1.181 2.085-1.3.91-.158 1.135.353 1.99.184 1.037-.203 1.058-1.023 1.959-1.383 1.384-.551 2.074 1.097 4.302 1.153 1.928.048 3.152-1.14 4.098-.4.119.093.101.113.861.842.839.805.963.88 1.124.939.694.255 1.128-.16 1.451.125.34.303-.044.848.152 1.41.353 1.013 2.11.671 3.241 1.513 3.095 3.812.34 7.897-2.254 12.392-2.196 2.988 2.21 4.178-1.161 5.881Z" stroke="url(#s)" stroke-miterlimit="10"/><path d="M112.111 114.507c-1.165.485-1.582-.026-3.098.141-2.189.24-2.471 1.425-4.137 1.17-1.668-.396-1.688-.218-2.987.751-2.473.995-9.405-2.131-9.28-4.522.212-1.142.101-1.549-.706-2.637-.373-.656-.323-1.021-.514-1.644-.295-.952-.668-.933-1.542-2.309-.797-1.254-.497-1.289-1.228-2.399-.888-1.348-1.55-1.631-1.44-2.254.101-.593.728-.502 1.275-1.32.757-1.13-.007-1.95.748-2.89.456-.57.835-.396 1.636-1.255a5.082 5.082 0 0 0 .794-1.112c.685-1.335.128-1.973.692-2.79.356-.518.594-.284 2.25-1.18 1.514-.82 1.588-1.162 2.334-1.238.987-.101 1.19.463 2.12.347 1.127-.141 1.212-1.02 2.203-1.335 1.525-.487 2.142 1.33 4.528 1.557 2.065.197 3.467-.986 4.425-.12.12.108.1.13.862.966.839.926.967 1.017 1.134 1.09.727.325 1.222-.088 1.547.243.343.348-.111.907.056 1.523.302 1.114 2.213.878 3.363 1.863 3.033 4.32-.23 8.496-3.35 13.123-2.579 3.051 2.059 4.658-1.685 6.231Z" stroke="url(#t)" stroke-miterlimit="10"/><path d="M111.907 116.099c-1.287.433-1.694-.145-3.332-.08-2.367.093-2.758 1.346-4.526.946-1.759-.55-1.792-.362-3.26.582-2.727.882-9.927-2.99-9.615-5.545.313-1.21.228-1.653-.557-2.882-.35-.731-.27-1.118-.43-1.802-.245-1.043-.647-1.051-1.48-2.592-.759-1.406-.435-1.419-1.136-2.665-.85-1.513-1.538-1.865-1.376-2.525.154-.627.82-.485 1.469-1.32.898-1.155.139-2.09 1.02-3.046.531-.575.924-.361 1.848-1.222a5.487 5.487 0 0 0 .935-1.132c.837-1.382.286-2.107.952-2.942.421-.528.66-.26 2.504-1.097 1.685-.766 1.792-1.127 2.596-1.153 1.066-.035 1.244.584 2.248.53 1.219-.065 1.378-1.002 2.464-1.268 1.673-.409 2.198 1.588 4.74 2.01 2.2.366 3.795-.8 4.758.201.121.126.098.148.85 1.104.831 1.056.961 1.164 1.135 1.255.755.402 1.317-.003 1.642.376.341.4-.189.965-.054 1.638.241 1.218 2.308 1.107 3.467 2.25 2.928 4.861-.886 9.095-4.58 13.826-3.002 3.075 1.853 5.145-2.282 6.553Z" stroke="url(#u)" stroke-miterlimit="10"/><path d="M111.566 117.791c-1.412.368-1.807-.283-3.569-.335-2.544-.078-3.059 1.235-4.924.677-1.846-.723-1.896-.521-3.54.381-2.992.744-10.424-3.951-9.897-6.666.427-1.272.368-1.756-.382-3.132-.321-.812-.204-1.221-.326-1.965-.184-1.138-.614-1.175-1.392-2.89-.71-1.567-.36-1.556-1.02-2.945-.798-1.685-1.51-2.115-1.286-2.812.212-.662.915-.459 1.674-1.305 1.05-1.172.306-2.232 1.324-3.19.614-.578 1.02-.319 2.074-1.176a5.925 5.925 0 0 0 1.089-1.144c1.002-1.42.464-2.24 1.243-3.083.492-.534.726-.23 2.766-.99 1.865-.695 2.006-1.076 2.872-1.044 1.145.041 1.29.72 2.371.738 1.312.022 1.553-.971 2.74-1.175 1.824-.313 2.237 1.867 4.933 2.51 2.332.556 4.128-.573 5.087.571.12.143.096.165.829 1.246.811 1.195.944 1.32 1.122 1.43.778.49 1.412.096 1.733.526.336.454-.273 1.021-.182 1.752.167 1.325 2.392 1.361 3.549 2.672 2.774 5.435-1.634 9.69-5.953 14.489-3.445 3.074 1.607 5.66-2.935 6.86Z" stroke="url(#v)" stroke-miterlimit="10"/><path d="M111.076 119.58c-1.543.288-1.918-.437-3.803-.627-2.725-.273-3.374 1.097-5.333.357-1.926-.913-1.993-.701-3.826.145-3.265.573-10.884-5.017-10.114-7.89.553-1.333.527-1.856-.174-3.388-.282-.894-.128-1.324-.2-2.131-.11-1.233-.57-1.307-1.275-3.206-.644-1.733-.271-1.697-.872-3.235-.731-1.867-1.46-2.382-1.167-3.11.278-.695 1.017-.425 1.894-1.275 1.215-1.18.497-2.371 1.66-3.323.702-.576 1.117-.266 2.312-1.104a6.394 6.394 0 0 0 1.254-1.146c1.18-1.448.666-2.367 1.566-3.215.569-.537.796-.193 3.042-.855 2.054-.605 2.232-1.004 3.16-.904 1.226.13 1.33.87 2.489.97 1.408.12 1.739-.927 3.026-1.056 1.981-.2 2.258 2.17 5.102 3.06 2.46.771 4.474-.306 5.415.994.117.162.089.184.796 1.397.781 1.344.913 1.487 1.096 1.619.798.582 1.51.207 1.818.694.327.513-.371 1.073-.328 1.867.078 1.432 2.464 1.638 3.606 3.133 2.568 6.036-2.482 10.272-7.476 15.096-3.931 3.036 1.293 6.184-3.668 7.133Z" stroke="url(#w)" stroke-miterlimit="10"/><path d="M110.414 121.463c-1.677.192-2.024-.613-4.033-.959-2.903-.497-3.701.924-5.747-.015-1.998-1.123-2.087-.902-4.115-.132-3.545.37-11.298-6.194-10.257-9.221.695-1.389.705-1.951.07-3.647-.237-.98-.037-1.43-.055-2.302-.026-1.331-.514-1.445-1.128-3.533-.56-1.906-.162-1.839-.692-3.535-.642-2.058-1.386-2.665-1.017-3.425.351-.722 1.121-.378 2.128-1.227 1.39-1.172.71-2.505 2.03-3.44.797-.564 1.218-.2 2.565-1.01a6.925 6.925 0 0 0 1.432-1.135c1.375-1.465.893-2.489 1.922-3.332.648-.532.87-.147 3.328-.69 2.25-.496 2.47-.909 3.457-.734 1.306.232 1.361 1.032 2.597 1.225 1.501.233 1.935-.864 3.326-.907 2.141-.065 2.26 2.497 5.243 3.665 2.58 1.01 4.821.004 5.734 1.471.115.184.082.204.748 1.56.736 1.5.868 1.662 1.055 1.82.813.683 1.603.335 1.898.88.312.576-.477 1.125-.49 1.977-.024 1.543 2.518 1.941 3.631 3.63 2.302 6.666-3.434 10.833-9.155 15.634-4.449 2.966.918 6.735-4.475 7.382Z" stroke="url(#x)" stroke-miterlimit="10"/><path d="M109.562 123.431c-1.814.083-2.124-.809-4.255-1.328-3.076-.751-4.039.714-6.163-.446-2.059-1.354-2.17-1.123-4.404-.45-3.83.132-11.651-7.49-10.306-10.657.85-1.439.902-2.04.349-3.907-.178-1.069.067-1.536.115-2.473.072-1.43-.443-1.588-.944-3.875-.457-2.087-.037-1.986-.477-3.844-.536-2.257-1.289-2.962-.835-3.751.431-.75 1.232-.323 2.373-1.156 1.58-1.155.95-2.635 2.436-3.54.896-.544 1.321-.125 2.827-.893A7.399 7.399 0 0 0 91.898 86c1.586-1.466 1.146-2.602 2.31-3.429.738-.523.945-.093 3.621-.49 2.45-.364 2.719-.79 3.764-.529 1.384.346 1.382 1.21 2.693 1.508 1.592.364 2.141-.78 3.635-.722 2.302.088 2.237 2.847 5.348 4.324 2.692 1.277 5.17.366 6.04 2.006.108.205.071.225.685 1.728.677 1.662.807 1.848.994 2.03.82.794 1.694.48 1.969 1.086.291.64-.596 1.17-.674 2.085-.141 1.653 2.555 2.272 3.623 4.165 1.967 7.323-4.498 11.362-10.995 16.085-4.987 2.852.486 7.295-5.349 7.585Z" stroke="url(#y)" stroke-miterlimit="10"/><path d="M108.501 125.48c-1.951-.047-2.217-1.027-4.463-1.744-3.243-1.034-4.386.466-6.577-.939-2.107-1.605-2.243-1.367-4.69-.811-4.12-.145-11.936-8.905-10.255-12.204 1.02-1.48 1.121-2.122.668-4.167-.11-1.159.189-1.644.308-2.643.184-1.53-.356-1.738-.72-4.228-.334-2.271.11-2.13-.221-4.158-.404-2.46-1.159-3.273-.614-4.085.518-.772 1.347-.253 2.633-1.062 1.781-1.12 1.217-2.756 2.879-3.613 1.002-.517 1.427-.034 3.098-.746a8.056 8.056 0 0 0 1.822-1.071c1.812-1.456 1.423-2.704 2.738-3.505.829-.506 1.02-.028 3.92-.255 2.655-.208 2.976-.645 4.078-.286 1.458.476 1.391 1.4 2.775 1.82 1.681.508 2.356-.677 3.955-.504 2.462.268 2.184 3.221 5.412 5.038 2.792 1.571 5.519.78 6.326 2.603.102.23.061.247.606 1.906.6 1.835.726 2.042.913 2.252.82.913 1.781.643 2.03 1.313.265.708-.729 1.21-.88 2.185-.276 1.762 2.57 2.627 3.573 4.738 1.559 8.003-5.68 11.852-13.004 16.432-5.566 2.685-.03 7.86-6.31 7.734Z" stroke="url(#z)" stroke-miterlimit="10"/><path d="M107.208 127.598c-2.089-.197-2.302-1.268-4.656-2.204-3.4-1.353-4.742.17-6.985-1.502-2.137-1.88-2.304-1.633-4.97-1.22-4.408-.463-12.133-10.445-10.081-13.857 1.204-1.51 1.362-2.192 1.03-4.418-.032-1.252.326-1.748.53-2.812.312-1.627-.25-1.889-.456-4.589-.187-2.462.28-2.278.074-4.478-.248-2.67-.996-3.598-.352-4.429.614-.79 1.463-.17 2.905-.943 1.996-1.069 1.514-2.865 3.36-3.66 1.116-.48 1.534.069 3.38-.57a8.598 8.598 0 0 0 2.035-1.012c2.052-1.426 1.731-2.795 3.2-3.557.929-.48 1.096.046 4.226.02 2.864-.024 3.239-.468 4.395 0 1.527.618 1.386 1.605 2.84 2.159 1.764.673 2.577-.552 4.28-.245 2.621.472 2.102 3.62 5.426 5.81 2.876 1.892 5.861 1.247 6.59 3.264.091.253.046.268.506 2.09.507 2.012.625 2.245.809 2.483.811 1.043 1.861.822 2.08 1.56.23.779-.872 1.244-1.11 2.278-.428 1.87 2.559 3.01 3.475 5.35 1.069 8.7-6.983 12.289-15.183 16.653-6.17 2.468-.621 8.435-7.348 7.829Z" stroke="url(#A)" stroke-miterlimit="10"/><path d="M105.663 129.775c-2.225-.368-2.373-1.532-4.827-2.713-3.544-1.705-5.098-.173-7.38-2.131-2.152-2.177-2.347-1.926-5.239-1.681-4.692-.827-12.228-12.111-9.773-15.618 1.406-1.53 1.627-2.25 1.436-4.663.059-1.345.482-1.852.781-2.976.458-1.72-.126-2.045-.143-4.955-.015-2.654.47-2.423.417-4.798-.065-2.882-.799-3.933-.044-4.777.718-.8 1.582-.074 3.187-.794 2.221-.998 1.84-2.96 3.879-3.676 1.232-.433 1.64.188 3.668-.357a9.186 9.186 0 0 0 2.259-.934c2.308-1.376 2.067-2.87 3.698-3.575 1.03-.445 1.172.132 4.53.338 3.074.188 3.51-.26 4.714.329 1.592.779 1.367 1.826 2.885 2.529 1.842.852 2.805-.398 4.61.058 2.775.701 1.981 4.04 5.383 6.638 2.941 2.245 6.193 1.778 6.822 3.996.078.277.031.292.384 2.278.393 2.196.501 2.455.684 2.724.791 1.179 1.935 1.02 2.113 1.83.188.852-1.031 1.27-1.363 2.362-.599 1.973 2.521 3.421 3.326 6 .494 9.413-8.415 12.658-17.54 16.725-6.801 2.177-1.297 8.992-8.467 7.841Z" stroke="url(#B)" stroke-miterlimit="10"/><path d="M103.841 131.992c-2.361-.56-2.43-1.819-4.975-3.271-3.674-2.094-5.456-.567-7.755-2.838-2.144-2.497-2.373-2.242-5.493-2.196-4.972-1.238-12.205-13.907-9.307-17.483 1.623-1.536 1.914-2.291 1.892-4.894.165-1.439.655-1.95 1.06-3.135.621-1.81.018-2.202.22-5.326.182-2.85.688-2.564.807-5.115.145-3.096-.56-4.279.312-5.125.831-.805 1.703.04 3.478-.612 2.456-.902 2.195-3.037 4.439-3.652 1.353-.372 1.744.325 3.96-.108a9.874 9.874 0 0 0 2.493-.833c2.58-1.305 2.432-2.923 4.237-3.557 1.139-.4 1.245.227 4.836.701 3.282.433 3.785-.017 5.033.706 1.648.953 1.329 2.061 2.902 2.927 1.911 1.051 3.04-.219 4.94.406 2.924.96 1.822 4.48 5.276 7.523 2.987 2.63 6.508 2.37 7.018 4.796.063.303.011.314.241 2.473.256 2.384.353 2.672.527 2.972.761 1.325 2 1.24 2.13 2.12.137.93-1.2 1.286-1.638 2.432-.792 2.071 2.447 3.858 3.115 6.683-.178 10.134-9.979 12.949-20.071 16.629-7.462 1.828-2.071 9.549-9.677 7.777Z" stroke="url(#C)" stroke-miterlimit="10"/><path d="M101.719 134.236c-2.488-.779-2.47-2.136-5.089-3.879-3.783-2.521-5.81-1.015-8.105-3.626-2.113-2.839-2.377-2.581-5.727-2.767-5.239-1.699-12.046-15.83-8.669-19.45 1.857-1.525 2.226-2.315 2.397-5.108.287-1.532.849-2.042 1.374-3.284.802-1.897.184-2.362.635-5.696.41-3.042.931-2.698 1.252-5.426.39-3.31-.28-4.632.722-5.476.953-.8 1.825.169 3.777-.398 2.703-.785 2.584-3.094 5.035-3.585 1.48-.296 1.847.48 4.259.18a10.7 10.7 0 0 0 2.738-.708c2.865-1.205 2.829-2.953 4.814-3.498 1.251-.344 1.319.338 5.132 1.112 3.489.71 4.061.266 5.346 1.132 1.696 1.146 1.271 2.31 2.894 3.357 1.972 1.272 3.275-.006 5.269.805 3.063 1.248 1.616 4.944 5.092 8.463 3.006 3.044 6.803 3.03 7.167 5.67.046.332-.013.338.074 2.673.095 2.576.178 2.892.343 3.228.718 1.475 2.052 1.48 2.126 2.433.078 1.009-1.384 1.288-1.94 2.486-1.004 2.164 2.334 4.321 2.84 7.401-.952 10.857-11.678 13.143-22.781 16.337-8.152 1.406-2.95 10.092-10.975 7.624Z" stroke="url(#D)" stroke-miterlimit="10"/><path d="M99.276 136.483c-2.612-1.021-2.488-2.475-5.167-4.543-3.87-2.988-6.155-1.523-8.422-4.495-2.052-3.202-2.356-2.947-5.935-3.397-5.493-2.213-11.73-17.881-7.836-21.511 2.107-1.497 2.56-2.317 2.957-5.3.42-1.623 1.065-2.13 1.72-3.419 1.003-1.975.376-2.52 1.111-6.062.67-3.232 1.202-2.825 1.75-5.727.667-3.52.05-4.989 1.187-5.82 1.08-.787 1.944.319 4.081-.144 2.959-.64 3.002-3.124 5.67-3.47 1.61-.208 1.945.653 4.554.51a11.479 11.479 0 0 0 2.99-.554c3.165-1.077 3.256-2.955 5.425-3.392 1.369-.277 1.391.46 5.422 1.577 3.687 1.021 4.336.589 5.649 1.614 1.733 1.357 1.188 2.572 2.852 3.819 2.02 1.512 3.515.238 5.591 1.259 3.193 1.568 1.362 5.424 4.827 9.458 2.996 3.49 7.07 3.758 7.263 6.618.024.36-.039.362-.124 2.871-.093 2.772-.026 3.116.124 3.49.657 1.638 2.089 1.739 2.095 2.769.007 1.086-1.581 1.279-2.269 2.521-1.241 2.245 2.178 4.809 2.491 8.151-1.84 11.573-13.513 13.223-25.664 15.817-8.847.903-3.92 10.608-12.342 7.36Z" stroke="url(#E)" stroke-miterlimit="10"/><path d="M96.487 138.71c-2.725-1.29-2.484-2.841-5.203-5.26-3.926-3.494-6.488-2.094-8.694-5.452-1.962-3.587-2.306-3.336-6.112-4.086-5.724-2.787-11.237-20.058-6.787-23.66 2.37-1.45 2.922-2.293 3.568-5.463.575-1.707 1.302-2.202 2.102-3.539 1.224-2.042.593-2.674 1.647-6.419.96-3.418 1.501-2.94 2.308-6.012.98-3.728.427-5.348 1.71-6.153 1.219-.764 2.06.487 4.388.151 3.222-.465 3.456-3.126 6.343-3.297 1.742-.101 2.037.846 4.847.89 1.714.025 3-.306 3.247-.37 3.476-.92 3.716-2.928 6.075-3.235 1.49-.195 1.455.6 5.696 2.099 3.879 1.371 4.608.956 5.938 2.154 1.757 1.584 1.082 2.85 2.772 4.31 2.053 1.772 3.753.52 5.903 1.768 3.306 1.92 1.055 5.919 4.465 10.505 2.95 3.968 7.3 4.56 7.291 7.642 0 .385-.069.385-.347 3.07-.308 2.966-.263 3.34-.13 3.751.583 1.804 2.111 2.023 2.041 3.128-.074 1.167-1.792 1.253-2.623 2.534-1.499 2.315 1.975 5.322 2.057 8.931-2.844 12.275-15.489 13.173-28.718 15.046-9.55.301-4.996 11.082-13.784 6.967Z" stroke="url(#F)" stroke-miterlimit="10"/><path d="M93.326 140.893c-2.825-1.588-2.452-3.233-5.185-6.03-3.948-4.041-6.801-2.732-8.918-6.499-1.833-3.996-2.224-3.751-6.248-4.84-5.931-3.416-10.545-22.355-5.502-25.885 2.653-1.376 3.306-2.242 4.24-5.593.743-1.789 1.561-2.265 2.52-3.639 1.467-2.1.837-2.823 2.25-6.763 1.288-3.593 1.83-3.041 2.928-6.276 1.332-3.924.862-5.705 2.298-6.473 1.364-.729 2.173.677 4.697.491 3.49-.257 3.941-3.096 7.05-3.061 1.876.02 2.122 1.06 5.13 1.315 1.836.156 3.242-.101 3.513-.153 3.796-.727 4.206-2.863 6.76-3.014 1.611-.097 1.516.75 5.952 2.676 4.059 1.761 4.871 1.37 6.207 2.754 1.766 1.83.946 3.137 2.649 4.829 2.067 2.055 3.987.837 6.198 2.339 3.401 2.308.685 6.427 4 11.605 2.866 4.476 7.489 5.438 7.248 8.742-.031.413-.104.409-.603 3.267-.553 3.158-.534 3.563-.421 4.015.49 1.98 2.111 2.328 1.952 3.507-.167 1.244-2.017 1.21-3.004 2.523-1.784 2.371 1.718 5.856 1.533 9.733-3.972 12.955-17.606 12.972-31.935 13.993-10.265-.398-6.191 11.506-15.31 6.437Z" stroke="url(#G)" stroke-miterlimit="10"/><path d="M89.772 142.995c-2.91-1.914-2.386-3.649-5.106-6.856-3.931-4.629-7.09-3.439-9.077-7.637-1.666-4.422-2.102-4.19-6.339-5.659-6.105-4.109-9.63-24.767-3.953-28.18 2.949-1.278 3.715-2.156 4.968-5.682.933-1.863 1.847-2.313 2.979-3.715 1.731-2.144 1.11-2.966 2.92-7.085 1.653-3.76 2.193-3.127 3.612-6.512 1.725-4.111 1.354-6.056 2.95-6.77 1.519-.68 2.28.887 5 .876 3.764-.015 4.463-3.026 7.795-2.756 2.011.162 2.196 1.294 5.406 1.796 1.957.305 3.484.134 3.779.097 4.129-.495 4.727-2.754 7.478-2.728 1.738.017 1.571.92 6.185 3.317 4.22 2.193 5.12 1.834 6.45 3.42 1.757 2.096.778 3.436 2.479 5.378 2.063 2.358 4.213 1.197 6.471 2.97 3.476 2.731.252 6.948 3.417 12.746 2.738 5.017 7.623 6.393 7.116 9.92-.063.44-.141.43-.894 3.458-.831 3.347-.84 3.782-.755 4.275.375 2.162 2.089 2.655 1.831 3.91-.273 1.322-2.254 1.146-3.412 2.481-2.09 2.41 1.401 6.411.913 10.556-5.237 13.599-19.861 12.598-35.309 12.619-10.98-1.192-7.504 11.882-16.904 5.761Z" stroke="url(#H)" stroke-miterlimit="10"/><path d="M85.802 144.984c-2.978-2.272-2.284-4.094-4.963-7.737-3.868-5.261-7.348-4.221-9.162-8.87-1.453-4.868-1.939-4.651-6.373-6.544-6.24-4.864-8.467-27.288-2.122-30.522 3.259-1.151 4.146-2.036 5.756-5.725 1.14-1.93 2.154-2.343 3.473-3.762 2.017-2.17 1.414-3.1 3.666-7.382 2.054-3.91 2.586-3.189 4.365-6.715 2.158-4.28 1.907-6.393 3.673-7.042 1.679-.617 2.38 1.123 5.297 1.315 4.037.266 5.014-2.912 8.567-2.373 2.146.324 2.258 1.553 5.662 2.33 2.076.474 3.727.402 4.046.387 4.465-.223 5.278-2.6 8.226-2.367 1.862.15 1.616 1.104 6.385 4.02 4.362 2.668 5.354 2.35 6.662 4.15 1.727 2.38.577 3.742 2.254 5.953 2.035 2.685 4.43 1.6 6.718 3.672 3.523 3.189-.251 7.47 2.708 13.928 2.56 5.586 7.697 7.427 6.888 11.174-.102.47-.185.45-1.22 3.643-1.143 3.527-1.184 3.994-1.13 4.529.241 2.345 2.041 3.002 1.671 4.329-.393 1.397-2.504 1.06-3.847 2.405-2.423 2.43 1.022 6.98.187 11.391-6.639 14.197-22.252 12.027-38.823 10.895-11.687-2.096-8.942 12.187-18.564 4.918Z" stroke="url(#I)" stroke-miterlimit="10"/><path d="M81.394 146.823c-3.024-2.659-2.143-4.563-4.742-8.669-3.753-5.933-7.563-5.076-9.16-10.201-1.192-5.331-1.73-5.136-6.342-7.496-6.328-5.684-7.031-29.904.02-32.898 3.58-.99 4.6-1.873 6.605-5.71 1.369-1.983 2.486-2.35 4.009-3.774 2.328-2.177 1.75-3.22 4.488-7.646 2.5-4.04 3.016-3.228 5.187-6.878 2.636-4.428 2.528-6.715 4.471-7.278 1.849-.534 2.47 1.383 5.584 1.807 4.31.586 5.597-2.748 9.37-1.906 2.278.508 2.306 1.835 5.898 2.923 2.191.664 3.968.712 4.311.718 4.805.095 5.857-2.395 9.001-1.923 1.987.298 1.651 1.304 6.547 4.79 4.477 3.189 5.566 2.92 6.833 4.95 1.675 2.682.339 4.058 1.97 6.555 1.981 3.03 4.632 2.047 6.931 4.441 3.539 3.685-.833 7.994 1.855 15.142 2.326 6.184 7.697 8.544 6.547 12.501-.143.495-.232.469-1.581 3.816-1.491 3.698-1.571 4.195-1.553 4.773.082 2.533 1.965 3.375 1.466 4.768-.525 1.471-2.766.95-4.306 2.293-2.781 2.423.57 7.564-.657 12.232-8.19 14.731-24.773 11.237-42.464 8.784-12.385-3.124-10.515 12.401-20.288 3.886Z" stroke="url(#J)" stroke-miterlimit="10"/><path d="M76.526 148.462c-3.043-3.078-1.954-5.053-4.434-9.653-3.58-6.644-7.732-6.01-9.06-11.626-.878-5.807-1.47-5.638-6.24-8.516-6.36-6.57-5.292-32.603 2.496-35.285 3.918-.794 5.077-1.666 7.515-5.63 1.616-2.025 2.844-2.336 4.584-3.749 2.66-2.16 2.12-3.32 5.389-7.864 2.983-4.145 3.477-3.237 6.08-6.988 3.161-4.554 3.215-7.014 5.344-7.473 2.021-.435 2.542 1.668 5.852 2.356 4.58.952 6.211-2.529 10.192-1.343 2.404.716 2.335 2.14 6.107 3.576 2.302.876 4.202 1.06 4.569 1.092 5.148.461 6.462-2.13 9.799-1.388 2.108.469 1.672 1.523 6.662 5.627 4.564 3.753 5.751 3.55 6.957 5.822 1.595 3.002.057 4.378 1.621 7.178 1.898 3.399 4.814 2.54 7.1 5.28 3.519 4.218-1.495 8.512.853 16.382 2.03 6.807 7.612 9.74 6.083 13.899-.191.521-.285.486-1.983 3.976-1.877 3.855-2 4.381-2.024 5.004-.102 2.724 1.852 3.767 1.215 5.225-.675 1.538-3.038.813-4.793 2.137-3.167 2.393.044 8.156-1.624 13.072-9.893 15.187-27.417 10.198-46.208 6.246-13.045-4.284-12.207 12.511-22.052 2.643Z" stroke="url(#K)" stroke-miterlimit="10"/><path d="M71.183 149.86c-3.032-3.531-1.716-5.566-4.03-10.687-3.341-7.395-7.84-7.025-8.843-13.15-.505-6.295-1.152-6.157-6.052-9.601-6.328-7.523-3.224-35.366 5.332-37.664 4.263-.56 5.571-1.406 8.484-5.475 1.888-2.051 3.226-2.294 5.2-3.68 3.016-2.118 2.523-3.406 6.372-8.033 3.512-4.223 3.972-3.211 7.048-7.042 3.734-4.648 3.977-7.285 6.294-7.616 2.201-.316 2.603 1.98 6.102 2.964 4.842 1.363 6.851-2.248 11.033-.68 2.526.948 2.343 2.471 6.283 4.295 2.401 1.112 4.428 1.452 4.818 1.515 5.489.88 7.092-1.803 10.617-.758 2.226.66 1.679 1.76 6.723 6.534 4.612 4.368 5.903 4.238 7.024 6.765 1.484 3.34-.266 4.701 1.198 7.821 1.779 3.788 4.972 3.085 7.22 6.196 3.458 4.786-2.244 9.018-.319 17.635 1.664 7.453 7.434 11.016 5.48 15.362-.246.545-.341.5-2.426 4.117-2.304 3.996-2.475 4.55-2.549 5.216-.314 2.915 1.705 4.178.909 5.697-.839 1.599-3.319.644-5.3 1.934-3.577 2.328-.566 8.751-2.724 13.9-11.754 15.551-30.176 8.89-50.035 3.243-13.678-5.566-14.042 12.511-23.859 1.192Z" stroke="url(#L)" stroke-miterlimit="10"/><path d="M65.345 150.957c-2.987-4.013-1.423-6.101-3.518-11.765-3.027-8.182-7.882-8.122-8.496-14.765-.07-6.792-.772-6.692-5.77-10.753-6.222-8.543-.799-38.176 8.551-40 4.615-.281 6.081-1.092 9.513-5.24 2.178-2.06 3.634-2.22 5.853-3.556 3.395-2.047 2.961-3.464 7.439-8.14 4.085-4.268 4.503-3.147 8.092-7.026 4.353-4.706 4.813-7.516 7.321-7.7 2.386-.173 2.642 2.317 6.322 3.637 5.091 1.826 7.519-1.9 11.886.097 2.638 1.205 2.327 2.826 6.415 5.076 2.492 1.371 4.64 1.888 5.054 1.983 5.821 1.355 7.743-1.404 11.446-.019 2.338.874 1.668 2.012 6.718 7.511 4.619 5.033 6.014 4.987 7.027 7.782 1.341 3.693-.64 5.022.696 8.481 1.625 4.197 5.101 3.682 7.279 7.187 3.349 5.394-3.085 9.506-1.669 18.891 1.226 8.12 7.146 12.373 4.723 16.888-.304.565-.403.511-2.911 4.234-2.773 4.113-2.998 4.695-3.126 5.404-.558 3.103 1.514 4.611.546 6.177-1.019 1.653-3.609.444-5.831 1.679-4.011 2.231-1.265 9.346-3.968 14.705-13.777 15.802-33.037 7.278-53.913-.264-14.25-6.99-16.001 12.373-25.679-.504Z" stroke="url(#M)" stroke-miterlimit="10"/><path d="M59.002 151.699c-2.903-4.528-1.067-6.65-2.89-12.883-2.631-9.002-7.842-9.303-8.002-16.475.436-7.289-.326-7.235-5.383-11.964-6.03-9.629 2.016-41.01 12.181-42.265 4.97.043 6.604-.716 10.598-4.909 2.493-2.047 4.065-2.11 6.547-3.377 3.794-1.94 3.439-3.494 8.59-8.174 4.704-4.273 5.066-3.04 9.208-6.931 5.024-4.723 5.727-7.702 8.434-7.71 2.573-.01 2.66 2.682 6.508 4.374 5.324 2.338 8.207-1.476 12.743.993 2.738 1.49 2.284 3.204 6.5 5.923 2.57 1.657 4.835 2.373 5.273 2.508 6.142 1.888 8.411-.926 12.279.837 2.443 1.114 1.638 2.282 6.643 8.56 4.577 5.742 6.074 5.8 6.95 8.873 1.161 4.063-1.065 5.34.111 9.147 1.425 4.623 5.196 4.331 7.265 8.254 3.187 6.033-4.024 9.964-3.211 20.139.703 8.801 6.734 13.807 3.795 18.47-.369.584-.471.519-3.443 4.324-3.282 4.204-3.569 4.812-3.76 5.563-.83 3.286 1.278 5.058.122 6.667-1.219 1.696-3.905.206-6.38 1.363-4.471 2.092-2.061 9.931-5.363 15.478-15.967 15.92-35.983 5.335-57.812-4.316-14.756-8.572-18.09 12.065-27.503-2.469Z" stroke="url(#N)" stroke-miterlimit="10"/><path d="M52.142 152.019c-2.772-5.075-.644-7.213-2.13-14.034-2.145-9.852-7.712-10.564-7.343-18.27 1.015-7.787.195-7.785-4.872-13.236-5.745-10.779 5.245-43.84 16.244-44.427 5.328.418 7.137-.275 11.736-4.474 2.827-2.01 4.519-1.958 7.276-3.135 4.217-1.798 3.95-3.49 9.83-8.126 5.364-4.23 5.664-2.882 10.397-6.745 5.745-4.69 6.723-7.832 9.626-7.64 2.759.184 2.653 3.079 6.651 5.178 5.534 2.905 8.914-.97 13.594 2.018 2.824 1.804 2.208 3.609 6.527 6.84 2.634 1.972 5.009 2.906 5.469 3.084 6.445 2.483 9.092-.366 13.108 1.815 2.536 1.376 1.585 2.57 6.482 9.68 4.477 6.5 6.078 6.676 6.79 10.035.939 4.444-1.545 5.647-.571 9.82 1.183 5.067 5.246 5.035 7.172 9.396 2.964 6.711-5.065 10.389-4.957 21.362.093 9.491 6.185 15.313 2.681 20.094-.438.6-.544.522-4.017 4.381-3.838 4.265-4.191 4.896-4.45 5.686-1.139 3.464.99 5.521-.371 7.161-1.433 1.729-4.204-.071-6.946.984-4.953 1.911-2.957 10.497-6.916 16.2-18.322 15.882-39.001 3.031-61.686-8.954-15.192-10.285-20.32 11.602-29.323-4.693Z" stroke="url(#O)" stroke-miterlimit="10"/><defs><linearGradient id="a" x1="106.053" y1="100.842" x2="98.86" y2="103.569" gradientUnits="userSpaceOnUse"><stop stop-color="#66C5F3"/><stop offset=".134" stop-color="#67C7EE"/><stop offset=".292" stop-color="#69CBE0"/><stop offset=".462" stop-color="#6DD3C8"/><stop offset=".641" stop-color="#73DDA7"/><stop offset=".825" stop-color="#7AEB7C"/><stop offset="1" stop-color="#82FA4D"/></linearGradient><linearGradient id="b" x1="106.445" y1="100.989" x2="98.521" y2="103.38" gradientUnits="userSpaceOnUse"><stop stop-color="#66C5F3"/><stop offset=".134" stop-color="#67C7EE"/><stop offset=".292" stop-color="#69CBE0"/><stop offset=".462" stop-color="#6DD3C8"/><stop offset=".641" stop-color="#73DDA7"/><stop offset=".825" stop-color="#7AEB7C"/><stop offset="1" stop-color="#82FA4D"/></linearGradient><linearGradient id="c" x1="106.846" y1="101.179" x2="98.163" y2="103.148" gradientUnits="userSpaceOnUse"><stop stop-color="#66C5F3"/><stop offset=".134" stop-color="#67C7EE"/><stop offset=".292" stop-color="#69CBE0"/><stop offset=".462" stop-color="#6DD3C8"/><stop offset=".641" stop-color="#73DDA7"/><stop offset=".825" stop-color="#7AEB7C"/><stop offset="1" stop-color="#82FA4D"/></linearGradient><linearGradient id="d" x1="107.243" y1="101.401" x2="97.787" y2="102.85" gradientUnits="userSpaceOnUse"><stop stop-color="#66C5F3"/><stop offset=".134" stop-color="#67C7EE"/><stop offset=".292" stop-color="#69CBE0"/><stop offset=".462" stop-color="#6DD3C8"/><stop offset=".641" stop-color="#73DDA7"/><stop offset=".825" stop-color="#7AEB7C"/><stop offset="1" stop-color="#82FA4D"/></linearGradient><linearGradient id="e" x1="107.68" y1="101.681" x2="97.424" y2="102.529" gradientUnits="userSpaceOnUse"><stop stop-color="#66C5F3"/><stop offset=".134" stop-color="#67C7EE"/><stop offset=".292" stop-color="#69CBE0"/><stop offset=".462" stop-color="#6DD3C8"/><stop offset=".641" stop-color="#73DDA7"/><stop offset=".825" stop-color="#7AEB7C"/><stop offset="1" stop-color="#82FA4D"/></linearGradient><linearGradient id="f" x1="108.12" y1="102.017" x2="97.049" y2="102.156" gradientUnits="userSpaceOnUse"><stop stop-color="#66C5F3"/><stop offset=".134" stop-color="#67C7EE"/><stop offset=".292" stop-color="#69CBE0"/><stop offset=".462" stop-color="#6DD3C8"/><stop offset=".641" stop-color="#73DDA7"/><stop offset=".825" stop-color="#7AEB7C"/><stop offset="1" stop-color="#82FA4D"/></linearGradient><linearGradient id="g" x1="108.564" y1="102.401" x2="96.68" y2="101.718" gradientUnits="userSpaceOnUse"><stop stop-color="#66C5F3"/><stop offset=".134" stop-color="#67C7EE"/><stop offset=".292" stop-color="#69CBE0"/><stop offset=".462" stop-color="#6DD3C8"/><stop offset=".641" stop-color="#73DDA7"/><stop offset=".825" stop-color="#7AEB7C"/><stop offset="1" stop-color="#82FA4D"/></linearGradient><linearGradient id="h" x1="109.005" y1="102.852" x2="96.308" y2="101.22" gradientUnits="userSpaceOnUse"><stop stop-color="#66C5F3"/><stop offset=".134" stop-color="#67C7EE"/><stop offset=".292" stop-color="#69CBE0"/><stop offset=".462" stop-color="#6DD3C8"/><stop offset=".641" stop-color="#73DDA7"/><stop offset=".825" stop-color="#7AEB7C"/><stop offset="1" stop-color="#82FA4D"/></linearGradient><linearGradient id="i" x1="109.458" y1="103.361" x2="95.963" y2="100.661" gradientUnits="userSpaceOnUse"><stop stop-color="#66C5F3"/><stop offset=".134" stop-color="#67C7EE"/><stop offset=".292" stop-color="#69CBE0"/><stop offset=".462" stop-color="#6DD3C8"/><stop offset=".641" stop-color="#73DDA7"/><stop offset=".825" stop-color="#7AEB7C"/><stop offset="1" stop-color="#82FA4D"/></linearGradient><linearGradient id="j" x1="109.899" y1="103.933" x2="95.635" y2="100.023" gradientUnits="userSpaceOnUse"><stop stop-color="#66C5F3"/><stop offset=".134" stop-color="#67C7EE"/><stop offset=".292" stop-color="#69CBE0"/><stop offset=".462" stop-color="#6DD3C8"/><stop offset=".641" stop-color="#73DDA7"/><stop offset=".825" stop-color="#7AEB7C"/><stop offset="1" stop-color="#82FA4D"/></linearGradient><linearGradient id="k" x1="110.339" y1="104.588" x2="95.335" y2="99.329" gradientUnits="userSpaceOnUse"><stop stop-color="#66C5F3"/><stop offset=".134" stop-color="#67C7EE"/><stop offset=".292" stop-color="#69CBE0"/><stop offset=".462" stop-color="#6DD3C8"/><stop offset=".641" stop-color="#73DDA7"/><stop offset=".825" stop-color="#7AEB7C"/><stop offset="1" stop-color="#82FA4D"/></linearGradient><linearGradient id="l" x1="110.741" y1="105.336" x2="95.039" y2="98.56" gradientUnits="userSpaceOnUse"><stop stop-color="#66C5F3"/><stop offset=".134" stop-color="#67C7EE"/><stop offset=".292" stop-color="#69CBE0"/><stop offset=".462" stop-color="#6DD3C8"/><stop offset=".641" stop-color="#73DDA7"/><stop offset=".825" stop-color="#7AEB7C"/><stop offset="1" stop-color="#82FA4D"/></linearGradient><linearGradient id="m" x1="111.126" y1="106.153" x2="94.798" y2="97.707" gradientUnits="userSpaceOnUse"><stop stop-color="#66C5F3"/><stop offset=".134" stop-color="#67C7EE"/><stop offset=".292" stop-color="#69CBE0"/><stop offset=".462" stop-color="#6DD3C8"/><stop offset=".641" stop-color="#73DDA7"/><stop offset=".825" stop-color="#7AEB7C"/><stop offset="1" stop-color="#82FA4D"/></linearGradient><linearGradient id="n" x1="111.476" y1="107.051" x2="94.607" y2="96.768" gradientUnits="userSpaceOnUse"><stop stop-color="#66C5F3"/><stop offset=".134" stop-color="#67C7EE"/><stop offset=".292" stop-color="#69CBE0"/><stop offset=".462" stop-color="#6DD3C8"/><stop offset=".641" stop-color="#73DDA7"/><stop offset=".825" stop-color="#7AEB7C"/><stop offset="1" stop-color="#82FA4D"/></linearGradient><linearGradient id="o" x1="111.798" y1="108.061" x2="94.474" y2="95.772" gradientUnits="userSpaceOnUse"><stop stop-color="#66C5F3"/><stop offset=".134" stop-color="#67C7EE"/><stop offset=".292" stop-color="#69CBE0"/><stop offset=".462" stop-color="#6DD3C8"/><stop offset=".641" stop-color="#73DDA7"/><stop offset=".825" stop-color="#7AEB7C"/><stop offset="1" stop-color="#82FA4D"/></linearGradient><linearGradient id="p" x1="112.041" y1="109.158" x2="94.386" y2="94.67" gradientUnits="userSpaceOnUse"><stop stop-color="#66C5F3"/><stop offset=".134" stop-color="#67C7EE"/><stop offset=".292" stop-color="#69CBE0"/><stop offset=".462" stop-color="#6DD3C8"/><stop offset=".641" stop-color="#73DDA7"/><stop offset=".825" stop-color="#7AEB7C"/><stop offset="1" stop-color="#82FA4D"/></linearGradient><linearGradient id="q" x1="112.249" y1="110.37" x2="94.391" y2="93.516" gradientUnits="userSpaceOnUse"><stop stop-color="#66C5F3"/><stop offset=".134" stop-color="#67C7EE"/><stop offset=".292" stop-color="#69CBE0"/><stop offset=".462" stop-color="#6DD3C8"/><stop offset=".641" stop-color="#73DDA7"/><stop offset=".825" stop-color="#7AEB7C"/><stop offset="1" stop-color="#82FA4D"/></linearGradient><linearGradient id="r" x1="112.362" y1="111.658" x2="94.483" y2="92.243" gradientUnits="userSpaceOnUse"><stop stop-color="#66C5F3"/><stop offset=".134" stop-color="#67C7EE"/><stop offset=".292" stop-color="#69CBE0"/><stop offset=".462" stop-color="#6DD3C8"/><stop offset=".641" stop-color="#73DDA7"/><stop offset=".825" stop-color="#7AEB7C"/><stop offset="1" stop-color="#82FA4D"/></linearGradient><linearGradient id="s" x1="112.376" y1="113.063" x2="94.657" y2="90.893" gradientUnits="userSpaceOnUse"><stop stop-color="#66C5F3"/><stop offset=".134" stop-color="#67C7EE"/><stop offset=".292" stop-color="#69CBE0"/><stop offset=".462" stop-color="#6DD3C8"/><stop offset=".641" stop-color="#73DDA7"/><stop offset=".825" stop-color="#7AEB7C"/><stop offset="1" stop-color="#82FA4D"/></linearGradient><linearGradient id="t" x1="112.299" y1="114.581" x2="94.951" y2="89.476" gradientUnits="userSpaceOnUse"><stop stop-color="#66C5F3"/><stop offset=".134" stop-color="#67C7EE"/><stop offset=".292" stop-color="#69CBE0"/><stop offset=".462" stop-color="#6DD3C8"/><stop offset=".641" stop-color="#73DDA7"/><stop offset=".825" stop-color="#7AEB7C"/><stop offset="1" stop-color="#82FA4D"/></linearGradient><linearGradient id="u" x1="112.103" y1="116.173" x2="95.389" y2="87.951" gradientUnits="userSpaceOnUse"><stop stop-color="#66C5F3"/><stop offset=".134" stop-color="#67C7EE"/><stop offset=".292" stop-color="#69CBE0"/><stop offset=".462" stop-color="#6DD3C8"/><stop offset=".641" stop-color="#73DDA7"/><stop offset=".825" stop-color="#7AEB7C"/><stop offset="1" stop-color="#82FA4D"/></linearGradient><linearGradient id="v" x1="111.773" y1="117.888" x2="95.959" y2="86.37" gradientUnits="userSpaceOnUse"><stop stop-color="#66C5F3"/><stop offset=".134" stop-color="#67C7EE"/><stop offset=".292" stop-color="#69CBE0"/><stop offset=".462" stop-color="#6DD3C8"/><stop offset=".641" stop-color="#73DDA7"/><stop offset=".825" stop-color="#7AEB7C"/><stop offset="1" stop-color="#82FA4D"/></linearGradient><linearGradient id="w" x1="111.3" y1="119.71" x2="96.692" y2="84.728" gradientUnits="userSpaceOnUse"><stop stop-color="#66C5F3"/><stop offset=".134" stop-color="#67C7EE"/><stop offset=".292" stop-color="#69CBE0"/><stop offset=".462" stop-color="#6DD3C8"/><stop offset=".641" stop-color="#73DDA7"/><stop offset=".825" stop-color="#7AEB7C"/><stop offset="1" stop-color="#82FA4D"/></linearGradient><linearGradient id="x" x1="110.641" y1="121.605" x2="97.6" y2="82.991" gradientUnits="userSpaceOnUse"><stop stop-color="#66C5F3"/><stop offset=".134" stop-color="#67C7EE"/><stop offset=".292" stop-color="#69CBE0"/><stop offset=".462" stop-color="#6DD3C8"/><stop offset=".641" stop-color="#73DDA7"/><stop offset=".825" stop-color="#7AEB7C"/><stop offset="1" stop-color="#82FA4D"/></linearGradient><linearGradient id="y" x1="109.783" y1="123.605" x2="98.685" y2="81.206" gradientUnits="userSpaceOnUse"><stop stop-color="#66C5F3"/><stop offset=".134" stop-color="#67C7EE"/><stop offset=".292" stop-color="#69CBE0"/><stop offset=".462" stop-color="#6DD3C8"/><stop offset=".641" stop-color="#73DDA7"/><stop offset=".825" stop-color="#7AEB7C"/><stop offset="1" stop-color="#82FA4D"/></linearGradient><linearGradient id="z" x1="108.742" y1="125.689" x2="100.005" y2="79.393" gradientUnits="userSpaceOnUse"><stop stop-color="#66C5F3"/><stop offset=".134" stop-color="#67C7EE"/><stop offset=".292" stop-color="#69CBE0"/><stop offset=".462" stop-color="#6DD3C8"/><stop offset=".641" stop-color="#73DDA7"/><stop offset=".825" stop-color="#7AEB7C"/><stop offset="1" stop-color="#82FA4D"/></linearGradient><linearGradient id="A" x1="107.434" y1="127.836" x2="101.531" y2="77.515" gradientUnits="userSpaceOnUse"><stop stop-color="#66C5F3"/><stop offset=".134" stop-color="#67C7EE"/><stop offset=".292" stop-color="#69CBE0"/><stop offset=".462" stop-color="#6DD3C8"/><stop offset=".641" stop-color="#73DDA7"/><stop offset=".825" stop-color="#7AEB7C"/><stop offset="1" stop-color="#82FA4D"/></linearGradient><linearGradient id="B" x1="105.886" y1="130.046" x2="103.318" y2="75.628" gradientUnits="userSpaceOnUse"><stop stop-color="#66C5F3"/><stop offset=".134" stop-color="#67C7EE"/><stop offset=".292" stop-color="#69CBE0"/><stop offset=".462" stop-color="#6DD3C8"/><stop offset=".641" stop-color="#73DDA7"/><stop offset=".825" stop-color="#7AEB7C"/><stop offset="1" stop-color="#82FA4D"/></linearGradient><linearGradient id="C" x1="104.069" y1="132.309" x2="105.38" y2="73.749" gradientUnits="userSpaceOnUse"><stop stop-color="#66C5F3"/><stop offset=".134" stop-color="#67C7EE"/><stop offset=".292" stop-color="#69CBE0"/><stop offset=".462" stop-color="#6DD3C8"/><stop offset=".641" stop-color="#73DDA7"/><stop offset=".825" stop-color="#7AEB7C"/><stop offset="1" stop-color="#82FA4D"/></linearGradient><linearGradient id="D" x1="101.94" y1="134.583" x2="107.731" y2="71.865" gradientUnits="userSpaceOnUse"><stop stop-color="#66C5F3"/><stop offset=".134" stop-color="#67C7EE"/><stop offset=".292" stop-color="#69CBE0"/><stop offset=".462" stop-color="#6DD3C8"/><stop offset=".641" stop-color="#73DDA7"/><stop offset=".825" stop-color="#7AEB7C"/><stop offset="1" stop-color="#82FA4D"/></linearGradient><linearGradient id="E" x1="99.498" y1="136.877" x2="110.398" y2="70.039" gradientUnits="userSpaceOnUse"><stop stop-color="#66C5F3"/><stop offset=".134" stop-color="#67C7EE"/><stop offset=".292" stop-color="#69CBE0"/><stop offset=".462" stop-color="#6DD3C8"/><stop offset=".641" stop-color="#73DDA7"/><stop offset=".825" stop-color="#7AEB7C"/><stop offset="1" stop-color="#82FA4D"/></linearGradient><linearGradient id="F" x1="96.681" y1="139.153" x2="113.376" y2="68.259" gradientUnits="userSpaceOnUse"><stop stop-color="#66C5F3"/><stop offset=".134" stop-color="#67C7EE"/><stop offset=".292" stop-color="#69CBE0"/><stop offset=".462" stop-color="#6DD3C8"/><stop offset=".641" stop-color="#73DDA7"/><stop offset=".825" stop-color="#7AEB7C"/><stop offset="1" stop-color="#82FA4D"/></linearGradient><linearGradient id="G" x1="93.507" y1="141.374" x2="116.724" y2="66.575" gradientUnits="userSpaceOnUse"><stop stop-color="#66C5F3"/><stop offset=".134" stop-color="#67C7EE"/><stop offset=".292" stop-color="#69CBE0"/><stop offset=".462" stop-color="#6DD3C8"/><stop offset=".641" stop-color="#73DDA7"/><stop offset=".825" stop-color="#7AEB7C"/><stop offset="1" stop-color="#82FA4D"/></linearGradient><linearGradient id="H" x1="89.919" y1="143.541" x2="120.418" y2="65.027" gradientUnits="userSpaceOnUse"><stop stop-color="#66C5F3"/><stop offset=".134" stop-color="#67C7EE"/><stop offset=".292" stop-color="#69CBE0"/><stop offset=".462" stop-color="#6DD3C8"/><stop offset=".641" stop-color="#73DDA7"/><stop offset=".825" stop-color="#7AEB7C"/><stop offset="1" stop-color="#82FA4D"/></linearGradient><linearGradient id="I" x1="85.931" y1="145.585" x2="124.526" y2="63.645" gradientUnits="userSpaceOnUse"><stop stop-color="#66C5F3"/><stop offset=".134" stop-color="#67C7EE"/><stop offset=".292" stop-color="#69CBE0"/><stop offset=".462" stop-color="#6DD3C8"/><stop offset=".641" stop-color="#73DDA7"/><stop offset=".825" stop-color="#7AEB7C"/><stop offset="1" stop-color="#82FA4D"/></linearGradient><linearGradient id="J" x1="81.48" y1="147.466" x2="129.029" y2="62.447" gradientUnits="userSpaceOnUse"><stop stop-color="#66C5F3"/><stop offset=".134" stop-color="#67C7EE"/><stop offset=".292" stop-color="#69CBE0"/><stop offset=".462" stop-color="#6DD3C8"/><stop offset=".641" stop-color="#73DDA7"/><stop offset=".825" stop-color="#7AEB7C"/><stop offset="1" stop-color="#82FA4D"/></linearGradient><linearGradient id="K" x1="76.585" y1="149.166" x2="133.963" y2="61.525" gradientUnits="userSpaceOnUse"><stop stop-color="#66C5F3"/><stop offset=".134" stop-color="#67C7EE"/><stop offset=".292" stop-color="#69CBE0"/><stop offset=".462" stop-color="#6DD3C8"/><stop offset=".641" stop-color="#73DDA7"/><stop offset=".825" stop-color="#7AEB7C"/><stop offset="1" stop-color="#82FA4D"/></linearGradient><linearGradient id="L" x1="71.176" y1="150.604" x2="139.313" y2="60.87" gradientUnits="userSpaceOnUse"><stop stop-color="#66C5F3"/><stop offset=".134" stop-color="#67C7EE"/><stop offset=".292" stop-color="#69CBE0"/><stop offset=".462" stop-color="#6DD3C8"/><stop offset=".641" stop-color="#73DDA7"/><stop offset=".825" stop-color="#7AEB7C"/><stop offset="1" stop-color="#82FA4D"/></linearGradient><linearGradient id="M" x1="65.292" y1="151.754" x2="145.12" y2="60.599" gradientUnits="userSpaceOnUse"><stop stop-color="#66C5F3"/><stop offset=".134" stop-color="#67C7EE"/><stop offset=".292" stop-color="#69CBE0"/><stop offset=".462" stop-color="#6DD3C8"/><stop offset=".641" stop-color="#73DDA7"/><stop offset=".825" stop-color="#7AEB7C"/><stop offset="1" stop-color="#82FA4D"/></linearGradient><linearGradient id="N" x1="58.887" y1="152.551" x2="151.367" y2="60.743" gradientUnits="userSpaceOnUse"><stop stop-color="#66C5F3"/><stop offset=".134" stop-color="#67C7EE"/><stop offset=".292" stop-color="#69CBE0"/><stop offset=".462" stop-color="#6DD3C8"/><stop offset=".641" stop-color="#73DDA7"/><stop offset=".825" stop-color="#7AEB7C"/><stop offset="1" stop-color="#82FA4D"/></linearGradient><linearGradient id="O" x1="51.945" y1="152.924" x2="158.053" y2="61.363" gradientUnits="userSpaceOnUse"><stop stop-color="#66C5F3"/><stop offset=".134" stop-color="#67C7EE"/><stop offset=".292" stop-color="#69CBE0"/><stop offset=".462" stop-color="#6DD3C8"/><stop offset=".641" stop-color="#73DDA7"/><stop offset=".825" stop-color="#7AEB7C"/><stop offset="1" stop-color="#82FA4D"/></linearGradient></defs></svg>