<svg width="207" height="205" fill="none" xmlns="http://www.w3.org/2000/svg"><path d="M107.117 106.9c-1.425.962-3.942.951-4.273-.013-.468-1.36 3.66-3.899 3.214-5.095-.473-1.264-5.325.901-6.354-.491-.837-1.134 1.28-4.061 2.452-4.437 1.143-.365 2.098 1.466 1.874 3.447-.257 2.28-1.93 3.485-1.253 4.326.996 1.238 5.289-.547 5.483.647.073.478-.529 1.201-1.143 1.616Z" stroke="url(#a)" stroke-miterlimit="10"/><path d="M107.137 107.428c-1.584.953-4.287.799-4.589-.255-.424-1.485 4.149-3.978 3.736-5.29-.435-1.383-5.768.669-6.793-.884-.835-1.264 1.601-4.29 2.883-4.626 1.247-.328 2.169 1.692 1.817 3.807-.405 2.435-2.27 3.634-1.591 4.574 1.001 1.386 5.712-.291 5.851 1.003.056.515-.631 1.258-1.314 1.671Z" stroke="url(#b)" stroke-miterlimit="10"/><path d="M107.13 107.992c-1.753.934-4.647.619-4.913-.53-.372-1.618 4.68-4.039 4.311-5.47-.39-1.51-6.232.395-7.246-1.329-.827-1.406 1.963-4.518 3.355-4.807 1.358-.28 2.235 1.938 1.737 4.19-.573 2.591-2.642 3.774-1.965 4.821.996 1.544 6.149.009 6.225 1.405.032.556-.749 1.318-1.504 1.72Z" stroke="url(#c)" stroke-miterlimit="10"/><path d="M107.089 108.6c-1.937.906-5.026.404-5.246-.845-.309-1.759 5.254-4.076 4.937-5.631-.335-1.644-6.712.074-7.705-1.835-.807-1.555 2.361-4.739 3.875-4.971 1.473-.226 2.289 2.206 1.63 4.597-.759 2.75-3.048 3.905-2.382 5.069.981 1.714 6.603.356 6.605 1.859.002.593-.879 1.366-1.714 1.757Z" stroke="url(#d)" stroke-miterlimit="10"/><path d="M107.013 109.25c-2.13.862-5.42.149-5.586-1.201-.232-1.907 5.871-4.081 5.62-5.771-.265-1.783-7.212-.297-8.17-2.404-.778-1.715 2.803-4.956 4.441-5.12 1.595-.16 2.335 2.497 1.491 5.027-.971 2.91-3.495 4.022-2.844 5.308.957 1.893 7.069.751 6.988 2.367-.034.64-1.022 1.422-1.94 1.794Z" stroke="url(#e)" stroke-miterlimit="10"/><path d="M106.893 109.942c-2.336.808-5.829-.143-5.929-1.605-.141-2.061 6.534-4.052 6.36-5.878-.185-1.931-7.728-.726-8.638-3.04-.742-1.886 3.29-5.165 5.057-5.25 1.721-.083 2.365 2.812 1.316 5.481-1.207 3.071-3.979 4.122-3.353 5.541.923 2.089 7.55 1.205 7.37 2.934-.07.688-1.177 1.47-2.183 1.817Z" stroke="url(#f)" stroke-miterlimit="10"/><path d="M106.724 110.681c-2.555.736-6.251-.48-6.275-2.055-.037-2.219 7.245-3.985 7.16-5.957-.089-2.083-8.257-1.214-9.103-3.748-.69-2.066 3.822-5.362 5.726-5.352 1.852.01 2.383 3.154 1.106 5.962-1.469 3.229-4.506 4.202-3.912 5.759.872 2.294 8.037 1.718 7.747 3.567-.115.729-1.349 1.507-2.449 1.824Z" stroke="url(#g)" stroke-miterlimit="10"/><path d="M106.504 111.463c-2.785.647-6.684-.867-6.623-2.561.087-2.387 8.005-3.872 8.024-5.994.022-2.241-8.799-1.766-9.565-4.537-.624-2.256 4.408-5.542 6.452-5.425 1.988.113 2.38 3.52.85 6.463-1.76 3.384-5.074 4.259-4.525 5.966.807 2.513 8.535 2.296 8.12 4.263-.168.78-1.534 1.547-2.733 1.825Z" stroke="url(#h)" stroke-miterlimit="10"/><path d="M106.221 112.292c-3.027.537-7.128-1.307-6.967-3.121.229-2.556 8.814-3.707 8.953-5.985.148-2.406-9.347-2.391-10.012-5.41-.542-2.458 5.045-5.703 7.232-5.464 2.13.235 2.356 3.914.548 6.987-2.08 3.535-5.69 4.289-5.196 6.152.725 2.743 9.036 2.945 8.479 5.034-.222.828-1.734 1.575-3.037 1.807Z" stroke="url(#i)" stroke-miterlimit="10"/><path d="M105.87 113.165c-3.278.406-7.58-1.804-7.306-3.742.39-2.732 9.674-3.485 9.952-5.924.296-2.576-9.902-3.093-10.448-6.372-.444-2.671 5.74-5.842 8.074-5.46 2.274.371 2.311 4.335.196 7.534-2.432 3.679-6.35 4.285-5.927 6.313.625 2.986 9.537 3.67 8.821 5.881-.283.878-1.947 1.594-3.362 1.77Z" stroke="url(#j)" stroke-miterlimit="10"/><path d="M105.446 114.084c-3.544.252-8.04-2.363-7.634-4.428.572-2.913 10.583-3.199 11.02-5.803.461-2.747-10.459-3.877-10.86-7.428-.326-2.892 6.493-5.95 8.978-5.41 2.419.526 2.237 4.785-.216 8.101-2.819 3.814-7.06 4.246-6.72 6.448.502 3.243 10.032 4.476 9.138 6.811-.351.923-2.178 1.6-3.706 1.709Z" stroke="url(#k)" stroke-miterlimit="10"/><path d="M104.937 115.046c-3.821.072-8.499-2.988-7.948-5.184.776-3.095 11.544-2.841 12.16-5.612.651-2.925-11.011-4.75-11.242-8.587-.187-3.125 7.306-6.024 9.945-5.305 2.57.699 2.133 5.264-.687 8.686-3.242 3.938-7.822 4.162-7.58 6.546.356 3.51 10.519 5.371 9.429 7.827-.428.973-2.43 1.596-4.077 1.629Z" stroke="url(#l)" stroke-miterlimit="10"/><path d="M104.339 116.049c-4.106-.136-8.958-3.687-8.242-6.013 1.01-3.282 12.556-2.402 13.374-5.343.864-3.103-11.558-5.72-11.588-9.85-.024-3.367 8.185-6.06 10.979-5.14 2.72.898 1.993 5.773-1.227 9.29-3.703 4.045-8.634 4.028-8.508 6.602.186 3.787 10.995 6.356 9.685 8.934-.52 1.023-2.705 1.579-4.473 1.52Z" stroke="url(#m)" stroke-miterlimit="10"/><path d="M103.638 117.096c-4.401-.378-9.41-4.463-8.511-6.919 1.268-3.466 13.618-1.874 14.662-4.984 1.103-3.284-12.088-6.791-11.888-11.228.163-3.616 9.129-6.046 12.077-4.9 2.87 1.114 1.815 6.31-1.842 9.906-4.206 4.137-9.498 3.842-9.509 6.611-.015 4.078 11.447 7.444 9.896 10.137-.612 1.064-2.987 1.538-4.885 1.377Z" stroke="url(#n)" stroke-miterlimit="10"/><path d="M102.827 118.178c-4.707-.652-9.855-5.321-8.75-7.91 1.559-3.651 14.731-1.249 16.028-4.53 1.368-3.466-12.598-7.97-12.133-12.724.379-3.873 10.146-5.98 13.247-4.583 3.017 1.36 1.592 6.876-2.537 10.533-4.75 4.205-10.416 3.592-10.583 6.565-.246 4.379 11.871 8.637 10.054 11.441-.72 1.112-3.299 1.49-5.326 1.208Z" stroke="url(#o)" stroke-miterlimit="10"/><path d="M101.893 119.296c-5.015-.964-10.28-6.265-8.949-8.984 1.878-3.834 15.888-.513 17.465-3.964 1.667-3.644-13.076-9.267-12.308-14.347.624-4.137 11.231-5.85 14.482-4.176 3.163 1.63 1.32 7.473-3.318 11.167-5.338 4.248-11.386 3.273-11.734 6.457-.512 4.687 12.26 9.94 10.15 12.85-.836 1.151-3.625 1.412-5.788.997Z" stroke="url(#p)" stroke-miterlimit="10"/><path d="M100.829 120.443c-5.33-1.318-10.687-7.306-9.103-10.149 2.234-4.009 17.088.341 18.977-3.275 1.995-3.82-13.52-10.685-12.409-16.097.906-4.406 12.389-5.65 15.786-3.672 3.305 1.926.996 8.098-4.193 11.805-5.97 4.264-12.41 2.874-12.963 6.272-.814 5.006 12.606 11.363 10.176 14.369-.962 1.192-3.973 1.314-6.271.747Z" stroke="url(#q)" stroke-miterlimit="10"/><path d="M99.622 121.613c-5.65-1.715-11.064-8.446-9.202-11.41 2.624-4.181 18.329 1.327 20.561-2.45 2.357-3.989-13.914-12.233-12.417-17.98 1.22-4.682 13.623-5.373 17.158-3.055 3.443 2.254.614 8.752-5.167 12.44-6.651 4.241-13.488 2.388-14.273 6.007-1.156 5.329 12.896 12.908 10.115 16.001-1.099 1.225-4.338 1.188-6.775.447Z" stroke="url(#r)" stroke-miterlimit="10"/><path d="M98.26 122.806c-5.97-2.159-11.404-9.691-9.239-12.768 3.053-4.341 19.608 2.454 22.217-1.477 2.757-4.15-14.251-13.917-12.32-20.006 1.574-4.958 14.931-5.004 18.597-2.317 3.568 2.615.165 9.434-6.251 13.07-7.38 4.18-14.619 1.806-15.666 5.648-1.54 5.657 13.118 14.588 9.961 17.75-1.249 1.253-4.726 1.029-7.3.1Z" stroke="url(#s)" stroke-miterlimit="10"/><path d="M96.73 124.007c-6.29-2.654-11.699-11.046-9.199-14.23 3.525-4.489 20.916 3.738 23.94-.336 3.194-4.303-14.519-15.746-12.102-22.174 1.97-5.236 16.315-4.534 20.1-1.444 3.684 3.008-.352 10.14-7.447 13.682-8.162 4.076-15.799 1.121-17.141 5.186-1.974 5.988 13.263 16.401 9.695 19.62-1.414 1.275-5.135.84-7.846-.304Z" stroke="url(#t)" stroke-miterlimit="10"/><path d="M95.02 125.212c-6.604-3.203-11.939-12.518-9.075-15.797 4.036-4.624 22.249 5.188 25.726.981 3.671-4.441-14.704-17.723-11.745-24.488 2.411-5.512 17.774-3.953 21.664-.422 3.786 3.436-.95 10.868-8.768 14.273-8.993 3.918-17.028.315-18.697 4.606-2.456 6.318 13.318 18.356 9.304 21.611-1.593 1.293-5.563.617-8.41-.764Z" stroke="url(#u)" stroke-miterlimit="10"/><path d="M93.114 126.411c-6.91-3.809-12.115-14.112-8.856-17.472 4.596-4.739 23.599 6.819 27.57 2.5 4.192-4.563-14.789-19.857-11.229-26.956 2.898-5.783 19.307-3.245 23.287.764 3.873 3.903-1.634 11.617-10.222 14.834-9.878 3.7-18.303-.62-20.337 3.896-2.994 6.647 13.266 20.458 8.773 23.728-1.78 1.295-6.005.348-8.986-1.294Z" stroke="url(#v)" stroke-miterlimit="10"/><path d="M91.001 127.59c-7.206-4.478-12.213-15.834-8.525-19.259 5.203-4.83 24.957 8.648 29.463 4.233 4.758-4.663-14.76-22.152-10.54-29.577 3.44-6.049 20.916-2.4 24.963 2.128 3.938 4.409-2.409 12.381-11.812 15.354-10.816 3.421-19.62-1.692-22.058 3.041-3.59 6.969 13.091 22.712 8.08 25.974-1.98 1.292-6.464.037-9.57-1.894Z" stroke="url(#w)" stroke-miterlimit="10"/><path d="M88.667 128.737c-7.485-5.215-12.222-17.689-8.068-21.16 5.857-4.893 26.309 10.69 31.399 6.201 5.374-4.741-14.602-24.617-9.65-32.35 4.034-6.301 22.595-1.404 26.684 3.687 3.979 4.954-3.286 13.16-13.549 15.823-11.806 3.065-20.97-2.919-23.855 2.027-4.25 7.281 12.778 25.125 7.213 28.343-2.204 1.277-6.948-.323-10.174-2.571Z" stroke="url(#x)" stroke-miterlimit="10"/><path d="M86.095 129.838c-7.744-6.02-12.126-19.681-7.47-23.173 6.567-4.925 27.648 12.955 33.366 8.422 6.038-4.788-14.29-27.253-8.538-35.28 4.687-6.539 24.343-.237 28.447 5.458 3.994 5.542-4.269 13.947-15.442 16.231-12.85 2.628-22.354-4.313-25.73.837-4.972 7.579 12.303 27.696 6.146 30.841-2.437 1.242-7.441-.741-10.779-3.336Z" stroke="url(#y)" stroke-miterlimit="10"/><path d="M83.27 130.876c-7.976-6.9-11.912-21.813-6.714-25.303 7.328-4.921 28.958 15.465 35.352 10.917 6.754-4.801-13.81-30.068-7.178-38.364 5.401-6.758 26.151 1.112 30.237 7.458 3.978 6.176-5.37 14.735-17.495 16.562-13.947 2.1-23.76-5.886-27.676-.547-5.766 7.859 11.651 30.43 4.863 33.462-2.69 1.201-7.95-1.212-11.388-4.185Z" stroke="url(#z)" stroke-miterlimit="10"/><path d="M80.179 131.832c-8.177-7.856-11.56-24.094-5.783-27.547 8.146-4.871 30.224 18.232 37.345 13.708 7.522-4.778-13.133-33.06-5.544-41.598 6.181-6.954 28.018 2.665 32.047 9.708 3.921 6.856-6.597 15.522-19.719 16.801-15.096 1.472-25.183-7.656-29.689-2.144-6.636 8.116 10.794 33.332 3.336 36.206-2.955 1.138-8.468-1.749-11.993-5.134Z" stroke="url(#A)" stroke-miterlimit="10"/><path d="M76.806 132.683c-8.335-8.896-11.055-26.519-4.656-29.905 9.023-4.774 31.425 21.274 39.33 16.818 8.346-4.709-12.24-36.238-3.61-44.98 7.03-7.118 29.937 4.435 33.866 12.225 3.825 7.582-7.959 16.297-22.123 16.934-16.293.731-26.608-9.634-31.758-3.968-7.583 8.344 9.713 36.398 1.54 39.063-3.24 1.056-8.996-2.352-12.589-6.187Z" stroke="url(#B)" stroke-miterlimit="10"/><path d="M73.136 133.41c-8.45-10.02-10.376-29.097-3.314-32.374 9.956-4.62 32.545 24.61 41.283 20.269 9.228-4.587-11.098-39.6-1.338-48.502 7.948-7.25 31.895 6.444 35.674 15.029 3.68 8.357-9.466 17.052-24.71 16.939-17.535-.128-28.028-11.84-33.879-6.046-8.614 8.533 8.377 39.63-.548 42.032-3.536.954-9.526-3.029-13.168-7.347Z" stroke="url(#C)" stroke-miterlimit="10"/><path d="M69.154 133.984c-8.51-11.235-9.501-31.827-1.734-34.948 10.953-4.4 33.559 28.254 43.187 24.082 10.168-4.406-9.684-43.146 1.297-52.154 8.945-7.339 33.886 8.71 37.461 18.14 3.479 9.18-11.127 17.778-27.489 16.803-18.823-1.123-29.43-14.288-36.038-8.394-9.73 8.679 6.76 43.025-2.959 45.103-3.851.821-10.059-3.791-13.725-8.632Z" stroke="url(#D)" stroke-miterlimit="10"/><path d="M64.846 134.375c-8.503-12.54-8.407-34.712.109-37.626 12.008-4.109 34.442 32.225 45.017 28.285 11.166-4.161-7.966-46.875 4.332-55.931 10.017-7.378 35.896 11.256 39.201 21.585 3.218 10.053-12.951 18.466-30.463 16.498-20.148-2.262-30.796-16.996-38.225-11.036-10.937 8.771 4.835 46.579-5.72 48.265-4.181.669-10.587-4.635-14.251-10.04Z" stroke="url(#E)" stroke-miterlimit="10"/><path d="M60.196 134.555c-8.424-13.945-7.071-37.745 2.24-40.397 13.126-3.74 35.166 36.538 46.744 32.902 12.223-3.839-5.912-50.78 7.806-59.814 11.173-7.36 37.909 14.103 40.879 25.379 2.889 10.976-14.946 19.1-33.642 16.004-21.505-3.562-32.11-19.98-40.422-14-12.239 8.807 2.566 50.287-8.864 51.508-4.53.48-11.11-5.573-14.74-11.582Z" stroke="url(#F)" stroke-miterlimit="10"/><path d="M55.197 134.485c-8.26-15.445-5.466-40.926 4.68-43.25 14.305-3.277 35.702 41.209 48.337 37.956 13.342-3.436-3.484-54.861 11.753-63.791 12.413-7.276 39.913 17.274 42.465 29.549 2.485 11.946-17.125 19.671-37.027 15.295-22.894-5.034-33.353-23.257-42.617-17.302-13.638 8.767-.08 54.142-12.422 54.808-4.887.263-11.61-6.606-15.17-13.265Z" stroke="url(#G)" stroke-miterlimit="10"/><path d="M49.829 134.131c-7.998-17.05-3.562-44.253 7.465-46.18 15.546-2.714 36.014 46.256 49.765 43.472 14.521-2.94-.649-59.104 16.218-67.837 13.74-7.114 41.884 20.79 43.931 34.114 1.993 12.97-19.499 20.161-40.622 14.345-24.299-6.692-34.503-26.848-44.786-20.975-15.14 8.648-3.14 58.133-16.43 58.157-5.26.007-12.092-7.749-15.541-15.096Z" stroke="url(#H)" stroke-miterlimit="10"/><path d="M44.087 133.447c-7.626-18.757-1.33-47.72 10.62-49.168 16.847-2.044 36.063 51.692 50.987 49.475 15.759-2.342 2.635-63.503 21.24-71.933 15.154-6.867 43.801 24.677 45.25 39.098 1.41 14.038-22.076 20.553-44.43 13.122-25.713-8.549-35.537-30.768-46.907-25.037-16.743 8.438-6.65 62.247-20.92 61.526-5.653-.286-12.553-8.997-15.84-17.083Z" stroke="url(#I)" stroke-miterlimit="10"/><path d="M37.96 132.392c-7.132-20.569 1.264-51.316 14.175-52.2 18.205-1.247 35.811 57.532 51.96 55.99 17.054-1.629 6.41-68.041 26.862-76.049 16.66-6.524 45.644 28.958 46.386 44.526.722 15.152-24.863 20.829-48.446 11.592-27.132-10.622-36.425-35.032-48.96-29.518-18.455 8.118-10.648 66.466-25.933 64.89-6.053-.624-12.972-10.364-16.044-19.231Z" stroke="url(#J)" stroke-miterlimit="10"/><path d="M31.44 130.915c-6.5-22.488 4.249-55.032 18.163-55.256 19.619-.317 35.21 63.791 52.639 63.04 18.404-.793 10.72-72.702 33.132-80.151 18.255-6.068 47.378 33.658 47.297 50.417-.078 16.312-27.871 20.971-52.675 9.727-28.533-12.932-37.137-39.664-50.907-34.448-20.274 7.681-15.183 70.775-31.505 68.224-6.465-1.013-13.344-11.86-16.145-21.553Z" stroke="url(#K)" stroke-miterlimit="10"/><path d="M24.52 128.963c-5.711-24.513 7.668-58.855 22.62-58.314 21.085.762 34.212 70.475 52.967 70.649 19.806.183 15.609-77.464 40.097-84.205 19.946-5.49 48.977 38.805 47.946 56.796-1.003 17.51-31.112 20.953-57.112 7.486-29.909-15.489-37.641-44.678-52.722-39.85-22.204 7.108-20.293 75.145-37.676 71.488-6.884-1.451-13.66-13.485-16.12-24.05Z" stroke="url(#L)" stroke-miterlimit="10"/><path d="M17.2 126.476C12.45 99.836 28.753 63.71 44.78 65.13c22.597 2.003 32.763 77.597 52.893 78.837 21.257 1.31 21.129-82.303 47.802-88.166 21.727-4.776 50.404 44.418 48.28 63.678-2.064 18.746-34.588 20.751-61.748 4.832-31.244-18.313-37.9-50.09-54.364-45.753-24.24 6.387-26.025 79.552-44.486 74.648-7.311-1.942-13.908-15.246-15.955-26.73Z" stroke="url(#M)" stroke-miterlimit="10"/><path d="M9.483 123.396c-3.598-28.875 15.942-66.749 33.07-64.325 24.154 3.42 30.807 85.166 52.352 87.626 22.754 2.602 27.33-87.19 56.302-91.987 23.601-3.907 51.619 50.528 48.255 71.091-3.275 20.014-38.309 20.338-66.577 1.72-32.517-21.418-37.874-55.914-55.798-52.181-26.392 5.496-32.432 83.958-51.98 77.655-7.74-2.497-14.072-17.152-15.624-29.599Z" stroke="url(#N)" stroke-miterlimit="10"/><path d="M1.368 119.657c-2.235-31.21 20.88-70.782 39.138-67.214 25.741 5.03 28.278 93.179 51.274 97.034 24.286 4.068 34.262-92.091 65.644-95.616 25.561-2.869 52.579 57.156 47.806 79.048-4.645 21.307-42.284 19.689-71.588-1.894-33.707-24.825-37.513-62.166-56.97-59.165-28.651 4.417-39.56 88.332-60.194 80.465-8.172-3.114-14.146-19.206-15.11-32.658Z" stroke="url(#O)" stroke-miterlimit="10"/><defs><linearGradient id="a" x1="106.337" y1="107.345" x2="100.735" y2="97.617" gradientUnits="userSpaceOnUse"><stop stop-color="#FBFD54"/><stop offset=".031" stop-color="#EEF862"/><stop offset=".159" stop-color="#BEE695"/><stop offset=".279" stop-color="#98D8BE"/><stop offset=".388" stop-color="#7DCDDB"/><stop offset=".482" stop-color="#6CC7ED"/><stop offset=".55" stop-color="#66C5F3"/><stop offset=".61" stop-color="#67C7EE"/><stop offset=".681" stop-color="#69CBE0"/><stop offset=".758" stop-color="#6DD3C8"/><stop offset=".839" stop-color="#73DDA7"/><stop offset=".921" stop-color="#7AEB7C"/><stop offset="1" stop-color="#82FA4D"/></linearGradient><linearGradient id="b" x1="106.206" y1="107.923" x2="100.728" y2="97.152" gradientUnits="userSpaceOnUse"><stop stop-color="#FBFD54"/><stop offset=".031" stop-color="#EEF862"/><stop offset=".159" stop-color="#BEE695"/><stop offset=".279" stop-color="#98D8BE"/><stop offset=".388" stop-color="#7DCDDB"/><stop offset=".482" stop-color="#6CC7ED"/><stop offset=".55" stop-color="#66C5F3"/><stop offset=".61" stop-color="#67C7EE"/><stop offset=".681" stop-color="#69CBE0"/><stop offset=".758" stop-color="#6DD3C8"/><stop offset=".839" stop-color="#73DDA7"/><stop offset=".921" stop-color="#7AEB7C"/><stop offset="1" stop-color="#82FA4D"/></linearGradient><linearGradient id="c" x1="106.093" y1="108.455" x2="100.821" y2="96.58" gradientUnits="userSpaceOnUse"><stop stop-color="#FBFD54"/><stop offset=".031" stop-color="#EEF862"/><stop offset=".159" stop-color="#BEE695"/><stop offset=".279" stop-color="#98D8BE"/><stop offset=".388" stop-color="#7DCDDB"/><stop offset=".482" stop-color="#6CC7ED"/><stop offset=".55" stop-color="#66C5F3"/><stop offset=".61" stop-color="#67C7EE"/><stop offset=".681" stop-color="#69CBE0"/><stop offset=".758" stop-color="#6DD3C8"/><stop offset=".839" stop-color="#73DDA7"/><stop offset=".921" stop-color="#7AEB7C"/><stop offset="1" stop-color="#82FA4D"/></linearGradient><linearGradient id="d" x1="105.983" y1="108.997" x2="100.998" y2="95.956" gradientUnits="userSpaceOnUse"><stop stop-color="#FBFD54"/><stop offset=".031" stop-color="#EEF862"/><stop offset=".159" stop-color="#BEE695"/><stop offset=".279" stop-color="#98D8BE"/><stop offset=".388" stop-color="#7DCDDB"/><stop offset=".482" stop-color="#6CC7ED"/><stop offset=".55" stop-color="#66C5F3"/><stop offset=".61" stop-color="#67C7EE"/><stop offset=".681" stop-color="#69CBE0"/><stop offset=".758" stop-color="#6DD3C8"/><stop offset=".839" stop-color="#73DDA7"/><stop offset=".921" stop-color="#7AEB7C"/><stop offset="1" stop-color="#82FA4D"/></linearGradient><linearGradient id="e" x1="105.788" y1="109.701" x2="101.15" y2="95.414" gradientUnits="userSpaceOnUse"><stop stop-color="#FBFD54"/><stop offset=".031" stop-color="#EEF862"/><stop offset=".159" stop-color="#BEE695"/><stop offset=".279" stop-color="#98D8BE"/><stop offset=".388" stop-color="#7DCDDB"/><stop offset=".482" stop-color="#6CC7ED"/><stop offset=".55" stop-color="#66C5F3"/><stop offset=".61" stop-color="#67C7EE"/><stop offset=".681" stop-color="#69CBE0"/><stop offset=".758" stop-color="#6DD3C8"/><stop offset=".839" stop-color="#73DDA7"/><stop offset=".921" stop-color="#7AEB7C"/><stop offset="1" stop-color="#82FA4D"/></linearGradient><linearGradient id="f" x1="105.574" y1="110.313" x2="101.407" y2="94.717" gradientUnits="userSpaceOnUse"><stop stop-color="#FBFD54"/><stop offset=".031" stop-color="#EEF862"/><stop offset=".159" stop-color="#BEE695"/><stop offset=".279" stop-color="#98D8BE"/><stop offset=".388" stop-color="#7DCDDB"/><stop offset=".482" stop-color="#6CC7ED"/><stop offset=".55" stop-color="#66C5F3"/><stop offset=".61" stop-color="#67C7EE"/><stop offset=".681" stop-color="#69CBE0"/><stop offset=".758" stop-color="#6DD3C8"/><stop offset=".839" stop-color="#73DDA7"/><stop offset=".921" stop-color="#7AEB7C"/><stop offset="1" stop-color="#82FA4D"/></linearGradient><linearGradient id="g" x1="105.263" y1="110.997" x2="101.668" y2="94.011" gradientUnits="userSpaceOnUse"><stop stop-color="#FBFD54"/><stop offset=".031" stop-color="#EEF862"/><stop offset=".159" stop-color="#BEE695"/><stop offset=".279" stop-color="#98D8BE"/><stop offset=".388" stop-color="#7DCDDB"/><stop offset=".482" stop-color="#6CC7ED"/><stop offset=".55" stop-color="#66C5F3"/><stop offset=".61" stop-color="#67C7EE"/><stop offset=".681" stop-color="#69CBE0"/><stop offset=".758" stop-color="#6DD3C8"/><stop offset=".839" stop-color="#73DDA7"/><stop offset=".921" stop-color="#7AEB7C"/><stop offset="1" stop-color="#82FA4D"/></linearGradient><linearGradient id="h" x1="104.945" y1="111.774" x2="102.024" y2="93.336" gradientUnits="userSpaceOnUse"><stop stop-color="#FBFD54"/><stop offset=".031" stop-color="#EEF862"/><stop offset=".159" stop-color="#BEE695"/><stop offset=".279" stop-color="#98D8BE"/><stop offset=".388" stop-color="#7DCDDB"/><stop offset=".482" stop-color="#6CC7ED"/><stop offset=".55" stop-color="#66C5F3"/><stop offset=".61" stop-color="#67C7EE"/><stop offset=".681" stop-color="#69CBE0"/><stop offset=".758" stop-color="#6DD3C8"/><stop offset=".839" stop-color="#73DDA7"/><stop offset=".921" stop-color="#7AEB7C"/><stop offset="1" stop-color="#82FA4D"/></linearGradient><linearGradient id="i" x1="104.549" y1="112.468" x2="102.466" y2="92.516" gradientUnits="userSpaceOnUse"><stop stop-color="#FBFD54"/><stop offset=".031" stop-color="#EEF862"/><stop offset=".159" stop-color="#BEE695"/><stop offset=".279" stop-color="#98D8BE"/><stop offset=".388" stop-color="#7DCDDB"/><stop offset=".482" stop-color="#6CC7ED"/><stop offset=".55" stop-color="#66C5F3"/><stop offset=".61" stop-color="#67C7EE"/><stop offset=".681" stop-color="#69CBE0"/><stop offset=".758" stop-color="#6DD3C8"/><stop offset=".839" stop-color="#73DDA7"/><stop offset=".921" stop-color="#7AEB7C"/><stop offset="1" stop-color="#82FA4D"/></linearGradient><linearGradient id="j" x1="104.058" y1="113.301" x2="102.931" y2="91.755" gradientUnits="userSpaceOnUse"><stop stop-color="#FBFD54"/><stop offset=".031" stop-color="#EEF862"/><stop offset=".159" stop-color="#BEE695"/><stop offset=".279" stop-color="#98D8BE"/><stop offset=".388" stop-color="#7DCDDB"/><stop offset=".482" stop-color="#6CC7ED"/><stop offset=".55" stop-color="#66C5F3"/><stop offset=".61" stop-color="#67C7EE"/><stop offset=".681" stop-color="#69CBE0"/><stop offset=".758" stop-color="#6DD3C8"/><stop offset=".839" stop-color="#73DDA7"/><stop offset=".921" stop-color="#7AEB7C"/><stop offset="1" stop-color="#82FA4D"/></linearGradient><linearGradient id="k" x1="103.483" y1="114.133" x2="103.483" y2="90.929" gradientUnits="userSpaceOnUse"><stop stop-color="#FBFD54"/><stop offset=".031" stop-color="#EEF862"/><stop offset=".159" stop-color="#BEE695"/><stop offset=".279" stop-color="#98D8BE"/><stop offset=".388" stop-color="#7DCDDB"/><stop offset=".482" stop-color="#6CC7ED"/><stop offset=".55" stop-color="#66C5F3"/><stop offset=".61" stop-color="#67C7EE"/><stop offset=".681" stop-color="#69CBE0"/><stop offset=".758" stop-color="#6DD3C8"/><stop offset=".839" stop-color="#73DDA7"/><stop offset=".921" stop-color="#7AEB7C"/><stop offset="1" stop-color="#82FA4D"/></linearGradient><linearGradient id="l" x1="102.862" y1="114.972" x2="104.165" y2="90.07" gradientUnits="userSpaceOnUse"><stop stop-color="#FBFD54"/><stop offset=".031" stop-color="#EEF862"/><stop offset=".159" stop-color="#BEE695"/><stop offset=".279" stop-color="#98D8BE"/><stop offset=".388" stop-color="#7DCDDB"/><stop offset=".482" stop-color="#6CC7ED"/><stop offset=".55" stop-color="#66C5F3"/><stop offset=".61" stop-color="#67C7EE"/><stop offset=".681" stop-color="#69CBE0"/><stop offset=".758" stop-color="#6DD3C8"/><stop offset=".839" stop-color="#73DDA7"/><stop offset=".921" stop-color="#7AEB7C"/><stop offset="1" stop-color="#82FA4D"/></linearGradient><linearGradient id="m" x1="102.078" y1="115.875" x2="104.876" y2="89.191" gradientUnits="userSpaceOnUse"><stop stop-color="#FBFD54"/><stop offset=".031" stop-color="#EEF862"/><stop offset=".159" stop-color="#BEE695"/><stop offset=".279" stop-color="#98D8BE"/><stop offset=".388" stop-color="#7DCDDB"/><stop offset=".482" stop-color="#6CC7ED"/><stop offset=".55" stop-color="#66C5F3"/><stop offset=".61" stop-color="#67C7EE"/><stop offset=".681" stop-color="#69CBE0"/><stop offset=".758" stop-color="#6DD3C8"/><stop offset=".839" stop-color="#73DDA7"/><stop offset=".921" stop-color="#7AEB7C"/><stop offset="1" stop-color="#82FA4D"/></linearGradient><linearGradient id="n" x1="101.255" y1="116.785" x2="105.749" y2="88.3" gradientUnits="userSpaceOnUse"><stop stop-color="#FBFD54"/><stop offset=".031" stop-color="#EEF862"/><stop offset=".159" stop-color="#BEE695"/><stop offset=".279" stop-color="#98D8BE"/><stop offset=".388" stop-color="#7DCDDB"/><stop offset=".482" stop-color="#6CC7ED"/><stop offset=".55" stop-color="#66C5F3"/><stop offset=".61" stop-color="#67C7EE"/><stop offset=".681" stop-color="#69CBE0"/><stop offset=".758" stop-color="#6DD3C8"/><stop offset=".839" stop-color="#73DDA7"/><stop offset=".921" stop-color="#7AEB7C"/><stop offset="1" stop-color="#82FA4D"/></linearGradient><linearGradient id="o" x1="100.286" y1="117.686" x2="106.721" y2="87.356" gradientUnits="userSpaceOnUse"><stop stop-color="#FBFD54"/><stop offset=".031" stop-color="#EEF862"/><stop offset=".159" stop-color="#BEE695"/><stop offset=".279" stop-color="#98D8BE"/><stop offset=".388" stop-color="#7DCDDB"/><stop offset=".482" stop-color="#6CC7ED"/><stop offset=".55" stop-color="#66C5F3"/><stop offset=".61" stop-color="#67C7EE"/><stop offset=".681" stop-color="#69CBE0"/><stop offset=".758" stop-color="#6DD3C8"/><stop offset=".839" stop-color="#73DDA7"/><stop offset=".921" stop-color="#7AEB7C"/><stop offset="1" stop-color="#82FA4D"/></linearGradient><linearGradient id="p" x1="99.172" y1="118.622" x2="107.794" y2="86.407" gradientUnits="userSpaceOnUse"><stop stop-color="#FBFD54"/><stop offset=".031" stop-color="#EEF862"/><stop offset=".159" stop-color="#BEE695"/><stop offset=".279" stop-color="#98D8BE"/><stop offset=".388" stop-color="#7DCDDB"/><stop offset=".482" stop-color="#6CC7ED"/><stop offset=".55" stop-color="#66C5F3"/><stop offset=".61" stop-color="#67C7EE"/><stop offset=".681" stop-color="#69CBE0"/><stop offset=".758" stop-color="#6DD3C8"/><stop offset=".839" stop-color="#73DDA7"/><stop offset=".921" stop-color="#7AEB7C"/><stop offset="1" stop-color="#82FA4D"/></linearGradient><linearGradient id="q" x1="97.974" y1="119.577" x2="109.027" y2="85.475" gradientUnits="userSpaceOnUse"><stop stop-color="#FBFD54"/><stop offset=".031" stop-color="#EEF862"/><stop offset=".159" stop-color="#BEE695"/><stop offset=".279" stop-color="#98D8BE"/><stop offset=".388" stop-color="#7DCDDB"/><stop offset=".482" stop-color="#6CC7ED"/><stop offset=".55" stop-color="#66C5F3"/><stop offset=".61" stop-color="#67C7EE"/><stop offset=".681" stop-color="#69CBE0"/><stop offset=".758" stop-color="#6DD3C8"/><stop offset=".839" stop-color="#73DDA7"/><stop offset=".921" stop-color="#7AEB7C"/><stop offset="1" stop-color="#82FA4D"/></linearGradient><linearGradient id="r" x1="96.584" y1="120.528" x2="110.376" y2="84.518" gradientUnits="userSpaceOnUse"><stop stop-color="#FBFD54"/><stop offset=".031" stop-color="#EEF862"/><stop offset=".159" stop-color="#BEE695"/><stop offset=".279" stop-color="#98D8BE"/><stop offset=".388" stop-color="#7DCDDB"/><stop offset=".482" stop-color="#6CC7ED"/><stop offset=".55" stop-color="#66C5F3"/><stop offset=".61" stop-color="#67C7EE"/><stop offset=".681" stop-color="#69CBE0"/><stop offset=".758" stop-color="#6DD3C8"/><stop offset=".839" stop-color="#73DDA7"/><stop offset=".921" stop-color="#7AEB7C"/><stop offset="1" stop-color="#82FA4D"/></linearGradient><linearGradient id="s" x1="95.05" y1="121.467" x2="111.89" y2="83.569" gradientUnits="userSpaceOnUse"><stop stop-color="#FBFD54"/><stop offset=".031" stop-color="#EEF862"/><stop offset=".159" stop-color="#BEE695"/><stop offset=".279" stop-color="#98D8BE"/><stop offset=".388" stop-color="#7DCDDB"/><stop offset=".482" stop-color="#6CC7ED"/><stop offset=".55" stop-color="#66C5F3"/><stop offset=".61" stop-color="#67C7EE"/><stop offset=".681" stop-color="#69CBE0"/><stop offset=".758" stop-color="#6DD3C8"/><stop offset=".839" stop-color="#73DDA7"/><stop offset=".921" stop-color="#7AEB7C"/><stop offset="1" stop-color="#82FA4D"/></linearGradient><linearGradient id="t" x1="93.363" y1="122.385" x2="113.578" y2="82.638" gradientUnits="userSpaceOnUse"><stop stop-color="#FBFD54"/><stop offset=".031" stop-color="#EEF862"/><stop offset=".159" stop-color="#BEE695"/><stop offset=".279" stop-color="#98D8BE"/><stop offset=".388" stop-color="#7DCDDB"/><stop offset=".482" stop-color="#6CC7ED"/><stop offset=".55" stop-color="#66C5F3"/><stop offset=".61" stop-color="#67C7EE"/><stop offset=".681" stop-color="#69CBE0"/><stop offset=".758" stop-color="#6DD3C8"/><stop offset=".839" stop-color="#73DDA7"/><stop offset=".921" stop-color="#7AEB7C"/><stop offset="1" stop-color="#82FA4D"/></linearGradient><linearGradient id="u" x1="91.493" y1="123.292" x2="115.432" y2="81.736" gradientUnits="userSpaceOnUse"><stop stop-color="#FBFD54"/><stop offset=".031" stop-color="#EEF862"/><stop offset=".159" stop-color="#BEE695"/><stop offset=".279" stop-color="#98D8BE"/><stop offset=".388" stop-color="#7DCDDB"/><stop offset=".482" stop-color="#6CC7ED"/><stop offset=".55" stop-color="#66C5F3"/><stop offset=".61" stop-color="#67C7EE"/><stop offset=".681" stop-color="#69CBE0"/><stop offset=".758" stop-color="#6DD3C8"/><stop offset=".839" stop-color="#73DDA7"/><stop offset=".921" stop-color="#7AEB7C"/><stop offset="1" stop-color="#82FA4D"/></linearGradient><linearGradient id="v" x1="89.439" y1="124.129" x2="117.492" y2="80.865" gradientUnits="userSpaceOnUse"><stop stop-color="#FBFD54"/><stop offset=".031" stop-color="#EEF862"/><stop offset=".159" stop-color="#BEE695"/><stop offset=".279" stop-color="#98D8BE"/><stop offset=".388" stop-color="#7DCDDB"/><stop offset=".482" stop-color="#6CC7ED"/><stop offset=".55" stop-color="#66C5F3"/><stop offset=".61" stop-color="#67C7EE"/><stop offset=".681" stop-color="#69CBE0"/><stop offset=".758" stop-color="#6DD3C8"/><stop offset=".839" stop-color="#73DDA7"/><stop offset=".921" stop-color="#7AEB7C"/><stop offset="1" stop-color="#82FA4D"/></linearGradient><linearGradient id="w" x1="87.182" y1="124.941" x2="119.739" y2="80.051" gradientUnits="userSpaceOnUse"><stop stop-color="#FBFD54"/><stop offset=".031" stop-color="#EEF862"/><stop offset=".159" stop-color="#BEE695"/><stop offset=".279" stop-color="#98D8BE"/><stop offset=".388" stop-color="#7DCDDB"/><stop offset=".482" stop-color="#6CC7ED"/><stop offset=".55" stop-color="#66C5F3"/><stop offset=".61" stop-color="#67C7EE"/><stop offset=".681" stop-color="#69CBE0"/><stop offset=".758" stop-color="#6DD3C8"/><stop offset=".839" stop-color="#73DDA7"/><stop offset=".921" stop-color="#7AEB7C"/><stop offset="1" stop-color="#82FA4D"/></linearGradient><linearGradient id="x" x1="84.711" y1="125.676" x2="122.203" y2="79.302" gradientUnits="userSpaceOnUse"><stop stop-color="#FBFD54"/><stop offset=".031" stop-color="#EEF862"/><stop offset=".159" stop-color="#BEE695"/><stop offset=".279" stop-color="#98D8BE"/><stop offset=".388" stop-color="#7DCDDB"/><stop offset=".482" stop-color="#6CC7ED"/><stop offset=".55" stop-color="#66C5F3"/><stop offset=".61" stop-color="#67C7EE"/><stop offset=".681" stop-color="#69CBE0"/><stop offset=".758" stop-color="#6DD3C8"/><stop offset=".839" stop-color="#73DDA7"/><stop offset=".921" stop-color="#7AEB7C"/><stop offset="1" stop-color="#82FA4D"/></linearGradient><linearGradient id="y" x1="82.028" y1="126.335" x2="124.888" y2="78.641" gradientUnits="userSpaceOnUse"><stop stop-color="#FBFD54"/><stop offset=".031" stop-color="#EEF862"/><stop offset=".159" stop-color="#BEE695"/><stop offset=".279" stop-color="#98D8BE"/><stop offset=".388" stop-color="#7DCDDB"/><stop offset=".482" stop-color="#6CC7ED"/><stop offset=".55" stop-color="#66C5F3"/><stop offset=".61" stop-color="#67C7EE"/><stop offset=".681" stop-color="#69CBE0"/><stop offset=".758" stop-color="#6DD3C8"/><stop offset=".839" stop-color="#73DDA7"/><stop offset=".921" stop-color="#7AEB7C"/><stop offset="1" stop-color="#82FA4D"/></linearGradient><linearGradient id="z" x1="79.094" y1="126.887" x2="127.814" y2="78.076" gradientUnits="userSpaceOnUse"><stop stop-color="#FBFD54"/><stop offset=".031" stop-color="#EEF862"/><stop offset=".159" stop-color="#BEE695"/><stop offset=".279" stop-color="#98D8BE"/><stop offset=".388" stop-color="#7DCDDB"/><stop offset=".482" stop-color="#6CC7ED"/><stop offset=".55" stop-color="#66C5F3"/><stop offset=".61" stop-color="#67C7EE"/><stop offset=".681" stop-color="#69CBE0"/><stop offset=".758" stop-color="#6DD3C8"/><stop offset=".839" stop-color="#73DDA7"/><stop offset=".921" stop-color="#7AEB7C"/><stop offset="1" stop-color="#82FA4D"/></linearGradient><linearGradient id="A" x1="75.915" y1="127.316" x2="130.989" y2="77.635" gradientUnits="userSpaceOnUse"><stop stop-color="#FBFD54"/><stop offset=".031" stop-color="#EEF862"/><stop offset=".159" stop-color="#BEE695"/><stop offset=".279" stop-color="#98D8BE"/><stop offset=".388" stop-color="#7DCDDB"/><stop offset=".482" stop-color="#6CC7ED"/><stop offset=".55" stop-color="#66C5F3"/><stop offset=".61" stop-color="#67C7EE"/><stop offset=".681" stop-color="#69CBE0"/><stop offset=".758" stop-color="#6DD3C8"/><stop offset=".839" stop-color="#73DDA7"/><stop offset=".921" stop-color="#7AEB7C"/><stop offset="1" stop-color="#82FA4D"/></linearGradient><linearGradient id="B" x1="72.494" y1="127.593" x2="134.416" y2="77.349" gradientUnits="userSpaceOnUse"><stop stop-color="#FBFD54"/><stop offset=".031" stop-color="#EEF862"/><stop offset=".159" stop-color="#BEE695"/><stop offset=".279" stop-color="#98D8BE"/><stop offset=".388" stop-color="#7DCDDB"/><stop offset=".482" stop-color="#6CC7ED"/><stop offset=".55" stop-color="#66C5F3"/><stop offset=".61" stop-color="#67C7EE"/><stop offset=".681" stop-color="#69CBE0"/><stop offset=".758" stop-color="#6DD3C8"/><stop offset=".839" stop-color="#73DDA7"/><stop offset=".921" stop-color="#7AEB7C"/><stop offset="1" stop-color="#82FA4D"/></linearGradient><linearGradient id="C" x1="68.783" y1="127.694" x2="138.128" y2="77.235" gradientUnits="userSpaceOnUse"><stop stop-color="#FBFD54"/><stop offset=".031" stop-color="#EEF862"/><stop offset=".159" stop-color="#BEE695"/><stop offset=".279" stop-color="#98D8BE"/><stop offset=".388" stop-color="#7DCDDB"/><stop offset=".482" stop-color="#6CC7ED"/><stop offset=".55" stop-color="#66C5F3"/><stop offset=".61" stop-color="#67C7EE"/><stop offset=".681" stop-color="#69CBE0"/><stop offset=".758" stop-color="#6DD3C8"/><stop offset=".839" stop-color="#73DDA7"/><stop offset=".921" stop-color="#7AEB7C"/><stop offset="1" stop-color="#82FA4D"/></linearGradient><linearGradient id="D" x1="64.806" y1="127.603" x2="142.109" y2="77.32" gradientUnits="userSpaceOnUse"><stop stop-color="#FBFD54"/><stop offset=".031" stop-color="#EEF862"/><stop offset=".159" stop-color="#BEE695"/><stop offset=".279" stop-color="#98D8BE"/><stop offset=".388" stop-color="#7DCDDB"/><stop offset=".482" stop-color="#6CC7ED"/><stop offset=".55" stop-color="#66C5F3"/><stop offset=".61" stop-color="#67C7EE"/><stop offset=".681" stop-color="#69CBE0"/><stop offset=".758" stop-color="#6DD3C8"/><stop offset=".839" stop-color="#73DDA7"/><stop offset=".921" stop-color="#7AEB7C"/><stop offset="1" stop-color="#82FA4D"/></linearGradient><linearGradient id="E" x1="60.542" y1="127.285" x2="146.378" y2="77.629" gradientUnits="userSpaceOnUse"><stop stop-color="#FBFD54"/><stop offset=".031" stop-color="#EEF862"/><stop offset=".159" stop-color="#BEE695"/><stop offset=".279" stop-color="#98D8BE"/><stop offset=".388" stop-color="#7DCDDB"/><stop offset=".482" stop-color="#6CC7ED"/><stop offset=".55" stop-color="#66C5F3"/><stop offset=".61" stop-color="#67C7EE"/><stop offset=".681" stop-color="#69CBE0"/><stop offset=".758" stop-color="#6DD3C8"/><stop offset=".839" stop-color="#73DDA7"/><stop offset=".921" stop-color="#7AEB7C"/><stop offset="1" stop-color="#82FA4D"/></linearGradient><linearGradient id="F" x1="55.972" y1="126.702" x2="150.958" y2="78.207" gradientUnits="userSpaceOnUse"><stop stop-color="#FBFD54"/><stop offset=".031" stop-color="#EEF862"/><stop offset=".159" stop-color="#BEE695"/><stop offset=".279" stop-color="#98D8BE"/><stop offset=".388" stop-color="#7DCDDB"/><stop offset=".482" stop-color="#6CC7ED"/><stop offset=".55" stop-color="#66C5F3"/><stop offset=".61" stop-color="#67C7EE"/><stop offset=".681" stop-color="#69CBE0"/><stop offset=".758" stop-color="#6DD3C8"/><stop offset=".839" stop-color="#73DDA7"/><stop offset=".921" stop-color="#7AEB7C"/><stop offset="1" stop-color="#82FA4D"/></linearGradient><linearGradient id="G" x1="51.102" y1="125.812" x2="155.834" y2="79.096" gradientUnits="userSpaceOnUse"><stop stop-color="#FBFD54"/><stop offset=".031" stop-color="#EEF862"/><stop offset=".159" stop-color="#BEE695"/><stop offset=".279" stop-color="#98D8BE"/><stop offset=".388" stop-color="#7DCDDB"/><stop offset=".482" stop-color="#6CC7ED"/><stop offset=".55" stop-color="#66C5F3"/><stop offset=".61" stop-color="#67C7EE"/><stop offset=".681" stop-color="#69CBE0"/><stop offset=".758" stop-color="#6DD3C8"/><stop offset=".839" stop-color="#73DDA7"/><stop offset=".921" stop-color="#7AEB7C"/><stop offset="1" stop-color="#82FA4D"/></linearGradient><linearGradient id="H" x1="45.923" y1="124.585" x2="161.017" y2="80.326" gradientUnits="userSpaceOnUse"><stop stop-color="#FBFD54"/><stop offset=".031" stop-color="#EEF862"/><stop offset=".159" stop-color="#BEE695"/><stop offset=".279" stop-color="#98D8BE"/><stop offset=".388" stop-color="#7DCDDB"/><stop offset=".482" stop-color="#6CC7ED"/><stop offset=".55" stop-color="#66C5F3"/><stop offset=".61" stop-color="#67C7EE"/><stop offset=".681" stop-color="#69CBE0"/><stop offset=".758" stop-color="#6DD3C8"/><stop offset=".839" stop-color="#73DDA7"/><stop offset=".921" stop-color="#7AEB7C"/><stop offset="1" stop-color="#82FA4D"/></linearGradient><linearGradient id="I" x1="40.429" y1="122.979" x2="166.521" y2="81.938" gradientUnits="userSpaceOnUse"><stop stop-color="#FBFD54"/><stop offset=".031" stop-color="#EEF862"/><stop offset=".159" stop-color="#BEE695"/><stop offset=".279" stop-color="#98D8BE"/><stop offset=".388" stop-color="#7DCDDB"/><stop offset=".482" stop-color="#6CC7ED"/><stop offset=".55" stop-color="#66C5F3"/><stop offset=".61" stop-color="#67C7EE"/><stop offset=".681" stop-color="#69CBE0"/><stop offset=".758" stop-color="#6DD3C8"/><stop offset=".839" stop-color="#73DDA7"/><stop offset=".921" stop-color="#7AEB7C"/><stop offset="1" stop-color="#82FA4D"/></linearGradient><linearGradient id="J" x1="34.623" y1="120.95" x2="172.349" y2="83.971" gradientUnits="userSpaceOnUse"><stop stop-color="#FBFD54"/><stop offset=".031" stop-color="#EEF862"/><stop offset=".159" stop-color="#BEE695"/><stop offset=".279" stop-color="#98D8BE"/><stop offset=".388" stop-color="#7DCDDB"/><stop offset=".482" stop-color="#6CC7ED"/><stop offset=".55" stop-color="#66C5F3"/><stop offset=".61" stop-color="#67C7EE"/><stop offset=".681" stop-color="#69CBE0"/><stop offset=".758" stop-color="#6DD3C8"/><stop offset=".839" stop-color="#73DDA7"/><stop offset=".921" stop-color="#7AEB7C"/><stop offset="1" stop-color="#82FA4D"/></linearGradient><linearGradient id="K" x1="28.499" y1="118.438" x2="178.474" y2="86.506" gradientUnits="userSpaceOnUse"><stop stop-color="#FBFD54"/><stop offset=".031" stop-color="#EEF862"/><stop offset=".159" stop-color="#BEE695"/><stop offset=".279" stop-color="#98D8BE"/><stop offset=".388" stop-color="#7DCDDB"/><stop offset=".482" stop-color="#6CC7ED"/><stop offset=".55" stop-color="#66C5F3"/><stop offset=".61" stop-color="#67C7EE"/><stop offset=".681" stop-color="#69CBE0"/><stop offset=".758" stop-color="#6DD3C8"/><stop offset=".839" stop-color="#73DDA7"/><stop offset=".921" stop-color="#7AEB7C"/><stop offset="1" stop-color="#82FA4D"/></linearGradient><linearGradient id="L" x1="22.066" y1="115.402" x2="184.924" y2="89.567" gradientUnits="userSpaceOnUse"><stop stop-color="#FBFD54"/><stop offset=".031" stop-color="#EEF862"/><stop offset=".159" stop-color="#BEE695"/><stop offset=".279" stop-color="#98D8BE"/><stop offset=".388" stop-color="#7DCDDB"/><stop offset=".482" stop-color="#6CC7ED"/><stop offset=".55" stop-color="#66C5F3"/><stop offset=".61" stop-color="#67C7EE"/><stop offset=".681" stop-color="#69CBE0"/><stop offset=".758" stop-color="#6DD3C8"/><stop offset=".839" stop-color="#73DDA7"/><stop offset=".921" stop-color="#7AEB7C"/><stop offset="1" stop-color="#82FA4D"/></linearGradient><linearGradient id="M" x1="15.332" y1="111.778" x2="191.666" y2="93.212" gradientUnits="userSpaceOnUse"><stop stop-color="#FBFD54"/><stop offset=".031" stop-color="#EEF862"/><stop offset=".159" stop-color="#BEE695"/><stop offset=".279" stop-color="#98D8BE"/><stop offset=".388" stop-color="#7DCDDB"/><stop offset=".482" stop-color="#6CC7ED"/><stop offset=".55" stop-color="#66C5F3"/><stop offset=".61" stop-color="#67C7EE"/><stop offset=".681" stop-color="#69CBE0"/><stop offset=".758" stop-color="#6DD3C8"/><stop offset=".839" stop-color="#73DDA7"/><stop offset=".921" stop-color="#7AEB7C"/><stop offset="1" stop-color="#82FA4D"/></linearGradient><linearGradient id="N" x1="8.307" y1="107.505" x2="198.689" y2="97.503" gradientUnits="userSpaceOnUse"><stop stop-color="#FBFD54"/><stop offset=".031" stop-color="#EEF862"/><stop offset=".159" stop-color="#BEE695"/><stop offset=".279" stop-color="#98D8BE"/><stop offset=".388" stop-color="#7DCDDB"/><stop offset=".482" stop-color="#6CC7ED"/><stop offset=".55" stop-color="#66C5F3"/><stop offset=".61" stop-color="#67C7EE"/><stop offset=".681" stop-color="#69CBE0"/><stop offset=".758" stop-color="#6DD3C8"/><stop offset=".839" stop-color="#73DDA7"/><stop offset=".921" stop-color="#7AEB7C"/><stop offset="1" stop-color="#82FA4D"/></linearGradient><linearGradient id="O" x1="1" y1="102.526" x2="206" y2="102.526" gradientUnits="userSpaceOnUse"><stop stop-color="#FBFD54"/><stop offset=".031" stop-color="#EEF862"/><stop offset=".159" stop-color="#BEE695"/><stop offset=".279" stop-color="#98D8BE"/><stop offset=".388" stop-color="#7DCDDB"/><stop offset=".482" stop-color="#6CC7ED"/><stop offset=".55" stop-color="#66C5F3"/><stop offset=".61" stop-color="#67C7EE"/><stop offset=".681" stop-color="#69CBE0"/><stop offset=".758" stop-color="#6DD3C8"/><stop offset=".839" stop-color="#73DDA7"/><stop offset=".921" stop-color="#7AEB7C"/><stop offset="1" stop-color="#82FA4D"/></linearGradient></defs></svg>