<svg width="205" height="205" viewBox="0 0 205 205" fill="none" xmlns="http://www.w3.org/2000/svg">
<path d="M103.008 103.129C102.907 103.186 102.751 103.18 102.659 103.098C102.496 102.952 102.632 102.646 102.523 102.592C102.417 102.54 102.279 102.826 102.022 102.824C101.878 102.822 101.726 102.73 101.676 102.609C101.576 102.362 101.876 101.935 102.25 101.866C102.649 101.791 103.01 102.142 103.114 102.471C103.181 102.671 103.2 103.021 103.008 103.129Z" stroke="url(#paint0_linear_178_516)" stroke-miterlimit="10"/>
<path d="M102.994 103.263C102.875 103.316 102.699 103.288 102.607 103.186C102.442 103.002 102.63 102.678 102.516 102.605C102.403 102.536 102.215 102.839 101.927 102.805C101.766 102.787 101.605 102.665 101.566 102.525C101.482 102.239 101.868 101.797 102.296 101.764C102.749 101.726 103.113 102.163 103.192 102.54C103.24 102.772 103.221 103.165 102.994 103.263Z" stroke="url(#paint1_linear_178_516)" stroke-miterlimit="10"/>
<path d="M102.962 103.412C102.824 103.456 102.63 103.406 102.54 103.28C102.377 103.056 102.626 102.713 102.505 102.621C102.388 102.529 102.142 102.847 101.824 102.776C101.647 102.736 101.482 102.582 101.453 102.418C101.394 102.088 101.876 101.64 102.357 101.653C102.868 101.665 103.223 102.195 103.267 102.625C103.296 102.891 103.227 103.326 102.962 103.412Z" stroke="url(#paint2_linear_178_516)" stroke-miterlimit="10"/>
<path d="M102.91 103.573C102.751 103.606 102.54 103.527 102.453 103.376C102.298 103.106 102.615 102.753 102.492 102.636C102.371 102.521 102.06 102.845 101.713 102.73C101.519 102.665 101.354 102.473 101.34 102.287C101.313 101.91 101.906 101.467 102.44 101.538C103.01 101.611 103.344 102.245 103.344 102.732C103.344 103.031 103.217 103.51 102.91 103.573Z" stroke="url(#paint3_linear_178_516)" stroke-miterlimit="10"/>
<path d="M102.831 103.749C102.649 103.767 102.423 103.654 102.344 103.475C102.202 103.155 102.599 102.797 102.474 102.651C102.352 102.506 101.964 102.835 101.593 102.663C101.382 102.567 101.221 102.333 101.227 102.126C101.24 101.703 101.956 101.277 102.545 101.417C103.173 101.567 103.471 102.314 103.413 102.858C103.38 103.192 103.181 103.713 102.831 103.749Z" stroke="url(#paint4_linear_178_516)" stroke-miterlimit="10"/>
<path d="M102.724 103.933C102.517 103.933 102.279 103.78 102.212 103.569C102.091 103.194 102.576 102.843 102.455 102.663C102.336 102.489 101.864 102.807 101.469 102.573C101.246 102.441 101.093 102.159 101.125 101.929C101.189 101.458 102.037 101.067 102.68 101.293C103.365 101.534 103.611 102.404 103.482 103.006C103.402 103.378 103.121 103.935 102.724 103.933Z" stroke="url(#paint5_linear_178_516)" stroke-miterlimit="10"/>
<path d="M102.582 104.127C102.353 104.102 102.104 103.903 102.052 103.661C101.962 103.23 102.543 102.891 102.428 102.678C102.317 102.469 101.752 102.77 101.336 102.462C101.102 102.289 100.964 101.956 101.025 101.701C101.152 101.182 102.146 100.846 102.837 101.174C103.574 101.523 103.747 102.525 103.532 103.182C103.405 103.588 103.025 104.177 102.582 104.127Z" stroke="url(#paint6_linear_178_516)" stroke-miterlimit="10"/>
<path d="M102.4 104.33C102.146 104.276 101.891 104.025 101.864 103.746C101.814 103.253 102.503 102.945 102.4 102.692C102.3 102.446 101.634 102.717 101.206 102.322C100.964 102.1 100.849 101.714 100.949 101.435C101.152 100.871 102.302 100.611 103.037 101.059C103.82 101.536 103.895 102.676 103.58 103.385C103.384 103.822 102.889 104.435 102.4 104.33Z" stroke="url(#paint7_linear_178_516)" stroke-miterlimit="10"/>
<path d="M102.176 104.533C101.898 104.441 101.643 104.131 101.643 103.818C101.643 103.261 102.451 102.998 102.366 102.703C102.282 102.416 101.505 102.64 101.073 102.149C100.829 101.872 100.745 101.425 100.89 101.128C101.182 100.521 102.499 100.364 103.267 100.952C104.086 101.578 104.038 102.86 103.601 103.615C103.334 104.081 102.71 104.708 102.176 104.533Z" stroke="url(#paint8_linear_178_516)" stroke-miterlimit="10"/>
<path d="M101.9 104.734C101.601 104.598 101.351 104.223 101.388 103.872C101.455 103.251 102.386 103.05 102.326 102.711C102.267 102.381 101.374 102.54 100.948 101.942C100.708 101.605 100.666 101.094 100.862 100.779C101.261 100.134 102.749 100.116 103.538 100.862C104.38 101.659 104.175 103.083 103.599 103.876C103.246 104.363 102.474 104.993 101.9 104.734Z" stroke="url(#paint9_linear_178_516)" stroke-miterlimit="10"/>
<path d="M101.565 104.924C101.248 104.738 101.012 104.288 101.095 103.901C101.242 103.213 102.308 103.1 102.279 102.715C102.252 102.339 101.235 102.412 100.83 101.693C100.603 101.287 100.615 100.714 100.872 100.383C101.394 99.71 103.058 99.8647 103.853 100.793C104.699 101.783 104.304 103.351 103.567 104.169C103.114 104.671 102.179 105.282 101.565 104.924Z" stroke="url(#paint10_linear_178_516)" stroke-miterlimit="10"/>
<path d="M101.173 105.1C100.839 104.855 100.63 104.324 100.768 103.901C101.012 103.151 102.217 103.151 102.231 102.715C102.246 102.291 101.1 102.253 100.73 101.402C100.523 100.923 100.605 100.283 100.928 99.9443C101.59 99.2541 103.434 99.6222 104.212 100.752C105.043 101.956 104.415 103.663 103.496 104.489C102.933 104.997 101.816 105.57 101.173 105.1Z" stroke="url(#paint11_linear_178_516)" stroke-miterlimit="10"/>
<path d="M100.712 105.248C100.367 104.934 100.196 104.318 100.401 103.862C100.762 103.052 102.108 103.192 102.173 102.707C102.238 102.234 100.962 102.057 100.651 101.063C100.476 100.503 100.643 99.7978 101.044 99.4569C101.864 98.7625 103.881 99.392 104.618 100.745C105.405 102.188 104.503 104.023 103.38 104.838C102.691 105.342 101.376 105.851 100.712 105.248Z" stroke="url(#paint12_linear_178_516)" stroke-miterlimit="10"/>
<path d="M100.179 105.361C99.8306 104.97 99.7116 104.261 99.9935 103.776C100.492 102.914 101.979 103.228 102.11 102.694C102.238 102.174 100.835 101.826 100.601 100.678C100.469 100.032 100.739 99.2644 101.229 98.9298C102.227 98.25 104.407 99.1912 105.073 100.791C105.783 102.496 104.561 104.439 103.211 105.219C102.38 105.698 100.849 106.112 100.179 105.361Z" stroke="url(#paint13_linear_178_516)" stroke-miterlimit="10"/>
<path d="M99.5721 105.424C99.2297 104.947 99.1796 104.14 99.5491 103.629C100.207 102.724 101.833 103.251 102.042 102.672C102.246 102.105 100.718 101.55 100.593 100.241C100.522 99.5029 100.912 98.6768 101.499 98.3609C102.693 97.7189 105.019 99.026 105.574 100.894C106.167 102.883 104.574 104.909 102.973 105.623C101.99 106.06 100.232 106.342 99.5721 105.424Z" stroke="url(#paint14_linear_178_516)" stroke-miterlimit="10"/>
<path d="M98.8846 105.422C98.5568 104.849 98.5965 103.941 99.0704 103.414C99.9117 102.481 101.665 103.259 101.968 102.636C102.262 102.027 100.619 101.228 100.634 99.7497C100.642 98.9173 101.175 98.0388 101.868 97.7565C103.277 97.1792 105.722 98.9131 106.127 101.065C106.557 103.357 104.54 105.436 102.667 106.043C101.513 106.417 99.5151 106.526 98.8846 105.422Z" stroke="url(#paint15_linear_178_516)" stroke-miterlimit="10"/>
<path d="M98.1185 105.34C97.8199 104.66 97.9702 103.65 98.5611 103.119C99.6112 102.176 101.48 103.253 101.889 102.59C102.29 101.944 100.546 100.858 100.736 99.208C100.843 98.2772 101.542 97.3591 102.348 97.1248C103.991 96.6459 106.519 98.8712 106.718 101.322C106.929 103.935 104.432 106.02 102.267 106.478C100.937 106.76 98.6926 106.649 98.1185 105.34Z" stroke="url(#paint16_linear_178_516)" stroke-miterlimit="10"/>
<path d="M97.2711 105.158C97.0164 104.364 97.3024 103.253 98.0268 102.728C99.3107 101.797 101.273 103.22 101.808 102.529C102.332 101.854 100.511 100.436 100.916 98.6141C101.144 97.5871 102.033 96.6439 102.962 96.4765C104.853 96.1356 107.419 98.9194 107.352 101.682C107.281 104.625 104.248 106.662 101.774 106.919C100.254 107.078 97.7596 106.687 97.2711 105.158Z" stroke="url(#paint17_linear_178_516)" stroke-miterlimit="10"/>
<path d="M96.3439 104.855C96.1539 103.937 96.6028 102.73 97.4733 102.228C99.0182 101.339 101.043 103.161 101.722 102.452C102.386 101.76 100.519 99.9588 101.185 97.9719C101.561 96.8509 102.663 95.9013 103.722 95.824C105.876 95.665 108.415 99.0783 108.018 102.157C107.594 105.439 103.964 107.356 101.173 107.354C99.4545 107.352 96.7113 106.622 96.3439 104.855Z" stroke="url(#paint18_linear_178_516)" stroke-miterlimit="10"/>
<path d="M95.3465 104.407C95.2421 103.36 95.8851 102.063 96.9164 101.605C98.7473 100.791 100.795 103.067 101.639 102.354C102.461 101.659 100.587 99.4276 101.564 97.2838C102.115 96.0749 103.459 95.1442 104.649 95.1819C107.075 95.2572 109.513 99.3711 108.708 102.766C107.85 106.382 103.568 108.099 100.449 107.766C98.5281 107.563 95.549 106.424 95.3465 104.407Z" stroke="url(#paint19_linear_178_516)" stroke-miterlimit="10"/>
<path d="M94.2818 103.79C94.288 102.607 95.1586 101.235 96.3653 100.844C98.5051 100.151 100.528 102.933 101.553 102.236C102.553 101.557 100.72 98.842 102.065 96.5622C102.822 95.2781 104.432 94.3954 105.76 94.5774C108.461 94.9476 110.703 99.8312 109.407 103.529C108.025 107.469 103.04 108.883 99.5907 108.147C97.4676 107.691 94.2713 106.068 94.2818 103.79Z" stroke="url(#paint20_linear_178_516)" stroke-miterlimit="10"/>
<path d="M93.1672 102.975C93.3112 101.653 94.4469 100.22 95.8394 99.9275C98.3133 99.4046 100.247 102.753 101.474 102.094C102.672 101.452 100.942 98.2041 102.71 95.8135C103.708 94.4666 105.61 93.6697 107.071 94.0295C110.046 94.7615 111.979 100.482 110.096 104.462C108.09 108.701 102.353 109.697 98.5868 108.467C96.2695 107.708 92.8874 105.518 93.1672 102.975Z" stroke="url(#paint21_linear_178_516)" stroke-miterlimit="10"/>
<path d="M92.0145 101.931C92.3318 100.471 93.7661 99.0051 95.359 98.8399C98.1836 98.5471 99.9519 102.515 101.401 101.925C102.814 101.348 101.261 97.5139 103.518 95.0522C104.789 93.6634 107.01 92.9983 108.601 93.5714C111.841 94.7385 113.33 101.358 110.758 105.585C108.019 110.088 101.49 110.523 97.4258 108.705C94.9268 107.586 91.4049 104.742 92.0145 101.931Z" stroke="url(#paint22_linear_178_516)" stroke-miterlimit="10"/>
<path d="M90.85 100.63C91.3761 99.0365 93.1506 97.5662 94.9481 97.5683C98.1381 97.5746 99.6495 102.216 101.338 101.726C102.986 101.247 101.7 96.7819 104.51 94.2951C106.094 92.8938 108.654 92.4107 110.364 93.2389C113.846 94.9247 114.735 102.496 111.366 106.915C107.777 111.623 100.432 111.343 96.1026 108.833C93.4408 107.292 89.8395 103.701 90.85 100.63Z" stroke="url(#paint23_linear_178_516)" stroke-miterlimit="10"/>
<path d="M89.6992 99.0406C90.4737 97.3214 92.6303 95.8867 94.6386 96.1021C98.2044 96.4828 99.3484 101.847 101.292 101.5C103.19 101.159 102.275 96.0185 105.707 93.5693C107.643 92.191 110.559 91.9505 112.373 93.0778C116.069 95.3722 116.173 103.937 111.891 108.48C107.33 113.319 99.1543 112.14 94.6115 108.827C91.814 106.79 88.2107 102.351 89.6992 99.0406Z" stroke="url(#paint24_linear_178_516)" stroke-miterlimit="10"/>
<path d="M88.6031 97.1269C89.6699 95.2969 92.2482 93.9479 94.4674 94.4248C98.4069 95.2697 99.0561 101.4 101.269 101.239C103.43 101.082 103.01 95.2279 107.133 92.898C109.457 91.5845 112.743 91.6598 114.639 93.1322C118.499 96.1314 117.611 105.715 112.294 110.287C106.628 115.158 97.6323 112.878 92.9434 108.643C90.0561 106.035 86.5509 100.651 88.6031 97.1269Z" stroke="url(#paint25_linear_178_516)" stroke-miterlimit="10"/>
<path d="M87.6013 94.8618C89.0084 92.9418 92.046 91.7392 94.4698 92.5319C98.7725 93.9395 98.7788 100.866 101.271 100.946C103.704 101.025 103.923 94.433 108.802 92.3144C111.551 91.1201 115.215 91.5907 117.161 93.4605C121.121 97.2649 119.008 107.869 112.528 112.353C105.626 117.128 95.8414 113.524 91.0982 108.239C88.1817 104.987 84.8936 98.5575 87.6013 94.8618Z" stroke="url(#paint26_linear_178_516)" stroke-miterlimit="10"/>
<path d="M86.745 92.2119C88.5425 90.2312 92.079 89.2441 94.6949 90.4174C99.3379 92.4963 98.5341 100.237 101.309 100.622C104.018 100.996 105.033 93.6571 110.734 91.8626C113.947 90.8503 117.987 91.8103 119.941 94.1256C123.92 98.8419 120.315 110.443 112.551 114.691C104.277 119.215 93.7658 114.037 89.0874 107.572C86.2084 103.594 83.2878 96.0226 86.745 92.2119Z" stroke="url(#paint27_linear_178_516)" stroke-miterlimit="10"/>
<path d="M86.1017 89.15C88.3417 87.1485 92.4085 86.4624 95.1956 88.0792C100.139 90.9487 98.3334 99.5049 101.39 100.26C104.373 100.996 106.369 92.9147 112.949 91.5824C116.659 90.8295 121.06 92.3772 122.972 95.1944C126.866 100.933 121.477 113.474 112.302 117.306C102.528 121.388 91.3877 114.363 86.9159 106.589C84.1664 101.806 81.7906 93.0025 86.1017 89.15Z" stroke="url(#paint28_linear_178_516)" stroke-miterlimit="10"/>
<path d="M85.7412 85.653C88.4781 83.6807 93.1044 83.3921 96.0272 85.5275C101.215 89.3173 98.1942 98.6641 101.522 99.8667C104.768 101.042 107.948 92.2453 115.457 91.5301C119.691 91.1264 124.426 93.3727 126.234 96.7462C129.912 103.619 122.42 116.996 111.718 120.198C100.317 123.609 88.6931 114.451 84.6076 105.236C82.094 99.5655 80.4719 89.449 85.7412 85.653Z" stroke="url(#paint29_linear_178_516)" stroke-miterlimit="10"/>
<path d="M85.7474 81.7022C89.0376 79.8198 94.2401 80.0415 97.2568 82.7709C102.61 87.6148 98.1378 97.7041 101.716 99.4401C105.207 101.134 109.789 91.6806 118.265 91.7622C123.042 91.8082 128.073 94.8764 129.695 98.8586C133 106.972 123.06 121.039 110.726 123.358C97.5866 125.83 85.6722 114.227 82.1858 103.452C80.0418 96.8194 79.4155 85.3246 85.7474 81.7022Z" stroke="url(#paint30_linear_178_516)" stroke-miterlimit="10"/>
<path d="M86.2193 77.2892C90.117 75.5721 95.904 76.4338 98.9541 79.8388C104.367 85.8832 98.1879 96.6292 101.981 98.9905C105.683 101.295 111.912 91.2687 121.374 92.3584C126.706 92.9733 131.967 96.991 133.315 101.634C136.058 111.088 123.301 125.638 109.246 126.778C94.2735 127.993 82.3195 113.625 79.689 101.172C78.071 93.5108 78.7182 80.5917 86.2193 77.2892Z" stroke="url(#paint31_linear_178_516)" stroke-miterlimit="10"/>
<path d="M87.2625 72.4119C91.8199 70.952 98.1852 72.596 101.196 76.758C106.536 84.1472 98.3731 95.4308 102.333 98.5157C106.2 101.525 114.335 91.0554 124.782 93.3874C130.669 94.7009 136.077 99.8104 137.037 105.158C138.993 116.044 123.033 130.802 107.194 130.423C90.3188 130.02 78.6466 112.558 77.1665 98.3338C76.2541 89.5809 78.4921 75.2208 87.2625 72.4119Z" stroke="url(#paint32_linear_178_516)" stroke-miterlimit="10"/>
<path d="M89.0002 67.0849C94.2632 65.9889 101.186 68.574 104.059 73.581C109.161 82.4677 98.7142 94.1152 102.779 98.0284C106.748 101.847 117.065 91.1056 128.464 94.9393C134.887 97.0998 140.332 103.445 140.779 109.534C141.689 121.928 122.123 136.541 104.47 134.255C85.662 131.818 74.6641 110.931 74.6787 94.864C74.6871 84.9754 78.8708 69.1931 89.0002 67.0849Z" stroke="url(#paint33_linear_178_516)" stroke-miterlimit="10"/>
<path d="M91.5659 61.3373C97.5742 60.7329 105.006 64.4348 107.633 70.3684C112.292 80.899 99.2527 92.6845 103.338 97.5368C107.324 102.272 120.115 91.4819 132.403 97.1059C139.328 100.277 144.668 108.009 144.453 114.863C144.017 128.821 120.441 142.847 100.981 138.214C80.2507 133.278 70.4093 108.645 72.3091 90.6913C73.4761 79.6441 80.0001 62.5002 91.5659 61.3373Z" stroke="url(#paint34_linear_178_516)" stroke-miterlimit="10"/>
<path d="M95.1082 55.2177C101.893 55.2491 109.764 60.2623 112.002 67.1998C115.973 79.5145 100.023 91.1515 104.016 97.0516C107.916 102.812 123.474 92.2579 136.544 99.9901C143.912 104.349 148.97 113.616 147.929 121.25C145.805 136.796 117.816 149.696 96.6135 142.23C74.0269 134.276 65.9183 105.591 70.1459 85.7513C72.7471 73.5454 82.0477 55.157 95.1082 55.2177Z" stroke="url(#paint35_linear_178_516)" stroke-miterlimit="10"/>
<path d="M99.7825 48.7947C107.361 49.6292 115.57 56.1546 117.256 64.1713C120.25 78.3997 101.062 89.5264 104.835 96.5893C108.517 103.485 127.137 93.5232 140.839 103.7C148.561 109.437 153.127 120.388 151.066 128.796C146.87 145.917 114.081 157.04 91.2648 146.201C66.958 134.659 61.2607 101.651 68.3087 79.9788C72.6469 66.6434 85.1959 47.1905 99.7825 48.7947Z" stroke="url(#paint36_linear_178_516)" stroke-miterlimit="10"/>
<path d="M105.76 42.1669C114.131 43.9907 122.536 52.2499 123.482 61.4065C125.16 77.6594 102.413 87.8345 105.801 96.1712C109.108 104.309 131.083 95.368 145.2 108.354C153.156 115.672 156.977 128.449 153.687 137.601C146.991 156.241 109.048 164.81 84.8224 150.014C59.0124 134.253 56.5155 96.6982 66.933 73.3112C73.3443 58.9218 89.647 38.6574 105.76 42.1669Z" stroke="url(#paint37_linear_178_516)" stroke-miterlimit="10"/>
<path d="M113.215 35.4657C122.355 38.4879 130.78 48.7069 130.764 59.0493C130.732 77.4063 104.123 86.1006 106.931 95.8156C109.672 105.298 135.275 97.8924 149.528 114.066C157.559 123.181 160.331 137.905 155.584 147.747C145.916 167.788 102.511 172.899 77.1772 153.516C50.1835 132.864 51.7952 90.6057 66.1793 65.6982C75.029 50.3718 95.6239 29.6493 113.215 35.4657Z" stroke="url(#paint38_linear_178_516)" stroke-miterlimit="10"/>
<path d="M122.332 28.8524C132.192 33.3052 140.409 45.7161 139.177 57.2715C136.992 77.7827 106.236 84.3667 108.234 95.552C110.184 106.47 139.664 101.209 153.693 120.957C161.599 132.088 162.971 148.868 156.511 159.307C143.359 180.563 94.2589 181.167 68.2193 156.527C40.4803 130.275 47.236 83.2436 66.2276 57.1021C77.9144 41.0186 103.357 20.2836 122.332 28.8524Z" stroke="url(#paint39_linear_178_516)" stroke-miterlimit="10"/>
<path d="M133.296 22.5382C143.791 28.6747 151.52 43.5075 148.787 56.276C143.939 78.9373 108.801 82.6748 109.722 95.4119C110.622 107.842 144.181 105.432 157.542 129.15C165.073 142.516 164.636 161.43 156.196 172.335C139.008 194.538 84.0687 189.437 57.86 158.838C29.9394 126.24 43.0041 74.4803 67.2901 47.5043C82.2337 30.9042 113.096 10.7276 133.296 22.5382Z" stroke="url(#paint40_linear_178_516)" stroke-miterlimit="10"/>
<defs>
<linearGradient id="paint0_linear_178_516" x1="313.252" y1="-99.046" x2="313.243" y2="-99.0302" gradientUnits="userSpaceOnUse">
<stop stop-color="#FBFD54"/>
<stop offset="0.0308" stop-color="#EEF862"/>
<stop offset="0.1588" stop-color="#BEE695"/>
<stop offset="0.279" stop-color="#98D8BE"/>
<stop offset="0.3879" stop-color="#7DCDDB"/>
<stop offset="0.4817" stop-color="#6CC7ED"/>
<stop offset="0.5498" stop-color="#66C5F3"/>
<stop offset="0.61" stop-color="#67C7EE"/>
<stop offset="0.6811" stop-color="#69CBE0"/>
<stop offset="0.7578" stop-color="#6DD3C8"/>
<stop offset="0.8385" stop-color="#73DDA7"/>
<stop offset="0.9213" stop-color="#7AEB7C"/>
<stop offset="1" stop-color="#82FA4D"/>
</linearGradient>
<linearGradient id="paint1_linear_178_516" x1="102.879" y1="101.978" x2="102.12" y2="103.02" gradientUnits="userSpaceOnUse">
<stop stop-color="#FBFD54"/>
<stop offset="0.0308" stop-color="#EEF862"/>
<stop offset="0.1588" stop-color="#BEE695"/>
<stop offset="0.279" stop-color="#98D8BE"/>
<stop offset="0.3879" stop-color="#7DCDDB"/>
<stop offset="0.4817" stop-color="#6CC7ED"/>
<stop offset="0.5498" stop-color="#66C5F3"/>
<stop offset="0.61" stop-color="#67C7EE"/>
<stop offset="0.6811" stop-color="#69CBE0"/>
<stop offset="0.7578" stop-color="#6DD3C8"/>
<stop offset="0.8385" stop-color="#73DDA7"/>
<stop offset="0.9213" stop-color="#7AEB7C"/>
<stop offset="1" stop-color="#82FA4D"/>
</linearGradient>
<linearGradient id="paint2_linear_178_516" x1="102.984" y1="101.961" x2="102.014" y2="103.036" gradientUnits="userSpaceOnUse">
<stop stop-color="#FBFD54"/>
<stop offset="0.0308" stop-color="#EEF862"/>
<stop offset="0.1588" stop-color="#BEE695"/>
<stop offset="0.279" stop-color="#98D8BE"/>
<stop offset="0.3879" stop-color="#7DCDDB"/>
<stop offset="0.4817" stop-color="#6CC7ED"/>
<stop offset="0.5498" stop-color="#66C5F3"/>
<stop offset="0.61" stop-color="#67C7EE"/>
<stop offset="0.6811" stop-color="#69CBE0"/>
<stop offset="0.7578" stop-color="#6DD3C8"/>
<stop offset="0.8385" stop-color="#73DDA7"/>
<stop offset="0.9213" stop-color="#7AEB7C"/>
<stop offset="1" stop-color="#82FA4D"/>
</linearGradient>
<linearGradient id="paint3_linear_178_516" x1="103.104" y1="101.955" x2="101.894" y2="103.042" gradientUnits="userSpaceOnUse">
<stop stop-color="#FBFD54"/>
<stop offset="0.0308" stop-color="#EEF862"/>
<stop offset="0.1588" stop-color="#BEE695"/>
<stop offset="0.279" stop-color="#98D8BE"/>
<stop offset="0.3879" stop-color="#7DCDDB"/>
<stop offset="0.4817" stop-color="#6CC7ED"/>
<stop offset="0.5498" stop-color="#66C5F3"/>
<stop offset="0.61" stop-color="#67C7EE"/>
<stop offset="0.6811" stop-color="#69CBE0"/>
<stop offset="0.7578" stop-color="#6DD3C8"/>
<stop offset="0.8385" stop-color="#73DDA7"/>
<stop offset="0.9213" stop-color="#7AEB7C"/>
<stop offset="1" stop-color="#82FA4D"/>
</linearGradient>
<linearGradient id="paint4_linear_178_516" x1="103.042" y1="101.988" x2="101.562" y2="103.061" gradientUnits="userSpaceOnUse">
<stop stop-color="#FBFD54"/>
<stop offset="0.0308" stop-color="#EEF862"/>
<stop offset="0.1588" stop-color="#BEE695"/>
<stop offset="0.279" stop-color="#98D8BE"/>
<stop offset="0.3879" stop-color="#7DCDDB"/>
<stop offset="0.4817" stop-color="#6CC7ED"/>
<stop offset="0.5498" stop-color="#66C5F3"/>
<stop offset="0.61" stop-color="#67C7EE"/>
<stop offset="0.6811" stop-color="#69CBE0"/>
<stop offset="0.7578" stop-color="#6DD3C8"/>
<stop offset="0.8385" stop-color="#73DDA7"/>
<stop offset="0.9213" stop-color="#7AEB7C"/>
<stop offset="1" stop-color="#82FA4D"/>
</linearGradient>
<linearGradient id="paint5_linear_178_516" x1="102.739" y1="102.141" x2="100.957" y2="103.166" gradientUnits="userSpaceOnUse">
<stop stop-color="#FBFD54"/>
<stop offset="0.0308" stop-color="#EEF862"/>
<stop offset="0.1588" stop-color="#BEE695"/>
<stop offset="0.279" stop-color="#98D8BE"/>
<stop offset="0.3879" stop-color="#7DCDDB"/>
<stop offset="0.4817" stop-color="#6CC7ED"/>
<stop offset="0.5498" stop-color="#66C5F3"/>
<stop offset="0.61" stop-color="#67C7EE"/>
<stop offset="0.6811" stop-color="#69CBE0"/>
<stop offset="0.7578" stop-color="#6DD3C8"/>
<stop offset="0.8385" stop-color="#73DDA7"/>
<stop offset="0.9213" stop-color="#7AEB7C"/>
<stop offset="1" stop-color="#82FA4D"/>
</linearGradient>
<linearGradient id="paint6_linear_178_516" x1="103.226" y1="102.145" x2="101.117" y2="103.082" gradientUnits="userSpaceOnUse">
<stop stop-color="#FBFD54"/>
<stop offset="0.0308" stop-color="#EEF862"/>
<stop offset="0.1588" stop-color="#BEE695"/>
<stop offset="0.279" stop-color="#98D8BE"/>
<stop offset="0.3879" stop-color="#7DCDDB"/>
<stop offset="0.4817" stop-color="#6CC7ED"/>
<stop offset="0.5498" stop-color="#66C5F3"/>
<stop offset="0.61" stop-color="#67C7EE"/>
<stop offset="0.6811" stop-color="#69CBE0"/>
<stop offset="0.7578" stop-color="#6DD3C8"/>
<stop offset="0.8385" stop-color="#73DDA7"/>
<stop offset="0.9213" stop-color="#7AEB7C"/>
<stop offset="1" stop-color="#82FA4D"/>
</linearGradient>
<linearGradient id="paint7_linear_178_516" x1="104.07" y1="101.939" x2="101.61" y2="102.738" gradientUnits="userSpaceOnUse">
<stop stop-color="#FBFD54"/>
<stop offset="0.0308" stop-color="#EEF862"/>
<stop offset="0.1588" stop-color="#BEE695"/>
<stop offset="0.279" stop-color="#98D8BE"/>
<stop offset="0.3879" stop-color="#7DCDDB"/>
<stop offset="0.4817" stop-color="#6CC7ED"/>
<stop offset="0.5498" stop-color="#66C5F3"/>
<stop offset="0.61" stop-color="#67C7EE"/>
<stop offset="0.6811" stop-color="#69CBE0"/>
<stop offset="0.7578" stop-color="#6DD3C8"/>
<stop offset="0.8385" stop-color="#73DDA7"/>
<stop offset="0.9213" stop-color="#7AEB7C"/>
<stop offset="1" stop-color="#82FA4D"/>
</linearGradient>
<linearGradient id="paint8_linear_178_516" x1="103.819" y1="102.26" x2="100.971" y2="102.864" gradientUnits="userSpaceOnUse">
<stop stop-color="#FBFD54"/>
<stop offset="0.0308" stop-color="#EEF862"/>
<stop offset="0.1588" stop-color="#BEE695"/>
<stop offset="0.279" stop-color="#98D8BE"/>
<stop offset="0.3879" stop-color="#7DCDDB"/>
<stop offset="0.4817" stop-color="#6CC7ED"/>
<stop offset="0.5498" stop-color="#66C5F3"/>
<stop offset="0.61" stop-color="#67C7EE"/>
<stop offset="0.6811" stop-color="#69CBE0"/>
<stop offset="0.7578" stop-color="#6DD3C8"/>
<stop offset="0.8385" stop-color="#73DDA7"/>
<stop offset="0.9213" stop-color="#7AEB7C"/>
<stop offset="1" stop-color="#82FA4D"/>
</linearGradient>
<linearGradient id="paint9_linear_178_516" x1="104.435" y1="102.096" x2="101.187" y2="102.437" gradientUnits="userSpaceOnUse">
<stop stop-color="#FBFD54"/>
<stop offset="0.0308" stop-color="#EEF862"/>
<stop offset="0.1588" stop-color="#BEE695"/>
<stop offset="0.279" stop-color="#98D8BE"/>
<stop offset="0.3879" stop-color="#7DCDDB"/>
<stop offset="0.4817" stop-color="#6CC7ED"/>
<stop offset="0.5498" stop-color="#66C5F3"/>
<stop offset="0.61" stop-color="#67C7EE"/>
<stop offset="0.6811" stop-color="#69CBE0"/>
<stop offset="0.7578" stop-color="#6DD3C8"/>
<stop offset="0.8385" stop-color="#73DDA7"/>
<stop offset="0.9213" stop-color="#7AEB7C"/>
<stop offset="1" stop-color="#82FA4D"/>
</linearGradient>
<linearGradient id="paint10_linear_178_516" x1="104.466" y1="102.38" x2="100.794" y2="102.38" gradientUnits="userSpaceOnUse">
<stop stop-color="#FBFD54"/>
<stop offset="0.0308" stop-color="#EEF862"/>
<stop offset="0.1588" stop-color="#BEE695"/>
<stop offset="0.279" stop-color="#98D8BE"/>
<stop offset="0.3879" stop-color="#7DCDDB"/>
<stop offset="0.4817" stop-color="#6CC7ED"/>
<stop offset="0.5498" stop-color="#66C5F3"/>
<stop offset="0.61" stop-color="#67C7EE"/>
<stop offset="0.6811" stop-color="#69CBE0"/>
<stop offset="0.7578" stop-color="#6DD3C8"/>
<stop offset="0.8385" stop-color="#73DDA7"/>
<stop offset="0.9213" stop-color="#7AEB7C"/>
<stop offset="1" stop-color="#82FA4D"/>
</linearGradient>
<linearGradient id="paint11_linear_178_516" x1="104.428" y1="102.857" x2="100.321" y2="102.426" gradientUnits="userSpaceOnUse">
<stop stop-color="#FBFD54"/>
<stop offset="0.0308" stop-color="#EEF862"/>
<stop offset="0.1588" stop-color="#BEE695"/>
<stop offset="0.279" stop-color="#98D8BE"/>
<stop offset="0.3879" stop-color="#7DCDDB"/>
<stop offset="0.4817" stop-color="#6CC7ED"/>
<stop offset="0.5498" stop-color="#66C5F3"/>
<stop offset="0.61" stop-color="#67C7EE"/>
<stop offset="0.6811" stop-color="#69CBE0"/>
<stop offset="0.7578" stop-color="#6DD3C8"/>
<stop offset="0.8385" stop-color="#73DDA7"/>
<stop offset="0.9213" stop-color="#7AEB7C"/>
<stop offset="1" stop-color="#82FA4D"/>
</linearGradient>
<linearGradient id="paint12_linear_178_516" x1="104.945" y1="102.735" x2="100.413" y2="101.773" gradientUnits="userSpaceOnUse">
<stop stop-color="#FBFD54"/>
<stop offset="0.0308" stop-color="#EEF862"/>
<stop offset="0.1588" stop-color="#BEE695"/>
<stop offset="0.279" stop-color="#98D8BE"/>
<stop offset="0.3879" stop-color="#7DCDDB"/>
<stop offset="0.4817" stop-color="#6CC7ED"/>
<stop offset="0.5498" stop-color="#66C5F3"/>
<stop offset="0.61" stop-color="#67C7EE"/>
<stop offset="0.6811" stop-color="#69CBE0"/>
<stop offset="0.7578" stop-color="#6DD3C8"/>
<stop offset="0.8385" stop-color="#73DDA7"/>
<stop offset="0.9213" stop-color="#7AEB7C"/>
<stop offset="1" stop-color="#82FA4D"/>
</linearGradient>
<linearGradient id="paint13_linear_178_516" x1="104.92" y1="103.263" x2="99.9623" y2="101.654" gradientUnits="userSpaceOnUse">
<stop stop-color="#FBFD54"/>
<stop offset="0.0308" stop-color="#EEF862"/>
<stop offset="0.1588" stop-color="#BEE695"/>
<stop offset="0.279" stop-color="#98D8BE"/>
<stop offset="0.3879" stop-color="#7DCDDB"/>
<stop offset="0.4817" stop-color="#6CC7ED"/>
<stop offset="0.5498" stop-color="#66C5F3"/>
<stop offset="0.61" stop-color="#67C7EE"/>
<stop offset="0.6811" stop-color="#69CBE0"/>
<stop offset="0.7578" stop-color="#6DD3C8"/>
<stop offset="0.8385" stop-color="#73DDA7"/>
<stop offset="0.9213" stop-color="#7AEB7C"/>
<stop offset="1" stop-color="#82FA4D"/>
</linearGradient>
<linearGradient id="paint14_linear_178_516" x1="105.027" y1="103.328" x2="99.6802" y2="100.944" gradientUnits="userSpaceOnUse">
<stop stop-color="#FBFD54"/>
<stop offset="0.0308" stop-color="#EEF862"/>
<stop offset="0.1588" stop-color="#BEE695"/>
<stop offset="0.279" stop-color="#98D8BE"/>
<stop offset="0.3879" stop-color="#7DCDDB"/>
<stop offset="0.4817" stop-color="#6CC7ED"/>
<stop offset="0.5498" stop-color="#66C5F3"/>
<stop offset="0.61" stop-color="#67C7EE"/>
<stop offset="0.6811" stop-color="#69CBE0"/>
<stop offset="0.7578" stop-color="#6DD3C8"/>
<stop offset="0.8385" stop-color="#73DDA7"/>
<stop offset="0.9213" stop-color="#7AEB7C"/>
<stop offset="1" stop-color="#82FA4D"/>
</linearGradient>
<linearGradient id="paint15_linear_178_516" x1="105.628" y1="104.126" x2="99.9282" y2="100.846" gradientUnits="userSpaceOnUse">
<stop stop-color="#FBFD54"/>
<stop offset="0.0308" stop-color="#EEF862"/>
<stop offset="0.1588" stop-color="#BEE695"/>
<stop offset="0.279" stop-color="#98D8BE"/>
<stop offset="0.3879" stop-color="#7DCDDB"/>
<stop offset="0.4817" stop-color="#6CC7ED"/>
<stop offset="0.5498" stop-color="#66C5F3"/>
<stop offset="0.61" stop-color="#67C7EE"/>
<stop offset="0.6811" stop-color="#69CBE0"/>
<stop offset="0.7578" stop-color="#6DD3C8"/>
<stop offset="0.8385" stop-color="#73DDA7"/>
<stop offset="0.9213" stop-color="#7AEB7C"/>
<stop offset="1" stop-color="#82FA4D"/>
</linearGradient>
<linearGradient id="paint16_linear_178_516" x1="105.235" y1="104.852" x2="99.2415" y2="100.505" gradientUnits="userSpaceOnUse">
<stop stop-color="#FBFD54"/>
<stop offset="0.0308" stop-color="#EEF862"/>
<stop offset="0.1588" stop-color="#BEE695"/>
<stop offset="0.279" stop-color="#98D8BE"/>
<stop offset="0.3879" stop-color="#7DCDDB"/>
<stop offset="0.4817" stop-color="#6CC7ED"/>
<stop offset="0.5498" stop-color="#66C5F3"/>
<stop offset="0.61" stop-color="#67C7EE"/>
<stop offset="0.6811" stop-color="#69CBE0"/>
<stop offset="0.7578" stop-color="#6DD3C8"/>
<stop offset="0.8385" stop-color="#73DDA7"/>
<stop offset="0.9213" stop-color="#7AEB7C"/>
<stop offset="1" stop-color="#82FA4D"/>
</linearGradient>
<linearGradient id="paint17_linear_178_516" x1="105.456" y1="105.098" x2="99.2783" y2="99.5375" gradientUnits="userSpaceOnUse">
<stop stop-color="#FBFD54"/>
<stop offset="0.0308" stop-color="#EEF862"/>
<stop offset="0.1588" stop-color="#BEE695"/>
<stop offset="0.279" stop-color="#98D8BE"/>
<stop offset="0.3879" stop-color="#7DCDDB"/>
<stop offset="0.4817" stop-color="#6CC7ED"/>
<stop offset="0.5498" stop-color="#66C5F3"/>
<stop offset="0.61" stop-color="#67C7EE"/>
<stop offset="0.6811" stop-color="#69CBE0"/>
<stop offset="0.7578" stop-color="#6DD3C8"/>
<stop offset="0.8385" stop-color="#73DDA7"/>
<stop offset="0.9213" stop-color="#7AEB7C"/>
<stop offset="1" stop-color="#82FA4D"/>
</linearGradient>
<linearGradient id="paint18_linear_178_516" x1="105.758" y1="105.847" x2="99.5052" y2="98.9151" gradientUnits="userSpaceOnUse">
<stop stop-color="#FBFD54"/>
<stop offset="0.0308" stop-color="#EEF862"/>
<stop offset="0.1588" stop-color="#BEE695"/>
<stop offset="0.279" stop-color="#98D8BE"/>
<stop offset="0.3879" stop-color="#7DCDDB"/>
<stop offset="0.4817" stop-color="#6CC7ED"/>
<stop offset="0.5498" stop-color="#66C5F3"/>
<stop offset="0.61" stop-color="#67C7EE"/>
<stop offset="0.6811" stop-color="#69CBE0"/>
<stop offset="0.7578" stop-color="#6DD3C8"/>
<stop offset="0.8385" stop-color="#73DDA7"/>
<stop offset="0.9213" stop-color="#7AEB7C"/>
<stop offset="1" stop-color="#82FA4D"/>
</linearGradient>
<linearGradient id="paint19_linear_178_516" x1="105.617" y1="106.872" x2="99.4347" y2="98.3853" gradientUnits="userSpaceOnUse">
<stop stop-color="#FBFD54"/>
<stop offset="0.0308" stop-color="#EEF862"/>
<stop offset="0.1588" stop-color="#BEE695"/>
<stop offset="0.279" stop-color="#98D8BE"/>
<stop offset="0.3879" stop-color="#7DCDDB"/>
<stop offset="0.4817" stop-color="#6CC7ED"/>
<stop offset="0.5498" stop-color="#66C5F3"/>
<stop offset="0.61" stop-color="#67C7EE"/>
<stop offset="0.6811" stop-color="#69CBE0"/>
<stop offset="0.7578" stop-color="#6DD3C8"/>
<stop offset="0.8385" stop-color="#73DDA7"/>
<stop offset="0.9213" stop-color="#7AEB7C"/>
<stop offset="1" stop-color="#82FA4D"/>
</linearGradient>
<linearGradient id="paint20_linear_178_516" x1="105.45" y1="107.564" x2="99.5445" y2="97.3517" gradientUnits="userSpaceOnUse">
<stop stop-color="#FBFD54"/>
<stop offset="0.0308" stop-color="#EEF862"/>
<stop offset="0.1588" stop-color="#BEE695"/>
<stop offset="0.279" stop-color="#98D8BE"/>
<stop offset="0.3879" stop-color="#7DCDDB"/>
<stop offset="0.4817" stop-color="#6CC7ED"/>
<stop offset="0.5498" stop-color="#66C5F3"/>
<stop offset="0.61" stop-color="#67C7EE"/>
<stop offset="0.6811" stop-color="#69CBE0"/>
<stop offset="0.7578" stop-color="#6DD3C8"/>
<stop offset="0.8385" stop-color="#73DDA7"/>
<stop offset="0.9213" stop-color="#7AEB7C"/>
<stop offset="1" stop-color="#82FA4D"/>
</linearGradient>
<linearGradient id="paint21_linear_178_516" x1="105.176" y1="108.465" x2="99.7791" y2="96.3569" gradientUnits="userSpaceOnUse">
<stop stop-color="#FBFD54"/>
<stop offset="0.0308" stop-color="#EEF862"/>
<stop offset="0.1588" stop-color="#BEE695"/>
<stop offset="0.279" stop-color="#98D8BE"/>
<stop offset="0.3879" stop-color="#7DCDDB"/>
<stop offset="0.4817" stop-color="#6CC7ED"/>
<stop offset="0.5498" stop-color="#66C5F3"/>
<stop offset="0.61" stop-color="#67C7EE"/>
<stop offset="0.6811" stop-color="#69CBE0"/>
<stop offset="0.7578" stop-color="#6DD3C8"/>
<stop offset="0.8385" stop-color="#73DDA7"/>
<stop offset="0.9213" stop-color="#7AEB7C"/>
<stop offset="1" stop-color="#82FA4D"/>
</linearGradient>
<linearGradient id="paint22_linear_178_516" x1="104.867" y1="109.481" x2="100.26" y2="95.3192" gradientUnits="userSpaceOnUse">
<stop stop-color="#FBFD54"/>
<stop offset="0.0308" stop-color="#EEF862"/>
<stop offset="0.1588" stop-color="#BEE695"/>
<stop offset="0.279" stop-color="#98D8BE"/>
<stop offset="0.3879" stop-color="#7DCDDB"/>
<stop offset="0.4817" stop-color="#6CC7ED"/>
<stop offset="0.5498" stop-color="#66C5F3"/>
<stop offset="0.61" stop-color="#67C7EE"/>
<stop offset="0.6811" stop-color="#69CBE0"/>
<stop offset="0.7578" stop-color="#6DD3C8"/>
<stop offset="0.8385" stop-color="#73DDA7"/>
<stop offset="0.9213" stop-color="#7AEB7C"/>
<stop offset="1" stop-color="#82FA4D"/>
</linearGradient>
<linearGradient id="paint23_linear_178_516" x1="104.273" y1="110.729" x2="100.783" y2="94.356" gradientUnits="userSpaceOnUse">
<stop stop-color="#FBFD54"/>
<stop offset="0.0308" stop-color="#EEF862"/>
<stop offset="0.1588" stop-color="#BEE695"/>
<stop offset="0.279" stop-color="#98D8BE"/>
<stop offset="0.3879" stop-color="#7DCDDB"/>
<stop offset="0.4817" stop-color="#6CC7ED"/>
<stop offset="0.5498" stop-color="#66C5F3"/>
<stop offset="0.61" stop-color="#67C7EE"/>
<stop offset="0.6811" stop-color="#69CBE0"/>
<stop offset="0.7578" stop-color="#6DD3C8"/>
<stop offset="0.8385" stop-color="#73DDA7"/>
<stop offset="0.9213" stop-color="#7AEB7C"/>
<stop offset="1" stop-color="#82FA4D"/>
</linearGradient>
<linearGradient id="paint24_linear_178_516" x1="103.512" y1="111.84" x2="101.542" y2="93.1339" gradientUnits="userSpaceOnUse">
<stop stop-color="#FBFD54"/>
<stop offset="0.0308" stop-color="#EEF862"/>
<stop offset="0.1588" stop-color="#BEE695"/>
<stop offset="0.279" stop-color="#98D8BE"/>
<stop offset="0.3879" stop-color="#7DCDDB"/>
<stop offset="0.4817" stop-color="#6CC7ED"/>
<stop offset="0.5498" stop-color="#66C5F3"/>
<stop offset="0.61" stop-color="#67C7EE"/>
<stop offset="0.6811" stop-color="#69CBE0"/>
<stop offset="0.7578" stop-color="#6DD3C8"/>
<stop offset="0.8385" stop-color="#73DDA7"/>
<stop offset="0.9213" stop-color="#7AEB7C"/>
<stop offset="1" stop-color="#82FA4D"/>
</linearGradient>
<linearGradient id="paint25_linear_178_516" x1="102.527" y1="113.049" x2="102.527" y2="91.9147" gradientUnits="userSpaceOnUse">
<stop stop-color="#FBFD54"/>
<stop offset="0.0308" stop-color="#EEF862"/>
<stop offset="0.1588" stop-color="#BEE695"/>
<stop offset="0.279" stop-color="#98D8BE"/>
<stop offset="0.3879" stop-color="#7DCDDB"/>
<stop offset="0.4817" stop-color="#6CC7ED"/>
<stop offset="0.5498" stop-color="#66C5F3"/>
<stop offset="0.61" stop-color="#67C7EE"/>
<stop offset="0.6811" stop-color="#69CBE0"/>
<stop offset="0.7578" stop-color="#6DD3C8"/>
<stop offset="0.8385" stop-color="#73DDA7"/>
<stop offset="0.9213" stop-color="#7AEB7C"/>
<stop offset="1" stop-color="#82FA4D"/>
</linearGradient>
<linearGradient id="paint26_linear_178_516" x1="101.183" y1="114.283" x2="103.676" y2="90.6611" gradientUnits="userSpaceOnUse">
<stop stop-color="#FBFD54"/>
<stop offset="0.0308" stop-color="#EEF862"/>
<stop offset="0.1588" stop-color="#BEE695"/>
<stop offset="0.279" stop-color="#98D8BE"/>
<stop offset="0.3879" stop-color="#7DCDDB"/>
<stop offset="0.4817" stop-color="#6CC7ED"/>
<stop offset="0.5498" stop-color="#66C5F3"/>
<stop offset="0.61" stop-color="#67C7EE"/>
<stop offset="0.6811" stop-color="#69CBE0"/>
<stop offset="0.7578" stop-color="#6DD3C8"/>
<stop offset="0.8385" stop-color="#73DDA7"/>
<stop offset="0.9213" stop-color="#7AEB7C"/>
<stop offset="1" stop-color="#82FA4D"/>
</linearGradient>
<linearGradient id="paint27_linear_178_516" x1="99.7495" y1="115.538" x2="105.306" y2="89.4427" gradientUnits="userSpaceOnUse">
<stop stop-color="#FBFD54"/>
<stop offset="0.0308" stop-color="#EEF862"/>
<stop offset="0.1588" stop-color="#BEE695"/>
<stop offset="0.279" stop-color="#98D8BE"/>
<stop offset="0.3879" stop-color="#7DCDDB"/>
<stop offset="0.4817" stop-color="#6CC7ED"/>
<stop offset="0.5498" stop-color="#66C5F3"/>
<stop offset="0.61" stop-color="#67C7EE"/>
<stop offset="0.6811" stop-color="#69CBE0"/>
<stop offset="0.7578" stop-color="#6DD3C8"/>
<stop offset="0.8385" stop-color="#73DDA7"/>
<stop offset="0.9213" stop-color="#7AEB7C"/>
<stop offset="1" stop-color="#82FA4D"/>
</linearGradient>
<linearGradient id="paint28_linear_178_516" x1="97.8966" y1="116.773" x2="107.173" y2="88.2673" gradientUnits="userSpaceOnUse">
<stop stop-color="#FBFD54"/>
<stop offset="0.0308" stop-color="#EEF862"/>
<stop offset="0.1588" stop-color="#BEE695"/>
<stop offset="0.279" stop-color="#98D8BE"/>
<stop offset="0.3879" stop-color="#7DCDDB"/>
<stop offset="0.4817" stop-color="#6CC7ED"/>
<stop offset="0.5498" stop-color="#66C5F3"/>
<stop offset="0.61" stop-color="#67C7EE"/>
<stop offset="0.6811" stop-color="#69CBE0"/>
<stop offset="0.7578" stop-color="#6DD3C8"/>
<stop offset="0.8385" stop-color="#73DDA7"/>
<stop offset="0.9213" stop-color="#7AEB7C"/>
<stop offset="1" stop-color="#82FA4D"/>
</linearGradient>
<linearGradient id="paint29_linear_178_516" x1="95.6568" y1="117.857" x2="109.379" y2="87.1025" gradientUnits="userSpaceOnUse">
<stop stop-color="#FBFD54"/>
<stop offset="0.0308" stop-color="#EEF862"/>
<stop offset="0.1588" stop-color="#BEE695"/>
<stop offset="0.279" stop-color="#98D8BE"/>
<stop offset="0.3879" stop-color="#7DCDDB"/>
<stop offset="0.4817" stop-color="#6CC7ED"/>
<stop offset="0.5498" stop-color="#66C5F3"/>
<stop offset="0.61" stop-color="#67C7EE"/>
<stop offset="0.6811" stop-color="#69CBE0"/>
<stop offset="0.7578" stop-color="#6DD3C8"/>
<stop offset="0.8385" stop-color="#73DDA7"/>
<stop offset="0.9213" stop-color="#7AEB7C"/>
<stop offset="1" stop-color="#82FA4D"/>
</linearGradient>
<linearGradient id="paint30_linear_178_516" x1="93.0763" y1="118.865" x2="112.019" y2="86.1192" gradientUnits="userSpaceOnUse">
<stop stop-color="#FBFD54"/>
<stop offset="0.0308" stop-color="#EEF862"/>
<stop offset="0.1588" stop-color="#BEE695"/>
<stop offset="0.279" stop-color="#98D8BE"/>
<stop offset="0.3879" stop-color="#7DCDDB"/>
<stop offset="0.4817" stop-color="#6CC7ED"/>
<stop offset="0.5498" stop-color="#66C5F3"/>
<stop offset="0.61" stop-color="#67C7EE"/>
<stop offset="0.6811" stop-color="#69CBE0"/>
<stop offset="0.7578" stop-color="#6DD3C8"/>
<stop offset="0.8385" stop-color="#73DDA7"/>
<stop offset="0.9213" stop-color="#7AEB7C"/>
<stop offset="1" stop-color="#82FA4D"/>
</linearGradient>
<linearGradient id="paint31_linear_178_516" x1="90.0563" y1="119.687" x2="115.065" y2="85.3271" gradientUnits="userSpaceOnUse">
<stop stop-color="#FBFD54"/>
<stop offset="0.0308" stop-color="#EEF862"/>
<stop offset="0.1588" stop-color="#BEE695"/>
<stop offset="0.279" stop-color="#98D8BE"/>
<stop offset="0.3879" stop-color="#7DCDDB"/>
<stop offset="0.4817" stop-color="#6CC7ED"/>
<stop offset="0.5498" stop-color="#66C5F3"/>
<stop offset="0.61" stop-color="#67C7EE"/>
<stop offset="0.6811" stop-color="#69CBE0"/>
<stop offset="0.7578" stop-color="#6DD3C8"/>
<stop offset="0.8385" stop-color="#73DDA7"/>
<stop offset="0.9213" stop-color="#7AEB7C"/>
<stop offset="1" stop-color="#82FA4D"/>
</linearGradient>
<linearGradient id="paint32_linear_178_516" x1="86.5538" y1="120.234" x2="118.535" y2="84.7847" gradientUnits="userSpaceOnUse">
<stop stop-color="#FBFD54"/>
<stop offset="0.0308" stop-color="#EEF862"/>
<stop offset="0.1588" stop-color="#BEE695"/>
<stop offset="0.279" stop-color="#98D8BE"/>
<stop offset="0.3879" stop-color="#7DCDDB"/>
<stop offset="0.4817" stop-color="#6CC7ED"/>
<stop offset="0.5498" stop-color="#66C5F3"/>
<stop offset="0.61" stop-color="#67C7EE"/>
<stop offset="0.6811" stop-color="#69CBE0"/>
<stop offset="0.7578" stop-color="#6DD3C8"/>
<stop offset="0.8385" stop-color="#73DDA7"/>
<stop offset="0.9213" stop-color="#7AEB7C"/>
<stop offset="1" stop-color="#82FA4D"/>
</linearGradient>
<linearGradient id="paint33_linear_178_516" x1="82.5836" y1="120.48" x2="122.478" y2="84.6197" gradientUnits="userSpaceOnUse">
<stop stop-color="#FBFD54"/>
<stop offset="0.0308" stop-color="#EEF862"/>
<stop offset="0.1588" stop-color="#BEE695"/>
<stop offset="0.279" stop-color="#98D8BE"/>
<stop offset="0.3879" stop-color="#7DCDDB"/>
<stop offset="0.4817" stop-color="#6CC7ED"/>
<stop offset="0.5498" stop-color="#66C5F3"/>
<stop offset="0.61" stop-color="#67C7EE"/>
<stop offset="0.6811" stop-color="#69CBE0"/>
<stop offset="0.7578" stop-color="#6DD3C8"/>
<stop offset="0.8385" stop-color="#73DDA7"/>
<stop offset="0.9213" stop-color="#7AEB7C"/>
<stop offset="1" stop-color="#82FA4D"/>
</linearGradient>
<linearGradient id="paint34_linear_178_516" x1="78.1293" y1="120.222" x2="126.914" y2="84.8478" gradientUnits="userSpaceOnUse">
<stop stop-color="#FBFD54"/>
<stop offset="0.0308" stop-color="#EEF862"/>
<stop offset="0.1588" stop-color="#BEE695"/>
<stop offset="0.279" stop-color="#98D8BE"/>
<stop offset="0.3879" stop-color="#7DCDDB"/>
<stop offset="0.4817" stop-color="#6CC7ED"/>
<stop offset="0.5498" stop-color="#66C5F3"/>
<stop offset="0.61" stop-color="#67C7EE"/>
<stop offset="0.6811" stop-color="#69CBE0"/>
<stop offset="0.7578" stop-color="#6DD3C8"/>
<stop offset="0.8385" stop-color="#73DDA7"/>
<stop offset="0.9213" stop-color="#7AEB7C"/>
<stop offset="1" stop-color="#82FA4D"/>
</linearGradient>
<linearGradient id="paint35_linear_178_516" x1="73.1992" y1="119.446" x2="131.851" y2="85.6452" gradientUnits="userSpaceOnUse">
<stop stop-color="#FBFD54"/>
<stop offset="0.0308" stop-color="#EEF862"/>
<stop offset="0.1588" stop-color="#BEE695"/>
<stop offset="0.279" stop-color="#98D8BE"/>
<stop offset="0.3879" stop-color="#7DCDDB"/>
<stop offset="0.4817" stop-color="#6CC7ED"/>
<stop offset="0.5498" stop-color="#66C5F3"/>
<stop offset="0.61" stop-color="#67C7EE"/>
<stop offset="0.6811" stop-color="#69CBE0"/>
<stop offset="0.7578" stop-color="#6DD3C8"/>
<stop offset="0.8385" stop-color="#73DDA7"/>
<stop offset="0.9213" stop-color="#7AEB7C"/>
<stop offset="1" stop-color="#82FA4D"/>
</linearGradient>
<linearGradient id="paint36_linear_178_516" x1="67.7689" y1="117.991" x2="137.266" y2="87.1057" gradientUnits="userSpaceOnUse">
<stop stop-color="#FBFD54"/>
<stop offset="0.0308" stop-color="#EEF862"/>
<stop offset="0.1588" stop-color="#BEE695"/>
<stop offset="0.279" stop-color="#98D8BE"/>
<stop offset="0.3879" stop-color="#7DCDDB"/>
<stop offset="0.4817" stop-color="#6CC7ED"/>
<stop offset="0.5498" stop-color="#66C5F3"/>
<stop offset="0.61" stop-color="#67C7EE"/>
<stop offset="0.6811" stop-color="#69CBE0"/>
<stop offset="0.7578" stop-color="#6DD3C8"/>
<stop offset="0.8385" stop-color="#73DDA7"/>
<stop offset="0.9213" stop-color="#7AEB7C"/>
<stop offset="1" stop-color="#82FA4D"/>
</linearGradient>
<linearGradient id="paint37_linear_178_516" x1="61.871" y1="115.717" x2="143.145" y2="89.3646" gradientUnits="userSpaceOnUse">
<stop stop-color="#FBFD54"/>
<stop offset="0.0308" stop-color="#EEF862"/>
<stop offset="0.1588" stop-color="#BEE695"/>
<stop offset="0.279" stop-color="#98D8BE"/>
<stop offset="0.3879" stop-color="#7DCDDB"/>
<stop offset="0.4817" stop-color="#6CC7ED"/>
<stop offset="0.5498" stop-color="#66C5F3"/>
<stop offset="0.61" stop-color="#67C7EE"/>
<stop offset="0.6811" stop-color="#69CBE0"/>
<stop offset="0.7578" stop-color="#6DD3C8"/>
<stop offset="0.8385" stop-color="#73DDA7"/>
<stop offset="0.9213" stop-color="#7AEB7C"/>
<stop offset="1" stop-color="#82FA4D"/>
</linearGradient>
<linearGradient id="paint38_linear_178_516" x1="55.5588" y1="112.498" x2="149.457" y2="92.574" gradientUnits="userSpaceOnUse">
<stop stop-color="#FBFD54"/>
<stop offset="0.0308" stop-color="#EEF862"/>
<stop offset="0.1588" stop-color="#BEE695"/>
<stop offset="0.279" stop-color="#98D8BE"/>
<stop offset="0.3879" stop-color="#7DCDDB"/>
<stop offset="0.4817" stop-color="#6CC7ED"/>
<stop offset="0.5498" stop-color="#66C5F3"/>
<stop offset="0.61" stop-color="#67C7EE"/>
<stop offset="0.6811" stop-color="#69CBE0"/>
<stop offset="0.7578" stop-color="#6DD3C8"/>
<stop offset="0.8385" stop-color="#73DDA7"/>
<stop offset="0.9213" stop-color="#7AEB7C"/>
<stop offset="1" stop-color="#82FA4D"/>
</linearGradient>
<linearGradient id="paint39_linear_178_516" x1="48.873" y1="108.143" x2="156.126" y2="96.894" gradientUnits="userSpaceOnUse">
<stop stop-color="#FBFD54"/>
<stop offset="0.0308" stop-color="#EEF862"/>
<stop offset="0.1588" stop-color="#BEE695"/>
<stop offset="0.279" stop-color="#98D8BE"/>
<stop offset="0.3879" stop-color="#7DCDDB"/>
<stop offset="0.4817" stop-color="#6CC7ED"/>
<stop offset="0.5498" stop-color="#66C5F3"/>
<stop offset="0.61" stop-color="#67C7EE"/>
<stop offset="0.6811" stop-color="#69CBE0"/>
<stop offset="0.7578" stop-color="#6DD3C8"/>
<stop offset="0.8385" stop-color="#73DDA7"/>
<stop offset="0.9213" stop-color="#7AEB7C"/>
<stop offset="1" stop-color="#82FA4D"/>
</linearGradient>
<linearGradient id="paint40_linear_178_516" x1="41.9143" y1="102.5" x2="163.086" y2="102.5" gradientUnits="userSpaceOnUse">
<stop stop-color="#FBFD54"/>
<stop offset="0.0308" stop-color="#EEF862"/>
<stop offset="0.1588" stop-color="#BEE695"/>
<stop offset="0.279" stop-color="#98D8BE"/>
<stop offset="0.3879" stop-color="#7DCDDB"/>
<stop offset="0.4817" stop-color="#6CC7ED"/>
<stop offset="0.5498" stop-color="#66C5F3"/>
<stop offset="0.61" stop-color="#67C7EE"/>
<stop offset="0.6811" stop-color="#69CBE0"/>
<stop offset="0.7578" stop-color="#6DD3C8"/>
<stop offset="0.8385" stop-color="#73DDA7"/>
<stop offset="0.9213" stop-color="#7AEB7C"/>
<stop offset="1" stop-color="#82FA4D"/>
</linearGradient>
</defs>
</svg>
