<svg width="205" height="205" fill="none" xmlns="http://www.w3.org/2000/svg"><path d="M103.008 103.129a.32.32 0 0 1-.349-.031c-.163-.146-.027-.452-.136-.506-.106-.052-.244.234-.501.232-.144-.002-.296-.094-.346-.215-.1-.247.2-.674.574-.743.399-.075.76.276.864.605.067.2.086.55-.106.658Z" stroke="url(#a)" stroke-miterlimit="10"/><path d="M102.994 103.263a.36.36 0 0 1-.387-.077c-.165-.184.023-.508-.091-.581-.113-.069-.301.234-.589.2-.161-.018-.322-.14-.361-.28-.084-.286.302-.728.73-.761.453-.038.817.399.896.776.048.232.029.625-.198.723Z" stroke="url(#b)" stroke-miterlimit="10"/><path d="M102.962 103.412c-.138.044-.332-.006-.422-.132-.163-.224.086-.567-.035-.659-.117-.092-.363.226-.681.155-.177-.04-.342-.194-.371-.358-.059-.33.423-.778.904-.765.511.012.866.542.91.972.029.266-.04.701-.305.787Z" stroke="url(#c)" stroke-miterlimit="10"/><path d="M102.91 103.573a.455.455 0 0 1-.457-.197c-.155-.27.162-.623.039-.74-.121-.115-.432.209-.779.094-.194-.065-.359-.257-.373-.443-.027-.377.566-.82 1.1-.749.57.073.904.707.904 1.194 0 .299-.127.778-.434.841Z" stroke="url(#d)" stroke-miterlimit="10"/><path d="M102.831 103.749a.51.51 0 0 1-.487-.274c-.142-.32.255-.678.13-.824-.122-.145-.51.184-.881.012-.211-.096-.372-.33-.366-.537.013-.423.729-.849 1.318-.709.628.15.926.897.868 1.441-.033.334-.232.855-.582.891Z" stroke="url(#e)" stroke-miterlimit="10"/><path d="M102.724 103.933c-.207 0-.445-.153-.512-.364-.121-.375.364-.726.243-.906-.119-.174-.591.144-.986-.09-.223-.132-.376-.414-.344-.644.064-.471.912-.862 1.555-.636.685.241.931 1.111.802 1.713-.08.372-.361.929-.758.927Z" stroke="url(#f)" stroke-miterlimit="10"/><path d="M102.582 104.127c-.229-.025-.478-.224-.53-.466-.09-.431.491-.77.376-.983-.111-.209-.676.092-1.092-.216-.234-.173-.372-.506-.311-.761.127-.519 1.121-.855 1.812-.527.737.349.91 1.351.695 2.008-.127.406-.507.995-.95.945Z" stroke="url(#g)" stroke-miterlimit="10"/><path d="M102.4 104.33c-.254-.054-.509-.305-.536-.584-.05-.493.639-.801.536-1.054-.1-.246-.766.025-1.194-.37-.242-.222-.357-.608-.257-.887.203-.564 1.353-.824 2.088-.376.783.477.858 1.617.543 2.326-.196.437-.691 1.05-1.18.945Z" stroke="url(#h)" stroke-miterlimit="10"/><path d="M102.176 104.533c-.278-.092-.533-.402-.533-.715 0-.557.808-.82.723-1.115-.084-.287-.861-.063-1.293-.554-.244-.277-.328-.724-.183-1.021.292-.607 1.609-.764 2.377-.176.819.626.771 1.908.334 2.663-.267.466-.891 1.093-1.425.918Z" stroke="url(#i)" stroke-miterlimit="10"/><path d="M101.9 104.734c-.299-.136-.549-.511-.512-.862.067-.621.998-.822.938-1.161-.059-.33-.952-.171-1.378-.769-.24-.337-.282-.848-.086-1.163.399-.645 1.887-.663 2.676.083.842.797.637 2.221.061 3.014-.353.487-1.125 1.117-1.699.858Z" stroke="url(#j)" stroke-miterlimit="10"/><path d="M101.565 104.924c-.317-.186-.553-.636-.47-1.023.147-.688 1.213-.801 1.184-1.186-.027-.376-1.044-.303-1.449-1.022-.227-.406-.215-.979.042-1.31.522-.673 2.186-.518 2.981.41.846.99.451 2.558-.286 3.376-.453.502-1.388 1.113-2.002.755Z" stroke="url(#k)" stroke-miterlimit="10"/><path d="M101.173 105.1c-.334-.245-.543-.776-.405-1.199.244-.75 1.449-.75 1.463-1.186.015-.424-1.131-.462-1.501-1.313-.207-.479-.125-1.119.198-1.458.662-.69 2.506-.322 3.284.808.831 1.204.203 2.911-.716 3.737-.563.508-1.68 1.081-2.323.611Z" stroke="url(#l)" stroke-miterlimit="10"/><path d="M100.712 105.248c-.345-.314-.516-.93-.311-1.386.361-.81 1.707-.67 1.772-1.155.065-.473-1.211-.65-1.522-1.644-.175-.56-.008-1.265.393-1.606.82-.694 2.837-.065 3.574 1.288.787 1.443-.115 3.278-1.238 4.093-.689.504-2.004 1.013-2.668.41Z" stroke="url(#m)" stroke-miterlimit="10"/><path d="M100.179 105.361c-.348-.391-.467-1.1-.186-1.585.499-.862 1.986-.548 2.117-1.082.128-.52-1.275-.868-1.509-2.016-.132-.646.138-1.414.628-1.748.998-.68 3.178.261 3.844 1.861.71 1.705-.512 3.648-1.862 4.428-.831.479-2.362.893-3.032.142Z" stroke="url(#n)" stroke-miterlimit="10"/><path d="M99.572 105.424c-.342-.477-.392-1.284-.023-1.795.658-.905 2.284-.378 2.493-.957.204-.567-1.324-1.122-1.449-2.431-.071-.738.319-1.564.906-1.88 1.194-.642 3.52.665 4.075 2.533.593 1.989-1 4.015-2.601 4.729-.983.437-2.741.719-3.4-.199Z" stroke="url(#o)" stroke-miterlimit="10"/><path d="M98.885 105.422c-.328-.573-.288-1.481.185-2.008.842-.933 2.595-.155 2.898-.778.294-.609-1.349-1.408-1.334-2.886.008-.833.541-1.711 1.234-1.993 1.409-.578 3.854 1.156 4.259 3.308.43 2.292-1.587 4.371-3.46 4.978-1.154.374-3.152.483-3.782-.621Z" stroke="url(#p)" stroke-miterlimit="10"/><path d="M98.118 105.34c-.298-.68-.148-1.69.443-2.221 1.05-.943 2.919.134 3.328-.529.401-.646-1.343-1.732-1.153-3.382.107-.93.806-1.849 1.612-2.083 1.643-.48 4.171 1.746 4.37 4.197.211 2.613-2.286 4.698-4.451 5.156-1.33.282-3.574.171-4.148-1.138Z" stroke="url(#q)" stroke-miterlimit="10"/><path d="M97.271 105.158c-.255-.794.031-1.905.756-2.43 1.284-.931 3.246.492 3.781-.199.524-.675-1.297-2.093-.892-3.915.228-1.027 1.117-1.97 2.046-2.138 1.891-.34 4.457 2.443 4.39 5.206-.071 2.943-3.104 4.98-5.578 5.237-1.52.159-4.014-.232-4.503-1.761Z" stroke="url(#r)" stroke-miterlimit="10"/><path d="M96.344 104.855c-.19-.918.259-2.125 1.13-2.627 1.544-.889 3.569.933 4.248.224.664-.692-1.203-2.493-.537-4.48.376-1.121 1.478-2.07 2.537-2.148 2.154-.159 4.693 3.254 4.296 6.333-.424 3.282-4.054 5.199-6.845 5.197-1.719-.002-4.462-.732-4.83-2.499Z" stroke="url(#s)" stroke-miterlimit="10"/><path d="M95.347 104.407c-.105-1.047.538-2.344 1.57-2.802 1.83-.814 3.878 1.462 4.722.749.822-.695-1.052-2.926-.075-5.07.551-1.21 1.895-2.14 3.085-2.102 2.426.075 4.864 4.19 4.059 7.584-.858 3.616-5.14 5.333-8.259 5-1.92-.203-4.9-1.342-5.102-3.359Z" stroke="url(#t)" stroke-miterlimit="10"/><path d="M94.282 103.79c.006-1.183.877-2.555 2.083-2.946 2.14-.693 4.163 2.089 5.188 1.392 1-.679-.833-3.394.512-5.674.757-1.284 2.367-2.167 3.695-1.985 2.701.37 4.943 5.254 3.647 8.952-1.382 3.94-6.367 5.354-9.816 4.618-2.123-.456-5.32-2.079-5.31-4.357Z" stroke="url(#u)" stroke-miterlimit="10"/><path d="M93.167 102.975c.144-1.322 1.28-2.755 2.672-3.047 2.474-.523 4.408 2.825 5.635 2.166 1.198-.642-.532-3.89 1.236-6.28.998-1.347 2.9-2.144 4.361-1.784 2.975.731 4.908 6.452 3.025 10.432-2.006 4.239-7.743 5.235-11.51 4.005-2.317-.759-5.699-2.949-5.419-5.492Z" stroke="url(#v)" stroke-miterlimit="10"/><path d="M92.014 101.931c.318-1.46 1.752-2.926 3.345-3.091 2.825-.293 4.593 3.675 6.042 3.085 1.413-.577-.14-4.411 2.117-6.873 1.271-1.389 3.492-2.054 5.083-1.48 3.24 1.166 4.729 7.786 2.157 12.013-2.739 4.503-9.268 4.938-13.332 3.12-2.5-1.119-6.021-3.963-5.412-6.774Z" stroke="url(#w)" stroke-miterlimit="10"/><path d="M90.85 100.63c.526-1.593 2.3-3.064 4.098-3.062 3.19.007 4.702 4.648 6.39 4.158 1.648-.479.362-4.944 3.172-7.43 1.584-1.402 4.144-1.885 5.854-1.057 3.482 1.686 4.371 9.257 1.002 13.676-3.589 4.708-10.934 4.428-15.263 1.918-2.662-1.541-6.263-5.132-5.253-8.203Z" stroke="url(#x)" stroke-miterlimit="10"/><path d="M89.7 99.04c.774-1.719 2.93-3.153 4.939-2.938 3.565.38 4.71 5.745 6.653 5.398 1.898-.341.983-5.481 4.415-7.93 1.936-1.379 4.852-1.62 6.666-.492 3.696 2.294 3.8 10.859-.482 15.402-4.561 4.839-12.737 3.66-17.28.347-2.797-2.037-6.4-6.476-4.912-9.786Z" stroke="url(#y)" stroke-miterlimit="10"/><path d="M88.603 97.127c1.067-1.83 3.645-3.18 5.864-2.702 3.94.845 4.59 6.975 6.802 6.814 2.161-.157 1.741-6.011 5.864-8.341 2.324-1.313 5.61-1.238 7.506.234 3.86 3 2.972 12.583-2.345 17.155-5.666 4.871-14.662 2.591-19.35-1.644-2.888-2.608-6.393-7.992-4.34-11.516Z" stroke="url(#z)" stroke-miterlimit="10"/><path d="M87.601 94.862c1.407-1.92 4.445-3.123 6.869-2.33 4.302 1.407 4.309 8.334 6.801 8.414 2.433.079 2.652-6.513 7.531-8.632 2.749-1.194 6.413-.723 8.359 1.147 3.96 3.804 1.847 14.408-4.633 18.892-6.902 4.775-16.687 1.171-21.43-4.114-2.916-3.252-6.204-9.681-3.497-13.377Z" stroke="url(#A)" stroke-miterlimit="10"/><path d="M86.745 92.212c1.797-1.98 5.334-2.968 7.95-1.795 4.643 2.08 3.84 9.82 6.614 10.205 2.709.374 3.724-6.965 9.425-8.76 3.213-1.012 7.253-.052 9.207 2.264 3.979 4.716.374 16.317-7.39 20.565-8.274 4.524-18.785-.654-23.464-7.119-2.879-3.978-5.8-11.55-2.342-15.36Z" stroke="url(#B)" stroke-miterlimit="10"/><path d="M86.102 89.15c2.24-2.002 6.306-2.688 9.094-1.07 4.943 2.869 3.137 11.425 6.194 12.18 2.983.736 4.979-7.345 11.559-8.678 3.71-.752 8.111.795 10.023 3.612 3.894 5.739-1.495 18.28-10.67 22.112-9.774 4.082-20.914-2.943-25.386-10.717-2.75-4.783-5.125-13.587-.814-17.439Z" stroke="url(#C)" stroke-miterlimit="10"/><path d="M85.741 85.653c2.737-1.972 7.363-2.26 10.286-.126 5.188 3.79 2.167 13.137 5.495 14.34 3.246 1.175 6.426-7.622 13.935-8.337 4.234-.404 8.969 1.843 10.777 5.216 3.678 6.873-3.814 20.25-14.516 23.452-11.401 3.411-23.025-5.747-27.11-14.962-2.514-5.67-4.136-15.787 1.133-19.583Z" stroke="url(#D)" stroke-miterlimit="10"/><path d="M85.747 81.702c3.29-1.882 8.493-1.66 11.51 1.069 5.353 4.844.88 14.933 4.459 16.67 3.491 1.693 8.073-7.76 16.549-7.679 4.777.046 9.808 3.114 11.43 7.097 3.305 8.113-6.635 22.18-18.969 24.499-13.14 2.472-25.054-9.131-28.54-19.906-2.144-6.633-2.77-18.127 3.561-21.75Z" stroke="url(#E)" stroke-miterlimit="10"/><path d="M86.22 77.29c3.897-1.718 9.684-.856 12.734 2.549 5.413 6.044-.766 16.79 3.027 19.151 3.702 2.305 9.931-7.721 19.393-6.632 5.332.615 10.593 4.633 11.941 9.276 2.743 9.454-10.014 24.004-24.069 25.144-14.972 1.215-26.926-13.153-29.557-25.606-1.618-7.661-.97-20.58 6.53-23.883Z" stroke="url(#F)" stroke-miterlimit="10"/><path d="M87.263 72.412c4.557-1.46 10.922.184 13.933 4.346 5.34 7.39-2.823 18.673 1.137 21.758 3.867 3.009 12.002-7.46 22.449-5.129 5.887 1.314 11.295 6.423 12.255 11.771 1.956 10.886-14.004 25.644-29.843 25.265-16.875-.403-28.547-17.865-30.028-32.09-.912-8.752 1.326-23.112 10.097-25.921Z" stroke="url(#G)" stroke-miterlimit="10"/><path d="M89 67.085c5.263-1.096 12.186 1.489 15.059 6.496 5.102 8.887-5.345 20.534-1.28 24.447 3.969 3.819 14.286-6.922 25.685-3.089 6.423 2.16 11.868 8.506 12.315 14.595.91 12.394-18.656 27.007-36.309 24.721-18.808-2.437-29.806-23.324-29.791-39.391.008-9.889 4.192-25.67 14.321-27.78Z" stroke="url(#H)" stroke-miterlimit="10"/><path d="M91.566 61.337c6.008-.604 13.44 3.098 16.067 9.031 4.659 10.531-8.38 22.317-4.295 27.169 3.986 4.735 16.777-6.055 29.065-.431 6.925 3.171 12.265 10.903 12.05 17.757-.436 13.958-24.012 27.984-43.472 23.351-20.73-4.936-30.572-29.569-28.672-47.523C73.476 79.644 80 62.501 91.566 61.337Z" stroke="url(#I)" stroke-miterlimit="10"/><path d="M95.108 55.218c6.785.031 14.656 5.044 16.894 11.982 3.971 12.314-11.979 23.951-7.986 29.852 3.9 5.76 19.458-4.794 32.528 2.938 7.368 4.359 12.426 13.626 11.385 21.26-2.124 15.546-30.113 28.446-51.316 20.98-22.586-7.954-30.695-36.639-26.467-56.479 2.601-12.206 11.902-30.594 24.962-30.533Z" stroke="url(#J)" stroke-miterlimit="10"/><path d="M99.782 48.795c7.579.834 15.788 7.36 17.474 15.376 2.994 14.229-16.194 25.355-12.421 32.418 3.682 6.896 22.302-3.066 36.004 7.111 7.722 5.737 12.288 16.688 10.227 25.096-4.196 17.121-36.985 28.244-59.801 17.405-24.307-11.542-30.004-44.55-22.956-66.222 4.338-13.336 16.887-32.788 31.474-31.184Z" stroke="url(#K)" stroke-miterlimit="10"/><path d="M105.76 42.167c8.371 1.824 16.776 10.083 17.722 19.24 1.678 16.252-21.069 26.428-17.681 34.764 3.307 8.138 25.282-.803 39.399 12.183 7.956 7.318 11.777 20.095 8.487 29.247-6.696 18.64-44.639 27.209-68.865 12.413-25.81-15.761-28.306-53.316-17.889-76.703 6.411-14.39 22.714-34.654 38.827-31.144Z" stroke="url(#L)" stroke-miterlimit="10"/><path d="M113.215 35.466c9.14 3.022 17.565 13.24 17.549 23.583-.032 18.357-26.641 27.052-23.833 36.767 2.741 9.482 28.344 2.076 42.597 18.25 8.031 9.115 10.803 23.839 6.056 33.681-9.668 20.041-53.073 25.152-78.407 5.769-26.994-20.652-25.382-62.91-10.998-87.818 8.85-15.326 29.445-36.049 47.036-30.232Z" stroke="url(#M)" stroke-miterlimit="10"/><path d="M122.332 28.852c9.86 4.453 18.077 16.864 16.845 28.42-2.185 20.51-32.941 27.095-30.943 38.28 1.95 10.918 31.43 5.657 45.459 25.405 7.906 11.131 9.278 27.911 2.818 38.35-13.152 21.256-62.252 21.86-88.292-2.78-27.739-26.252-20.983-73.283-1.991-99.425 11.686-16.083 37.129-36.818 56.104-28.25Z" stroke="url(#N)" stroke-miterlimit="10"/><path d="M133.296 22.538c10.495 6.137 18.224 20.97 15.491 33.738-4.848 22.661-39.986 26.399-39.065 39.136.9 12.43 34.459 10.02 47.82 33.738 7.531 13.366 7.094 32.28-1.346 43.185-17.188 22.203-72.127 17.102-98.336-13.497C29.94 126.24 43.004 74.48 67.29 47.504c14.944-16.6 45.806-36.776 66.006-24.966Z" stroke="url(#O)" stroke-miterlimit="10"/><defs><linearGradient id="a" x1="313.252" y1="-99.046" x2="313.243" y2="-99.03" gradientUnits="userSpaceOnUse"><stop stop-color="#FBFD54"/><stop offset=".031" stop-color="#EEF862"/><stop offset=".159" stop-color="#BEE695"/><stop offset=".279" stop-color="#98D8BE"/><stop offset=".388" stop-color="#7DCDDB"/><stop offset=".482" stop-color="#6CC7ED"/><stop offset=".55" stop-color="#66C5F3"/><stop offset=".61" stop-color="#67C7EE"/><stop offset=".681" stop-color="#69CBE0"/><stop offset=".758" stop-color="#6DD3C8"/><stop offset=".839" stop-color="#73DDA7"/><stop offset=".921" stop-color="#7AEB7C"/><stop offset="1" stop-color="#82FA4D"/></linearGradient><linearGradient id="b" x1="102.879" y1="101.978" x2="102.12" y2="103.02" gradientUnits="userSpaceOnUse"><stop stop-color="#FBFD54"/><stop offset=".031" stop-color="#EEF862"/><stop offset=".159" stop-color="#BEE695"/><stop offset=".279" stop-color="#98D8BE"/><stop offset=".388" stop-color="#7DCDDB"/><stop offset=".482" stop-color="#6CC7ED"/><stop offset=".55" stop-color="#66C5F3"/><stop offset=".61" stop-color="#67C7EE"/><stop offset=".681" stop-color="#69CBE0"/><stop offset=".758" stop-color="#6DD3C8"/><stop offset=".839" stop-color="#73DDA7"/><stop offset=".921" stop-color="#7AEB7C"/><stop offset="1" stop-color="#82FA4D"/></linearGradient><linearGradient id="c" x1="102.984" y1="101.961" x2="102.014" y2="103.036" gradientUnits="userSpaceOnUse"><stop stop-color="#FBFD54"/><stop offset=".031" stop-color="#EEF862"/><stop offset=".159" stop-color="#BEE695"/><stop offset=".279" stop-color="#98D8BE"/><stop offset=".388" stop-color="#7DCDDB"/><stop offset=".482" stop-color="#6CC7ED"/><stop offset=".55" stop-color="#66C5F3"/><stop offset=".61" stop-color="#67C7EE"/><stop offset=".681" stop-color="#69CBE0"/><stop offset=".758" stop-color="#6DD3C8"/><stop offset=".839" stop-color="#73DDA7"/><stop offset=".921" stop-color="#7AEB7C"/><stop offset="1" stop-color="#82FA4D"/></linearGradient><linearGradient id="d" x1="103.104" y1="101.955" x2="101.894" y2="103.042" gradientUnits="userSpaceOnUse"><stop stop-color="#FBFD54"/><stop offset=".031" stop-color="#EEF862"/><stop offset=".159" stop-color="#BEE695"/><stop offset=".279" stop-color="#98D8BE"/><stop offset=".388" stop-color="#7DCDDB"/><stop offset=".482" stop-color="#6CC7ED"/><stop offset=".55" stop-color="#66C5F3"/><stop offset=".61" stop-color="#67C7EE"/><stop offset=".681" stop-color="#69CBE0"/><stop offset=".758" stop-color="#6DD3C8"/><stop offset=".839" stop-color="#73DDA7"/><stop offset=".921" stop-color="#7AEB7C"/><stop offset="1" stop-color="#82FA4D"/></linearGradient><linearGradient id="e" x1="103.042" y1="101.988" x2="101.562" y2="103.061" gradientUnits="userSpaceOnUse"><stop stop-color="#FBFD54"/><stop offset=".031" stop-color="#EEF862"/><stop offset=".159" stop-color="#BEE695"/><stop offset=".279" stop-color="#98D8BE"/><stop offset=".388" stop-color="#7DCDDB"/><stop offset=".482" stop-color="#6CC7ED"/><stop offset=".55" stop-color="#66C5F3"/><stop offset=".61" stop-color="#67C7EE"/><stop offset=".681" stop-color="#69CBE0"/><stop offset=".758" stop-color="#6DD3C8"/><stop offset=".839" stop-color="#73DDA7"/><stop offset=".921" stop-color="#7AEB7C"/><stop offset="1" stop-color="#82FA4D"/></linearGradient><linearGradient id="f" x1="102.739" y1="102.141" x2="100.957" y2="103.166" gradientUnits="userSpaceOnUse"><stop stop-color="#FBFD54"/><stop offset=".031" stop-color="#EEF862"/><stop offset=".159" stop-color="#BEE695"/><stop offset=".279" stop-color="#98D8BE"/><stop offset=".388" stop-color="#7DCDDB"/><stop offset=".482" stop-color="#6CC7ED"/><stop offset=".55" stop-color="#66C5F3"/><stop offset=".61" stop-color="#67C7EE"/><stop offset=".681" stop-color="#69CBE0"/><stop offset=".758" stop-color="#6DD3C8"/><stop offset=".839" stop-color="#73DDA7"/><stop offset=".921" stop-color="#7AEB7C"/><stop offset="1" stop-color="#82FA4D"/></linearGradient><linearGradient id="g" x1="103.226" y1="102.145" x2="101.117" y2="103.082" gradientUnits="userSpaceOnUse"><stop stop-color="#FBFD54"/><stop offset=".031" stop-color="#EEF862"/><stop offset=".159" stop-color="#BEE695"/><stop offset=".279" stop-color="#98D8BE"/><stop offset=".388" stop-color="#7DCDDB"/><stop offset=".482" stop-color="#6CC7ED"/><stop offset=".55" stop-color="#66C5F3"/><stop offset=".61" stop-color="#67C7EE"/><stop offset=".681" stop-color="#69CBE0"/><stop offset=".758" stop-color="#6DD3C8"/><stop offset=".839" stop-color="#73DDA7"/><stop offset=".921" stop-color="#7AEB7C"/><stop offset="1" stop-color="#82FA4D"/></linearGradient><linearGradient id="h" x1="104.07" y1="101.939" x2="101.61" y2="102.738" gradientUnits="userSpaceOnUse"><stop stop-color="#FBFD54"/><stop offset=".031" stop-color="#EEF862"/><stop offset=".159" stop-color="#BEE695"/><stop offset=".279" stop-color="#98D8BE"/><stop offset=".388" stop-color="#7DCDDB"/><stop offset=".482" stop-color="#6CC7ED"/><stop offset=".55" stop-color="#66C5F3"/><stop offset=".61" stop-color="#67C7EE"/><stop offset=".681" stop-color="#69CBE0"/><stop offset=".758" stop-color="#6DD3C8"/><stop offset=".839" stop-color="#73DDA7"/><stop offset=".921" stop-color="#7AEB7C"/><stop offset="1" stop-color="#82FA4D"/></linearGradient><linearGradient id="i" x1="103.819" y1="102.26" x2="100.971" y2="102.864" gradientUnits="userSpaceOnUse"><stop stop-color="#FBFD54"/><stop offset=".031" stop-color="#EEF862"/><stop offset=".159" stop-color="#BEE695"/><stop offset=".279" stop-color="#98D8BE"/><stop offset=".388" stop-color="#7DCDDB"/><stop offset=".482" stop-color="#6CC7ED"/><stop offset=".55" stop-color="#66C5F3"/><stop offset=".61" stop-color="#67C7EE"/><stop offset=".681" stop-color="#69CBE0"/><stop offset=".758" stop-color="#6DD3C8"/><stop offset=".839" stop-color="#73DDA7"/><stop offset=".921" stop-color="#7AEB7C"/><stop offset="1" stop-color="#82FA4D"/></linearGradient><linearGradient id="j" x1="104.435" y1="102.096" x2="101.187" y2="102.437" gradientUnits="userSpaceOnUse"><stop stop-color="#FBFD54"/><stop offset=".031" stop-color="#EEF862"/><stop offset=".159" stop-color="#BEE695"/><stop offset=".279" stop-color="#98D8BE"/><stop offset=".388" stop-color="#7DCDDB"/><stop offset=".482" stop-color="#6CC7ED"/><stop offset=".55" stop-color="#66C5F3"/><stop offset=".61" stop-color="#67C7EE"/><stop offset=".681" stop-color="#69CBE0"/><stop offset=".758" stop-color="#6DD3C8"/><stop offset=".839" stop-color="#73DDA7"/><stop offset=".921" stop-color="#7AEB7C"/><stop offset="1" stop-color="#82FA4D"/></linearGradient><linearGradient id="k" x1="104.466" y1="102.38" x2="100.794" y2="102.38" gradientUnits="userSpaceOnUse"><stop stop-color="#FBFD54"/><stop offset=".031" stop-color="#EEF862"/><stop offset=".159" stop-color="#BEE695"/><stop offset=".279" stop-color="#98D8BE"/><stop offset=".388" stop-color="#7DCDDB"/><stop offset=".482" stop-color="#6CC7ED"/><stop offset=".55" stop-color="#66C5F3"/><stop offset=".61" stop-color="#67C7EE"/><stop offset=".681" stop-color="#69CBE0"/><stop offset=".758" stop-color="#6DD3C8"/><stop offset=".839" stop-color="#73DDA7"/><stop offset=".921" stop-color="#7AEB7C"/><stop offset="1" stop-color="#82FA4D"/></linearGradient><linearGradient id="l" x1="104.428" y1="102.857" x2="100.321" y2="102.426" gradientUnits="userSpaceOnUse"><stop stop-color="#FBFD54"/><stop offset=".031" stop-color="#EEF862"/><stop offset=".159" stop-color="#BEE695"/><stop offset=".279" stop-color="#98D8BE"/><stop offset=".388" stop-color="#7DCDDB"/><stop offset=".482" stop-color="#6CC7ED"/><stop offset=".55" stop-color="#66C5F3"/><stop offset=".61" stop-color="#67C7EE"/><stop offset=".681" stop-color="#69CBE0"/><stop offset=".758" stop-color="#6DD3C8"/><stop offset=".839" stop-color="#73DDA7"/><stop offset=".921" stop-color="#7AEB7C"/><stop offset="1" stop-color="#82FA4D"/></linearGradient><linearGradient id="m" x1="104.945" y1="102.735" x2="100.413" y2="101.773" gradientUnits="userSpaceOnUse"><stop stop-color="#FBFD54"/><stop offset=".031" stop-color="#EEF862"/><stop offset=".159" stop-color="#BEE695"/><stop offset=".279" stop-color="#98D8BE"/><stop offset=".388" stop-color="#7DCDDB"/><stop offset=".482" stop-color="#6CC7ED"/><stop offset=".55" stop-color="#66C5F3"/><stop offset=".61" stop-color="#67C7EE"/><stop offset=".681" stop-color="#69CBE0"/><stop offset=".758" stop-color="#6DD3C8"/><stop offset=".839" stop-color="#73DDA7"/><stop offset=".921" stop-color="#7AEB7C"/><stop offset="1" stop-color="#82FA4D"/></linearGradient><linearGradient id="n" x1="104.92" y1="103.263" x2="99.962" y2="101.654" gradientUnits="userSpaceOnUse"><stop stop-color="#FBFD54"/><stop offset=".031" stop-color="#EEF862"/><stop offset=".159" stop-color="#BEE695"/><stop offset=".279" stop-color="#98D8BE"/><stop offset=".388" stop-color="#7DCDDB"/><stop offset=".482" stop-color="#6CC7ED"/><stop offset=".55" stop-color="#66C5F3"/><stop offset=".61" stop-color="#67C7EE"/><stop offset=".681" stop-color="#69CBE0"/><stop offset=".758" stop-color="#6DD3C8"/><stop offset=".839" stop-color="#73DDA7"/><stop offset=".921" stop-color="#7AEB7C"/><stop offset="1" stop-color="#82FA4D"/></linearGradient><linearGradient id="o" x1="105.027" y1="103.328" x2="99.68" y2="100.944" gradientUnits="userSpaceOnUse"><stop stop-color="#FBFD54"/><stop offset=".031" stop-color="#EEF862"/><stop offset=".159" stop-color="#BEE695"/><stop offset=".279" stop-color="#98D8BE"/><stop offset=".388" stop-color="#7DCDDB"/><stop offset=".482" stop-color="#6CC7ED"/><stop offset=".55" stop-color="#66C5F3"/><stop offset=".61" stop-color="#67C7EE"/><stop offset=".681" stop-color="#69CBE0"/><stop offset=".758" stop-color="#6DD3C8"/><stop offset=".839" stop-color="#73DDA7"/><stop offset=".921" stop-color="#7AEB7C"/><stop offset="1" stop-color="#82FA4D"/></linearGradient><linearGradient id="p" x1="105.628" y1="104.126" x2="99.928" y2="100.846" gradientUnits="userSpaceOnUse"><stop stop-color="#FBFD54"/><stop offset=".031" stop-color="#EEF862"/><stop offset=".159" stop-color="#BEE695"/><stop offset=".279" stop-color="#98D8BE"/><stop offset=".388" stop-color="#7DCDDB"/><stop offset=".482" stop-color="#6CC7ED"/><stop offset=".55" stop-color="#66C5F3"/><stop offset=".61" stop-color="#67C7EE"/><stop offset=".681" stop-color="#69CBE0"/><stop offset=".758" stop-color="#6DD3C8"/><stop offset=".839" stop-color="#73DDA7"/><stop offset=".921" stop-color="#7AEB7C"/><stop offset="1" stop-color="#82FA4D"/></linearGradient><linearGradient id="q" x1="105.235" y1="104.852" x2="99.242" y2="100.505" gradientUnits="userSpaceOnUse"><stop stop-color="#FBFD54"/><stop offset=".031" stop-color="#EEF862"/><stop offset=".159" stop-color="#BEE695"/><stop offset=".279" stop-color="#98D8BE"/><stop offset=".388" stop-color="#7DCDDB"/><stop offset=".482" stop-color="#6CC7ED"/><stop offset=".55" stop-color="#66C5F3"/><stop offset=".61" stop-color="#67C7EE"/><stop offset=".681" stop-color="#69CBE0"/><stop offset=".758" stop-color="#6DD3C8"/><stop offset=".839" stop-color="#73DDA7"/><stop offset=".921" stop-color="#7AEB7C"/><stop offset="1" stop-color="#82FA4D"/></linearGradient><linearGradient id="r" x1="105.456" y1="105.098" x2="99.278" y2="99.537" gradientUnits="userSpaceOnUse"><stop stop-color="#FBFD54"/><stop offset=".031" stop-color="#EEF862"/><stop offset=".159" stop-color="#BEE695"/><stop offset=".279" stop-color="#98D8BE"/><stop offset=".388" stop-color="#7DCDDB"/><stop offset=".482" stop-color="#6CC7ED"/><stop offset=".55" stop-color="#66C5F3"/><stop offset=".61" stop-color="#67C7EE"/><stop offset=".681" stop-color="#69CBE0"/><stop offset=".758" stop-color="#6DD3C8"/><stop offset=".839" stop-color="#73DDA7"/><stop offset=".921" stop-color="#7AEB7C"/><stop offset="1" stop-color="#82FA4D"/></linearGradient><linearGradient id="s" x1="105.758" y1="105.847" x2="99.505" y2="98.915" gradientUnits="userSpaceOnUse"><stop stop-color="#FBFD54"/><stop offset=".031" stop-color="#EEF862"/><stop offset=".159" stop-color="#BEE695"/><stop offset=".279" stop-color="#98D8BE"/><stop offset=".388" stop-color="#7DCDDB"/><stop offset=".482" stop-color="#6CC7ED"/><stop offset=".55" stop-color="#66C5F3"/><stop offset=".61" stop-color="#67C7EE"/><stop offset=".681" stop-color="#69CBE0"/><stop offset=".758" stop-color="#6DD3C8"/><stop offset=".839" stop-color="#73DDA7"/><stop offset=".921" stop-color="#7AEB7C"/><stop offset="1" stop-color="#82FA4D"/></linearGradient><linearGradient id="t" x1="105.617" y1="106.872" x2="99.435" y2="98.385" gradientUnits="userSpaceOnUse"><stop stop-color="#FBFD54"/><stop offset=".031" stop-color="#EEF862"/><stop offset=".159" stop-color="#BEE695"/><stop offset=".279" stop-color="#98D8BE"/><stop offset=".388" stop-color="#7DCDDB"/><stop offset=".482" stop-color="#6CC7ED"/><stop offset=".55" stop-color="#66C5F3"/><stop offset=".61" stop-color="#67C7EE"/><stop offset=".681" stop-color="#69CBE0"/><stop offset=".758" stop-color="#6DD3C8"/><stop offset=".839" stop-color="#73DDA7"/><stop offset=".921" stop-color="#7AEB7C"/><stop offset="1" stop-color="#82FA4D"/></linearGradient><linearGradient id="u" x1="105.45" y1="107.564" x2="99.544" y2="97.352" gradientUnits="userSpaceOnUse"><stop stop-color="#FBFD54"/><stop offset=".031" stop-color="#EEF862"/><stop offset=".159" stop-color="#BEE695"/><stop offset=".279" stop-color="#98D8BE"/><stop offset=".388" stop-color="#7DCDDB"/><stop offset=".482" stop-color="#6CC7ED"/><stop offset=".55" stop-color="#66C5F3"/><stop offset=".61" stop-color="#67C7EE"/><stop offset=".681" stop-color="#69CBE0"/><stop offset=".758" stop-color="#6DD3C8"/><stop offset=".839" stop-color="#73DDA7"/><stop offset=".921" stop-color="#7AEB7C"/><stop offset="1" stop-color="#82FA4D"/></linearGradient><linearGradient id="v" x1="105.176" y1="108.465" x2="99.779" y2="96.357" gradientUnits="userSpaceOnUse"><stop stop-color="#FBFD54"/><stop offset=".031" stop-color="#EEF862"/><stop offset=".159" stop-color="#BEE695"/><stop offset=".279" stop-color="#98D8BE"/><stop offset=".388" stop-color="#7DCDDB"/><stop offset=".482" stop-color="#6CC7ED"/><stop offset=".55" stop-color="#66C5F3"/><stop offset=".61" stop-color="#67C7EE"/><stop offset=".681" stop-color="#69CBE0"/><stop offset=".758" stop-color="#6DD3C8"/><stop offset=".839" stop-color="#73DDA7"/><stop offset=".921" stop-color="#7AEB7C"/><stop offset="1" stop-color="#82FA4D"/></linearGradient><linearGradient id="w" x1="104.867" y1="109.481" x2="100.26" y2="95.319" gradientUnits="userSpaceOnUse"><stop stop-color="#FBFD54"/><stop offset=".031" stop-color="#EEF862"/><stop offset=".159" stop-color="#BEE695"/><stop offset=".279" stop-color="#98D8BE"/><stop offset=".388" stop-color="#7DCDDB"/><stop offset=".482" stop-color="#6CC7ED"/><stop offset=".55" stop-color="#66C5F3"/><stop offset=".61" stop-color="#67C7EE"/><stop offset=".681" stop-color="#69CBE0"/><stop offset=".758" stop-color="#6DD3C8"/><stop offset=".839" stop-color="#73DDA7"/><stop offset=".921" stop-color="#7AEB7C"/><stop offset="1" stop-color="#82FA4D"/></linearGradient><linearGradient id="x" x1="104.273" y1="110.729" x2="100.783" y2="94.356" gradientUnits="userSpaceOnUse"><stop stop-color="#FBFD54"/><stop offset=".031" stop-color="#EEF862"/><stop offset=".159" stop-color="#BEE695"/><stop offset=".279" stop-color="#98D8BE"/><stop offset=".388" stop-color="#7DCDDB"/><stop offset=".482" stop-color="#6CC7ED"/><stop offset=".55" stop-color="#66C5F3"/><stop offset=".61" stop-color="#67C7EE"/><stop offset=".681" stop-color="#69CBE0"/><stop offset=".758" stop-color="#6DD3C8"/><stop offset=".839" stop-color="#73DDA7"/><stop offset=".921" stop-color="#7AEB7C"/><stop offset="1" stop-color="#82FA4D"/></linearGradient><linearGradient id="y" x1="103.512" y1="111.84" x2="101.542" y2="93.134" gradientUnits="userSpaceOnUse"><stop stop-color="#FBFD54"/><stop offset=".031" stop-color="#EEF862"/><stop offset=".159" stop-color="#BEE695"/><stop offset=".279" stop-color="#98D8BE"/><stop offset=".388" stop-color="#7DCDDB"/><stop offset=".482" stop-color="#6CC7ED"/><stop offset=".55" stop-color="#66C5F3"/><stop offset=".61" stop-color="#67C7EE"/><stop offset=".681" stop-color="#69CBE0"/><stop offset=".758" stop-color="#6DD3C8"/><stop offset=".839" stop-color="#73DDA7"/><stop offset=".921" stop-color="#7AEB7C"/><stop offset="1" stop-color="#82FA4D"/></linearGradient><linearGradient id="z" x1="102.527" y1="113.049" x2="102.527" y2="91.915" gradientUnits="userSpaceOnUse"><stop stop-color="#FBFD54"/><stop offset=".031" stop-color="#EEF862"/><stop offset=".159" stop-color="#BEE695"/><stop offset=".279" stop-color="#98D8BE"/><stop offset=".388" stop-color="#7DCDDB"/><stop offset=".482" stop-color="#6CC7ED"/><stop offset=".55" stop-color="#66C5F3"/><stop offset=".61" stop-color="#67C7EE"/><stop offset=".681" stop-color="#69CBE0"/><stop offset=".758" stop-color="#6DD3C8"/><stop offset=".839" stop-color="#73DDA7"/><stop offset=".921" stop-color="#7AEB7C"/><stop offset="1" stop-color="#82FA4D"/></linearGradient><linearGradient id="A" x1="101.183" y1="114.283" x2="103.676" y2="90.661" gradientUnits="userSpaceOnUse"><stop stop-color="#FBFD54"/><stop offset=".031" stop-color="#EEF862"/><stop offset=".159" stop-color="#BEE695"/><stop offset=".279" stop-color="#98D8BE"/><stop offset=".388" stop-color="#7DCDDB"/><stop offset=".482" stop-color="#6CC7ED"/><stop offset=".55" stop-color="#66C5F3"/><stop offset=".61" stop-color="#67C7EE"/><stop offset=".681" stop-color="#69CBE0"/><stop offset=".758" stop-color="#6DD3C8"/><stop offset=".839" stop-color="#73DDA7"/><stop offset=".921" stop-color="#7AEB7C"/><stop offset="1" stop-color="#82FA4D"/></linearGradient><linearGradient id="B" x1="99.749" y1="115.538" x2="105.306" y2="89.443" gradientUnits="userSpaceOnUse"><stop stop-color="#FBFD54"/><stop offset=".031" stop-color="#EEF862"/><stop offset=".159" stop-color="#BEE695"/><stop offset=".279" stop-color="#98D8BE"/><stop offset=".388" stop-color="#7DCDDB"/><stop offset=".482" stop-color="#6CC7ED"/><stop offset=".55" stop-color="#66C5F3"/><stop offset=".61" stop-color="#67C7EE"/><stop offset=".681" stop-color="#69CBE0"/><stop offset=".758" stop-color="#6DD3C8"/><stop offset=".839" stop-color="#73DDA7"/><stop offset=".921" stop-color="#7AEB7C"/><stop offset="1" stop-color="#82FA4D"/></linearGradient><linearGradient id="C" x1="97.897" y1="116.773" x2="107.173" y2="88.267" gradientUnits="userSpaceOnUse"><stop stop-color="#FBFD54"/><stop offset=".031" stop-color="#EEF862"/><stop offset=".159" stop-color="#BEE695"/><stop offset=".279" stop-color="#98D8BE"/><stop offset=".388" stop-color="#7DCDDB"/><stop offset=".482" stop-color="#6CC7ED"/><stop offset=".55" stop-color="#66C5F3"/><stop offset=".61" stop-color="#67C7EE"/><stop offset=".681" stop-color="#69CBE0"/><stop offset=".758" stop-color="#6DD3C8"/><stop offset=".839" stop-color="#73DDA7"/><stop offset=".921" stop-color="#7AEB7C"/><stop offset="1" stop-color="#82FA4D"/></linearGradient><linearGradient id="D" x1="95.657" y1="117.857" x2="109.379" y2="87.103" gradientUnits="userSpaceOnUse"><stop stop-color="#FBFD54"/><stop offset=".031" stop-color="#EEF862"/><stop offset=".159" stop-color="#BEE695"/><stop offset=".279" stop-color="#98D8BE"/><stop offset=".388" stop-color="#7DCDDB"/><stop offset=".482" stop-color="#6CC7ED"/><stop offset=".55" stop-color="#66C5F3"/><stop offset=".61" stop-color="#67C7EE"/><stop offset=".681" stop-color="#69CBE0"/><stop offset=".758" stop-color="#6DD3C8"/><stop offset=".839" stop-color="#73DDA7"/><stop offset=".921" stop-color="#7AEB7C"/><stop offset="1" stop-color="#82FA4D"/></linearGradient><linearGradient id="E" x1="93.076" y1="118.865" x2="112.019" y2="86.119" gradientUnits="userSpaceOnUse"><stop stop-color="#FBFD54"/><stop offset=".031" stop-color="#EEF862"/><stop offset=".159" stop-color="#BEE695"/><stop offset=".279" stop-color="#98D8BE"/><stop offset=".388" stop-color="#7DCDDB"/><stop offset=".482" stop-color="#6CC7ED"/><stop offset=".55" stop-color="#66C5F3"/><stop offset=".61" stop-color="#67C7EE"/><stop offset=".681" stop-color="#69CBE0"/><stop offset=".758" stop-color="#6DD3C8"/><stop offset=".839" stop-color="#73DDA7"/><stop offset=".921" stop-color="#7AEB7C"/><stop offset="1" stop-color="#82FA4D"/></linearGradient><linearGradient id="F" x1="90.056" y1="119.687" x2="115.065" y2="85.327" gradientUnits="userSpaceOnUse"><stop stop-color="#FBFD54"/><stop offset=".031" stop-color="#EEF862"/><stop offset=".159" stop-color="#BEE695"/><stop offset=".279" stop-color="#98D8BE"/><stop offset=".388" stop-color="#7DCDDB"/><stop offset=".482" stop-color="#6CC7ED"/><stop offset=".55" stop-color="#66C5F3"/><stop offset=".61" stop-color="#67C7EE"/><stop offset=".681" stop-color="#69CBE0"/><stop offset=".758" stop-color="#6DD3C8"/><stop offset=".839" stop-color="#73DDA7"/><stop offset=".921" stop-color="#7AEB7C"/><stop offset="1" stop-color="#82FA4D"/></linearGradient><linearGradient id="G" x1="86.554" y1="120.234" x2="118.535" y2="84.785" gradientUnits="userSpaceOnUse"><stop stop-color="#FBFD54"/><stop offset=".031" stop-color="#EEF862"/><stop offset=".159" stop-color="#BEE695"/><stop offset=".279" stop-color="#98D8BE"/><stop offset=".388" stop-color="#7DCDDB"/><stop offset=".482" stop-color="#6CC7ED"/><stop offset=".55" stop-color="#66C5F3"/><stop offset=".61" stop-color="#67C7EE"/><stop offset=".681" stop-color="#69CBE0"/><stop offset=".758" stop-color="#6DD3C8"/><stop offset=".839" stop-color="#73DDA7"/><stop offset=".921" stop-color="#7AEB7C"/><stop offset="1" stop-color="#82FA4D"/></linearGradient><linearGradient id="H" x1="82.584" y1="120.48" x2="122.478" y2="84.62" gradientUnits="userSpaceOnUse"><stop stop-color="#FBFD54"/><stop offset=".031" stop-color="#EEF862"/><stop offset=".159" stop-color="#BEE695"/><stop offset=".279" stop-color="#98D8BE"/><stop offset=".388" stop-color="#7DCDDB"/><stop offset=".482" stop-color="#6CC7ED"/><stop offset=".55" stop-color="#66C5F3"/><stop offset=".61" stop-color="#67C7EE"/><stop offset=".681" stop-color="#69CBE0"/><stop offset=".758" stop-color="#6DD3C8"/><stop offset=".839" stop-color="#73DDA7"/><stop offset=".921" stop-color="#7AEB7C"/><stop offset="1" stop-color="#82FA4D"/></linearGradient><linearGradient id="I" x1="78.129" y1="120.222" x2="126.914" y2="84.848" gradientUnits="userSpaceOnUse"><stop stop-color="#FBFD54"/><stop offset=".031" stop-color="#EEF862"/><stop offset=".159" stop-color="#BEE695"/><stop offset=".279" stop-color="#98D8BE"/><stop offset=".388" stop-color="#7DCDDB"/><stop offset=".482" stop-color="#6CC7ED"/><stop offset=".55" stop-color="#66C5F3"/><stop offset=".61" stop-color="#67C7EE"/><stop offset=".681" stop-color="#69CBE0"/><stop offset=".758" stop-color="#6DD3C8"/><stop offset=".839" stop-color="#73DDA7"/><stop offset=".921" stop-color="#7AEB7C"/><stop offset="1" stop-color="#82FA4D"/></linearGradient><linearGradient id="J" x1="73.199" y1="119.446" x2="131.851" y2="85.645" gradientUnits="userSpaceOnUse"><stop stop-color="#FBFD54"/><stop offset=".031" stop-color="#EEF862"/><stop offset=".159" stop-color="#BEE695"/><stop offset=".279" stop-color="#98D8BE"/><stop offset=".388" stop-color="#7DCDDB"/><stop offset=".482" stop-color="#6CC7ED"/><stop offset=".55" stop-color="#66C5F3"/><stop offset=".61" stop-color="#67C7EE"/><stop offset=".681" stop-color="#69CBE0"/><stop offset=".758" stop-color="#6DD3C8"/><stop offset=".839" stop-color="#73DDA7"/><stop offset=".921" stop-color="#7AEB7C"/><stop offset="1" stop-color="#82FA4D"/></linearGradient><linearGradient id="K" x1="67.769" y1="117.991" x2="137.266" y2="87.106" gradientUnits="userSpaceOnUse"><stop stop-color="#FBFD54"/><stop offset=".031" stop-color="#EEF862"/><stop offset=".159" stop-color="#BEE695"/><stop offset=".279" stop-color="#98D8BE"/><stop offset=".388" stop-color="#7DCDDB"/><stop offset=".482" stop-color="#6CC7ED"/><stop offset=".55" stop-color="#66C5F3"/><stop offset=".61" stop-color="#67C7EE"/><stop offset=".681" stop-color="#69CBE0"/><stop offset=".758" stop-color="#6DD3C8"/><stop offset=".839" stop-color="#73DDA7"/><stop offset=".921" stop-color="#7AEB7C"/><stop offset="1" stop-color="#82FA4D"/></linearGradient><linearGradient id="L" x1="61.871" y1="115.717" x2="143.145" y2="89.365" gradientUnits="userSpaceOnUse"><stop stop-color="#FBFD54"/><stop offset=".031" stop-color="#EEF862"/><stop offset=".159" stop-color="#BEE695"/><stop offset=".279" stop-color="#98D8BE"/><stop offset=".388" stop-color="#7DCDDB"/><stop offset=".482" stop-color="#6CC7ED"/><stop offset=".55" stop-color="#66C5F3"/><stop offset=".61" stop-color="#67C7EE"/><stop offset=".681" stop-color="#69CBE0"/><stop offset=".758" stop-color="#6DD3C8"/><stop offset=".839" stop-color="#73DDA7"/><stop offset=".921" stop-color="#7AEB7C"/><stop offset="1" stop-color="#82FA4D"/></linearGradient><linearGradient id="M" x1="55.559" y1="112.498" x2="149.457" y2="92.574" gradientUnits="userSpaceOnUse"><stop stop-color="#FBFD54"/><stop offset=".031" stop-color="#EEF862"/><stop offset=".159" stop-color="#BEE695"/><stop offset=".279" stop-color="#98D8BE"/><stop offset=".388" stop-color="#7DCDDB"/><stop offset=".482" stop-color="#6CC7ED"/><stop offset=".55" stop-color="#66C5F3"/><stop offset=".61" stop-color="#67C7EE"/><stop offset=".681" stop-color="#69CBE0"/><stop offset=".758" stop-color="#6DD3C8"/><stop offset=".839" stop-color="#73DDA7"/><stop offset=".921" stop-color="#7AEB7C"/><stop offset="1" stop-color="#82FA4D"/></linearGradient><linearGradient id="N" x1="48.873" y1="108.143" x2="156.126" y2="96.894" gradientUnits="userSpaceOnUse"><stop stop-color="#FBFD54"/><stop offset=".031" stop-color="#EEF862"/><stop offset=".159" stop-color="#BEE695"/><stop offset=".279" stop-color="#98D8BE"/><stop offset=".388" stop-color="#7DCDDB"/><stop offset=".482" stop-color="#6CC7ED"/><stop offset=".55" stop-color="#66C5F3"/><stop offset=".61" stop-color="#67C7EE"/><stop offset=".681" stop-color="#69CBE0"/><stop offset=".758" stop-color="#6DD3C8"/><stop offset=".839" stop-color="#73DDA7"/><stop offset=".921" stop-color="#7AEB7C"/><stop offset="1" stop-color="#82FA4D"/></linearGradient><linearGradient id="O" x1="41.914" y1="102.5" x2="163.086" y2="102.5" gradientUnits="userSpaceOnUse"><stop stop-color="#FBFD54"/><stop offset=".031" stop-color="#EEF862"/><stop offset=".159" stop-color="#BEE695"/><stop offset=".279" stop-color="#98D8BE"/><stop offset=".388" stop-color="#7DCDDB"/><stop offset=".482" stop-color="#6CC7ED"/><stop offset=".55" stop-color="#66C5F3"/><stop offset=".61" stop-color="#67C7EE"/><stop offset=".681" stop-color="#69CBE0"/><stop offset=".758" stop-color="#6DD3C8"/><stop offset=".839" stop-color="#73DDA7"/><stop offset=".921" stop-color="#7AEB7C"/><stop offset="1" stop-color="#82FA4D"/></linearGradient></defs></svg>