<svg width="205" height="205" viewBox="0 0 205 205" fill="none" xmlns="http://www.w3.org/2000/svg">
<path d="M103.904 103.117C103.97 103.187 103.787 103.545 103.608 103.541C103.464 103.536 103.433 103.298 103.161 102.936C102.973 102.688 102.729 102.367 102.495 102.411C102.277 102.452 102.033 102.821 102.179 103.113C102.286 103.329 102.578 103.442 102.713 103.36C102.818 103.296 102.799 103.137 102.938 102.474C102.962 102.356 102.984 102.267 103.052 102.236C103.167 102.188 103.387 102.321 103.453 102.498C103.582 102.836 103.113 103.237 103.202 103.336C103.298 103.44 103.819 103.026 103.904 103.117Z" stroke="url(#paint0_linear_178_515)" stroke-miterlimit="10"/>
<path d="M104 103.222C104.066 103.307 103.826 103.691 103.627 103.667C103.466 103.65 103.457 103.379 103.185 102.947C102.997 102.65 102.757 102.267 102.491 102.293C102.242 102.319 101.935 102.707 102.068 103.047C102.168 103.298 102.482 103.455 102.644 103.375C102.766 103.314 102.761 103.135 102.982 102.404C103.021 102.273 103.052 102.175 103.132 102.149C103.265 102.105 103.499 102.277 103.555 102.483C103.667 102.873 103.102 103.277 103.193 103.397C103.289 103.521 103.915 103.109 104 103.222Z" stroke="url(#paint1_linear_178_515)" stroke-miterlimit="10"/>
<path d="M104.099 103.347C104.164 103.449 103.859 103.853 103.639 103.809C103.46 103.772 103.475 103.469 103.213 102.96C103.034 102.609 102.801 102.158 102.5 102.16C102.218 102.164 101.837 102.568 101.952 102.963C102.04 103.255 102.376 103.46 102.563 103.386C102.707 103.329 102.718 103.128 103.037 102.332C103.093 102.19 103.137 102.084 103.228 102.062C103.383 102.027 103.625 102.243 103.671 102.476C103.756 102.926 103.087 103.32 103.176 103.462C103.274 103.613 104.014 103.211 104.099 103.347Z" stroke="url(#paint2_linear_178_515)" stroke-miterlimit="10"/>
<path d="M104.197 103.495C104.26 103.615 103.879 104.038 103.636 103.966C103.44 103.907 103.488 103.569 103.244 102.973C103.076 102.563 102.862 102.033 102.524 102.009C102.208 101.985 101.741 102.402 101.832 102.853C101.9 103.187 102.258 103.453 102.476 103.388C102.642 103.338 102.674 103.115 103.109 102.256C103.185 102.103 103.246 101.987 103.351 101.972C103.527 101.948 103.778 102.212 103.804 102.478C103.855 102.989 103.067 103.366 103.154 103.534C103.246 103.713 104.114 103.336 104.197 103.495Z" stroke="url(#paint3_linear_178_515)" stroke-miterlimit="10"/>
<path d="M104.291 103.671C104.35 103.811 103.881 104.249 103.617 104.145C103.403 104.06 103.488 103.687 103.276 102.995C103.13 102.52 102.94 101.907 102.565 101.846C102.214 101.789 101.649 102.208 101.71 102.725C101.754 103.106 102.127 103.436 102.378 103.386C102.567 103.346 102.626 103.1 103.196 102.179C103.296 102.016 103.377 101.891 103.494 101.887C103.693 101.876 103.95 102.199 103.953 102.5C103.959 103.076 103.039 103.421 103.121 103.619C103.206 103.822 104.214 103.484 104.291 103.671Z" stroke="url(#paint4_linear_178_515)" stroke-miterlimit="10"/>
<path d="M104.379 103.877C104.432 104.04 103.865 104.483 103.579 104.341C103.348 104.226 103.481 103.815 103.308 103.021C103.191 102.474 103.038 101.769 102.626 101.665C102.24 101.566 101.566 101.981 101.581 102.563C101.592 102.995 101.978 103.401 102.264 103.368C102.48 103.342 102.571 103.074 103.298 102.099C103.426 101.926 103.527 101.796 103.662 101.8C103.886 101.806 104.139 102.193 104.115 102.531C104.067 103.176 103.003 103.471 103.075 103.702C103.149 103.94 104.31 103.661 104.379 103.877Z" stroke="url(#paint5_linear_178_515)" stroke-miterlimit="10"/>
<path d="M104.459 104.116C104.5 104.304 103.822 104.745 103.516 104.557C103.268 104.404 103.457 103.959 103.344 103.054C103.266 102.43 103.165 101.625 102.711 101.468C102.288 101.32 101.494 101.719 101.455 102.374C101.427 102.858 101.817 103.351 102.14 103.34C102.384 103.333 102.513 103.039 103.423 102.02C103.584 101.839 103.711 101.704 103.859 101.721C104.11 101.752 104.356 102.208 104.295 102.583C104.177 103.301 102.958 103.528 103.017 103.791C103.076 104.066 104.402 103.868 104.459 104.116Z" stroke="url(#paint6_linear_178_515)" stroke-miterlimit="10"/>
<path d="M104.522 104.393C104.55 104.607 103.748 105.035 103.425 104.795C103.163 104.601 103.418 104.119 103.379 103.095C103.353 102.391 103.318 101.479 102.827 101.259C102.367 101.052 101.44 101.42 101.333 102.149C101.252 102.688 101.643 103.277 102.005 103.298C102.28 103.314 102.452 103 103.569 101.946C103.767 101.758 103.922 101.619 104.086 101.654C104.363 101.713 104.594 102.247 104.489 102.661C104.286 103.453 102.901 103.586 102.941 103.889C102.98 104.199 104.485 104.11 104.522 104.393Z" stroke="url(#paint7_linear_178_515)" stroke-miterlimit="10"/>
<path d="M104.568 104.708C104.579 104.95 103.639 105.349 103.301 105.05C103.026 104.808 103.359 104.293 103.416 103.144C103.455 102.352 103.506 101.329 102.978 101.032C102.483 100.755 101.409 101.076 101.217 101.881C101.076 102.476 101.453 103.174 101.857 103.233C102.162 103.279 102.387 102.941 103.739 101.874C103.979 101.684 104.164 101.542 104.345 101.597C104.649 101.689 104.858 102.31 104.699 102.764C104.396 103.632 102.829 103.645 102.845 103.986C102.86 104.341 104.553 104.387 104.568 104.708Z" stroke="url(#paint8_linear_178_515)" stroke-miterlimit="10"/>
<path d="M104.587 105.065C104.576 105.338 103.485 105.693 103.134 105.323C102.85 105.024 103.274 104.481 103.45 103.2C103.572 102.317 103.729 101.178 103.167 100.794C102.641 100.436 101.406 100.689 101.112 101.571C100.894 102.223 101.249 103.041 101.694 103.148C102.032 103.228 102.316 102.873 103.935 101.811C104.222 101.621 104.445 101.481 104.641 101.56C104.973 101.693 105.145 102.408 104.923 102.901C104.497 103.844 102.744 103.704 102.728 104.088C102.711 104.487 104.602 104.703 104.587 105.065Z" stroke="url(#paint9_linear_178_515)" stroke-miterlimit="10"/>
<path d="M104.574 105.467C104.535 105.77 103.278 106.06 102.923 105.613C102.635 105.251 103.161 104.683 103.484 103.268C103.706 102.291 103.994 101.032 103.403 100.548C102.849 100.096 101.444 100.258 101.027 101.217C100.72 101.926 101.036 102.877 101.525 103.039C101.896 103.161 102.247 102.792 104.164 101.76C104.504 101.577 104.766 101.442 104.98 101.551C105.338 101.732 105.46 102.55 105.163 103.078C104.596 104.09 102.646 103.763 102.589 104.191C102.532 104.638 104.627 105.065 104.574 105.467Z" stroke="url(#paint10_linear_178_515)" stroke-miterlimit="10"/>
<path d="M104.519 105.916C104.445 106.252 103.012 106.455 102.657 105.918C102.369 105.484 103.014 104.902 103.514 103.349C103.858 102.278 104.303 100.895 103.688 100.297C103.112 99.7363 101.525 99.7821 100.964 100.814C100.55 101.577 100.811 102.672 101.343 102.901C101.747 103.076 102.177 102.696 104.423 101.73C104.823 101.558 105.13 101.433 105.357 101.575C105.739 101.813 105.795 102.742 105.414 103.303C104.679 104.38 102.53 103.824 102.423 104.295C102.316 104.786 104.62 105.471 104.519 105.916Z" stroke="url(#paint11_linear_178_515)" stroke-miterlimit="10"/>
<path d="M104.417 106.413C104.301 106.782 102.676 106.867 102.332 106.234C102.052 105.722 102.831 105.133 103.542 103.442C104.033 102.278 104.668 100.772 104.037 100.042C103.448 99.3589 101.664 99.252 100.938 100.354C100.401 101.167 100.587 102.419 101.158 102.729C101.592 102.962 102.109 102.581 104.72 101.719C105.185 101.566 105.54 101.455 105.78 101.636C106.186 101.942 106.158 102.984 105.673 103.575C104.746 104.71 102.395 103.876 102.229 104.396C102.059 104.934 104.57 105.923 104.417 106.413Z" stroke="url(#paint12_linear_178_515)" stroke-miterlimit="10"/>
<path d="M104.252 106.959C104.086 107.36 102.258 107.297 101.935 106.553C101.673 105.951 102.602 105.368 103.564 103.545C104.228 102.288 105.085 100.668 104.452 99.7886C103.859 98.9662 101.874 98.6717 100.951 99.8344C100.271 100.692 100.356 102.112 100.964 102.513C101.427 102.818 102.044 102.441 105.05 101.732C105.584 101.606 105.992 101.516 106.245 101.743C106.668 102.123 106.535 103.29 105.935 103.905C104.786 105.083 102.236 103.92 102 104.485C101.758 105.072 104.472 106.426 104.252 106.959Z" stroke="url(#paint13_linear_178_515)" stroke-miterlimit="10"/>
<path d="M104.014 107.554C103.789 107.986 101.749 107.737 101.462 106.874C101.226 106.173 102.323 105.613 103.58 103.667C104.446 102.326 105.562 100.596 104.941 99.5487C104.358 98.5693 102.164 98.0479 101.019 99.2564C100.172 100.151 100.129 101.748 100.772 102.258C101.261 102.644 101.989 102.282 105.421 101.782C106.031 101.693 106.496 101.634 106.758 101.911C107.194 102.378 106.932 103.669 106.199 104.3C104.797 105.506 102.057 103.953 101.739 104.564C101.407 105.198 104.313 106.978 104.014 107.554Z" stroke="url(#paint14_linear_178_515)" stroke-miterlimit="10"/>
<path d="M103.689 108.196C103.394 108.658 101.137 108.18 100.899 107.186C100.705 106.378 101.988 105.859 103.584 103.804C104.684 102.389 106.106 100.561 105.51 99.3283C104.954 98.1744 102.55 97.376 101.15 98.6172C100.114 99.5355 99.9087 101.318 100.581 101.952C101.089 102.432 101.94 102.099 105.831 101.876C106.523 101.837 107.05 101.815 107.314 102.153C107.757 102.718 107.336 104.138 106.455 104.773C104.767 105.986 101.852 103.981 101.436 104.631C101.002 105.303 104.079 107.583 103.689 108.196Z" stroke="url(#paint15_linear_178_515)" stroke-miterlimit="10"/>
<path d="M103.261 108.885C102.886 109.374 100.406 108.617 100.236 107.48C100.098 106.56 101.584 106.101 103.573 103.957C104.943 102.48 106.712 100.572 106.167 99.1365C105.656 97.7906 103.043 96.6606 101.355 97.9127C100.107 98.8376 99.7011 100.814 100.39 101.588C100.912 102.175 101.898 101.885 106.273 102.018C107.052 102.042 107.643 102.07 107.907 102.472C108.348 103.148 107.737 104.697 106.69 105.318C104.683 106.512 101.614 103.979 101.086 104.668C100.537 105.384 103.758 108.235 103.261 108.885Z" stroke="url(#paint16_linear_178_515)" stroke-miterlimit="10"/>
<path d="M102.716 109.611C102.249 110.122 99.5462 109.031 99.4676 107.742C99.4022 106.697 101.112 106.331 103.549 104.125C105.226 102.605 107.395 100.644 106.926 98.9816C106.487 97.4263 103.673 95.9059 101.66 97.1405C100.172 98.0545 99.5244 100.227 100.22 101.161C100.748 101.87 101.878 101.641 106.764 102.217C107.632 102.319 108.293 102.408 108.548 102.884C108.976 103.685 108.141 105.358 106.906 105.951C104.541 107.09 101.357 103.955 100.698 104.675C100.011 105.425 103.335 108.933 102.716 109.611Z" stroke="url(#paint17_linear_178_515)" stroke-miterlimit="10"/>
<path d="M102.036 110.373C101.464 110.898 98.5458 109.413 98.5829 107.962C98.6134 106.786 100.561 106.544 103.504 104.315C105.53 102.779 108.15 100.794 107.786 98.8879C107.446 97.1035 104.446 95.125 102.071 96.3117C100.315 97.1886 99.3791 99.5575 100.066 100.67C100.588 101.514 101.874 101.37 107.288 102.494C108.25 102.694 108.981 102.858 109.219 103.416C109.618 104.354 108.521 106.145 107.081 106.688C104.324 107.731 101.065 103.911 100.256 104.651C99.4161 105.423 102.795 109.675 102.036 110.373Z" stroke="url(#paint18_linear_178_515)" stroke-miterlimit="10"/>
<path d="M101.197 111.158C100.506 111.69 97.3846 109.742 97.5678 108.122C97.7161 106.808 99.9214 106.728 103.433 104.52C105.852 103 108.978 101.034 108.758 98.8661C108.553 96.8352 105.388 94.3267 102.613 95.4239C100.563 96.2332 99.2823 98.7919 99.9411 100.107C100.441 101.104 101.896 101.067 107.846 102.856C108.904 103.174 109.705 103.429 109.916 104.077C110.272 105.166 108.867 107.064 107.203 107.533C104.014 108.429 100.739 103.835 99.7622 104.583C98.7501 105.362 102.118 110.451 101.197 111.158Z" stroke="url(#paint19_linear_178_515)" stroke-miterlimit="10"/>
<path d="M100.184 111.954C99.3568 112.482 96.0543 109.997 96.4186 108.2C96.713 106.745 99.1889 106.872 103.338 104.743C106.195 103.277 109.884 101.385 109.851 98.9358C109.821 96.6432 106.522 93.5261 103.312 94.4815C100.936 95.1861 99.2543 97.9258 99.8629 99.4615C100.325 100.626 101.957 100.729 108.442 103.312C109.596 103.772 110.466 104.136 110.641 104.882C110.933 106.136 109.173 108.121 107.266 108.484C103.608 109.175 100.395 103.713 99.2281 104.455C98.0131 105.227 101.283 111.254 100.184 111.954Z" stroke="url(#paint20_linear_178_515)" stroke-miterlimit="10"/>
<path d="M98.9709 112.748C97.9937 113.258 94.5407 110.152 95.1253 108.178C95.5986 106.577 98.3558 106.961 103.207 104.987C106.549 103.626 110.863 101.87 111.066 99.1255C111.256 96.5559 107.871 92.7451 104.182 93.4976C101.455 94.0539 99.3025 96.9551 99.8325 98.735C100.236 100.083 102.053 100.358 109.057 103.885C110.303 104.513 111.243 105.006 111.365 105.859C111.568 107.29 109.406 109.341 107.234 109.559C103.072 109.976 100.009 103.545 98.6306 104.263C97.1997 105.004 100.269 112.07 98.9709 112.748Z" stroke="url(#paint21_linear_178_515)" stroke-miterlimit="10"/>
<path d="M97.5353 113.516C96.3923 113.991 92.8302 110.176 93.6766 108.025C94.3637 106.28 97.4131 106.981 103.037 105.244C106.911 104.049 111.912 102.504 112.41 99.4527C112.874 96.5951 109.458 91.9968 105.255 92.4789C102.149 92.8367 99.4548 95.8709 99.8758 97.9148C100.194 99.4636 102.203 99.9479 109.698 104.581C111.031 105.406 112.034 106.049 112.087 107.015C112.174 108.638 109.552 110.722 107.1 110.752C102.402 110.811 99.6032 103.314 97.989 103.981C96.3116 104.675 99.0556 112.883 97.5353 113.516Z" stroke="url(#paint22_linear_178_515)" stroke-miterlimit="10"/>
<path d="M95.8535 114.236C94.5272 114.657 90.915 110.039 92.0733 107.711C93.0134 105.824 96.3574 106.906 102.823 105.515C107.277 104.555 113.027 103.318 113.88 99.9501C114.68 96.7958 111.306 91.3163 106.555 91.445C103.043 91.541 99.7297 94.6756 100 97.003C100.205 98.7678 102.406 99.5072 110.342 105.427C111.753 106.481 112.813 107.301 112.778 108.387C112.717 110.213 109.578 112.288 106.832 112.083C101.566 111.688 99.1691 103.024 97.2953 103.613C95.3496 104.221 97.616 113.677 95.8535 114.236Z" stroke="url(#paint23_linear_178_515)" stroke-miterlimit="10"/>
<path d="M93.901 114.877C92.3741 115.217 88.7836 109.694 90.3084 107.203C91.5452 105.183 95.1836 106.723 102.554 105.798C107.632 105.161 114.189 104.339 115.476 100.652C116.68 97.2016 113.441 90.736 108.11 90.4154C104.168 90.1776 100.155 93.3624 100.229 95.9931C100.286 97.989 102.676 99.0317 110.978 106.435C112.455 107.753 113.561 108.774 113.415 109.986C113.168 112.024 109.452 114.037 106.398 113.54C100.543 112.582 98.7064 102.648 96.5535 103.124C94.3176 103.617 95.9296 114.423 93.901 114.877Z" stroke="url(#paint24_linear_178_515)" stroke-miterlimit="10"/>
<path d="M91.6521 115.403C89.9114 115.634 86.4323 109.101 88.3823 106.461C89.9638 104.321 93.8858 106.4 102.227 106.088C107.975 105.872 115.393 105.593 117.195 101.593C118.881 97.8472 115.889 90.2932 109.951 89.4119C105.562 88.7597 100.759 91.9314 100.585 94.8849C100.452 97.1252 103.025 98.5256 111.594 107.626C113.118 109.245 114.257 110.497 113.973 111.838C113.498 114.094 109.14 115.985 105.77 115.128C99.3107 113.483 98.2266 102.184 95.7704 102.504C93.2205 102.84 93.9665 115.095 91.6521 115.403Z" stroke="url(#paint25_linear_178_515)" stroke-miterlimit="10"/>
<path d="M89.0833 115.771C87.1114 115.861 83.8569 108.207 86.2978 105.443C88.2762 103.203 92.4643 105.914 101.831 106.381C108.285 106.701 116.618 107.116 119.024 102.814C121.277 98.7875 118.668 90.0381 112.109 88.4697C107.26 87.3092 101.573 90.3893 101.089 93.6788C100.723 96.172 103.465 97.9935 112.166 109.018C113.712 110.979 114.866 112.491 114.417 113.967C113.664 116.445 108.602 118.136 104.913 116.847C97.8434 114.373 97.7387 101.619 94.9576 101.739C92.0695 101.863 91.7052 115.654 89.0833 115.771Z" stroke="url(#paint26_linear_178_515)" stroke-miterlimit="10"/>
<path d="M86.1727 115.933C83.9565 115.839 81.0641 106.955 84.0678 104.101C86.5021 101.789 90.9236 105.233 101.363 106.671C108.555 107.661 117.843 108.942 120.958 104.363C123.874 100.077 121.811 90.0294 114.623 87.63C109.31 85.8565 102.642 88.7468 101.778 92.3809C101.121 95.136 104.014 97.4417 112.673 110.637C114.213 112.984 115.354 114.79 114.709 116.398C113.622 119.098 107.789 120.494 103.789 118.688C96.1173 115.228 97.2494 100.941 94.1257 100.803C90.8756 100.657 89.1175 116.057 86.1727 115.933Z" stroke="url(#paint27_linear_178_515)" stroke-miterlimit="10"/>
<path d="M82.8985 115.826C80.4271 115.503 78.0582 105.275 81.701 102.376C84.6523 100.026 89.2635 104.313 100.809 106.946C108.762 108.76 119.032 111.101 122.969 106.282C126.653 101.769 125.327 90.3215 117.516 86.9339C111.742 84.4297 103.996 87.0102 102.672 90.9933C101.669 94.0145 104.681 96.8786 113.079 112.493C114.573 115.27 115.675 117.403 114.794 119.139C113.312 122.056 106.649 123.046 102.347 120.633C94.0995 116.009 96.765 100.129 93.2815 99.6686C89.6584 99.1909 86.1814 116.256 82.8985 115.826Z" stroke="url(#paint28_linear_178_515)" stroke-miterlimit="10"/>
<path d="M79.2426 115.39C76.5073 114.788 74.8582 103.107 79.2187 100.216C82.7524 97.8757 87.4924 103.126 100.159 107.203C108.884 110.013 120.149 113.64 125.026 108.63C129.592 103.94 129.227 90.9936 120.818 86.4367C114.602 83.0687 105.678 85.1977 103.806 89.5255C102.386 92.8084 105.477 96.3095 113.352 114.611C114.752 117.866 115.775 120.361 114.619 122.217C112.678 125.337 105.12 125.795 100.541 122.671C91.7634 116.688 96.3005 99.1736 92.4461 98.3163C88.4391 97.4285 82.8767 116.19 79.2426 115.39Z" stroke="url(#paint29_linear_178_515)" stroke-miterlimit="10"/>
<path d="M75.1942 114.541C72.1927 113.599 71.4903 100.362 76.6535 97.5549C80.8394 95.2798 85.6296 101.621 99.4067 107.426C108.898 111.424 121.152 116.587 127.103 111.459C132.674 106.656 133.533 92.1299 124.566 86.2076C117.937 81.8274 107.739 83.3391 105.22 88.0006C103.309 91.5366 106.426 95.7575 113.446 117.013C114.693 120.793 115.596 123.687 114.12 125.651C111.639 128.951 103.137 128.724 98.316 124.78C89.076 117.222 95.8708 98.0632 91.6412 96.726C87.2481 95.3387 79.1838 115.793 75.1942 114.541Z" stroke="url(#paint30_linear_178_515)" stroke-miterlimit="10"/>
<path d="M70.7464 113.195C67.4788 111.847 67.9892 96.9617 74.0424 94.3266C78.9503 92.1911 83.6925 99.7582 98.545 107.604C108.777 113.01 121.987 119.99 129.151 114.831C135.856 110.002 138.24 93.8271 128.784 86.3167C121.793 80.7652 110.23 81.4588 106.956 86.4279C104.472 90.1973 107.547 95.2275 113.323 119.707C114.351 124.061 115.077 127.387 113.232 129.442C110.134 132.893 100.637 131.806 95.6286 126.92C86.0265 117.556 95.5086 96.7763 90.9039 94.8654C86.1181 92.8826 75.0894 114.986 70.7464 113.195Z" stroke="url(#paint31_linear_178_515)" stroke-miterlimit="10"/>
<path d="M65.8996 111.252C62.3746 109.421 64.4032 92.8105 71.4379 90.4525C77.1398 88.5416 81.7075 97.4764 97.5634 107.713C108.487 114.766 122.589 123.873 131.112 118.799C139.091 114.05 143.342 96.1785 133.494 86.8467C126.213 79.9493 113.201 79.5915 109.05 84.8333C105.9 88.8099 108.849 94.741 112.918 122.708C113.642 127.682 114.128 131.477 111.862 133.597C108.055 137.157 97.5328 135.011 92.4046 129.051C82.5734 117.63 95.2228 95.2972 90.256 92.708C85.095 90.0205 70.585 113.684 65.8996 111.252Z" stroke="url(#paint32_linear_178_515)" stroke-miterlimit="10"/>
<path d="M60.6674 108.604C56.9002 106.211 60.7982 87.8153 68.9018 85.8652C75.4719 84.2837 79.708 94.7324 96.4539 107.744C107.991 116.707 122.885 128.281 132.921 123.437C142.316 118.902 148.827 99.3154 138.717 87.9048C131.241 79.4695 116.714 77.7964 111.553 83.2585C107.637 87.4009 110.358 94.3288 112.175 126.03C112.497 131.669 112.67 135.964 109.926 138.115C105.317 141.727 93.7491 138.294 88.5924 131.122C78.7068 117.375 95.0513 93.6155 89.7464 90.2322C84.232 86.7181 65.6735 111.784 60.6674 108.604Z" stroke="url(#paint33_linear_178_515)" stroke-miterlimit="10"/>
<path d="M55.0652 105.126C51.0821 102.079 57.2465 81.8711 66.5105 80.4816C74.0185 79.356 77.7398 91.4669 95.2077 107.67C107.242 118.834 122.782 133.246 134.489 128.807C145.45 124.652 154.655 103.364 144.455 89.604C136.914 79.4302 120.816 76.1342 114.506 81.7424C109.718 85.996 112.084 94.0168 111.011 129.68C110.821 136.021 110.592 140.848 107.312 142.986C101.8 146.576 89.1873 141.601 84.118 133.067C74.4003 116.712 95.0201 91.7199 89.4142 87.4117C83.5857 82.9378 60.3592 109.177 55.0652 105.126Z" stroke="url(#paint34_linear_178_515)" stroke-miterlimit="10"/>
<path d="M49.1385 100.687C44.9788 96.8853 53.8589 74.8712 64.3619 74.2233C72.8755 73.6976 75.8552 87.619 93.8204 107.467C106.197 121.142 122.18 138.796 135.719 134.974C148.394 131.396 160.782 108.47 150.713 92.0689C143.268 79.9428 125.574 74.677 117.959 80.3376C112.183 84.6305 114.048 93.8402 109.353 133.652C108.518 140.733 107.792 146.112 103.909 148.184C97.3868 151.663 83.758 144.86 78.9177 134.812C69.6406 115.553 95.1706 89.5996 89.316 84.2292C83.2323 78.6427 54.666 105.737 49.1385 100.687Z" stroke="url(#paint35_linear_178_515)" stroke-miterlimit="10"/>
<path d="M42.9366 95.1358C38.6525 90.4743 50.7479 66.702 62.5684 67.0052C72.1487 67.2517 74.1206 83.1232 92.2865 107.101C104.803 123.618 120.962 144.945 136.491 141.991C151.029 139.227 167.14 114.779 157.475 95.4347C150.329 81.1338 131.04 73.5078 121.961 79.0942C115.077 83.3326 116.259 93.8248 107.108 137.927C105.481 145.771 104.14 151.72 99.5917 153.659C91.9506 156.916 77.362 147.964 72.9274 136.243C64.429 113.778 95.5453 87.2263 89.5206 80.6408C83.2602 73.8023 48.6298 101.331 42.9366 95.1358Z" stroke="url(#paint36_linear_178_515)" stroke-miterlimit="10"/>
<path d="M36.542 88.3148C32.2034 82.6761 48.0681 57.2525 61.2715 58.751C71.9708 59.9639 72.623 77.9229 90.6101 106.54C103.002 126.255 119 151.707 136.673 149.923C153.218 148.252 173.644 122.466 164.72 99.8672C158.124 83.1603 137.277 72.7335 126.569 78.0996C118.448 82.17 118.745 94.03 104.182 142.497C101.593 151.118 99.5098 157.645 94.2267 159.37C85.3553 162.267 69.9008 150.819 66.0878 137.266C58.7761 111.289 96.2051 84.6153 90.104 76.6555C83.7651 68.3839 42.3072 95.8078 36.542 88.3148Z" stroke="url(#paint37_linear_178_515)" stroke-miterlimit="10"/>
<path d="M30.0499 80.0541C25.7462 73.3181 45.9931 46.4134 60.6231 49.3843C72.4807 51.7904 71.4511 71.9569 88.7838 105.748C100.724 129.027 116.137 159.084 136.094 158.818C154.775 158.569 180.165 131.706 172.389 105.537C166.641 86.1902 144.329 72.4783 131.817 77.4365C122.328 81.1971 121.499 94.5011 100.454 147.327C96.7106 156.722 93.7397 163.824 87.6582 165.238C77.4453 167.611 61.2688 153.284 58.3262 137.74C52.6853 107.947 97.1927 81.7555 91.144 72.2492C84.8574 62.3699 35.7693 89.0063 30.0499 80.0541Z" stroke="url(#paint38_linear_178_515)" stroke-miterlimit="10"/>
<path d="M23.591 70.1726C19.4334 62.2107 44.7322 34.08 60.8171 38.8354C73.8548 42.6898 70.729 65.162 86.8183 104.682C97.9037 131.909 112.213 167.061 134.576 168.717C155.512 170.268 186.561 142.685 180.42 112.633C175.881 90.4155 152.249 72.8818 137.76 77.2053C126.771 80.486 124.542 95.2952 95.8118 152.364C90.7032 162.513 86.6809 170.172 79.7356 171.158C68.0722 172.816 51.3677 155.193 49.5965 137.506C46.2002 103.606 98.5843 78.6493 92.7427 67.4154C86.6721 55.7452 29.1162 80.7521 23.591 70.1726Z" stroke="url(#paint39_linear_178_515)" stroke-miterlimit="10"/>
<path d="M17.3309 58.4805C13.4569 49.1617 44.5295 20.152 62.0672 27.0494C76.2828 32.6402 70.583 57.4879 84.7222 103.301C94.464 134.862 107.039 175.61 131.908 179.654C155.189 183.441 192.644 155.607 188.714 121.366C185.808 96.052 161.072 74.1142 144.433 77.5345C131.812 80.1303 127.864 96.4882 90.1188 157.553C83.4069 168.412 78.1544 176.592 70.2842 177.017C57.0655 177.73 40.0949 156.371 39.8441 136.398C39.3642 98.1199 100.441 75.3161 95.0027 62.1691C89.351 48.5073 22.4787 70.8618 17.3309 58.4805Z" stroke="url(#paint40_linear_178_515)" stroke-miterlimit="10"/>
<defs>
<linearGradient id="paint0_linear_178_515" x1="288.599" y1="-105.031" x2="288.595" y2="-105.01" gradientUnits="userSpaceOnUse">
<stop stop-color="#FBFD54"/>
<stop offset="0.0308" stop-color="#EEF862"/>
<stop offset="0.1588" stop-color="#BEE695"/>
<stop offset="0.279" stop-color="#98D8BE"/>
<stop offset="0.3879" stop-color="#7DCDDB"/>
<stop offset="0.4817" stop-color="#6CC7ED"/>
<stop offset="0.5498" stop-color="#66C5F3"/>
<stop offset="0.61" stop-color="#67C7EE"/>
<stop offset="0.6811" stop-color="#69CBE0"/>
<stop offset="0.7578" stop-color="#6DD3C8"/>
<stop offset="0.8385" stop-color="#73DDA7"/>
<stop offset="0.9213" stop-color="#7AEB7C"/>
<stop offset="1" stop-color="#82FA4D"/>
</linearGradient>
<linearGradient id="paint1_linear_178_515" x1="103.109" y1="102.538" x2="102.709" y2="103.891" gradientUnits="userSpaceOnUse">
<stop stop-color="#FBFD54"/>
<stop offset="0.0308" stop-color="#EEF862"/>
<stop offset="0.1588" stop-color="#BEE695"/>
<stop offset="0.279" stop-color="#98D8BE"/>
<stop offset="0.3879" stop-color="#7DCDDB"/>
<stop offset="0.4817" stop-color="#6CC7ED"/>
<stop offset="0.5498" stop-color="#66C5F3"/>
<stop offset="0.61" stop-color="#67C7EE"/>
<stop offset="0.6811" stop-color="#69CBE0"/>
<stop offset="0.7578" stop-color="#6DD3C8"/>
<stop offset="0.8385" stop-color="#73DDA7"/>
<stop offset="0.9213" stop-color="#7AEB7C"/>
<stop offset="1" stop-color="#82FA4D"/>
</linearGradient>
<linearGradient id="paint2_linear_178_515" x1="103.434" y1="102.003" x2="102.854" y2="103.474" gradientUnits="userSpaceOnUse">
<stop stop-color="#FBFD54"/>
<stop offset="0.0308" stop-color="#EEF862"/>
<stop offset="0.1588" stop-color="#BEE695"/>
<stop offset="0.279" stop-color="#98D8BE"/>
<stop offset="0.3879" stop-color="#7DCDDB"/>
<stop offset="0.4817" stop-color="#6CC7ED"/>
<stop offset="0.5498" stop-color="#66C5F3"/>
<stop offset="0.61" stop-color="#67C7EE"/>
<stop offset="0.6811" stop-color="#69CBE0"/>
<stop offset="0.7578" stop-color="#6DD3C8"/>
<stop offset="0.8385" stop-color="#73DDA7"/>
<stop offset="0.9213" stop-color="#7AEB7C"/>
<stop offset="1" stop-color="#82FA4D"/>
</linearGradient>
<linearGradient id="paint3_linear_178_515" x1="103.54" y1="102.012" x2="102.747" y2="103.603" gradientUnits="userSpaceOnUse">
<stop stop-color="#FBFD54"/>
<stop offset="0.0308" stop-color="#EEF862"/>
<stop offset="0.1588" stop-color="#BEE695"/>
<stop offset="0.279" stop-color="#98D8BE"/>
<stop offset="0.3879" stop-color="#7DCDDB"/>
<stop offset="0.4817" stop-color="#6CC7ED"/>
<stop offset="0.5498" stop-color="#66C5F3"/>
<stop offset="0.61" stop-color="#67C7EE"/>
<stop offset="0.6811" stop-color="#69CBE0"/>
<stop offset="0.7578" stop-color="#6DD3C8"/>
<stop offset="0.8385" stop-color="#73DDA7"/>
<stop offset="0.9213" stop-color="#7AEB7C"/>
<stop offset="1" stop-color="#82FA4D"/>
</linearGradient>
<linearGradient id="paint4_linear_178_515" x1="103.851" y1="101.101" x2="102.807" y2="102.798" gradientUnits="userSpaceOnUse">
<stop stop-color="#FBFD54"/>
<stop offset="0.0308" stop-color="#EEF862"/>
<stop offset="0.1588" stop-color="#BEE695"/>
<stop offset="0.279" stop-color="#98D8BE"/>
<stop offset="0.3879" stop-color="#7DCDDB"/>
<stop offset="0.4817" stop-color="#6CC7ED"/>
<stop offset="0.5498" stop-color="#66C5F3"/>
<stop offset="0.61" stop-color="#67C7EE"/>
<stop offset="0.6811" stop-color="#69CBE0"/>
<stop offset="0.7578" stop-color="#6DD3C8"/>
<stop offset="0.8385" stop-color="#73DDA7"/>
<stop offset="0.9213" stop-color="#7AEB7C"/>
<stop offset="1" stop-color="#82FA4D"/>
</linearGradient>
<linearGradient id="paint5_linear_178_515" x1="103.417" y1="101.724" x2="102.078" y2="103.527" gradientUnits="userSpaceOnUse">
<stop stop-color="#FBFD54"/>
<stop offset="0.0308" stop-color="#EEF862"/>
<stop offset="0.1588" stop-color="#BEE695"/>
<stop offset="0.279" stop-color="#98D8BE"/>
<stop offset="0.3879" stop-color="#7DCDDB"/>
<stop offset="0.4817" stop-color="#6CC7ED"/>
<stop offset="0.5498" stop-color="#66C5F3"/>
<stop offset="0.61" stop-color="#67C7EE"/>
<stop offset="0.6811" stop-color="#69CBE0"/>
<stop offset="0.7578" stop-color="#6DD3C8"/>
<stop offset="0.8385" stop-color="#73DDA7"/>
<stop offset="0.9213" stop-color="#7AEB7C"/>
<stop offset="1" stop-color="#82FA4D"/>
</linearGradient>
<linearGradient id="paint6_linear_178_515" x1="104.186" y1="101.176" x2="102.515" y2="103.059" gradientUnits="userSpaceOnUse">
<stop stop-color="#FBFD54"/>
<stop offset="0.0308" stop-color="#EEF862"/>
<stop offset="0.1588" stop-color="#BEE695"/>
<stop offset="0.279" stop-color="#98D8BE"/>
<stop offset="0.3879" stop-color="#7DCDDB"/>
<stop offset="0.4817" stop-color="#6CC7ED"/>
<stop offset="0.5498" stop-color="#66C5F3"/>
<stop offset="0.61" stop-color="#67C7EE"/>
<stop offset="0.6811" stop-color="#69CBE0"/>
<stop offset="0.7578" stop-color="#6DD3C8"/>
<stop offset="0.8385" stop-color="#73DDA7"/>
<stop offset="0.9213" stop-color="#7AEB7C"/>
<stop offset="1" stop-color="#82FA4D"/>
</linearGradient>
<linearGradient id="paint7_linear_178_515" x1="104.392" y1="101.679" x2="102.337" y2="103.628" gradientUnits="userSpaceOnUse">
<stop stop-color="#FBFD54"/>
<stop offset="0.0308" stop-color="#EEF862"/>
<stop offset="0.1588" stop-color="#BEE695"/>
<stop offset="0.279" stop-color="#98D8BE"/>
<stop offset="0.3879" stop-color="#7DCDDB"/>
<stop offset="0.4817" stop-color="#6CC7ED"/>
<stop offset="0.5498" stop-color="#66C5F3"/>
<stop offset="0.61" stop-color="#67C7EE"/>
<stop offset="0.6811" stop-color="#69CBE0"/>
<stop offset="0.7578" stop-color="#6DD3C8"/>
<stop offset="0.8385" stop-color="#73DDA7"/>
<stop offset="0.9213" stop-color="#7AEB7C"/>
<stop offset="1" stop-color="#82FA4D"/>
</linearGradient>
<linearGradient id="paint8_linear_178_515" x1="104.465" y1="101.265" x2="101.973" y2="103.241" gradientUnits="userSpaceOnUse">
<stop stop-color="#FBFD54"/>
<stop offset="0.0308" stop-color="#EEF862"/>
<stop offset="0.1588" stop-color="#BEE695"/>
<stop offset="0.279" stop-color="#98D8BE"/>
<stop offset="0.3879" stop-color="#7DCDDB"/>
<stop offset="0.4817" stop-color="#6CC7ED"/>
<stop offset="0.5498" stop-color="#66C5F3"/>
<stop offset="0.61" stop-color="#67C7EE"/>
<stop offset="0.6811" stop-color="#69CBE0"/>
<stop offset="0.7578" stop-color="#6DD3C8"/>
<stop offset="0.8385" stop-color="#73DDA7"/>
<stop offset="0.9213" stop-color="#7AEB7C"/>
<stop offset="1" stop-color="#82FA4D"/>
</linearGradient>
<linearGradient id="paint9_linear_178_515" x1="104.965" y1="101.928" x2="101.982" y2="103.904" gradientUnits="userSpaceOnUse">
<stop stop-color="#FBFD54"/>
<stop offset="0.0308" stop-color="#EEF862"/>
<stop offset="0.1588" stop-color="#BEE695"/>
<stop offset="0.279" stop-color="#98D8BE"/>
<stop offset="0.3879" stop-color="#7DCDDB"/>
<stop offset="0.4817" stop-color="#6CC7ED"/>
<stop offset="0.5498" stop-color="#66C5F3"/>
<stop offset="0.61" stop-color="#67C7EE"/>
<stop offset="0.6811" stop-color="#69CBE0"/>
<stop offset="0.7578" stop-color="#6DD3C8"/>
<stop offset="0.8385" stop-color="#73DDA7"/>
<stop offset="0.9213" stop-color="#7AEB7C"/>
<stop offset="1" stop-color="#82FA4D"/>
</linearGradient>
<linearGradient id="paint10_linear_178_515" x1="105.785" y1="102.071" x2="102.258" y2="103.994" gradientUnits="userSpaceOnUse">
<stop stop-color="#FBFD54"/>
<stop offset="0.0308" stop-color="#EEF862"/>
<stop offset="0.1588" stop-color="#BEE695"/>
<stop offset="0.279" stop-color="#98D8BE"/>
<stop offset="0.3879" stop-color="#7DCDDB"/>
<stop offset="0.4817" stop-color="#6CC7ED"/>
<stop offset="0.5498" stop-color="#66C5F3"/>
<stop offset="0.61" stop-color="#67C7EE"/>
<stop offset="0.6811" stop-color="#69CBE0"/>
<stop offset="0.7578" stop-color="#6DD3C8"/>
<stop offset="0.8385" stop-color="#73DDA7"/>
<stop offset="0.9213" stop-color="#7AEB7C"/>
<stop offset="1" stop-color="#82FA4D"/>
</linearGradient>
<linearGradient id="paint11_linear_178_515" x1="106.029" y1="101.987" x2="101.893" y2="103.79" gradientUnits="userSpaceOnUse">
<stop stop-color="#FBFD54"/>
<stop offset="0.0308" stop-color="#EEF862"/>
<stop offset="0.1588" stop-color="#BEE695"/>
<stop offset="0.279" stop-color="#98D8BE"/>
<stop offset="0.3879" stop-color="#7DCDDB"/>
<stop offset="0.4817" stop-color="#6CC7ED"/>
<stop offset="0.5498" stop-color="#66C5F3"/>
<stop offset="0.61" stop-color="#67C7EE"/>
<stop offset="0.6811" stop-color="#69CBE0"/>
<stop offset="0.7578" stop-color="#6DD3C8"/>
<stop offset="0.8385" stop-color="#73DDA7"/>
<stop offset="0.9213" stop-color="#7AEB7C"/>
<stop offset="1" stop-color="#82FA4D"/>
</linearGradient>
<linearGradient id="paint12_linear_178_515" x1="105.894" y1="101.839" x2="101.082" y2="103.443" gradientUnits="userSpaceOnUse">
<stop stop-color="#FBFD54"/>
<stop offset="0.0308" stop-color="#EEF862"/>
<stop offset="0.1588" stop-color="#BEE695"/>
<stop offset="0.279" stop-color="#98D8BE"/>
<stop offset="0.3879" stop-color="#7DCDDB"/>
<stop offset="0.4817" stop-color="#6CC7ED"/>
<stop offset="0.5498" stop-color="#66C5F3"/>
<stop offset="0.61" stop-color="#67C7EE"/>
<stop offset="0.6811" stop-color="#69CBE0"/>
<stop offset="0.7578" stop-color="#6DD3C8"/>
<stop offset="0.8385" stop-color="#73DDA7"/>
<stop offset="0.9213" stop-color="#7AEB7C"/>
<stop offset="1" stop-color="#82FA4D"/>
</linearGradient>
<linearGradient id="paint13_linear_178_515" x1="106.481" y1="102.032" x2="100.94" y2="103.357" gradientUnits="userSpaceOnUse">
<stop stop-color="#FBFD54"/>
<stop offset="0.0308" stop-color="#EEF862"/>
<stop offset="0.1588" stop-color="#BEE695"/>
<stop offset="0.279" stop-color="#98D8BE"/>
<stop offset="0.3879" stop-color="#7DCDDB"/>
<stop offset="0.4817" stop-color="#6CC7ED"/>
<stop offset="0.5498" stop-color="#66C5F3"/>
<stop offset="0.61" stop-color="#67C7EE"/>
<stop offset="0.6811" stop-color="#69CBE0"/>
<stop offset="0.7578" stop-color="#6DD3C8"/>
<stop offset="0.8385" stop-color="#73DDA7"/>
<stop offset="0.9213" stop-color="#7AEB7C"/>
<stop offset="1" stop-color="#82FA4D"/>
</linearGradient>
<linearGradient id="paint14_linear_178_515" x1="106.951" y1="102.599" x2="100.615" y2="103.545" gradientUnits="userSpaceOnUse">
<stop stop-color="#FBFD54"/>
<stop offset="0.0308" stop-color="#EEF862"/>
<stop offset="0.1588" stop-color="#BEE695"/>
<stop offset="0.279" stop-color="#98D8BE"/>
<stop offset="0.3879" stop-color="#7DCDDB"/>
<stop offset="0.4817" stop-color="#6CC7ED"/>
<stop offset="0.5498" stop-color="#66C5F3"/>
<stop offset="0.61" stop-color="#67C7EE"/>
<stop offset="0.6811" stop-color="#69CBE0"/>
<stop offset="0.7578" stop-color="#6DD3C8"/>
<stop offset="0.8385" stop-color="#73DDA7"/>
<stop offset="0.9213" stop-color="#7AEB7C"/>
<stop offset="1" stop-color="#82FA4D"/>
</linearGradient>
<linearGradient id="paint15_linear_178_515" x1="107.483" y1="102.932" x2="100.298" y2="103.371" gradientUnits="userSpaceOnUse">
<stop stop-color="#FBFD54"/>
<stop offset="0.0308" stop-color="#EEF862"/>
<stop offset="0.1588" stop-color="#BEE695"/>
<stop offset="0.279" stop-color="#98D8BE"/>
<stop offset="0.3879" stop-color="#7DCDDB"/>
<stop offset="0.4817" stop-color="#6CC7ED"/>
<stop offset="0.5498" stop-color="#66C5F3"/>
<stop offset="0.61" stop-color="#67C7EE"/>
<stop offset="0.6811" stop-color="#69CBE0"/>
<stop offset="0.7578" stop-color="#6DD3C8"/>
<stop offset="0.8385" stop-color="#73DDA7"/>
<stop offset="0.9213" stop-color="#7AEB7C"/>
<stop offset="1" stop-color="#82FA4D"/>
</linearGradient>
<linearGradient id="paint16_linear_178_515" x1="108.003" y1="103.397" x2="99.9162" y2="103.184" gradientUnits="userSpaceOnUse">
<stop stop-color="#FBFD54"/>
<stop offset="0.0308" stop-color="#EEF862"/>
<stop offset="0.1588" stop-color="#BEE695"/>
<stop offset="0.279" stop-color="#98D8BE"/>
<stop offset="0.3879" stop-color="#7DCDDB"/>
<stop offset="0.4817" stop-color="#6CC7ED"/>
<stop offset="0.5498" stop-color="#66C5F3"/>
<stop offset="0.61" stop-color="#67C7EE"/>
<stop offset="0.6811" stop-color="#69CBE0"/>
<stop offset="0.7578" stop-color="#6DD3C8"/>
<stop offset="0.8385" stop-color="#73DDA7"/>
<stop offset="0.9213" stop-color="#7AEB7C"/>
<stop offset="1" stop-color="#82FA4D"/>
</linearGradient>
<linearGradient id="paint17_linear_178_515" x1="108.637" y1="103.863" x2="99.6096" y2="102.833" gradientUnits="userSpaceOnUse">
<stop stop-color="#FBFD54"/>
<stop offset="0.0308" stop-color="#EEF862"/>
<stop offset="0.1588" stop-color="#BEE695"/>
<stop offset="0.279" stop-color="#98D8BE"/>
<stop offset="0.3879" stop-color="#7DCDDB"/>
<stop offset="0.4817" stop-color="#6CC7ED"/>
<stop offset="0.5498" stop-color="#66C5F3"/>
<stop offset="0.61" stop-color="#67C7EE"/>
<stop offset="0.6811" stop-color="#69CBE0"/>
<stop offset="0.7578" stop-color="#6DD3C8"/>
<stop offset="0.8385" stop-color="#73DDA7"/>
<stop offset="0.9213" stop-color="#7AEB7C"/>
<stop offset="1" stop-color="#82FA4D"/>
</linearGradient>
<linearGradient id="paint18_linear_178_515" x1="109.023" y1="104.545" x2="99.0145" y2="102.503" gradientUnits="userSpaceOnUse">
<stop stop-color="#FBFD54"/>
<stop offset="0.0308" stop-color="#EEF862"/>
<stop offset="0.1588" stop-color="#BEE695"/>
<stop offset="0.279" stop-color="#98D8BE"/>
<stop offset="0.3879" stop-color="#7DCDDB"/>
<stop offset="0.4817" stop-color="#6CC7ED"/>
<stop offset="0.5498" stop-color="#66C5F3"/>
<stop offset="0.61" stop-color="#67C7EE"/>
<stop offset="0.6811" stop-color="#69CBE0"/>
<stop offset="0.7578" stop-color="#6DD3C8"/>
<stop offset="0.8385" stop-color="#73DDA7"/>
<stop offset="0.9213" stop-color="#7AEB7C"/>
<stop offset="1" stop-color="#82FA4D"/>
</linearGradient>
<linearGradient id="paint19_linear_178_515" x1="109.708" y1="105.387" x2="98.7052" y2="102.125" gradientUnits="userSpaceOnUse">
<stop stop-color="#FBFD54"/>
<stop offset="0.0308" stop-color="#EEF862"/>
<stop offset="0.1588" stop-color="#BEE695"/>
<stop offset="0.279" stop-color="#98D8BE"/>
<stop offset="0.3879" stop-color="#7DCDDB"/>
<stop offset="0.4817" stop-color="#6CC7ED"/>
<stop offset="0.5498" stop-color="#66C5F3"/>
<stop offset="0.61" stop-color="#67C7EE"/>
<stop offset="0.6811" stop-color="#69CBE0"/>
<stop offset="0.7578" stop-color="#6DD3C8"/>
<stop offset="0.8385" stop-color="#73DDA7"/>
<stop offset="0.9213" stop-color="#7AEB7C"/>
<stop offset="1" stop-color="#82FA4D"/>
</linearGradient>
<linearGradient id="paint20_linear_178_515" x1="110.461" y1="106.432" x2="98.4642" y2="101.713" gradientUnits="userSpaceOnUse">
<stop stop-color="#FBFD54"/>
<stop offset="0.0308" stop-color="#EEF862"/>
<stop offset="0.1588" stop-color="#BEE695"/>
<stop offset="0.279" stop-color="#98D8BE"/>
<stop offset="0.3879" stop-color="#7DCDDB"/>
<stop offset="0.4817" stop-color="#6CC7ED"/>
<stop offset="0.5498" stop-color="#66C5F3"/>
<stop offset="0.61" stop-color="#67C7EE"/>
<stop offset="0.6811" stop-color="#69CBE0"/>
<stop offset="0.7578" stop-color="#6DD3C8"/>
<stop offset="0.8385" stop-color="#73DDA7"/>
<stop offset="0.9213" stop-color="#7AEB7C"/>
<stop offset="1" stop-color="#82FA4D"/>
</linearGradient>
<linearGradient id="paint21_linear_178_515" x1="110.804" y1="107.419" x2="97.8389" y2="100.95" gradientUnits="userSpaceOnUse">
<stop stop-color="#FBFD54"/>
<stop offset="0.0308" stop-color="#EEF862"/>
<stop offset="0.1588" stop-color="#BEE695"/>
<stop offset="0.279" stop-color="#98D8BE"/>
<stop offset="0.3879" stop-color="#7DCDDB"/>
<stop offset="0.4817" stop-color="#6CC7ED"/>
<stop offset="0.5498" stop-color="#66C5F3"/>
<stop offset="0.61" stop-color="#67C7EE"/>
<stop offset="0.6811" stop-color="#69CBE0"/>
<stop offset="0.7578" stop-color="#6DD3C8"/>
<stop offset="0.8385" stop-color="#73DDA7"/>
<stop offset="0.9213" stop-color="#7AEB7C"/>
<stop offset="1" stop-color="#82FA4D"/>
</linearGradient>
<linearGradient id="paint22_linear_178_515" x1="111.55" y1="108.819" x2="97.6707" y2="100.322" gradientUnits="userSpaceOnUse">
<stop stop-color="#FBFD54"/>
<stop offset="0.0308" stop-color="#EEF862"/>
<stop offset="0.1588" stop-color="#BEE695"/>
<stop offset="0.279" stop-color="#98D8BE"/>
<stop offset="0.3879" stop-color="#7DCDDB"/>
<stop offset="0.4817" stop-color="#6CC7ED"/>
<stop offset="0.5498" stop-color="#66C5F3"/>
<stop offset="0.61" stop-color="#67C7EE"/>
<stop offset="0.6811" stop-color="#69CBE0"/>
<stop offset="0.7578" stop-color="#6DD3C8"/>
<stop offset="0.8385" stop-color="#73DDA7"/>
<stop offset="0.9213" stop-color="#7AEB7C"/>
<stop offset="1" stop-color="#82FA4D"/>
</linearGradient>
<linearGradient id="paint23_linear_178_515" x1="112.014" y1="110.296" x2="97.3128" y2="99.4258" gradientUnits="userSpaceOnUse">
<stop stop-color="#FBFD54"/>
<stop offset="0.0308" stop-color="#EEF862"/>
<stop offset="0.1588" stop-color="#BEE695"/>
<stop offset="0.279" stop-color="#98D8BE"/>
<stop offset="0.3879" stop-color="#7DCDDB"/>
<stop offset="0.4817" stop-color="#6CC7ED"/>
<stop offset="0.5498" stop-color="#66C5F3"/>
<stop offset="0.61" stop-color="#67C7EE"/>
<stop offset="0.6811" stop-color="#69CBE0"/>
<stop offset="0.7578" stop-color="#6DD3C8"/>
<stop offset="0.8385" stop-color="#73DDA7"/>
<stop offset="0.9213" stop-color="#7AEB7C"/>
<stop offset="1" stop-color="#82FA4D"/>
</linearGradient>
<linearGradient id="paint24_linear_178_515" x1="112.268" y1="112.003" x2="96.877" y2="98.3883" gradientUnits="userSpaceOnUse">
<stop stop-color="#FBFD54"/>
<stop offset="0.0308" stop-color="#EEF862"/>
<stop offset="0.1588" stop-color="#BEE695"/>
<stop offset="0.279" stop-color="#98D8BE"/>
<stop offset="0.3879" stop-color="#7DCDDB"/>
<stop offset="0.4817" stop-color="#6CC7ED"/>
<stop offset="0.5498" stop-color="#66C5F3"/>
<stop offset="0.61" stop-color="#67C7EE"/>
<stop offset="0.6811" stop-color="#69CBE0"/>
<stop offset="0.7578" stop-color="#6DD3C8"/>
<stop offset="0.8385" stop-color="#73DDA7"/>
<stop offset="0.9213" stop-color="#7AEB7C"/>
<stop offset="1" stop-color="#82FA4D"/>
</linearGradient>
<linearGradient id="paint25_linear_178_515" x1="112.567" y1="113.818" x2="96.6855" y2="97.0749" gradientUnits="userSpaceOnUse">
<stop stop-color="#FBFD54"/>
<stop offset="0.0308" stop-color="#EEF862"/>
<stop offset="0.1588" stop-color="#BEE695"/>
<stop offset="0.279" stop-color="#98D8BE"/>
<stop offset="0.3879" stop-color="#7DCDDB"/>
<stop offset="0.4817" stop-color="#6CC7ED"/>
<stop offset="0.5498" stop-color="#66C5F3"/>
<stop offset="0.61" stop-color="#67C7EE"/>
<stop offset="0.6811" stop-color="#69CBE0"/>
<stop offset="0.7578" stop-color="#6DD3C8"/>
<stop offset="0.8385" stop-color="#73DDA7"/>
<stop offset="0.9213" stop-color="#7AEB7C"/>
<stop offset="1" stop-color="#82FA4D"/>
</linearGradient>
<linearGradient id="paint26_linear_178_515" x1="112.632" y1="116.165" x2="96.4855" y2="95.8692" gradientUnits="userSpaceOnUse">
<stop stop-color="#FBFD54"/>
<stop offset="0.0308" stop-color="#EEF862"/>
<stop offset="0.1588" stop-color="#BEE695"/>
<stop offset="0.279" stop-color="#98D8BE"/>
<stop offset="0.3879" stop-color="#7DCDDB"/>
<stop offset="0.4817" stop-color="#6CC7ED"/>
<stop offset="0.5498" stop-color="#66C5F3"/>
<stop offset="0.61" stop-color="#67C7EE"/>
<stop offset="0.6811" stop-color="#69CBE0"/>
<stop offset="0.7578" stop-color="#6DD3C8"/>
<stop offset="0.8385" stop-color="#73DDA7"/>
<stop offset="0.9213" stop-color="#7AEB7C"/>
<stop offset="1" stop-color="#82FA4D"/>
</linearGradient>
<linearGradient id="paint27_linear_178_515" x1="112.487" y1="118.617" x2="96.4064" y2="94.318" gradientUnits="userSpaceOnUse">
<stop stop-color="#FBFD54"/>
<stop offset="0.0308" stop-color="#EEF862"/>
<stop offset="0.1588" stop-color="#BEE695"/>
<stop offset="0.279" stop-color="#98D8BE"/>
<stop offset="0.3879" stop-color="#7DCDDB"/>
<stop offset="0.4817" stop-color="#6CC7ED"/>
<stop offset="0.5498" stop-color="#66C5F3"/>
<stop offset="0.61" stop-color="#67C7EE"/>
<stop offset="0.6811" stop-color="#69CBE0"/>
<stop offset="0.7578" stop-color="#6DD3C8"/>
<stop offset="0.8385" stop-color="#73DDA7"/>
<stop offset="0.9213" stop-color="#7AEB7C"/>
<stop offset="1" stop-color="#82FA4D"/>
</linearGradient>
<linearGradient id="paint28_linear_178_515" x1="112.027" y1="121.382" x2="96.4103" y2="92.6017" gradientUnits="userSpaceOnUse">
<stop stop-color="#FBFD54"/>
<stop offset="0.0308" stop-color="#EEF862"/>
<stop offset="0.1588" stop-color="#BEE695"/>
<stop offset="0.279" stop-color="#98D8BE"/>
<stop offset="0.3879" stop-color="#7DCDDB"/>
<stop offset="0.4817" stop-color="#6CC7ED"/>
<stop offset="0.5498" stop-color="#66C5F3"/>
<stop offset="0.61" stop-color="#67C7EE"/>
<stop offset="0.6811" stop-color="#69CBE0"/>
<stop offset="0.7578" stop-color="#6DD3C8"/>
<stop offset="0.8385" stop-color="#73DDA7"/>
<stop offset="0.9213" stop-color="#7AEB7C"/>
<stop offset="1" stop-color="#82FA4D"/>
</linearGradient>
<linearGradient id="paint29_linear_178_515" x1="111.348" y1="124.469" x2="96.6862" y2="90.7314" gradientUnits="userSpaceOnUse">
<stop stop-color="#FBFD54"/>
<stop offset="0.0308" stop-color="#EEF862"/>
<stop offset="0.1588" stop-color="#BEE695"/>
<stop offset="0.279" stop-color="#98D8BE"/>
<stop offset="0.3879" stop-color="#7DCDDB"/>
<stop offset="0.4817" stop-color="#6CC7ED"/>
<stop offset="0.5498" stop-color="#66C5F3"/>
<stop offset="0.61" stop-color="#67C7EE"/>
<stop offset="0.6811" stop-color="#69CBE0"/>
<stop offset="0.7578" stop-color="#6DD3C8"/>
<stop offset="0.8385" stop-color="#73DDA7"/>
<stop offset="0.9213" stop-color="#7AEB7C"/>
<stop offset="1" stop-color="#82FA4D"/>
</linearGradient>
<linearGradient id="paint30_linear_178_515" x1="110.238" y1="127.877" x2="97.1273" y2="88.6768" gradientUnits="userSpaceOnUse">
<stop stop-color="#FBFD54"/>
<stop offset="0.0308" stop-color="#EEF862"/>
<stop offset="0.1588" stop-color="#BEE695"/>
<stop offset="0.279" stop-color="#98D8BE"/>
<stop offset="0.3879" stop-color="#7DCDDB"/>
<stop offset="0.4817" stop-color="#6CC7ED"/>
<stop offset="0.5498" stop-color="#66C5F3"/>
<stop offset="0.61" stop-color="#67C7EE"/>
<stop offset="0.6811" stop-color="#69CBE0"/>
<stop offset="0.7578" stop-color="#6DD3C8"/>
<stop offset="0.8385" stop-color="#73DDA7"/>
<stop offset="0.9213" stop-color="#7AEB7C"/>
<stop offset="1" stop-color="#82FA4D"/>
</linearGradient>
<linearGradient id="paint31_linear_178_515" x1="108.643" y1="131.601" x2="97.7986" y2="86.4356" gradientUnits="userSpaceOnUse">
<stop stop-color="#FBFD54"/>
<stop offset="0.0308" stop-color="#EEF862"/>
<stop offset="0.1588" stop-color="#BEE695"/>
<stop offset="0.279" stop-color="#98D8BE"/>
<stop offset="0.3879" stop-color="#7DCDDB"/>
<stop offset="0.4817" stop-color="#6CC7ED"/>
<stop offset="0.5498" stop-color="#66C5F3"/>
<stop offset="0.61" stop-color="#67C7EE"/>
<stop offset="0.6811" stop-color="#69CBE0"/>
<stop offset="0.7578" stop-color="#6DD3C8"/>
<stop offset="0.8385" stop-color="#73DDA7"/>
<stop offset="0.9213" stop-color="#7AEB7C"/>
<stop offset="1" stop-color="#82FA4D"/>
</linearGradient>
<linearGradient id="paint32_linear_178_515" x1="106.553" y1="135.493" x2="98.8506" y2="83.8847" gradientUnits="userSpaceOnUse">
<stop stop-color="#FBFD54"/>
<stop offset="0.0308" stop-color="#EEF862"/>
<stop offset="0.1588" stop-color="#BEE695"/>
<stop offset="0.279" stop-color="#98D8BE"/>
<stop offset="0.3879" stop-color="#7DCDDB"/>
<stop offset="0.4817" stop-color="#6CC7ED"/>
<stop offset="0.5498" stop-color="#66C5F3"/>
<stop offset="0.61" stop-color="#67C7EE"/>
<stop offset="0.6811" stop-color="#69CBE0"/>
<stop offset="0.7578" stop-color="#6DD3C8"/>
<stop offset="0.8385" stop-color="#73DDA7"/>
<stop offset="0.9213" stop-color="#7AEB7C"/>
<stop offset="1" stop-color="#82FA4D"/>
</linearGradient>
<linearGradient id="paint33_linear_178_515" x1="103.763" y1="139.778" x2="100.184" y2="81.25" gradientUnits="userSpaceOnUse">
<stop stop-color="#FBFD54"/>
<stop offset="0.0308" stop-color="#EEF862"/>
<stop offset="0.1588" stop-color="#BEE695"/>
<stop offset="0.279" stop-color="#98D8BE"/>
<stop offset="0.3879" stop-color="#7DCDDB"/>
<stop offset="0.4817" stop-color="#6CC7ED"/>
<stop offset="0.5498" stop-color="#66C5F3"/>
<stop offset="0.61" stop-color="#67C7EE"/>
<stop offset="0.6811" stop-color="#69CBE0"/>
<stop offset="0.7578" stop-color="#6DD3C8"/>
<stop offset="0.8385" stop-color="#73DDA7"/>
<stop offset="0.9213" stop-color="#7AEB7C"/>
<stop offset="1" stop-color="#82FA4D"/>
</linearGradient>
<linearGradient id="paint34_linear_178_515" x1="100.26" y1="144.195" x2="101.997" y2="78.3354" gradientUnits="userSpaceOnUse">
<stop stop-color="#FBFD54"/>
<stop offset="0.0308" stop-color="#EEF862"/>
<stop offset="0.1588" stop-color="#BEE695"/>
<stop offset="0.279" stop-color="#98D8BE"/>
<stop offset="0.3879" stop-color="#7DCDDB"/>
<stop offset="0.4817" stop-color="#6CC7ED"/>
<stop offset="0.5498" stop-color="#66C5F3"/>
<stop offset="0.61" stop-color="#67C7EE"/>
<stop offset="0.6811" stop-color="#69CBE0"/>
<stop offset="0.7578" stop-color="#6DD3C8"/>
<stop offset="0.8385" stop-color="#73DDA7"/>
<stop offset="0.9213" stop-color="#7AEB7C"/>
<stop offset="1" stop-color="#82FA4D"/>
</linearGradient>
<linearGradient id="paint35_linear_178_515" x1="95.8973" y1="148.851" x2="104.289" y2="75.303" gradientUnits="userSpaceOnUse">
<stop stop-color="#FBFD54"/>
<stop offset="0.0308" stop-color="#EEF862"/>
<stop offset="0.1588" stop-color="#BEE695"/>
<stop offset="0.279" stop-color="#98D8BE"/>
<stop offset="0.3879" stop-color="#7DCDDB"/>
<stop offset="0.4817" stop-color="#6CC7ED"/>
<stop offset="0.5498" stop-color="#66C5F3"/>
<stop offset="0.61" stop-color="#67C7EE"/>
<stop offset="0.6811" stop-color="#69CBE0"/>
<stop offset="0.7578" stop-color="#6DD3C8"/>
<stop offset="0.8385" stop-color="#73DDA7"/>
<stop offset="0.9213" stop-color="#7AEB7C"/>
<stop offset="1" stop-color="#82FA4D"/>
</linearGradient>
<linearGradient id="paint36_linear_178_515" x1="90.5591" y1="153.658" x2="107.144" y2="72.1556" gradientUnits="userSpaceOnUse">
<stop stop-color="#FBFD54"/>
<stop offset="0.0308" stop-color="#EEF862"/>
<stop offset="0.1588" stop-color="#BEE695"/>
<stop offset="0.279" stop-color="#98D8BE"/>
<stop offset="0.3879" stop-color="#7DCDDB"/>
<stop offset="0.4817" stop-color="#6CC7ED"/>
<stop offset="0.5498" stop-color="#66C5F3"/>
<stop offset="0.61" stop-color="#67C7EE"/>
<stop offset="0.6811" stop-color="#69CBE0"/>
<stop offset="0.7578" stop-color="#6DD3C8"/>
<stop offset="0.8385" stop-color="#73DDA7"/>
<stop offset="0.9213" stop-color="#7AEB7C"/>
<stop offset="1" stop-color="#82FA4D"/>
</linearGradient>
<linearGradient id="paint37_linear_178_515" x1="84.1168" y1="158.462" x2="110.67" y2="68.8604" gradientUnits="userSpaceOnUse">
<stop stop-color="#FBFD54"/>
<stop offset="0.0308" stop-color="#EEF862"/>
<stop offset="0.1588" stop-color="#BEE695"/>
<stop offset="0.279" stop-color="#98D8BE"/>
<stop offset="0.3879" stop-color="#7DCDDB"/>
<stop offset="0.4817" stop-color="#6CC7ED"/>
<stop offset="0.5498" stop-color="#66C5F3"/>
<stop offset="0.61" stop-color="#67C7EE"/>
<stop offset="0.6811" stop-color="#69CBE0"/>
<stop offset="0.7578" stop-color="#6DD3C8"/>
<stop offset="0.8385" stop-color="#73DDA7"/>
<stop offset="0.9213" stop-color="#7AEB7C"/>
<stop offset="1" stop-color="#82FA4D"/>
</linearGradient>
<linearGradient id="paint38_linear_178_515" x1="76.4156" y1="163.226" x2="114.914" y2="65.5243" gradientUnits="userSpaceOnUse">
<stop stop-color="#FBFD54"/>
<stop offset="0.0308" stop-color="#EEF862"/>
<stop offset="0.1588" stop-color="#BEE695"/>
<stop offset="0.279" stop-color="#98D8BE"/>
<stop offset="0.3879" stop-color="#7DCDDB"/>
<stop offset="0.4817" stop-color="#6CC7ED"/>
<stop offset="0.5498" stop-color="#66C5F3"/>
<stop offset="0.61" stop-color="#67C7EE"/>
<stop offset="0.6811" stop-color="#69CBE0"/>
<stop offset="0.7578" stop-color="#6DD3C8"/>
<stop offset="0.8385" stop-color="#73DDA7"/>
<stop offset="0.9213" stop-color="#7AEB7C"/>
<stop offset="1" stop-color="#82FA4D"/>
</linearGradient>
<linearGradient id="paint39_linear_178_515" x1="67.3468" y1="167.813" x2="120.003" y2="62.2242" gradientUnits="userSpaceOnUse">
<stop stop-color="#FBFD54"/>
<stop offset="0.0308" stop-color="#EEF862"/>
<stop offset="0.1588" stop-color="#BEE695"/>
<stop offset="0.279" stop-color="#98D8BE"/>
<stop offset="0.3879" stop-color="#7DCDDB"/>
<stop offset="0.4817" stop-color="#6CC7ED"/>
<stop offset="0.5498" stop-color="#66C5F3"/>
<stop offset="0.61" stop-color="#67C7EE"/>
<stop offset="0.6811" stop-color="#69CBE0"/>
<stop offset="0.7578" stop-color="#6DD3C8"/>
<stop offset="0.8385" stop-color="#73DDA7"/>
<stop offset="0.9213" stop-color="#7AEB7C"/>
<stop offset="1" stop-color="#82FA4D"/>
</linearGradient>
<linearGradient id="paint40_linear_178_515" x1="56.7557" y1="172.057" x2="126.036" y2="59.0318" gradientUnits="userSpaceOnUse">
<stop stop-color="#FBFD54"/>
<stop offset="0.0308" stop-color="#EEF862"/>
<stop offset="0.1588" stop-color="#BEE695"/>
<stop offset="0.279" stop-color="#98D8BE"/>
<stop offset="0.3879" stop-color="#7DCDDB"/>
<stop offset="0.4817" stop-color="#6CC7ED"/>
<stop offset="0.5498" stop-color="#66C5F3"/>
<stop offset="0.61" stop-color="#67C7EE"/>
<stop offset="0.6811" stop-color="#69CBE0"/>
<stop offset="0.7578" stop-color="#6DD3C8"/>
<stop offset="0.8385" stop-color="#73DDA7"/>
<stop offset="0.9213" stop-color="#7AEB7C"/>
<stop offset="1" stop-color="#82FA4D"/>
</linearGradient>
</defs>
</svg>
