<svg width="205" height="205" fill="none" xmlns="http://www.w3.org/2000/svg"><path d="M103.904 103.117c.066.07-.117.428-.296.424-.144-.005-.175-.243-.447-.605-.188-.248-.432-.569-.666-.525-.218.041-.462.41-.316.702.107.216.399.329.534.247.105-.064.086-.223.225-.886.024-.118.046-.207.114-.238.115-.048.335.085.401.262.129.338-.34.739-.251.838.096.104.617-.31.702-.219Z" stroke="url(#a)" stroke-miterlimit="10"/><path d="M104 103.222c.066.085-.174.469-.373.445-.161-.017-.17-.288-.442-.72-.188-.297-.428-.68-.694-.654-.249.026-.556.414-.423.754.1.251.414.408.576.328.122-.061.117-.24.338-.971.039-.131.07-.229.15-.255.133-.044.367.128.423.334.112.39-.453.794-.362.914.096.124.722-.288.807-.175Z" stroke="url(#b)" stroke-miterlimit="10"/><path d="M104.099 103.347c.065.102-.24.506-.46.462-.179-.037-.164-.34-.426-.849-.179-.351-.412-.802-.713-.8-.282.004-.663.408-.548.803.088.292.424.497.611.423.144-.057.155-.258.474-1.054.056-.142.1-.248.191-.27.155-.035.397.181.443.414.085.45-.584.844-.495.986.098.151.838-.251.923-.115Z" stroke="url(#c)" stroke-miterlimit="10"/><path d="M104.197 103.495c.063.12-.318.543-.561.471-.196-.059-.148-.397-.392-.993-.168-.41-.382-.94-.72-.964-.316-.024-.783.393-.692.844.068.334.426.6.644.535.166-.05.198-.273.633-1.132.076-.153.137-.269.242-.284.176-.024.427.24.453.506.051.511-.737.888-.65 1.056.092.179.96-.198 1.043-.039Z" stroke="url(#d)" stroke-miterlimit="10"/><path d="M104.291 103.671c.059.14-.41.578-.674.474-.214-.085-.129-.458-.341-1.15-.146-.475-.336-1.088-.711-1.149-.351-.057-.916.362-.855.879.044.381.417.711.668.661.189-.04.248-.286.818-1.207.1-.163.181-.288.298-.292.199-.011.456.312.459.613.006.576-.914.921-.832 1.119.085.203 1.093-.135 1.17.052Z" stroke="url(#e)" stroke-miterlimit="10"/><path d="M104.379 103.877c.053.163-.514.606-.8.464-.231-.115-.098-.526-.271-1.32-.117-.547-.27-1.252-.682-1.356-.386-.099-1.06.316-1.045.898.011.432.397.838.683.805.216-.026.307-.294 1.034-1.269.128-.173.229-.303.364-.299.224.006.477.393.453.731-.048.645-1.112.94-1.04 1.171.074.238 1.235-.041 1.304.175Z" stroke="url(#f)" stroke-miterlimit="10"/><path d="M104.459 104.116c.041.188-.637.629-.943.441-.248-.153-.059-.598-.172-1.503-.078-.624-.179-1.429-.633-1.586-.423-.148-1.217.251-1.256.906-.028.484.362.977.685.966.244-.007.373-.301 1.283-1.32.161-.181.288-.316.436-.299.251.031.497.487.436.862-.118.718-1.337.945-1.278 1.208.059.275 1.385.077 1.442.325Z" stroke="url(#g)" stroke-miterlimit="10"/><path d="M104.522 104.393c.028.214-.774.642-1.097.402-.262-.194-.007-.676-.046-1.7-.026-.704-.061-1.616-.552-1.836-.46-.207-1.387.161-1.494.89-.081.539.31 1.128.672 1.149.275.016.447-.298 1.564-1.352.198-.188.353-.327.517-.292.277.059.508.593.403 1.007-.203.792-1.588.925-1.548 1.228.039.31 1.544.221 1.581.504Z" stroke="url(#h)" stroke-miterlimit="10"/><path d="M104.568 104.708c.011.242-.929.641-1.267.342-.275-.242.058-.757.115-1.906.039-.792.09-1.815-.438-2.112-.495-.277-1.569.044-1.761.849-.141.595.236 1.293.64 1.352.305.046.53-.292 1.882-1.359.24-.19.425-.332.606-.277.304.092.513.713.354 1.167-.303.868-1.87.881-1.854 1.222.015.355 1.708.401 1.723.722Z" stroke="url(#i)" stroke-miterlimit="10"/><path d="M104.587 105.065c-.011.273-1.102.628-1.453.258-.284-.299.14-.842.316-2.123.122-.883.279-2.022-.283-2.406-.526-.358-1.761-.105-2.055.777-.218.652.137 1.47.582 1.577.338.08.622-.275 2.241-1.337.287-.19.51-.33.706-.251.332.133.504.848.282 1.341-.426.943-2.179.803-2.195 1.187-.017.399 1.874.615 1.859.977Z" stroke="url(#j)" stroke-miterlimit="10"/><path d="M104.574 105.467c-.039.303-1.296.593-1.651.146-.288-.362.238-.93.561-2.345.222-.977.51-2.236-.081-2.72-.554-.452-1.959-.29-2.376.669-.307.709.009 1.66.498 1.822.371.122.722-.247 2.639-1.279.34-.183.602-.318.816-.209.358.181.48.999.183 1.527-.567 1.012-2.517.685-2.574 1.113-.057.447 2.038.874 1.985 1.276Z" stroke="url(#k)" stroke-miterlimit="10"/><path d="M104.519 105.916c-.074.336-1.507.539-1.862.002-.288-.434.357-1.016.857-2.569.344-1.071.789-2.454.174-3.052-.576-.56-2.163-.515-2.724.517-.414.763-.153 1.858.379 2.087.404.175.834-.205 3.08-1.171.4-.172.707-.297.934-.155.382.238.438 1.167.057 1.728-.735 1.077-2.884.521-2.991.992-.107.491 2.197 1.176 2.096 1.621Z" stroke="url(#l)" stroke-miterlimit="10"/><path d="M104.417 106.413c-.116.369-1.741.454-2.085-.179-.28-.512.499-1.101 1.21-2.792.491-1.164 1.126-2.67.495-3.4-.589-.683-2.373-.79-3.099.312-.537.813-.351 2.065.22 2.375.434.233.951-.148 3.562-1.01.465-.153.82-.264 1.06-.083.406.306.378 1.348-.107 1.939-.927 1.135-3.278.301-3.444.821-.17.538 2.341 1.527 2.188 2.017Z" stroke="url(#m)" stroke-miterlimit="10"/><path d="M104.252 106.959c-.166.401-1.994.338-2.317-.406-.262-.602.667-1.185 1.629-3.008.664-1.257 1.521-2.877.888-3.756-.593-.823-2.578-1.117-3.501.045-.68.858-.595 2.278.013 2.679.463.305 1.08-.072 4.086-.781.534-.126.942-.216 1.195.011.423.38.29 1.547-.31 2.162-1.149 1.178-3.699.015-3.935.58-.242.587 2.472 1.941 2.252 2.474Z" stroke="url(#n)" stroke-miterlimit="10"/><path d="M104.014 107.554c-.225.432-2.265.183-2.552-.68-.236-.701.861-1.261 2.118-3.207.866-1.341 1.982-3.071 1.361-4.118-.583-.98-2.777-1.501-3.922-.293-.847.895-.89 2.492-.247 3.002.489.386 1.217.024 4.649-.476.61-.089 1.075-.148 1.337.129.436.467.174 1.758-.559 2.389-1.402 1.206-4.142-.347-4.46.264-.332.634 2.574 2.414 2.275 2.99Z" stroke="url(#o)" stroke-miterlimit="10"/><path d="M103.689 108.196c-.295.462-2.552-.016-2.79-1.01-.194-.808 1.089-1.327 2.685-3.382 1.1-1.415 2.522-3.243 1.926-4.476-.556-1.154-2.96-1.952-4.36-.71-1.036.918-1.241 2.7-.569 3.334.508.48 1.359.147 5.25-.076.692-.039 1.219-.061 1.483.277.443.565.022 1.985-.859 2.62-1.688 1.213-4.603-.792-5.019-.142-.434.672 2.643 2.952 2.253 3.565Z" stroke="url(#p)" stroke-miterlimit="10"/><path d="M103.261 108.885c-.375.489-2.855-.268-3.025-1.405-.138-.92 1.348-1.379 3.337-3.523 1.37-1.477 3.139-3.385 2.594-4.82-.511-1.346-3.124-2.476-4.812-1.224-1.248.925-1.654 2.901-.965 3.675.522.587 1.508.297 5.883.43.779.024 1.37.052 1.634.454.441.676-.17 2.225-1.217 2.846-2.007 1.194-5.076-1.339-5.604-.65-.549.716 2.672 3.567 2.175 4.217Z" stroke="url(#q)" stroke-miterlimit="10"/><path d="M102.716 109.611c-.467.511-3.17-.58-3.248-1.869-.066-1.045 1.644-1.411 4.081-3.617 1.677-1.52 3.846-3.481 3.377-5.143-.439-1.556-3.253-3.076-5.266-1.841-1.488.913-2.136 3.086-1.44 4.02.528.709 1.658.48 6.544 1.056.868.102 1.529.191 1.784.667.428.801-.407 2.474-1.642 3.067-2.365 1.139-5.549-1.996-6.208-1.276-.687.75 2.637 4.258 2.018 4.936Z" stroke="url(#r)" stroke-miterlimit="10"/><path d="M102.036 110.373c-.572.525-3.49-.96-3.453-2.411.03-1.176 1.978-1.418 4.921-3.647 2.026-1.536 4.646-3.521 4.282-5.427-.34-1.785-3.34-3.763-5.715-2.576-1.756.877-2.692 3.246-2.005 4.358.522.844 1.808.7 7.222 1.824.962.2 1.693.364 1.931.922.399.938-.698 2.729-2.138 3.272-2.757 1.043-6.016-2.777-6.825-2.037-.84.772 2.539 5.024 1.78 5.722Z" stroke="url(#s)" stroke-miterlimit="10"/><path d="M101.197 111.158c-.691.532-3.812-1.416-3.63-3.036.15-1.314 2.354-1.394 5.866-3.602 2.419-1.52 5.545-3.486 5.325-5.654-.205-2.03-3.37-4.54-6.145-3.442-2.05.81-3.33 3.368-2.672 4.683.5.997 1.955.96 7.905 2.749 1.058.318 1.859.573 2.07 1.221.356 1.089-1.049 2.987-2.713 3.456-3.189.896-6.464-3.698-7.44-2.95-1.013.779 2.355 5.868 1.434 6.575Z" stroke="url(#t)" stroke-miterlimit="10"/><path d="M100.184 111.954c-.827.528-4.13-1.957-3.765-3.754.294-1.455 2.77-1.328 6.919-3.457 2.857-1.466 6.546-3.358 6.513-5.807-.03-2.293-3.329-5.41-6.539-4.455-2.376.705-4.058 3.445-3.45 4.98.463 1.165 2.095 1.268 8.58 3.851 1.154.46 2.024.824 2.199 1.57.292 1.254-1.468 3.239-3.375 3.602-3.658.691-6.871-4.771-8.038-4.029-1.215.772 2.055 6.799.956 7.499Z" stroke="url(#u)" stroke-miterlimit="10"/><path d="M98.97 112.748c-.976.51-4.43-2.596-3.845-4.57.474-1.601 3.23-1.217 8.082-3.191 3.342-1.361 7.656-3.117 7.859-5.861.19-2.57-3.195-6.38-6.884-5.628-2.727.556-4.88 3.457-4.35 5.237.404 1.348 2.221 1.623 9.225 5.15 1.246.628 2.186 1.121 2.308 1.974.203 1.431-1.959 3.482-4.131 3.7-4.162.417-7.225-6.014-8.603-5.296-1.431.741 1.638 7.807.34 8.485Z" stroke="url(#v)" stroke-miterlimit="10"/><path d="M97.535 113.516c-1.143.475-4.705-3.34-3.858-5.491.687-1.745 3.736-1.044 9.36-2.781 3.874-1.195 8.875-2.74 9.373-5.791.464-2.858-2.952-7.456-7.155-6.974-3.106.358-5.8 3.392-5.38 5.436.319 1.549 2.328 2.033 9.823 6.666 1.333.825 2.336 1.468 2.389 2.434.087 1.623-2.535 3.707-4.987 3.737-4.698.059-7.497-7.438-9.111-6.771-1.677.694 1.067 8.902-.454 9.535Z" stroke="url(#w)" stroke-miterlimit="10"/><path d="M95.853 114.236c-1.326.421-4.938-4.197-3.78-6.525.94-1.887 4.284-.805 10.75-2.196 4.454-.96 10.204-2.197 11.057-5.565.8-3.154-2.574-8.634-7.325-8.505-3.512.096-6.825 3.23-6.555 5.558.205 1.765 2.406 2.504 10.342 8.424 1.411 1.054 2.471 1.874 2.436 2.96-.061 1.826-3.2 3.901-5.946 3.696-5.266-.395-7.663-9.059-9.537-8.47-1.945.608.321 10.064-1.442 10.623Z" stroke="url(#x)" stroke-miterlimit="10"/><path d="M93.901 114.877c-1.527.34-5.117-5.183-3.593-7.674 1.237-2.02 4.876-.48 12.246-1.405 5.078-.637 11.635-1.459 12.922-5.146 1.204-3.45-2.035-9.916-7.366-10.237-3.942-.237-7.955 2.947-7.881 5.578.057 1.996 2.447 3.039 10.749 10.442 1.477 1.318 2.583 2.339 2.437 3.551-.247 2.038-3.963 4.051-7.017 3.554-5.855-.958-7.692-10.892-9.844-10.416-2.236.493-.624 11.299-2.653 11.753Z" stroke="url(#y)" stroke-miterlimit="10"/><path d="M91.652 115.403c-1.74.231-5.22-6.302-3.27-8.942 1.582-2.14 5.504-.061 13.845-.373 5.748-.216 13.166-.495 14.968-4.495 1.686-3.746-1.306-11.3-7.244-12.181-4.389-.652-9.192 2.52-9.366 5.473-.133 2.24 2.44 3.64 11.009 12.741 1.524 1.619 2.663 2.871 2.379 4.212-.475 2.256-4.833 4.147-8.203 3.29-6.46-1.645-7.543-12.944-10-12.624-2.55.336-1.803 12.591-4.118 12.899Z" stroke="url(#z)" stroke-miterlimit="10"/><path d="M89.083 115.771c-1.972.09-5.226-7.564-2.785-10.328 1.978-2.24 6.166.471 15.533.938 6.454.32 14.787.735 17.193-3.567 2.253-4.026-.356-12.776-6.915-14.344-4.849-1.16-10.536 1.92-11.02 5.209-.366 2.493 2.376 4.314 11.077 15.339 1.546 1.961 2.7 3.473 2.251 4.949-.753 2.478-5.815 4.169-9.504 2.88-7.07-2.474-7.174-15.228-9.955-15.108-2.888.124-3.253 13.915-5.875 14.032Z" stroke="url(#A)" stroke-miterlimit="10"/><path d="M86.173 115.933c-2.216-.094-5.109-8.978-2.105-11.832 2.434-2.312 6.856 1.132 17.295 2.57 7.192.99 16.48 2.271 19.595-2.308 2.916-4.286.853-14.334-6.335-16.733-5.313-1.773-11.981 1.117-12.845 4.75-.657 2.756 2.236 5.062 10.895 18.257 1.54 2.347 2.681 4.153 2.036 5.761-1.087 2.7-6.92 4.096-10.92 2.29-7.672-3.46-6.54-17.747-9.663-17.885-3.25-.146-5.008 15.254-7.953 15.13Z" stroke="url(#B)" stroke-miterlimit="10"/><path d="M82.898 115.826c-2.47-.323-4.84-10.551-1.197-13.45 2.951-2.35 7.563 1.937 19.108 4.57 7.953 1.814 18.223 4.155 22.16-.664 3.684-4.513 2.358-15.96-5.453-19.348-5.774-2.504-13.52.076-14.844 4.06-1.003 3.02 2.009 5.885 10.407 21.499 1.494 2.777 2.596 4.91 1.715 6.646-1.482 2.917-8.145 3.907-12.447 1.494-8.247-4.624-5.582-20.504-9.066-20.964-3.623-.478-7.1 16.587-10.383 16.157Z" stroke="url(#C)" stroke-miterlimit="10"/><path d="M79.243 115.39c-2.736-.602-4.385-12.283-.024-15.174 3.533-2.34 8.273 2.91 20.94 6.987 8.725 2.81 19.99 6.437 24.867 1.427 4.566-4.69 4.201-17.636-4.208-22.193-6.216-3.368-15.14-1.24-17.012 3.088-1.42 3.283 1.671 6.784 9.546 25.086 1.4 3.255 2.423 5.75 1.267 7.606-1.941 3.12-9.499 3.578-14.078.454-8.778-5.983-4.24-23.497-8.095-24.355-4.007-.888-9.57 17.874-13.203 17.074Z" stroke="url(#D)" stroke-miterlimit="10"/><path d="M75.194 114.541c-3.001-.942-3.704-14.179 1.46-16.986 4.185-2.275 8.976 4.066 22.753 9.871 9.491 3.998 21.745 9.161 27.696 4.033 5.571-4.803 6.43-19.33-2.537-25.251-6.629-4.38-16.827-2.869-19.346 1.793-1.911 3.536 1.206 7.756 8.226 29.012 1.247 3.78 2.15 6.674.674 8.638-2.481 3.3-10.983 3.073-15.804-.871-9.24-7.558-2.445-26.717-6.675-28.054-4.393-1.387-12.457 19.067-16.447 17.815Z" stroke="url(#E)" stroke-miterlimit="10"/><path d="M70.746 113.195c-3.267-1.348-2.757-16.233 3.296-18.868 4.908-2.136 9.65 5.431 24.503 13.277 10.232 5.406 23.442 12.386 30.606 7.227 6.705-4.829 9.089-21.004-.367-28.514-6.991-5.552-18.554-4.858-21.828.11-2.484 3.77.591 8.8 6.367 33.28 1.028 4.354 1.754 7.68-.091 9.735-3.098 3.451-12.595 2.364-17.603-2.522-9.603-9.364-.12-30.144-4.725-32.055-4.786-1.982-15.815 20.121-20.158 18.33Z" stroke="url(#F)" stroke-miterlimit="10"/><path d="M65.9 111.252c-3.525-1.831-1.497-18.441 5.538-20.8 5.702-1.91 10.27 7.024 26.125 17.261 10.924 7.053 25.026 16.16 33.549 11.086 7.979-4.749 12.23-22.62 2.382-31.952-7.281-6.898-20.293-7.255-24.444-2.014-3.15 3.977-.201 9.908 3.868 37.875.724 4.974 1.21 8.769-1.056 10.889-3.807 3.56-14.33 1.414-19.457-4.546-9.832-11.421 2.818-33.754-2.149-36.343-5.161-2.688-19.671 20.976-24.356 18.544Z" stroke="url(#G)" stroke-miterlimit="10"/><path d="M60.667 108.604c-3.767-2.393.131-20.789 8.235-22.739 6.57-1.581 10.806 8.867 27.552 21.879 11.537 8.963 26.431 20.537 36.467 15.693 9.395-4.535 15.906-24.122 5.796-35.532-7.476-8.436-22.003-10.109-27.164-4.647-3.916 4.143-1.195 11.07.622 42.772.322 5.639.495 9.934-2.249 12.085-4.609 3.612-16.177.179-21.334-6.993-9.885-13.747 6.46-37.507 1.154-40.89-5.514-3.514-24.072 21.552-29.079 18.372Z" stroke="url(#H)" stroke-miterlimit="10"/><path d="M55.065 105.126c-3.983-3.047 2.181-23.255 11.445-24.644 7.508-1.126 11.23 10.985 28.698 27.188 12.034 11.164 27.574 25.576 39.281 21.137 10.961-4.155 20.166-25.443 9.966-39.203-7.541-10.174-23.639-13.47-29.949-7.862-4.788 4.254-2.422 12.275-3.495 47.938-.19 6.341-.419 11.168-3.699 13.306-5.512 3.59-18.125-1.385-23.194-9.919C74.4 116.712 95.02 91.72 89.414 87.412c-5.828-4.474-29.055 21.765-34.349 17.714Z" stroke="url(#I)" stroke-miterlimit="10"/><path d="M49.139 100.687c-4.16-3.802 4.72-25.816 15.223-26.464 8.514-.525 11.493 13.396 29.458 33.244 12.377 13.675 28.36 31.329 41.899 27.507 12.675-3.578 25.063-26.504 14.994-42.905-7.445-12.126-25.139-17.392-32.754-11.731-5.776 4.293-3.911 13.502-8.606 53.314-.835 7.081-1.561 12.46-5.444 14.532-6.522 3.479-20.151-3.324-24.991-13.372C69.64 115.553 95.17 89.6 89.316 84.229c-6.084-5.586-34.65 21.508-40.178 16.458Z" stroke="url(#J)" stroke-miterlimit="10"/><path d="M42.937 95.136c-4.284-4.662 7.81-28.434 19.631-28.13 9.58.246 11.553 16.117 29.719 40.095 12.516 16.517 28.675 37.844 44.204 34.89 14.538-2.764 30.649-27.212 20.984-46.556-7.146-14.301-26.435-21.927-35.514-16.34-6.884 4.238-5.702 14.73-14.853 58.832-1.627 7.844-2.968 13.793-7.516 15.732-7.641 3.257-22.23-5.695-26.665-17.416-8.498-22.465 22.618-49.017 16.594-55.602-6.26-6.839-40.891 20.69-46.584 14.495Z" stroke="url(#K)" stroke-miterlimit="10"/><path d="M36.542 88.315c-4.339-5.639 11.526-31.063 24.73-29.564C71.97 59.964 72.623 77.923 90.61 106.54c12.392 19.715 28.39 45.167 46.063 43.383 16.545-1.671 36.971-27.457 28.047-50.056-6.596-16.707-27.443-27.133-38.151-21.767-8.121 4.07-7.824 15.93-22.387 64.397-2.589 8.621-4.672 15.148-9.955 16.873-8.872 2.897-24.326-8.551-28.14-22.104-7.31-25.977 30.118-52.65 24.017-60.61-6.339-8.272-47.797 19.152-53.562 11.659Z" stroke="url(#L)" stroke-miterlimit="10"/><path d="M30.05 80.054c-4.304-6.736 15.943-33.64 30.573-30.67 11.858 2.406 10.828 22.573 28.16 56.364 11.941 23.279 27.354 53.336 47.311 53.07 18.681-.249 44.071-27.112 36.295-53.281-5.748-19.347-28.06-33.059-40.572-28.1-9.489 3.76-10.318 17.064-31.363 69.89-3.743 9.395-6.714 16.497-12.796 17.911-10.213 2.373-26.39-11.954-29.332-27.498-5.64-29.793 38.867-55.985 32.818-65.49-6.287-9.88-55.375 16.756-61.094 7.804Z" stroke="url(#M)" stroke-miterlimit="10"/><path d="M23.591 70.173C19.433 62.21 44.732 34.08 60.817 38.835c13.038 3.855 9.912 26.327 26.001 65.847 11.086 27.227 25.395 62.379 47.758 64.035 20.936 1.551 51.985-26.032 45.844-56.084-4.539-22.218-28.171-39.751-42.66-35.428-10.989 3.281-13.218 18.09-41.948 75.159-5.109 10.149-9.131 17.808-16.076 18.794-11.664 1.658-28.368-15.965-30.14-33.652-3.396-33.9 48.988-58.857 43.147-70.09-6.07-11.67-63.627 13.336-69.152 2.757Z" stroke="url(#N)" stroke-miterlimit="10"/><path d="M17.33 58.48c-3.873-9.318 27.2-38.328 44.737-31.43 14.216 5.59 8.516 30.438 22.655 76.251 9.742 31.561 22.317 72.309 47.186 76.353 23.281 3.787 60.736-24.047 56.806-58.288-2.906-25.314-27.642-47.252-44.281-43.832-12.621 2.596-16.569 18.954-54.314 80.019-6.712 10.859-11.965 19.039-19.835 19.464-13.219.713-30.19-20.646-30.44-40.619-.48-38.278 60.597-61.082 55.159-74.229-5.652-13.662-72.524 8.693-77.672-3.688Z" stroke="url(#O)" stroke-miterlimit="10"/><defs><linearGradient id="a" x1="288.599" y1="-105.031" x2="288.595" y2="-105.01" gradientUnits="userSpaceOnUse"><stop stop-color="#FBFD54"/><stop offset=".031" stop-color="#EEF862"/><stop offset=".159" stop-color="#BEE695"/><stop offset=".279" stop-color="#98D8BE"/><stop offset=".388" stop-color="#7DCDDB"/><stop offset=".482" stop-color="#6CC7ED"/><stop offset=".55" stop-color="#66C5F3"/><stop offset=".61" stop-color="#67C7EE"/><stop offset=".681" stop-color="#69CBE0"/><stop offset=".758" stop-color="#6DD3C8"/><stop offset=".839" stop-color="#73DDA7"/><stop offset=".921" stop-color="#7AEB7C"/><stop offset="1" stop-color="#82FA4D"/></linearGradient><linearGradient id="b" x1="103.109" y1="102.538" x2="102.709" y2="103.891" gradientUnits="userSpaceOnUse"><stop stop-color="#FBFD54"/><stop offset=".031" stop-color="#EEF862"/><stop offset=".159" stop-color="#BEE695"/><stop offset=".279" stop-color="#98D8BE"/><stop offset=".388" stop-color="#7DCDDB"/><stop offset=".482" stop-color="#6CC7ED"/><stop offset=".55" stop-color="#66C5F3"/><stop offset=".61" stop-color="#67C7EE"/><stop offset=".681" stop-color="#69CBE0"/><stop offset=".758" stop-color="#6DD3C8"/><stop offset=".839" stop-color="#73DDA7"/><stop offset=".921" stop-color="#7AEB7C"/><stop offset="1" stop-color="#82FA4D"/></linearGradient><linearGradient id="c" x1="103.434" y1="102.003" x2="102.854" y2="103.474" gradientUnits="userSpaceOnUse"><stop stop-color="#FBFD54"/><stop offset=".031" stop-color="#EEF862"/><stop offset=".159" stop-color="#BEE695"/><stop offset=".279" stop-color="#98D8BE"/><stop offset=".388" stop-color="#7DCDDB"/><stop offset=".482" stop-color="#6CC7ED"/><stop offset=".55" stop-color="#66C5F3"/><stop offset=".61" stop-color="#67C7EE"/><stop offset=".681" stop-color="#69CBE0"/><stop offset=".758" stop-color="#6DD3C8"/><stop offset=".839" stop-color="#73DDA7"/><stop offset=".921" stop-color="#7AEB7C"/><stop offset="1" stop-color="#82FA4D"/></linearGradient><linearGradient id="d" x1="103.54" y1="102.012" x2="102.747" y2="103.603" gradientUnits="userSpaceOnUse"><stop stop-color="#FBFD54"/><stop offset=".031" stop-color="#EEF862"/><stop offset=".159" stop-color="#BEE695"/><stop offset=".279" stop-color="#98D8BE"/><stop offset=".388" stop-color="#7DCDDB"/><stop offset=".482" stop-color="#6CC7ED"/><stop offset=".55" stop-color="#66C5F3"/><stop offset=".61" stop-color="#67C7EE"/><stop offset=".681" stop-color="#69CBE0"/><stop offset=".758" stop-color="#6DD3C8"/><stop offset=".839" stop-color="#73DDA7"/><stop offset=".921" stop-color="#7AEB7C"/><stop offset="1" stop-color="#82FA4D"/></linearGradient><linearGradient id="e" x1="103.851" y1="101.101" x2="102.807" y2="102.798" gradientUnits="userSpaceOnUse"><stop stop-color="#FBFD54"/><stop offset=".031" stop-color="#EEF862"/><stop offset=".159" stop-color="#BEE695"/><stop offset=".279" stop-color="#98D8BE"/><stop offset=".388" stop-color="#7DCDDB"/><stop offset=".482" stop-color="#6CC7ED"/><stop offset=".55" stop-color="#66C5F3"/><stop offset=".61" stop-color="#67C7EE"/><stop offset=".681" stop-color="#69CBE0"/><stop offset=".758" stop-color="#6DD3C8"/><stop offset=".839" stop-color="#73DDA7"/><stop offset=".921" stop-color="#7AEB7C"/><stop offset="1" stop-color="#82FA4D"/></linearGradient><linearGradient id="f" x1="103.417" y1="101.724" x2="102.078" y2="103.527" gradientUnits="userSpaceOnUse"><stop stop-color="#FBFD54"/><stop offset=".031" stop-color="#EEF862"/><stop offset=".159" stop-color="#BEE695"/><stop offset=".279" stop-color="#98D8BE"/><stop offset=".388" stop-color="#7DCDDB"/><stop offset=".482" stop-color="#6CC7ED"/><stop offset=".55" stop-color="#66C5F3"/><stop offset=".61" stop-color="#67C7EE"/><stop offset=".681" stop-color="#69CBE0"/><stop offset=".758" stop-color="#6DD3C8"/><stop offset=".839" stop-color="#73DDA7"/><stop offset=".921" stop-color="#7AEB7C"/><stop offset="1" stop-color="#82FA4D"/></linearGradient><linearGradient id="g" x1="104.186" y1="101.176" x2="102.515" y2="103.059" gradientUnits="userSpaceOnUse"><stop stop-color="#FBFD54"/><stop offset=".031" stop-color="#EEF862"/><stop offset=".159" stop-color="#BEE695"/><stop offset=".279" stop-color="#98D8BE"/><stop offset=".388" stop-color="#7DCDDB"/><stop offset=".482" stop-color="#6CC7ED"/><stop offset=".55" stop-color="#66C5F3"/><stop offset=".61" stop-color="#67C7EE"/><stop offset=".681" stop-color="#69CBE0"/><stop offset=".758" stop-color="#6DD3C8"/><stop offset=".839" stop-color="#73DDA7"/><stop offset=".921" stop-color="#7AEB7C"/><stop offset="1" stop-color="#82FA4D"/></linearGradient><linearGradient id="h" x1="104.392" y1="101.679" x2="102.337" y2="103.628" gradientUnits="userSpaceOnUse"><stop stop-color="#FBFD54"/><stop offset=".031" stop-color="#EEF862"/><stop offset=".159" stop-color="#BEE695"/><stop offset=".279" stop-color="#98D8BE"/><stop offset=".388" stop-color="#7DCDDB"/><stop offset=".482" stop-color="#6CC7ED"/><stop offset=".55" stop-color="#66C5F3"/><stop offset=".61" stop-color="#67C7EE"/><stop offset=".681" stop-color="#69CBE0"/><stop offset=".758" stop-color="#6DD3C8"/><stop offset=".839" stop-color="#73DDA7"/><stop offset=".921" stop-color="#7AEB7C"/><stop offset="1" stop-color="#82FA4D"/></linearGradient><linearGradient id="i" x1="104.465" y1="101.265" x2="101.973" y2="103.241" gradientUnits="userSpaceOnUse"><stop stop-color="#FBFD54"/><stop offset=".031" stop-color="#EEF862"/><stop offset=".159" stop-color="#BEE695"/><stop offset=".279" stop-color="#98D8BE"/><stop offset=".388" stop-color="#7DCDDB"/><stop offset=".482" stop-color="#6CC7ED"/><stop offset=".55" stop-color="#66C5F3"/><stop offset=".61" stop-color="#67C7EE"/><stop offset=".681" stop-color="#69CBE0"/><stop offset=".758" stop-color="#6DD3C8"/><stop offset=".839" stop-color="#73DDA7"/><stop offset=".921" stop-color="#7AEB7C"/><stop offset="1" stop-color="#82FA4D"/></linearGradient><linearGradient id="j" x1="104.965" y1="101.928" x2="101.982" y2="103.904" gradientUnits="userSpaceOnUse"><stop stop-color="#FBFD54"/><stop offset=".031" stop-color="#EEF862"/><stop offset=".159" stop-color="#BEE695"/><stop offset=".279" stop-color="#98D8BE"/><stop offset=".388" stop-color="#7DCDDB"/><stop offset=".482" stop-color="#6CC7ED"/><stop offset=".55" stop-color="#66C5F3"/><stop offset=".61" stop-color="#67C7EE"/><stop offset=".681" stop-color="#69CBE0"/><stop offset=".758" stop-color="#6DD3C8"/><stop offset=".839" stop-color="#73DDA7"/><stop offset=".921" stop-color="#7AEB7C"/><stop offset="1" stop-color="#82FA4D"/></linearGradient><linearGradient id="k" x1="105.785" y1="102.071" x2="102.258" y2="103.994" gradientUnits="userSpaceOnUse"><stop stop-color="#FBFD54"/><stop offset=".031" stop-color="#EEF862"/><stop offset=".159" stop-color="#BEE695"/><stop offset=".279" stop-color="#98D8BE"/><stop offset=".388" stop-color="#7DCDDB"/><stop offset=".482" stop-color="#6CC7ED"/><stop offset=".55" stop-color="#66C5F3"/><stop offset=".61" stop-color="#67C7EE"/><stop offset=".681" stop-color="#69CBE0"/><stop offset=".758" stop-color="#6DD3C8"/><stop offset=".839" stop-color="#73DDA7"/><stop offset=".921" stop-color="#7AEB7C"/><stop offset="1" stop-color="#82FA4D"/></linearGradient><linearGradient id="l" x1="106.029" y1="101.987" x2="101.893" y2="103.79" gradientUnits="userSpaceOnUse"><stop stop-color="#FBFD54"/><stop offset=".031" stop-color="#EEF862"/><stop offset=".159" stop-color="#BEE695"/><stop offset=".279" stop-color="#98D8BE"/><stop offset=".388" stop-color="#7DCDDB"/><stop offset=".482" stop-color="#6CC7ED"/><stop offset=".55" stop-color="#66C5F3"/><stop offset=".61" stop-color="#67C7EE"/><stop offset=".681" stop-color="#69CBE0"/><stop offset=".758" stop-color="#6DD3C8"/><stop offset=".839" stop-color="#73DDA7"/><stop offset=".921" stop-color="#7AEB7C"/><stop offset="1" stop-color="#82FA4D"/></linearGradient><linearGradient id="m" x1="105.894" y1="101.839" x2="101.082" y2="103.443" gradientUnits="userSpaceOnUse"><stop stop-color="#FBFD54"/><stop offset=".031" stop-color="#EEF862"/><stop offset=".159" stop-color="#BEE695"/><stop offset=".279" stop-color="#98D8BE"/><stop offset=".388" stop-color="#7DCDDB"/><stop offset=".482" stop-color="#6CC7ED"/><stop offset=".55" stop-color="#66C5F3"/><stop offset=".61" stop-color="#67C7EE"/><stop offset=".681" stop-color="#69CBE0"/><stop offset=".758" stop-color="#6DD3C8"/><stop offset=".839" stop-color="#73DDA7"/><stop offset=".921" stop-color="#7AEB7C"/><stop offset="1" stop-color="#82FA4D"/></linearGradient><linearGradient id="n" x1="106.481" y1="102.032" x2="100.94" y2="103.357" gradientUnits="userSpaceOnUse"><stop stop-color="#FBFD54"/><stop offset=".031" stop-color="#EEF862"/><stop offset=".159" stop-color="#BEE695"/><stop offset=".279" stop-color="#98D8BE"/><stop offset=".388" stop-color="#7DCDDB"/><stop offset=".482" stop-color="#6CC7ED"/><stop offset=".55" stop-color="#66C5F3"/><stop offset=".61" stop-color="#67C7EE"/><stop offset=".681" stop-color="#69CBE0"/><stop offset=".758" stop-color="#6DD3C8"/><stop offset=".839" stop-color="#73DDA7"/><stop offset=".921" stop-color="#7AEB7C"/><stop offset="1" stop-color="#82FA4D"/></linearGradient><linearGradient id="o" x1="106.951" y1="102.599" x2="100.615" y2="103.545" gradientUnits="userSpaceOnUse"><stop stop-color="#FBFD54"/><stop offset=".031" stop-color="#EEF862"/><stop offset=".159" stop-color="#BEE695"/><stop offset=".279" stop-color="#98D8BE"/><stop offset=".388" stop-color="#7DCDDB"/><stop offset=".482" stop-color="#6CC7ED"/><stop offset=".55" stop-color="#66C5F3"/><stop offset=".61" stop-color="#67C7EE"/><stop offset=".681" stop-color="#69CBE0"/><stop offset=".758" stop-color="#6DD3C8"/><stop offset=".839" stop-color="#73DDA7"/><stop offset=".921" stop-color="#7AEB7C"/><stop offset="1" stop-color="#82FA4D"/></linearGradient><linearGradient id="p" x1="107.483" y1="102.932" x2="100.298" y2="103.371" gradientUnits="userSpaceOnUse"><stop stop-color="#FBFD54"/><stop offset=".031" stop-color="#EEF862"/><stop offset=".159" stop-color="#BEE695"/><stop offset=".279" stop-color="#98D8BE"/><stop offset=".388" stop-color="#7DCDDB"/><stop offset=".482" stop-color="#6CC7ED"/><stop offset=".55" stop-color="#66C5F3"/><stop offset=".61" stop-color="#67C7EE"/><stop offset=".681" stop-color="#69CBE0"/><stop offset=".758" stop-color="#6DD3C8"/><stop offset=".839" stop-color="#73DDA7"/><stop offset=".921" stop-color="#7AEB7C"/><stop offset="1" stop-color="#82FA4D"/></linearGradient><linearGradient id="q" x1="108.003" y1="103.397" x2="99.916" y2="103.184" gradientUnits="userSpaceOnUse"><stop stop-color="#FBFD54"/><stop offset=".031" stop-color="#EEF862"/><stop offset=".159" stop-color="#BEE695"/><stop offset=".279" stop-color="#98D8BE"/><stop offset=".388" stop-color="#7DCDDB"/><stop offset=".482" stop-color="#6CC7ED"/><stop offset=".55" stop-color="#66C5F3"/><stop offset=".61" stop-color="#67C7EE"/><stop offset=".681" stop-color="#69CBE0"/><stop offset=".758" stop-color="#6DD3C8"/><stop offset=".839" stop-color="#73DDA7"/><stop offset=".921" stop-color="#7AEB7C"/><stop offset="1" stop-color="#82FA4D"/></linearGradient><linearGradient id="r" x1="108.637" y1="103.863" x2="99.61" y2="102.833" gradientUnits="userSpaceOnUse"><stop stop-color="#FBFD54"/><stop offset=".031" stop-color="#EEF862"/><stop offset=".159" stop-color="#BEE695"/><stop offset=".279" stop-color="#98D8BE"/><stop offset=".388" stop-color="#7DCDDB"/><stop offset=".482" stop-color="#6CC7ED"/><stop offset=".55" stop-color="#66C5F3"/><stop offset=".61" stop-color="#67C7EE"/><stop offset=".681" stop-color="#69CBE0"/><stop offset=".758" stop-color="#6DD3C8"/><stop offset=".839" stop-color="#73DDA7"/><stop offset=".921" stop-color="#7AEB7C"/><stop offset="1" stop-color="#82FA4D"/></linearGradient><linearGradient id="s" x1="109.023" y1="104.545" x2="99.014" y2="102.503" gradientUnits="userSpaceOnUse"><stop stop-color="#FBFD54"/><stop offset=".031" stop-color="#EEF862"/><stop offset=".159" stop-color="#BEE695"/><stop offset=".279" stop-color="#98D8BE"/><stop offset=".388" stop-color="#7DCDDB"/><stop offset=".482" stop-color="#6CC7ED"/><stop offset=".55" stop-color="#66C5F3"/><stop offset=".61" stop-color="#67C7EE"/><stop offset=".681" stop-color="#69CBE0"/><stop offset=".758" stop-color="#6DD3C8"/><stop offset=".839" stop-color="#73DDA7"/><stop offset=".921" stop-color="#7AEB7C"/><stop offset="1" stop-color="#82FA4D"/></linearGradient><linearGradient id="t" x1="109.708" y1="105.387" x2="98.705" y2="102.125" gradientUnits="userSpaceOnUse"><stop stop-color="#FBFD54"/><stop offset=".031" stop-color="#EEF862"/><stop offset=".159" stop-color="#BEE695"/><stop offset=".279" stop-color="#98D8BE"/><stop offset=".388" stop-color="#7DCDDB"/><stop offset=".482" stop-color="#6CC7ED"/><stop offset=".55" stop-color="#66C5F3"/><stop offset=".61" stop-color="#67C7EE"/><stop offset=".681" stop-color="#69CBE0"/><stop offset=".758" stop-color="#6DD3C8"/><stop offset=".839" stop-color="#73DDA7"/><stop offset=".921" stop-color="#7AEB7C"/><stop offset="1" stop-color="#82FA4D"/></linearGradient><linearGradient id="u" x1="110.461" y1="106.432" x2="98.464" y2="101.713" gradientUnits="userSpaceOnUse"><stop stop-color="#FBFD54"/><stop offset=".031" stop-color="#EEF862"/><stop offset=".159" stop-color="#BEE695"/><stop offset=".279" stop-color="#98D8BE"/><stop offset=".388" stop-color="#7DCDDB"/><stop offset=".482" stop-color="#6CC7ED"/><stop offset=".55" stop-color="#66C5F3"/><stop offset=".61" stop-color="#67C7EE"/><stop offset=".681" stop-color="#69CBE0"/><stop offset=".758" stop-color="#6DD3C8"/><stop offset=".839" stop-color="#73DDA7"/><stop offset=".921" stop-color="#7AEB7C"/><stop offset="1" stop-color="#82FA4D"/></linearGradient><linearGradient id="v" x1="110.804" y1="107.419" x2="97.839" y2="100.95" gradientUnits="userSpaceOnUse"><stop stop-color="#FBFD54"/><stop offset=".031" stop-color="#EEF862"/><stop offset=".159" stop-color="#BEE695"/><stop offset=".279" stop-color="#98D8BE"/><stop offset=".388" stop-color="#7DCDDB"/><stop offset=".482" stop-color="#6CC7ED"/><stop offset=".55" stop-color="#66C5F3"/><stop offset=".61" stop-color="#67C7EE"/><stop offset=".681" stop-color="#69CBE0"/><stop offset=".758" stop-color="#6DD3C8"/><stop offset=".839" stop-color="#73DDA7"/><stop offset=".921" stop-color="#7AEB7C"/><stop offset="1" stop-color="#82FA4D"/></linearGradient><linearGradient id="w" x1="111.55" y1="108.819" x2="97.671" y2="100.322" gradientUnits="userSpaceOnUse"><stop stop-color="#FBFD54"/><stop offset=".031" stop-color="#EEF862"/><stop offset=".159" stop-color="#BEE695"/><stop offset=".279" stop-color="#98D8BE"/><stop offset=".388" stop-color="#7DCDDB"/><stop offset=".482" stop-color="#6CC7ED"/><stop offset=".55" stop-color="#66C5F3"/><stop offset=".61" stop-color="#67C7EE"/><stop offset=".681" stop-color="#69CBE0"/><stop offset=".758" stop-color="#6DD3C8"/><stop offset=".839" stop-color="#73DDA7"/><stop offset=".921" stop-color="#7AEB7C"/><stop offset="1" stop-color="#82FA4D"/></linearGradient><linearGradient id="x" x1="112.014" y1="110.296" x2="97.313" y2="99.426" gradientUnits="userSpaceOnUse"><stop stop-color="#FBFD54"/><stop offset=".031" stop-color="#EEF862"/><stop offset=".159" stop-color="#BEE695"/><stop offset=".279" stop-color="#98D8BE"/><stop offset=".388" stop-color="#7DCDDB"/><stop offset=".482" stop-color="#6CC7ED"/><stop offset=".55" stop-color="#66C5F3"/><stop offset=".61" stop-color="#67C7EE"/><stop offset=".681" stop-color="#69CBE0"/><stop offset=".758" stop-color="#6DD3C8"/><stop offset=".839" stop-color="#73DDA7"/><stop offset=".921" stop-color="#7AEB7C"/><stop offset="1" stop-color="#82FA4D"/></linearGradient><linearGradient id="y" x1="112.268" y1="112.003" x2="96.877" y2="98.388" gradientUnits="userSpaceOnUse"><stop stop-color="#FBFD54"/><stop offset=".031" stop-color="#EEF862"/><stop offset=".159" stop-color="#BEE695"/><stop offset=".279" stop-color="#98D8BE"/><stop offset=".388" stop-color="#7DCDDB"/><stop offset=".482" stop-color="#6CC7ED"/><stop offset=".55" stop-color="#66C5F3"/><stop offset=".61" stop-color="#67C7EE"/><stop offset=".681" stop-color="#69CBE0"/><stop offset=".758" stop-color="#6DD3C8"/><stop offset=".839" stop-color="#73DDA7"/><stop offset=".921" stop-color="#7AEB7C"/><stop offset="1" stop-color="#82FA4D"/></linearGradient><linearGradient id="z" x1="112.567" y1="113.818" x2="96.686" y2="97.075" gradientUnits="userSpaceOnUse"><stop stop-color="#FBFD54"/><stop offset=".031" stop-color="#EEF862"/><stop offset=".159" stop-color="#BEE695"/><stop offset=".279" stop-color="#98D8BE"/><stop offset=".388" stop-color="#7DCDDB"/><stop offset=".482" stop-color="#6CC7ED"/><stop offset=".55" stop-color="#66C5F3"/><stop offset=".61" stop-color="#67C7EE"/><stop offset=".681" stop-color="#69CBE0"/><stop offset=".758" stop-color="#6DD3C8"/><stop offset=".839" stop-color="#73DDA7"/><stop offset=".921" stop-color="#7AEB7C"/><stop offset="1" stop-color="#82FA4D"/></linearGradient><linearGradient id="A" x1="112.632" y1="116.165" x2="96.486" y2="95.869" gradientUnits="userSpaceOnUse"><stop stop-color="#FBFD54"/><stop offset=".031" stop-color="#EEF862"/><stop offset=".159" stop-color="#BEE695"/><stop offset=".279" stop-color="#98D8BE"/><stop offset=".388" stop-color="#7DCDDB"/><stop offset=".482" stop-color="#6CC7ED"/><stop offset=".55" stop-color="#66C5F3"/><stop offset=".61" stop-color="#67C7EE"/><stop offset=".681" stop-color="#69CBE0"/><stop offset=".758" stop-color="#6DD3C8"/><stop offset=".839" stop-color="#73DDA7"/><stop offset=".921" stop-color="#7AEB7C"/><stop offset="1" stop-color="#82FA4D"/></linearGradient><linearGradient id="B" x1="112.487" y1="118.617" x2="96.406" y2="94.318" gradientUnits="userSpaceOnUse"><stop stop-color="#FBFD54"/><stop offset=".031" stop-color="#EEF862"/><stop offset=".159" stop-color="#BEE695"/><stop offset=".279" stop-color="#98D8BE"/><stop offset=".388" stop-color="#7DCDDB"/><stop offset=".482" stop-color="#6CC7ED"/><stop offset=".55" stop-color="#66C5F3"/><stop offset=".61" stop-color="#67C7EE"/><stop offset=".681" stop-color="#69CBE0"/><stop offset=".758" stop-color="#6DD3C8"/><stop offset=".839" stop-color="#73DDA7"/><stop offset=".921" stop-color="#7AEB7C"/><stop offset="1" stop-color="#82FA4D"/></linearGradient><linearGradient id="C" x1="112.027" y1="121.382" x2="96.41" y2="92.602" gradientUnits="userSpaceOnUse"><stop stop-color="#FBFD54"/><stop offset=".031" stop-color="#EEF862"/><stop offset=".159" stop-color="#BEE695"/><stop offset=".279" stop-color="#98D8BE"/><stop offset=".388" stop-color="#7DCDDB"/><stop offset=".482" stop-color="#6CC7ED"/><stop offset=".55" stop-color="#66C5F3"/><stop offset=".61" stop-color="#67C7EE"/><stop offset=".681" stop-color="#69CBE0"/><stop offset=".758" stop-color="#6DD3C8"/><stop offset=".839" stop-color="#73DDA7"/><stop offset=".921" stop-color="#7AEB7C"/><stop offset="1" stop-color="#82FA4D"/></linearGradient><linearGradient id="D" x1="111.348" y1="124.469" x2="96.686" y2="90.731" gradientUnits="userSpaceOnUse"><stop stop-color="#FBFD54"/><stop offset=".031" stop-color="#EEF862"/><stop offset=".159" stop-color="#BEE695"/><stop offset=".279" stop-color="#98D8BE"/><stop offset=".388" stop-color="#7DCDDB"/><stop offset=".482" stop-color="#6CC7ED"/><stop offset=".55" stop-color="#66C5F3"/><stop offset=".61" stop-color="#67C7EE"/><stop offset=".681" stop-color="#69CBE0"/><stop offset=".758" stop-color="#6DD3C8"/><stop offset=".839" stop-color="#73DDA7"/><stop offset=".921" stop-color="#7AEB7C"/><stop offset="1" stop-color="#82FA4D"/></linearGradient><linearGradient id="E" x1="110.238" y1="127.877" x2="97.127" y2="88.677" gradientUnits="userSpaceOnUse"><stop stop-color="#FBFD54"/><stop offset=".031" stop-color="#EEF862"/><stop offset=".159" stop-color="#BEE695"/><stop offset=".279" stop-color="#98D8BE"/><stop offset=".388" stop-color="#7DCDDB"/><stop offset=".482" stop-color="#6CC7ED"/><stop offset=".55" stop-color="#66C5F3"/><stop offset=".61" stop-color="#67C7EE"/><stop offset=".681" stop-color="#69CBE0"/><stop offset=".758" stop-color="#6DD3C8"/><stop offset=".839" stop-color="#73DDA7"/><stop offset=".921" stop-color="#7AEB7C"/><stop offset="1" stop-color="#82FA4D"/></linearGradient><linearGradient id="F" x1="108.643" y1="131.601" x2="97.799" y2="86.436" gradientUnits="userSpaceOnUse"><stop stop-color="#FBFD54"/><stop offset=".031" stop-color="#EEF862"/><stop offset=".159" stop-color="#BEE695"/><stop offset=".279" stop-color="#98D8BE"/><stop offset=".388" stop-color="#7DCDDB"/><stop offset=".482" stop-color="#6CC7ED"/><stop offset=".55" stop-color="#66C5F3"/><stop offset=".61" stop-color="#67C7EE"/><stop offset=".681" stop-color="#69CBE0"/><stop offset=".758" stop-color="#6DD3C8"/><stop offset=".839" stop-color="#73DDA7"/><stop offset=".921" stop-color="#7AEB7C"/><stop offset="1" stop-color="#82FA4D"/></linearGradient><linearGradient id="G" x1="106.553" y1="135.493" x2="98.851" y2="83.885" gradientUnits="userSpaceOnUse"><stop stop-color="#FBFD54"/><stop offset=".031" stop-color="#EEF862"/><stop offset=".159" stop-color="#BEE695"/><stop offset=".279" stop-color="#98D8BE"/><stop offset=".388" stop-color="#7DCDDB"/><stop offset=".482" stop-color="#6CC7ED"/><stop offset=".55" stop-color="#66C5F3"/><stop offset=".61" stop-color="#67C7EE"/><stop offset=".681" stop-color="#69CBE0"/><stop offset=".758" stop-color="#6DD3C8"/><stop offset=".839" stop-color="#73DDA7"/><stop offset=".921" stop-color="#7AEB7C"/><stop offset="1" stop-color="#82FA4D"/></linearGradient><linearGradient id="H" x1="103.763" y1="139.778" x2="100.184" y2="81.25" gradientUnits="userSpaceOnUse"><stop stop-color="#FBFD54"/><stop offset=".031" stop-color="#EEF862"/><stop offset=".159" stop-color="#BEE695"/><stop offset=".279" stop-color="#98D8BE"/><stop offset=".388" stop-color="#7DCDDB"/><stop offset=".482" stop-color="#6CC7ED"/><stop offset=".55" stop-color="#66C5F3"/><stop offset=".61" stop-color="#67C7EE"/><stop offset=".681" stop-color="#69CBE0"/><stop offset=".758" stop-color="#6DD3C8"/><stop offset=".839" stop-color="#73DDA7"/><stop offset=".921" stop-color="#7AEB7C"/><stop offset="1" stop-color="#82FA4D"/></linearGradient><linearGradient id="I" x1="100.26" y1="144.195" x2="101.997" y2="78.335" gradientUnits="userSpaceOnUse"><stop stop-color="#FBFD54"/><stop offset=".031" stop-color="#EEF862"/><stop offset=".159" stop-color="#BEE695"/><stop offset=".279" stop-color="#98D8BE"/><stop offset=".388" stop-color="#7DCDDB"/><stop offset=".482" stop-color="#6CC7ED"/><stop offset=".55" stop-color="#66C5F3"/><stop offset=".61" stop-color="#67C7EE"/><stop offset=".681" stop-color="#69CBE0"/><stop offset=".758" stop-color="#6DD3C8"/><stop offset=".839" stop-color="#73DDA7"/><stop offset=".921" stop-color="#7AEB7C"/><stop offset="1" stop-color="#82FA4D"/></linearGradient><linearGradient id="J" x1="95.897" y1="148.851" x2="104.289" y2="75.303" gradientUnits="userSpaceOnUse"><stop stop-color="#FBFD54"/><stop offset=".031" stop-color="#EEF862"/><stop offset=".159" stop-color="#BEE695"/><stop offset=".279" stop-color="#98D8BE"/><stop offset=".388" stop-color="#7DCDDB"/><stop offset=".482" stop-color="#6CC7ED"/><stop offset=".55" stop-color="#66C5F3"/><stop offset=".61" stop-color="#67C7EE"/><stop offset=".681" stop-color="#69CBE0"/><stop offset=".758" stop-color="#6DD3C8"/><stop offset=".839" stop-color="#73DDA7"/><stop offset=".921" stop-color="#7AEB7C"/><stop offset="1" stop-color="#82FA4D"/></linearGradient><linearGradient id="K" x1="90.559" y1="153.658" x2="107.144" y2="72.156" gradientUnits="userSpaceOnUse"><stop stop-color="#FBFD54"/><stop offset=".031" stop-color="#EEF862"/><stop offset=".159" stop-color="#BEE695"/><stop offset=".279" stop-color="#98D8BE"/><stop offset=".388" stop-color="#7DCDDB"/><stop offset=".482" stop-color="#6CC7ED"/><stop offset=".55" stop-color="#66C5F3"/><stop offset=".61" stop-color="#67C7EE"/><stop offset=".681" stop-color="#69CBE0"/><stop offset=".758" stop-color="#6DD3C8"/><stop offset=".839" stop-color="#73DDA7"/><stop offset=".921" stop-color="#7AEB7C"/><stop offset="1" stop-color="#82FA4D"/></linearGradient><linearGradient id="L" x1="84.117" y1="158.462" x2="110.67" y2="68.86" gradientUnits="userSpaceOnUse"><stop stop-color="#FBFD54"/><stop offset=".031" stop-color="#EEF862"/><stop offset=".159" stop-color="#BEE695"/><stop offset=".279" stop-color="#98D8BE"/><stop offset=".388" stop-color="#7DCDDB"/><stop offset=".482" stop-color="#6CC7ED"/><stop offset=".55" stop-color="#66C5F3"/><stop offset=".61" stop-color="#67C7EE"/><stop offset=".681" stop-color="#69CBE0"/><stop offset=".758" stop-color="#6DD3C8"/><stop offset=".839" stop-color="#73DDA7"/><stop offset=".921" stop-color="#7AEB7C"/><stop offset="1" stop-color="#82FA4D"/></linearGradient><linearGradient id="M" x1="76.416" y1="163.226" x2="114.914" y2="65.524" gradientUnits="userSpaceOnUse"><stop stop-color="#FBFD54"/><stop offset=".031" stop-color="#EEF862"/><stop offset=".159" stop-color="#BEE695"/><stop offset=".279" stop-color="#98D8BE"/><stop offset=".388" stop-color="#7DCDDB"/><stop offset=".482" stop-color="#6CC7ED"/><stop offset=".55" stop-color="#66C5F3"/><stop offset=".61" stop-color="#67C7EE"/><stop offset=".681" stop-color="#69CBE0"/><stop offset=".758" stop-color="#6DD3C8"/><stop offset=".839" stop-color="#73DDA7"/><stop offset=".921" stop-color="#7AEB7C"/><stop offset="1" stop-color="#82FA4D"/></linearGradient><linearGradient id="N" x1="67.347" y1="167.813" x2="120.003" y2="62.224" gradientUnits="userSpaceOnUse"><stop stop-color="#FBFD54"/><stop offset=".031" stop-color="#EEF862"/><stop offset=".159" stop-color="#BEE695"/><stop offset=".279" stop-color="#98D8BE"/><stop offset=".388" stop-color="#7DCDDB"/><stop offset=".482" stop-color="#6CC7ED"/><stop offset=".55" stop-color="#66C5F3"/><stop offset=".61" stop-color="#67C7EE"/><stop offset=".681" stop-color="#69CBE0"/><stop offset=".758" stop-color="#6DD3C8"/><stop offset=".839" stop-color="#73DDA7"/><stop offset=".921" stop-color="#7AEB7C"/><stop offset="1" stop-color="#82FA4D"/></linearGradient><linearGradient id="O" x1="56.756" y1="172.057" x2="126.036" y2="59.032" gradientUnits="userSpaceOnUse"><stop stop-color="#FBFD54"/><stop offset=".031" stop-color="#EEF862"/><stop offset=".159" stop-color="#BEE695"/><stop offset=".279" stop-color="#98D8BE"/><stop offset=".388" stop-color="#7DCDDB"/><stop offset=".482" stop-color="#6CC7ED"/><stop offset=".55" stop-color="#66C5F3"/><stop offset=".61" stop-color="#67C7EE"/><stop offset=".681" stop-color="#69CBE0"/><stop offset=".758" stop-color="#6DD3C8"/><stop offset=".839" stop-color="#73DDA7"/><stop offset=".921" stop-color="#7AEB7C"/><stop offset="1" stop-color="#82FA4D"/></linearGradient></defs></svg>