<svg width="335" height="63" fill="none" xmlns="http://www.w3.org/2000/svg"><rect x="296.259" y="4.85" width="53.3" height="52.892" rx="19.15" transform="rotate(90 296.259 4.85)" fill="#fff" stroke="#DCDCDC" stroke-width="2"/><g filter="url(#a)"><rect x="289.665" y="10.666" width="41.667" height="41.358" rx="20" transform="rotate(90 289.665 10.666)" fill="url(#b)"/></g><rect x="228.02" y="4.85" width="53.3" height="52.892" rx="19.15" transform="rotate(90 228.02 4.85)" fill="#fff" stroke="#DCDCDC" stroke-width="2"/><g filter="url(#c)"><rect x="221.426" y="10.666" width="41.667" height="41.358" rx="20" transform="rotate(90 221.426 10.666)" fill="url(#d)"/></g><rect x="91.539" y="4.85" width="53.3" height="52.892" rx="19.15" transform="rotate(90 91.539 4.85)" fill="#fff" stroke="#DCDCDC" stroke-width="2"/><g filter="url(#e)"><rect x="84.944" y="10.666" width="41.667" height="41.358" rx="20" transform="rotate(90 84.944 10.666)" fill="url(#f)"/></g><rect x="159.779" y="4.85" width="53.3" height="52.892" rx="19.15" transform="rotate(90 159.779 4.85)" fill="#fff" stroke="#DCDCDC" stroke-width="2"/><g filter="url(#g)"><rect x="153.185" y="10.666" width="41.667" height="41.358" rx="20" transform="rotate(90 153.185 10.666)" fill="url(#h)"/></g><defs><linearGradient id="b" x1="310.498" y1="10.666" x2="310.498" y2="52.024" gradientUnits="userSpaceOnUse"><stop stop-color="#FAFF00"/><stop offset=".875" stop-color="#31C5FF"/></linearGradient><linearGradient id="d" x1="242.259" y1="10.666" x2="242.259" y2="52.024" gradientUnits="userSpaceOnUse"><stop stop-color="#FAFF00"/><stop offset=".875" stop-color="#31C5FF"/></linearGradient><linearGradient id="f" x1="105.778" y1="10.666" x2="105.778" y2="52.024" gradientUnits="userSpaceOnUse"><stop stop-color="#FAFF00"/><stop offset=".875" stop-color="#31C5FF"/></linearGradient><linearGradient id="h" x1="174.018" y1="10.666" x2="174.018" y2="52.024" gradientUnits="userSpaceOnUse"><stop stop-color="#FAFF00"/><stop offset=".875" stop-color="#31C5FF"/></linearGradient><filter id="a" x="238.308" y=".667" width="61.357" height="61.667" filterUnits="userSpaceOnUse" color-interpolation-filters="sRGB"><feFlood flood-opacity="0" result="BackgroundImageFix"/><feBlend in="SourceGraphic" in2="BackgroundImageFix" result="shape"/><feGaussianBlur stdDeviation="5" result="effect1_foregroundBlur_246_3483"/></filter><filter id="c" x="170.068" y=".667" width="61.357" height="61.667" filterUnits="userSpaceOnUse" color-interpolation-filters="sRGB"><feFlood flood-opacity="0" result="BackgroundImageFix"/><feBlend in="SourceGraphic" in2="BackgroundImageFix" result="shape"/><feGaussianBlur stdDeviation="5" result="effect1_foregroundBlur_246_3483"/></filter><filter id="e" x="33.587" y=".667" width="61.357" height="61.667" filterUnits="userSpaceOnUse" color-interpolation-filters="sRGB"><feFlood flood-opacity="0" result="BackgroundImageFix"/><feBlend in="SourceGraphic" in2="BackgroundImageFix" result="shape"/><feGaussianBlur stdDeviation="5" result="effect1_foregroundBlur_246_3483"/></filter><filter id="g" x="101.827" y=".667" width="61.357" height="61.667" filterUnits="userSpaceOnUse" color-interpolation-filters="sRGB"><feFlood flood-opacity="0" result="BackgroundImageFix"/><feBlend in="SourceGraphic" in2="BackgroundImageFix" result="shape"/><feGaussianBlur stdDeviation="5" result="effect1_foregroundBlur_246_3483"/></filter></defs></svg>