<svg width="32" height="32" fill="none" xmlns="http://www.w3.org/2000/svg"><g clip-path="url(#a)"><path fill-rule="evenodd" clip-rule="evenodd" d="M16 .5C7.16.5 0 7.613 0 16.395c0 7.026 4.587 12.978 10.942 15.085.795.147 1.09-.341 1.09-.77 0-.38-.01-1.376-.02-2.703-4.45.956-5.392-2.127-5.392-2.127-.727-1.835-1.778-2.332-1.778-2.332-1.453-.986.108-.966.108-.966 1.601.117 2.456 1.639 2.456 1.639 1.424 2.43 3.742 1.727 4.655 1.317.148-1.024.56-1.727 1.012-2.127-3.546-.39-7.278-1.757-7.278-7.845 0-1.737.619-3.152 1.65-4.264-.167-.41-.717-2.02.147-4.206 0 0 1.346-.43 4.4 1.63A15.624 15.624 0 0 1 16 8.189c1.355.01 2.73.185 4.007.537 3.055-2.06 4.4-1.63 4.4-1.63.875 2.186.325 3.806.158 4.206 1.021 1.112 1.64 2.527 1.64 4.264 0 6.108-3.742 7.445-7.307 7.845.57.488 1.09 1.464 1.09 2.947 0 2.127-.02 3.834-.02 4.361 0 .43.285.918 1.1.761C27.423 29.373 32 23.42 32 16.405 32 7.613 24.84.5 16 .5Z" fill="#111212"/></g><defs><clipPath id="a"><path fill="#fff" transform="translate(0 .5)" d="M0 0h32v31H0z"/></clipPath></defs></svg>