<svg width="231" height="37" fill="none" xmlns="http://www.w3.org/2000/svg"><path fill-rule="evenodd" clip-rule="evenodd" d="M227.194 13.547c.081-11.472.091-12.812.707-13.208.082-.052.174-.088.278-.13a1.94 1.94 0 0 0 .102-.04c.587-.24 1.019-.226 1.62.05l.104.046c.106.047.201.09.286.146.71.477.71 2.011.709 16.408V35.45l-.683.688c-.819.825-1.568.894-2.535.233-.453-.31-3.667-4.922-10.023-14.382l-9.357-13.927-.1 13.724-.002.164c-.093 12.726-.102 14.038-.739 14.516a1.891 1.891 0 0 1-.245.148l-.01.005c-.494.267-1.533.266-2.028-.001l-.06-.032a1.987 1.987 0 0 1-.247-.146c-.687-.506-.687-1.946-.687-16.773V18.38c0-15.806 0-17.3.714-17.827.075-.055.157-.1.248-.148l.012-.007c.651-.35 1.93-.262 2.477.172.271.214 4.735 6.704 9.92 14.42l9.428 14.03.1-13.984.011-1.49ZM75.991.919c.2-.308.561-.64.803-.738.62-.251 1.043-.242 1.651.038l.093.041c.113.05.213.096.302.157.705.484.705 1.995.704 15.463v17.1l7.985.008c4.392.005 8.378.086 8.86.18 1.135.22 1.668.766 1.695 1.735.017.594-.1.865-.533 1.24l-.554.481-9.982-.003c-7.636-.002-10.1-.063-10.484-.259-1.018-.518-1.02-.556-.96-18.357.053-15.548.078-16.561.42-17.086ZM.007 16.943C.013 2.376.013.969.692.453.764.396.844.351.933.302l.093-.054C1.713-.149 2.822.06 3.365.69c.451.525.452.53.452 8.208v7.682H20.89V8.913c0-7.415.014-7.684.41-8.193.768-.983 2.62-.834 3.2.258.137.258.207 6.19.207 17.622v17.233l-.532.497c-.718.67-1.852.674-2.62.008l-.564-.488-.057-7.915-.057-7.914H3.817v15.621l-.588.593c-.434.438-.777.592-1.32.592-.544 0-.887-.154-1.322-.592L0 35.643l.007-17.074v-1.626ZM110.636.28c-.339.192-.627.594-.763 1.065-.151.525-.199 5.928-.158 17.63l.06 16.873.564.489c.392.34.807.489 1.365.489 1.051 0 1.71-.648 1.881-1.848.07-.487.1-8.287.067-17.332l-.06-16.446-.513-.518c-.637-.641-1.708-.817-2.443-.402Zm18.33 16.662v-.001c.005-14.566.006-15.973.684-16.49.072-.055.153-.1.241-.15l.094-.053c.686-.398 1.795-.189 2.338.44l.452.525v9.707c0 5.34.067 9.702.15 9.695.083-.007 3.85-4.558 8.37-10.113C146.573 4.017 149.713.319 150.071.17c1.245-.52 2.776.72 2.493 2.018-.071.323-1.505 2.272-3.236 4.398-1.711 2.1-3.794 4.662-4.63 5.693l-1.521 1.876 5.322 9.463.825 1.468c4.793 8.52 5.132 9.123 5.146 9.734.002.046.001.093 0 .143l-.001.114c0 1.556-2.174 2.35-3.259 1.193-.288-.307-2.848-4.728-5.69-9.826-2.842-5.098-5.19-9.244-5.218-9.213-.029.031-1.734 2.093-3.79 4.581l-3.737 4.524v9.307l-.587.592c-.435.438-.778.592-1.322.592-.543 0-.886-.154-1.321-.592l-.587-.592.007-17.074.001-1.626ZM175.31.172c-3.986.735-7.551 3.33-9.099 6.626-1.116 2.374-1.195 3.146-1.196 11.604-.001 6.811.045 7.991.363 9.355 1.256 5.398 5.737 8.961 11.599 9.225 3.929.177 7.028-.973 9.644-3.579 1.675-1.668 2.553-3.155 3.084-5.219.916-3.563.925-15.612.015-19.197-1.321-5.2-5.79-8.693-11.403-8.91-1.13-.045-2.483-.002-3.007.095ZM41.241.383c-.556.226-.866.807-.866 1.625 0 .52 1.045 2.076 5.555 8.264 3.056 4.193 5.638 7.73 5.737 7.862.123.16-1.593 2.719-5.298 7.896-3.014 4.212-5.63 7.95-5.811 8.307-.416.815-.282 1.572.37 2.09.488.386.848.4 10.587.4h10.082l.457-.49c.65-.699.62-1.828-.07-2.523l-.527-.53-7.896-.102-7.897-.101 5.03-6.986c4.285-5.949 5.031-7.09 5.033-7.693.002-.609-.7-1.673-4.963-7.525-2.731-3.75-4.966-6.87-4.966-6.935 0-.065 3.486-.118 7.747-.118 7.914 0 8.29-.034 8.869-.793.263-.345.335-1.399.133-1.932C62.208.21 61.82.18 51.483.192c-5.391.007-10 .093-10.241.191Zm137.943 3.24c2.432.465 4.874 2.251 5.855 4.283.975 2.02 1.067 2.945 1.067 10.698 0 7.707-.086 8.516-1.122 10.563-.616 1.216-2.194 2.676-3.701 3.424-2.537 1.259-6.116.996-8.418-.619-1.208-.847-2.234-1.998-2.801-3.143-.891-1.801-1.033-3.274-1.023-10.63.01-7.434.14-8.536 1.243-10.58 1.607-2.976 5.378-4.67 8.9-3.996Z" fill="#111212"/></svg>