<svg width="124" height="124" fill="none" xmlns="http://www.w3.org/2000/svg"><path fill-rule="evenodd" clip-rule="evenodd" d="M58.7 9.725c-3.707.32-6.333.735-9.273 1.462-14.593 3.608-27.026 13.446-33.922 26.843-3.351 6.51-5.194 13.083-5.734 20.454-.166 2.268-.073 7.03.18 9.208 1.402 12.089 6.604 22.88 15.127 31.379 8.433 8.41 18.985 13.488 31.119 14.976 2.886.354 8.717.354 11.604 0 3.93-.482 7.114-1.188 10.637-2.358 19.103-6.344 32.866-23.043 35.484-43.051.468-3.584.522-8.89.125-12.314-1.099-9.462-4.474-18.04-10.072-25.59-2.808-3.789-6.934-7.912-10.737-10.731-7.577-5.616-16.064-8.947-25.665-10.073-1.455-.17-7.624-.313-8.874-.205Zm6.313 2.433c16.451 1.03 31.19 9.958 39.714 24.056 7.23 11.96 9.097 26.156 5.218 39.687-.425 1.485-1.57 4.761-1.717 4.917-.027.028-9.198-9.08-20.38-20.24C72.378 45.14 67.36 40.199 66.865 39.91c-1.627-.946-2.985-1.312-4.866-1.312-1.881 0-3.24.366-4.867 1.312-.495.287-5.513 5.23-20.983 20.669-11.182 11.16-20.353 20.267-20.38 20.24-.147-.157-1.291-3.433-1.717-4.918-3.88-13.534-2.012-27.725 5.223-39.696 4.53-7.493 10.876-13.61 18.561-17.89a49.738 49.738 0 0 1 27.177-6.157ZM63.648 41.16c.727.178 1.544.552 2.219 1.016.344.237 2.865 2.673 5.603 5.414l4.978 4.984-2.134 2.114c-2.203 2.184-2.59 2.491-3.416 2.71-.457.122-.515.11-.967-.209-1.48-1.043-3.7-.553-5.714 1.261-.858.773-1.237.937-2.17.94-.875.004-.9-.008-2.241-1.052-1.273-.991-3.071-1.276-4.633-.734-1.06.367-1.945 1.088-4.267 3.467-1.126 1.155-2.224 2.19-2.44 2.3-.217.111-.714.227-1.106.259-1.148.092-1.556-.175-3.991-2.614l-2.077-2.08 8.391-8.367c8.701-8.676 8.82-8.784 10.208-9.248 1.166-.39 2.576-.45 3.757-.161Zm36.117 40.522c-3.153 3.154-3.457 3.381-4.535 3.389-1.238.008-1.229.015-5.359-4.076-2.096-2.077-4.024-3.91-4.285-4.073-1.623-1.014-3.895-1.016-5.536-.004-.261.161-2.471 2.277-4.911 4.702-2.44 2.426-4.611 4.497-4.823 4.603-.472.237-1.502.268-2.117.066-.368-.122-1.594-1.282-6.371-6.03-6.224-6.188-6.204-6.17-7.618-6.536-.803-.208-1.424-.222-2.246-.049-1.151.242-1.755.627-3.295 2.104-1.297 1.243-1.534 1.422-2.104 1.588-.744.216-1.423.16-2.058-.17-.235-.123-2.781-2.58-5.66-5.46L33.616 66.5l2.9-2.899c1.594-1.595 2.942-2.9 2.995-2.9.053 0 1.102 1.019 2.333 2.263 1.938 1.96 2.337 2.308 2.983 2.61 1.534.716 3.07.719 4.637.008.648-.293 1.06-.65 3.198-2.764 1.447-1.43 2.653-2.527 2.938-2.672 1.103-.558 2.052-.423 3.061.438 2.189 1.866 4.894 1.794 7.131-.19 1.147-1.018 2.493-1.584 2.756-1.158.043.069.34.247.661.396 1.097.51 2.644.266 4.044-.638.392-.254 1.669-1.404 2.836-2.557l2.122-2.095 12.226 12.221 12.226 12.221-2.897 2.899Zm-62.514-8.04c2.943 2.929 5.537 5.436 5.766 5.573 1.577.944 3.74.962 5.33.044.281-.163 1.075-.843 1.763-1.511.688-.669 1.42-1.302 1.627-1.407.539-.274 1.403-.349 2.04-.177.502.136.974.576 6.344 5.911 3.589 3.565 6.01 5.884 6.347 6.078 1.665.96 3.803.97 5.348.027.238-.145 2.466-2.261 4.952-4.703 2.485-2.442 4.697-4.535 4.915-4.651.569-.305 1.728-.288 2.338.033.26.136 2.19 1.94 4.38 4.091 3.416 3.356 4.003 3.886 4.599 4.15 1.412.628 2.896.63 4.323.006.595-.26 1.087-.7 3.841-3.43l3.158-3.13 1.364 1.359c.75.747 1.364 1.423 1.364 1.5 0 .21-1.279 2.62-2.25 4.24-7.181 11.972-19.294 20.543-32.847 23.242-3.586.714-6.217.97-9.954.97-3.738 0-6.37-.256-9.955-.97-12.472-2.484-23.805-9.975-31.139-20.584-1.58-2.287-4.014-6.574-3.935-6.934.036-.163 14.732-15.051 14.858-15.051.04 0 2.48 2.396 5.423 5.324Z" fill="#111212"/></svg>