<svg width="64" height="64" fill="none" xmlns="http://www.w3.org/2000/svg"><circle cx="32" cy="32" r="26" fill="#fff"/><path fill-rule="evenodd" clip-rule="evenodd" d="M30.296 5.02c-1.913.165-3.268.379-4.785.754-7.532 1.862-13.949 6.94-17.508 13.854-1.73 3.36-2.681 6.753-2.96 10.557-.086 1.17-.038 3.63.093 4.753.723 6.24 3.408 11.809 7.807 16.195 4.353 4.341 9.8 6.962 16.062 7.73 1.49.183 4.499.183 5.989 0 2.028-.249 3.672-.613 5.49-1.217a27.08 27.08 0 0 0 18.314-22.22c.242-1.85.27-4.588.065-6.356-.567-4.883-2.31-9.31-5.198-13.207-1.45-1.956-3.58-4.084-5.542-5.539-3.91-2.899-8.291-4.618-13.247-5.199-.75-.088-3.935-.161-4.58-.106Zm3.26 1.255a25.746 25.746 0 0 1 20.497 12.416c3.732 6.173 4.695 13.5 2.693 20.484-.22.766-.81 2.457-.886 2.538-.014.014-4.748-4.687-10.52-10.447-7.984-7.968-10.573-10.519-10.829-10.667-.84-.489-1.54-.677-2.512-.677-.97 0-1.672.188-2.512.677-.255.148-2.845 2.7-10.83 10.667-5.77 5.76-10.504 10.461-10.518 10.447-.076-.081-.667-1.772-.886-2.538-2.003-6.985-1.039-14.31 2.695-20.488a25.819 25.819 0 0 1 9.58-9.234 25.671 25.671 0 0 1 14.027-3.178Zm-.705 14.969c.375.092.797.285 1.145.524.177.123 1.479 1.38 2.892 2.795l2.569 2.572-1.101 1.091c-1.138 1.127-1.337 1.286-1.764 1.4-.235.062-.265.055-.499-.109-.764-.538-1.91-.286-2.949.65-.442.4-.638.484-1.12.486-.451.002-.464-.004-1.157-.543-.657-.512-1.584-.659-2.39-.379-.547.19-1.005.561-2.203 1.79-.581.595-1.148 1.13-1.26 1.187-.111.057-.368.117-.57.133-.593.048-.803-.09-2.06-1.349l-1.072-1.074 4.33-4.318c4.492-4.478 4.553-4.533 5.27-4.773a3.65 3.65 0 0 1 1.939-.083Zm18.64 20.914c-1.627 1.628-1.784 1.746-2.34 1.75-.639.004-.634.008-2.766-2.104-1.082-1.072-2.077-2.018-2.212-2.102-.837-.524-2.01-.525-2.857-.002-.135.083-1.275 1.175-2.535 2.427-1.26 1.251-2.38 2.32-2.489 2.375-.244.122-.775.139-1.093.034-.19-.063-.822-.662-3.288-3.113C28.7 38.23 28.71 38.24 27.98 38.05a2.315 2.315 0 0 0-1.159-.025c-.594.125-.905.324-1.7 1.086-.67.642-.792.734-1.086.82-.385.111-.735.082-1.063-.088-.12-.063-1.435-1.331-2.92-2.818l-2.701-2.703 1.496-1.496c.823-.823 1.52-1.497 1.546-1.497.027 0 .57.526 1.204 1.168 1 1.011 1.207 1.191 1.54 1.347.792.37 1.584.371 2.393.004.334-.15.548-.335 1.65-1.426.748-.738 1.37-1.305 1.517-1.38.57-.288 1.06-.218 1.58.227 1.13.963 2.526.925 3.68-.099.593-.525 1.288-.817 1.423-.597.022.035.176.127.341.204.566.264 1.365.138 2.087-.33.203-.13.862-.724 1.464-1.319l1.096-1.081 6.31 6.308 6.31 6.307-1.495 1.496Zm-32.265-4.15c1.52 1.512 2.858 2.807 2.976 2.877.814.488 1.931.497 2.751.023.145-.084.555-.435.91-.78.355-.345.733-.672.84-.726.278-.142.724-.18 1.053-.092.259.07.503.297 3.274 3.051 1.852 1.84 3.102 3.037 3.276 3.137.86.495 1.963.501 2.76.014.123-.075 1.273-1.167 2.556-2.427 1.283-1.26 2.425-2.34 2.537-2.4.294-.158.892-.15 1.207.016.134.07 1.13 1.001 2.26 2.112 1.764 1.732 2.067 2.006 2.374 2.142a2.69 2.69 0 0 0 2.231.003c.307-.135.561-.361 1.983-1.77l1.63-1.616.704.701c.387.386.704.735.704.775 0 .108-.66 1.352-1.162 2.188-3.706 6.18-9.958 10.603-16.953 11.996-1.85.368-3.209.5-5.138.5-1.929 0-3.287-.132-5.138-.5-6.437-1.282-12.286-5.148-16.071-10.624-.816-1.18-2.072-3.393-2.031-3.579.018-.084 7.604-7.768 7.668-7.768.02 0 1.28 1.236 2.8 2.748Z" fill="#111212"/></svg>