<svg width="114" height="27" fill="none" xmlns="http://www.w3.org/2000/svg"><g clip-path="url(#a)" fill="#111212"><path d="M2.806 26.998C1.26 26.998 0 25.704 0 24.119v-13.9c0-1.584 1.261-2.856 2.806-2.856 1.544 0 2.805 1.294 2.805 2.878v13.9c-.022 1.563-1.261 2.857-2.805 2.857Zm11.853 0c-.827 0-1.631-.38-2.153-1.027L6.85 19.032a2.923 2.923 0 0 1 0-3.681l5.655-6.962c1-1.227 2.762-1.383 3.936-.379s1.349 2.834.37 4.039l-4.154 5.131 4.154 5.11c.979 1.227.826 3.034-.37 4.038-.5.424-1.13.67-1.783.67Zm18.617 0H21.422c-1.544 0-2.805-1.294-2.805-2.879v-13.9c0-1.584 1.261-2.878 2.805-2.878 1.545 0 2.806 1.294 2.806 2.878v11.022h6.264V10.22c0-1.584 1.261-2.878 2.805-2.878 1.545 0 2.806 1.294 2.806 2.878v13.9c-.022 1.585-1.283 2.879-2.828 2.879Zm18.638 0H40.061c-1.544-.045-2.762-1.361-2.719-2.945.044-1.518 1.24-2.745 2.719-2.79h9.047v-.156l-9.83-2.878c-1.196-.357-2.023-1.473-2.023-2.767V10.22c0-1.584 1.262-2.856 2.806-2.856h11.853c1.544 0 2.805 1.294 2.805 2.878 0 1.585-1.26 2.879-2.805 2.879h-9.047v.178l9.83 2.878c1.196.357 2.022 1.473 2.022 2.767v5.199c0 1.584-1.26 2.856-2.805 2.856Zm38.952 0c-1.544 0-2.784-1.294-2.784-2.879v-7.653l-1.305 1.16c-1.044.915-2.588.915-3.654 0l-1.305-1.16v7.653c0 1.585-1.261 2.879-2.805 2.879-1.544 0-2.806-1.294-2.806-2.879v-13.9c0-1.584 1.262-2.878 2.806-2.878.674 0 1.305.245 1.827.691l4.11 3.615 4.089-3.615c1.174-1.026 2.936-.892 3.958.313.435.513.674 1.182.674 1.874v13.9c.022 1.585-1.24 2.879-2.805 2.879Zm-18.639 0c-1.544 0-2.805-1.294-2.805-2.879v-2.431l-6.982-8.59h-.956v8.143h4.219c1.544.045 2.762 1.361 2.718 2.945-.043 1.518-1.24 2.745-2.718 2.79h-7.025c-1.544 0-2.784-1.295-2.784-2.879V10.22c0-1.584 1.262-2.856 2.784-2.856h5.09c.826 0 1.63.38 2.152 1.026l8.46 10.42a2.93 2.93 0 0 1 .653 1.83v3.48c0 1.585-1.24 2.879-2.806 2.879Zm38.974 0c-1.544 0-2.806-1.294-2.806-2.879v-2.431l-6.981-8.59h-.979v8.143h4.22c1.544.045 2.762 1.361 2.718 2.945-.043 1.518-1.239 2.745-2.718 2.79h-7.004c-1.544 0-2.805-1.295-2.805-2.879V10.22c0-1.584 1.261-2.856 2.805-2.856h5.09c.826 0 1.609.38 2.153 1.026l8.46 10.42c.413.513.653 1.16.653 1.83v3.48c0 1.607-1.262 2.879-2.806 2.879ZM61.353.357C61.157.178 60.94.045 60.679 0c-.327-.045-.653.178-.87.335-.218.156-.653.557-.827.714-.174.156-.609.245-1.326.691-.718.447-3.502 2.276-3.502 2.276h.718l-3.24 1.718h.326l-.457.357c.26.067.522.023.76-.111v.111s3.85-1.562 4.59-1.16l-.457.134c.044 0 .761.044.761.044.044.313.218.603.479.76.435.29.457.468.457.468s-.218.089-.218.223a1.963 1.963 0 0 1 1.24 0s-.022-.134-.327-.223a1.74 1.74 0 0 1-.76-.625.91.91 0 0 1-.131-.848c.109-.29.478-.446 1.24-.848.891-.468 1.109-.825 1.217-1.115.11-.29.327-.826.414-1.094a1.54 1.54 0 0 1 .435-.624c.239-.134.5-.246.74-.335.043.022-.436-.38-.588-.491Z"/></g><defs><clipPath id="a"><path fill="#fff" d="M0 0h114v27H0z"/></clipPath></defs></svg>