<svg width="24" height="24" fill="none" xmlns="http://www.w3.org/2000/svg"><rect width="24" height="24" rx="12" fill="#111212"/><path d="M20.25 8.158s-.764-.65-1.014-.845a2.129 2.129 0 0 0-1.131-.555c-.528-.066-1.066.281-1.43.516l-.004.003c-.364.235-1.067.92-1.352 1.12-.286.197-1.016.394-2.176 1.103-1.16.709-5.771 3.64-5.771 3.64l1.187.013L3.23 15.91h.536L3 16.504a1.72 1.72 0 0 0 1.249-.19v.176s6.352-2.508 7.588-1.86l-.745.22c.064 0 1.275.079 1.275.079.056.504.34.957.765 1.231.728.48.742.742.742.742s-.378.152-.378.348a3.96 3.96 0 0 1 1.08-.156c.331.012.659.065.974.156 0 0-.038-.197-.546-.348-.51-.153-.999-.688-1.247-.989a1.39 1.39 0 0 1-.199-1.362c.175-.448.79-.7 2.04-1.347 1.482-.763 1.82-1.336 2.027-1.775.207-.44.52-1.323.692-1.738.143-.388.388-.73.712-.989.219-.168 1.221-.544 1.221-.544Z" fill="#fff"/></svg>