<svg width="130" height="45" viewBox="0 0 130 45" fill="none" xmlns="http://www.w3.org/2000/svg">
<path d="M74.6605 1.74763C74.6605 1.56306 74.6258 1.40156 74.5506 1.26314C74.4754 1.12471 74.3771 1.00936 74.2557 0.917072C74.1342 0.824788 73.9897 0.755575 73.8278 0.709433C73.6659 0.663291 73.4982 0.634453 73.3189 0.634453C73.1628 0.634453 73.0124 0.651756 72.8736 0.69213C72.7348 0.732504 72.6076 0.790182 72.4977 0.865163C72.3879 0.940143 72.3011 1.03243 72.2318 1.14201C72.1681 1.2516 72.1334 1.37849 72.1334 1.52845V1.5746C72.1334 1.73033 72.1681 1.86298 72.2318 1.97257C72.2954 2.08216 72.3937 2.17444 72.5209 2.25519C72.6481 2.33594 72.8042 2.39938 72.9951 2.45129C73.1859 2.5032 73.4056 2.54935 73.6601 2.58395C74.2557 2.67624 74.6894 2.84927 74.9727 3.10305C75.2561 3.35683 75.3949 3.7029 75.3949 4.12971V4.22776C75.3949 4.47001 75.3544 4.69495 75.2677 4.89682C75.1809 5.09869 75.0595 5.27173 74.8976 5.41592C74.7299 5.56011 74.5275 5.67547 74.2846 5.75622C74.0417 5.83696 73.7584 5.87734 73.4403 5.87734C73.076 5.87734 72.758 5.82543 72.4804 5.72161C72.2028 5.61779 71.9715 5.4736 71.7865 5.28326C71.6014 5.09292 71.4569 4.87952 71.3586 4.6315C71.2603 4.38349 71.214 4.10664 71.214 3.81248V3.57601H71.8963V3.77211C71.8963 4.26814 72.0351 4.63727 72.3069 4.88529C72.5787 5.1333 72.9604 5.25442 73.4461 5.25442C73.8683 5.25442 74.1863 5.16214 74.3945 4.97757C74.6084 4.793 74.7125 4.54499 74.7125 4.2393V4.18739C74.7125 3.89323 74.6026 3.66252 74.3829 3.50679C74.1632 3.35106 73.8104 3.23571 73.3189 3.1665C73.0355 3.12612 72.7753 3.06844 72.544 2.99346C72.3127 2.91271 72.1219 2.81466 71.96 2.68777C71.798 2.56088 71.6708 2.41092 71.5899 2.23212C71.5031 2.05332 71.4626 1.84568 71.4626 1.60343V1.50538C71.4626 1.28621 71.5089 1.08434 71.6014 0.899769C71.694 0.715201 71.8212 0.559472 71.9889 0.421046C72.1508 0.288388 72.3532 0.184568 72.5787 0.109587C72.81 0.0346065 73.0587 0 73.3362 0C73.6543 0 73.9376 0.046142 74.1921 0.138426C74.4407 0.23071 74.6547 0.351833 74.8282 0.507562C75.0017 0.663291 75.1289 0.842092 75.2214 1.04973C75.3081 1.25737 75.3544 1.47078 75.3544 1.70149V2.04178H74.672V1.74763H74.6605ZM79.3734 1.76493H80.0037V5.77352H79.3734V5.04678H79.2751C79.1479 5.30633 78.9744 5.5082 78.7662 5.65816C78.558 5.80813 78.2862 5.88311 77.9624 5.88311C77.7427 5.88311 77.5345 5.8485 77.3494 5.77352C77.1644 5.69854 77.0025 5.59472 76.8695 5.44476C76.7365 5.30056 76.6324 5.12176 76.563 4.90259C76.4878 4.68918 76.4531 4.4354 76.4531 4.15278V1.76493H77.0834V4.07203C77.0834 4.49308 77.1702 4.79877 77.3437 4.99487C77.5171 5.19098 77.7831 5.28326 78.1359 5.28326C78.5175 5.28326 78.8182 5.1506 79.038 4.89105C79.2577 4.6315 79.3676 4.27967 79.3676 3.84709V1.76493H79.3734ZM81.9467 7.38849H81.3164V1.76493H81.9467V2.39362H82.045C82.1838 2.15137 82.3804 1.9668 82.629 1.83991C82.8777 1.71302 83.1495 1.64958 83.4386 1.64958C83.6873 1.64958 83.9186 1.69572 84.1441 1.788C84.3696 1.88029 84.5605 2.01295 84.7339 2.18598C84.9074 2.35901 85.0404 2.57242 85.1387 2.8262C85.237 3.07998 85.2891 3.36837 85.2891 3.69136V3.85286C85.2891 4.18162 85.2428 4.47001 85.1445 4.72379C85.0462 4.97757 84.9132 5.19098 84.7455 5.36401C84.5778 5.53704 84.3754 5.66393 84.1499 5.75622C83.9244 5.84273 83.6815 5.88887 83.427 5.88887C83.2998 5.88887 83.1668 5.87157 83.028 5.84273C82.8951 5.81389 82.762 5.76775 82.6406 5.70431C82.5192 5.64086 82.4093 5.56588 82.3052 5.47936C82.2011 5.39285 82.1144 5.28326 82.045 5.16214H81.9467V7.38849ZM83.2941 5.28903C83.4907 5.28903 83.6641 5.25442 83.8261 5.18521C83.988 5.116 84.1325 5.02371 84.254 4.89682C84.3754 4.7757 84.4679 4.61997 84.5373 4.44694C84.6067 4.26814 84.6356 4.07203 84.6356 3.84709V3.68559C84.6356 3.47219 84.6009 3.27608 84.5373 3.09728C84.4679 2.92425 84.3754 2.77429 84.254 2.6474C84.1325 2.52051 83.988 2.42246 83.8261 2.35324C83.6641 2.28403 83.4849 2.24942 83.2941 2.24942C83.1032 2.24942 82.9297 2.28403 82.7678 2.35901C82.6059 2.43399 82.4671 2.53204 82.3457 2.65893C82.2243 2.78582 82.1259 2.94155 82.0565 3.12612C81.9872 3.30492 81.9525 3.50679 81.9525 3.7202V3.81825C81.9525 4.03743 81.9872 4.2393 82.0565 4.4181C82.1259 4.5969 82.2243 4.75263 82.3457 4.88529C82.4671 5.01794 82.6117 5.116 82.7678 5.18521C82.9297 5.25442 83.1032 5.28903 83.2941 5.28903ZM86.9025 7.38849H86.2721V1.76493H86.9025V2.39362H87.0008C87.1395 2.15137 87.3362 1.9668 87.5848 1.83991C87.8335 1.71302 88.1053 1.64958 88.3944 1.64958C88.6431 1.64958 88.8744 1.69572 89.0999 1.788C89.3254 1.88029 89.5162 2.01295 89.6897 2.18598C89.8632 2.35901 89.9962 2.57242 90.0945 2.8262C90.1928 3.07998 90.2449 3.36837 90.2449 3.69136V3.85286C90.2449 4.18162 90.1986 4.47001 90.1003 4.72379C90.002 4.97757 89.869 5.19098 89.7013 5.36401C89.5336 5.53704 89.3312 5.66393 89.1057 5.75622C88.8801 5.84273 88.6373 5.88887 88.3828 5.88887C88.2556 5.88887 88.1226 5.87157 87.9838 5.84273C87.8508 5.81389 87.7178 5.76775 87.5964 5.70431C87.4749 5.64086 87.3651 5.56588 87.261 5.47936C87.1569 5.39285 87.0702 5.28326 87.0008 5.16214H86.9025V7.38849ZM88.2498 5.28903C88.4464 5.28903 88.6199 5.25442 88.7818 5.18521C88.9438 5.116 89.0883 5.02371 89.2098 4.89682C89.3312 4.7757 89.4237 4.61997 89.4931 4.44694C89.5625 4.26814 89.5914 4.07203 89.5914 3.84709V3.68559C89.5914 3.47219 89.5567 3.27608 89.4931 3.09728C89.4237 2.92425 89.3312 2.77429 89.2098 2.6474C89.0883 2.52051 88.9438 2.42246 88.7818 2.35324C88.6199 2.28403 88.4407 2.24942 88.2498 2.24942C88.059 2.24942 87.8855 2.28403 87.7236 2.35901C87.5617 2.43399 87.4229 2.53204 87.3015 2.65893C87.18 2.78582 87.0817 2.94155 87.0123 3.12612C86.9429 3.30492 86.9082 3.50679 86.9082 3.7202V3.81825C86.9082 4.03743 86.9429 4.2393 87.0123 4.4181C87.0817 4.5969 87.18 4.75263 87.3015 4.88529C87.4229 5.01794 87.5675 5.116 87.7236 5.18521C87.8855 5.25442 88.059 5.28903 88.2498 5.28903ZM95.1602 3.81825C95.1602 4.15278 95.1023 4.44694 94.9925 4.70072C94.8826 4.9545 94.7322 5.17367 94.553 5.34671C94.3737 5.51974 94.154 5.6524 93.9111 5.74468C93.6682 5.83696 93.408 5.88311 93.1478 5.88311C92.876 5.88311 92.6216 5.83696 92.3787 5.74468C92.1358 5.6524 91.9219 5.51974 91.7368 5.34671C91.5518 5.17367 91.4072 4.9545 91.2973 4.70072C91.1874 4.44694 91.1296 4.15278 91.1296 3.81825V3.7202C91.1296 3.39144 91.1874 3.09728 91.2973 2.8435C91.4072 2.58972 91.5575 2.37055 91.7426 2.19175C91.9276 2.01295 92.1416 1.88029 92.3845 1.788C92.6273 1.69572 92.8818 1.64958 93.1478 1.64958C93.4138 1.64958 93.6682 1.69572 93.9111 1.788C94.154 1.88029 94.3679 2.01295 94.553 2.19175C94.738 2.37055 94.8884 2.58395 94.9982 2.8435C95.1081 3.09728 95.1659 3.39144 95.1659 3.7202V3.81825H95.1602ZM93.1478 5.28903C93.3444 5.28903 93.5237 5.25442 93.6856 5.18521C93.8533 5.116 93.9921 5.01794 94.1193 4.89105C94.2465 4.76416 94.339 4.60843 94.4084 4.42387C94.4778 4.24507 94.5125 4.03743 94.5125 3.81248V3.7202C94.5125 3.50679 94.4778 3.30492 94.4084 3.12612C94.339 2.94732 94.2407 2.79159 94.1193 2.65893C93.9978 2.53204 93.8475 2.42822 93.6798 2.35901C93.5121 2.2898 93.3328 2.24942 93.1478 2.24942C92.957 2.24942 92.7835 2.28403 92.6158 2.35901C92.4481 2.43399 92.3035 2.53204 92.1763 2.65893C92.0548 2.78582 91.9565 2.94155 91.8872 3.12612C91.8178 3.30492 91.7831 3.50679 91.7831 3.7202V3.81825C91.7831 4.04319 91.8178 4.24507 91.8872 4.42963C91.9565 4.60843 92.0548 4.76416 92.1763 4.89682C92.2977 5.02371 92.4423 5.12176 92.61 5.19098C92.7719 5.25442 92.9512 5.28903 93.1478 5.28903ZM96.1027 1.76493H97.56V2.29557H97.6583C97.7624 2.07639 97.9069 1.90913 98.0978 1.80531C98.2886 1.70149 98.5026 1.64958 98.7454 1.64958C99.1502 1.64958 99.4741 1.78224 99.7227 2.04755C99.9714 2.31287 100.104 2.69931 100.122 3.2011L99.4567 3.29915C99.4567 2.93002 99.37 2.65893 99.1907 2.49744C99.0114 2.33594 98.7917 2.24942 98.5373 2.24942C98.3696 2.24942 98.225 2.28403 98.1036 2.34747C97.9821 2.41092 97.878 2.5032 97.7971 2.61279C97.7161 2.72815 97.6583 2.85504 97.6178 3.01077C97.5773 3.16073 97.56 3.32222 97.56 3.49526V5.19098H98.5777V5.77352H96.0044V5.19098H96.9297V2.34747H96.1027V1.76493ZM101.145 1.76493H102.406V0.121123H103.036V1.7707H104.592V2.35324H103.036V4.9545C103.036 5.116 103.111 5.19674 103.256 5.19674H104.395V5.77352H103.025C102.84 5.77352 102.689 5.71584 102.574 5.59472C102.458 5.4736 102.4 5.32363 102.4 5.14483V2.34747H101.139V1.76493H101.145ZM106.697 3.96245C106.714 4.36042 106.835 4.68341 107.067 4.92566C107.298 5.16791 107.622 5.28903 108.038 5.28903C108.229 5.28903 108.391 5.26596 108.53 5.22558C108.669 5.18521 108.79 5.12176 108.888 5.04678C108.987 4.9718 109.068 4.88529 109.131 4.78147C109.195 4.68341 109.241 4.57383 109.282 4.46424L109.883 4.62574C109.767 4.99487 109.559 5.30056 109.258 5.53127C108.952 5.76775 108.541 5.88311 108.021 5.88311C107.738 5.88311 107.472 5.8312 107.234 5.73315C106.992 5.63509 106.789 5.4909 106.616 5.3121C106.442 5.1333 106.309 4.90836 106.211 4.66034C106.113 4.40656 106.066 4.12971 106.066 3.81825V3.62215C106.066 3.3453 106.118 3.07998 106.217 2.83773C106.315 2.59549 106.454 2.38785 106.633 2.21482C106.812 2.04178 107.02 1.90336 107.258 1.80531C107.5 1.70725 107.761 1.65534 108.038 1.65534C108.368 1.65534 108.651 1.71302 108.894 1.83414C109.137 1.95527 109.334 2.10523 109.484 2.28403C109.64 2.46283 109.75 2.65317 109.825 2.86657C109.9 3.07421 109.935 3.27032 109.935 3.44912V3.96821H106.697V3.96245ZM108.038 2.24942C107.859 2.24942 107.697 2.27826 107.541 2.33594C107.385 2.39362 107.252 2.47437 107.136 2.57242C107.02 2.67624 106.928 2.79159 106.853 2.93002C106.778 3.06844 106.731 3.21841 106.708 3.3799H109.299C109.287 3.20687 109.247 3.05114 109.172 2.91271C109.096 2.77429 109.004 2.65317 108.888 2.55511C108.773 2.45706 108.64 2.38208 108.489 2.33017C108.339 2.27826 108.2 2.24942 108.038 2.24942ZM114.301 5.15637H114.203C114.139 5.27749 114.058 5.38708 113.954 5.47936C113.85 5.57165 113.746 5.64663 113.63 5.70431C113.514 5.76198 113.393 5.80813 113.26 5.83696C113.133 5.8658 113.006 5.88311 112.89 5.88311C112.618 5.88311 112.369 5.83696 112.138 5.74468C111.907 5.6524 111.704 5.51974 111.525 5.34671C111.352 5.17367 111.213 4.96027 111.115 4.70649C111.016 4.4527 110.964 4.15855 110.964 3.82979V3.7029C110.964 3.3799 111.016 3.09151 111.12 2.83773C111.225 2.58395 111.363 2.36478 111.531 2.19175C111.699 2.01871 111.907 1.88605 112.138 1.79377C112.369 1.70149 112.618 1.65534 112.873 1.65534C113.15 1.65534 113.405 1.71302 113.647 1.83414C113.89 1.95527 114.075 2.13984 114.203 2.39362H114.301V0.121123H114.931V5.77352H114.301V5.15637ZM112.954 5.28903C113.144 5.28903 113.318 5.25442 113.48 5.18521C113.642 5.116 113.786 5.01794 113.908 4.88529C114.029 4.75263 114.127 4.60267 114.197 4.4181C114.266 4.2393 114.301 4.03743 114.301 3.81825V3.7202C114.301 3.50679 114.266 3.30492 114.197 3.12612C114.127 2.94732 114.029 2.79159 113.908 2.65893C113.786 2.53204 113.642 2.42822 113.48 2.35901C113.318 2.28403 113.139 2.24942 112.959 2.24942C112.768 2.24942 112.595 2.28403 112.427 2.35324C112.265 2.42246 112.121 2.52051 111.999 2.65317C111.878 2.78006 111.785 2.93579 111.716 3.11459C111.647 3.29339 111.618 3.48949 111.618 3.7029V3.82979C111.618 4.05473 111.652 4.2566 111.716 4.4354C111.785 4.6142 111.878 4.76416 111.999 4.89105C112.121 5.01794 112.265 5.116 112.422 5.17944C112.583 5.25442 112.763 5.28903 112.954 5.28903ZM121.587 5.77352H120.957V0.121123H121.587V2.39938H121.685C121.824 2.15714 122.021 1.97257 122.269 1.84568C122.518 1.71879 122.79 1.65534 123.079 1.65534C123.328 1.65534 123.559 1.70149 123.785 1.79377C124.01 1.88605 124.201 2.01871 124.374 2.19175C124.548 2.36478 124.681 2.57819 124.779 2.83197C124.877 3.08575 124.93 3.37413 124.93 3.69713V3.85863C124.93 4.18739 124.883 4.47578 124.785 4.72956C124.687 4.98334 124.554 5.19674 124.386 5.36978C124.218 5.54281 124.016 5.6697 123.79 5.76198C123.565 5.8485 123.322 5.89464 123.067 5.89464C122.94 5.89464 122.807 5.87734 122.668 5.8485C122.535 5.81966 122.402 5.77352 122.281 5.71007C122.16 5.64663 122.05 5.57165 121.946 5.48513C121.842 5.39862 121.755 5.28903 121.685 5.1679H121.587V5.77352ZM122.929 5.28903C123.125 5.28903 123.299 5.25442 123.461 5.18521C123.623 5.116 123.767 5.02371 123.889 4.89682C124.01 4.7757 124.103 4.61997 124.172 4.44694C124.241 4.26814 124.27 4.07203 124.27 3.84709V3.68559C124.27 3.47219 124.236 3.27608 124.172 3.09728C124.103 2.92425 124.01 2.77429 123.889 2.6474C123.767 2.52051 123.623 2.42246 123.461 2.35324C123.299 2.28403 123.12 2.24942 122.929 2.24942C122.738 2.24942 122.564 2.28403 122.402 2.35901C122.241 2.43399 122.102 2.53204 121.98 2.65893C121.859 2.78582 121.761 2.94155 121.691 3.12612C121.622 3.30492 121.587 3.50679 121.587 3.7202V3.81825C121.587 4.03743 121.622 4.2393 121.691 4.4181C121.761 4.5969 121.859 4.75263 121.98 4.88529C122.102 5.01794 122.246 5.116 122.402 5.18521C122.564 5.25442 122.738 5.28903 122.929 5.28903ZM128.972 5.04678H128.873C128.746 5.30633 128.573 5.5082 128.364 5.65816C128.156 5.80813 127.884 5.88311 127.561 5.88311C127.341 5.88311 127.133 5.8485 126.948 5.77352C126.763 5.69854 126.601 5.59472 126.468 5.44476C126.335 5.30056 126.231 5.12176 126.161 4.90259C126.086 4.68918 126.051 4.4354 126.051 4.15278V1.76493H126.682V4.07203C126.682 4.49308 126.768 4.79877 126.942 4.99487C127.115 5.19098 127.381 5.28326 127.734 5.28326C128.116 5.28326 128.416 5.1506 128.636 4.89105C128.856 4.6315 128.966 4.27967 128.966 3.84709V1.76493H129.596V6.75404C129.596 6.9386 129.538 7.08857 129.423 7.20392C129.307 7.32504 129.157 7.38272 128.972 7.38272H126.682V6.80018H128.746C128.891 6.80018 128.966 6.71943 128.966 6.55793V5.04678H128.972ZM71.081 9.69559H73.2032V13.6004H73.2726L76.4936 9.69559H78.9339L75.1578 14.2233L79.0842 19.3854H76.4589L73.2669 15.0538H73.1975V19.3854H71.0752V9.69559H71.081ZM80.4894 18.8432C80.0557 18.3934 79.836 17.7877 79.836 17.0322V12.4641H81.779V16.6284C81.779 17.0264 81.8831 17.3321 82.0855 17.5397C82.2879 17.7474 82.577 17.857 82.9471 17.857C83.2825 17.857 83.5832 17.7647 83.8607 17.5743C84.1383 17.384 84.3639 17.136 84.5431 16.8188V12.4641H86.4861V19.3854H84.5431V18.526C83.9244 19.1893 83.1668 19.5238 82.2821 19.5238C81.5188 19.5238 80.9231 19.2989 80.4894 18.8432ZM88.7761 18.9932C88.2556 18.6356 87.9087 18.1396 87.7352 17.4936L87.793 17.3148L89.2792 16.8707C89.4468 17.6436 89.9442 18.0358 90.7769 18.0358C91.066 18.0358 91.2973 17.9781 91.4824 17.857C91.6674 17.7358 91.7599 17.5686 91.7599 17.3609C91.7599 17.1418 91.6558 16.9687 91.4477 16.8418C91.2395 16.7149 90.8347 16.5765 90.2333 16.4208C89.5047 16.2478 88.9495 15.9882 88.5794 15.6537C88.2094 15.3191 88.0243 14.8693 88.0243 14.3156C88.0243 13.9464 88.1284 13.6119 88.3366 13.312C88.5447 13.012 88.8397 12.7756 89.2155 12.5968C89.5972 12.4237 90.0309 12.3315 90.5224 12.3315C91.2511 12.3315 91.8525 12.493 92.3209 12.8102C92.7893 13.1274 93.09 13.5773 93.2287 14.1598L93.1478 14.3098L91.679 14.6674C91.6154 14.3444 91.4766 14.0964 91.2626 13.9291C91.0487 13.7561 90.7884 13.6753 90.4877 13.6753C90.2564 13.6753 90.0598 13.7215 89.9037 13.8195C89.7476 13.9176 89.6666 14.0502 89.6666 14.2117C89.6666 14.4136 89.7938 14.5809 90.054 14.7078C90.3143 14.8347 90.7827 14.9962 91.4708 15.1807C92.1821 15.3768 92.7083 15.6306 93.0437 15.9421C93.3791 16.2535 93.5526 16.6919 93.5526 17.2456C93.5526 17.6724 93.4369 18.0588 93.2114 18.4107C92.9859 18.7625 92.662 19.0336 92.2399 19.2355C91.8178 19.4316 91.332 19.5354 90.7769 19.5354C89.9615 19.5238 89.2907 19.345 88.7761 18.9932ZM95.6517 19.2701C95.3163 19.097 95.0445 18.8548 94.8479 18.5376C94.6513 18.2203 94.5472 17.8454 94.5472 17.4244C94.5472 16.7957 94.7669 16.2939 95.2006 15.9075C95.6343 15.5268 96.23 15.2961 96.9933 15.2211L98.8669 15.025V14.7193C98.8669 14.4078 98.7686 14.1598 98.5662 13.9868C98.3696 13.8138 98.0862 13.7215 97.7277 13.7215C97.4038 13.7215 97.1436 13.808 96.9528 13.9753C96.7562 14.1483 96.6405 14.379 96.5943 14.6732L94.9578 14.5347L94.8884 14.454C95.0272 13.7619 95.3568 13.2312 95.8714 12.8679C96.3919 12.5045 97.0164 12.3199 97.7566 12.3199C98.6356 12.3199 99.3468 12.5391 99.8962 12.9774C100.44 13.4158 100.717 14.0329 100.717 14.8231V17.309C100.717 17.5224 100.764 17.6839 100.85 17.7935C100.937 17.9031 101.059 17.9608 101.22 17.9608C101.325 17.9608 101.411 17.9492 101.486 17.9204L101.556 18.0012V19.3277C101.278 19.42 100.96 19.4662 100.596 19.4662C99.8441 19.4662 99.3295 19.1547 99.0404 18.526H98.942C98.6182 18.8605 98.2828 19.1086 97.9416 19.2758C97.6005 19.4431 97.2072 19.5238 96.762 19.5238C96.3572 19.5238 95.9929 19.4373 95.6517 19.2701ZM98.0804 17.805C98.3349 17.6378 98.5951 17.384 98.8669 17.0437V16.242L97.3402 16.4381C97.0164 16.4727 96.7677 16.5707 96.6 16.7265C96.4266 16.8822 96.3456 17.0783 96.3456 17.309C96.3456 17.5397 96.4266 17.7243 96.5885 17.857C96.7504 17.9896 96.9586 18.0588 97.2072 18.0588C97.5311 18.0588 97.826 17.9723 98.0804 17.805ZM102.793 12.4641H104.736V13.2831C105.28 12.6487 105.968 12.3257 106.789 12.3257C107.61 12.3257 108.189 12.6487 108.524 13.2947C109.143 12.6487 109.883 12.3257 110.745 12.3257C111.456 12.3257 112.005 12.5218 112.398 12.9198C112.786 13.3177 112.982 13.8599 112.982 14.552V19.3854H111.039V14.9846C111.039 14.3213 110.745 13.9868 110.149 13.9868C109.611 13.9868 109.177 14.2752 108.842 14.8577V19.3854H106.899V14.9962C106.899 14.3213 106.61 13.9868 106.037 13.9868C105.771 13.9868 105.517 14.0733 105.286 14.2521C105.054 14.4251 104.869 14.6559 104.731 14.9327V19.3912H102.793V12.4641ZM115.417 19.2701C115.082 19.097 114.81 18.8548 114.613 18.5376C114.417 18.2203 114.312 17.8454 114.312 17.4244C114.312 16.7957 114.532 16.2939 114.966 15.9075C115.4 15.5268 115.995 15.2961 116.759 15.2211L118.632 15.025V14.7193C118.632 14.4078 118.534 14.1598 118.331 13.9868C118.135 13.8138 117.851 13.7215 117.493 13.7215C117.169 13.7215 116.909 13.808 116.718 13.9753C116.521 14.1483 116.406 14.379 116.36 14.6732L114.723 14.5347L114.654 14.454C114.792 13.7619 115.122 13.2312 115.637 12.8679C116.157 12.5045 116.782 12.3199 117.522 12.3199C118.401 12.3199 119.112 12.5391 119.661 12.9774C120.205 13.4158 120.483 14.0329 120.483 14.8231V17.309C120.483 17.5224 120.529 17.6839 120.616 17.7935C120.702 17.9031 120.824 17.9608 120.986 17.9608C121.09 17.9608 121.177 17.9492 121.252 17.9204L121.321 18.0012V19.3277C121.044 19.42 120.725 19.4662 120.361 19.4662C119.609 19.4662 119.095 19.1547 118.806 18.526H118.707C118.383 18.8605 118.048 19.1086 117.707 19.2758C117.366 19.4431 116.973 19.5238 116.527 19.5238C116.122 19.5238 115.752 19.4373 115.417 19.2701ZM117.846 17.805C118.1 17.6378 118.36 17.384 118.632 17.0437V16.242L117.106 16.4381C116.782 16.4727 116.533 16.5707 116.365 16.7265C116.192 16.8822 116.111 17.0783 116.111 17.309C116.111 17.5397 116.192 17.7243 116.354 17.857C116.516 17.9896 116.724 18.0588 116.973 18.0588C117.296 18.0588 117.591 17.9723 117.846 17.805ZM73.5213 24.1611H71.081V22.3616H78.0896V24.1611H75.6493V32.0514H73.5271V24.1611H73.5213ZM78.4192 25.1301H80.3622V25.9606C80.6109 25.6665 80.9 25.43 81.2238 25.257C81.5477 25.084 81.9062 24.9917 82.2936 24.9917C82.5712 24.9917 82.791 25.0263 82.9586 25.1013L82.71 26.6239L82.6117 26.722C82.4267 26.6758 82.2705 26.6528 82.1375 26.6528C81.7559 26.6528 81.4147 26.7566 81.1082 26.97C80.8017 27.1834 80.553 27.4891 80.3564 27.8986V32.0514H78.4135V25.1301H78.4192ZM85.2428 31.7399C84.6992 31.44 84.2771 31.019 83.9706 30.471C83.6641 29.9289 83.5138 29.3002 83.5138 28.5907C83.5138 27.8871 83.6757 27.2642 84.0053 26.722C84.3349 26.1798 84.7686 25.753 85.318 25.4473C85.8616 25.1416 86.4514 24.9917 87.0817 24.9917C87.7641 24.9917 88.3713 25.1359 88.8975 25.4185C89.4237 25.7069 89.8343 26.1164 90.1234 26.6528C90.4126 27.1892 90.5629 27.8179 90.5629 28.5504V29.0637H85.3469C85.3932 29.5424 85.5782 29.9231 85.8963 30.2057C86.2143 30.4883 86.6249 30.6268 87.1222 30.6268C87.9202 30.6268 88.4464 30.2692 88.7067 29.5597L90.3316 29.727L90.4299 29.8943C90.1697 30.6614 89.7591 31.2324 89.1866 31.6188C88.6141 32.0053 87.9144 32.1956 87.0817 32.1956C86.3994 32.1898 85.7864 32.0399 85.2428 31.7399ZM88.7356 27.8179C88.6893 27.4026 88.5158 27.0681 88.2094 26.82C87.9029 26.572 87.527 26.4451 87.0702 26.4451C86.6654 26.4451 86.3068 26.572 85.9946 26.82C85.6823 27.0681 85.4857 27.4026 85.4047 27.8179H88.7356ZM92.6389 31.936C92.3035 31.763 92.0317 31.5208 91.8351 31.2035C91.6385 30.8863 91.5344 30.5114 91.5344 30.0904C91.5344 29.4617 91.7542 28.9599 92.1879 28.5734C92.6216 28.1928 93.2172 27.9621 93.9805 27.8871L95.8541 27.691V27.3853C95.8541 27.0738 95.7558 26.8258 95.5534 26.6528C95.3568 26.4797 95.0734 26.3875 94.7149 26.3875C94.3911 26.3875 94.1308 26.474 93.94 26.6412C93.7434 26.8143 93.6277 27.045 93.5815 27.3391L91.945 27.2007L91.8756 27.12C92.0144 26.4278 92.344 25.8972 92.8587 25.5338C93.3733 25.1705 94.0036 24.9859 94.7438 24.9859C95.6228 24.9859 96.334 25.2051 96.8834 25.6434C97.427 26.0818 97.7045 26.6989 97.7045 27.4891V29.9692C97.7045 30.1826 97.7508 30.3441 97.8375 30.4537C97.9243 30.5633 98.0457 30.621 98.2076 30.621C98.3117 30.621 98.3985 30.6095 98.4736 30.5806L98.543 30.6614V31.9879C98.2655 32.0802 97.9474 32.1264 97.5831 32.1264C96.8314 32.1264 96.3167 31.8149 96.0276 31.1862H95.9293C95.6054 31.5208 95.27 31.7688 94.9288 31.936C94.5877 32.1033 94.1945 32.1841 93.7492 32.1841C93.3444 32.1898 92.9801 32.1033 92.6389 31.936ZM95.0676 30.471C95.3221 30.3038 95.5823 30.05 95.8541 29.7097V28.908L94.3274 29.1041C94.0036 29.1387 93.755 29.2367 93.5873 29.3925C93.4138 29.5482 93.3328 29.7443 93.3328 29.975C93.3328 30.2057 93.4138 30.3903 93.5757 30.5229C93.7376 30.6556 93.9458 30.7248 94.1945 30.7248C94.5183 30.7248 94.8132 30.6383 95.0676 30.471ZM100.307 31.6592C99.7863 31.3016 99.4394 30.8056 99.2659 30.1596L99.3237 29.9808L100.81 29.5367C100.978 30.3095 101.475 30.7017 102.308 30.7017C102.597 30.7017 102.828 30.6441 103.013 30.5229C103.198 30.4018 103.291 30.2346 103.291 30.0269C103.291 29.8077 103.187 29.6347 102.978 29.5078C102.77 29.3809 102.365 29.2425 101.764 29.0868C101.035 28.9137 100.48 28.6542 100.11 28.3197C99.7401 27.9851 99.555 27.5352 99.555 26.9815C99.555 26.6124 99.6591 26.2779 99.8673 25.9779C100.075 25.678 100.37 25.4416 100.746 25.2628C101.128 25.0897 101.562 24.9974 102.053 24.9974C102.782 24.9974 103.383 25.1589 103.852 25.4762C104.32 25.7934 104.621 26.2433 104.759 26.8258L104.678 26.9758L103.21 27.3334C103.146 27.0104 103.007 26.7624 102.793 26.5951C102.579 26.4278 102.319 26.3413 102.018 26.3413C101.787 26.3413 101.591 26.3875 101.434 26.4855C101.278 26.5836 101.197 26.7162 101.197 26.8777C101.197 27.0796 101.325 27.2469 101.585 27.3737C101.845 27.5006 102.313 27.6621 103.002 27.8467C103.713 28.0428 104.239 28.2966 104.574 28.608C104.91 28.9195 105.083 29.3579 105.083 29.9116C105.083 30.3384 104.968 30.7248 104.742 31.0766C104.517 31.4285 104.193 31.6996 103.771 31.9014C103.348 32.0975 102.863 32.2014 102.308 32.2014C101.492 32.1898 100.827 32.011 100.307 31.6592ZM107.009 31.5092C106.575 31.0593 106.355 30.4537 106.355 29.6982V25.1301H108.298V29.2944C108.298 29.6924 108.403 29.9981 108.605 30.2057C108.807 30.4191 109.096 30.5229 109.467 30.5229C109.802 30.5229 110.103 30.4307 110.38 30.2403C110.658 30.05 110.883 29.802 111.063 29.4847V25.1243H113.006V32.0456H111.063V31.1862C110.444 31.8495 109.686 32.1841 108.802 32.1841C108.044 32.1898 107.448 31.9649 107.009 31.5092ZM114.729 25.1301H116.672V25.9606C116.92 25.6665 117.21 25.43 117.533 25.257C117.857 25.084 118.216 24.9917 118.603 24.9917C118.881 24.9917 119.101 25.0263 119.268 25.1013L119.02 26.6239L118.921 26.722C118.736 26.6758 118.58 26.6528 118.447 26.6528C118.065 26.6528 117.724 26.7566 117.418 26.97C117.111 27.1834 116.863 27.4891 116.666 27.8986V32.0514H114.723V25.1301H114.729ZM122.761 31.8726L119.904 25.1301H122.125L123.542 28.5792L123.611 29.5886H123.721L125.485 25.1301H127.538L123.594 34.8199H121.57L122.761 31.8726ZM73.5444 44.3482C72.7811 43.9214 72.1797 43.3274 71.7402 42.5718C71.3007 41.8162 71.081 40.9626 71.081 40.0109C71.081 39.0534 71.2949 38.194 71.7287 37.4385C72.1566 36.6829 72.7522 36.0888 73.5039 35.6678C74.2557 35.241 75.1115 35.0333 76.0657 35.0333C77.176 35.0333 78.1301 35.3044 78.9223 35.8523C79.7203 36.3945 80.2466 37.1616 80.5068 38.1479L80.3969 38.3267L78.4944 38.592C78.3267 38.0268 78.0434 37.6 77.6328 37.3058C77.228 37.0117 76.7018 36.8617 76.0657 36.8617C75.5105 36.8617 75.019 36.9944 74.5853 37.2654C74.1516 37.5365 73.822 37.9057 73.5791 38.3844C73.3362 38.8631 73.2206 39.411 73.2206 40.0167C73.2206 40.6338 73.3362 41.1817 73.5733 41.6489C73.8104 42.1219 74.1458 42.4853 74.5853 42.7506C75.0248 43.0159 75.5394 43.1428 76.1351 43.1428C76.8174 43.1428 77.3668 42.9697 77.7774 42.6295C78.1879 42.2892 78.4597 41.7989 78.5869 41.1644H75.1983V39.5322H80.5993V40.3224C80.5993 41.2337 80.4143 42.0469 80.05 42.7506C79.6856 43.4542 79.1594 44.0079 78.4828 44.4059C77.8005 44.8039 77.0083 45 76.1004 45C75.1636 44.9942 74.3077 44.7808 73.5444 44.3482ZM82.097 37.9345H84.04V38.7651C84.2887 38.4709 84.5778 38.2344 84.9016 38.0614C85.2255 37.8884 85.584 37.7961 85.9714 37.7961C86.249 37.7961 86.4688 37.8307 86.6365 37.9057L86.3878 39.4283L86.2895 39.5264C86.1045 39.4803 85.9483 39.4572 85.8153 39.4572C85.4337 39.4572 85.0925 39.561 84.786 39.7744C84.4795 39.9878 84.2308 40.2935 84.0342 40.703V44.8558H82.0912V37.9345H82.097ZM88.1862 44.7404C87.8508 44.5674 87.579 44.3252 87.3824 44.0079C87.1858 43.6907 87.0817 43.3158 87.0817 42.8948C87.0817 42.2661 87.3015 41.7643 87.7352 41.3778C88.1689 40.9972 88.7645 40.7665 89.5278 40.6915L91.4014 40.4954V40.1897C91.4014 39.8782 91.3031 39.6302 91.1007 39.4572C90.9041 39.2842 90.6207 39.1919 90.2622 39.1919C89.9384 39.1919 89.6782 39.2784 89.4873 39.4457C89.2965 39.6129 89.1751 39.8494 89.1288 40.1436L87.4923 40.0051L87.4229 39.9244C87.5617 39.2322 87.8913 38.7016 88.406 38.3382C88.9206 37.9749 89.5509 37.7903 90.2911 37.7903C91.1701 37.7903 91.8814 38.0095 92.4307 38.4478C92.9743 38.8862 93.2519 39.5033 93.2519 40.2935V42.7736C93.2519 42.9871 93.2981 43.1485 93.3849 43.2581C93.4716 43.3677 93.593 43.4254 93.7492 43.4254C93.8533 43.4254 93.94 43.4139 94.0152 43.385L94.0846 43.4658V44.7924C93.807 44.8846 93.489 44.9308 93.1246 44.9308C92.3787 44.9308 91.8582 44.6193 91.5691 43.9906H91.4708C91.147 44.3252 90.8116 44.5732 90.4704 44.7404C90.1292 44.9077 89.736 44.9885 89.2907 44.9885C88.8917 44.9942 88.5216 44.9077 88.1862 44.7404ZM90.615 43.2754C90.8694 43.1082 91.1296 42.8544 91.4014 42.5141V41.7124L89.8748 41.9085C89.5509 41.9431 89.3023 42.0411 89.1346 42.1969C88.9611 42.3526 88.8801 42.5487 88.8801 42.7794C88.8801 43.0101 88.9611 43.1947 89.123 43.3274C89.2849 43.46 89.4931 43.5292 89.7418 43.5292C90.0656 43.5292 90.3605 43.4427 90.615 43.2754ZM95.3279 37.9345H97.2708V38.8343C97.9301 38.1421 98.6934 37.7961 99.5724 37.7961C100.324 37.7961 100.908 38.0153 101.336 38.4478C101.764 38.8804 101.972 39.4399 101.972 40.1205V44.8558H100.029V40.6915C100.029 40.2877 99.9367 39.9763 99.7458 39.7686C99.555 39.561 99.2774 39.4572 98.9073 39.4572C98.5835 39.4572 98.2712 39.5552 97.9763 39.7571C97.6814 39.9532 97.4443 40.2012 97.2708 40.4954V44.8558H95.3279V37.9345ZM104.626 44.4694C104.245 44.1175 104.06 43.5927 104.06 42.889V39.5379H102.822V37.9345H104.06V35.9562H104.308L105.985 36.5387V37.9345H107.454V39.5379H105.985V42.7217C105.985 42.9409 106.049 43.1139 106.182 43.2351C106.309 43.3562 106.494 43.4139 106.737 43.4139C106.882 43.4139 107.073 43.3793 107.292 43.3158L107.391 43.3735V44.8558C106.992 44.9481 106.587 44.9942 106.17 44.9942C105.517 44.9942 105.002 44.8212 104.626 44.4694ZM54.4384 11.5874C55.2769 12.2449 57.8386 14.4309 57.8386 14.4309C57.8386 14.4309 54.4788 15.6941 53.7444 16.2593C52.6573 17.1302 51.8362 18.278 51.3562 19.5815C50.7837 20.9773 49.7312 23.9477 49.0373 25.4242C48.3434 26.9008 47.21 28.8272 42.2426 31.3939C38.0502 33.5683 35.9858 34.4162 35.4017 35.9216C34.8003 37.4615 35.0547 39.2034 36.0667 40.5012C36.8994 41.5105 38.5417 43.31 40.2476 43.8234C41.9535 44.3309 42.0807 44.9942 42.0807 44.9942C41.0225 44.6885 39.9238 44.5097 38.8135 44.4694C37.5876 44.4751 36.3674 44.6539 35.1935 44.9942C35.1935 44.3367 36.4599 43.8234 36.4599 43.8234C36.4599 43.8234 36.4137 42.9467 33.9734 41.3317C32.5451 40.4089 31.5967 38.8862 31.4059 37.1905C31.4059 37.1905 27.3464 36.9251 27.1324 36.9251L29.6306 36.1869C25.4844 34.0067 4.18668 42.4391 4.18668 42.4391V41.8508C2.92027 42.5833 1.42833 42.814 0 42.4853L2.5733 40.4896H0.774882L18.6377 31.2208L14.6592 31.1805C14.6592 31.1805 30.1221 21.3234 34.0081 18.9413C37.8998 16.5592 40.3459 15.8959 41.3058 15.2326C42.26 14.5636 44.6193 12.2565 45.8395 11.4663C47.0596 10.6761 48.8696 9.49949 50.6449 9.72443C52.0732 9.94937 53.3859 10.5954 54.4384 11.5874Z" fill="#5B5C5C"/>
</svg>
