<svg width="24" height="24" fill="none" xmlns="http://www.w3.org/2000/svg"><rect width="24" height="24" rx="12" fill="#fff"/><g clip-path="url(#a)"><path d="M12.09 3.375c-3.77.014-6.824 2.932-6.84 6.535 0 .721.122 1.438.36 2.122.179.466.708.717 1.204.573.48-.176.734-.677.582-1.145a4.136 4.136 0 0 1-.267-1.666c.083-2.602 2.357-4.649 5.081-4.57 2.724.079 4.866 2.252 4.784 4.854-.077 2.436-2.086 4.415-4.633 4.563 0 0-.96.056-1.438.112a5.18 5.18 0 0 0-.523.099.065.065 0 0 1-.09 0 .058.058 0 0 1 0-.073l.149-.775.902-3.874c.108-.484-.215-.96-.721-1.064-.507-.103-1.005.205-1.113.689 0 0-2.145 9.483-2.145 9.57-.123.46.169.93.651 1.046l.016.004h.05c.482.12.974-.158 1.098-.618a.217.217 0 0 0 .006-.024.212.212 0 0 1 0-.043c.026-.111.297-1.373.297-1.373.205-.953 1.008-1.682 2.014-1.83a27.81 27.81 0 0 1 1.077-.086c3.757-.358 6.5-3.557 6.124-7.147-.342-3.273-3.18-5.794-6.624-5.879Z" fill="#1E1E1E"/><path d="M12.505 18.442c-.617-.122-1.22.256-1.348.845l-.004.016c-.133.585.255 1.163.868 1.29 0 0 .002 0 .002.002h.032c.6.138 1.204-.215 1.348-.787l.004-.014v-.06c.106-.59-.29-1.158-.902-1.292Z" fill="#E6007A"/></g><defs><clipPath id="a"><path fill="#fff" transform="translate(5.25 3.375)" d="M0 0h13.5v17.25H0z"/></clipPath></defs></svg>