<svg width="148" height="32" fill="none" xmlns="http://www.w3.org/2000/svg"><g clip-path="url(#a)"><path d="M45.964 4.774c-1.733 0-3.403.22-4.083.406-.99.282-1.237.72-1.423 1.627L36.53 25.13c-.063.375-.124.688-.124 1.001 0 .908.588 1.5 1.547 1.5 1.052 0 1.486-.688 1.701-1.752l1.113-5.22c.772.092 1.794.188 3.248.188 6.404 0 10.392-3.502 10.392-8.786 0-4.629-3.187-7.286-8.443-7.286Zm-2.104 13.07c-.99 0-1.764-.032-2.473-.125l2.072-9.725c.648-.093 1.609-.22 2.599-.22 3.403 0 5.135 1.627 5.135 4.315-.002 3.44-2.478 5.755-7.333 5.755Zm102.872 3.75c-.525 0-.866.313-1.515 1.033-1.145 1.189-1.856 1.844-2.752 1.844-.803 0-1.237-.655-1.237-1.72 0-.594.124-1.313.279-2.094l1.144-5.441h3.435c1.081 0 1.732-.626 1.732-1.752 0-.626-.401-1.093-1.328-1.093h-3.221l.556-2.533c.063-.374.124-.719.124-1.032 0-.876-.588-1.502-1.547-1.502-1.021 0-1.483.687-1.701 1.752l-.712 3.315h-1.454c-1.113 0-1.762.626-1.762 1.751 0 .627.433 1.094 1.36 1.094h1.268l-1.144 5.378a13.123 13.123 0 0 0-.279 2.564c0 2.532 1.3 4.377 4.083 4.377 1.609 0 3.03-.813 4.114-1.784 1.053-.937 1.825-2.094 1.825-2.845 0-.717-.557-1.312-1.268-1.312ZM75.594 6.619c0-.908-.62-1.502-1.578-1.502-1.022 0-1.484.687-1.702 1.751L68.45 25.034c-.092.375-.155.688-.155 1 0 .908.62 1.5 1.547 1.5 1.053 0 1.515-.687 1.733-1.751L75.44 7.619c.063-.376.155-.687.155-1Zm55.208 5.439c-4.949 0-8.32 4.971-8.32 9.693 0 .088.002.177.004.263-.776 1.191-1.768 2.426-2.448 2.426-.494 0-.68-.47-.68-1.19 0-.875.246-2.346.525-3.628l2.568-12.007c.062-.375.123-.688.123-1 0-.908-.588-1.503-1.546-1.503-1.053 0-1.484.688-1.702 1.752l-1.391 6.503c-.743-.78-1.828-1.314-3.466-1.314-3.286 0-6.592 2.557-7.881 6.48-1.418 3.708-2.686 5.902-3.687 5.902-.371 0-.588-.313-.588-.844 0-1.563.866-5.378 1.236-7.222.124-.688.187-.97.187-1.375 0-1.375-2.258-3.002-5.197-3.002-3.398 0-6.475 2.176-8.017 5.407-2.292 4.093-4.395 7.036-5.436 7.036-.465 0-.62-.594-.743-1.157l-.77-4.309 4.732-3.907c.433-.375.99-.908.99-1.595 0-.844-.557-1.407-1.392-1.407-.62 0-1.145.374-1.67.812l-7.113 5.94L81.5 7.62c.063-.374.155-.687.155-1 0-.908-.62-1.502-1.578-1.502-1.021 0-1.483.687-1.701 1.751l-3.865 18.166c-.092.375-.155.688-.155 1 0 .908.62 1.5 1.546 1.5 1.053 0 1.515-.687 1.733-1.751l.496-2.344 2.907-2.376.711 3.626c.279 1.439 1.022 2.846 2.939 2.846 1.907 0 3.409-1.761 4.913-4.141.455 2.493 2.21 4.14 4.646 4.14 2.444 0 4.114-1.47 5.196-3.44v.064c0 2.033 1.021 3.377 2.815 3.377 1.623 0 2.969-.99 4.172-3.09.683 1.83 2.209 3.09 4.332 3.09 2.505 0 4.299-1.532 5.443-3.658v.188c0 2.251 1.114 3.472 2.938 3.472 1.612 0 2.981-.946 4.15-2.485.889 1.539 2.483 2.485 4.635 2.485 4.95 0 8.321-4.972 8.321-9.725-.002-3.347-2.013-5.754-5.448-5.754Zm-30.835 6.348c-.898 3.908-2.815 6.129-4.98 6.129-1.455 0-2.259-1.125-2.259-2.814 0-3.315 2.382-6.88 5.567-6.88.958 0 1.701.282 2.35.688l-.678 2.877Zm17.227-1.656c-.99 4.597-3.248 7.785-5.721 7.785-1.361 0-2.166-1.064-2.166-2.814 0-3.344 2.289-6.816 5.351-6.816 1.176 0 2.071.406 2.722.937l-.186.908Zm11.104 7.785c-1.794 0-2.537-1.314-2.537-2.97 0-3.034 2.072-6.503 4.671-6.503 1.793 0 2.536 1.313 2.536 2.97 0 3.063-2.071 6.503-4.67 6.503ZM62.109 12.058c-4.95 0-8.32 4.971-8.32 9.693 0 3.376 2.01 5.784 5.442 5.784 4.95 0 8.32-4.972 8.32-9.726 0-3.344-2.01-5.751-5.442-5.751Zm-2.505 12.477c-1.794 0-2.537-1.314-2.537-2.97 0-3.034 2.072-6.503 4.671-6.503 1.794 0 2.537 1.313 2.537 2.97-.003 3.063-2.074 6.503-4.671 6.503Z" fill="#111212"/><path d="M14.881 6.712c3.152 0 5.708-1.503 5.708-3.356C20.589 1.502 18.034 0 14.881 0 11.73 0 9.173 1.502 9.173 3.356c0 1.853 2.556 3.356 5.708 3.356Zm0 25.286c3.152 0 5.708-1.503 5.708-3.356 0-1.854-2.555-3.356-5.708-3.356-3.152 0-5.708 1.502-5.708 3.356 0 1.853 2.556 3.356 5.708 3.356ZM6.927 11.357c1.576-2.76 1.566-5.749-.023-6.676C5.315 3.754 2.75 5.24 1.174 8c-1.577 2.76-1.566 5.749.022 6.676 1.59.927 4.155-.558 5.731-3.318Zm21.66 12.641c1.576-2.76 1.566-5.748-.021-6.674-1.588-.927-4.153.559-5.73 3.319-1.575 2.76-1.566 5.748.022 6.674 1.587.927 4.152-.559 5.729-3.319ZM6.905 27.317c1.589-.927 1.599-3.916.023-6.676-1.576-2.76-4.142-4.245-5.73-3.318-1.59.927-1.6 3.916-.024 6.676 1.576 2.76 4.142 4.245 5.73 3.318Zm21.662-12.641c1.588-.927 1.597-3.915.021-6.675s-4.141-4.246-5.729-3.32c-1.588.928-1.597 3.916-.02 6.676 1.576 2.76 4.14 4.245 5.728 3.319Z" fill="#E6007A"/></g><defs><clipPath id="a"><path fill="#fff" d="M0 0h148v32H0z"/></clipPath></defs></svg>