<?xml version="1.0" encoding="utf-8"?><svg viewBox="0 0 40 90" xmlns="http://www.w3.org/2000/svg" xmlns:xlink="http://www.w3.org/1999/xlink"><style>:root>svg{display:none}:root>svg:target{display:block}</style><svg viewBox="0 0 40 90" id="arrow-down" xmlns="http://www.w3.org/2000/svg"><path fill-rule="evenodd" clip-rule="evenodd" d="M20 9.5a1.5 1.5 0 011.5 1.5v64.879l12.44-12.44a1.5 1.5 0 012.12 2.122l-15 15a1.5 1.5 0 01-2.12 0l-15-15a1.5 1.5 0 012.12-2.122L18.5 75.88V11A1.5 1.5 0 0120 9.5z"/></svg><svg viewBox="0 0 18 19" id="blocks-fill" xmlns="http://www.w3.org/2000/svg"><circle cx="9" cy="9.5" r="9"/><path fill-rule="evenodd" clip-rule="evenodd" d="M11.677 6.823H6.323v5.354h5.354V6.823zm-5.354-.59a.59.59 0 00-.59.59v5.354c0 .326.264.59.59.59h5.354a.59.59 0 00.59-.59V6.823a.59.59 0 00-.59-.59H6.323z"/><path d="M10.404 5.811a.59.59 0 01.59-.59h1.695a.59.59 0 01.59.59v1.695a.59.59 0 01-.59.59h-1.695a.59.59 0 01-.59-.59V5.811z"/><path fill-rule="evenodd" clip-rule="evenodd" d="M12.689 5.811h-1.695v1.695h1.695V5.811zm-1.695-.59a.59.59 0 00-.59.59v1.695c0 .326.264.59.59.59h1.695a.59.59 0 00.59-.59V5.811a.59.59 0 00-.59-.59h-1.695z"/><path d="M10.404 11.494a.59.59 0 01.59-.59h1.695a.59.59 0 01.59.59v1.695a.59.59 0 01-.59.59h-1.695a.59.59 0 01-.59-.59v-1.695z"/><path fill-rule="evenodd" clip-rule="evenodd" d="M12.689 11.494h-1.695v1.695h1.695v-1.695zm-1.695-.59a.59.59 0 00-.59.59v1.695c0 .325.264.59.59.59h1.695a.59.59 0 00.59-.59v-1.695a.59.59 0 00-.59-.59h-1.695z"/><path d="M4.721 5.811a.59.59 0 01.59-.59h1.695a.59.59 0 01.59.59v1.695a.59.59 0 01-.59.59H5.311a.59.59 0 01-.59-.59V5.811z"/><path fill-rule="evenodd" clip-rule="evenodd" d="M7.006 5.811H5.311v1.695h1.695V5.811zm-1.695-.59a.59.59 0 00-.59.59v1.695c0 .326.264.59.59.59h1.695a.59.59 0 00.59-.59V5.811a.59.59 0 00-.59-.59H5.311z"/><path d="M4.721 11.494a.59.59 0 01.59-.59h1.695a.59.59 0 01.59.59v1.695a.59.59 0 01-.59.59H5.311a.59.59 0 01-.59-.59v-1.695z"/><path fill-rule="evenodd" clip-rule="evenodd" d="M7.006 11.494H5.311v1.695h1.695v-1.695zm-1.695-.59a.59.59 0 00-.59.59v1.695c0 .325.264.59.59.59h1.695a.59.59 0 00.59-.59v-1.695a.59.59 0 00-.59-.59H5.311z"/></svg><svg viewBox="0 0 26 27" id="check-fill" xmlns="http://www.w3.org/2000/svg"><path fill-rule="evenodd" clip-rule="evenodd" d="M13 1.583C6.42 1.583 1.084 6.92 1.084 13.5c0 6.581 5.335 11.917 11.916 11.917S24.917 20.08 24.917 13.5C24.917 6.919 19.58 1.583 13 1.583zm5.166 9.902a1.084 1.084 0 10-1.665-1.387l-4.658 5.59-2.41-2.412A1.084 1.084 0 007.9 14.808l3.25 3.25a1.084 1.084 0 001.598-.073l5.417-6.5z"/></svg><svg viewBox="0 0 18 19" id="death-fill" xmlns="http://www.w3.org/2000/svg"><circle cx="9" cy="9.5" r="9"/><path fill-rule="evenodd" clip-rule="evenodd" d="M6.11 4.951a.708.708 0 00-.363.222c-.128.13-.247.347-.322.584l-.04.127-.126.04c-.452.141-.746.4-.813.713a.589.589 0 00.01.324c.085.35.335.59.669.643.207.033.254.034.578.015l.32-.02.108.115c.06.064.126.13.148.149.05.042.153.065.233.052.084-.014.192-.119.217-.211.035-.13.003-.191-.209-.407-.267-.27-.254-.267-.85-.26-.44.005-.47.004-.526-.03a.294.294 0 01-.128-.228c0-.122.203-.249.536-.334.107-.027.215-.063.241-.08.065-.043.112-.127.135-.243.067-.343.22-.608.352-.608.083 0 .185.057.228.128.033.056.035.086.03.525-.007.598-.011.585.26.852.208.206.27.238.39.21a.283.283 0 00.227-.288c-.001-.104-.025-.144-.19-.314l-.125-.13.02-.3c.03-.456-.007-.693-.14-.9a.866.866 0 00-.519-.346.634.634 0 00-.35 0zm5.408.005a.854.854 0 00-.498.34c-.134.21-.17.443-.14.914l.02.312-.115.108c-.156.147-.178.176-.196.255-.047.205.15.398.35.343.053-.015.119-.066.263-.209.271-.267.267-.254.26-.852-.005-.432-.003-.47.029-.522a.307.307 0 01.222-.131c.128 0 .255.2.341.538.027.106.063.214.08.24.043.065.127.112.242.134.343.068.608.222.608.353a.294.294 0 01-.128.228c-.056.034-.086.035-.525.03-.597-.007-.584-.01-.851.26-.145.148-.194.21-.209.265-.027.101.003.198.087.278a.26.26 0 00.259.07c.079-.018.11-.041.253-.194l.11-.117.31.02c.56.036.813-.022 1.025-.234a.973.973 0 00.242-.476c.063-.35-.133-.674-.52-.863a2.63 2.63 0 00-.296-.122l-.127-.04-.04-.127c-.195-.62-.602-.928-1.056-.8zM8.571 6.873c-.477.066-.897.228-1.219.47-.173.131-.395.365-.514.54-.288.428-.43.967-.43 1.628 0 .416.054.7.19.983.137.29.33.495.597.634.135.07.363.144.445.144h.044l-.011.589c-.01.58-.01.59.029.666.073.145.278.2.402.109.143-.106.15-.161.142-1.06-.005-.644-.006-.654-.046-.718-.056-.09-.164-.14-.302-.14-.136 0-.363-.058-.467-.119-.364-.214-.517-.755-.421-1.493.034-.267.092-.476.185-.673.09-.19.158-.288.303-.44.15-.158.295-.26.508-.361.314-.15.727-.22 1.146-.197.543.03.96.19 1.281.491.32.3.49.66.557 1.18.096.738-.057 1.28-.42 1.493a1.166 1.166 0 01-.468.119c-.138 0-.246.05-.302.14l-.04.065v.77c0 .681.003.774.029.822.119.216.42.219.515.005.031-.07.033-.114.023-.661l-.01-.587h.043c.082 0 .31-.074.445-.144.421-.22.68-.629.768-1.215.042-.282.02-.79-.047-1.127-.2-1.003-.877-1.674-1.894-1.879-.154-.03-.271-.04-.57-.044a5.156 5.156 0 00-.49.01zm-.679 1.848a.461.461 0 00-.259.148.72.72 0 00-.185.352 1.39 1.39 0 00-.002.477c.054.204.19.37.374.461.087.043.12.049.269.049.145 0 .182-.006.257-.044.348-.178.46-.773.216-1.156-.144-.226-.444-.354-.67-.287zm1.984-.012c-.387.081-.618.457-.556.903.03.212.081.33.197.445.127.128.231.166.427.157a.667.667 0 00.61-.513c.027-.1.025-.369-.002-.48-.055-.225-.174-.385-.343-.463a.668.668 0 00-.333-.049zm-1.002 1.334a.845.845 0 00-.273.322c-.027.078-.029.104-.012.173.025.099.09.188.166.227.086.044.375.049.47.007a.341.341 0 00.187-.237c.032-.129-.012-.232-.164-.383-.118-.117-.124-.12-.225-.127a.306.306 0 00-.149.018zm-2.375.91c-.044.013-.125.082-.274.234l-.211.216-.307-.02c-.675-.042-.975.07-1.17.44-.056.108-.11.3-.11.393 0 .371.302.693.805.854l.153.05.05.153c.144.45.398.726.726.79a.85.85 0 00.563-.12.671.671 0 00.259-.241c.13-.203.166-.443.137-.897l-.02-.3.188-.192c.104-.105.202-.217.218-.249.12-.234-.127-.496-.37-.392a2.261 2.261 0 00-.3.273c-.318.325-.305.286-.298.895.005.435.003.465-.03.522a.294.294 0 01-.228.128c-.122 0-.248-.203-.334-.537a1.298 1.298 0 00-.08-.241c-.043-.066-.127-.112-.242-.135-.341-.066-.608-.221-.608-.354 0-.08.06-.186.131-.228.052-.032.09-.034.522-.029.613.008.572.022.922-.332.282-.284.312-.333.282-.463a.297.297 0 00-.374-.218zm4.815.006a.287.287 0 00-.186.34c.015.056.075.128.28.335.35.354.31.34.923.332.525-.006.542-.003.616.13.093.166.012.279-.287.398-.066.026-.176.06-.246.074-.206.044-.286.103-.322.24-.103.386-.16.524-.256.623-.067.07-.145.077-.245.021-.131-.074-.135-.09-.129-.611.008-.61.02-.571-.298-.896a2.263 2.263 0 00-.3-.273.286.286 0 00-.399.262c0 .11.047.179.265.385l.17.162-.02.312c-.037.589.04.88.288 1.076.466.368 1.013.23 1.284-.326.046-.093.1-.227.123-.296l.04-.127.153-.05c.325-.104.615-.31.714-.505a.982.982 0 00.092-.343c0-.099-.053-.288-.111-.4-.195-.37-.495-.481-1.173-.438l-.31.02-.21-.216c-.163-.168-.226-.221-.28-.236-.085-.024-.088-.024-.176.007zm-2.732.618a.337.337 0 00-.188.195 3.599 3.599 0 00-.028.378c-.01.256-.007.327.014.378a.289.289 0 00.519.035c.027-.046.035-.116.046-.392.008-.194.007-.36-.002-.394a.297.297 0 00-.201-.199c-.09-.022-.09-.022-.16-.001zm.663.007a.28.28 0 00-.17.144c-.022.043-.027.107-.024.313.004.358.017.473.063.54.12.178.39.166.49-.023.04-.077.042-.085.03-.4a3.661 3.661 0 00-.028-.386.327.327 0 00-.196-.196c-.076-.022-.082-.022-.165.008z"/></svg><svg viewBox="0 0 26 26" id="error-fill" xmlns="http://www.w3.org/2000/svg"><path d="M13 23.833a10.834 10.834 0 100-21.667 10.834 10.834 0 000 21.667zm-1.625-5.958a1.625 1.625 0 113.25 0 1.625 1.625 0 01-3.25 0zm.559-10.487a1.084 1.084 0 012.132 0l.017.195V13l-.017.195a1.083 1.083 0 01-2.132 0L11.916 13V7.583l.018-.195z"/></svg><svg viewBox="0 0 20 20" id="link" xmlns="http://www.w3.org/2000/svg"><path d="M11.075 7.742l-3.333 3.333a.833.833 0 000 1.183.833.833 0 001.183 0l3.333-3.333a.837.837 0 10-1.183-1.183z"/><path d="M10.233 14.5l-1.067 1.058a3.5 3.5 0 01-4.65.334 3.333 3.333 0 01-.225-4.942l1.184-1.192a.833.833 0 000-1.183.833.833 0 00-1.184 0L3.233 9.642a5.125 5.125 0 00-.558 6.725 5.05 5.05 0 007.558.5l1.183-1.184a.837.837 0 10-1.183-1.183zm6.15-11.817a5.15 5.15 0 00-6.775.567l-.9.917a.908.908 0 00-.142 1.341.833.833 0 001.184 0l1.083-1.091a3.475 3.475 0 014.642-.334 3.333 3.333 0 01.225 4.959l-1.184 1.191a.833.833 0 000 1.184.834.834 0 001.184 0l1.183-1.184a5.05 5.05 0 00-.5-7.55z"/></svg><svg viewBox="0 0 18 19" id="link-fill" xmlns="http://www.w3.org/2000/svg"><circle cx="9" cy="9.5" r="9"/><g clip-path="url(#gclip0_275_2560)" fill-rule="evenodd" clip-rule="evenodd"><path d="M6.794 8.498c.414-.422.977-.66 1.566-.66.589 0 1.152.238 1.566.66a.443.443 0 01-.632.62 1.309 1.309 0 00-.934-.395c-.349 0-.685.141-.935.395m0 0l-1.25 1.274c-.25.255-.391.601-.391.965 0 .363.141.71.39.964.25.254.587.396.935.396.35 0 .685-.142.935-.396l.625-.637a.443.443 0 01.632.62l-.625.637c-.414.422-.978.66-1.567.66s-1.152-.238-1.566-.66a2.263 2.263 0 01-.645-1.584c0-.593.231-1.163.645-1.585l1.25-1.274"/><path d="M9.325 6.059c.414-.422.977-.66 1.566-.66.59 0 1.152.238 1.566.66.414.422.645.992.645 1.584 0 .593-.231 1.163-.645 1.585l-1.25 1.274c-.414.422-.978.66-1.566.66a2.194 2.194 0 01-1.567-.66.443.443 0 11.632-.62c.25.254.586.395.935.395.348 0 .685-.141.934-.395l1.25-1.274c.25-.255.392-.601.392-.965 0-.363-.142-.71-.392-.964a1.309 1.309 0 00-.934-.395c-.349 0-.685.14-.934.395l-.626.637a.443.443 0 01-.631-.62l.625-.637z"/></g><defs><clipPath id="gclip0_275_2560"><path transform="translate(4.426 4.926)" d="M0 0h9.148v9.148H0z"/></clipPath></defs></svg><svg viewBox="0 0 18 18" id="location" xmlns="http://www.w3.org/2000/svg"><path d="M10.688 7.875a1.687 1.687 0 10-3.375 0 1.687 1.687 0 003.375 0zm5.062 0c0 3.233-3.484 6.768-5.446 8.503a1.958 1.958 0 01-2.608 0c-1.962-1.735-5.446-5.27-5.446-8.503a6.75 6.75 0 1113.5 0zm-1.125 0a5.625 5.625 0 10-11.25 0c0 1.246.692 2.694 1.766 4.143 1.051 1.416 2.348 2.675 3.3 3.517a.833.833 0 001.118 0c.952-.842 2.25-2.1 3.3-3.517 1.074-1.449 1.766-2.897 1.766-4.143z"/></svg><svg viewBox="0 0 18 19" id="nouser-fill" xmlns="http://www.w3.org/2000/svg"><circle cx="9" cy="9.5" r="9"/><g clip-path="url(#iclip0_275_2562)"><path d="M11.479 10.013a2.674 2.674 0 00-.319-.12c-.304-.101-.51-.192-.758-.337-.31-.18-.322-.186-.402-.177a.266.266 0 00-.206.153.238.238 0 00.026.242c.113.157.818.496 1.23.62.116.035.199.07.237.11.094.088.147.212.171.415.018.15.009.573 0 .614-.05.059-.51.254-.941.366-.47.124-.897.177-1.428.177h-.01a5.268 5.268 0 01-2.351-.525 3.9 3.9 0 01-.006-.629c.027-.21.094-.36.198-.434.017-.011.08-.044.289-.115.142-.047.333-.12.43-.165.255-.115.647-.324.724-.428a.236.236 0 00.023-.245.265.265 0 00-.212-.153c-.08-.006-.112.012-.278.11-.306.185-.634.33-.917.412-.251.071-.422.177-.537.334-.177.236-.245.504-.245.962 0 .395.041.605.136.699.1.1.607.322.935.428.566.18 1.2.271 1.83.271.63 0 1.262-.091 1.82-.271.325-.106.859-.328.947-.437.083-.097.118-.304.118-.688.003-.63-.144-.973-.504-1.189z"/><path d="M7.929 8.94c.076.111.233.274.336.345.227.162.525.244.826.244.186 0 .372-.032.546-.097.266-.1.505-.31.673-.587.112-.189.218-.517.26-.815a5.37 5.37 0 00-.006-.95c-.115-.678-.525-1.118-1.16-1.24a2.144 2.144 0 00-.445-.026l-.145.021a1.398 1.398 0 00-.811.413c-.201.216-.322.47-.381.809-.03.162-.041.655-.02.864.038.396.159.767.327 1.018zm.18-1.379c0-.366.017-.493.091-.678a.857.857 0 01.64-.535c.06-.011.145-.017.234-.017.097 0 .194.009.262.023.413.092.64.349.717.809.027.153.03.643.006.802-.059.387-.162.632-.348.815a.692.692 0 01-.33.198c-.074.023-.1.026-.29.026-.188 0-.215-.003-.289-.026-.369-.115-.578-.413-.673-.965-.017-.092-.023-.19-.02-.452z"/></g><path fill-rule="evenodd" clip-rule="evenodd" d="M13.864 9.173c-.093-1.035-.45-1.952-1.055-2.712-.77-.968-1.867-1.595-3.133-1.79a5.748 5.748 0 00-1.35 0c-1.437.222-2.64.99-3.414 2.18a6.023 6.023 0 00-.504 1.026 4.88 4.88 0 00.24 3.807c.722 1.437 2.056 2.397 3.678 2.645a5.824 5.824 0 001.35 0 4.85 4.85 0 002.764-1.386 4.857 4.857 0 001.382-2.745c.034-.227.059-.836.042-1.025zm-.716.855a4.085 4.085 0 01-.41 1.337 5.16 5.16 0 01-.488.767l-.06.07-2.947-2.95-2.947-2.95.176-.133a4.188 4.188 0 013.586-.721 4.094 4.094 0 011.947 1.146c.253.262.377.42.553.704.32.519.53 1.119.6 1.716.029.252.024.755-.01 1.014zm-1.621 2.806a4.194 4.194 0 01-3.58.72 4.217 4.217 0 01-2.472-1.799 4.652 4.652 0 01-.414-.85 4.204 4.204 0 01.649-3.983l.1-.126 2.945 2.948c1.62 1.622 2.945 2.95 2.945 2.953 0 .002-.078.064-.173.137z"/><defs><clipPath id="iclip0_275_2562"><path transform="translate(6.197 5.811)" d="M0 0h5.79v6.784H0z"/></clipPath></defs></svg></svg>