<svg width="118" height="45" fill="none" xmlns="http://www.w3.org/2000/svg"><g clip-path="url(#a)"><path d="M23.983 14.582v-3.326c0-1.208-.753-2.279-1.905-2.757L.8 0v1.846l18.974 7.587a.752.752 0 0 1 0 1.413L.8 18.433v7.405l11.427-4.58 7.524 3.008a.752.752 0 0 1 0 1.413L.8 33.266V45l21.277-8.499c1.152-.455 1.905-1.55 1.905-2.757v-7.633c0-1.207-.753-2.278-1.905-2.757l-7.547-3.007 7.547-3.008c1.152-.455 1.905-1.55 1.905-2.757Z" fill="#5B5C5C"/></g><path d="M41.241 3.797a1.005 1.005 0 0 0-.467-.756c-.273-.179-.608-.269-1.005-.269-.29 0-.545.047-.762.141a1.217 1.217 0 0 0-.506.388.929.929 0 0 0-.18.56.8.8 0 0 0 .125.451 1.1 1.1 0 0 0 .327.31c.132.082.27.15.416.203.145.05.279.092.4.124l.666.18c.17.044.36.106.57.185.211.08.413.187.605.324.194.134.354.307.48.518.126.212.19.471.19.778 0 .355-.094.675-.28.96a1.896 1.896 0 0 1-.806.683c-.352.168-.78.253-1.284.253-.47 0-.876-.076-1.22-.228a1.943 1.943 0 0 1-.806-.634 1.808 1.808 0 0 1-.33-.944h.82c.02.248.104.452.25.615.146.16.332.28.556.358.226.077.47.115.73.115.303 0 .575-.049.817-.147a1.4 1.4 0 0 0 .573-.416.986.986 0 0 0 .21-.628.77.77 0 0 0-.182-.531 1.34 1.34 0 0 0-.48-.333 5.048 5.048 0 0 0-.643-.224l-.807-.23c-.512-.148-.918-.358-1.217-.631-.298-.273-.448-.63-.448-1.073 0-.367.1-.687.298-.96.2-.275.47-.489.807-.64a2.717 2.717 0 0 1 1.136-.231c.423 0 .798.076 1.127.227.329.15.59.355.781.615.194.26.297.556.308.887h-.769Zm4.962 2.907V3.797h.755v4.917h-.755v-.832h-.051a1.62 1.62 0 0 1-.538.637c-.243.173-.55.26-.922.26a1.65 1.65 0 0 1-.82-.202 1.411 1.411 0 0 1-.563-.615c-.137-.275-.205-.622-.205-1.04V3.796h.755V6.87c0 .359.1.645.301.858.203.214.461.32.775.32.188 0 .379-.048.573-.144a1.25 1.25 0 0 0 .493-.441c.135-.199.202-.452.202-.76Zm1.94 3.854V3.797h.73v.781h.09a6.73 6.73 0 0 1 .231-.327c.1-.134.243-.254.429-.358.188-.107.442-.16.762-.16.414 0 .779.103 1.095.31.316.207.562.5.74.88.177.38.265.829.265 1.345 0 .521-.088.973-.266 1.355a2.09 2.09 0 0 1-.736.883c-.314.207-.675.31-1.085.31-.316 0-.569-.052-.759-.156a1.408 1.408 0 0 1-.439-.362 4.86 4.86 0 0 1-.236-.34H48.9v2.6h-.756Zm.744-4.302c0 .371.054.699.163.982.109.282.268.503.477.663.21.158.465.237.768.237.316 0 .58-.083.791-.25.214-.168.374-.395.48-.678.11-.286.164-.604.164-.954a2.6 2.6 0 0 0-.16-.935c-.105-.28-.264-.5-.477-.663-.212-.164-.478-.246-.798-.246-.307 0-.565.077-.774.233-.21.154-.367.37-.474.647a2.65 2.65 0 0 0-.16.964Zm4.552 4.302V3.797h.73v.781h.09a6.73 6.73 0 0 1 .23-.327c.1-.134.244-.254.43-.358.187-.107.441-.16.761-.16.414 0 .78.103 1.095.31.316.207.563.5.74.88.177.38.266.829.266 1.345 0 .521-.089.973-.266 1.355-.177.38-.423.674-.736.883-.314.207-.676.31-1.086.31-.316 0-.569-.052-.759-.156a1.408 1.408 0 0 1-.438-.362 4.86 4.86 0 0 1-.237-.34h-.064v2.6h-.756Zm.743-4.302c0 .371.054.699.163.982.11.282.268.503.477.663.21.158.466.237.769.237.316 0 .58-.083.79-.25.214-.168.374-.395.48-.678.11-.286.164-.604.164-.954a2.58 2.58 0 0 0-.16-.935c-.105-.28-.264-.5-.477-.663-.211-.164-.477-.246-.797-.246-.308 0-.566.077-.775.233-.21.154-.367.37-.474.647a2.65 2.65 0 0 0-.16.964Zm6.55 2.56c-.444 0-.833-.105-1.168-.316a2.153 2.153 0 0 1-.781-.887c-.186-.38-.279-.824-.279-1.332 0-.512.093-.96.279-1.341a2.15 2.15 0 0 1 .78-.89 2.144 2.144 0 0 1 1.17-.317c.443 0 .832.105 1.165.317.335.211.595.508.781.89.188.382.282.829.282 1.341 0 .508-.094.952-.282 1.332-.186.38-.446.676-.781.887a2.128 2.128 0 0 1-1.166.317Zm0-.678c.338 0 .615-.086.833-.26.218-.172.379-.4.483-.681a2.61 2.61 0 0 0 .157-.916c0-.328-.052-.635-.157-.919a1.549 1.549 0 0 0-.483-.688c-.218-.175-.495-.262-.832-.262-.338 0-.615.087-.833.262a1.548 1.548 0 0 0-.483.688 2.63 2.63 0 0 0-.157.92c0 .328.052.633.157.915.104.282.265.509.483.682.218.173.495.26.833.26Zm3.184.576V3.797h.73v.743h.05c.09-.244.253-.441.487-.593.235-.151.5-.227.794-.227a8.355 8.355 0 0 1 .397.013V4.5a2.243 2.243 0 0 0-.176-.029 1.734 1.734 0 0 0-.285-.022c-.239 0-.452.05-.64.15a1.105 1.105 0 0 0-.602 1.002v3.112h-.755Zm5.603-4.917v.64H66.97v-.64h2.549Zm-1.806-1.178h.755v4.687c0 .213.031.373.093.48a.48.48 0 0 0 .243.211.98.98 0 0 0 .317.051 1.34 1.34 0 0 0 .333-.038l.154.679a1.563 1.563 0 0 1-.214.057 1.58 1.58 0 0 1-.35.032 1.52 1.52 0 0 1-.627-.137 1.247 1.247 0 0 1-.506-.42c-.132-.188-.198-.424-.198-.71V2.619Zm4.753 6.198c-.474 0-.883-.105-1.227-.314a2.106 2.106 0 0 1-.79-.884c-.184-.38-.276-.821-.276-1.325s.092-.948.276-1.332c.185-.386.444-.687.774-.903a2.081 2.081 0 0 1 1.166-.326c.256 0 .509.042.758.128.25.085.477.224.682.416.205.19.369.442.49.756.122.313.183.7.183 1.159v.32h-3.79v-.653h3.021c0-.278-.055-.525-.166-.743A1.255 1.255 0 0 0 73.1 4.6a1.31 1.31 0 0 0-.711-.188c-.301 0-.562.074-.781.224a1.466 1.466 0 0 0-.503.576c-.117.237-.176.49-.176.762v.435c0 .372.064.686.192.945.13.256.31.451.541.586.23.132.498.198.804.198.198 0 .377-.028.537-.083.163-.058.302-.143.42-.256.117-.116.208-.259.272-.43l.73.206a1.62 1.62 0 0 1-.388.653c-.18.185-.405.33-.672.435a2.494 2.494 0 0 1-.9.154Zm4.844 0c-.41 0-.772-.104-1.086-.31a2.097 2.097 0 0 1-.736-.884c-.177-.382-.266-.834-.266-1.355 0-.516.089-.964.266-1.344.177-.38.424-.674.74-.88a1.94 1.94 0 0 1 1.094-.311c.32 0 .573.053.76.16.187.104.33.224.428.358.1.133.178.242.234.327h.064v-2.42h.755v6.556h-.73V7.96h-.09c-.055.09-.134.203-.236.34a1.405 1.405 0 0 1-.439.36c-.19.105-.442.158-.758.158Zm.102-.679c.303 0 .56-.079.768-.237.21-.16.369-.38.477-.663.11-.283.164-.611.164-.982a2.67 2.67 0 0 0-.16-.964 1.403 1.403 0 0 0-.474-.647c-.21-.156-.468-.233-.775-.233-.32 0-.587.082-.8.246a1.47 1.47 0 0 0-.477.663 2.623 2.623 0 0 0-.157.935c0 .35.053.668.16.954.109.283.269.51.48.678.214.167.478.25.794.25Zm5.881.576V2.158h.756v2.42h.064a6.95 6.95 0 0 1 .23-.327c.1-.134.244-.254.43-.358.187-.107.441-.16.761-.16.415 0 .78.103 1.095.31.316.207.563.5.74.88.177.38.266.829.266 1.345 0 .521-.089.973-.266 1.355-.177.38-.423.674-.736.883-.314.207-.676.31-1.086.31-.316 0-.569-.052-.758-.156a1.405 1.405 0 0 1-.439-.362 4.833 4.833 0 0 1-.237-.34h-.09v.756h-.73Zm.743-2.458c0 .371.055.699.163.982.11.282.268.503.478.663.209.158.465.237.768.237.316 0 .58-.083.79-.25.214-.168.374-.395.48-.678.11-.286.164-.604.164-.954a2.58 2.58 0 0 0-.16-.935 1.44 1.44 0 0 0-.477-.663c-.211-.164-.477-.246-.797-.246-.307 0-.566.077-.775.233-.21.154-.367.37-.474.647a2.67 2.67 0 0 0-.16.964Zm4.867 4.302a1.658 1.658 0 0 1-.551-.09l.192-.665c.184.047.346.064.487.051a.583.583 0 0 0 .374-.189c.111-.11.213-.291.304-.54l.141-.385-1.818-4.943h.82l1.357 3.918h.051l1.358-3.918h.82L90.35 9.43a2.13 2.13 0 0 1-.35.631c-.138.169-.3.294-.483.375a1.49 1.49 0 0 1-.614.121ZM38.815 24.429l-1.653-5.62h1.13l1.102 4.127h.054l1.105-4.127h1.13l1.099 4.108h.055l1.093-4.108h1.131l-1.65 5.62h-1.116l-1.142-4.058h-.084l-1.141 4.058h-1.113Zm9.309.113c-.554 0-1.03-.118-1.43-.355a2.407 2.407 0 0 1-.923-1.006c-.215-.434-.322-.943-.322-1.526 0-.576.107-1.083.322-1.522a2.5 2.5 0 0 1 .907-1.028c.39-.246.847-.37 1.369-.37.317 0 .624.053.922.158.297.105.564.27.801.494.237.224.423.516.56.874.137.356.205.79.205 1.3v.387h-4.468v-.82h3.396c0-.288-.059-.542-.176-.764a1.328 1.328 0 0 0-.494-.53 1.38 1.38 0 0 0-.739-.195 1.43 1.43 0 0 0-.805.227 1.522 1.522 0 0 0-.527.585c-.122.24-.183.5-.183.78v.64c0 .376.066.695.198.959.134.263.32.464.56.603.239.137.518.205.838.205.207 0 .396-.029.567-.088a1.177 1.177 0 0 0 .728-.713l1.035.187a1.874 1.874 0 0 1-.446.8c-.212.228-.48.405-.801.531a3 3 0 0 1-1.094.187Zm3.486-.113v-7.494h1.094v2.785h.066a3.06 3.06 0 0 1 .274-.406c.12-.154.286-.288.498-.403.212-.117.492-.176.841-.176.454 0 .859.115 1.215.344.356.23.635.56.838.992.205.432.307.951.307 1.559 0 .607-.101 1.128-.303 1.562a2.37 2.37 0 0 1-.835.999 2.16 2.16 0 0 1-1.21.347c-.342 0-.622-.057-.839-.172a1.585 1.585 0 0 1-.505-.402 3.051 3.051 0 0 1-.281-.41h-.092v.875H51.61Zm1.072-2.81c0 .395.057.741.172 1.039.114.297.28.53.497.698.218.166.483.25.798.25.327 0 .6-.087.82-.26a1.61 1.61 0 0 0 .497-.714c.115-.3.172-.638.172-1.013 0-.371-.056-.704-.168-1a1.53 1.53 0 0 0-.498-.698c-.22-.17-.494-.256-.823-.256a1.31 1.31 0 0 0-.805.245 1.505 1.505 0 0 0-.494.684 2.854 2.854 0 0 0-.168 1.025Zm7.657 2.912c-.502 0-.951-.087-1.346-.26a2.286 2.286 0 0 1-.933-.72 1.914 1.914 0 0 1-.366-1.076h1.149a.99.99 0 0 0 .223.578c.136.16.314.285.534.373.22.088.463.132.732.132.295 0 .556-.051.783-.154a1.28 1.28 0 0 0 .538-.428c.129-.185.194-.399.194-.64a1.15 1.15 0 0 0-.194-.662 1.264 1.264 0 0 0-.56-.454c-.244-.11-.54-.165-.886-.165h-.633v-.922h.633c.278 0 .522-.05.732-.15.212-.1.378-.239.498-.417.12-.18.179-.392.179-.633a1.14 1.14 0 0 0-.157-.604 1.057 1.057 0 0 0-.44-.406 1.426 1.426 0 0 0-.665-.146c-.244 0-.472.045-.684.135-.21.088-.381.215-.513.38a.979.979 0 0 0-.212.59h-1.094a1.85 1.85 0 0 1 .359-1.069 2.32 2.32 0 0 1 .907-.72c.376-.174.793-.26 1.251-.26.48 0 .895.094 1.244.282.352.185.622.433.813.742.192.31.287.65.285 1.018.002.419-.115.775-.351 1.068a1.702 1.702 0 0 1-.937.589v.058c.498.076.883.274 1.156.593.276.32.412.716.41 1.19a1.85 1.85 0 0 1-.344 1.108 2.35 2.35 0 0 1-.94.772 3.196 3.196 0 0 1-1.365.278Zm8.995-5.722v.878h-3.176v-.878h3.176Zm-2.305 5.62v-6.272c0-.35.077-.642.23-.874.154-.234.358-.409.611-.523.254-.117.53-.176.827-.176.22 0 .407.018.564.055.156.034.272.066.347.095l-.256.885a5.255 5.255 0 0 0-.198-.05 1.124 1.124 0 0 0-.292-.034c-.266 0-.456.066-.571.198-.112.132-.168.322-.168.57v6.126h-1.094Zm5.353.113c-.527 0-.987-.12-1.38-.362a2.442 2.442 0 0 1-.914-1.014c-.217-.434-.326-.941-.326-1.522 0-.583.109-1.093.326-1.53.217-.436.522-.775.914-1.016.393-.242.853-.363 1.38-.363.527 0 .986.121 1.38.363.392.241.697.58.914 1.017.217.436.325.946.325 1.53 0 .58-.108 1.087-.325 1.521a2.443 2.443 0 0 1-.915 1.014c-.393.241-.852.362-1.38.362Zm.003-.918c.342 0 .625-.09.85-.271.224-.18.39-.42.497-.72.11-.3.165-.631.165-.992 0-.359-.055-.688-.165-.988a1.609 1.609 0 0 0-.498-.728c-.224-.183-.507-.275-.849-.275-.344 0-.629.092-.856.275a1.634 1.634 0 0 0-.501.728c-.107.3-.161.629-.161.988 0 .36.054.691.161.991.11.3.277.54.501.72.227.181.513.272.856.272Zm7.171-1.526v-3.29h1.098v5.62h-1.076v-.973h-.059c-.129.3-.336.55-.622.75-.283.198-.635.297-1.057.297a1.9 1.9 0 0 1-.959-.238 1.67 1.67 0 0 1-.65-.713c-.157-.315-.235-.704-.235-1.168V18.81h1.094v3.443c0 .383.106.687.318.914.213.227.488.34.827.34.205 0 .409-.05.611-.153.205-.103.375-.257.509-.465.136-.207.203-.47.201-.79Zm3.435-1.006v3.337h-1.094v-5.62h1.05v.914h.07c.129-.297.331-.536.607-.717.278-.18.628-.27 1.05-.27.383 0 .718.08 1.006.24.288.16.511.396.67.71.158.315.238.704.238 1.168v3.575h-1.094v-3.443c0-.408-.107-.726-.319-.955-.212-.232-.504-.348-.874-.348-.254 0-.48.055-.677.165-.195.11-.35.27-.465.483-.112.21-.168.463-.168.76Zm6.94 3.446c-.453 0-.858-.116-1.214-.347a2.37 2.37 0 0 1-.834-1c-.2-.433-.3-.954-.3-1.561 0-.608.101-1.127.304-1.56.204-.43.485-.761.841-.99.356-.23.76-.345 1.211-.345.349 0 .63.059.842.176.214.115.38.249.497.402.12.154.213.29.278.407h.066v-2.785h1.094v7.494h-1.068v-.875h-.092c-.065.12-.16.256-.285.41-.122.154-.29.288-.505.402-.215.115-.493.172-.834.172Zm.242-.933c.315 0 .58-.083.798-.248.22-.169.385-.402.498-.7a2.88 2.88 0 0 0 .172-1.038c0-.39-.056-.732-.169-1.025a1.505 1.505 0 0 0-.494-.684c-.217-.163-.485-.245-.805-.245-.329 0-.603.085-.823.256-.22.17-.385.404-.497.699-.11.295-.165.628-.165.999 0 .375.056.713.168 1.013.112.3.278.538.498.714.222.173.495.26.82.26Zm5.513.948c-.356 0-.678-.066-.965-.198a1.627 1.627 0 0 1-.685-.581c-.165-.254-.248-.565-.248-.933 0-.317.06-.578.183-.783a1.35 1.35 0 0 1 .493-.487c.208-.12.44-.21.696-.27.256-.062.517-.108.783-.14l.82-.095c.209-.027.361-.07.457-.128.095-.058.142-.154.142-.285v-.026c0-.32-.09-.567-.27-.743-.179-.175-.444-.263-.798-.263-.368 0-.659.082-.87.245-.21.161-.356.34-.436.538l-1.028-.234c.122-.342.3-.617.534-.827.236-.212.508-.366.816-.461.307-.098.63-.147.97-.147.224 0 .462.027.713.08.253.052.49.147.71.286.221.14.403.338.545.597.141.256.212.589.212.999v3.732h-1.07v-.769h-.043c-.071.142-.177.28-.319.417a1.69 1.69 0 0 1-.545.34c-.222.09-.488.136-.797.136Zm.238-.878c.303 0 .561-.06.776-.18.217-.119.382-.275.494-.468.115-.195.172-.403.172-.625v-.725a.568.568 0 0 1-.227.11 3.36 3.36 0 0 1-.377.084l-.413.062-.337.044a2.71 2.71 0 0 0-.582.136.999.999 0 0 0-.417.274.685.685 0 0 0-.153.468c0 .271.1.476.3.615.2.137.455.205.764.205Zm6.39-4.866v.878h-3.07v-.878h3.07Zm-2.247-1.347h1.094v5.317c0 .212.032.371.095.479a.497.497 0 0 0 .246.216.977.977 0 0 0 .332.055c.088 0 .165-.007.231-.019l.154-.03.197.905a2.145 2.145 0 0 1-.71.117 1.931 1.931 0 0 1-.805-.154 1.38 1.38 0 0 1-.603-.497c-.154-.225-.231-.507-.231-.846v-5.543Zm3.23 6.967v-5.62h1.094v5.62h-1.094Zm.553-6.487a.697.697 0 0 1-.491-.19.619.619 0 0 1-.201-.462c0-.18.067-.334.201-.46a.69.69 0 0 1 .491-.195c.19 0 .352.065.486.194.137.127.205.28.205.461a.612.612 0 0 1-.205.461.682.682 0 0 1-.486.19Zm4.154 6.6c-.527 0-.987-.12-1.38-.362a2.445 2.445 0 0 1-.914-1.014c-.218-.434-.326-.941-.326-1.522 0-.583.108-1.093.326-1.53a2.44 2.44 0 0 1 .914-1.016c.393-.242.853-.363 1.38-.363.526 0 .986.121 1.379.363.393.241.698.58.915 1.017.217.436.325.946.325 1.53 0 .58-.108 1.087-.325 1.521a2.44 2.44 0 0 1-.915 1.014c-.393.241-.853.362-1.379.362Zm.003-.918c.342 0 .625-.09.849-.271.225-.18.39-.42.498-.72.109-.3.164-.631.164-.992 0-.359-.055-.688-.164-.988a1.61 1.61 0 0 0-.498-.728c-.224-.183-.507-.275-.849-.275-.344 0-.629.092-.856.275a1.64 1.64 0 0 0-.501.728c-.107.3-.161.629-.161.988 0 .36.054.691.161.991.11.3.277.54.501.72.227.181.512.272.856.272Zm4.705-2.532v3.337h-1.094v-5.62h1.05v.914h.069a1.61 1.61 0 0 1 .608-.717c.278-.18.628-.27 1.05-.27.383 0 .718.08 1.006.24.288.16.511.396.67.71.158.315.237.704.237 1.168v3.575h-1.094v-3.443c0-.408-.106-.726-.318-.955-.212-.232-.504-.348-.874-.348-.254 0-.48.055-.677.165-.195.11-.35.27-.465.483-.112.21-.168.463-.168.76ZM39.953 37.653c-.446 0-.83-.058-1.152-.175a2.23 2.23 0 0 1-.783-.465 1.95 1.95 0 0 1-.454-.633l.94-.388c.066.107.154.22.264.34.112.122.263.226.453.311.193.086.44.128.743.128.415 0 .758-.1 1.028-.303.271-.2.407-.52.407-.959v-1.105h-.07c-.066.12-.161.253-.285.399a1.54 1.54 0 0 1-.505.38c-.215.108-.494.161-.838.161a2.34 2.34 0 0 1-1.2-.31 2.205 2.205 0 0 1-.842-.926c-.205-.41-.307-.914-.307-1.511 0-.598.101-1.11.304-1.537.204-.427.485-.754.841-.98.356-.23.76-.345 1.211-.345.349 0 .63.059.845.176.215.115.382.249.502.402.122.154.215.29.281.407h.08v-.911h1.073v5.744c0 .483-.112.88-.337 1.19a1.98 1.98 0 0 1-.91.687c-.381.149-.81.223-1.289.223Zm-.01-3.216c.314 0 .58-.073.797-.22.22-.148.385-.36.497-.636.115-.278.172-.611.172-.999 0-.378-.056-.711-.168-.999a1.484 1.484 0 0 0-.494-.673c-.217-.163-.485-.245-.805-.245-.329 0-.603.085-.823.256-.22.168-.385.398-.498.688-.11.29-.164.614-.164.973 0 .368.056.691.168.97.112.278.278.495.498.65.222.157.495.235.82.235Zm3.786.992v-5.62h1.058v.892h.058a1.36 1.36 0 0 1 .542-.713 1.55 1.55 0 0 1 .885-.264 4.65 4.65 0 0 1 .465.026v1.047a1.972 1.972 0 0 0-.234-.04 2.244 2.244 0 0 0-.337-.026c-.258 0-.489.054-.691.164a1.223 1.223 0 0 0-.652 1.102v3.432H43.73Zm5.313.124c-.356 0-.678-.066-.966-.198a1.627 1.627 0 0 1-.684-.581c-.166-.254-.249-.565-.249-.933 0-.317.061-.578.183-.783a1.35 1.35 0 0 1 .494-.487c.208-.12.44-.21.695-.27a6.93 6.93 0 0 1 .783-.14l.82-.095c.21-.027.362-.07.457-.128.095-.058.143-.154.143-.285v-.026c0-.32-.09-.567-.27-.743-.179-.175-.445-.263-.798-.263-.369 0-.659.082-.871.245-.21.161-.355.34-.436.538l-1.028-.234c.122-.342.3-.617.534-.827.237-.212.509-.366.816-.461.308-.098.63-.147.97-.147.224 0 .462.027.713.08.254.052.49.147.71.286.222.14.404.338.545.597.142.256.213.589.213.999v3.732h-1.069v-.769h-.044c-.07.142-.177.28-.318.417a1.69 1.69 0 0 1-.545.34 2.12 2.12 0 0 1-.798.136Zm.238-.878c.303 0 .561-.06.776-.18.217-.119.381-.275.494-.468.114-.195.172-.403.172-.625v-.725a.568.568 0 0 1-.227.11 3.41 3.41 0 0 1-.377.084l-.413.062-.337.044a2.71 2.71 0 0 0-.582.136.999.999 0 0 0-.417.274.685.685 0 0 0-.154.468c0 .271.1.476.3.615.2.137.455.205.765.205Zm4.86-2.583v3.337h-1.094v-5.62h1.05v.914h.07c.129-.297.331-.536.607-.717.278-.18.628-.27 1.05-.27.383 0 .718.08 1.006.24.288.16.511.396.67.71.158.315.238.704.238 1.168v3.575h-1.094v-3.443c0-.408-.106-.726-.319-.955-.212-.232-.503-.348-.874-.348-.254 0-.48.055-.677.165-.195.11-.35.27-.465.483-.112.21-.168.463-.168.76Zm7.46-2.283v.878h-3.07v-.878h3.07Zm-2.246-1.347h1.094v5.317c0 .212.032.371.095.479a.496.496 0 0 0 .245.216.983.983 0 0 0 .333.055c.088 0 .165-.007.23-.019a4.01 4.01 0 0 0 .154-.03l.198.905a2.15 2.15 0 0 1-.71.117 1.928 1.928 0 0 1-.805-.154 1.38 1.38 0 0 1-.603-.498c-.154-.224-.23-.506-.23-.845v-5.543Zm7.35 2.719-.99.175a1.172 1.172 0 0 0-.198-.362.977.977 0 0 0-.359-.282 1.3 1.3 0 0 0-.567-.11c-.31 0-.568.07-.776.21-.207.136-.31.313-.31.53 0 .188.069.339.208.453.139.115.363.209.673.282l.893.205c.517.12.902.304 1.156.553.254.248.38.572.38.97 0 .336-.097.636-.292.9a1.917 1.917 0 0 1-.809.614 2.99 2.99 0 0 1-1.196.223c-.63 0-1.143-.134-1.54-.403-.398-.27-.642-.654-.732-1.152l1.057-.161c.066.276.201.484.406.626.205.139.472.208.802.208.358 0 .645-.074.86-.223.214-.151.321-.335.321-.552a.574.574 0 0 0-.197-.443c-.13-.12-.328-.21-.597-.27l-.95-.21c-.525-.119-.913-.31-1.164-.57-.25-.261-.374-.592-.374-.992 0-.331.093-.622.279-.87.185-.25.441-.443.768-.582a2.806 2.806 0 0 1 1.123-.213c.608 0 1.086.132 1.434.396.35.26.58.61.692 1.05Zm3.587 6.355V29.81h1.068v.91h.092a3.06 3.06 0 0 1 .274-.405c.12-.154.285-.288.498-.403.212-.117.493-.176.841-.176.454 0 .859.115 1.215.344.356.23.635.56.838.992.205.432.307.951.307 1.559 0 .607-.101 1.128-.303 1.562a2.37 2.37 0 0 1-.835.999 2.16 2.16 0 0 1-1.21.347c-.342 0-.621-.057-.839-.172a1.585 1.585 0 0 1-.504-.402 3.051 3.051 0 0 1-.282-.41h-.066v2.982H70.29Zm1.072-4.917c0 .395.057.741.172 1.039.115.297.28.53.498.698.217.166.483.25.797.25.327 0 .6-.087.82-.26a1.61 1.61 0 0 0 .497-.714c.115-.3.172-.638.172-1.013 0-.371-.056-.704-.168-1a1.53 1.53 0 0 0-.498-.698c-.22-.17-.494-.256-.823-.256a1.31 1.31 0 0 0-.805.245 1.505 1.505 0 0 0-.494.684 2.854 2.854 0 0 0-.168 1.025Zm5.06 2.81v-5.62h1.058v.892h.058a1.36 1.36 0 0 1 .542-.713 1.55 1.55 0 0 1 .885-.264 4.65 4.65 0 0 1 .465.026v1.047a1.97 1.97 0 0 0-.234-.04 2.244 2.244 0 0 0-.337-.026 1.43 1.43 0 0 0-.692.164 1.223 1.223 0 0 0-.65 1.102v3.432h-1.095Zm5.894.113c-.527 0-.987-.12-1.38-.362a2.442 2.442 0 0 1-.914-1.014c-.217-.434-.326-.941-.326-1.522 0-.583.109-1.093.326-1.53.217-.436.522-.775.915-1.016.392-.242.852-.363 1.379-.363s.987.121 1.38.363c.392.241.697.58.914 1.017.217.436.326.946.326 1.53 0 .58-.109 1.087-.326 1.521a2.443 2.443 0 0 1-.915 1.014c-.392.241-.852.362-1.38.362Zm.004-.918c.341 0 .624-.09.848-.271.225-.18.39-.42.498-.72.11-.3.165-.631.165-.992 0-.359-.055-.688-.165-.988a1.608 1.608 0 0 0-.498-.728c-.224-.183-.507-.275-.848-.275-.344 0-.63.092-.857.275a1.634 1.634 0 0 0-.5.728c-.108.3-.162.629-.162.988 0 .36.054.691.161.991.11.3.277.54.501.72.227.181.513.272.857.272Zm5.966 3.03c-.446 0-.83-.06-1.152-.177a2.23 2.23 0 0 1-.783-.464 1.95 1.95 0 0 1-.454-.633l.94-.388c.066.107.154.22.264.34.112.122.263.226.454.311.192.086.44.128.742.128.415 0 .758-.1 1.028-.303.271-.2.407-.52.407-.959v-1.105h-.07c-.066.12-.16.253-.285.399a1.54 1.54 0 0 1-.505.38c-.215.108-.494.161-.838.161a2.34 2.34 0 0 1-1.2-.31 2.206 2.206 0 0 1-.842-.926c-.205-.41-.307-.914-.307-1.511 0-.598.101-1.11.304-1.537.205-.427.485-.754.841-.98.356-.23.76-.345 1.211-.345.35 0 .63.059.846.176.214.115.381.249.5.402.123.154.217.29.282.407h.081v-.911h1.072v5.744c0 .483-.112.88-.337 1.19a1.98 1.98 0 0 1-.91.687c-.381.149-.81.223-1.289.223Zm-.01-3.217c.314 0 .58-.073.797-.22.22-.148.386-.36.498-.636.114-.278.172-.611.172-.999 0-.378-.056-.711-.169-.999a1.484 1.484 0 0 0-.494-.673c-.217-.163-.485-.245-.805-.245-.329 0-.603.085-.823.256-.22.168-.385.398-.497.688-.11.29-.165.614-.165.973 0 .368.056.691.168.97.112.278.278.495.498.65.222.157.495.235.82.235Zm3.787.992v-5.62h1.057v.892h.059c.102-.302.282-.54.541-.713a1.55 1.55 0 0 1 .885-.264 4.65 4.65 0 0 1 .465.026v1.047a1.972 1.972 0 0 0-.234-.04 2.244 2.244 0 0 0-.337-.026c-.258 0-.489.054-.691.164a1.223 1.223 0 0 0-.651 1.102v3.432h-1.094Zm5.312.124c-.356 0-.678-.066-.966-.198a1.627 1.627 0 0 1-.684-.581c-.166-.254-.249-.565-.249-.933 0-.317.061-.578.183-.783a1.35 1.35 0 0 1 .494-.487c.208-.12.44-.21.696-.27.256-.062.517-.108.782-.14l.82-.095c.21-.027.362-.07.457-.128.095-.058.143-.154.143-.285v-.026c0-.32-.09-.567-.27-.743-.179-.175-.445-.263-.798-.263-.369 0-.659.082-.871.245-.21.161-.355.34-.436.538l-1.028-.234c.122-.342.3-.617.535-.827.236-.212.508-.366.816-.461.307-.098.63-.147.97-.147.224 0 .461.027.713.08.253.052.49.147.71.286.221.14.403.338.544.597.142.256.213.589.213.999v3.732h-1.069v-.769h-.044c-.07.142-.176.28-.318.417a1.69 1.69 0 0 1-.545.34 2.12 2.12 0 0 1-.798.136Zm.238-.878c.303 0 .561-.06.776-.18.217-.119.382-.275.494-.468.114-.195.172-.403.172-.625v-.725a.568.568 0 0 1-.227.11 3.36 3.36 0 0 1-.377.084l-.413.062-.337.044a2.712 2.712 0 0 0-.582.136.999.999 0 0 0-.417.274.686.686 0 0 0-.154.468c0 .271.1.476.3.615.2.137.455.205.765.205Zm3.766.754v-5.62h1.05v.914h.07a1.45 1.45 0 0 1 .574-.724c.266-.176.584-.264.955-.264.376 0 .691.088.944.264.256.175.445.417.567.724h.059c.134-.3.347-.539.64-.717.293-.18.642-.27 1.047-.27.509 0 .925.16 1.247.479.325.32.487.801.487 1.445v3.769h-1.094v-3.667c0-.38-.104-.656-.311-.826a1.131 1.131 0 0 0-.743-.257c-.356 0-.633.11-.83.33-.198.217-.297.496-.297.838v3.582h-1.09v-3.736c0-.305-.095-.55-.286-.736-.19-.185-.437-.278-.742-.278-.208 0-.399.055-.575.165a1.205 1.205 0 0 0-.42.45 1.378 1.378 0 0 0-.158.67v3.465h-1.094Z" fill="#5B5C5C"/><defs><clipPath id="a"><path fill="#fff" transform="translate(.8)" d="M0 0h23.182v45H0z"/></clipPath></defs></svg>