<svg width="118" height="45" viewBox="0 0 118 45" fill="none" xmlns="http://www.w3.org/2000/svg">
<g clip-path="url(#clip0_178_728)">
<path d="M23.9827 14.5823V11.2557C23.9827 10.0481 23.2303 8.97721 22.0783 8.49873L0.800293 0V1.84557L19.7741 9.43291C20.4325 9.68354 20.4325 10.5949 19.7741 10.8456L0.800293 18.4329V25.838L12.2269 21.2582L19.7506 24.2658C20.409 24.5165 20.409 25.4278 19.7506 25.6785L0.800293 33.2658V45L22.0783 36.5013C23.2303 36.0456 23.9827 34.9519 23.9827 33.7443V26.1114C23.9827 24.9038 23.2303 23.8329 22.0783 23.3544L14.5311 20.3468L22.0783 17.3392C23.2303 16.8835 23.9827 15.7899 23.9827 14.5823Z" fill="#5B5C5C"/>
</g>
<path d="M41.2412 3.79684C41.2028 3.47243 41.047 3.22057 40.7738 3.04129C40.5006 2.86201 40.1655 2.77237 39.7685 2.77237C39.4783 2.77237 39.2243 2.81932 39.0066 2.91323C38.791 3.00714 38.6224 3.13627 38.5007 3.30061C38.3812 3.46495 38.3214 3.65171 38.3214 3.86087C38.3214 4.03589 38.3631 4.18636 38.4463 4.31228C38.5317 4.43607 38.6405 4.53959 38.7729 4.62283C38.9052 4.70393 39.0439 4.77116 39.1891 4.82452C39.3342 4.87574 39.4676 4.91736 39.5892 4.94938L40.2551 5.12866C40.4259 5.17348 40.6158 5.23538 40.825 5.31435C41.0363 5.39332 41.238 5.5011 41.4301 5.6377C41.6243 5.77216 41.7844 5.94504 41.9103 6.15634C42.0362 6.36764 42.0992 6.62696 42.0992 6.9343C42.0992 7.2886 42.0064 7.60875 41.8207 7.89474C41.6371 8.18074 41.3682 8.40805 41.0139 8.57666C40.6617 8.74527 40.2338 8.82958 39.7301 8.82958C39.2606 8.82958 38.854 8.75381 38.5103 8.60227C38.1688 8.45074 37.8999 8.23944 37.7036 7.96838C37.5093 7.69732 37.3994 7.38251 37.3738 7.02394H38.1934C38.2147 7.27152 38.298 7.47642 38.4431 7.63863C38.5904 7.7987 38.7761 7.91822 39.0002 7.99719C39.2264 8.07403 39.4697 8.11245 39.7301 8.11245C40.0332 8.11245 40.3053 8.06336 40.5465 7.96518C40.7877 7.86486 40.9787 7.72613 41.1195 7.54898C41.2604 7.3697 41.3308 7.16054 41.3308 6.92149C41.3308 6.70379 41.27 6.52664 41.1484 6.39005C41.0267 6.25345 40.8666 6.14246 40.6681 6.05709C40.4696 5.97172 40.2551 5.89702 40.0246 5.83299L39.2179 5.60248C38.7056 5.45521 38.3001 5.24498 38.0013 4.97179C37.7025 4.69859 37.5531 4.34109 37.5531 3.89929C37.5531 3.53219 37.6523 3.21204 37.8508 2.93884C38.0515 2.66352 38.3204 2.45008 38.6576 2.29855C38.997 2.14488 39.3758 2.06804 39.7941 2.06804C40.2167 2.06804 40.5924 2.14381 40.9211 2.29535C41.2497 2.44475 41.5101 2.64964 41.7022 2.91003C41.8964 3.17042 41.9989 3.46602 42.0096 3.79684H41.2412ZM46.2029 6.70379V3.79684H46.9584V8.71432H46.2029V7.88194H46.1516C46.0364 8.13165 45.8571 8.34402 45.6138 8.51903C45.3705 8.69191 45.0631 8.77835 44.6918 8.77835C44.3844 8.77835 44.1112 8.71112 43.8722 8.57666C43.6331 8.44006 43.4453 8.23517 43.3087 7.96198C43.1721 7.68665 43.1038 7.33982 43.1038 6.92149V3.79684H43.8594V6.87027C43.8594 7.22884 43.9597 7.51483 44.1603 7.72827C44.3631 7.9417 44.6213 8.04842 44.9351 8.04842C45.1229 8.04842 45.3139 8.00039 45.5081 7.90435C45.7045 7.8083 45.8688 7.66104 46.0012 7.46254C46.1356 7.26405 46.2029 7.01113 46.2029 6.70379ZM48.1439 10.5584V3.79684H48.8739V4.578H48.9635C49.019 4.49263 49.0958 4.38378 49.194 4.25145C49.2943 4.11699 49.4373 3.99747 49.623 3.89289C49.8108 3.78617 50.0648 3.73281 50.385 3.73281C50.799 3.73281 51.164 3.83633 51.4799 4.04336C51.7957 4.25039 52.0423 4.54386 52.2194 4.92377C52.3966 5.30367 52.4851 5.75188 52.4851 6.26839C52.4851 6.78916 52.3966 7.24057 52.2194 7.62262C52.0423 8.00253 51.7968 8.29706 51.4831 8.50623C51.1693 8.71326 50.8076 8.81677 50.3978 8.81677C50.0819 8.81677 49.829 8.76448 49.639 8.6599C49.4491 8.55318 49.3029 8.43259 49.2004 8.29813C49.098 8.16154 49.019 8.04842 48.9635 7.95877H48.8995V10.5584H48.1439ZM48.8867 6.25558C48.8867 6.62696 48.9411 6.95457 49.0499 7.23844C49.1588 7.52017 49.3178 7.74107 49.527 7.90115C49.7361 8.05909 49.9922 8.13806 50.2953 8.13806C50.6112 8.13806 50.8748 8.05482 51.0861 7.88834C51.2995 7.71973 51.4596 7.49349 51.5663 7.20963C51.6752 6.92363 51.7296 6.60561 51.7296 6.25558C51.7296 5.90982 51.6762 5.59821 51.5695 5.32075C51.4649 5.04115 51.3059 4.82025 51.0925 4.65804C50.8812 4.4937 50.6155 4.41153 50.2953 4.41153C49.988 4.41153 49.7297 4.48943 49.5206 4.64524C49.3114 4.79891 49.1535 5.01447 49.0467 5.29194C48.94 5.56726 48.8867 5.88848 48.8867 6.25558ZM53.4393 10.5584V3.79684H54.1693V4.578H54.2589C54.3144 4.49263 54.3912 4.38378 54.4894 4.25145C54.5897 4.11699 54.7327 3.99747 54.9184 3.89289C55.1062 3.78617 55.3602 3.73281 55.6804 3.73281C56.0944 3.73281 56.4594 3.83633 56.7753 4.04336C57.0912 4.25039 57.3377 4.54386 57.5148 4.92377C57.692 5.30367 57.7805 5.75188 57.7805 6.26839C57.7805 6.78916 57.692 7.24057 57.5148 7.62262C57.3377 8.00253 57.0922 8.29706 56.7785 8.50623C56.4647 8.71326 56.103 8.81677 55.6932 8.81677C55.3773 8.81677 55.1244 8.76448 54.9344 8.6599C54.7445 8.55318 54.5983 8.43259 54.4958 8.29813C54.3934 8.16154 54.3144 8.04842 54.2589 7.95877H54.1949V10.5584H53.4393ZM54.1821 6.25558C54.1821 6.62696 54.2365 6.95457 54.3453 7.23844C54.4542 7.52017 54.6132 7.74107 54.8224 7.90115C55.0315 8.05909 55.2877 8.13806 55.5907 8.13806C55.9066 8.13806 56.1702 8.05482 56.3815 7.88834C56.5949 7.71973 56.755 7.49349 56.8617 7.20963C56.9706 6.92363 57.025 6.60561 57.025 6.25558C57.025 5.90982 56.9716 5.59821 56.8649 5.32075C56.7603 5.04115 56.6013 4.82025 56.3879 4.65804C56.1766 4.4937 55.9109 4.41153 55.5907 4.41153C55.2834 4.41153 55.0251 4.48943 54.816 4.64524C54.6068 4.79891 54.4489 5.01447 54.3421 5.29194C54.2354 5.56726 54.1821 5.88848 54.1821 6.25558ZM60.7325 8.81677C60.2885 8.81677 59.899 8.71112 59.5639 8.49983C59.231 8.28853 58.9706 7.99292 58.7828 7.61301C58.5971 7.2331 58.5042 6.78916 58.5042 6.2812C58.5042 5.76896 58.5971 5.32182 58.7828 4.93977C58.9706 4.55773 59.231 4.26106 59.5639 4.04976C59.899 3.83846 60.2885 3.73281 60.7325 3.73281C61.1764 3.73281 61.5649 3.83846 61.8978 4.04976C62.2329 4.26106 62.4933 4.55773 62.679 4.93977C62.8668 5.32182 62.9607 5.76896 62.9607 6.2812C62.9607 6.78916 62.8668 7.2331 62.679 7.61301C62.4933 7.99292 62.2329 8.28853 61.8978 8.49983C61.5649 8.71112 61.1764 8.81677 60.7325 8.81677ZM60.7325 8.13806C61.0697 8.13806 61.3472 8.05162 61.5649 7.87874C61.7826 7.70586 61.9437 7.47855 62.0483 7.19682C62.1529 6.91509 62.2052 6.60988 62.2052 6.2812C62.2052 5.95251 62.1529 5.64623 62.0483 5.36237C61.9437 5.0785 61.7826 4.84906 61.5649 4.67405C61.3472 4.49903 61.0697 4.41153 60.7325 4.41153C60.3952 4.41153 60.1178 4.49903 59.9001 4.67405C59.6824 4.84906 59.5212 5.0785 59.4167 5.36237C59.3121 5.64623 59.2598 5.95251 59.2598 6.2812C59.2598 6.60988 59.3121 6.91509 59.4167 7.19682C59.5212 7.47855 59.6824 7.70586 59.9001 7.87874C60.1178 8.05162 60.3952 8.13806 60.7325 8.13806ZM63.9157 8.71432V3.79684H64.6456V4.53959H64.6969C64.7865 4.29627 64.9487 4.09885 65.1835 3.94731C65.4183 3.79577 65.6829 3.72001 65.9775 3.72001C66.0329 3.72001 66.1023 3.72107 66.1856 3.72321C66.2688 3.72534 66.3318 3.72854 66.3744 3.73281V4.50117C66.3488 4.49477 66.2901 4.48516 66.1984 4.47236C66.1087 4.45742 66.0137 4.44995 65.9134 4.44995C65.6744 4.44995 65.4609 4.5001 65.2731 4.60042C65.0874 4.69859 64.9402 4.83519 64.8313 5.01021C64.7246 5.18309 64.6712 5.38051 64.6712 5.60248V8.71432H63.9157ZM69.5185 3.79684V4.43714H66.9701V3.79684H69.5185ZM67.7128 2.6187H68.4684V7.30567C68.4684 7.5191 68.4993 7.67918 68.5612 7.78589C68.6252 7.89048 68.7063 7.96091 68.8045 7.99719C68.9048 8.03134 69.0105 8.04842 69.1215 8.04842C69.2047 8.04842 69.273 8.04415 69.3264 8.03561C69.3797 8.02494 69.4224 8.0164 69.4544 8.01L69.6081 8.68871C69.5569 8.70792 69.4854 8.72713 69.3936 8.74634C69.3018 8.76768 69.1855 8.77835 69.0446 8.77835C68.8312 8.77835 68.622 8.73247 68.4171 8.64069C68.2144 8.54891 68.0458 8.40912 67.9113 8.2213C67.779 8.03348 67.7128 7.79657 67.7128 7.51057V2.6187ZM72.4656 8.81677C71.9918 8.81677 71.583 8.71219 71.2394 8.50303C70.8979 8.29173 70.6343 7.99719 70.4486 7.61942C70.2651 7.23951 70.1733 6.7977 70.1733 6.294C70.1733 5.7903 70.2651 5.34636 70.4486 4.96218C70.6343 4.57587 70.8926 4.27493 71.2234 4.05936C71.5564 3.84166 71.9448 3.73281 72.3887 3.73281C72.6449 3.73281 72.8978 3.7755 73.1475 3.86087C73.3972 3.94624 73.6245 4.08498 73.8294 4.27707C74.0343 4.46702 74.1976 4.71887 74.3192 5.03262C74.4409 5.34636 74.5017 5.73267 74.5017 6.19155V6.5117H70.7112V5.8586H73.7334C73.7334 5.58114 73.6779 5.33356 73.5669 5.11585C73.458 4.89815 73.3022 4.72634 73.0995 4.60042C72.8988 4.47449 72.6619 4.41153 72.3887 4.41153C72.0878 4.41153 71.8274 4.48623 71.6076 4.63563C71.3899 4.7829 71.2223 4.97499 71.1049 5.2119C70.9876 5.44881 70.9289 5.70279 70.9289 5.97385V6.40926C70.9289 6.78063 70.9929 7.09544 71.1209 7.35369C71.2511 7.60981 71.4315 7.8051 71.662 7.93957C71.8925 8.07189 72.1604 8.13806 72.4656 8.13806C72.6641 8.13806 72.8433 8.11031 73.0034 8.05482C73.1656 7.99719 73.3054 7.91182 73.4228 7.7987C73.5402 7.68345 73.6309 7.54045 73.6949 7.3697L74.4249 7.5746C74.348 7.82218 74.2189 8.03988 74.0375 8.2277C73.8561 8.41339 73.632 8.55852 73.3652 8.6631C73.0984 8.76555 72.7985 8.81677 72.4656 8.81677ZM77.3096 8.81677C76.8998 8.81677 76.538 8.71326 76.2243 8.50623C75.9105 8.29706 75.6651 8.00253 75.4879 7.62262C75.3108 7.24057 75.2222 6.78916 75.2222 6.26839C75.2222 5.75188 75.3108 5.30367 75.4879 4.92377C75.6651 4.54386 75.9116 4.25039 76.2275 4.04336C76.5434 3.83633 76.9083 3.73281 77.3224 3.73281C77.6425 3.73281 77.8954 3.78617 78.0811 3.89289C78.269 3.99747 78.412 4.11699 78.5101 4.25145C78.6104 4.38378 78.6883 4.49263 78.7438 4.578H78.8079V2.15768H79.5634V8.71432H78.8335V7.95877H78.7438C78.6883 8.04842 78.6094 8.16154 78.5069 8.29813C78.4045 8.43259 78.2583 8.55318 78.0683 8.6599C77.8784 8.76448 77.6255 8.81677 77.3096 8.81677ZM77.412 8.13806C77.7151 8.13806 77.9712 8.05909 78.1804 7.90115C78.3895 7.74107 78.5486 7.52017 78.6574 7.23844C78.7663 6.95457 78.8207 6.62696 78.8207 6.25558C78.8207 5.88848 78.7673 5.56726 78.6606 5.29194C78.5539 5.01447 78.3959 4.79891 78.1868 4.64524C77.9776 4.48943 77.7194 4.41153 77.412 4.41153C77.0919 4.41153 76.8251 4.4937 76.6117 4.65804C76.4004 4.82025 76.2413 5.04115 76.1346 5.32075C76.03 5.59821 75.9778 5.90982 75.9778 6.25558C75.9778 6.60561 76.0311 6.92363 76.1378 7.20963C76.2467 7.49349 76.4068 7.71973 76.6181 7.88834C76.8315 8.05482 77.0961 8.13806 77.412 8.13806ZM83.2935 8.71432V2.15768H84.049V4.578H84.113C84.1685 4.49263 84.2454 4.38378 84.3435 4.25145C84.4439 4.11699 84.5869 3.99747 84.7725 3.89289C84.9604 3.78617 85.2144 3.73281 85.5345 3.73281C85.9486 3.73281 86.3135 3.83633 86.6294 4.04336C86.9453 4.25039 87.1918 4.54386 87.369 4.92377C87.5461 5.30367 87.6347 5.75188 87.6347 6.26839C87.6347 6.78916 87.5461 7.24057 87.369 7.62262C87.1918 8.00253 86.9464 8.29706 86.6326 8.50623C86.3189 8.71326 85.9571 8.81677 85.5473 8.81677C85.2314 8.81677 84.9785 8.76448 84.7886 8.6599C84.5986 8.55318 84.4524 8.43259 84.35 8.29813C84.2475 8.16154 84.1685 8.04842 84.113 7.95877H84.0234V8.71432H83.2935ZM84.0362 6.25558C84.0362 6.62696 84.0906 6.95457 84.1995 7.23844C84.3083 7.52017 84.4673 7.74107 84.6765 7.90115C84.8857 8.05909 85.1418 8.13806 85.4449 8.13806C85.7607 8.13806 86.0243 8.05482 86.2356 7.88834C86.4491 7.71973 86.6091 7.49349 86.7158 7.20963C86.8247 6.92363 86.8791 6.60561 86.8791 6.25558C86.8791 5.90982 86.8258 5.59821 86.7191 5.32075C86.6145 5.04115 86.4555 4.82025 86.242 4.65804C86.0307 4.4937 85.765 4.41153 85.4449 4.41153C85.1375 4.41153 84.8793 4.48943 84.6701 4.64524C84.4609 4.79891 84.303 5.01447 84.1963 5.29194C84.0896 5.56726 84.0362 5.88848 84.0362 6.25558ZM88.9026 10.5584C88.7746 10.5584 88.6604 10.5477 88.5601 10.5264C88.4597 10.5072 88.3904 10.4879 88.352 10.4687L88.5441 9.80283C88.7276 9.84979 88.8898 9.86686 89.0307 9.85405C89.1715 9.84125 89.2964 9.77829 89.4053 9.66517C89.5162 9.55418 89.6176 9.37383 89.7094 9.12412L89.8503 8.73994L88.0318 3.79684H88.8514L90.2088 7.71546H90.26L91.6175 3.79684H92.4371L90.3497 9.43146C90.2558 9.68544 90.1395 9.89567 90.0007 10.0622C89.862 10.2308 89.7009 10.3556 89.5173 10.4367C89.3359 10.5178 89.131 10.5584 88.9026 10.5584Z" fill="#5B5C5C"/>
<path d="M38.8154 24.4286L37.1616 18.8086H38.2922L39.3935 22.9358H39.4484L40.5533 18.8086H41.6839L42.7816 22.9175H42.8365L43.9305 18.8086H45.061L43.4109 24.4286H42.295L41.1534 20.3709H41.0692L39.9277 24.4286H38.8154ZM48.1237 24.542C47.57 24.542 47.0931 24.4237 46.6931 24.1871C46.2955 23.9481 45.9881 23.6127 45.771 23.1809C45.5564 22.7467 45.449 22.2382 45.449 21.6552C45.449 21.0795 45.5564 20.5722 45.771 20.1331C45.9881 19.694 46.2906 19.3513 46.6784 19.105C47.0687 18.8586 47.5248 18.7354 48.0468 18.7354C48.3639 18.7354 48.6713 18.7879 48.9689 18.8928C49.2664 18.9976 49.5335 19.1623 49.7701 19.3867C50.0067 19.6111 50.1933 19.9026 50.3299 20.2612C50.4665 20.6173 50.5348 21.0503 50.5348 21.5601V21.9479H46.0674V21.1283H49.4628C49.4628 20.8405 49.4043 20.5856 49.2872 20.3636C49.1701 20.1392 49.0054 19.9624 48.7932 19.8331C48.5835 19.7038 48.3371 19.6392 48.0541 19.6392C47.7468 19.6392 47.4785 19.7148 47.2492 19.866C47.0223 20.0148 46.8467 20.2099 46.7223 20.4514C46.6004 20.6905 46.5394 20.9503 46.5394 21.2308V21.8711C46.5394 22.2467 46.6052 22.5662 46.737 22.8297C46.8711 23.0931 47.0577 23.2943 47.2968 23.4334C47.5358 23.57 47.8151 23.6383 48.1346 23.6383C48.342 23.6383 48.531 23.609 48.7018 23.5505C48.8725 23.4895 49.0201 23.3992 49.1445 23.2797C49.2689 23.1602 49.364 23.0126 49.4299 22.837L50.4653 23.0236C50.3824 23.3285 50.2336 23.5956 50.0189 23.8249C49.8067 24.0517 49.5396 24.2286 49.2177 24.3554C48.8981 24.4798 48.5335 24.542 48.1237 24.542ZM51.6098 24.4286V16.9353H52.7038V19.7197H52.7696C52.8331 19.6026 52.9245 19.4672 53.0441 19.3135C53.1636 19.1599 53.3295 19.0257 53.5417 18.9111C53.7539 18.794 54.0344 18.7354 54.3832 18.7354C54.8369 18.7354 55.2418 18.8501 55.5979 19.0794C55.9541 19.3087 56.2334 19.6392 56.4358 20.0709C56.6407 20.5027 56.7432 21.0222 56.7432 21.6296C56.7432 22.2369 56.6419 22.7577 56.4395 23.1919C56.237 23.6236 55.9589 23.9566 55.6053 24.1908C55.2516 24.4225 54.8479 24.5384 54.3942 24.5384C54.0527 24.5384 53.7734 24.481 53.5563 24.3664C53.3416 24.2517 53.1733 24.1176 53.0514 23.9639C52.9294 23.8102 52.8355 23.6736 52.7696 23.5541H52.6782V24.4286H51.6098ZM52.6818 21.6186C52.6818 22.0138 52.7392 22.3601 52.8538 22.6577C52.9684 22.9553 53.1343 23.1882 53.3514 23.3565C53.5685 23.5224 53.8344 23.6053 54.149 23.6053C54.4759 23.6053 54.7491 23.5188 54.9686 23.3456C55.1881 23.1699 55.354 22.9321 55.4662 22.6321C55.5809 22.3321 55.6382 21.9942 55.6382 21.6186C55.6382 21.2478 55.5821 20.9149 55.4699 20.6197C55.3601 20.3246 55.1942 20.0916 54.9723 19.9209C54.7527 19.7502 54.4783 19.6648 54.149 19.6648C53.8319 19.6648 53.5636 19.7465 53.3441 19.9099C53.127 20.0733 52.9623 20.3014 52.8501 20.5941C52.7379 20.8868 52.6818 21.2283 52.6818 21.6186ZM60.3391 24.531C59.8366 24.531 59.3878 24.4444 58.9926 24.2713C58.5999 24.0981 58.2889 23.8578 58.0596 23.5505C57.8327 23.2407 57.7108 22.8821 57.6937 22.4748H58.8426C58.8572 22.6967 58.9316 22.8894 59.0658 23.0529C59.2024 23.2139 59.3804 23.3383 59.6 23.4261C59.8195 23.5139 60.0634 23.5578 60.3317 23.5578C60.6269 23.5578 60.8879 23.5066 61.1147 23.4041C61.344 23.3017 61.5233 23.159 61.6526 22.976C61.7819 22.7906 61.8465 22.5772 61.8465 22.3357C61.8465 22.0845 61.7819 21.8637 61.6526 21.6735C61.5257 21.4808 61.3391 21.3296 61.0928 21.2198C60.8489 21.11 60.5537 21.0551 60.2073 21.0551H59.5744V20.1331H60.2073C60.4854 20.1331 60.7293 20.0831 60.9391 19.9831C61.1513 19.8831 61.3172 19.7441 61.4367 19.566C61.5562 19.3855 61.616 19.1745 61.616 18.933C61.616 18.7013 61.5635 18.5 61.4587 18.3293C61.3562 18.1561 61.2099 18.0207 61.0196 17.9232C60.8318 17.8256 60.6098 17.7768 60.3537 17.7768C60.1098 17.7768 59.8817 17.8219 59.6695 17.9122C59.4597 18 59.289 18.1268 59.1572 18.2927C59.0255 18.4561 58.9548 18.6525 58.945 18.8818H57.851C57.8632 18.4769 57.9828 18.1207 58.2096 17.8134C58.4389 17.5061 58.7414 17.2658 59.117 17.0926C59.4926 16.9194 59.9097 16.8328 60.3683 16.8328C60.8489 16.8328 61.2635 16.9267 61.6123 17.1146C61.9636 17.2999 62.2343 17.5475 62.4246 17.8573C62.6173 18.1671 62.7124 18.5061 62.71 18.8745C62.7124 19.294 62.5953 19.6501 62.3587 19.9428C62.1246 20.2356 61.8123 20.4319 61.4221 20.5319V20.5905C61.9197 20.6661 62.3051 20.8637 62.5783 21.1832C62.8539 21.5027 62.9905 21.8991 62.9881 22.3723C62.9905 22.7845 62.8758 23.1541 62.6441 23.4809C62.4148 23.8078 62.1014 24.0651 61.7038 24.253C61.3062 24.4383 60.8513 24.531 60.3391 24.531ZM69.3337 18.8086V19.6867H66.1579V18.8086H69.3337ZM67.0287 24.4286V18.1573C67.0287 17.8061 67.1055 17.5146 67.2592 17.2829C67.4129 17.0487 67.6165 16.8743 67.8702 16.7597C68.1239 16.6426 68.3995 16.584 68.6971 16.584C68.9166 16.584 69.1045 16.6023 69.2606 16.6389C69.4167 16.6731 69.5325 16.7048 69.6082 16.734L69.352 17.6195C69.3008 17.6049 69.235 17.5878 69.1545 17.5683C69.074 17.5463 68.9764 17.5353 68.8618 17.5353C68.5959 17.5353 68.4056 17.6012 68.291 17.7329C68.1788 17.8646 68.1227 18.0549 68.1227 18.3037V24.4286H67.0287ZM72.3817 24.542C71.8549 24.542 71.3951 24.4213 71.0024 24.1798C70.6096 23.9383 70.3047 23.6005 70.0876 23.1663C69.8706 22.7321 69.762 22.2247 69.762 21.6442C69.762 21.0612 69.8706 20.5514 70.0876 20.1148C70.3047 19.6782 70.6096 19.3391 71.0024 19.0977C71.3951 18.8562 71.8549 18.7354 72.3817 18.7354C72.9086 18.7354 73.3684 18.8562 73.7611 19.0977C74.1538 19.3391 74.4587 19.6782 74.6758 20.1148C74.8929 20.5514 75.0015 21.0612 75.0015 21.6442C75.0015 22.2247 74.8929 22.7321 74.6758 23.1663C74.4587 23.6005 74.1538 23.9383 73.7611 24.1798C73.3684 24.4213 72.9086 24.542 72.3817 24.542ZM72.3854 23.6236C72.7269 23.6236 73.0098 23.5334 73.2342 23.3529C73.4587 23.1724 73.6245 22.9321 73.7319 22.6321C73.8416 22.3321 73.8965 22.0016 73.8965 21.6406C73.8965 21.282 73.8416 20.9527 73.7319 20.6527C73.6245 20.3502 73.4587 20.1075 73.2342 19.9246C73.0098 19.7416 72.7269 19.6501 72.3854 19.6501C72.0415 19.6501 71.7561 19.7416 71.5292 19.9246C71.3048 20.1075 71.1377 20.3502 71.028 20.6527C70.9206 20.9527 70.867 21.282 70.867 21.6406C70.867 22.0016 70.9206 22.3321 71.028 22.6321C71.1377 22.9321 71.3048 23.1724 71.5292 23.3529C71.7561 23.5334 72.0415 23.6236 72.3854 23.6236ZM79.556 22.0979V18.8086H80.6536V24.4286H79.5779V23.4553H79.5194C79.3901 23.7554 79.1828 24.0054 78.8974 24.2054C78.6144 24.403 78.262 24.5018 77.84 24.5018C77.479 24.5018 77.1594 24.4225 76.8814 24.2639C76.6057 24.103 76.3886 23.8651 76.2301 23.5505C76.074 23.2358 75.9959 22.8467 75.9959 22.3833V18.8086H77.0899V22.2516C77.0899 22.6345 77.196 22.9394 77.4082 23.1663C77.6205 23.3931 77.8961 23.5066 78.2351 23.5066C78.44 23.5066 78.6437 23.4553 78.8462 23.3529C79.0511 23.2504 79.2206 23.0956 79.3547 22.8882C79.4913 22.6809 79.5584 22.4174 79.556 22.0979ZM82.9909 21.0917V24.4286H81.8969V18.8086H82.947V19.7233H83.0165C83.1458 19.4257 83.3482 19.1867 83.6239 19.0062C83.902 18.8257 84.252 18.7354 84.674 18.7354C85.0569 18.7354 85.3923 18.8159 85.6801 18.9769C85.968 19.1355 86.1912 19.3721 86.3497 19.6867C86.5083 20.0014 86.5875 20.3904 86.5875 20.8539V24.4286H85.4935V20.9856C85.4935 20.5783 85.3874 20.2599 85.1752 20.0307C84.963 19.7989 84.6715 19.6831 84.3008 19.6831C84.0471 19.6831 83.8215 19.738 83.6239 19.8477C83.4287 19.9575 83.2739 20.1185 83.1592 20.3307C83.047 20.5405 82.9909 20.7941 82.9909 21.0917ZM89.9319 24.5384C89.4782 24.5384 89.0733 24.4225 88.7172 24.1908C88.3635 23.9566 88.0854 23.6236 87.8829 23.1919C87.6829 22.7577 87.5829 22.2369 87.5829 21.6296C87.5829 21.0222 87.6841 20.5027 87.8866 20.0709C88.0915 19.6392 88.372 19.3087 88.7281 19.0794C89.0843 18.8501 89.488 18.7354 89.9392 18.7354C90.288 18.7354 90.5685 18.794 90.7807 18.9111C90.9954 19.0257 91.1613 19.1599 91.2784 19.3135C91.3979 19.4672 91.4906 19.6026 91.5564 19.7197H91.6223V16.9353H92.7163V24.4286H91.6479V23.5541H91.5564C91.4906 23.6736 91.3954 23.8102 91.271 23.9639C91.1491 24.1176 90.9808 24.2517 90.7661 24.3664C90.5515 24.481 90.2734 24.5384 89.9319 24.5384ZM90.1734 23.6053C90.488 23.6053 90.7539 23.5224 90.971 23.3565C91.1905 23.1882 91.3564 22.9553 91.4686 22.6577C91.5833 22.3601 91.6406 22.0138 91.6406 21.6186C91.6406 21.2283 91.5845 20.8868 91.4723 20.5941C91.3601 20.3014 91.1954 20.0733 90.9783 19.9099C90.7612 19.7465 90.4929 19.6648 90.1734 19.6648C89.8441 19.6648 89.5697 19.7502 89.3501 19.9209C89.1306 20.0916 88.9647 20.3246 88.8525 20.6197C88.7428 20.9149 88.6879 21.2478 88.6879 21.6186C88.6879 21.9942 88.744 22.3321 88.8562 22.6321C88.9684 22.9321 89.1343 23.1699 89.3538 23.3456C89.5758 23.5188 89.849 23.6053 90.1734 23.6053ZM95.6865 24.553C95.3304 24.553 95.0084 24.4871 94.7206 24.3554C94.4328 24.2213 94.2047 24.0273 94.0364 23.7737C93.8705 23.52 93.7876 23.209 93.7876 22.8407C93.7876 22.5236 93.8486 22.2626 93.9705 22.0577C94.0925 21.8528 94.2571 21.6906 94.4645 21.571C94.6718 21.4515 94.9035 21.3613 95.1596 21.3003C95.4158 21.2393 95.6768 21.193 95.9426 21.1612C96.2792 21.1222 96.5524 21.0905 96.7622 21.0661C96.972 21.0393 97.1244 20.9966 97.2196 20.9381C97.3147 20.8795 97.3623 20.7844 97.3623 20.6527V20.6271C97.3623 20.3075 97.272 20.0599 97.0915 19.8843C96.9134 19.7087 96.6476 19.6209 96.2939 19.6209C95.9256 19.6209 95.6353 19.7026 95.4231 19.866C95.2133 20.027 95.0682 20.2063 94.9877 20.4039L93.9595 20.1697C94.0815 19.8282 94.2596 19.5526 94.4937 19.3428C94.7303 19.1306 95.0023 18.9769 95.3097 18.8818C95.617 18.7842 95.9402 18.7354 96.2792 18.7354C96.5037 18.7354 96.7415 18.7623 96.9927 18.8159C97.2464 18.8672 97.483 18.9623 97.7025 19.1013C97.9245 19.2404 98.1062 19.4391 98.2477 19.6977C98.3892 19.9538 98.4599 20.2868 98.4599 20.6966V24.4286H97.3915V23.6602H97.3476C97.2769 23.8017 97.1708 23.9407 97.0293 24.0773C96.8878 24.2139 96.7061 24.3274 96.4841 24.4176C96.2622 24.5079 95.9963 24.553 95.6865 24.553ZM95.9243 23.6749C96.2268 23.6749 96.4854 23.6151 96.7 23.4956C96.9171 23.3761 97.0818 23.22 97.194 23.0273C97.3086 22.8321 97.3659 22.6236 97.3659 22.4016V21.6771C97.3269 21.7162 97.2513 21.7528 97.1391 21.7869C97.0293 21.8186 96.9037 21.8467 96.7622 21.8711C96.6207 21.893 96.4829 21.9137 96.3488 21.9333C96.2146 21.9503 96.1024 21.965 96.0122 21.9772C95.7999 22.004 95.606 22.0491 95.4304 22.1125C95.2572 22.176 95.1182 22.2674 95.0133 22.387C94.9108 22.504 94.8596 22.6601 94.8596 22.8553C94.8596 23.126 94.9596 23.3309 95.1596 23.47C95.3597 23.6066 95.6146 23.6749 95.9243 23.6749ZM102.314 18.8086V19.6867H99.244V18.8086H102.314ZM100.067 17.4622H101.161V22.7785C101.161 22.9907 101.193 23.1504 101.256 23.2578C101.32 23.3626 101.401 23.4346 101.502 23.4736C101.604 23.5102 101.715 23.5285 101.834 23.5285C101.922 23.5285 101.999 23.5224 102.065 23.5102C102.131 23.498 102.182 23.4883 102.219 23.4809L102.416 24.3847C102.353 24.4091 102.263 24.4335 102.145 24.4579C102.028 24.4847 101.882 24.4993 101.706 24.5018C101.419 24.5066 101.15 24.4554 100.901 24.3481C100.653 24.2408 100.451 24.0749 100.298 23.8505C100.144 23.6261 100.067 23.3444 100.067 23.0053V17.4622ZM103.297 24.4286V18.8086H104.391V24.4286H103.297ZM103.85 17.9415C103.659 17.9415 103.496 17.878 103.359 17.7512C103.225 17.6219 103.158 17.4683 103.158 17.2902C103.158 17.1097 103.225 16.956 103.359 16.8292C103.496 16.6999 103.659 16.6353 103.85 16.6353C104.04 16.6353 104.202 16.6999 104.336 16.8292C104.473 16.956 104.541 17.1097 104.541 17.2902C104.541 17.4683 104.473 17.6219 104.336 17.7512C104.202 17.878 104.04 17.9415 103.85 17.9415ZM108.004 24.542C107.477 24.542 107.017 24.4213 106.624 24.1798C106.232 23.9383 105.927 23.6005 105.71 23.1663C105.492 22.7321 105.384 22.2247 105.384 21.6442C105.384 21.0612 105.492 20.5514 105.71 20.1148C105.927 19.6782 106.232 19.3391 106.624 19.0977C107.017 18.8562 107.477 18.7354 108.004 18.7354C108.53 18.7354 108.99 18.8562 109.383 19.0977C109.776 19.3391 110.081 19.6782 110.298 20.1148C110.515 20.5514 110.623 21.0612 110.623 21.6442C110.623 22.2247 110.515 22.7321 110.298 23.1663C110.081 23.6005 109.776 23.9383 109.383 24.1798C108.99 24.4213 108.53 24.542 108.004 24.542ZM108.007 23.6236C108.349 23.6236 108.632 23.5334 108.856 23.3529C109.081 23.1724 109.246 22.9321 109.354 22.6321C109.463 22.3321 109.518 22.0016 109.518 21.6406C109.518 21.282 109.463 20.9527 109.354 20.6527C109.246 20.3502 109.081 20.1075 108.856 19.9246C108.632 19.7416 108.349 19.6501 108.007 19.6501C107.663 19.6501 107.378 19.7416 107.151 19.9246C106.927 20.1075 106.76 20.3502 106.65 20.6527C106.543 20.9527 106.489 21.282 106.489 21.6406C106.489 22.0016 106.543 22.3321 106.65 22.6321C106.76 22.9321 106.927 23.1724 107.151 23.3529C107.378 23.5334 107.663 23.6236 108.007 23.6236ZM112.712 21.0917V24.4286H111.618V18.8086H112.668V19.7233H112.737C112.867 19.4257 113.069 19.1867 113.345 19.0062C113.623 18.8257 113.973 18.7354 114.395 18.7354C114.778 18.7354 115.113 18.8159 115.401 18.9769C115.689 19.1355 115.912 19.3721 116.071 19.6867C116.229 20.0014 116.308 20.3904 116.308 20.8539V24.4286H115.214V20.9856C115.214 20.5783 115.108 20.2599 114.896 20.0307C114.684 19.7989 114.392 19.6831 114.022 19.6831C113.768 19.6831 113.542 19.738 113.345 19.8477C113.15 19.9575 112.995 20.1185 112.88 20.3307C112.768 20.5405 112.712 20.7941 112.712 21.0917ZM39.9533 37.6532C39.5069 37.6532 39.1227 37.5946 38.8008 37.4775C38.4812 37.3605 38.2202 37.2056 38.0178 37.0129C37.8153 36.8202 37.6641 36.6092 37.5641 36.3799L38.5044 35.9921C38.5703 36.0994 38.6581 36.2128 38.7678 36.3323C38.88 36.4543 39.0313 36.558 39.2215 36.6433C39.4142 36.7287 39.6618 36.7714 39.9643 36.7714C40.3789 36.7714 40.7216 36.6702 40.9924 36.4677C41.2632 36.2677 41.3985 35.9481 41.3985 35.5091V34.4041H41.329C41.2632 34.5236 41.168 34.6566 41.0436 34.8029C40.9217 34.9493 40.7534 35.0761 40.5387 35.1834C40.3241 35.2908 40.0448 35.3444 39.7008 35.3444C39.2569 35.3444 38.8569 35.2408 38.5007 35.0334C38.147 34.8237 37.8665 34.5151 37.6592 34.1077C37.4543 33.698 37.3519 33.1943 37.3519 32.5966C37.3519 31.999 37.4531 31.4868 37.6555 31.0599C37.8604 30.6331 38.1409 30.3062 38.4971 30.0794C38.8532 29.8501 39.2569 29.7354 39.7082 29.7354C40.057 29.7354 40.3387 29.794 40.5533 29.9111C40.768 30.0257 40.9351 30.1599 41.0546 30.3135C41.1766 30.4672 41.2705 30.6026 41.3363 30.7197H41.4168V29.8086H42.4889V35.553C42.4889 36.036 42.3767 36.4323 42.1523 36.7421C41.9278 37.0519 41.6242 37.2812 41.2412 37.43C40.8607 37.5788 40.4314 37.6532 39.9533 37.6532ZM39.9423 34.437C40.257 34.437 40.5229 34.3639 40.7399 34.2175C40.9595 34.0687 41.1253 33.8565 41.2375 33.5809C41.3522 33.3028 41.4095 32.9698 41.4095 32.582C41.4095 32.2039 41.3534 31.871 41.2412 31.5831C41.129 31.2953 40.9644 31.0709 40.7473 30.9099C40.5302 30.7465 40.2619 30.6648 39.9423 30.6648C39.613 30.6648 39.3386 30.7502 39.1191 30.9209C38.8995 31.0892 38.7337 31.3185 38.6215 31.6088C38.5117 31.899 38.4568 32.2234 38.4568 32.582C38.4568 32.9503 38.5129 33.2735 38.6251 33.5516C38.7373 33.8297 38.9032 34.0468 39.1227 34.2029C39.3447 34.359 39.6179 34.437 39.9423 34.437ZM43.7294 35.4286V29.8086H44.7868V30.7014H44.8453C44.9478 30.3989 45.1283 30.1611 45.3868 29.9879C45.6478 29.8123 45.943 29.7245 46.2723 29.7245C46.3406 29.7245 46.4211 29.7269 46.5138 29.7318C46.6089 29.7367 46.6833 29.7427 46.737 29.7501V30.7965C46.6931 30.7843 46.615 30.7709 46.5028 30.7562C46.3906 30.7392 46.2784 30.7306 46.1662 30.7306C45.9076 30.7306 45.6771 30.7855 45.4747 30.8953C45.2746 31.0026 45.1161 31.1526 44.999 31.3453C44.8819 31.5356 44.8234 31.7527 44.8234 31.9966V35.4286H43.7294ZM49.0422 35.553C48.6861 35.553 48.3641 35.4871 48.0763 35.3554C47.7884 35.2213 47.5604 35.0273 47.3921 34.7737C47.2262 34.52 47.1433 34.209 47.1433 33.8407C47.1433 33.5236 47.2042 33.2626 47.3262 33.0577C47.4482 32.8528 47.6128 32.6906 47.8202 32.571C48.0275 32.4515 48.2592 32.3613 48.5153 32.3003C48.7715 32.2393 49.0324 32.193 49.2983 32.1612C49.6349 32.1222 49.9081 32.0905 50.1179 32.0661C50.3277 32.0393 50.4801 31.9966 50.5753 31.9381C50.6704 31.8795 50.718 31.7844 50.718 31.6527V31.6271C50.718 31.3075 50.6277 31.0599 50.4472 30.8843C50.2691 30.7087 50.0033 30.6209 49.6496 30.6209C49.2812 30.6209 48.991 30.7026 48.7788 30.866C48.569 31.027 48.4239 31.2063 48.3434 31.4039L47.3152 31.1697C47.4372 30.8282 47.6153 30.5526 47.8494 30.3428C48.086 30.1306 48.358 29.9769 48.6653 29.8818C48.9727 29.7842 49.2959 29.7354 49.6349 29.7354C49.8593 29.7354 50.0972 29.7623 50.3484 29.8159C50.6021 29.8672 50.8387 29.9623 51.0582 30.1013C51.2802 30.2404 51.4619 30.4391 51.6034 30.6977C51.7449 30.9538 51.8156 31.2868 51.8156 31.6966V35.4286H50.7472V34.6602H50.7033C50.6326 34.8017 50.5265 34.9407 50.385 35.0773C50.2435 35.2139 50.0618 35.3274 49.8398 35.4176C49.6179 35.5079 49.352 35.553 49.0422 35.553ZM49.28 34.6749C49.5825 34.6749 49.8411 34.6151 50.0557 34.4956C50.2728 34.3761 50.4374 34.22 50.5496 34.0273C50.6643 33.8321 50.7216 33.6236 50.7216 33.4016V32.6771C50.6826 32.7162 50.607 32.7528 50.4948 32.7869C50.385 32.8186 50.2594 32.8467 50.1179 32.8711C49.9764 32.893 49.8386 32.9137 49.7045 32.9333C49.5703 32.9503 49.4581 32.965 49.3678 32.9772C49.1556 33.004 48.9617 33.0491 48.7861 33.1125C48.6129 33.176 48.4739 33.2674 48.369 33.387C48.2665 33.504 48.2153 33.6601 48.2153 33.8553C48.2153 34.126 48.3153 34.3309 48.5153 34.47C48.7153 34.6066 48.9702 34.6749 49.28 34.6749ZM54.1401 32.0917V35.4286H53.0461V29.8086H54.0962V30.7233H54.1657C54.295 30.4257 54.4974 30.1867 54.773 30.0062C55.0511 29.8257 55.4011 29.7354 55.8231 29.7354C56.2061 29.7354 56.5415 29.8159 56.8293 29.9769C57.1171 30.1355 57.3403 30.3721 57.4989 30.6867C57.6574 31.0014 57.7367 31.3904 57.7367 31.8539V35.4286H56.6427V31.9856C56.6427 31.5783 56.5366 31.2599 56.3244 31.0307C56.1122 30.7989 55.8207 30.6831 55.4499 30.6831C55.1962 30.6831 54.9706 30.738 54.773 30.8477C54.5779 30.9575 54.423 31.1185 54.3084 31.3307C54.1962 31.5405 54.1401 31.7941 54.1401 32.0917ZM61.6006 29.8086V30.6867H58.5308V29.8086H61.6006ZM59.3541 28.4622H60.4481V33.7785C60.4481 33.9907 60.4798 34.1504 60.5432 34.2578C60.6066 34.3626 60.6883 34.4346 60.7883 34.4736C60.8908 34.5102 61.0018 34.5285 61.1213 34.5285C61.2091 34.5285 61.286 34.5224 61.3518 34.5102C61.4177 34.498 61.4689 34.4883 61.5055 34.4809L61.7031 35.3847C61.6396 35.4091 61.5494 35.4335 61.4323 35.4579C61.3152 35.4847 61.1689 35.4993 60.9932 35.5018C60.7054 35.5066 60.4371 35.4554 60.1883 35.3481C59.9395 35.2408 59.7383 35.0749 59.5846 34.8505C59.4309 34.6261 59.3541 34.3444 59.3541 34.0053V28.4622ZM66.7049 31.1807L65.7133 31.3563C65.6719 31.2295 65.606 31.1087 65.5157 30.9941C65.4279 30.8794 65.3084 30.7855 65.1572 30.7123C65.006 30.6392 64.8169 30.6026 64.5901 30.6026C64.2803 30.6026 64.0217 30.6721 63.8144 30.8111C63.6071 30.9477 63.5034 31.1246 63.5034 31.3417C63.5034 31.5295 63.5729 31.6807 63.7119 31.7954C63.851 31.91 64.0754 32.0039 64.3852 32.0771L65.2779 32.282C65.795 32.4015 66.1804 32.5857 66.4341 32.8345C66.6878 33.0833 66.8146 33.4065 66.8146 33.8041C66.8146 34.1407 66.7171 34.4407 66.5219 34.7041C66.3292 34.9651 66.0597 35.17 65.7133 35.3188C65.3694 35.4676 64.9706 35.542 64.5169 35.542C63.8876 35.542 63.3741 35.4079 62.9765 35.1395C62.5789 34.8688 62.335 34.4846 62.2447 33.987L63.3022 33.826C63.368 34.1016 63.5034 34.3102 63.7083 34.4517C63.9132 34.5907 64.1803 34.6602 64.5096 34.6602C64.8681 34.6602 65.1547 34.5858 65.3694 34.437C65.584 34.2858 65.6914 34.1016 65.6914 33.8846C65.6914 33.7089 65.6255 33.5614 65.4938 33.4418C65.3645 33.3223 65.1657 33.2321 64.8974 33.1711L63.9461 32.9625C63.4217 32.843 63.0338 32.6527 62.7826 32.3918C62.5338 32.1308 62.4094 31.8002 62.4094 31.4002C62.4094 31.0685 62.5021 30.7782 62.6875 30.5294C62.8728 30.2806 63.129 30.0867 63.4558 29.9476C63.7827 29.8062 64.1571 29.7354 64.5791 29.7354C65.1865 29.7354 65.6645 29.8672 66.0134 30.1306C66.3622 30.3916 66.5927 30.7416 66.7049 31.1807ZM70.2909 37.5361V29.8086H71.3593V30.7197H71.4507C71.5142 30.6026 71.6056 30.4672 71.7252 30.3135C71.8447 30.1599 72.0105 30.0257 72.2228 29.9111C72.435 29.794 72.7155 29.7354 73.0643 29.7354C73.518 29.7354 73.9229 29.8501 74.279 30.0794C74.6352 30.3087 74.9144 30.6392 75.1169 31.0709C75.3218 31.5027 75.4242 32.0222 75.4242 32.6296C75.4242 33.2369 75.323 33.7577 75.1206 34.1919C74.9181 34.6236 74.64 34.9566 74.2863 35.1908C73.9327 35.4225 73.529 35.5384 73.0753 35.5384C72.7338 35.5384 72.4545 35.481 72.2374 35.3664C72.0227 35.2517 71.8544 35.1176 71.7325 34.9639C71.6105 34.8102 71.5166 34.6736 71.4507 34.5541H71.3849V37.5361H70.2909ZM71.3629 32.6186C71.3629 33.0138 71.4203 33.3601 71.5349 33.6577C71.6495 33.9553 71.8154 34.1882 72.0325 34.3565C72.2496 34.5224 72.5155 34.6053 72.8301 34.6053C73.157 34.6053 73.4302 34.5188 73.6497 34.3456C73.8692 34.1699 74.0351 33.9321 74.1473 33.6321C74.262 33.3321 74.3193 32.9942 74.3193 32.6186C74.3193 32.2478 74.2632 31.9149 74.151 31.6197C74.0412 31.3246 73.8753 31.0916 73.6534 30.9209C73.4338 30.7502 73.1594 30.6648 72.8301 30.6648C72.513 30.6648 72.2447 30.7465 72.0252 30.9099C71.8081 31.0733 71.6434 31.3014 71.5312 31.5941C71.419 31.8868 71.3629 32.2283 71.3629 32.6186ZM76.4233 35.4286V29.8086H77.4807V30.7014H77.5392C77.6417 30.3989 77.8222 30.1611 78.0807 29.9879C78.3417 29.8123 78.6369 29.7245 78.9662 29.7245C79.0345 29.7245 79.115 29.7269 79.2077 29.7318C79.3028 29.7367 79.3772 29.7427 79.4308 29.7501V30.7965C79.3869 30.7843 79.3089 30.7709 79.1967 30.7562C79.0845 30.7392 78.9723 30.7306 78.8601 30.7306C78.6015 30.7306 78.371 30.7855 78.1685 30.8953C77.9685 31.0026 77.81 31.1526 77.6929 31.3453C77.5758 31.5356 77.5173 31.7527 77.5173 31.9966V35.4286H76.4233ZM82.3169 35.542C81.7901 35.542 81.3303 35.4213 80.9376 35.1798C80.5448 34.9383 80.2399 34.6005 80.0228 34.1663C79.8057 33.7321 79.6972 33.2247 79.6972 32.6442C79.6972 32.0612 79.8057 31.5514 80.0228 31.1148C80.2399 30.6782 80.5448 30.3391 80.9376 30.0977C81.3303 29.8562 81.7901 29.7354 82.3169 29.7354C82.8438 29.7354 83.3036 29.8562 83.6963 30.0977C84.089 30.3391 84.3939 30.6782 84.611 31.1148C84.8281 31.5514 84.9367 32.0612 84.9367 32.6442C84.9367 33.2247 84.8281 33.7321 84.611 34.1663C84.3939 34.6005 84.089 34.9383 83.6963 35.1798C83.3036 35.4213 82.8438 35.542 82.3169 35.542ZM82.3206 34.6236C82.6621 34.6236 82.945 34.5334 83.1694 34.3529C83.3939 34.1724 83.5597 33.9321 83.667 33.6321C83.7768 33.3321 83.8317 33.0016 83.8317 32.6406C83.8317 32.282 83.7768 31.9527 83.667 31.6527C83.5597 31.3502 83.3939 31.1075 83.1694 30.9246C82.945 30.7416 82.6621 30.6501 82.3206 30.6501C81.9767 30.6501 81.6913 30.7416 81.4644 30.9246C81.24 31.1075 81.0729 31.3502 80.9632 31.6527C80.8558 31.9527 80.8022 32.282 80.8022 32.6406C80.8022 33.0016 80.8558 33.3321 80.9632 33.6321C81.0729 33.9321 81.24 34.1724 81.4644 34.3529C81.6913 34.5334 81.9767 34.6236 82.3206 34.6236ZM88.2874 37.6532C87.841 37.6532 87.4569 37.5946 87.1349 37.4775C86.8153 37.3605 86.5544 37.2056 86.3519 37.0129C86.1494 36.8202 85.9982 36.6092 85.8982 36.3799L86.8385 35.9921C86.9044 36.0994 86.9922 36.2128 87.102 36.3323C87.2142 36.4543 87.3654 36.558 87.5557 36.6433C87.7484 36.7287 87.9959 36.7714 88.2984 36.7714C88.7131 36.7714 89.0558 36.6702 89.3265 36.4677C89.5973 36.2677 89.7327 35.9481 89.7327 35.5091V34.4041H89.6631C89.5973 34.5236 89.5022 34.6566 89.3778 34.8029C89.2558 34.9493 89.0875 35.0761 88.8728 35.1834C88.6582 35.2908 88.3789 35.3444 88.035 35.3444C87.591 35.3444 87.191 35.2408 86.8349 35.0334C86.4812 34.8237 86.2007 34.5151 85.9933 34.1077C85.7884 33.698 85.686 33.1943 85.686 32.5966C85.686 31.999 85.7872 31.4868 85.9897 31.0599C86.1946 30.6331 86.4751 30.3062 86.8312 30.0794C87.1873 29.8501 87.591 29.7354 88.0423 29.7354C88.3911 29.7354 88.6728 29.794 88.8875 29.9111C89.1021 30.0257 89.2692 30.1599 89.3887 30.3135C89.5107 30.4672 89.6046 30.6026 89.6705 30.7197H89.751V29.8086H90.823V35.553C90.823 36.036 90.7108 36.4323 90.4864 36.7421C90.262 37.0519 89.9583 37.2812 89.5753 37.43C89.1948 37.5788 88.7655 37.6532 88.2874 37.6532ZM88.2764 34.437C88.5911 34.437 88.857 34.3639 89.0741 34.2175C89.2936 34.0687 89.4595 33.8565 89.5717 33.5809C89.6863 33.3028 89.7436 32.9698 89.7436 32.582C89.7436 32.2039 89.6875 31.871 89.5753 31.5831C89.4631 31.2953 89.2985 31.0709 89.0814 30.9099C88.8643 30.7465 88.596 30.6648 88.2764 30.6648C87.9472 30.6648 87.6727 30.7502 87.4532 30.9209C87.2337 31.0892 87.0678 31.3185 86.9556 31.6088C86.8458 31.899 86.791 32.2234 86.791 32.582C86.791 32.9503 86.8471 33.2735 86.9593 33.5516C87.0715 33.8297 87.2373 34.0468 87.4569 34.2029C87.6788 34.359 87.952 34.437 88.2764 34.437ZM92.0635 35.4286V29.8086H93.1209V30.7014H93.1795C93.2819 30.3989 93.4624 30.1611 93.721 29.9879C93.982 29.8123 94.2771 29.7245 94.6064 29.7245C94.6747 29.7245 94.7552 29.7269 94.8479 29.7318C94.943 29.7367 95.0174 29.7427 95.0711 29.7501V30.7965C95.0272 30.7843 94.9491 30.7709 94.8369 30.7562C94.7247 30.7392 94.6125 30.7306 94.5003 30.7306C94.2418 30.7306 94.0112 30.7855 93.8088 30.8953C93.6088 31.0026 93.4502 31.1526 93.3331 31.3453C93.2161 31.5356 93.1575 31.7527 93.1575 31.9966V35.4286H92.0635ZM97.3763 35.553C97.0202 35.553 96.6982 35.4871 96.4104 35.3554C96.1226 35.2213 95.8945 35.0273 95.7262 34.7737C95.5603 34.52 95.4774 34.209 95.4774 33.8407C95.4774 33.5236 95.5384 33.2626 95.6603 33.0577C95.7823 32.8528 95.9469 32.6906 96.1543 32.571C96.3616 32.4515 96.5933 32.3613 96.8495 32.3003C97.1056 32.2393 97.3666 32.193 97.6325 32.1612C97.9691 32.1222 98.2423 32.0905 98.452 32.0661C98.6618 32.0393 98.8143 31.9966 98.9094 31.9381C99.0045 31.8795 99.0521 31.7844 99.0521 31.6527V31.6271C99.0521 31.3075 98.9618 31.0599 98.7813 30.8843C98.6033 30.7087 98.3374 30.6209 97.9837 30.6209C97.6154 30.6209 97.3251 30.7026 97.1129 30.866C96.9031 31.027 96.758 31.2063 96.6775 31.4039L95.6494 31.1697C95.7713 30.8282 95.9494 30.5526 96.1836 30.3428C96.4202 30.1306 96.6921 29.9769 96.9995 29.8818C97.3068 29.7842 97.63 29.7354 97.9691 29.7354C98.1935 29.7354 98.4313 29.7623 98.6825 29.8159C98.9362 29.8672 99.1728 29.9623 99.3924 30.1013C99.6143 30.2404 99.796 30.4391 99.9375 30.6977C100.079 30.9538 100.15 31.2868 100.15 31.6966V35.4286H99.0814V34.6602H99.0374C98.9667 34.8017 98.8606 34.9407 98.7191 35.0773C98.5777 35.2139 98.3959 35.3274 98.174 35.4176C97.952 35.5079 97.6861 35.553 97.3763 35.553ZM97.6142 34.6749C97.9166 34.6749 98.1752 34.6151 98.3898 34.4956C98.6069 34.3761 98.7716 34.22 98.8838 34.0273C98.9984 33.8321 99.0557 33.6236 99.0557 33.4016V32.6771C99.0167 32.7162 98.9411 32.7528 98.8289 32.7869C98.7191 32.8186 98.5935 32.8467 98.452 32.8711C98.3106 32.893 98.1727 32.9137 98.0386 32.9333C97.9044 32.9503 97.7922 32.965 97.702 32.9772C97.4898 33.004 97.2958 33.0491 97.1202 33.1125C96.947 33.176 96.808 33.2674 96.7031 33.387C96.6007 33.504 96.5494 33.6601 96.5494 33.8553C96.5494 34.126 96.6494 34.3309 96.8495 34.47C97.0495 34.6066 97.3044 34.6749 97.6142 34.6749ZM101.38 35.4286V29.8086H102.43V30.7233H102.5C102.617 30.4135 102.808 30.1721 103.074 29.9989C103.34 29.8232 103.658 29.7354 104.029 29.7354C104.405 29.7354 104.72 29.8232 104.973 29.9989C105.229 30.1745 105.418 30.416 105.54 30.7233H105.599C105.733 30.4233 105.946 30.1843 106.239 30.0062C106.532 29.8257 106.881 29.7354 107.286 29.7354C107.795 29.7354 108.211 29.8952 108.533 30.2147C108.858 30.5343 109.02 31.016 109.02 31.66V35.4286H107.926V31.7624C107.926 31.3819 107.822 31.1063 107.615 30.9355C107.408 30.7648 107.16 30.6794 106.872 30.6794C106.516 30.6794 106.239 30.7892 106.042 31.0087C105.844 31.2258 105.745 31.5051 105.745 31.8466V35.4286H104.655V31.6929C104.655 31.388 104.56 31.1429 104.369 30.9575C104.179 30.7721 103.932 30.6794 103.627 30.6794C103.419 30.6794 103.228 30.7343 103.052 30.8441C102.879 30.9514 102.739 31.1014 102.632 31.2941C102.527 31.4868 102.474 31.71 102.474 31.9637V35.4286H101.38Z" fill="#5B5C5C"/>
<defs>
<clipPath id="clip0_178_728">
<rect width="23.1824" height="45" fill="white" transform="translate(0.800049)"/>
</clipPath>
</defs>
</svg>
