<?xml version="1.0" standalone="no"?>
<!DOCTYPE svg PUBLIC "-//W3C//DTD SVG 20010904//EN"
 "http://www.w3.org/TR/2001/REC-SVG-20010904/DTD/svg10.dtd">
<svg version="1.0" xmlns="http://www.w3.org/2000/svg"
 width="700.000000pt" height="700.000000pt" viewBox="0 0 700.000000 700.000000"
 preserveAspectRatio="xMidYMid meet">
<metadata>
Created by potrace 1.14, written by Peter Selinger 2001-2017
</metadata>
<g transform="translate(0.000000,700.000000) scale(0.100000,-0.100000)"
fill="#000000" stroke="none">
<path d="M3145 6984 c-696 -80 -1291 -325 -1835 -755 -132 -104 -421 -392
-526 -524 -407 -510 -658 -1084 -748 -1705 -54 -373 -45 -793 25 -1150 99
-510 291 -959 588 -1380 153 -217 450 -533 651 -693 340 -271 702 -468 1105
-601 425 -141 908 -200 1359 -167 533 39 1069 210 1533 489 567 340 1024 832
1323 1424 242 476 359 940 376 1483 25 784 -225 1571 -698 2199 -177 233 -462
518 -693 692 -547 412 -1213 659 -1870 694 -231 13 -446 10 -590 -6z m638
-155 c790 -70 1515 -407 2072 -964 904 -901 1215 -2221 810 -3430 -24 -71 -50
-146 -58 -165 l-15 -35 -1089 1085 c-1592 1587 -1647 1642 -1721 1679 -90 46
-161 61 -282 61 -121 0 -192 -15 -282 -61 -73 -37 -120 -83 -1736 -1694 -804
-800 -1076 -1066 -1082 -1055 -18 33 -111 323 -139 435 -73 291 -96 491 -96
830 1 351 33 588 121 896 342 1202 1337 2120 2559 2364 94 18 220 38 280 44
61 6 124 13 140 15 72 8 407 5 518 -5z m-202 -1929 c30 -6 83 -24 119 -41 57
-27 102 -68 415 -380 l350 -349 -150 -148 c-114 -112 -161 -153 -196 -166
l-46 -18 -54 29 c-108 56 -214 31 -366 -85 -121 -94 -172 -93 -307 3 -66 47
-143 69 -223 62 -107 -8 -153 -38 -351 -231 -183 -177 -196 -186 -274 -186
-16 0 -46 9 -66 19 -43 22 -312 277 -312 295 0 7 118 129 263 271 144 142 397
392 562 555 165 163 321 309 347 324 46 27 145 54 204 55 17 1 55 -4 85 -9z
m2452 -2711 c-104 -103 -204 -196 -223 -208 -42 -25 -127 -28 -170 -6 -17 9
-146 128 -287 265 -307 298 -318 305 -463 305 -143 -1 -150 -6 -422 -272 -128
-125 -274 -267 -325 -316 l-92 -87 -71 0 -70 0 -83 77 c-45 42 -217 210 -382
373 -311 308 -370 361 -420 380 -85 33 -199 29 -275 -10 -19 -10 -83 -61 -142
-113 -103 -92 -146 -117 -203 -117 -55 1 -111 49 -453 385 l-354 348 198 198
198 198 156 -153 c105 -102 173 -160 206 -176 66 -31 180 -38 257 -16 65 19
95 42 301 238 207 197 227 202 375 104 97 -65 148 -80 244 -74 78 5 133 28
202 82 68 55 106 79 144 92 33 11 40 10 81 -14 36 -22 58 -27 110 -27 109 0
166 35 355 213 l160 152 818 -818 818 -817 -188 -186z m-4179 524 c415 -409
413 -408 556 -408 115 0 165 25 295 143 123 112 181 134 260 97 18 -9 211
-191 429 -405 450 -441 438 -433 591 -433 139 -1 111 -22 590 442 121 117 234
219 252 227 42 18 97 18 137 -1 17 -8 150 -130 296 -270 308 -297 327 -310
455 -310 134 0 147 8 399 252 l221 213 88 -90 c48 -50 87 -98 87 -107 0 -33
-165 -320 -269 -468 -515 -734 -1304 -1237 -2171 -1384 -206 -35 -321 -44
-570 -44 -249 0 -364 9 -569 44 -838 142 -1607 619 -2122 1314 -122 165 -319
497 -319 539 0 17 975 1006 993 1006 5 0 172 -160 371 -357z"/>
</g>
</svg>
